<svg width="134" height="55" viewBox="0 0 134 55" fill="none" xmlns="http://www.w3.org/2000/svg">
<path d="M67.4733 25.4044C67.1348 25.7556 66.7801 26.0759 66.4101 26.3643C66.0395 26.6528 65.6415 26.9004 65.2164 27.1073C64.7901 27.314 64.3216 27.472 63.8141 27.5772C63.3063 27.6837 62.7449 27.7373 62.1303 27.7373C61.1763 27.7373 60.2896 27.5616 59.4683 27.2103C58.6465 26.859 57.939 26.3767 57.3424 25.7626C56.7469 25.1483 56.2794 24.4289 55.9409 23.6085C55.6029 22.7866 55.4331 21.8991 55.4331 20.9457C55.4331 20.0044 55.5978 19.1209 55.9318 18.2929C56.2636 17.4654 56.7313 16.7407 57.3332 16.1204C57.9355 15.4993 58.6524 15.0106 59.4882 14.6522C60.3211 14.2951 61.2336 14.1172 62.225 14.1172C62.8267 14.1172 63.3746 14.1659 63.8703 14.2668C64.3663 14.368 64.8208 14.509 65.2339 14.6906C65.648 14.8726 66.0309 15.0892 66.3821 15.3397C66.7328 15.5908 67.0654 15.8666 67.3794 16.1669L65.8926 17.8792C65.3663 17.39 64.8081 16.9947 64.2193 16.6941C63.6289 16.3933 62.9578 16.2428 62.2056 16.2428C61.5778 16.2428 60.9982 16.3653 60.4653 16.6088C59.9309 16.854 59.4742 17.1858 59.0918 17.6066C58.7094 18.0262 58.4078 18.5189 58.1885 19.0832C57.9694 19.6475 57.8593 20.2568 57.8593 20.9091C57.8593 21.5606 57.9694 22.1725 58.1885 22.7425C58.4078 23.3135 58.7094 23.8116 59.0918 24.2384C59.4742 24.665 59.9309 25.0003 60.4653 25.2451C60.9982 25.4892 61.5778 25.6122 62.2056 25.6122C62.6063 25.6122 62.9774 25.5705 63.316 25.4892C63.6545 25.4082 63.9744 25.2952 64.2745 25.1504C64.5762 25.0064 64.8692 24.828 65.1496 24.6152C65.4319 24.4012 65.711 24.1631 65.9871 23.8994L67.4733 25.4044" fill="#58585A"/>
<path d="M81.6999 25.4044C81.3614 25.7556 81.0061 26.0759 80.6369 26.3643C80.2672 26.6528 79.8684 26.9004 79.4435 27.1073C79.0158 27.314 78.55 27.472 78.0412 27.5772C77.532 27.6837 76.9717 27.7373 76.3571 27.7373C75.4037 27.7373 74.5173 27.5616 73.6951 27.2103C72.8738 26.859 72.1647 26.3767 71.5695 25.7626C70.9734 25.1483 70.5063 24.4289 70.168 23.6085C69.8303 22.7866 69.6597 21.8991 69.6597 20.9457C69.6597 20.0044 69.8257 19.1209 70.1583 18.2929C70.4912 17.4654 70.9573 16.7407 71.5598 16.1204C72.1621 15.4993 72.8803 15.0106 73.7132 14.6522C74.5482 14.2951 75.4605 14.1172 76.451 14.1172C77.0533 14.1172 77.6022 14.1659 78.0979 14.2668C78.5928 14.368 79.0471 14.509 79.4615 14.6906C79.8756 14.8726 80.2575 15.0892 80.6097 15.3397C80.9599 15.5908 81.2919 15.8666 81.606 16.1669L80.1203 17.8792C79.5933 17.39 79.0355 16.9947 78.4459 16.6941C77.8549 16.3933 77.1851 16.2428 76.4327 16.2428C75.8044 16.2428 75.2253 16.3653 74.6932 16.6088C74.1585 16.854 73.7013 17.1858 73.3184 17.6066C72.9357 18.0262 72.6354 18.5189 72.4166 19.0832C72.1949 19.6475 72.0867 20.2568 72.0867 20.9091C72.0867 21.5606 72.1949 22.1725 72.4166 22.7425C72.6354 23.3135 72.9357 23.8116 73.3184 24.2384C73.7013 24.665 74.1585 25.0003 74.6932 25.2451C75.2253 25.4892 75.8044 25.6122 76.4327 25.6122C76.8337 25.6122 77.2042 25.5705 77.5439 25.4892C77.8816 25.4082 78.1999 25.2952 78.5021 25.1504C78.8024 25.0064 79.0939 24.828 79.3764 24.6152C79.6587 24.4012 79.9386 24.1631 80.2139 23.8994L81.6999 25.4044Z" fill="#58585A"/>
<path d="M86.7837 17.7851C86.7837 18.048 86.8268 18.2744 86.9166 18.4627C87.0036 18.6495 87.1639 18.8252 87.3964 18.988C87.6284 19.1522 87.9492 19.3023 88.3574 19.4407C88.767 19.579 89.2861 19.7224 89.9144 19.8734C90.6181 20.0367 91.2352 20.228 91.7629 20.4468C92.2901 20.6664 92.7303 20.9296 93.0837 21.2369C93.4349 21.5442 93.7023 21.9021 93.8853 22.3093C94.0664 22.7173 94.1593 23.1973 94.1593 23.7485C94.1593 24.3636 94.0441 24.9148 93.8124 25.404C93.5842 25.8929 93.2629 26.3068 92.8514 26.6456C92.4419 26.9847 91.9478 27.2444 91.3732 27.4263C90.7958 27.608 90.165 27.6992 89.4742 27.6992C88.4575 27.6992 87.4858 27.5272 86.5579 27.1822C85.6292 26.837 84.7713 26.3068 83.9807 25.5926L85.372 23.9368C86.0122 24.4888 86.6575 24.9118 87.3098 25.2065C87.9629 25.5019 88.7024 25.6489 89.5307 25.6489C90.2454 25.6489 90.813 25.4979 91.2325 25.1976C91.6531 24.8959 91.8625 24.4888 91.8625 23.9742C91.8625 23.7361 91.8213 23.5227 91.7416 23.3343C91.659 23.1465 91.5075 22.9705 91.2879 22.8077C91.0673 22.6443 90.7659 22.495 90.3821 22.3564C89.9984 22.2186 89.4984 22.0806 88.8827 21.943C88.179 21.7668 87.5541 21.5784 87.006 21.3777C86.4594 21.1777 86.0003 20.9269 85.6292 20.6258C85.2579 20.3241 84.9753 19.9646 84.7813 19.5445C84.5865 19.1234 84.4888 18.6059 84.4888 17.9913C84.4888 17.4148 84.5997 16.8917 84.8244 16.421C85.0482 15.9504 85.3558 15.5465 85.7479 15.2071C86.1395 14.8686 86.612 14.6086 87.1615 14.4259C87.7116 14.2451 88.3133 14.1539 88.9661 14.1539C89.9325 14.1539 90.8011 14.2946 91.5713 14.5769C92.3431 14.8592 93.0675 15.2698 93.7443 15.8088L92.5027 17.5591C91.9004 17.1204 91.3049 16.7846 90.7158 16.5526C90.1262 16.3207 89.5307 16.2047 88.9274 16.2047C88.2503 16.2047 87.7234 16.3581 87.3477 16.6649C86.9713 16.9724 86.7837 17.3457 86.7837 17.7851" fill="#58585A"/>
<path d="M57.9944 39.2398C57.9944 39.9634 58.3946 40.2251 58.9923 40.2251C59.2893 40.2251 59.5426 40.167 59.8507 40.0188V40.7755C59.5426 40.9353 59.2092 41.0293 58.7853 41.0293C57.8338 41.0293 57.112 40.5586 57.112 39.3536V35.7775H56.2859V34.9985H57.112V33.21H57.9944V34.9985H59.8752V35.7775H57.9944V39.2398Z" fill="#58585A"/>
<path d="M66.0605 37.634C65.9688 36.5567 65.3509 35.6179 64.1693 35.6179C63.1375 35.6179 62.3574 36.4768 62.2425 37.634H66.0605ZM64.3307 40.2941C65.1429 40.2941 65.7155 39.9634 66.198 39.4577L66.7486 39.951C66.1528 40.6153 65.4308 41.0635 64.306 41.0635C62.679 41.0635 61.3496 39.8127 61.3496 37.966C61.3496 36.2481 62.553 34.8727 64.1924 34.8727C65.9456 34.8727 66.9548 36.2705 66.9548 38.0142C66.9548 38.0939 66.9548 38.1837 66.9421 38.2876H62.2425C62.3698 39.5718 63.2861 40.2941 64.3307 40.2941Z" fill="#58585A"/>
<path d="M71.7889 41.0635C70.0569 41.0635 68.751 39.6522 68.751 37.9779C68.751 36.2936 70.0569 34.8727 71.7889 34.8727C72.9113 34.8727 73.6115 35.3426 74.161 35.9281L73.576 36.5458C73.1064 36.0525 72.5798 35.6526 71.7776 35.6526C70.5744 35.6526 69.6562 36.6711 69.6562 37.9558C69.6562 39.2515 70.5968 40.271 71.8349 40.271C72.5908 40.271 73.1758 39.8934 73.6443 39.3888L74.2068 39.9157C73.6115 40.582 72.8995 41.0635 71.7889 41.0635" fill="#58585A"/>
<path d="M77.0774 40.9258H76.1956V32.5567H77.0774V36.0308C77.4684 35.389 78.0876 34.8734 79.1075 34.8734C80.54 34.8734 81.3763 35.8363 81.3763 37.2458V40.9258H80.4934V37.4638C80.4934 36.3626 79.899 35.6755 78.8548 35.6755C77.8355 35.6755 77.0774 36.4202 77.0774 37.5327V40.9258Z" fill="#58585A"/>
<path d="M84.5882 40.9258H83.7056V34.9991H84.5882V36.0308C84.9776 35.389 85.5963 34.8734 86.6162 34.8734C88.0502 34.8734 88.8872 35.8363 88.8872 37.2458V40.9258H88.0042V37.4638C88.0042 36.3626 87.4082 35.6755 86.3646 35.6755C85.3444 35.6755 84.5882 36.4202 84.5882 37.5327V40.9258Z" fill="#58585A"/>
<path d="M94.0734 35.6526C92.7887 35.6526 91.9057 36.6711 91.9057 37.9558C91.9057 39.2398 92.8468 40.271 94.0965 40.271C95.3791 40.271 96.2749 39.2515 96.2749 37.9779C96.2749 36.683 95.3231 35.6526 94.0734 35.6526V35.6526ZM94.0734 41.0635C92.2949 41.0635 91.0005 39.6643 91.0005 37.9779C91.0005 36.2936 92.3072 34.8727 94.0965 34.8727C95.8723 34.8727 97.1794 36.2705 97.1794 37.9558C97.1794 39.6407 95.8616 41.0635 94.0734 41.0635Z" fill="#58585A"/>
<path d="M99.4126 40.9258V32.5567H100.295V40.9258H99.4126Z" fill="#58585A"/>
<path d="M105.59 35.6526C104.305 35.6526 103.422 36.6711 103.422 37.9558C103.422 39.2398 104.362 40.271 105.611 40.271C106.896 40.271 107.789 39.2515 107.789 37.9779C107.789 36.683 106.839 35.6526 105.59 35.6526V35.6526ZM105.59 41.0635C103.812 41.0635 102.516 39.6643 102.516 37.9779C102.516 36.2936 103.824 34.8727 105.611 34.8727C107.389 34.8727 108.694 36.2705 108.694 37.9558C108.694 39.6407 107.376 41.0635 105.59 41.0635Z" fill="#58585A"/>
<path d="M113.489 35.6529C112.365 35.6529 111.438 36.4198 111.438 37.6569C111.438 38.8725 112.389 39.6859 113.489 39.6859C114.611 39.6859 115.666 38.8835 115.666 37.6693C115.666 36.443 114.611 35.6529 113.489 35.6529V35.6529ZM113.5 42.7822C112.515 42.7822 111.597 42.5069 110.807 41.9568L111.208 41.2682C111.884 41.7621 112.64 42.0265 113.489 42.0265C114.797 42.0265 115.645 41.303 115.645 39.916V39.2174C115.127 39.9052 114.406 40.4674 113.316 40.4674C111.896 40.4674 110.531 39.4122 110.531 37.6811C110.531 35.9384 111.906 34.873 113.316 34.873C114.429 34.873 115.15 35.4228 115.632 36.0654V34.9987H116.516V39.8937C116.516 41.8086 115.323 42.7822 113.5 42.7822Z" fill="#58585A"/>
<path d="M119.111 40.9258V34.9991H119.993V40.9258H119.111ZM119.054 33.7033V32.7294H120.062V33.7033H119.054Z" fill="#58585A"/>
<path d="M126.926 37.634C126.834 36.5567 126.215 35.6179 125.034 35.6179C124.003 35.6179 123.222 36.4768 123.108 37.634H126.926ZM125.194 40.2941C126.008 40.2941 126.582 39.9634 127.064 39.4577L127.613 39.951C127.017 40.6153 126.295 41.0635 125.171 41.0635C123.545 41.0635 122.215 39.8127 122.215 37.966C122.215 36.2481 123.417 34.8727 125.057 34.8727C126.811 34.8727 127.819 36.2705 127.819 38.0142C127.819 38.0939 127.819 38.1837 127.809 38.2876H123.108C123.235 39.5718 124.151 40.2941 125.194 40.2941Z" fill="#58585A"/>
<path d="M131.892 41.04C131.042 41.04 130.103 40.7066 129.437 40.167L129.885 39.5374C130.526 40.0188 131.237 40.2941 131.937 40.2941C132.647 40.2941 133.163 39.9286 133.163 39.3536V39.3323C133.163 38.7349 132.464 38.5067 131.684 38.2876C130.755 38.0245 129.724 37.7023 129.724 36.6133V36.592C129.724 35.571 130.573 34.8945 131.743 34.8945C132.464 34.8945 133.267 35.147 133.874 35.5484L133.472 36.2136C132.922 35.8582 132.292 35.6402 131.72 35.6402C131.02 35.6402 130.573 36.0069 130.573 36.4994V36.5225C130.573 37.0847 131.306 37.3017 132.097 37.543C133.014 37.8186 134.001 38.1739 134.001 39.2398V39.2637C134.001 40.3859 133.072 41.04 131.892 41.04" fill="#58585A"/>
<path d="M8.43491 35.3818V29.8065L22.4036 37.8995V27.397L0 14.1802L0.00840948 41.0416L22.4036 54.0038V43.5208L8.43491 35.3818Z" fill="#ED1C24"/>
<path d="M45.5624 12.902L36.7851 7.86868L23.1179 15.6202L18.5009 12.902L32.0424 5.1319L23.1082 -0.000976562L0.675597 12.902L23.1298 26.0837L45.5624 12.902Z" fill="#ED1C24"/>
<path d="M37.8044 35.3818V29.8065L23.8356 37.8995V27.397L46.2392 14.1802L46.2311 41.0416L23.8356 54.0038V43.5208L37.8044 35.3818Z" fill="#ED1C24"/>
</svg>
