<svg width="48" height="48" viewBox="0 0 48 48" fill="none" xmlns="http://www.w3.org/2000/svg">
<rect x="0.5" y="0.5" width="47" height="47" rx="3.5" stroke="#FF0000"/>
<rect x="9" y="7" width="30" height="30" rx="15" stroke="black" stroke-width="1.5" stroke-linecap="round" stroke-linejoin="round"/>
<path d="M29.9398 24.6205C31.6038 24.0798 33.3962 24.0798 35.0602 24.6205C36.7242 25.1611 38.1743 26.2147 39.2027 27.6302C40.2311 29.0457 40.785 30.7504 40.785 32.5C40.785 34.2496 40.2311 35.9543 39.2027 37.3698C38.1743 38.7853 36.7242 39.8389 35.0602 40.3795C33.3962 40.9202 31.6038 40.9202 29.9398 40.3795C28.2758 39.8389 26.8257 38.7853 25.7973 37.3698C24.7689 35.9543 24.215 34.2496 24.215 32.5C24.215 30.7504 24.7689 29.0457 25.7973 27.6302C26.8257 26.2147 28.2758 25.1611 29.9398 24.6205Z" fill="white" stroke="black" stroke-width="1.5"/>
<path d="M36.1279 34.6242C36.1279 32.9562 34.6759 32.5362 33.3439 32.2122V29.7882C33.9799 29.8602 34.6519 30.0642 35.2879 30.4362L35.7799 29.2242C35.1319 28.8042 34.2319 28.5402 33.3439 28.4922V27.1602H32.3599V28.5162C30.4879 28.6962 29.5999 29.7642 29.5999 30.9882C29.5999 32.6562 31.0279 33.0882 32.3599 33.4122V35.8122C31.4479 35.7282 30.5479 35.3802 29.9599 34.9002L29.4199 36.1122C30.0439 36.6522 31.1839 37.0362 32.3599 37.1082V38.4402H33.3439V37.0962C35.2279 36.9042 36.1279 35.8482 36.1279 34.6242ZM31.1479 30.9162C31.1479 30.3882 31.5079 29.9562 32.3599 29.8242V31.9602C31.6639 31.7562 31.1479 31.4922 31.1479 30.9162ZM33.3439 35.7882V33.6642C34.0639 33.8682 34.5919 34.1442 34.5919 34.7322C34.5919 35.2482 34.2199 35.6562 33.3439 35.7882Z" fill="black"/>
<path d="M24 8L24 10" stroke="black" stroke-width="1.5" stroke-linecap="round" stroke-linejoin="round"/>
<path d="M24 14L24 21" stroke="black" stroke-width="1.5" stroke-linecap="round" stroke-linejoin="round"/>
<path d="M28 21H24" stroke="black" stroke-width="1.5" stroke-linecap="round" stroke-linejoin="round"/>
<line x1="9.75" y1="21.25" x2="12.25" y2="21.25" stroke="black" stroke-width="1.5" stroke-linecap="round" stroke-linejoin="round"/>
<line x1="35.75" y1="21.25" x2="38.25" y2="21.25" stroke="black" stroke-width="1.5" stroke-linecap="round" stroke-linejoin="round"/>
</svg>
