<svg width="48" height="48" viewBox="0 0 48 48" fill="none" xmlns="http://www.w3.org/2000/svg">
<rect x="0.5" y="0.5" width="47" height="47" rx="3.5" stroke="#FF0000"/>
<rect x="17" y="10" width="10" height="10" rx="5" stroke="black" stroke-width="1.5" stroke-linecap="round" stroke-linejoin="round"/>
<path d="M31 37.75C31.4142 37.75 31.75 37.4142 31.75 37V33C31.75 27.6152 27.3848 23.25 22 23.25C16.6152 23.25 12.25 27.6152 12.25 33V37C12.25 37.4142 12.5858 37.75 13 37.75H31Z" stroke="black" stroke-width="1.5" stroke-linecap="round" stroke-linejoin="round"/>
<path d="M32.2822 21.9138C32.3778 21.7442 32.6222 21.7442 32.7178 21.9138L33.3712 21.5456L32.7178 21.9138L35.5895 27.0087C35.8392 27.4518 36.2693 27.7643 36.7678 27.8648L42.5007 29.0216C42.6916 29.0601 42.7671 29.2924 42.6353 29.4358L38.6772 33.7413C38.333 34.1158 38.1687 34.6214 38.2271 35.1266L38.8986 40.9364C38.9209 41.1298 38.7233 41.2734 38.5462 41.1924L33.2283 38.7585C32.7658 38.5468 32.2342 38.5468 31.7717 38.7585L26.4538 41.1924C26.2767 41.2734 26.0791 41.1298 26.1014 40.9364L26.7729 35.1266C26.8313 34.6214 26.667 34.1158 26.3228 33.7413L22.3647 29.4358C22.2329 29.2924 22.3084 29.0601 22.4993 29.0216L28.2322 27.8648C28.7307 27.7643 29.1608 27.4517 29.4105 27.0087L32.2822 21.9138L31.6288 21.5456L32.2822 21.9138Z" fill="white" stroke="black" stroke-width="1.5"/>
</svg>
