<svg width="48" height="48" viewBox="0 0 48 48" fill="none" xmlns="http://www.w3.org/2000/svg">
<rect x="0.5" y="0.5" width="47" height="47" rx="3.5" stroke="#FF0000"/>
<path d="M17.1146 16.4673L17.113 16.4657C15.2957 14.6484 15.2957 11.7018 17.113 9.8845C18.9304 8.06715 21.8769 8.06715 23.6942 9.8845C24.112 10.3023 24.7894 10.3023 25.2072 9.8845C27.0245 8.06715 29.9711 8.06715 31.7884 9.8845C33.6058 11.7018 33.6058 14.6484 31.7884 16.4657L31.7868 16.4673L24.4507 23.8475L17.1146 16.4673Z" stroke="black" stroke-width="1.5"/>
<path d="M20 33H24.3431C25.404 33 26.4214 32.5786 27.1716 31.8284L30.5 28.5M30.5 28.5L33.1874 25.8126C34.8338 24.1662 37.3986 23.8741 39.373 25.1081L40 25.5L27.59 38.3873C27.213 38.7788 26.6929 39 26.1494 39H17.7016C17.2474 39 16.8068 39.1546 16.4522 39.4383L15.1989 40.4409C14.801 40.7592 14.2274 40.7274 13.8671 40.3671L9.70711 36.2071C9.31658 35.8166 9.31658 35.1834 9.70711 34.7929L14.8284 29.6716C15.5786 28.9214 16.596 28.5 17.6569 28.5H30.5Z" stroke="black" stroke-width="1.5" stroke-linecap="round" stroke-linejoin="round"/>
</svg>
