<svg width="861" height="708" viewBox="0 0 861 708" fill="none" xmlns="http://www.w3.org/2000/svg">
<path d="M649.341 170.784C664.293 266.922 914.41 363.715 850.406 508.38C814.862 588.517 571.565 576.581 497.985 621.962C430.439 663.538 300.068 762.299 297.97 668.915C296.527 604.124 160.648 503.79 107.267 514.545C-59.8279 548.645 9.42331 337.746 52.7053 207.508C87.7244 102.059 163.271 133.93 264.918 116.748C429.783 88.6806 403.683 -85.3636 563.826 -33.1634C656.686 -2.86637 620.355 95.6319 649.341 170.784Z" stroke="#FF0000" stroke-width="0.15" stroke-miterlimit="10"/>
<path d="M645.144 171.178C662.457 265.217 905.23 362.273 843.192 503.397C808.435 582.746 571.303 570.549 498.379 615.273C432.013 655.931 307.02 752.725 301.905 663.276C298.233 600.977 167.075 501.036 114.219 510.479C-49.2037 540.121 16.8996 336.697 58.6077 209.738C92.5775 106.387 168.124 134.979 267.279 117.798C426.242 90.5174 406.7 -80.2479 561.99 -28.9659C651.964 0.675404 616.421 98.5179 645.144 171.178Z" stroke="#FF0000" stroke-width="0.2381" stroke-miterlimit="10"/>
<path d="M641.079 171.572C660.49 263.381 895.918 360.699 835.979 498.282C802.009 576.975 570.909 564.647 498.773 608.453C433.587 648.193 314.103 742.888 305.709 657.505C299.938 597.698 173.633 498.282 121.17 506.413C-38.7111 531.595 24.2446 335.386 64.5099 211.837C97.4305 110.584 172.846 135.897 269.64 118.847C422.701 92.4847 409.848 -75.0017 560.154 -24.7689C647.243 4.21663 612.486 101.403 641.079 171.572Z" stroke="#FF0000" stroke-width="0.3262" stroke-miterlimit="10"/>
<path d="M637.013 171.965C658.654 261.545 886.343 358.994 828.765 493.167C795.32 571.073 570.516 558.614 499.166 601.764C435.161 640.586 321.054 733.182 309.644 651.865C301.512 594.288 180.191 495.396 128.253 502.348C-27.9559 523.201 31.5896 334.337 70.4122 214.198C102.284 115.043 177.568 136.815 272.001 120.027C419.029 93.9273 412.996 -69.8867 558.318 -20.572C642.39 7.8889 608.42 104.42 637.013 171.965Z" stroke="#FF0000" stroke-width="0.4143" stroke-miterlimit="10"/>
<path d="M632.816 172.228C656.686 259.578 876.9 357.289 821.552 488.052C788.762 565.303 569.991 552.58 499.56 595.075C436.735 632.979 328.006 723.477 313.578 646.226C303.217 591.009 186.88 492.773 135.204 498.282C-17.3321 514.807 39.0656 333.156 76.4455 216.427C107.268 119.372 182.421 137.865 274.493 121.208C415.619 95.7636 416.144 -64.6404 556.613 -16.3749C637.669 11.4302 604.486 107.305 632.816 172.228Z" stroke="#FF0000" stroke-width="0.5024" stroke-miterlimit="10"/>
<path d="M628.75 172.621C654.981 257.741 867.719 355.846 814.338 482.937C782.204 559.532 569.598 546.678 499.953 588.255C438.309 625.241 334.826 713.509 317.382 640.586C304.791 587.599 193.307 490.019 142.155 494.216C-6.5772 506.545 46.4104 332.107 82.3476 218.657C112.12 123.569 187.142 138.783 276.854 122.388C411.947 97.5998 419.291 -59.5252 554.777 -12.1778C632.947 15.1026 600.42 110.322 628.75 172.621Z" stroke="#FF0000" stroke-width="0.5905" stroke-miterlimit="10"/>
<path d="M624.684 173.014C653.145 255.905 858.407 354.272 807.255 477.821C775.909 553.63 569.336 540.645 500.478 581.566C439.883 617.634 341.646 703.541 321.448 634.946C306.496 584.189 200.127 487.396 149.238 490.281C4.17768 498.413 54.0175 330.926 88.2497 220.886C117.104 128.028 191.864 139.832 279.215 123.437C408.274 99.3047 422.308 -54.4103 552.81 -7.98101C628.225 18.6437 596.485 113.207 624.684 173.014Z" stroke="#FF0000" stroke-width="0.6786" stroke-miterlimit="10"/>
<path d="M620.486 173.408C651.177 254.2 848.963 352.698 799.91 472.837C769.219 547.99 568.81 534.874 500.739 574.877C441.325 610.027 348.203 693.573 325.251 629.307C307.938 580.648 206.684 484.641 156.189 486.215C14.9319 490.412 61.4928 329.877 94.1511 223.247C121.956 132.487 196.585 141.012 281.575 124.749C404.732 101.272 425.455 -49.0329 551.104 -3.65288C623.503 22.316 592.55 116.093 620.486 173.408Z" stroke="#FF0000" stroke-width="0.7667" stroke-miterlimit="10"/>
<path d="M616.421 173.67C649.341 252.233 839.782 350.993 792.828 467.591C762.793 542.088 568.548 528.71 501.264 568.057C443.031 602.288 354.893 683.474 329.186 623.536C309.381 577.106 213.374 481.887 163.14 482.018C25.8183 482.149 68.838 328.697 100.054 225.346C126.81 136.553 201.307 141.799 283.936 125.798C401.191 102.977 428.472 -44.049 549.268 0.412937C618.651 25.8572 588.484 119.109 616.421 173.67Z" stroke="#FF0000" stroke-width="0.8548" stroke-miterlimit="10"/>
<path d="M612.355 174.064C647.505 250.397 830.601 349.551 785.745 462.476C756.497 536.317 568.155 522.808 501.789 561.237C444.736 594.55 361.32 673.375 333.252 617.765C310.824 573.303 220.063 479.264 170.354 477.821C36.8358 474.149 76.4454 327.385 106.218 227.444C131.925 140.75 206.291 142.717 286.56 126.716C397.913 104.551 431.882 -39.0649 547.694 4.4789C613.929 29.5297 584.55 121.995 612.355 174.064Z" stroke="#FF0000" stroke-width="0.9429" stroke-miterlimit="10"/>
<path d="M608.158 174.457C645.538 248.56 821.158 347.977 778.4 457.492C749.808 530.546 567.63 516.906 502.051 554.679C446.178 587.075 367.484 663.539 337.055 612.256C312.004 569.893 226.621 476.772 177.174 473.887C47.4593 466.411 83.79 326.336 111.989 229.805C136.646 145.209 211.013 143.898 288.658 128.028C393.978 106.65 434.636 -33.6875 545.596 8.80707C609.207 33.071 580.484 125.011 608.158 174.457Z" stroke="#FF0000" stroke-width="1.031" stroke-miterlimit="10"/>
<path d="M604.092 174.851C643.701 246.724 811.976 346.403 771.318 452.377C743.512 524.775 567.368 510.873 502.576 547.859C447.883 579.336 373.648 653.571 340.99 606.486C313.053 566.221 233.309 474.149 184.256 469.821C58.4763 458.673 91.1345 325.287 117.891 232.035C141.499 149.538 215.734 144.947 291.019 129.208C390.436 108.486 437.784 -28.4412 543.759 13.0041C604.485 36.6122 576.549 127.897 604.092 174.851Z" stroke="#FF0000" stroke-width="1.119" stroke-miterlimit="10"/>
<path d="M599.895 175.113C641.735 244.888 802.665 344.829 763.974 447.131C736.824 518.873 566.844 504.84 502.839 541.039C449.327 571.598 379.42 643.603 344.794 600.715C313.972 562.679 239.868 471.526 191.077 465.624C69.1009 450.934 98.4802 323.975 123.662 234.133C146.222 153.735 220.326 145.734 293.249 130.126C386.896 110.322 440.933 -23.3262 541.924 17.201C599.764 40.2845 572.615 130.782 599.895 175.113Z" stroke="#FF0000" stroke-width="1.2071" stroke-miterlimit="10"/>
<path d="M595.829 175.506C639.898 243.052 793.484 343.255 756.891 442.147C730.528 513.234 566.581 498.938 503.363 534.481C451.031 564.122 385.321 633.897 348.86 595.206C315.021 559.401 246.688 469.165 198.291 461.689C80.1178 443.458 105.956 322.926 129.695 236.494C151.205 158.063 225.178 146.914 295.741 131.438C383.223 112.158 443.949 -18.2111 540.087 21.398C594.911 43.8257 568.549 133.799 595.829 175.506Z" stroke="#FF0000" stroke-width="1.2952" stroke-miterlimit="10"/>
<path d="M591.763 175.9C638.061 241.216 784.302 341.812 749.677 437.032C724.101 507.463 566.187 493.036 503.756 527.661C452.474 556.384 390.961 624.192 352.663 589.435C315.676 555.99 253.245 466.673 205.11 457.492C90.8723 435.851 113.3 321.746 135.597 238.593C156.058 162.26 229.899 147.833 298.101 132.487C379.681 113.994 447.096 -13.0961 538.251 25.595C590.189 47.4981 564.613 136.684 591.763 175.9Z" stroke="#FF0000" stroke-width="1.3833" stroke-miterlimit="10"/>
<path d="M587.566 176.293C636.094 239.38 775.121 340.37 742.463 431.917C717.674 501.692 565.663 487.002 504.15 520.972C454.048 548.777 396.601 614.748 356.598 583.927C316.463 552.974 259.935 464.443 212.193 453.558C101.759 428.638 120.776 320.696 141.499 240.953C160.911 166.719 234.621 149.144 300.462 133.668C376.14 115.962 450.113 -7.8498 536.415 29.792C585.468 51.0393 560.679 139.701 587.566 176.293Z" stroke="#FF0000" stroke-width="1.4714" stroke-miterlimit="10"/>
<path d="M583.5 176.556C634.258 237.543 765.94 338.665 735.381 426.802C711.379 495.921 565.401 480.969 504.675 514.152C455.753 541.039 402.372 605.174 360.664 578.156C317.25 549.957 266.624 461.952 219.276 449.492C112.513 421.293 128.121 319.385 147.401 243.183C165.763 171.047 239.474 150.193 302.823 134.848C372.599 117.929 453.261 -2.60353 534.71 33.989C580.746 54.7117 556.613 142.586 583.5 176.556Z" stroke="#FF0000" stroke-width="1.5595" stroke-miterlimit="10"/>
<path d="M579.435 176.949C632.422 235.707 756.891 337.222 728.167 421.687C704.952 490.15 565.007 475.067 505.068 507.463C457.327 533.432 408.012 596.124 364.467 572.516C317.775 547.203 273.182 459.591 226.227 445.426C123.138 414.211 135.466 318.336 153.435 245.544C170.748 175.375 244.327 151.505 305.315 136.16C369.058 120.159 456.409 2.77389 532.874 38.4484C576.025 58.2529 552.679 145.472 579.435 176.949Z" stroke="#FF0000" stroke-width="1.6476" stroke-miterlimit="10"/>
<path d="M575.238 177.343C630.455 233.871 747.71 335.779 720.954 416.571C698.526 484.379 564.614 469.034 505.462 500.643C458.901 525.693 413.652 586.943 368.402 566.745C318.431 544.449 279.74 457.23 233.179 441.229C133.762 406.997 142.811 317.024 159.337 247.642C175.47 179.572 249.049 152.423 307.676 137.078C365.517 121.995 459.557 7.62661 531.038 42.383C571.172 61.9253 548.613 148.488 575.238 177.343Z" stroke="#FF0000" stroke-width="1.7357" stroke-miterlimit="10"/>
<path d="M571.171 177.736C628.618 232.035 738.659 334.205 713.739 411.588C692.098 478.739 564.22 463.263 505.855 494.085C460.474 518.217 419.422 578.156 372.336 561.237C319.218 542.219 286.297 455.263 240.261 437.294C144.385 400.046 150.287 316.106 165.239 250.003C180.322 184.032 253.901 153.735 310.037 138.389C361.975 124.093 462.573 13.0041 529.201 46.8423C566.449 65.4665 544.677 151.374 571.171 177.736Z" stroke="#FF0000" stroke-width="1.8238" stroke-miterlimit="10"/>
<path d="M567.105 177.998C626.913 230.067 729.609 332.632 706.657 406.341C685.934 472.837 563.826 457.099 506.379 487.133C462.179 510.348 425.455 568.975 376.271 555.335C320.004 539.596 292.724 452.771 247.212 433.097C154.877 392.963 157.5 314.794 171.141 252.102C185.043 188.097 258.623 154.915 312.397 139.439C358.434 126.192 465.72 18.1191 527.364 50.9081C561.728 69.0077 540.743 154.39 567.105 177.998Z" stroke="#FF0000" stroke-width="1.9119" stroke-miterlimit="10"/>
<path d="M562.909 178.392C624.946 228.362 720.429 331.189 699.313 401.226C679.508 467.067 563.302 451.065 506.642 480.444C463.622 502.741 431.227 560.319 380.075 549.695C320.792 537.497 299.151 450.672 254.164 429.031C165.239 386.012 164.846 313.614 177.043 254.331C189.897 192.426 263.476 156.226 314.759 140.488C355.024 128.159 468.869 23.2342 525.529 55.1051C557.007 72.6801 536.677 157.276 562.909 178.392Z" stroke="#FF0000" stroke-width="2" stroke-miterlimit="10"/>
<path d="M561.073 179.572C621.537 228.625 712.56 327.91 691.837 396.767C672.426 461.165 560.548 446.344 505.069 474.805C462.836 496.446 429.522 552.449 379.551 541.826C321.579 529.628 301.643 445.426 258.23 423.523C172.584 380.504 172.584 309.942 184.782 251.971C197.504 191.508 268.461 157.276 318.563 141.537C357.91 129.208 467.033 28.6116 522.513 59.4333C553.204 76.6148 535.497 158.85 561.073 179.572Z" stroke="#FF0000" stroke-width="1.9119" stroke-miterlimit="10"/>
<path d="M559.105 180.753C617.995 228.887 704.69 324.762 684.099 392.308C664.95 455.263 557.663 441.622 503.232 469.165C461.918 490.15 427.554 544.58 378.764 534.087C322.104 522.021 303.873 440.311 262.165 418.277C179.929 375.126 180.191 306.4 192.389 249.872C204.98 190.852 273.313 158.456 322.104 142.849C360.664 130.389 465.065 34.2513 519.233 64.1549C549.4 80.6806 534.185 160.424 559.105 180.753Z" stroke="#FF0000" stroke-width="1.8238" stroke-miterlimit="10"/>
<path d="M557.269 181.933C614.716 229.149 696.82 321.483 676.622 387.848C657.867 449.361 554.908 436.77 501.658 463.657C461.13 483.986 425.849 536.842 378.239 526.349C323.022 514.283 306.364 435.065 266.361 413.03C187.667 369.618 188.192 302.99 200.258 247.642C212.849 189.934 278.428 159.637 326.038 144.029C363.811 131.569 463.491 39.8911 516.348 68.6143C545.727 84.6153 533.005 161.866 557.269 181.933Z" stroke="#FF0000" stroke-width="1.7357" stroke-miterlimit="10"/>
<path d="M555.301 183.114C611.175 229.543 688.951 318.336 669.015 383.258C650.653 443.327 552.023 431.917 499.953 457.886C460.343 477.69 424.013 528.841 377.452 518.48C323.546 506.545 308.594 429.818 270.165 407.522C194.881 363.978 195.667 299.187 207.603 245.282C220.063 189.016 283.018 160.686 329.317 145.078C366.303 132.618 461.261 45.2685 512.806 73.0736C541.923 88.6811 531.693 163.44 555.301 183.114Z" stroke="#FF0000" stroke-width="1.6476" stroke-miterlimit="10"/>
<path d="M553.465 184.294C607.765 229.805 681.082 315.057 661.408 378.799C643.439 437.425 549.268 427.195 498.248 452.246C459.557 471.395 422.308 520.841 376.796 510.61C324.202 498.675 311.086 424.572 274.231 402.144C202.357 358.469 203.406 295.646 215.341 243.052C227.801 188.229 288.003 161.866 333.121 146.259C369.189 133.668 459.557 50.9082 509.79 77.664C538.251 92.6158 530.513 165.014 553.465 184.294Z" stroke="#FF0000" stroke-width="1.5595" stroke-miterlimit="10"/>
<path d="M551.629 185.474C604.485 230.067 673.343 311.778 653.932 374.339C636.225 431.523 546.514 422.342 496.674 446.737C458.769 465.23 420.602 513.102 376.271 502.872C324.989 491.068 313.578 419.326 278.297 396.898C209.832 353.092 211.275 292.235 223.079 240.953C235.408 187.442 293.117 163.178 336.793 147.57C372.074 134.979 457.72 56.5479 506.642 82.2545C534.447 96.6817 529.201 166.588 551.629 185.474Z" stroke="#FF0000" stroke-width="1.4714" stroke-miterlimit="10"/>
<path d="M549.661 186.655C600.944 230.461 665.342 308.63 646.193 369.88C628.881 425.621 543.497 417.621 494.838 441.098C457.851 458.935 418.635 505.233 375.484 495.134C325.644 483.33 315.807 414.211 282.231 391.521C217.177 347.583 218.882 288.563 230.686 238.724C243.015 186.655 297.97 164.358 340.465 148.751C374.96 136.029 455.884 62.1876 503.625 86.845C530.644 100.616 528.02 168.162 549.661 186.655Z" stroke="#FF0000" stroke-width="1.3833" stroke-miterlimit="10"/>
<path d="M547.825 187.835C597.534 230.723 657.604 305.351 638.717 365.421C621.798 419.719 540.743 412.899 493.264 435.458C457.064 452.639 416.93 497.364 374.96 487.265C326.431 475.592 318.3 408.964 286.428 386.143C224.784 342.075 226.752 285.022 238.556 236.494C250.754 185.868 303.085 165.407 344.269 149.931C377.976 137.209 454.048 67.6962 500.609 91.3043C526.971 104.682 526.709 169.736 547.825 187.835Z" stroke="#FF0000" stroke-width="1.2952" stroke-miterlimit="10"/>
<path d="M545.858 189.016C594.124 230.986 649.604 302.072 631.111 360.961C614.454 413.817 537.989 408.046 491.559 429.818C456.278 446.344 415.094 489.494 374.304 479.395C327.088 467.722 320.661 403.718 290.363 380.766C232.129 336.697 234.49 281.481 246.163 234.264C258.361 184.95 307.939 166.588 347.942 150.98C380.862 138.258 452.212 73.2048 497.461 95.7636C523.168 108.617 525.529 171.178 545.858 189.016Z" stroke="#FF0000" stroke-width="1.2071" stroke-miterlimit="10"/>
<path d="M544.022 190.196C590.714 231.248 641.865 298.924 623.503 356.371C607.24 407.784 535.103 403.194 489.854 424.179C455.49 440.048 413.258 481.625 373.648 471.657C327.743 460.115 323.021 398.603 294.429 375.388C239.605 331.189 242.228 277.808 253.77 231.904C265.836 184.032 312.791 167.637 351.482 152.03C383.485 139.176 450.244 78.7133 494.182 100.223C519.364 112.683 524.217 172.752 544.022 190.196Z" stroke="#FF0000" stroke-width="1.119" stroke-miterlimit="10"/>
<path d="M542.055 191.376C587.304 231.641 633.865 295.646 615.896 351.912C600.026 401.882 532.218 398.472 488.149 418.539C454.573 433.884 411.422 473.756 372.993 463.788C328.399 452.246 325.383 393.357 298.364 370.011C246.95 325.68 249.836 274.267 261.378 229.674C273.444 183.114 317.644 168.686 355.155 153.21C386.371 140.357 448.408 84.2219 491.035 104.682C515.692 116.617 523.037 174.326 542.055 191.376Z" stroke="#FF0000" stroke-width="1.031" stroke-miterlimit="10"/>
<path d="M540.218 192.557C583.894 231.904 626.126 292.367 608.289 347.452C592.812 395.98 529.332 393.619 486.444 412.899C453.785 427.589 409.585 465.886 372.337 456.049C329.186 444.639 327.874 388.242 302.43 364.765C254.426 320.434 257.705 270.726 269.116 227.575C281.051 182.458 322.628 169.998 358.827 154.521C389.256 141.537 446.441 89.9927 487.886 109.404C511.888 120.683 521.725 175.9 540.218 192.557Z" stroke="#FF0000" stroke-width="0.9429" stroke-miterlimit="10"/>
<path d="M538.383 193.737C580.484 232.166 618.258 289.219 600.814 342.993C585.599 389.947 526.71 388.898 484.87 407.391C453.13 421.424 407.881 458.148 371.681 448.311C329.842 436.901 330.236 383.127 306.496 359.387C261.903 315.057 265.444 267.185 276.854 225.346C288.79 181.671 327.612 171.178 362.632 155.702C392.273 142.718 444.736 95.5013 484.87 113.994C508.085 124.618 520.545 177.474 538.383 193.737Z" stroke="#FF0000" stroke-width="0.8548" stroke-miterlimit="10"/>
<path d="M536.415 194.918C577.074 232.428 610.388 285.94 593.206 338.534C578.385 384.045 523.824 384.045 483.165 401.751C452.212 415.129 406.044 450.279 371.025 440.442C330.498 429.163 332.596 377.88 310.431 354.01C269.247 309.548 273.051 263.643 284.461 223.116C296.266 180.753 332.465 172.228 366.173 156.882C394.896 143.767 442.769 101.01 481.591 118.454C504.413 128.684 519.233 179.048 536.415 194.918Z" stroke="#FF0000" stroke-width="0.7667" stroke-miterlimit="10"/>
<path d="M534.579 196.098C573.664 232.822 602.519 282.792 585.599 333.943C571.172 378.012 520.939 379.192 481.46 395.98C451.425 408.702 404.208 442.278 370.37 432.573C331.154 421.293 334.957 372.634 314.497 348.633C276.723 304.171 280.92 259.971 292.2 220.887C304.004 179.966 337.449 173.408 369.976 158.063C397.913 144.816 441.064 106.65 478.575 123.044C500.609 132.618 518.053 180.49 534.579 196.098Z" stroke="#FF0000" stroke-width="0.6786" stroke-miterlimit="10"/>
<path d="M532.612 197.278C570.123 233.084 594.649 279.513 577.992 329.484C563.827 372.109 518.053 374.47 479.624 390.471C450.376 402.538 402.241 434.54 369.583 424.834C331.678 413.686 337.187 367.519 318.431 343.255C283.937 298.793 288.527 256.43 299.676 218.526C311.349 179.048 342.171 174.326 373.518 159.112C400.667 145.865 439.096 112.027 475.296 127.503C496.806 136.684 516.742 182.064 532.612 197.278Z" stroke="#FF0000" stroke-width="0.5905" stroke-miterlimit="10"/>
<path d="M530.775 198.459C566.843 233.346 586.779 276.234 570.384 325.024C556.613 366.208 515.298 369.618 477.918 384.832C449.588 396.373 400.404 426.67 368.926 417.096C332.464 405.948 339.416 362.404 322.365 338.009C291.281 293.547 296.134 253.02 307.282 216.427C318.955 178.261 347.023 175.638 377.058 160.424C403.421 147.046 437.128 117.667 472.016 132.094C493.132 140.619 515.56 183.638 530.775 198.459Z" stroke="#FF0000" stroke-width="0.5024" stroke-miterlimit="10"/>
<path d="M528.808 199.639C563.302 233.74 578.779 273.087 562.777 320.565C549.399 360.306 512.413 364.896 476.213 379.192C448.802 390.078 398.568 418.801 368.271 409.227C333.121 398.21 341.777 357.158 326.432 332.632C298.626 288.17 304.004 249.347 315.021 214.198C326.563 177.474 352.007 176.687 380.862 161.604C406.307 148.226 435.423 123.175 469 136.684C489.329 144.554 514.249 185.212 528.808 199.639Z" stroke="#FF0000" stroke-width="0.4143" stroke-miterlimit="10"/>
<path d="M526.972 200.82C559.892 234.002 571.041 269.808 555.171 316.106C542.186 354.403 509.528 360.174 474.509 373.552C447.884 383.782 396.732 410.932 367.615 401.357C333.777 390.34 344.138 351.911 330.367 327.123C305.84 282.661 311.611 245.675 322.628 211.837C334.039 176.556 356.86 177.736 384.403 162.522C409.061 149.013 433.456 128.553 465.721 140.881C485.657 148.619 512.938 186.786 526.972 200.82Z" stroke="#FF0000" stroke-width="0.3262" stroke-miterlimit="10"/>
<path d="M525.004 202C556.482 234.264 563.04 266.529 547.563 311.647C534.841 348.501 506.773 355.322 472.803 368.044C447.096 377.618 394.896 403.194 366.959 393.75C334.432 382.864 346.367 347.059 334.432 322.008C313.185 277.546 319.349 242.265 330.366 209.869C341.777 175.9 361.844 179.048 388.207 163.965C412.077 150.324 431.751 134.323 462.704 145.734C481.853 152.554 511.757 188.36 525.004 202Z" stroke="#FF0000" stroke-width="0.2381" stroke-miterlimit="10"/>
<path d="M523.168 203.181C553.072 234.527 555.302 263.381 540.088 307.056C527.759 342.468 504.019 350.469 471.23 362.273C446.31 371.192 393.322 395.062 366.304 385.75C335.219 374.864 348.729 341.681 338.498 316.499C320.53 272.038 327.219 238.593 337.974 207.509C349.253 174.982 366.697 179.966 391.748 165.014C414.701 151.243 429.653 139.832 459.426 150.193C478.05 156.62 510.446 189.803 523.168 203.181Z" stroke="#FF0000" stroke-width="0.15" stroke-miterlimit="10"/>
<path d="M515.954 193.737L511.363 189.146L518.708 181.671L511.363 174.326L515.954 169.735L528.02 181.671L515.954 193.737Z" fill="#000"/>
<path d="M30.7525 384L38.7531 392.001L25.8997 404.854L38.7531 417.707L30.7525 425.708L9.89844 404.854L30.7525 384Z" fill="#000"/>
<path d="M139.401 213.148L146.746 217.082L141.5 225.607L134.024 221.017L134.286 229.149H124.056L124.318 221.017L116.842 225.607L111.596 217.082L118.941 213.148L111.596 209.213L116.842 200.688L124.318 205.278L124.056 197.146H134.286L134.024 205.278L141.5 200.688L146.746 209.213L139.401 213.148Z" fill="#000"/>
<path d="M644.706 106.361L649.428 108.853L646.018 114.362L641.296 111.476L641.427 116.723H634.869L635.001 111.476L630.279 114.362L627 108.853L631.722 106.361L627 103.869L630.279 98.3608L635.001 101.246L634.869 96H641.427L641.296 101.246L646.018 98.3608L649.428 103.869L644.706 106.361Z" fill="#000"/>
<path fill-rule="evenodd" clip-rule="evenodd" d="M394.892 261.375V144H348.732V167.079H364.229V200.022C354.112 193.573 342.118 189.83 329.282 189.83C293.344 189.83 264 219.173 264 255.111C264 291.049 293.344 320.392 329.282 320.392C363.576 320.392 391.68 294.155 394.358 260.916L394.892 261.375ZM294.992 255.111C294.992 236.318 310.489 220.822 329.282 220.822C348.405 220.822 363.572 235.988 363.572 255.111C363.572 273.904 348.075 289.4 329.282 289.4C310.489 289.4 294.992 273.904 294.992 255.111Z" fill="#FF0000"/>
<path d="M575 362.696L448 442V283L575 362.696ZM481.71 388.215L520.907 362.696L481.71 337.178V388.215Z" fill="#FF0000"/>
<path d="M468.605 466.673H477.786V457.754H487.754V466.673H496.936V476.116H487.754V485.034H477.786V476.116H468.605V466.673Z" fill="#000"/>
<path d="M568 294.352H573.509V289H579.491V294.352H585V300.018H579.491V305.37H573.509V300.018H568V294.352Z" fill="#000"/>
<path d="M221.505 512.219L229.112 516.285L223.604 525.203L215.865 520.482L216.128 529.007H205.504L205.766 520.482L198.028 525.203L192.65 516.285L200.258 512.219L192.65 508.153L198.028 499.234L205.766 503.956L205.504 495.431H216.128L215.865 503.956L223.604 499.234L229.112 508.153L221.505 512.219Z" fill="#000"/>
<path d="M138.195 437L161 449.08L144.567 475.926L121.091 461.497L121.762 487H89.9024L90.5731 461.497L67.0975 475.926L51 449.08L73.8048 437L51 424.919L67.0975 398.074L90.5731 412.503L89.9024 387H121.762L121.091 412.503L144.567 398.074L161 424.919L138.195 437Z" fill="#FF0000"/>
<path d="M664.356 549.492L663.784 554.508H668.527V560.517H663.041L662.356 566H656.07L656.756 560.517H652.87L652.184 566H645.956L646.641 560.517H641.898V554.508H647.384L647.956 549.492H643.213V543.483H648.698L649.384 538H655.67L654.984 543.483H658.87L659.556 538H665.841L665.156 543.483H669.898V549.492H664.356ZM658.127 549.492H654.241L653.67 554.508H657.556L658.127 549.492Z" fill="#000"/>
<path d="M306 552C306 521.475 330.75 497 361 497C391.25 497 416 521.75 416 552C416 582.25 391.25 607 361 607C330.75 607 306 582.525 306 552ZM334.325 552C334.325 566.85 346.425 578.675 361 578.675C375.575 578.675 387.675 566.575 387.675 552C387.675 537.425 375.575 525.325 361 525.325C346.425 525.325 334.325 537.425 334.325 552Z" fill="#FF0000"/>
<path d="M215.345 258.297V263.019C215.345 264.068 215.608 264.986 216.264 265.642C216.919 266.298 217.706 266.56 218.887 266.56H219.411V275.085H215.608C211.804 275.085 208.788 274.167 206.82 272.331C204.853 270.495 203.804 267.871 203.804 264.33V258.035C203.804 257.248 203.672 256.723 203.279 256.33C202.885 255.936 202.361 255.805 201.705 255.805H200V247.28H201.705C202.361 247.28 202.885 247.149 203.279 246.755C203.672 246.362 203.804 245.837 203.804 245.05V238.755C203.804 235.345 204.853 232.59 206.82 230.754C208.788 228.918 211.673 228 215.608 228H219.28V236.525H218.756C217.575 236.525 216.657 236.787 216.132 237.443C215.477 238.099 215.214 238.886 215.214 240.066V244.788C215.214 246.755 214.952 248.329 214.296 249.378C213.64 250.428 212.591 251.215 211.148 251.608C212.591 252.002 213.64 252.789 214.296 253.838C214.952 254.756 215.345 256.33 215.345 258.297Z" fill="#000"/>
<path d="M516.85 441.461V433.329C516.85 431.493 516.325 430.05 515.276 429.001C514.227 427.952 512.784 427.427 510.817 427.427H509.898V413H516.194C522.752 413 527.605 414.574 531.015 417.722C534.425 420.869 535.999 425.329 535.999 431.1V441.854C535.999 443.166 536.261 444.084 536.917 444.609C537.573 445.264 538.491 445.527 539.54 445.527H542.294V459.954H539.54C538.36 459.954 537.573 460.216 536.917 460.872C536.261 461.528 535.999 462.446 535.999 463.626V474.381C535.999 480.283 534.294 484.742 531.015 487.759C527.605 490.907 522.752 492.481 516.194 492.481H509.898V478.053H510.685C512.653 478.053 514.227 477.529 515.145 476.48C516.194 475.43 516.719 473.988 516.719 472.151V464.02C516.719 460.61 517.243 458.118 518.293 456.413C519.342 454.708 521.178 453.396 523.539 452.609C521.047 451.822 519.342 450.642 518.293 448.806C517.374 447.363 516.85 444.74 516.85 441.461Z" fill="#000"/>
<path d="M249.707 247.674V288.463H235.936V258.035H228.984V247.674H249.707Z" fill="#000"/>
<path d="M125.898 124.62H155.325V96H187.573V124.62H217V155.256H187.573V183.876H155.325V155.256H125.898V124.62Z" fill="#FF0000"/>
<path d="M754.047 260.66L751.578 282.34H772.073V308.304H748.367L745.404 332H718.241L721.204 308.304H704.412L701.449 332H674.533L677.496 308.304H657V282.34H680.706L683.176 260.66H662.68V234.696H686.386L689.349 211H716.512L713.549 234.696H730.341L733.304 211H760.467L757.504 234.696H778V260.66H754.047ZM727.131 260.66H710.339L707.869 282.34H724.661L727.131 260.66Z" fill="#FF0000"/>
</svg>
