<svg width="396" height="360" viewBox="0 0 396 360" fill="none" xmlns="http://www.w3.org/2000/svg">
<path d="M156 116L156 257" stroke="white" stroke-dasharray="4 4"/>
<rect x="341.484" y="55" width="229.953" height="294.485" rx="8" transform="rotate(90 341.484 55)" fill="#FF0000"/>
<path d="M333.484 55C337.903 55 341.484 58.5817 341.484 63L341.484 81.3582L46.9994 81.3582L46.9994 63C46.9994 58.5817 50.5811 55 54.9994 55L333.484 55Z" fill="#C80000"/>
<circle cx="62.4495" cy="67.7249" r="5.45343" fill="white"/>
<circle cx="80.6292" cy="67.7249" r="5.45343" fill="white"/>
<circle cx="98.8089" cy="67.7249" r="5.45343" fill="white"/>
<rect x="272" y="170" width="104" height="128" rx="8" fill="#D1D5D9"/>
<rect x="288" y="252" width="46.6215" height="10" rx="5" fill="#D1D5D9"/>
<rect x="288" y="272" width="68.9998" height="10" rx="5" fill="#D1D5D9"/>
<circle cx="323.5" cy="199.5" r="12.5" fill="#FF0000"/>
<path d="M345 238C345 235.111 344.431 232.25 343.325 229.581C342.22 226.912 340.599 224.487 338.556 222.444C336.513 220.401 334.088 218.78 331.419 217.675C328.75 216.569 325.889 216 323 216C320.111 216 317.25 216.569 314.581 217.675C311.912 218.78 309.487 220.401 307.444 222.444C305.401 224.487 303.78 226.912 302.675 229.581C301.569 232.25 301 235.111 301 238L323 238H345Z" fill="#FF0000"/>
<path d="M72.8638 223.837C72.8121 224.632 72.7086 225.412 72.5566 226.175L72.0663 226.077C71.9912 226.454 71.904 226.826 71.805 227.194C71.597 227.966 71.5612 228.785 71.6674 229.579L72.163 229.513C72.3642 231.017 73.1202 232.458 74.246 233.273L73.9528 233.678C74.6219 234.163 75.4183 234.458 76.3052 234.458H78.1421V233.958H81.8158V234.458H85.4895V233.958H89.1632V234.458H90.5V235.658H91V239.058H90.5V242.458H91V245.858H90.5V247.558C90.5 248.422 90.1573 249.221 89.5614 249.924L89.9429 250.247C88.7684 251.634 86.7754 252.589 84.7951 252.892L84.7195 252.398C83.7521 252.546 82.8045 252.527 81.9815 252.326C81.639 252.242 81.2926 252.169 80.9428 252.105L80.8536 252.597C80.1835 252.476 79.5001 252.393 78.8058 252.352L78.8354 251.853C78.4843 251.832 78.1306 251.822 77.7745 251.822C76.9764 251.822 76.1901 251.875 75.4192 251.977L75.4853 252.473C73.9411 252.679 72.4608 253.09 71.0717 253.679L70.8765 253.219C69.417 253.837 68.0559 254.646 66.8231 255.614L67.1319 256.008C65.9298 256.952 64.8529 258.052 63.9307 259.279L63.531 258.978C62.5927 260.226 61.8101 261.601 61.2127 263.074L61.676 263.262C61.11 264.657 60.715 266.142 60.5175 267.689L60.0216 267.626C59.9232 268.396 59.8725 269.182 59.8725 269.979C59.8725 270.776 59.9232 271.562 60.0216 272.332L60.5175 272.269C60.715 273.817 61.11 275.301 61.676 276.696L61.2127 276.884C61.8101 278.357 62.5927 279.732 63.531 280.98L63.9307 280.679C64.8529 281.906 65.9298 283.006 67.1319 283.95L66.8231 284.344C68.0559 285.312 69.417 286.121 70.8765 286.739L71.0717 286.279C72.4607 286.868 73.9411 287.279 75.4853 287.485L75.4192 287.981C76.1901 288.083 76.9764 288.136 77.7745 288.136C78.1306 288.136 78.4843 288.126 78.8354 288.105L78.8058 287.606C79.5001 287.565 80.1835 287.482 80.8536 287.361L80.9428 287.853C81.2926 287.789 81.639 287.716 81.9815 287.632C82.8045 287.431 83.7521 287.412 84.7195 287.56L84.7951 287.066C86.7754 287.369 88.7684 288.324 89.9429 289.711L89.5614 290.034C90.1573 290.737 90.5 291.536 90.5 292.4V294.1H91V297.5H90.5V300.9H91V304.3H90.5V305.5H88.862V306H84.5861V305.5H80.3102V306H76.0343V305.5H71.7584V306H67.4825V305.5H63.2066V306H58.9307V305.5H54.6548V306H50.3789V305.5H46.1029V306H41.827V305.5H37.5511V306H33.2752V305.5H31.1373C30.4215 305.5 29.7228 305.428 29.0475 305.292L28.9484 305.782C27.4803 305.485 26.1163 304.895 24.918 304.075L25.2004 303.663C24.043 302.871 23.0469 301.854 22.2735 300.673L21.8552 300.947C21.0633 299.738 20.4946 298.365 20.209 296.889L20.6999 296.794C20.5688 296.117 20.5 295.417 20.5 294.699V292.801H20V289.005H20.5V285.208H20V281.412H20.5V277.616H20V273.819H20.5V270.023H20V266.227H20.5V262.431H20V258.634H20.5V254.838H20V251.042H20.5V247.245H20V243.449H20.5V239.653H20V235.856H20.5V234.458H21.8368V233.958H25.5105V234.458H29.1842V233.958H32.8579V234.458H34.6948C35.5817 234.458 36.3781 234.163 37.0472 233.678L36.754 233.273C37.8798 232.458 38.6358 231.018 38.837 229.513L39.3326 229.579C39.4388 228.785 39.403 227.966 39.195 227.194C39.096 226.826 39.0088 226.454 38.9337 226.077L38.4434 226.175C38.2914 225.412 38.1879 224.632 38.1362 223.837L38.6352 223.804C38.6106 223.425 38.598 223.043 38.598 222.657C38.598 221.903 38.646 221.159 38.739 220.431L38.243 220.367C38.4405 218.82 38.8355 217.335 39.4015 215.94L39.8648 216.128C40.4294 214.737 41.169 213.437 42.0558 212.258L41.6562 211.957C42.5784 210.73 43.6553 209.63 44.8574 208.686L45.1662 209.079C46.3306 208.165 47.6155 207.401 48.9923 206.818L48.7971 206.357C50.1862 205.769 51.6666 205.357 53.2108 205.151L53.2768 205.647C54.0041 205.55 54.7462 205.5 55.5 205.5C56.2538 205.5 56.9959 205.55 57.7232 205.647L57.7892 205.151C59.3334 205.357 60.8138 205.769 62.2029 206.357L62.0077 206.818C63.3845 207.401 64.6694 208.165 65.8337 209.079L66.1426 208.686C67.3447 209.63 68.4216 210.73 69.3438 211.957L68.9442 212.257C69.831 213.437 70.5706 214.737 71.1352 216.128L71.5985 215.94C72.1645 217.335 72.5595 218.82 72.757 220.367L72.261 220.431C72.354 221.159 72.402 221.903 72.402 222.657C72.402 223.043 72.3894 223.425 72.3648 223.804L72.8638 223.837Z" stroke="#C80000" stroke-dasharray="4 4"/>
<rect x="173" y="159" width="46" height="46" rx="4" fill="#C80000"/>
<path d="M194.734 188.727H185.488L183.73 194H178.123L187.65 168.406H192.537L202.117 194H196.51L194.734 188.727ZM186.912 184.455H193.311L190.094 174.875L186.912 184.455ZM210.115 194H204.842V168.406H210.115V194Z" fill="#F5F6F9"/>
<rect x="168.75" y="154.75" width="54.5" height="54.5" rx="3.25" stroke="#F5F6F9" stroke-width="1.5"/>
<circle cx="197.516" cy="116.17" r="2.59825" fill="#F5F6F9" stroke="#F5F8FA" stroke-width="1.5"/>
<circle cx="178.766" cy="124.207" r="2.59825" fill="#F5F6F9" stroke="#F5F8FA" stroke-width="1.5"/>
<circle cx="157.34" cy="143.626" r="2.59825" fill="#F5F6F9" stroke="#F5F8FA" stroke-width="1.5"/>
<circle cx="149.301" cy="134.251" r="2.59825" fill="#F5F6F9" stroke="#F5F8FA" stroke-width="1.5"/>
<circle cx="157.34" cy="112.821" r="2.59825" fill="#F5F6F9" stroke="#F5F8FA" stroke-width="1.5"/>
<circle cx="142.606" cy="124.876" r="2.59825" fill="#F5F6F9" stroke="#F5F8FA" stroke-width="1.5"/>
<path d="M127.122 144.964C127.122 146.399 125.959 147.563 124.524 147.563C123.089 147.563 121.926 146.399 121.926 144.964C121.926 143.529 123.089 142.366 124.524 142.366C125.959 142.366 127.122 143.529 127.122 144.964Z" fill="#F5F6F9" stroke="#F5F8FA" stroke-width="1.5"/>
<path d="M117.075 139.608C117.075 141.043 115.912 142.206 114.477 142.206C113.042 142.206 111.879 141.043 111.879 139.608C111.879 138.173 113.042 137.01 114.477 137.01C115.912 137.01 117.075 138.173 117.075 139.608Z" fill="#F5F6F9" stroke="#F5F8FA" stroke-width="1.5"/>
<path d="M91.634 162.377C91.634 163.812 90.4707 164.975 89.0358 164.975C87.6008 164.975 86.4375 163.812 86.4375 162.377C86.4375 160.942 87.6008 159.778 89.0358 159.778C90.4707 159.778 91.634 160.942 91.634 162.377Z" fill="#F5F6F9" stroke="#F5F8FA" stroke-width="1.5"/>
<path d="M106.361 153.001C106.361 154.436 105.197 155.599 103.762 155.599C102.327 155.599 101.164 154.436 101.164 153.001C101.164 151.566 102.327 150.402 103.762 150.402C105.197 150.402 106.361 151.566 106.361 153.001Z" fill="#F5F6F9" stroke="#F5F8FA" stroke-width="1.5"/>
<path d="M87.6145 195.859C87.6145 197.294 86.4512 198.457 85.0162 198.457C83.5812 198.457 82.418 197.294 82.418 195.859C82.418 194.424 83.5812 193.261 85.0162 193.261C86.4512 193.261 87.6145 194.424 87.6145 195.859Z" fill="#F5F6F9" stroke="#F5F8FA" stroke-width="1.5"/>
<path d="M122.439 167.734C122.439 169.169 121.275 170.332 119.84 170.332C118.405 170.332 117.242 169.169 117.242 167.734C117.242 166.299 118.405 165.136 119.84 165.136C121.275 165.136 122.439 166.299 122.439 167.734Z" fill="#F5F6F9" stroke="#F5F8FA" stroke-width="1.5"/>
<path d="M113.064 178.449C113.064 179.884 111.9 181.047 110.465 181.047C109.03 181.047 107.867 179.884 107.867 178.449C107.867 177.014 109.03 175.851 110.465 175.851C111.9 175.851 113.064 177.014 113.064 178.449Z" fill="#F5F6F9" stroke="#F5F8FA" stroke-width="1.5"/>
<path d="M98.3293 186.485C98.3293 187.92 97.166 189.083 95.7311 189.083C94.2961 189.083 93.1328 187.92 93.1328 186.485C93.1328 185.05 94.2961 183.887 95.7311 183.887C97.166 183.887 98.3293 185.05 98.3293 186.485Z" fill="#F5F6F9" stroke="#F5F8FA" stroke-width="1.5"/>
<path d="M134.486 230.681C134.486 232.116 133.322 233.28 131.887 233.28C130.452 233.28 129.289 232.116 129.289 230.681C129.289 229.246 130.452 228.083 131.887 228.083C133.322 228.083 134.486 229.246 134.486 230.681Z" fill="#F5F6F9" stroke="#F5F8FA" stroke-width="1.5"/>
<path d="M111.724 194.52C111.724 195.955 110.561 197.118 109.126 197.118C107.691 197.118 106.527 195.955 106.527 194.52C106.527 193.085 107.691 191.922 109.126 191.922C110.561 191.922 111.724 193.085 111.724 194.52Z" fill="#F5F6F9" stroke="#F5F8FA" stroke-width="1.5"/>
<path d="M138.505 206.574C138.505 208.009 137.342 209.172 135.907 209.172C134.472 209.172 133.309 208.009 133.309 206.574C133.309 205.139 134.472 203.976 135.907 203.976C137.342 203.976 138.505 205.139 138.505 206.574Z" fill="#F5F6F9" stroke="#F5F8FA" stroke-width="1.5"/>
<path d="M171.989 248.091C171.989 249.526 170.826 250.69 169.391 250.69C167.956 250.69 166.793 249.526 166.793 248.091C166.793 246.656 167.956 245.493 169.391 245.493C170.826 245.493 171.989 246.656 171.989 248.091Z" fill="#F5F6F9" stroke="#F5F8FA" stroke-width="1.5"/>
<path d="M158.599 234.698C158.599 236.133 157.436 237.296 156.001 237.296C154.566 237.296 153.402 236.133 153.402 234.698C153.402 233.263 154.566 232.1 156.001 232.1C157.436 232.1 158.599 233.263 158.599 234.698Z" fill="#F5F6F9" stroke="#F5F8FA" stroke-width="1.5"/>
<path d="M169.31 232.02C169.31 233.455 168.147 234.618 166.712 234.618C165.277 234.618 164.113 233.455 164.113 232.02C164.113 230.585 165.277 229.422 166.712 229.422C168.147 229.422 169.31 230.585 169.31 232.02Z" fill="#F5F6F9" stroke="#F5F8FA" stroke-width="1.5"/>
<path d="M184.048 230.681C184.048 232.116 182.885 233.28 181.45 233.28C180.015 233.28 178.852 232.116 178.852 230.681C178.852 229.246 180.015 228.083 181.45 228.083C182.885 228.083 184.048 229.246 184.048 230.681Z" fill="#F5F6F9" stroke="#F5F8FA" stroke-width="1.5"/>
<path d="M197.439 240.056C197.439 241.491 196.275 242.655 194.84 242.655C193.405 242.655 192.242 241.491 192.242 240.056C192.242 238.621 193.405 237.458 194.84 237.458C196.275 237.458 197.439 238.621 197.439 240.056Z" fill="#F5F6F9" stroke="#F5F8FA" stroke-width="1.5"/>
<path d="M222.88 223.983C222.88 225.418 221.717 226.581 220.282 226.581C218.847 226.581 217.684 225.418 217.684 223.983C217.684 222.548 218.847 221.385 220.282 221.385C221.717 221.385 222.88 222.548 222.88 223.983Z" fill="#F5F6F9" stroke="#F5F8FA" stroke-width="1.5"/>
<path d="M234.939 236.038C234.939 237.473 233.775 238.636 232.34 238.636C230.905 238.636 229.742 237.473 229.742 236.038C229.742 234.603 230.905 233.439 232.34 233.439C233.775 233.439 234.939 234.603 234.939 236.038Z" fill="#F5F6F9" stroke="#F5F8FA" stroke-width="1.5"/>
<path d="M255.025 268.181C255.025 269.616 253.861 270.78 252.426 270.78C250.991 270.78 249.828 269.616 249.828 268.181C249.828 266.746 250.991 265.583 252.426 265.583C253.861 265.583 255.025 266.746 255.025 268.181Z" fill="#F5F6F9" stroke="#F5F8FA" stroke-width="1.5"/>
<path d="M248.333 249.43C248.333 250.865 247.17 252.029 245.735 252.029C244.3 252.029 243.137 250.865 243.137 249.43C243.137 247.995 244.3 246.832 245.735 246.832C247.17 246.832 248.333 247.995 248.333 249.43Z" fill="#F5F6F9" stroke="#F5F8FA" stroke-width="1.5"/>
<path d="M255.025 221.305C255.025 222.74 253.861 223.904 252.426 223.904C250.991 223.904 249.828 222.74 249.828 221.305C249.828 219.87 250.991 218.707 252.426 218.707C253.861 218.707 255.025 219.87 255.025 221.305Z" fill="#F5F6F9" stroke="#F5F8FA" stroke-width="1.5"/>
<path d="M268.423 292.288C268.423 293.723 267.26 294.886 265.825 294.886C264.39 294.886 263.227 293.723 263.227 292.288C263.227 290.853 264.39 289.689 265.825 289.689C267.26 289.689 268.423 290.853 268.423 292.288Z" fill="#F5F6F9" stroke="#F5F8FA" stroke-width="1.5"/>
<path d="M273.775 278.896C273.775 280.331 272.611 281.494 271.176 281.494C269.741 281.494 268.578 280.331 268.578 278.896C268.578 277.461 269.741 276.298 271.176 276.298C272.611 276.298 273.775 277.461 273.775 278.896Z" fill="#F5F6F9" stroke="#F5F8FA" stroke-width="1.5"/>
<path d="M280.474 254.788C280.474 256.223 279.311 257.386 277.876 257.386C276.441 257.386 275.277 256.223 275.277 254.788C275.277 253.353 276.441 252.189 277.876 252.189C279.311 252.189 280.474 253.353 280.474 254.788Z" fill="#F5F6F9" stroke="#F5F8FA" stroke-width="1.5"/>
<path d="M272.443 242.734C272.443 244.169 271.279 245.332 269.844 245.332C268.409 245.332 267.246 244.169 267.246 242.734C267.246 241.299 268.409 240.136 269.844 240.136C271.279 240.136 272.443 241.299 272.443 242.734Z" fill="#F5F6F9" stroke="#F5F8FA" stroke-width="1.5"/>
<path d="M295.204 225.323C295.204 226.758 294.041 227.921 292.606 227.921C291.171 227.921 290.008 226.758 290.008 225.323C290.008 223.888 291.171 222.725 292.606 222.725C294.041 222.725 295.204 223.888 295.204 225.323Z" fill="#F5F6F9" stroke="#F5F8FA" stroke-width="1.5"/>
<path d="M279.138 225.323C279.138 226.758 277.975 227.921 276.54 227.921C275.105 227.921 273.941 226.758 273.941 225.323C273.941 223.888 275.105 222.725 276.54 222.725C277.975 222.725 279.138 223.888 279.138 225.323Z" fill="#F5F6F9" stroke="#F5F8FA" stroke-width="1.5"/>
<path d="M263.06 209.253C263.06 210.688 261.897 211.851 260.462 211.851C259.027 211.851 257.863 210.688 257.863 209.253C257.863 207.818 259.027 206.654 260.462 206.654C261.897 206.654 263.06 207.818 263.06 209.253Z" fill="#F5F6F9" stroke="#F5F8FA" stroke-width="1.5"/>
<path d="M295.204 203.894C295.204 205.329 294.041 206.492 292.606 206.492C291.171 206.492 290.008 205.329 290.008 203.894C290.008 202.459 291.171 201.296 292.606 201.296C294.041 201.296 295.204 202.459 295.204 203.894Z" fill="#F5F6F9" stroke="#F5F8FA" stroke-width="1.5"/>
<path d="M285.829 213.269C285.829 214.704 284.666 215.867 283.231 215.867C281.796 215.867 280.633 214.704 280.633 213.269C280.633 211.834 281.796 210.671 283.231 210.671C284.666 210.671 285.829 211.834 285.829 213.269Z" fill="#F5F6F9" stroke="#F5F8FA" stroke-width="1.5"/>
<path d="M301.904 174.43C301.904 175.865 300.74 177.029 299.305 177.029C297.87 177.029 296.707 175.865 296.707 174.43C296.707 172.995 297.87 171.832 299.305 171.832C300.74 171.832 301.904 172.995 301.904 174.43Z" fill="#F5F6F9" stroke="#F5F8FA" stroke-width="1.5"/>
<path d="M293.864 186.485C293.864 187.92 292.701 189.083 291.266 189.083C289.831 189.083 288.668 187.92 288.668 186.485C288.668 185.05 289.831 183.887 291.266 183.887C292.701 183.887 293.864 185.05 293.864 186.485Z" fill="#F5F6F9" stroke="#F5F8FA" stroke-width="1.5"/>
<path d="M291.189 171.752C291.189 173.187 290.025 174.35 288.59 174.35C287.155 174.35 285.992 173.187 285.992 171.752C285.992 170.317 287.155 169.153 288.59 169.153C290.025 169.153 291.189 170.317 291.189 171.752Z" fill="#F5F6F9" stroke="#F5F8FA" stroke-width="1.5"/>
<path d="M260.384 175.769C260.384 177.204 259.221 178.367 257.786 178.367C256.351 178.367 255.188 177.204 255.188 175.769C255.188 174.334 256.351 173.171 257.786 173.171C259.221 173.171 260.384 174.334 260.384 175.769Z" fill="#F5F6F9" stroke="#F5F8FA" stroke-width="1.5"/>
<path d="M246.993 206.574C246.993 208.009 245.83 209.172 244.395 209.172C242.96 209.172 241.797 208.009 241.797 206.574C241.797 205.139 242.96 203.976 244.395 203.976C245.83 203.976 246.993 205.139 246.993 206.574Z" fill="#F5F6F9" stroke="#F5F8FA" stroke-width="1.5"/>
<path d="M277.126 150.322C277.126 151.757 275.963 152.92 274.528 152.92C273.093 152.92 271.93 151.757 271.93 150.322C271.93 148.887 273.093 147.724 274.528 147.724C275.963 147.724 277.126 148.887 277.126 150.322Z" fill="#F5F6F9" stroke="#F5F8FA" stroke-width="1.5"/>
<path d="M244.314 118.179C244.314 119.614 243.15 120.778 241.715 120.778C240.28 120.778 239.117 119.614 239.117 118.179C239.117 116.744 240.28 115.581 241.715 115.581C243.15 115.581 244.314 116.744 244.314 118.179Z" fill="#F5F6F9" stroke="#F5F8FA" stroke-width="1.5"/>
<path d="M251.013 132.913C251.013 134.348 249.85 135.511 248.415 135.511C246.98 135.511 245.816 134.348 245.816 132.913C245.816 131.478 246.98 130.314 248.415 130.314C249.85 130.314 251.013 131.478 251.013 132.913Z" fill="#F5F6F9" stroke="#F5F8FA" stroke-width="1.5"/>
<circle cx="218.95" cy="122.867" r="2.59825" fill="#F5F6F9" stroke="#F5F8FA" stroke-width="1.5"/>
<path d="M235.603 145.635C235.603 147.07 234.439 148.234 233.005 148.234C231.57 148.234 230.406 147.07 230.406 145.635C230.406 144.2 231.57 143.037 233.005 143.037C234.439 143.037 235.603 144.2 235.603 145.635Z" fill="#F5F6F9" stroke="#F5F8FA" stroke-width="1.5"/>
<path d="M197.517 116.84V154.787H211.58V130.233L217.606 124.206M178.767 125.546V144.965L188.142 154.341M158.677 144.965L169.392 155.68M248.41 133.581L254.437 139.608V161.707L245.062 171.082H224.303M233.008 144.296V119.519L218.946 105.456H177.427L149.302 133.581M155.999 112.822H137.248L124.525 125.546V144.296M113.141 138.939H99.7479L89.0335 149.653V161.707M85.0156 193.18V175.1L92.3818 167.734H117.159M104.435 153.671H118.498L141.266 176.439H166.713M141.266 126.885L135.239 132.912V149.653L147.963 162.376M109.793 179.118L121.846 191.171H166.713M108.453 195.189L119.837 206.573H135.239M95.73 188.493V209.252L109.793 223.315H124.525L130.552 229.341M155.329 206.573L145.284 216.618V237.377L155.329 247.422H169.392M156.668 236.038V225.993L171.401 211.261M182.785 229.341L189.481 222.645V211.261M168.722 233.359L188.142 252.779H207.562L220.285 240.056V224.654M195.508 240.056L205.553 230.011V211.261M224.303 196.529H233.008L243.723 185.814H291.268M259.794 176.439H267.83L274.527 169.742V150.992M242.383 118.179H259.125L288.589 147.644V171.082M299.304 174.43L306 181.127V206.573L298.634 213.939H283.232M291.268 203.225L285.241 197.198H253.098L245.062 205.234M261.134 209.922L277.205 225.993M224.303 207.913L246.401 230.011V249.431M231.669 236.038V254.788L245.062 268.181H249.75M252.428 221.306L259.794 228.672V285.592L265.821 291.619M277.205 254.788V273.538L271.848 278.896M269.839 242.734H283.232L292.607 233.359V224.654" stroke="#F5F8FA" stroke-width="1.5"/>
<rect x="264" y="178" width="104" height="128" rx="8" fill="#EAEDF0"/>
<circle cx="320.5" cy="216.5" r="19.5" fill="#FF0000"/>
<path d="M354 276.5C354 271.969 353.108 267.483 351.374 263.297C349.64 259.112 347.099 255.308 343.895 252.105C340.692 248.901 336.888 246.36 332.703 244.626C328.517 242.892 324.031 242 319.5 242C314.969 242 310.483 242.892 306.297 244.626C302.112 246.36 298.308 248.901 295.105 252.105C291.901 255.308 289.36 259.112 287.626 263.297C285.892 267.483 285 271.969 285 276.5L319.5 276.5H354Z" fill="#FF0000"/>
</svg>
