<svg width="396" height="360" viewBox="0 0 396 360" fill="none" xmlns="http://www.w3.org/2000/svg">
<rect x="88" y="70" width="220" height="220" rx="8" fill="#EAEDF0"/>
<path d="M237.109 131.443L278.968 125.539L265.83 173.013C264.134 179.141 258.964 183.679 252.668 184.568C248.3 185.184 244.261 182.143 243.645 177.776L237.109 131.443Z" fill="#DFDFDF"/>
<rect x="202.324" y="89.4492" width="79.7832" height="44.0594" rx="8" transform="rotate(-8.02885 202.324 89.4492)" fill="#DFDFDF"/>
<rect x="206.375" y="84.0674" width="87.5234" height="53.5858" rx="8" transform="rotate(-8.02885 206.375 84.0674)" fill="#DFDFDF"/>
<path d="M211.211 84.2487C210.594 79.8738 213.64 75.8269 218.015 75.2098L275.535 67.0964L285.015 134.306L227.496 142.42C223.121 143.037 219.074 139.991 218.457 135.616L211.211 84.2487Z" fill="#FF0000"/>
<path d="M255.489 69.9236L328.986 42.4825C333.776 40.694 338.991 43.7967 339.705 48.8598L351.726 134.081C352.44 139.144 348.287 143.568 343.189 143.174L264.97 137.134L255.489 69.9236Z" fill="#FF0000"/>
<path d="M161.08 161.043C168.435 157.811 174.454 152.148 178.127 145.003C181.8 137.859 182.904 129.668 181.253 121.806C179.602 113.945 175.296 106.89 169.059 101.827C162.822 96.7635 155.033 94 147 94V129L161.08 161.043Z" fill="#C80000"/>
<path d="M112.125 131.98C112.599 137.526 114.389 142.879 117.346 147.595C120.304 152.311 124.344 156.254 129.13 159.096C133.917 161.937 139.312 163.596 144.868 163.935C150.425 164.274 155.982 163.282 161.078 161.043L146.998 129L112.125 131.98Z" fill="#FF0000"/>
<path d="M147 94C142.153 94 137.358 95.0069 132.92 96.9569C128.482 98.907 124.498 101.758 121.219 105.328C117.941 108.899 115.44 113.111 113.875 117.699C112.309 122.287 111.714 127.15 112.127 131.98L147 129V94Z" fill="#FA7C7D"/>
<rect x="112" y="199" width="30" height="65" rx="8" fill="#FF0000"/>
<rect x="159" y="182" width="30" height="82" rx="8" fill="#FF0000"/>
<rect x="206" y="208" width="30" height="56" rx="8" fill="#FF0000"/>
<rect x="253" y="229" width="30" height="35" rx="8" fill="#FF0000"/>
<circle cx="39" cy="284" r="14" fill="#FF0000"/>
<circle cx="313.5" cy="300.5" r="7.5" fill="#FF0000"/>
<circle cx="360.5" cy="82.5" r="7.5" fill="#FF0000"/>
<circle cx="322.5" cy="284.5" r="2.5" fill="#FF0000"/>
<circle cx="370.5" cy="61.5" r="2.5" fill="#FF0000"/>
<circle cx="64.5" cy="48.5" r="14.5" fill="#FF0000"/>
<circle cx="42.5" cy="78.5" r="4.5" fill="#FF0000"/>
<path fill-rule="evenodd" clip-rule="evenodd" d="M149.167 70.0002C144.069 67.4084 138.866 64.9277 133.579 62.558C120.518 56.9431 106.961 51.9888 92.4128 49.6768C92.0589 49.6286 91.7046 49.5812 91.3499 49.5347C85.5532 48.6422 79.552 48.213 73.6122 48.7783C72.4949 48.875 71.377 49.0077 70.2591 49.1814C70.0597 49.2176 69.8604 49.2548 69.661 49.293C66.2999 49.8183 63.0718 50.772 59.8436 52.154C59.7418 52.2048 59.6402 52.2561 59.5391 52.3079C59.5303 52.3117 59.5216 52.3154 59.5129 52.3191C56.2064 53.9705 53.0652 56.1174 50.42 58.9248C47.9401 61.7322 46.1215 65.0351 44.7989 68.6682C43.6416 72.3014 43.1457 75.9345 42.9803 79.7328C42.6497 87.1642 43.9723 94.4305 45.9562 101.532C49.924 115.569 56.3717 128.615 63.4808 140.836C70.7551 153.056 78.6907 164.451 86.957 175.185C95.2233 185.92 103.986 195.993 112.748 205.572C130.603 224.563 148.789 241.242 166.81 255.775C184.83 270.308 202.52 282.528 219.383 292.602C236.246 302.676 252.283 310.602 266.997 315.887C281.546 321.172 294.772 324.309 305.849 324.64C311.304 324.805 316.264 324.474 320.397 323.484C320.893 323.401 321.389 323.236 321.885 323.071C322.381 322.906 322.877 322.74 323.373 322.658C324.365 322.493 325.192 322.162 326.018 321.832C326.432 321.667 326.804 321.502 327.176 321.337C327.548 321.172 327.92 321.006 328.333 320.841C328.664 320.676 328.994 320.47 329.325 320.263C329.656 320.057 329.986 319.85 330.317 319.685C331.547 319.071 332.49 318.314 333.281 317.68C333.341 317.632 333.4 317.585 333.458 317.538C333.623 317.373 333.83 317.208 334.037 317.043C334.243 316.878 334.45 316.713 334.615 316.548L335.442 315.722L337.095 314.07C337.095 314.07 337.591 313.41 338.583 312.914C338.749 312.749 338.873 312.584 338.997 312.419C339.121 312.254 339.245 312.089 339.41 311.924C339.61 311.724 339.75 311.463 339.902 311.178C340.001 310.993 340.106 310.798 340.236 310.602C340.898 309.612 341.559 308.456 342.055 307.134C342.171 306.671 342.368 306.208 342.59 305.687C342.684 305.466 342.783 305.234 342.882 304.988C342.964 304.575 343.088 304.162 343.212 303.749C343.336 303.336 343.46 302.923 343.543 302.51C343.874 301.52 344.039 300.694 344.204 299.703C344.259 299.373 344.333 299.043 344.406 298.712C344.553 298.052 344.7 297.391 344.7 296.73C345.031 292.602 344.866 287.648 344.039 282.198C342.386 271.298 337.757 258.417 330.813 244.545C324.895 232.861 317.259 220.604 308 207.774V208.301C316.962 220.744 324.375 232.779 330.152 244.05C337.261 257.922 341.89 270.638 343.543 281.537C344.37 286.987 344.7 291.941 344.204 296.07L343.708 299.042C343.708 300.033 343.543 301.024 343.212 301.85C343.13 302.263 343.006 302.676 342.882 303.088C342.758 303.501 342.634 303.914 342.551 304.327C342.386 305.153 342.055 305.813 341.724 306.474C341.365 307.552 340.918 308.369 340.511 309.115C340.356 309.397 340.207 309.67 340.071 309.942C339.941 310.137 339.836 310.333 339.737 310.518C339.584 310.802 339.445 311.063 339.245 311.263C338.914 311.593 338.583 311.924 338.418 312.254C337.591 313.41 337.095 314.07 337.095 314.07C337.095 314.07 336.599 314.566 335.442 315.061L334.615 315.887C334.43 315.98 334.244 316.125 334.029 316.292C333.861 316.423 333.676 316.568 333.458 316.713C333.4 316.759 333.341 316.806 333.281 316.854C332.49 317.489 331.547 318.245 330.317 318.86C329.986 319.025 329.656 319.231 329.325 319.438C328.994 319.644 328.664 319.85 328.333 320.016C327.672 320.346 326.846 320.676 326.02 321.006L326.018 321.006C325.537 321.199 325.055 321.335 324.541 321.481C324.173 321.585 323.787 321.694 323.373 321.832C322.381 322.162 321.389 322.493 320.397 322.658C316.264 323.649 311.304 323.814 305.849 323.649C294.772 323.318 281.546 320.181 266.997 314.731C252.448 309.446 236.412 301.52 219.549 291.446C202.685 281.537 185.161 269.152 167.14 254.619C149.12 240.086 130.934 223.407 113.244 204.416C104.482 194.837 95.7193 184.764 87.453 174.029C79.1867 163.295 71.2511 151.9 64.1421 139.68C57.1984 127.459 50.7506 114.578 46.7828 100.541C44.9642 93.4397 43.4763 86.1734 43.807 78.9071C43.9723 75.274 44.4683 71.6408 45.6255 68.1728C46.9481 64.7048 48.6014 61.402 51.0813 58.5945C53.4848 56.0336 56.3543 53.9381 59.5391 52.3079C62.8127 50.9092 66.2328 49.9503 69.661 49.293C69.9147 49.2534 70.1692 49.2162 70.4244 49.1814C71.484 49.013 72.5471 48.8797 73.6122 48.7783C79.569 48.2627 85.5099 48.7695 91.3499 49.5347C91.6497 49.5809 91.9489 49.6283 92.2475 49.6768C106.466 51.9888 120.188 56.9431 133.083 62.558C138.37 64.9277 143.546 67.4084 148.61 70.0002H149.167Z" fill="#960020"/>
<path fill-rule="evenodd" clip-rule="evenodd" d="M389.835 184.102C390 185.588 390 186.414 390 186.414C390 186.414 390 185.753 389.67 184.432V183.111C389.587 182.863 389.546 182.616 389.504 182.368C389.463 182.12 389.421 181.873 389.339 181.625C389.199 181.207 389.089 180.729 388.971 180.218C388.81 179.519 388.633 178.755 388.347 177.992C388.147 177.592 388.007 177.192 387.855 176.755C387.755 176.471 387.651 176.171 387.52 175.845C387.416 175.636 387.294 175.41 387.167 175.173C386.892 174.662 386.589 174.097 386.363 173.533C386.032 172.707 385.537 171.882 385.041 171.056L385.04 171.056C384.826 170.77 384.611 170.422 384.383 170.053C384.084 169.569 383.762 169.047 383.387 168.579C381.073 165.111 377.601 161.643 373.302 158.175C364.871 151.074 352.967 144.633 338.418 138.853C329.281 135.223 319.101 131.984 308 129.135V129.116C319.076 131.953 329.27 135.157 338.418 138.688C352.967 144.468 364.871 150.908 373.302 157.844C377.435 161.312 380.907 164.78 383.387 168.248C384.048 169.074 384.544 169.9 385.04 170.725L385.041 170.726C385.537 171.552 386.032 172.377 386.363 173.203C386.702 173.767 386.964 174.331 387.201 174.843C387.311 175.08 387.416 175.305 387.52 175.515C387.686 175.845 387.81 176.216 387.934 176.588C388.058 176.96 388.182 177.331 388.347 177.661C388.843 178.983 389.174 180.304 389.339 181.295L389.339 181.295C389.504 181.79 389.67 182.286 389.67 182.781C389.835 183.276 389.835 183.772 389.835 184.102ZM87.9999 128.874C81.9629 130.415 75.9294 132.14 69.929 134.064C56.5376 138.357 43.1462 143.807 30.7467 151.734C24.6297 155.697 18.6779 160.156 13.8835 165.936C11.5689 168.744 9.41969 171.881 7.93175 175.349C6.60914 178.817 5.61719 182.616 5.61719 186.414C5.61719 190.212 6.44382 194.011 7.93175 197.479C9.41969 200.947 11.5689 204.249 13.8835 207.057C18.6779 212.837 24.6297 217.461 30.7467 221.424C43.1462 229.186 56.7029 234.636 70.0943 239.095C83.4857 243.388 97.0425 246.691 110.434 249.168C123.825 251.645 137.051 253.462 149.947 254.618C175.903 256.93 200.537 257.26 223.682 256.104C246.828 254.948 268.155 252.471 287.498 248.673C306.841 244.875 324.035 240.085 338.584 234.305C352.967 228.525 365.036 222.085 373.468 214.984C377.601 211.516 381.073 208.048 383.552 204.58C384.214 203.754 384.71 202.928 385.206 202.103L385.206 202.102C385.702 201.277 386.198 200.451 386.528 199.625C386.867 199.061 387.129 198.497 387.366 197.985C387.476 197.748 387.581 197.523 387.686 197.313C388.016 196.653 388.347 195.827 388.512 195.167C389.008 193.845 389.339 192.689 389.504 191.533L389.504 191.533C389.67 191.038 389.835 190.543 389.835 190.047V188.726C390 187.24 390 186.414 390 186.414C390 186.414 390 187.24 389.835 187.9C389.67 188.231 389.67 188.561 389.67 189.056C389.587 189.304 389.546 189.552 389.504 189.799C389.463 190.047 389.422 190.295 389.339 190.543C389.174 191.533 388.843 192.855 388.347 194.176C388.147 194.576 388.007 194.976 387.855 195.412C387.755 195.697 387.651 195.997 387.52 196.323C387.355 196.735 387.148 197.107 386.942 197.479C386.735 197.85 386.528 198.222 386.363 198.635C386.032 199.46 385.537 200.286 385.041 201.111L385.04 201.112C384.544 201.937 384.048 202.763 383.387 203.589C381.073 207.057 377.601 210.525 373.302 213.993C364.871 221.094 352.967 227.535 338.418 233.149C323.87 238.929 306.676 243.553 287.498 247.352C268.32 251.15 246.828 253.627 223.848 254.783C200.867 255.774 176.068 255.609 150.277 253.132C137.382 251.976 124.156 250.159 110.765 247.682C97.3731 245.205 83.8164 241.902 70.425 237.608C57.0336 233.149 43.6422 227.7 31.408 219.938C25.291 216.14 19.3392 211.516 14.7101 205.901C12.3956 203.093 10.4116 199.956 8.92371 196.653C7.43577 193.185 6.60914 189.552 6.60914 185.919C6.77447 182.12 7.6011 178.652 8.92371 175.184C10.4116 171.881 12.3956 168.744 14.7101 165.936C19.5046 160.321 25.291 155.863 31.408 151.899C43.6422 143.972 57.0336 138.688 70.425 134.229C76.3099 132.365 82.1637 130.688 87.9999 129.184V128.874Z" fill="#960020"/>
<path fill-rule="evenodd" clip-rule="evenodd" d="M237.116 48.41C241.817 45.1158 246.436 42.1167 250.961 39.4381C264.353 31.5112 276.752 26.0615 287.498 23.5844C292.215 22.5538 296.537 21.917 300.465 21.9079C300.888 21.9089 301.305 21.9172 301.716 21.933C302.235 21.933 302.799 21.9781 303.337 22.0212C303.828 22.0605 304.298 22.0981 304.692 22.0981C305.168 22.1772 305.643 22.2185 306.1 22.2581C306.597 22.3012 307.072 22.3424 307.503 22.4284L309.983 22.9238C310.458 23.0189 310.88 23.1686 311.277 23.3101C311.571 23.4145 311.851 23.5143 312.132 23.5844C312.41 23.6539 312.681 23.7381 312.945 23.8322C313.223 23.941 313.494 24.0497 313.756 24.1585C314.234 24.3705 314.684 24.6015 315.108 24.8186C315.277 24.9055 315.443 24.9903 315.604 25.0707C315.95 25.301 316.295 25.451 316.585 25.5767C316.711 25.6312 316.826 25.6812 316.926 25.7312C317.257 26.0615 317.588 26.2267 317.918 26.3918C319.241 27.2175 319.902 27.5478 319.902 27.5478C319.902 27.5478 320.398 28.0432 321.556 29.0341C320.564 28.0432 319.902 27.5478 319.902 27.5478C319.902 27.5478 319.241 27.2175 318.084 26.3918C317.918 26.3092 317.753 26.1854 317.588 26.0615C317.422 25.9377 317.257 25.8138 317.092 25.7312C316.992 25.6812 316.876 25.6161 316.751 25.545C316.461 25.3812 316.115 25.1858 315.769 25.0707C315.16 24.7666 314.489 24.4625 313.756 24.1585C313.494 24.0422 313.224 23.9316 312.945 23.8322C312.734 23.7496 312.518 23.667 312.297 23.5844C312.017 23.5143 311.736 23.4145 311.443 23.3101C311.045 23.1686 310.624 23.0189 310.148 22.9238L307.668 22.4284C306.842 22.2632 305.85 22.0981 304.858 22.0981C304.461 22.0981 304.064 22.0453 303.667 21.9924C303.072 21.9131 302.477 21.8339 301.882 21.933C301.415 21.915 300.943 21.9068 300.465 21.9079C296.466 21.8987 291.952 22.539 287.168 23.5844C276.422 25.8964 263.857 31.3461 250.465 39.273C245.791 42.0399 240.996 45.149 236.108 48.572L237.116 48.41ZM88.0002 234.101V236.64C86.4247 240.494 84.9185 244.397 83.4861 248.344C78.857 261.555 74.8891 275.592 73.5665 289.96C72.9052 297.226 72.9052 304.492 74.5585 311.759C75.3851 315.392 76.5424 318.86 78.361 321.997C80.1796 325.135 82.4941 328.108 85.47 330.42C88.4459 332.567 91.7524 334.218 95.3896 335.209C99.0267 336.035 102.664 336.365 106.301 336.365C113.575 336.2 120.85 334.218 127.628 331.906C141.35 326.952 153.915 319.685 165.488 311.924C177.226 303.997 187.972 295.244 198.057 286.327C208.142 277.244 217.731 267.996 226.658 258.583C244.348 239.591 259.724 220.269 272.95 201.443C286.176 182.617 297.253 164.121 306.18 146.616C314.612 128.78 321.39 112.431 325.854 97.4032C330.318 82.5404 332.467 69.1638 332.136 58.0992C331.971 52.6495 331.31 47.6952 330.152 43.7318C330.024 42.962 329.696 42.1923 329.401 41.4999C329.316 41.3011 329.234 41.1086 329.161 40.9244C328.83 39.9345 328.5 39.1094 328.169 38.2844L328.169 38.2821C328.003 37.8693 327.797 37.4977 327.59 37.1261C327.383 36.7545 327.177 36.383 327.011 35.9701C326.846 35.6398 326.639 35.3096 326.433 34.9793C326.226 34.649 326.019 34.3187 325.854 33.9884C326.033 34.346 326.26 34.6552 326.51 34.9947C326.722 35.2822 326.949 35.5914 327.177 35.9701C327.281 36.1793 327.386 36.405 327.496 36.6421C327.733 37.1536 327.995 37.7179 328.334 38.2821C328.83 39.1078 329.161 39.9335 329.491 40.9244C329.613 41.2909 329.758 41.6347 329.901 41.9727C330.143 42.5486 330.379 43.1074 330.483 43.7318C331.806 47.8604 332.302 52.6495 332.632 58.0992C332.963 69.1638 330.814 82.5404 326.515 97.5684C322.217 112.596 315.438 129.111 306.511 146.616C297.749 164.121 286.506 182.617 273.28 201.608C260.054 220.6 244.679 239.921 226.989 258.913C218.061 268.326 208.638 277.739 198.388 286.822C188.303 295.905 177.391 304.492 165.653 312.584C153.915 320.511 141.35 327.777 127.628 332.732C120.684 335.209 113.41 337.025 105.97 337.191C102.168 337.356 98.5308 337.025 94.7283 336.035C91.0911 335.044 87.6192 333.392 84.478 331.08C81.5022 328.768 79.0223 325.796 77.2037 322.493C75.3851 319.19 74.2278 315.557 73.4012 311.924C71.7479 304.657 71.7479 297.226 72.4092 289.96C73.7319 275.427 77.6997 261.39 82.4941 248.179C84.2123 243.385 86.0578 238.697 88.0002 234.101ZM325.854 33.9884C325.38 33.1606 324.737 32.4174 324.167 31.759C323.942 31.4979 323.727 31.2502 323.539 31.0158C323.735 31.2603 323.96 31.5047 324.197 31.7621C324.759 32.3739 325.389 33.0584 325.854 33.9884Z" fill="#960020"/>
<circle cx="376" cy="101" r="5" fill="#FF0000"/>
</svg>
