<svg width="396" height="360" viewBox="0 0 396 360" fill="none" xmlns="http://www.w3.org/2000/svg">
<rect x="40" y="222" width="133" height="121" fill="#EAEDF0"/>
<rect x="24.5" y="206.5" width="132" height="120" stroke="#C80000" stroke-dasharray="4 4"/>
<rect x="350.484" y="65" width="229.953" height="294.485" rx="8" transform="rotate(90 350.484 65)" fill="#FF0000"/>
<path d="M342.484 65C346.903 65 350.484 68.5817 350.484 73L350.484 91.3582L55.9994 91.3582L55.9994 73C55.9994 68.5817 59.5811 65 63.9994 65L342.484 65Z" fill="#C80000"/>
<circle cx="71.4515" cy="77.7249" r="5.45343" fill="white"/>
<circle cx="89.6292" cy="77.7249" r="5.45343" fill="white"/>
<circle cx="107.807" cy="77.7249" r="5.45343" fill="white"/>
<rect x="77.8125" y="238.602" width="90.8904" height="10.9069" rx="5.45343" fill="#F5F8FA" fill-opacity="0.8"/>
<rect x="77.8125" y="260.414" width="134.518" height="10.9069" rx="5.45343" fill="#F5F8FA" fill-opacity="0.8"/>
<rect x="76.9043" y="211.334" width="134.518" height="10.9069" rx="5.45343" fill="white"/>
<rect x="78.9492" y="113.949" width="72.4884" height="72.4884" stroke="white" stroke-dasharray="4 4"/>
<rect x="76" y="111" width="6.12403" height="6.12403" fill="white"/>
<rect x="76" y="183.875" width="6.12403" height="6.12403" fill="white"/>
<rect x="148.875" y="111" width="6.12403" height="6.12403" fill="white"/>
<rect x="148.875" y="183.875" width="6.12403" height="6.12403" fill="white"/>
<path d="M137.723 158.84L130.473 154.007L119.008 165.471L123.841 172.721L137.723 158.84ZM128.292 153.506C125.82 150.227 124.932 146.241 124.932 139.182L124.932 138.416L124.166 138.269C115.416 136.519 98.2156 130.569 96.1968 129.869L113.349 146.992C113.397 147.04 113.401 147.114 113.438 147.169C113.78 147.003 114.182 146.904 114.587 146.904C116.017 146.904 117.151 148.068 117.151 149.497C117.151 150.927 116.017 152.091 114.587 152.091C113.154 152.091 111.994 150.93 111.994 149.497C111.994 149.133 112.064 148.783 112.2 148.466C112.134 148.425 112.049 148.403 111.994 148.348L94.8705 131.195C95.5705 133.207 101.52 150.411 103.27 159.164L103.417 159.93L104.184 159.93C111.242 159.93 115.228 160.818 118.507 163.29L128.292 153.506Z" fill="white"/>
<rect x="260" y="143" width="104" height="128" fill="#EAEDF0"/>
<rect x="260" y="143" width="104" height="16" fill="#DFDFDF"/>
<mask id="path-19-inside-1_6470:32835" fill="white">
<path fill-rule="evenodd" clip-rule="evenodd" d="M294 175H276V193H282V199H300V181H294V175Z"/>
</mask>
<path fill-rule="evenodd" clip-rule="evenodd" d="M294 175H276V193H282V199H300V181H294V175Z" fill="#FF0000"/>
<path d="M276 175V174H275V175H276ZM294 175H295V174H294V175ZM276 193H275V194H276V193ZM282 193H283V192H282V193ZM282 199H281V200H282V199ZM300 199V200H301V199H300ZM300 181H301V180H300V181ZM294 181H293V182H294V181ZM276 176H294V174H276V176ZM277 193V175H275V193H277ZM282 192H276V194H282V192ZM283 199V193H281V199H283ZM300 198H282V200H300V198ZM299 181V199H301V181H299ZM294 182H300V180H294V182ZM293 175V181H295V175H293Z" fill="#FF0000" mask="url(#path-19-inside-1_6470:32835)"/>
<rect x="324.5" y="175.5" width="17" height="17" fill="#FF0000" stroke="#FF0000"/>
<rect x="330.5" y="181.5" width="17" height="17" fill="#EAEDF0" stroke="#FF0000"/>
<rect x="276.5" y="223.5" width="17" height="17" stroke="#FF0000"/>
<rect x="282.5" y="229.5" width="17" height="17" stroke="#FF0000"/>
<mask id="path-25-inside-2_6470:32835" fill="white">
<path fill-rule="evenodd" clip-rule="evenodd" d="M342 223H324V241H330V247H348V229H342V223ZM342 229H330V241H342V229Z"/>
</mask>
<path fill-rule="evenodd" clip-rule="evenodd" d="M342 223H324V241H330V247H348V229H342V223ZM342 229H330V241H342V229Z" fill="#FF0000"/>
<path d="M324 223V222H323V223H324ZM342 223H343V222H342V223ZM324 241H323V242H324V241ZM330 247H329V248H330V247ZM348 247V248H349V247H348ZM348 229H349V228H348V229ZM330 229V228H329V229H330ZM342 241V242H343V241H342ZM324 224H342V222H324V224ZM325 241V223H323V241H325ZM330 240H324V242H330V240ZM331 247V241H329V247H331ZM348 246H330V248H348V246ZM347 229V247H349V229H347ZM342 230H348V228H342V230ZM341 223V229H343V223H341ZM330 230H342V228H330V230ZM331 241V229H329V241H331ZM342 240H330V242H342V240ZM341 229V241H343V229H341Z" fill="#FF0000" mask="url(#path-25-inside-2_6470:32835)"/>
<rect x="283" y="230" width="10" height="10" fill="#FF0000"/>
<rect x="196" y="24" width="176" height="80" fill="#EAEDF0"/>
<rect x="196" y="24" width="176" height="16" fill="#DFDFDF"/>
<rect x="212" y="56" width="24" height="24" fill="#C80000"/>
<rect x="292" y="56" width="24" height="24" fill="#F7C6C8"/>
<rect x="252" y="56" width="24" height="24" fill="#FF0000"/>
<rect x="332" y="56" width="24" height="24" fill="white"/>
</svg>
