<svg width="396" height="360" viewBox="0 0 396 360" fill="none" xmlns="http://www.w3.org/2000/svg">
<rect x="40" y="222" width="133" height="121" fill="#EAEDF0"/>
<rect x="24.5" y="206.5" width="132" height="120" stroke="#C80000" stroke-dasharray="4 4"/>
<rect x="350.484" y="65" width="229.953" height="294.485" rx="8" transform="rotate(90 350.484 65)" fill="#FF0000"/>
<path d="M342.484 65C346.903 65 350.484 68.5817 350.484 73L350.484 91.3582L55.9994 91.3582L55.9994 73C55.9994 68.5817 59.5811 65 63.9994 65L342.484 65Z" fill="#C80000"/>
<circle cx="71.4515" cy="77.7249" r="5.45343" fill="white"/>
<circle cx="89.6292" cy="77.7249" r="5.45343" fill="white"/>
<circle cx="107.807" cy="77.7249" r="5.45343" fill="white"/>
<rect x="77.8125" y="238.602" width="90.8904" height="10.9069" rx="5.45343" fill="#F5F8FA" fill-opacity="0.8"/>
<rect x="77.8125" y="260.414" width="134.518" height="10.9069" rx="5.45343" fill="#F5F8FA" fill-opacity="0.8"/>
<rect x="76.9043" y="211.334" width="134.518" height="10.9069" rx="5.45343" fill="white"/>
<path d="M190.646 243.146C190.451 243.342 190.451 243.658 190.646 243.854L193.828 247.036C194.024 247.231 194.34 247.231 194.536 247.036C194.731 246.84 194.731 246.524 194.536 246.328L191.707 243.5L194.536 240.672C194.731 240.476 194.731 240.16 194.536 239.964C194.34 239.769 194.024 239.769 193.828 239.964L190.646 243.146ZM191 244H193.042V243H191V244ZM197.125 244H201.208V243H197.125V244ZM205.292 244H209.375V243H205.292V244ZM213.458 244H217.542V243H213.458V244ZM221.625 244H225.708V243H221.625V244ZM229.792 244H233.875V243H229.792V244ZM237.958 244H242.042V243H237.958V244ZM246.125 244H250.208V243H246.125V244ZM254.292 244H258.375V243H254.292V244ZM262.458 244H264.5V243H262.458V244Z" fill="white"/>
<rect x="78.9492" y="113.949" width="72.4884" height="72.4884" stroke="white" stroke-dasharray="4 4"/>
<rect x="76" y="111" width="6.12403" height="6.12403" fill="white"/>
<rect x="76" y="183.875" width="6.12403" height="6.12403" fill="white"/>
<rect x="148.875" y="111" width="6.12403" height="6.12403" fill="white"/>
<rect x="148.875" y="183.875" width="6.12403" height="6.12403" fill="white"/>
<rect x="370.045" y="114" width="190" height="105.045" rx="8" transform="rotate(90 370.045 114)" fill="#EAEDF0"/>
<rect x="276.5" y="265.5" width="82" height="27" rx="7.5" stroke="#FF0000" stroke-dasharray="4 4"/>
<rect x="308.049" y="126.053" width="12.0544" height="2.29607" rx="1.14804" fill="#FF0000"/>
<circle cx="325.845" cy="127.203" r="1.72205" fill="#FF0000"/>
<rect x="281" y="165" width="46.6215" height="10" rx="5" fill="#D1D5D9"/>
<rect x="281" y="185" width="68.9998" height="10" rx="5" fill="#D1D5D9"/>
<path d="M102 134H192V128L203.5 139.5L192 151V145H102V134Z" fill="#C80000"/>
<path d="M190.5 157H100.5V151L89 162.5L100.5 174V168H190.5V157Z" fill="#C80000"/>
</svg>
