<?xml version="1.0" encoding="UTF-8"?>
<svg width="170px" height="37px" viewBox="0 0 170 37" version="1.1" xmlns="http://www.w3.org/2000/svg" xmlns:xlink="http://www.w3.org/1999/xlink">
    <!-- Generator: sketchtool 53.2 (72643) - https://sketchapp.com -->
    <title>A54691C9-5285-468E-9996-138BD178F8AD</title>
    <desc>Created with sketchtool.</desc>
    <g id="Home" stroke="none" stroke-width="1" fill="none" fill-rule="evenodd">
        <g id="Home-" transform="translate(-655.000000, -1560.000000)" fill="#A6ABB0">
            <g id="Group-4" transform="translate(655.000000, 1560.000000)">
                <polygon id="Fill-1" points="-6.53699317e-13 36.7664988 95.638859 36.7664988 95.638859 32.9366552 -6.53699317e-13 32.9366552"></polygon>
                <polygon id="Fill-2" points="9.94864331 -3.37507799e-14 6.96007616 18.715031 6.88589187 18.715031 3.93441686 -3.37507799e-14 -7.65609798e-13 -3.37507799e-14 5.28563073 26.8089054 8.56298673 26.8089054 13.8830602 -3.37507799e-14"></polygon>
                <polygon id="Fill-3" points="16.9681847 26.8089054 20.8245903 26.8089054 20.8245903 -3.37507799e-14 16.9681847 -3.37507799e-14"></polygon>
                <path d="M26.9948392,12.2192214 L29.2061143,12.2192214 C31.9167991,12.2192214 32.3357483,10.7078694 32.3357483,8.02590647 C32.3357483,5.30272489 31.8779561,3.82984363 29.0174484,3.82984363 L26.9948392,3.82984363 L26.9948392,12.2192214 Z M23.1384336,-3.37507799e-14 L29.3977016,-3.37507799e-14 C34.0144667,-3.37507799e-14 36.2645847,2.68196289 36.2645847,7.89750139 C36.2645847,10.997147 35.3850688,13.2641751 32.9074419,14.6243919 L37.1024832,26.9048142 L32.9823533,26.9048142 L29.3588586,15.4185387 L27.0310546,15.4185387 L27.0310546,26.9048142 L23.1384336,26.9048142 L23.1384336,-3.37507799e-14 Z" id="Fill-4"></path>
                <polygon id="Fill-6" points="42.2957855 3.6272449 37.7927749 3.6272449 37.7927749 -4.4408921e-14 50.6914172 -4.4408921e-14 50.6914172 3.6272449 46.1884066 3.6272449 46.1884066 26.9048142 42.2957855 26.9048142"></polygon>
                <path d="M65.0377892,20.8594061 C65.0377892,24.3739865 62.21335,27.132891 58.7424527,27.132891 C55.2687809,27.132891 52.4471162,24.3739865 52.4471162,20.8594061 L52.4471162,8.34887715e-14 L56.3397372,8.34887715e-14 L56.3397372,20.4801941 C56.3397372,22.3707581 57.3690761,23.2775693 58.7424527,23.2775693 C60.1158293,23.2775693 61.1451682,22.3707581 61.1451682,20.4801941 L61.1451682,8.34887715e-14 L65.0377892,8.34887715e-14 L65.0377892,20.8594061 Z" id="Fill-8"></path>
                <polygon id="Fill-10" points="83.298361 7.81597009e-14 87.190982 7.81597009e-14 87.190982 23.0522405 94.8985381 23.0522405 94.8985381 26.9075622 83.298361 26.9075622"></polygon>
                <path d="M109.7638,7.97444295 L105.873954,7.97444295 L105.873954,7.1061025 C105.873954,5.32820292 105.108192,3.85532166 103.124426,3.85532166 C100.988062,3.85532166 100.494201,5.55627968 100.494201,7.33143135 C100.494201,9.40885343 100.682867,10.1288066 102.705477,10.9202055 L105.682513,12.0935642 C109.114567,13.3768395 109.7638,15.5312032 109.7638,19.4634664 C109.7638,23.9975225 108.085229,27.3609678 103.049514,27.3609678 C99.2706478,27.3609678 96.4101401,24.6020633 96.4101401,20.9720705 L96.4101401,19.53766 L100.302761,19.53766 L100.302761,20.7467417 C100.302761,22.1454293 101.065748,23.5056461 103.049514,23.5056461 C105.682513,23.5056461 105.873954,21.9558233 105.873954,19.4991892 C105.873954,16.6276204 105.529916,16.1742147 103.621061,15.4185387 L100.835465,14.2836507 C97.4783219,12.9234339 96.598806,10.7333474 96.598806,7.36990213 C96.598806,3.28650371 98.8128555,-5.32907052e-14 103.277023,-5.32907052e-14 C107.169644,-5.32907052e-14 109.7638,3.09964564 109.7638,6.08387894 L109.7638,7.97444295 Z" id="Fill-12"></path>
                <polygon id="Fill-14" points="115.567492 3.6272449 111.064481 3.6272449 111.064481 -4.4408921e-14 123.960349 -4.4408921e-14 123.960349 3.6272449 119.460113 3.6272449 119.460113 26.9048142 115.567492 26.9048142"></polygon>
                <path d="M128.803947,20.7597344 C128.803947,22.6118276 130.024726,23.4801681 131.436946,23.4801681 C132.849166,23.4801681 134.06717,22.6118276 134.06717,20.7597344 L134.06717,6.55302521 C134.06717,4.69818407 132.849166,3.82984363 131.436946,3.82984363 C130.024726,3.82984363 128.803947,4.69818407 128.803947,6.55302521 L128.803947,20.7597344 Z M124.947542,6.57575533 C124.947542,2.1900865 128.304684,5.15143483e-14 131.473161,5.15143483e-14 C134.638864,5.15143483e-14 137.996007,2.1900865 137.996007,6.57575533 L137.996007,20.7824645 C137.996007,25.1681333 134.638864,27.3582199 131.473161,27.3582199 C128.304684,27.3582199 124.947542,25.1681333 124.947542,20.7824645 L124.947542,6.57575533 Z" id="Fill-16"></path>
                <path d="M152.966611,21.1232057 C152.966611,24.4481802 150.255927,27.3582199 146.785029,27.3582199 C143.807993,27.3582199 140.373164,25.9238094 140.373164,21.0077934 L140.373164,6.19654337 C140.373164,2.68196289 142.931251,5.15143483e-14 146.710118,5.15143483e-14 C150.29477,5.15143483e-14 152.966611,2.68196289 152.966611,6.42187222 L152.966611,7.93322426 L149.07399,7.93322426 L149.07399,6.64994898 C149.07399,5.13859694 148.158406,3.85257375 146.6685,3.85257375 C144.723577,3.85257375 144.265785,5.17431981 144.265785,6.98794225 L144.265785,20.7439937 C144.265785,22.2938166 144.876175,23.5028982 146.632432,23.5028982 C147.700614,23.5028982 149.07399,22.8983574 149.07399,20.7824645 L149.07399,19.4607185 L152.966611,19.4607185 L152.966611,21.1232057 Z" id="Fill-18"></path>
                <polygon id="Fill-20" points="155.027505 7.81597009e-14 158.920126 7.81597009e-14 158.920126 12.2804223 158.995038 12.2804223 164.679985 7.81597009e-14 168.572606 7.81597009e-14 163.270539 10.7690703 169.565876 26.9075622 165.442972 26.9075622 161.017647 14.9651331 158.920126 18.8561776 158.920126 26.9075622 155.027505 26.9075622"></polygon>
                <polygon id="Fill-23" points="74.8673368 7.81597009e-14 71.6239484 7.81597009e-14 65.5588953 26.9075622 69.4487418 26.9075622 70.3365812 22.4312122 71.2854596 17.4959608 73.1887654 7.74636619 73.2664513 7.74636619 74.8229448 15.7125654 75.8994502 21.1232057 77.0425434 26.9075622 80.9351644 26.9075622"></polygon>
            </g>
        </g>
    </g>
</svg>