<?xml version="1.0" encoding="UTF-8"?>
<svg width="154px" height="34px" viewBox="0 0 154 34" version="1.1" xmlns="http://www.w3.org/2000/svg" xmlns:xlink="http://www.w3.org/1999/xlink">
    <!-- Generator: sketchtool 53.2 (72643) - https://sketchapp.com -->
    <title>943E5D75-5ECA-4CB2-BD7F-9369E42E4A20</title>
    <desc>Created with sketchtool.</desc>
    <defs>
        <polygon id="path-1" points="0 33.3663857 159.827647 33.3663857 159.827647 0 0 0"></polygon>
    </defs>
    <g id="Home" stroke="none" stroke-width="1" fill="none" fill-rule="evenodd">
        <g id="Home-" transform="translate(-1101.000000, -728.000000)">
            <g id="VS-logo-Copy" transform="translate(1101.000000, 728.000000)">
                <polygon id="Fill-1" fill="#E54096" points="0 34 86.6375546 34 86.6375546 30.5306122 0 30.5306122"></polygon>
                <polygon id="Fill-2" fill="#455160" points="9.01230041 0.693877551 6.30501017 17.6474938 6.23780793 17.6474938 3.5641188 0.693877551 0 0.693877551 4.78815961 24.9795918 7.75705857 24.9795918 12.5764192 0.693877551"></polygon>
                <polygon id="Fill-3" fill="#455160" points="15.371179 24.9795918 18.8646288 24.9795918 18.8646288 0.693877551 15.371179 0.693877551"></polygon>
                <g id="Group-25">
                    <path d="M24.4541485,11.7630546 L26.4573036,11.7630546 C28.912865,11.7630546 29.2923838,10.3939474 29.2923838,7.96440459 C29.2923838,5.49752245 28.8776779,4.16326531 26.2863945,4.16326531 L24.4541485,4.16326531 L24.4541485,11.7630546 Z M20.9606987,0.693877551 L26.6308591,0.693877551 C30.8131051,0.693877551 32.8514474,3.12342041 32.8514474,7.84808469 C32.8514474,10.655999 32.0547094,12.7096597 29.8102709,13.9418561 L33.6104848,25.066474 L29.8781318,25.066474 L26.595672,14.6612597 L24.4869554,14.6612597 L24.4869554,25.066474 L20.9606987,25.066474 L20.9606987,0.693877551 Z" id="Fill-4" fill="#455160"></path>
                    <polygon id="Fill-6" fill="#455160" points="38.3150057 3.97973469 34.2358079 3.97973469 34.2358079 0.693877551 45.9204603 0.693877551 45.9204603 3.97973469 41.8412624 3.97973469 41.8412624 25.066474 38.3150057 25.066474"></polygon>
                    <path d="M58.9165855,19.5900454 C58.9165855,22.7738418 56.3579759,25.2730847 53.2137513,25.2730847 C50.0670133,25.2730847 47.510917,22.7738418 47.510917,19.5900454 L47.510917,0.693877551 L51.0371737,0.693877551 L51.0371737,19.246524 C51.0371737,20.9591526 51.9696336,21.7806168 53.2137513,21.7806168 C54.4578689,21.7806168 55.3903288,20.9591526 55.3903288,19.246524 L55.3903288,0.693877551 L58.9165855,0.693877551 L58.9165855,19.5900454 Z" id="Fill-8" fill="#455160"></path>
                    <polygon id="Fill-10" fill="#455160" points="75.4585153 0.693877551 78.984772 0.693877551 78.984772 21.5764954 85.966911 21.5764954 85.966911 25.0689633 75.4585153 25.0689633"></polygon>
                    <path d="M99.4330895,7.91778469 L95.9093461,7.91778469 L95.9093461,7.13117041 C95.9093461,5.52060255 95.2156563,4.18634541 93.4185975,4.18634541 C91.4833034,4.18634541 91.0359237,5.72721327 91.0359237,7.33529184 C91.0359237,9.21719184 91.2068328,9.86938469 93.0390788,10.586299 L95.7359237,11.649224 C98.8449611,12.8117204 99.4330895,14.7633204 99.4330895,18.3254883 C99.4330895,22.4328097 97.9125012,25.4796954 93.3507365,25.4796954 C89.927528,25.4796954 87.3362445,22.9804526 87.3362445,19.6921061 L87.3362445,18.392699 L90.8625012,18.392699 L90.8625012,19.4879847 C90.8625012,20.7550311 91.5536777,21.9872276 93.3507365,21.9872276 C95.7359237,21.9872276 95.9093461,20.5832704 95.9093461,18.357849 C95.9093461,15.7565454 95.5976884,15.3458133 93.8684905,14.6612597 L91.3450681,13.6331847 C88.3038916,12.4009883 87.5071536,10.4170276 87.5071536,7.37014184 C87.5071536,3.67106327 89.5128221,0.693877551 93.5568328,0.693877551 C97.0830895,0.693877551 99.4330895,3.50179184 99.4330895,6.20515612 L99.4330895,7.91778469 Z" id="Fill-12" fill="#455160"></path>
                    <polygon id="Fill-14" fill="#455160" points="104.690552 3.97973469 100.611354 3.97973469 100.611354 0.693877551 112.293493 0.693877551 112.293493 3.97973469 108.216808 3.97973469 108.216808 25.066474 104.690552 25.066474"></polygon>
                    <path d="M116.681223,19.4997546 C116.681223,21.1775332 117.787105,21.9641474 119.06641,21.9641474 C120.345715,21.9641474 121.449084,21.1775332 121.449084,19.4997546 L121.449084,6.63014745 C121.449084,4.94987959 120.345715,4.16326531 119.06641,4.16326531 C117.787105,4.16326531 116.681223,4.94987959 116.681223,6.63014745 L116.681223,19.4997546 Z M113.187773,6.65073827 C113.187773,2.67783827 116.228949,0.693877551 119.099217,0.693877551 C121.966971,0.693877551 125.008147,2.67783827 125.008147,6.65073827 L125.008147,19.5203454 C125.008147,23.4932454 121.966971,25.4772061 119.099217,25.4772061 C116.228949,25.4772061 113.187773,23.4932454 113.187773,19.5203454 L113.187773,6.65073827 Z" id="Fill-16" fill="#455160"></path>
                    <path d="M138.569754,19.8290168 C138.569754,22.8410526 136.114192,25.4772061 132.969968,25.4772061 C130.273123,25.4772061 127.161572,24.177799 127.161572,19.7244668 L127.161572,6.30721684 C127.161572,3.12342041 129.478898,0.693877551 132.902107,0.693877551 C136.14938,0.693877551 138.569754,3.12342041 138.569754,6.51133827 L138.569754,7.88044541 L135.043497,7.88044541 L135.043497,6.71794898 C135.043497,5.34884184 134.214085,4.18385612 132.864406,4.18385612 C131.102535,4.18385612 130.687829,5.38120255 130.687829,7.02413112 L130.687829,19.4854954 C130.687829,20.8894526 131.24077,21.9847383 132.831732,21.9847383 C133.79938,21.9847383 135.043497,21.4370954 135.043497,19.5203454 L135.043497,18.322999 L138.569754,18.322999 L138.569754,19.8290168 Z" id="Fill-18" fill="#455160"></path>
                    <polygon id="Fill-20" fill="#455160" points="140.436681 0.693877551 143.962938 0.693877551 143.962938 11.8184954 144.030799 11.8184954 149.180692 0.693877551 152.706949 0.693877551 147.9039 10.4493883 153.606735 25.0689633 149.871868 25.0689633 145.863045 14.2505276 143.962938 17.7753561 143.962938 25.0689633 140.436681 25.0689633"></polygon>
                    <mask id="mask-2" fill="white">
                        <use xlink:href="#path-1"></use>
                    </mask>
                    <g id="Clip-22"></g>
                    <polygon id="Fill-23" fill="#455160" mask="url(#mask-2)" points="67.8209992 0.693877551 64.8828709 0.693877551 59.3886463 25.0689633 62.9123896 25.0689633 63.7166677 21.0139168 64.5762399 16.5431597 66.300411 7.71117398 66.3707853 7.71117398 67.7807853 14.9276133 68.7559725 19.8290168 69.7914805 25.0689633 73.3177372 25.0689633"></polygon>
                    <polygon id="Fill-24" fill="#E13C95" mask="url(#mask-2)" points="0 33.3292026 86.0351337 33.3292026 86.0351337 29.8367347 0 29.8367347"></polygon>
                </g>
            </g>
        </g>
    </g>
</svg>