<?xml version="1.0" encoding="UTF-8"?>
<svg width="129px" height="36px" viewBox="0 0 129 36" version="1.1" xmlns="http://www.w3.org/2000/svg" xmlns:xlink="http://www.w3.org/1999/xlink">
    <!-- Generator: sketchtool 53.2 (72643) - https://sketchapp.com -->
    <title>C0A1E251-E30E-4F06-8D2F-DF31FD4CE604</title>
    <desc>Created with sketchtool.</desc>
    <defs>
        <linearGradient x1="50%" y1="0%" x2="50%" y2="100%" id="linearGradient-1">
            <stop stop-color="#C04189" offset="0%"></stop>
            <stop stop-color="#FCB44B" offset="100%"></stop>
        </linearGradient>
        <polygon id="path-2" points="2.05963333 1.05993333 24.2233333 1.05993333 24.2233333 28.2039333 2.05963333 28.2039333"></polygon>
        <polygon id="path-4" points="0 1.05906667 22.1060667 1.05906667 22.1060667 28.2030667 0 28.2030667"></polygon>
    </defs>
    <g id="Home" stroke="none" stroke-width="1" fill="none" fill-rule="evenodd">
        <g id="Home-" transform="translate(-838.000000, -728.000000)">
            <g id="Blexr-logo-Copy" transform="translate(838.000000, 726.000000)">
                <g id="Group-13">
                    <polygon id="Fill-1" fill="#29394A" points="32.01315 6.46143333 24.9693167 6.46143333 24.9693167 33.6054333 27.21615 33.6054333 27.21615 33.6097667 44.5538167 33.6097667 44.5538167 27.5192667 32.01315 27.5192667"></polygon>
                    <polygon id="Fill-2" fill="#29394A" points="54.8636833 27.5186167 54.8636833 22.7432833 64.99935 22.7432833 64.99935 17.03845 54.8636833 17.03845 54.8636833 12.65095 67.34585 12.65095 67.34585 6.55828333 54.8636833 6.55828333 54.8636833 6.46078333 47.81985 6.46078333 47.81985 33.60695 50.6950167 33.60695 50.6950167 33.6112833 68.03485 33.6112833 68.03485 27.5186167"></polygon>
                    <g id="Group-5" transform="translate(69.333333, 1.069033)" fill="url(#linearGradient-1)">
                        <path d="M26.9338333,1.0985 L26.9338333,9.7045 C26.9338333,12.6945 24.0825,15.7863333 20.319,15.7863333 L20.319,15.7863333 L20.2345,15.7863333 L20.2345,21.892 C23.998,21.892 27.0226667,24.7281667 27.0226667,27.9738333 L27.0226667,27.9738333 L27.0226667,36.582 L33.3775,36.582 L33.3775,27.9738333 C33.3775,24.1886667 31.4816667,20.8563333 28.6,18.8391667 L28.6,18.8391667 C31.4816667,16.822 33.3775,13.4896667 33.3775,9.7045 L33.3775,9.7045 L33.3775,1.0985 L26.9338333,1.0985 Z M14.3931667,1.0985 L14.3931667,6.74483333 C14.3931667,8.17916667 15.5588333,9.34483333 16.9953333,9.34483333 L16.9953333,9.34483333 L18.408,9.34483333 C19.8423333,9.34483333 21.008,8.17916667 21.008,6.74483333 L21.008,6.74483333 L21.008,1.0985 L14.3931667,1.0985 Z M2.10816667,1.0985 L2.10816667,9.7045 C2.10816667,13.4896667 4.004,16.822 6.88566667,18.8391667 L6.88566667,18.8391667 C4.004,20.8563333 2.10816667,24.1886667 2.10816667,27.9738333 L2.10816667,27.9738333 L2.10816667,36.582 L8.55183333,36.582 L8.55183333,27.9738333 C8.55183333,24.986 11.4053333,21.892 15.1666667,21.892 L15.1666667,21.892 L15.2533333,21.892 L15.2533333,15.7863333 C11.4876667,15.7863333 8.46516667,12.9523333 8.46516667,9.7045 L8.46516667,9.7045 L8.46516667,1.0985 L2.10816667,1.0985 Z M16.9953333,28.587 C15.5588333,28.587 14.3931667,29.7505 14.3931667,31.187 L14.3931667,31.187 L14.3931667,36.8311667 L21.008,36.8311667 L21.008,31.187 C21.008,29.7505 19.8423333,28.587 18.408,28.587 L18.408,28.587 L16.9953333,28.587 Z" id="Fill-3"></path>
                    </g>
                    <g id="Group-12" transform="translate(0.000000, 5.402367)">
                        <g id="Group-8" transform="translate(104.000000, 0.000000)">
                            <mask id="mask-3" fill="white">
                                <use xlink:href="#path-2"></use>
                            </mask>
                            <g id="Clip-7"></g>
                            <path d="M15.8244667,10.4979333 C15.8244667,12.1012667 14.5244667,13.3991 12.9211333,13.3991 L9.12296667,13.3991 L9.12296667,6.8146 L12.9211333,6.8146 C14.5244667,6.8146 15.8244667,8.11243333 15.8244667,9.71576667 L15.8244667,10.4979333 Z M18.4959667,18.0682667 L18.4569667,18.0682667 C20.3441333,16.9351 22.6776333,14.3979333 22.6776333,9.19143333 C22.6776333,1.2896 14.2016333,1.05993333 14.2016333,1.05993333 L9.10346667,1.05993333 L2.05963333,1.05993333 L2.05963333,28.2039333 L9.10346667,28.2039333 L9.10346667,18.8699333 L11.9114667,18.8699333 L11.9678,18.8699333 L16.6066333,28.2039333 L24.2246333,28.2039333 L18.4959667,18.0682667 Z" id="Fill-6" fill="#29394A" mask="url(#mask-3)"></path>
                        </g>
                        <g id="Group-11">
                            <mask id="mask-5" fill="white">
                                <use xlink:href="#path-4"></use>
                            </mask>
                            <g id="Clip-10"></g>
                            <path d="M14.7654,20.1929 C14.7654,21.9089 13.3722333,23.3020667 11.6540667,23.3020667 L7.04556667,23.3020667 L7.04556667,16.7695667 L11.6540667,16.7695667 C13.3722333,16.7695667 14.7654,18.1627333 14.7654,19.8787333 L14.7654,20.1929 Z M7.04556667,6.2894 L10.6227333,6.2894 C12.1892333,6.2894 13.4567333,7.55906667 13.4567333,9.12556667 L13.4567333,9.23823333 C13.4567333,10.8047333 12.1892333,12.0744 10.6227333,12.0744 L7.04556667,12.0744 L7.04556667,6.2894 Z M16.2647333,13.9442333 C16.2647333,13.9442333 20.6175667,13.6582333 20.6175667,7.41823333 C20.6175667,1.1739 12.5987333,1.05906667 12.5987333,1.05906667 L7.04556667,1.05906667 L-0.000433333333,1.05906667 L-0.000433333333,28.2030667 L5.61123333,28.2030667 L7.04556667,28.2030667 L12.3712333,28.2030667 C14.8889,28.2030667 22.1060667,27.3472333 22.1060667,21.0465667 C22.1060667,14.7459 16.2647333,13.9442333 16.2647333,13.9442333 L16.2647333,13.9442333 Z" id="Fill-9" fill="#29394A" mask="url(#mask-5)"></path>
                        </g>
                    </g>
                </g>
            </g>
        </g>
    </g>
</svg>