<?xml version="1.0" encoding="UTF-8"?>
<svg width="160px" height="50px" viewBox="0 0 160 50" version="1.1" xmlns="http://www.w3.org/2000/svg" xmlns:xlink="http://www.w3.org/1999/xlink">
    <!-- Generator: sketchtool 53.2 (72643) - https://sketchapp.com -->
    <title>EE42607E-74CE-4614-B9C1-1DAF8E20D88A</title>
    <desc>Created with sketchtool.</desc>
    <defs>
        <polygon id="path-1" points="0.0375000863 0.0233069212 21.4922501 0.0233069212 21.4922501 21.1035096 0.0375000863 21.1035096"></polygon>
        <polygon id="path-3" points="0 0.00694887472 8.13809762 0.00694887472 8.13809762 8.21620436 0 8.21620436"></polygon>
        <polygon id="path-5" points="0.0299434014 0.0156632653 8.19269683 0.0156632653 8.19269683 8.21763849 0.0299434014 8.21763849"></polygon>
    </defs>
    <g id="Home" stroke="none" stroke-width="1" fill="none" fill-rule="evenodd">
        <g id="Home-" transform="translate(-544.000000, -720.000000)">
            <g id="Vivino" transform="translate(544.000000, 720.000000)">
                <path d="M132.876171,24.0110663 C132.701801,22.6505051 132.146803,21.4406071 131.132573,20.5288214 C128.934312,18.55275 126.371417,17.8346888 123.467857,18.5137704 C122.284182,18.7906582 121.220798,19.34275 120.209005,20.0080561 C119.725603,20.3259643 119.595308,20.2956071 119.236057,19.8365255 C119.016597,19.5560663 118.809932,19.265199 118.603775,18.9745867 C118.353391,18.6215765 118.049539,18.4163214 117.585483,18.4293827 C116.706168,18.4540765 115.825584,18.4310663 114.94561,18.4339745 C114.852331,18.4342296 114.759205,18.475199 114.676083,18.4948929 C114.571278,19.5949949 114.618907,38.8420867 114.72422,39.2098418 C115.682239,39.2950969 119.45501,39.257852 119.862601,39.1490255 L119.862601,38.5550969 C119.862652,35.3920357 119.862855,32.2289745 119.86255,29.0659133 C119.862449,27.9731071 119.995689,26.8993316 120.277606,25.8416786 C120.800411,23.880352 122.622106,22.4922398 124.840373,22.9046888 C126.422043,23.1988214 127.552807,24.2168316 127.887482,25.7884643 C127.975276,26.2007092 128.01341,26.6308112 128.015645,27.0529541 C128.027679,29.3656582 128.021382,31.6784643 128.021382,33.9912704 C128.021382,35.5550969 128.020519,37.1189235 128.02255,38.682699 C128.022753,38.8612194 128.038799,39.0397398 128.047076,39.2095357 L132.950459,39.2095357 C132.96554,39.0363724 132.988034,38.8885663 132.989862,38.7405051 C133.007076,37.3131071 133.034953,35.8856071 133.032617,34.4582092 C133.027742,31.5683112 133.011443,28.6783622 132.986663,25.7886173 C132.981586,25.1955561 132.951474,24.5988214 132.876171,24.0110663" id="Fill-1" fill="#AA1F2A"></path>
                <g id="Group-5" transform="translate(138.470327, 18.249643)">
                    <mask id="mask-2" fill="white">
                        <use xlink:href="#path-1"></use>
                    </mask>
                    <g id="Clip-4"></g>
                    <path d="M14.8594453,15.1096684 C12.5066684,17.4952296 8.60202856,17.3650765 6.41463408,14.8230867 C5.39243161,13.6351276 4.84545605,12.2620153 4.85220946,10.4465051 C4.79604951,7.91783163 6.78825516,5.06752551 9.89116852,4.62130102 C12.2444024,4.28288265 14.1484075,5.13482143 15.5293532,7.06931122 C17.2832091,9.52614796 16.9773253,12.9623214 14.8594453,15.1096684 M21.4451387,9.58191327 C21.2104957,7.13625 20.2564875,5.01686224 18.5313716,3.29196429 C15.8097467,0.570790816 12.5053481,-0.443035714 8.73669057,0.219413265 C6.05208251,0.69130102 3.84067026,2.0409949 2.17719835,4.22691327 C0.489251666,6.44507653 -0.199900984,8.95752551 0.10933418,11.7375255 C0.378556649,14.1580357 1.38212377,16.2406378 3.09337734,17.9465051 C5.19419613,20.0405867 7.76181276,21.0653827 10.7189438,21.1009439 C11.6575665,21.1234439 12.576589,20.9968622 13.4805814,20.7643112 C18.6806068,19.4268622 21.926662,14.6015051 21.4451387,9.58191327" id="Fill-3" fill="#AA1F2A" mask="url(#mask-2)"></path>
                </g>
                <path d="M59.4534154,18.4282194 C59.0907115,18.4270969 58.8406322,18.5975561 58.6777886,18.9052602 C58.5749134,19.0995969 58.4932123,19.3054643 58.4065858,19.5081684 C56.9931425,22.8163316 55.5828981,26.1257704 54.1643262,29.4316888 C53.9874173,29.8440357 53.7670428,30.2376071 53.5094484,30.7551071 C53.2742469,30.2966888 53.0767223,29.9637296 52.9262685,29.6105153 C51.4763669,26.2074031 50.035199,22.8005663 48.5882932,19.3961786 C48.5024284,19.1941378 48.3994008,18.9976071 48.2862177,18.8095459 C48.1353069,18.5588316 47.913206,18.4453112 47.6093532,18.4459235 C46.2055068,18.4487296 44.8016096,18.4364847 43.3977632,18.4319439 C43.3196674,18.4317398 43.2415208,18.4526582 43.1242247,18.4692398 C43.1919111,18.6588827 43.2399975,18.8183724 43.3046373,18.9708724 C43.8407972,20.2361276 44.3776173,21.5010765 44.9187026,22.7641378 C46.9429489,27.489648 48.9708512,32.2135765 50.9914922,36.9407194 C51.2245103,37.4858724 51.4098483,38.0514847 51.6371793,38.5993418 C51.8475506,39.1062806 52.2390454,39.3563316 52.7922666,39.3461276 C53.4009876,39.3349031 54.0097594,39.3287806 54.6185313,39.3233214 C55.0110924,39.319801 55.2976807,39.14225 55.4768746,38.7955663 C55.562384,38.6302092 55.633828,38.457199 55.7064906,38.2854643 C56.8702101,35.5349031 58.0301212,32.7827602 59.1968366,30.0334235 C60.7014256,26.4879643 62.2122602,22.9450561 63.7172555,19.39975 C63.8411019,19.1080153 63.9412352,18.8061276 64.0645738,18.4764847 C63.9257988,18.4551582 63.8464843,18.4324541 63.7671698,18.432352 C62.3292517,18.4299541 60.8912828,18.4328622 59.4534154,18.4282194" id="Fill-6" fill="#AA1F2A"></path>
                <path d="M93.8856388,18.4293673 C93.3900501,18.4277857 93.1168162,18.7051327 92.9393996,19.1358469 C92.5577049,20.0622245 92.1708816,20.9865612 91.7776096,21.9080918 C90.7046804,24.4220204 89.6292123,26.9349286 88.549682,29.446 C88.3900882,29.8171735 88.182662,30.160898 87.8056388,30.4599286 C87.6070479,30.1080408 87.3935792,29.8007449 87.2496757,29.463551 C86.1636966,26.9187041 85.0920368,24.3676837 84.0144361,21.8192143 C83.6375652,20.9279898 83.2606436,20.0367143 82.8753945,19.1491122 C82.7130079,18.7749286 82.4778064,18.4567143 82.0233475,18.4541633 C80.5521193,18.4457959 79.0808404,18.451051 77.5114592,18.451051 C77.6852199,18.8879898 77.8200343,19.2505918 77.9719606,19.6057449 C80.4018686,25.2868163 82.8359403,30.9662041 85.2628524,36.648602 C85.5225795,37.2568163 85.7304627,37.8872245 85.9859752,38.4973265 C86.2252897,39.068602 86.6494852,39.3770204 87.2932936,39.3482959 C87.7831952,39.3264082 88.2763973,39.2982449 88.7642171,39.3313571 C89.4207198,39.3758469 89.7859626,39.0897245 90.0377175,38.4902857 C92.7392345,32.0578367 95.4572542,25.6323776 98.1689267,19.2041633 C98.2663688,18.9731429 98.3447693,18.7340612 98.4355087,18.4893163 C98.3440584,18.4622755 98.2975462,18.4365612 98.2509324,18.4364592 C96.7958515,18.4329388 95.3407198,18.4339592 93.8856388,18.4293673" id="Fill-8" fill="#AA1F2A"></path>
                <path d="M102.828984,39.2000051 L107.736581,39.2000051 L107.736581,18.4787806 L102.809993,18.4787806 C102.697673,19.0924541 102.723976,38.8535255 102.828984,39.2000051" id="Fill-10" fill="#AA1F2A"></path>
                <path d="M68.312683,18.5287143 L68.312683,39.2051939 L73.2302837,39.2051939 C73.3303662,38.5381531 73.3018293,18.9166735 73.1996141,18.5287143 L68.312683,18.5287143 Z" id="Fill-12" fill="#AA1F2A"></path>
                <path d="M23.9989997,25.0894235 C21.8095741,25.095699 19.9608658,26.9840663 19.9571082,29.2179949 C19.9534522,31.4274847 21.8116052,33.3266684 24.0309387,33.3092194 C26.4993361,33.2898827 28.1755532,31.2144745 28.1150771,29.1878929 C28.1134522,26.9421276 26.2463624,25.0829949 23.9989997,25.0894235" id="Fill-14" fill="#AA1F2A"></path>
                <path d="M14.1375462,41.7878929 C11.8767274,41.7947296 10.0856008,43.6104439 10.0647312,45.8696786 C10.0430492,48.2215663 12.1680889,50.075648 14.1700438,49.980852 C16.359317,50.0204439 18.2415893,47.9925867 18.2177239,45.8620255 C18.192589,43.6135051 16.3820654,41.7810561 14.1375462,41.7878929" id="Fill-16" fill="#AA1F2A"></path>
                <g id="Group-20" transform="translate(0.000000, 25.086378)">
                    <mask id="mask-4" fill="white">
                        <use xlink:href="#path-3"></use>
                    </mask>
                    <g id="Clip-19"></g>
                    <path d="M8.13808442,4.12732653 C8.1437715,1.80814286 6.31197207,0.049877551 4.0895411,0.00763265306 C1.88422215,-0.0342040816 0.0111913678,1.84952041 7.10885433e-05,4.08043878 C-0.0146543954,6.29003061 1.69746239,8.21528571 4.0705503,8.21620408 C6.32837321,8.21702041 8.13244811,6.43681633 8.13808442,4.12732653" id="Fill-18" fill="#AA1F2A" mask="url(#mask-4)"></path>
                </g>
                <path d="M13.9748499,16.4446531 C16.4378648,16.4500102 18.0829553,14.3767449 18.0473602,12.3698061 C18.0571603,10.1034796 16.2662368,8.26082653 14.0294865,8.23597959 C11.7912129,8.21113265 9.94128594,10.0731224 9.91919772,12.3399082 C9.89959759,14.3464898 11.5261035,16.4393469 13.9748499,16.4446531" id="Fill-21" fill="#AA1F2A"></path>
                <path d="M8.93656617,25.1385 C11.1073056,25.1889082 13.0814345,23.5147245 13.1348017,21.0823776 C13.1833957,18.8683469 11.323364,17.0174286 9.07249762,16.9973265 C6.87149476,16.9777347 5.00476039,18.7801327 4.95438908,20.921102 C4.89822913,23.3069184 6.81822913,25.0893163 8.93656617,25.1385" id="Fill-23" fill="#AA1F2A"></path>
                <path d="M10.0717233,29.1466888 C10.0801016,31.4338316 11.7846525,33.2891378 14.1228562,33.3034235 C16.3854522,33.317148 18.1651031,31.5282194 18.2061822,29.2299541 C18.2464487,26.9802602 16.372504,25.0989847 14.1273247,25.0893418 C11.9550619,25.0799541 10.0637004,26.9582704 10.0717233,29.1466888" id="Fill-25" fill="#AA1F2A"></path>
                <g id="Group-29" transform="translate(14.928594, 0.035357)">
                    <mask id="mask-6" fill="white">
                        <use xlink:href="#path-5"></use>
                    </mask>
                    <g id="Clip-28"></g>
                    <path d="M4.13469248,8.21738265 C6.38489876,8.19156633 8.18567312,6.34503571 8.19268042,4.05294388 C8.19953539,1.7802398 6.05794224,-0.0766989796 4.11864678,0.0191683673 C2.0596179,-0.0596071429 -0.010632815,1.8777398 0.0305477626,4.09442347 C0.0733532212,6.39488265 1.92703777,8.24263776 4.13469248,8.21738265" id="Fill-27" fill="#AA1F2A" mask="url(#mask-6)"></path>
                </g>
                <path d="M19.1576769,33.5140153 C16.9334687,33.5349337 15.05861,35.368352 15.0970486,37.6430459 C15.1346239,39.8695765 16.9173723,41.6598316 19.1547318,41.6652398 C21.5458965,41.6709541 23.3253443,39.6623827 23.229781,37.5669745 C23.2751761,35.4054949 21.4177848,33.4926888 19.1576769,33.5140153" id="Fill-30" fill="#AA1F2A"></path>
                <path d="M13.1593831,37.6232041 C13.1728899,35.3393776 11.3940006,33.530398 9.12861187,33.5241735 C6.97676166,33.4564184 5.0435595,35.2611122 5.03462266,37.5609592 C5.02654903,39.6274388 6.60314059,41.6443265 9.0666125,41.6614184 C11.3519568,41.6772857 13.145927,39.8973367 13.1593831,37.6232041" id="Fill-32" fill="#AA1F2A"></path>
                <path d="M23.1665224,21.2223827 C23.2328378,18.8488622 21.4853291,17.0269235 19.1744944,16.9973827 C16.9321079,16.9687602 15.144231,18.7112092 15.0647642,20.9072296 C14.9839264,23.1416173 16.6917271,25.0673827 19.0119048,25.1376378 C21.112622,25.2012602 23.1001561,23.5991684 23.1665224,21.2223827" id="Fill-34" fill="#AA1F2A"></path>
            </g>
        </g>
    </g>
</svg>