<svg width="396" height="360" viewBox="0 0 396 360" fill="none" xmlns="http://www.w3.org/2000/svg">
<rect x="40" y="222" width="133" height="121" fill="#EAEDF0"/>
<rect x="24.5" y="206.5" width="132" height="120" stroke="#C80000" stroke-dasharray="4 4"/>
<rect x="350.484" y="65" width="229.953" height="294.485" rx="8" transform="rotate(90 350.484 65)" fill="#FF0000"/>
<path d="M342.484 65C346.903 65 350.484 68.5817 350.484 73L350.484 91.3582L55.9994 91.3582L55.9994 73C55.9994 68.5817 59.5811 65 63.9994 65L342.484 65Z" fill="#C80000"/>
<circle cx="71.4515" cy="77.7249" r="5.45343" fill="white"/>
<circle cx="89.6292" cy="77.7249" r="5.45343" fill="white"/>
<circle cx="107.807" cy="77.7249" r="5.45343" fill="white"/>
<rect x="77.8125" y="238.6" width="90.8904" height="10.9069" rx="5.45343" fill="#F5F8FA"/>
<rect x="77.8125" y="260.414" width="134.518" height="10.9069" rx="5.45343" fill="#F5F8FA" fill-opacity="0.8"/>
<path d="M116.815 130.234L119.694 127.355L120.047 127.709L120.633 127.123L120.633 127.931L121.133 127.931L121.133 131.961L120.633 131.961L120.633 135.992L121.133 135.992L121.133 140.022H120.633L120.633 144.053L121.133 144.053L121.133 148.083L120.633 148.083L120.633 152.114L121.133 152.114L121.133 156.144H120.633L120.633 160.175L121.133 160.175V164.205L120.633 164.205L120.633 166.221V168.236H121.133L121.133 172.266L120.633 172.266L120.633 176.297H121.133V180.327L120.633 180.327L120.633 184.358H121.133L121.133 188.388L120.633 188.388L120.633 192.419L121.133 192.419L121.133 196.45L120.633 196.45L120.633 200.48H121.133L121.133 204.511L120.633 204.511L120.633 205.319L120.047 204.733L119.694 205.086L116.815 202.207L117.168 201.854L114.289 198.975L113.936 199.328L111.057 196.45L111.41 196.096L108.532 193.217L108.178 193.571L105.299 190.692L105.653 190.338L102.774 187.459L102.42 187.813L99.5412 184.934L99.8948 184.58L97.0158 181.701L96.6623 182.055L93.7833 179.176L94.1369 178.822L91.2579 175.943L90.9044 176.297L88.0255 173.418L88.379 173.064L85.5001 170.186L85.1465 170.539L82.2676 167.66L82.6211 167.307L81.5352 166.221L82.6211 165.135L82.2676 164.781L85.1465 161.902L85.5001 162.256L88.379 159.377L88.0255 159.023L90.9044 156.144L91.2579 156.498L94.1369 153.619L93.7833 153.265L96.6623 150.387L97.0158 150.74L99.8948 147.861L99.5412 147.508L102.42 144.629L102.774 144.982L105.653 142.103L105.299 141.75L108.178 138.871L108.532 139.224L111.41 136.345L111.057 135.992L113.936 133.113L114.289 133.467L117.168 130.588L116.815 130.234Z" fill="#C80000" stroke="white" stroke-dasharray="4 4"/>
<path d="M194.815 130.234L197.694 127.355L198.047 127.709L198.633 127.123L198.633 127.931L199.133 127.931L199.133 131.961L198.633 131.961L198.633 135.992L199.133 135.992L199.133 140.022H198.633L198.633 144.053L199.133 144.053L199.133 148.083L198.633 148.083L198.633 152.114L199.133 152.114L199.133 156.144H198.633L198.633 160.175L199.133 160.175V164.205L198.633 164.205L198.633 166.221V168.236H199.133L199.133 172.266L198.633 172.266L198.633 176.297H199.133V180.327L198.633 180.327L198.633 184.358H199.133L199.133 188.388L198.633 188.388L198.633 192.419L199.133 192.419L199.133 196.45L198.633 196.45L198.633 200.48H199.133L199.133 204.511L198.633 204.511L198.633 205.319L198.047 204.733L197.694 205.086L194.815 202.207L195.168 201.854L192.289 198.975L191.936 199.328L189.057 196.45L189.41 196.096L186.532 193.217L186.178 193.571L183.299 190.692L183.653 190.338L180.774 187.459L180.42 187.813L177.541 184.934L177.895 184.58L175.016 181.701L174.662 182.055L171.783 179.176L172.137 178.822L169.258 175.943L168.904 176.297L166.025 173.418L166.379 173.064L163.5 170.186L163.147 170.539L160.268 167.66L160.621 167.307L159.535 166.221L160.621 165.135L160.268 164.781L163.147 161.902L163.5 162.256L166.379 159.377L166.025 159.023L168.904 156.144L169.258 156.498L172.137 153.619L171.783 153.265L174.662 150.387L175.016 150.74L177.895 147.861L177.541 147.508L180.42 144.629L180.774 144.982L183.653 142.103L183.299 141.75L186.178 138.871L186.532 139.224L189.41 136.345L189.057 135.992L191.936 133.113L192.289 133.467L195.168 130.588L194.815 130.234Z" fill="#C80000" stroke="white" stroke-dasharray="4 4"/>
<rect x="81.5352" y="166.221" width="56" height="56" transform="rotate(-45 81.5352 166.221)" stroke="white"/>
<rect x="78" y="166.221" width="6.12403" height="6.12403" transform="rotate(-45 78 166.221)" fill="white"/>
<rect x="116.891" y="205.111" width="6.12403" height="6.12403" transform="rotate(-45 116.891 205.111)" fill="white"/>
<rect x="116.891" y="127.33" width="6.12403" height="6.12403" transform="rotate(-45 116.891 127.33)" fill="white"/>
<rect x="155.781" y="166.221" width="6.12403" height="6.12403" transform="rotate(-45 155.781 166.221)" fill="white"/>
<rect x="159.195" y="166.221" width="56" height="56" transform="rotate(-45 159.195 166.221)" stroke="white"/>
<rect x="155.66" y="166.221" width="6.12403" height="6.12403" transform="rotate(-45 155.66 166.221)" fill="white"/>
<rect x="194.551" y="205.111" width="6.12403" height="6.12403" transform="rotate(-45 194.551 205.111)" fill="white"/>
<rect x="194.551" y="127.33" width="6.12403" height="6.12403" transform="rotate(-45 194.551 127.33)" fill="white"/>
<rect x="233.441" y="166.221" width="6.12403" height="6.12403" transform="rotate(-45 233.441 166.221)" fill="white"/>
<rect x="280" y="132" width="104" height="128" rx="8" fill="#EAEDF0"/>
<rect x="296" y="214" width="46.6215" height="10" rx="5" fill="#D1D5D9"/>
<rect x="296" y="234" width="68.9998" height="10" rx="5" fill="#D1D5D9"/>
<circle cx="331.5" cy="161.5" r="12.5" fill="#FF0000"/>
<path d="M353 200C353 197.111 352.431 194.25 351.325 191.581C350.22 188.912 348.599 186.487 346.556 184.444C344.513 182.401 342.088 180.78 339.419 179.675C336.75 178.569 333.889 178 331 178C328.111 178 325.25 178.569 322.581 179.675C319.912 180.78 317.487 182.401 315.444 184.444C313.401 186.487 311.78 188.912 310.675 191.581C309.569 194.25 309 197.111 309 200L331 200H353Z" fill="#FF0000"/>
<rect x="196" y="24" width="176" height="80" fill="#EAEDF0"/>
<rect x="196" y="24" width="176" height="16" fill="#DFDFDF"/>
<path d="M240.5 56.5V71.5C240.5 75.9183 244.082 79.5 248.5 79.5H292" stroke="#D1D5D9"/>
<path d="M279 80H348" stroke="#D1D5D9"/>
<path d="M263 56H332" stroke="#D1D5D9"/>
<rect x="212" y="48" width="58" height="16" fill="#C80000"/>
<rect x="278" y="48" width="24" height="16" fill="#FF0000"/>
<rect x="331" y="72" width="25" height="16" fill="#FF0000"/>
<rect x="310" y="48" width="46" height="16" fill="#FF0000"/>
<rect x="278" y="72" width="45" height="16" fill="#FF0000"/>
</svg>
