<svg width="396" height="360" viewBox="0 0 396 360" fill="none" xmlns="http://www.w3.org/2000/svg">
<rect x="40" y="222" width="133" height="121" fill="#EAEDF0"/>
<rect x="24.5" y="206.5" width="132" height="120" stroke="#C80000" stroke-dasharray="4 4"/>
<rect x="350.484" y="65" width="229.953" height="294.485" rx="8" transform="rotate(90 350.484 65)" fill="#FF0000"/>
<path d="M342.484 65C346.903 65 350.484 68.5817 350.484 73L350.484 91.3582L55.9994 91.3582L55.9994 73C55.9994 68.5817 59.5811 65 63.9994 65L342.484 65Z" fill="#C80000"/>
<circle cx="71.4515" cy="77.7249" r="5.45343" fill="white"/>
<circle cx="89.6292" cy="77.7249" r="5.45343" fill="white"/>
<circle cx="107.807" cy="77.7249" r="5.45343" fill="white"/>
<rect x="77.8125" y="238.602" width="90.8904" height="10.9069" rx="5.45343" fill="#F5F8FA" fill-opacity="0.8"/>
<rect x="77.8125" y="260.414" width="134.518" height="10.9069" rx="5.45343" fill="#F5F8FA" fill-opacity="0.8"/>
<rect x="77" y="211.334" width="134.518" height="10.9069" rx="5.45343" fill="white"/>
<path d="M190.646 243.146C190.451 243.342 190.451 243.658 190.646 243.854L193.828 247.036C194.024 247.231 194.34 247.231 194.536 247.036C194.731 246.84 194.731 246.524 194.536 246.328L191.707 243.5L194.536 240.672C194.731 240.476 194.731 240.16 194.536 239.964C194.34 239.769 194.024 239.769 193.828 239.964L190.646 243.146ZM191 244H193.042V243H191V244ZM197.125 244H201.208V243H197.125V244ZM205.292 244H209.375V243H205.292V244ZM213.458 244H217.542V243H213.458V244ZM221.625 244H225.708V243H221.625V244ZM229.792 244H233.875V243H229.792V244ZM237.958 244H242.042V243H237.958V244ZM246.125 244H250.208V243H246.125V244ZM254.292 244H258.375V243H254.292V244ZM262.458 244H264.5V243H262.458V244Z" fill="white"/>
<path d="M232 90.5V243.5" stroke="white" stroke-dasharray="4 4"/>
<rect x="260" y="143" width="104" height="128" rx="8" fill="#EAEDF0"/>
<path d="M304.345 246.393L313.202 211L319.655 212.607L310.798 248L304.345 246.393Z" fill="#FF0000"/>
<path d="M281 229.5L295.203 215.312L299.631 219.736L289.857 229.5L299.631 239.264L295.203 243.688L281 229.5Z" fill="#FF0000"/>
<path d="M324.369 219.736L328.797 215.312L343 229.5L328.797 243.688L324.369 239.264L334.143 229.5L324.369 219.736Z" fill="#FF0000"/>
<rect x="276" y="160" width="46.6215" height="10" rx="5" fill="#D1D5D9"/>
<rect x="276" y="180" width="68.9998" height="10" rx="5" fill="#D1D5D9"/>
<rect x="196" y="24" width="176" height="80" fill="#EAEDF0"/>
<rect x="196" y="24" width="176" height="16" fill="#DFDFDF"/>
<path d="M240.5 56.5V71.5C240.5 75.9183 244.082 79.5 248.5 79.5H292" stroke="#D1D5D9"/>
<path d="M279 80H348" stroke="#D1D5D9"/>
<path d="M263 56H332" stroke="#D1D5D9"/>
<rect x="212" y="48" width="58" height="16" fill="#C80000"/>
<rect x="278" y="48" width="24" height="16" fill="#FF0000"/>
<rect x="331" y="72" width="25" height="16" fill="#FF0000"/>
<rect x="310" y="48" width="46" height="16" fill="#FF0000"/>
<rect x="278" y="72" width="45" height="16" fill="#FF0000"/>
<rect x="115.5" y="134.5" width="58" height="58" stroke="white"/>
<path d="M115.5 172H85L117.5 112L130.724 134.529" stroke="white"/>
<path d="M173.5 142.5L173.5 172C179.335 172 185.038 170.27 189.889 167.028C194.741 163.787 198.522 159.18 200.754 153.789C202.987 148.399 203.571 142.467 202.433 136.745C201.295 131.022 198.485 125.766 194.36 121.64C190.234 117.515 184.978 114.705 179.255 113.567C173.533 112.429 167.601 113.013 162.211 115.246C156.82 117.478 152.213 121.259 148.972 126.111C147.241 128.701 145.941 131.534 145.105 134.5" stroke="white"/>
</svg>
