<svg width="396" height="360" viewBox="0 0 396 360" fill="none" xmlns="http://www.w3.org/2000/svg">
<rect x="40" y="222" width="133" height="121" fill="#EAEDF0"/>
<rect x="24.5" y="206.5" width="132" height="120" stroke="#C80000" stroke-dasharray="4 4"/>
<rect x="350.484" y="65" width="229.953" height="294.485" rx="8" transform="rotate(90 350.484 65)" fill="#FF0000"/>
<path d="M342.484 65C346.903 65 350.484 68.5817 350.484 73L350.484 91.3582L55.9994 91.3582L55.9994 73C55.9994 68.5817 59.5811 65 63.9994 65L342.484 65Z" fill="#C80000"/>
<circle cx="71.4515" cy="77.7249" r="5.45343" fill="white"/>
<circle cx="89.6292" cy="77.7249" r="5.45343" fill="white"/>
<circle cx="107.807" cy="77.7249" r="5.45343" fill="white"/>
<rect x="77.8125" y="238.602" width="90.8904" height="10.9069" rx="5.45343" fill="#F5F8FA" fill-opacity="0.8"/>
<rect x="77.8125" y="260.414" width="134.518" height="10.9069" rx="5.45343" fill="#F5F8FA" fill-opacity="0.8"/>
<rect x="76.9043" y="211.334" width="134.518" height="10.9069" rx="5.45343" fill="white"/>
<path d="M190.646 243.146C190.451 243.342 190.451 243.658 190.646 243.854L193.828 247.036C194.024 247.231 194.34 247.231 194.536 247.036C194.731 246.84 194.731 246.524 194.536 246.328L191.707 243.5L194.536 240.672C194.731 240.476 194.731 240.16 194.536 239.964C194.34 239.769 194.024 239.769 193.828 239.964L190.646 243.146ZM191 244H193.042V243H191V244ZM197.125 244H201.208V243H197.125V244ZM205.292 244H209.375V243H205.292V244ZM213.458 244H217.542V243H213.458V244ZM221.625 244H225.708V243H221.625V244ZM229.792 244H233.875V243H229.792V244ZM237.958 244H242.042V243H237.958V244ZM246.125 244H250.208V243H246.125V244ZM254.292 244H258.375V243H254.292V244ZM262.458 244H264.5V243H262.458V244Z" fill="white"/>
<path d="M232 90.5V243.5" stroke="white" stroke-dasharray="4 4"/>
<rect x="260" y="143" width="104" height="128" rx="8" fill="#EAEDF0"/>
<rect x="277" y="255" width="46.6215" height="10" rx="5" transform="rotate(-90 277 255)" fill="#D1D5D9"/>
<rect x="297" y="255" width="68.9998" height="10" rx="5" transform="rotate(-90 297 255)" fill="#D1D5D9"/>
<rect width="46.6215" height="10" rx="5" transform="matrix(4.37114e-08 -1 -1 -4.37114e-08 347 255)" fill="#D1D5D9"/>
<rect width="91" height="10" rx="5" transform="matrix(4.37114e-08 -1 -1 -4.37114e-08 327 255)" fill="#D1D5D9"/>
<rect x="196" y="24" width="176" height="80" fill="#EAEDF0"/>
<rect x="196" y="24" width="176" height="16" fill="#DFDFDF"/>
<path d="M240.5 56.5V71.5C240.5 75.9183 244.082 79.5 248.5 79.5H292" stroke="#D1D5D9"/>
<path d="M279 80H348" stroke="#D1D5D9"/>
<path d="M263 56H332" stroke="#D1D5D9"/>
<rect x="212" y="48" width="58" height="16" fill="#C80000"/>
<rect x="278" y="48" width="24" height="16" fill="#FF0000"/>
<rect x="331" y="72" width="25" height="16" fill="#FF0000"/>
<rect x="310" y="48" width="46" height="16" fill="#FF0000"/>
<rect x="278" y="72" width="45" height="16" fill="#FF0000"/>
<path d="M146 122H158V151V180H146V151V122Z" fill="#C80000"/>
<mask id="path-29-inside-1_6430:32354" fill="white">
<path fill-rule="evenodd" clip-rule="evenodd" d="M141 122H129L145 151L129 180H141L152 160.062L163 180H175L159 151L175 122H163L152 141.938L141 122Z"/>
</mask>
<path d="M129 122V121H127.306L128.124 122.483L129 122ZM141 122L141.876 121.517L141.59 121H141V122ZM145 151L145.876 151.483L146.142 151L145.876 150.517L145 151ZM129 180L128.124 179.517L127.306 181H129V180ZM141 180V181H141.59L141.876 180.483L141 180ZM152 160.062L152.876 159.579L152 157.992L151.124 159.579L152 160.062ZM163 180L162.124 180.483L162.41 181H163V180ZM175 180V181H176.694L175.876 179.517L175 180ZM159 151L158.124 150.517L157.858 151L158.124 151.483L159 151ZM175 122L175.876 122.483L176.694 121H175V122ZM163 122V121H162.41L162.124 121.517L163 122ZM152 141.938L151.124 142.421L152 144.008L152.876 142.421L152 141.938ZM129 123H141V121H129V123ZM145.876 150.517L129.876 121.517L128.124 122.483L144.124 151.483L145.876 150.517ZM129.876 180.483L145.876 151.483L144.124 150.517L128.124 179.517L129.876 180.483ZM141 179H129V181H141V179ZM151.124 159.579L140.124 179.517L141.876 180.483L152.876 160.546L151.124 159.579ZM151.124 160.546L162.124 180.483L163.876 179.517L152.876 159.579L151.124 160.546ZM163 181H175V179H163V181ZM175.876 179.517L159.876 150.517L158.124 151.483L174.124 180.483L175.876 179.517ZM159.876 151.483L175.876 122.483L174.124 121.517L158.124 150.517L159.876 151.483ZM175 121H163V123H175V121ZM162.124 121.517L151.124 141.454L152.876 142.421L163.876 122.483L162.124 121.517ZM140.124 122.483L151.124 142.421L152.876 141.454L141.876 121.517L140.124 122.483Z" fill="white" mask="url(#path-29-inside-1_6430:32354)"/>
<path d="M78 122H90V161C90 162.857 90.7375 164.637 92.0503 165.95C93.363 167.262 95.1435 168 97 168C98.8565 168 100.637 167.262 101.95 165.95C103.263 164.637 104 162.857 104 161V122H116V161C116 163.495 115.509 165.966 114.554 168.271C113.599 170.576 112.199 172.671 110.435 174.435C108.671 176.199 106.576 177.599 104.271 178.554C101.966 179.509 99.4951 180 97 180C94.5049 180 92.0342 179.509 89.729 178.554C87.4238 177.599 85.3293 176.199 83.565 174.435C81.8007 172.671 80.4011 170.576 79.4463 168.271C78.4914 165.966 78 163.495 78 161V122Z" fill="#C80000"/>
<path d="M97 168C98.8565 168 100.637 167.262 101.95 165.95C103.263 164.637 104 162.857 104 161V122H116V161C116 163.495 115.509 165.966 114.554 168.271C113.599 170.576 112.199 172.671 110.435 174.435C108.671 176.199 106.576 177.599 104.271 178.554C101.966 179.509 99.4951 180 97 180" stroke="white"/>
</svg>
