<svg width="396" height="360" viewBox="0 0 396 360" fill="none" xmlns="http://www.w3.org/2000/svg">
<rect x="40" y="222" width="133" height="121" fill="#EAEDF0"/>
<rect x="24.5" y="206.5" width="132" height="120" stroke="#C80000" stroke-dasharray="4 4"/>
<rect x="350.484" y="65" width="229.953" height="294.485" rx="8" transform="rotate(90 350.484 65)" fill="#FF0000"/>
<path d="M342.484 65C346.903 65 350.484 68.5817 350.484 73L350.484 91.3582L55.9994 91.3582L55.9994 73C55.9994 68.5817 59.5811 65 63.9994 65L342.484 65Z" fill="#C80000"/>
<circle cx="71.4515" cy="77.7249" r="5.45343" fill="white"/>
<circle cx="89.6292" cy="77.7249" r="5.45343" fill="white"/>
<circle cx="107.807" cy="77.7249" r="5.45343" fill="white"/>
<rect x="77.8125" y="238.6" width="90.8904" height="10.9069" rx="5.45343" fill="#F5F8FA"/>
<rect x="77.8125" y="260.414" width="134.518" height="10.9069" rx="5.45343" fill="#F5F8FA" fill-opacity="0.8"/>
<rect x="317.045" y="49" width="190" height="105.045" rx="8" transform="rotate(90 317.045 49)" fill="#EAEDF0"/>
<rect x="223.5" y="200.5" width="82" height="27" rx="7.5" stroke="#FF0000" stroke-dasharray="4 4"/>
<rect x="255.049" y="61.0527" width="12.0544" height="2.29607" rx="1.14804" fill="#FF0000"/>
<circle cx="272.845" cy="62.2025" r="1.72205" fill="#FF0000"/>
<rect x="228" y="100" width="46.6215" height="10" rx="5" fill="#D1D5D9"/>
<rect x="228" y="120" width="68.9998" height="10" rx="5" fill="#D1D5D9"/>
<rect x="350.484" y="65" width="229.953" height="294.485" rx="8" transform="rotate(90 350.484 65)" fill="#FF0000"/>
<path d="M342.484 65C346.903 65 350.484 68.5817 350.484 73L350.484 91.3582L55.9994 91.3582L55.9994 73C55.9994 68.5817 59.5811 65 63.9994 65L342.484 65Z" fill="#C80000"/>
<circle cx="71.4515" cy="77.7249" r="5.45343" fill="white"/>
<circle cx="89.6292" cy="77.7249" r="5.45343" fill="white"/>
<circle cx="107.807" cy="77.7249" r="5.45343" fill="white"/>
<rect x="77.8125" y="238.6" width="90.8904" height="10.9069" rx="5.45343" fill="#F5F8FA"/>
<rect x="77.8125" y="260.414" width="134.518" height="10.9069" rx="5.45343" fill="#F5F8FA" fill-opacity="0.8"/>
<rect x="317.045" y="49" width="190" height="105.045" rx="8" transform="rotate(90 317.045 49)" fill="#EAEDF0"/>
<rect x="223.5" y="200.5" width="82" height="27" rx="7.5" stroke="#FF0000" stroke-dasharray="4 4"/>
<rect x="255.049" y="61.0527" width="12.0544" height="2.29607" rx="1.14804" fill="#FF0000"/>
<circle cx="272.845" cy="62.2025" r="1.72205" fill="#FF0000"/>
<rect x="228" y="100" width="46.6215" height="10" rx="5" fill="#D1D5D9"/>
<rect x="228" y="120" width="68.9998" height="10" rx="5" fill="#D1D5D9"/>
<rect x="104.5" y="115.5" width="58" height="98" stroke="white" stroke-dasharray="4 4"/>
<rect x="182.5" y="127.5" width="74" height="98" transform="rotate(90 182.5 127.5)" stroke="white" stroke-dasharray="4 4"/>
<path d="M255.851 183.306L265.28 146L272.149 147.694L262.72 185L255.851 183.306Z" fill="#FF0000"/>
<path d="M231 165.5L246.119 150.545L250.833 155.208L240.429 165.5L250.833 175.792L246.119 180.455L231 165.5Z" fill="#FF0000"/>
<path d="M277.167 155.208L281.881 150.545L297 165.5L281.881 180.455L277.167 175.792L287.571 165.5L277.167 155.208Z" fill="#FF0000"/>
</svg>
