<svg width="48" height="48" viewBox="0 0 48 48" fill="none" xmlns="http://www.w3.org/2000/svg">
<g clip-path="url(#clip0)">
<path d="M44.7999 32.127C44.6719 31.615 44.2879 31.103 43.6479 30.975L42.1119 30.719C41.8559 30.079 41.5999 29.311 41.2159 28.671L42.8799 26.495L40.7039 24.319C40.4479 24.063 40.1919 23.935 39.8079 23.935C39.5519 23.935 39.2959 24.063 39.0399 24.191L37.7599 25.087C37.1199 24.703 36.3519 24.447 35.7119 24.191L35.4559 22.527C35.3279 21.887 34.8159 21.375 34.1759 21.375H32.2559C31.6159 21.375 30.9759 21.887 30.9759 22.527L30.8479 24.319C30.2079 24.575 29.4399 24.831 28.7999 25.215L27.5199 24.319C27.2639 24.191 27.0079 24.063 26.7519 24.063C26.3679 24.063 26.1119 24.191 25.8559 24.447L24.4479 25.855C24.0639 26.239 23.9359 27.007 24.3199 27.519L25.2159 28.799C24.8319 29.439 24.5759 30.207 24.3199 30.847L22.6559 31.103C22.0159 31.231 21.5039 31.743 21.5039 32.383V34.303C21.5039 34.943 22.0159 35.583 22.6559 35.583L24.1919 35.711C24.4479 36.351 24.7039 37.119 25.0879 37.759L24.1919 39.039C23.8079 39.551 23.8079 40.319 24.3199 40.703L25.7279 42.111C25.9839 42.367 26.2399 42.495 26.6239 42.495C26.8799 42.495 27.1359 42.367 27.3919 42.239L28.6719 41.343C29.3119 41.727 30.0799 41.983 30.7199 42.239L30.9759 43.903C31.1039 44.543 31.6159 45.055 32.2559 45.055H34.1759C34.8159 45.055 35.4559 44.543 35.4559 43.903L35.5839 42.367C36.2239 42.111 36.9919 41.855 37.6319 41.471L38.9119 42.367C39.1679 42.623 39.4239 42.623 39.8079 42.623C40.1919 42.623 40.4479 42.495 40.7039 42.239L42.1119 40.831C42.4959 40.447 42.6239 39.679 42.2399 39.167L41.3439 37.887C41.7279 37.247 41.9839 36.479 42.2399 35.839L43.9039 35.583C44.5439 35.455 45.0559 34.943 45.0559 34.303L44.7999 32.127ZM42.4959 33.535L41.2159 33.663C40.7039 33.791 40.3199 34.175 40.1919 34.687C39.9359 35.455 39.6799 36.351 39.1679 37.119C38.9119 37.631 38.9119 38.143 39.2959 38.655L40.1919 39.807L39.6799 40.191L38.3999 39.295C38.1439 39.167 37.8879 39.039 37.6319 39.039C37.3759 39.039 37.1199 39.039 36.9919 39.167C36.0959 39.679 35.4559 40.063 34.5599 40.191C33.9199 40.319 33.6639 40.831 33.5359 41.215L33.4079 42.623H32.8959L32.7679 41.215C32.6399 40.703 32.2559 40.319 31.7439 40.191C30.7199 39.935 30.0799 39.679 29.3119 39.167C29.0559 39.039 28.7999 38.911 28.6719 38.911C28.4159 38.911 28.1599 39.039 27.9039 39.167L26.7519 40.063L26.1119 39.679L27.1359 38.399L27.6479 37.759L27.2639 37.119C26.6239 36.223 26.3679 35.455 26.2399 34.687C26.1119 34.047 25.5999 33.791 25.2159 33.663L23.5519 33.535V32.895L25.0879 32.767C25.5999 32.639 25.9839 32.255 26.1119 31.743C26.3679 30.975 26.6239 30.079 27.1359 29.311C27.3919 28.799 27.3919 28.287 27.0079 27.775L26.1119 26.623L26.4959 26.239L27.6479 27.135L28.1599 27.519H28.7999L29.0559 27.391C29.9519 26.751 30.7199 26.495 31.6159 26.367C32.2559 26.239 32.5119 25.727 32.6399 25.343L32.7679 23.935H33.4079L33.5359 25.471C33.6639 25.983 34.0479 26.367 34.5599 26.495C35.5839 26.751 36.2239 27.007 36.9919 27.519C37.2479 27.647 37.5039 27.775 37.6319 27.775C37.8879 27.775 38.1439 27.647 38.3999 27.519L39.5519 26.623L39.9359 27.007L39.0399 28.159C38.6559 28.543 38.6559 29.183 38.9119 29.695C39.4239 30.591 39.8079 31.231 39.9359 32.127C40.0639 32.767 40.5759 33.023 40.9599 33.151L42.3679 33.279V33.535H42.4959Z" fill="#ED1C24"/>
<path d="M33.152 18.304C32.896 18.304 32.512 18.304 32.256 18.304C32.128 18.304 32 18.304 31.872 18.304C32 17.536 32 16.768 32 16C32.128 7.168 24.96 0 16.128 0C7.168 0 0 7.168 0 16.128C0 24.96 7.168 32.256 16 32.256C16.768 32.256 17.664 32.256 18.432 32.128C18.432 32.512 18.432 33.024 18.432 33.408C18.432 41.6 25.088 48.256 33.28 48.256C41.472 48.128 48.128 41.472 48.128 33.408C48 24.96 41.344 18.304 33.152 18.304ZM16 30.08C8.32 30.08 2.048 23.808 2.048 16.128C2.048 8.32 8.32 2.048 16 2.048C23.68 2.048 29.952 8.32 29.952 16.128C29.952 17.024 29.824 17.92 29.696 18.816C27.904 19.2 26.24 19.968 24.576 21.12C24.96 20.352 25.344 19.584 25.472 18.816C26.112 18.688 26.88 18.56 27.264 18.56C27.904 18.432 28.416 17.92 28.416 17.28V15.232C28.416 14.592 27.904 14.08 27.264 13.952L25.6 13.44C25.344 12.672 25.088 11.904 24.576 11.136L26.368 8.832L24.192 6.4C23.936 6.144 23.68 6.016 23.296 6.016C23.04 6.016 22.784 6.144 22.528 6.272L20.992 7.424C20.224 7.04 19.456 6.656 18.56 6.4L18.304 4.608C18.176 3.968 17.664 3.584 17.024 3.584H14.848C14.208 3.584 13.696 4.096 13.568 4.736L13.312 6.528C12.544 6.784 11.776 7.04 11.008 7.424C10.624 7.168 9.856 6.656 9.6 6.4C9.344 6.144 9.088 6.144 8.832 6.144C8.448 6.144 8.192 6.272 7.936 6.528L6.4 7.936C6.016 8.448 5.888 9.088 6.272 9.6L7.424 11.008C6.912 11.904 6.656 12.672 6.4 13.44C6.016 13.568 5.504 13.568 5.12 13.696C4.864 13.696 4.736 13.696 4.48 13.824C3.84 13.952 3.328 14.464 3.328 15.104V17.152C3.328 17.792 3.84 18.304 4.48 18.432L6.4 18.688C6.656 19.456 6.912 20.224 7.424 21.12C7.04 21.632 6.528 22.272 6.272 22.528C5.888 23.04 5.888 23.808 6.4 24.192L7.808 25.6C8.064 25.856 8.32 25.984 8.704 25.984C8.96 25.984 9.216 25.856 9.472 25.728L11.008 24.576C11.776 24.96 12.544 25.344 13.44 25.6L13.696 27.392C13.824 28.032 14.336 28.544 14.976 28.544H17.152C17.792 28.544 18.304 28.032 18.432 27.392L18.688 25.6C19.584 25.344 20.352 25.088 20.992 24.704C19.968 26.24 19.072 28.032 18.688 29.824C17.92 29.952 17.024 30.08 16 30.08ZM22.784 21.888L23.168 22.4C22.912 22.528 22.656 22.784 22.4 23.04L21.888 22.656C21.632 22.528 21.376 22.4 21.12 22.4C20.864 22.4 20.608 22.528 20.48 22.656C19.712 23.168 18.816 23.552 17.92 23.808C17.408 23.936 17.024 24.32 16.896 24.96L16.64 26.624H15.744L15.36 24.832C15.232 24.192 14.848 23.808 14.336 23.68C13.312 23.424 12.416 23.04 11.648 22.528C11.392 22.4 11.136 22.272 11.008 22.272C10.752 22.272 10.496 22.4 10.24 22.528L8.832 23.552L8.32 23.04C8.448 22.784 8.704 22.528 8.96 22.272C9.088 22.144 9.344 21.76 9.472 21.76L10.112 20.992L9.472 20.48C8.96 19.712 8.576 18.944 8.32 17.792C8.192 17.28 7.808 16.896 7.168 16.768L5.504 16.512V15.616C5.632 15.616 5.888 15.616 6.016 15.488C6.272 15.488 6.528 15.36 6.784 15.36H7.168C7.68 15.232 8.064 14.976 8.32 14.336C8.576 13.312 8.96 12.416 9.472 11.648C9.728 11.264 9.6 10.624 9.344 10.24L8.32 8.96L8.832 8.448L9.216 8.704C9.728 9.088 10.24 9.472 10.368 9.472L11.136 9.856L11.648 9.344C12.416 8.832 13.312 8.448 14.464 8.192C14.976 8.064 15.36 7.68 15.488 7.04L15.616 5.376H16.512L16.768 7.04C16.896 7.552 17.152 7.936 17.792 8.192C18.816 8.448 19.712 8.832 20.48 9.344C20.736 9.472 20.864 9.6 21.12 9.6C21.376 9.6 21.632 9.472 21.888 9.344L23.296 8.32L23.808 8.96L22.784 10.368C22.528 10.88 22.528 11.392 22.784 11.776C23.296 12.544 23.68 13.44 23.936 14.336C24.064 14.848 24.448 15.232 25.088 15.36L26.752 15.616V16.512C26.112 16.64 25.344 16.768 25.088 16.768C24.576 16.896 24.192 17.152 23.936 17.792C23.68 18.816 23.424 19.584 22.784 20.48C22.4 20.864 22.4 21.504 22.784 21.888ZM33.152 45.952C26.112 45.952 20.352 40.192 20.352 33.152C20.352 26.112 26.112 20.352 33.152 20.352C40.192 20.352 45.952 26.112 45.952 33.152C45.952 40.192 40.192 45.952 33.152 45.952Z" fill="#ED1C24"/>
<path d="M32.1285 6.2722L35.7125 9.6002C35.8405 9.7282 36.0965 9.8562 36.3525 9.8562C36.6085 9.8562 36.8645 9.7282 37.1205 9.4722C37.3765 9.2162 37.3765 8.9602 37.3765 8.7042C37.3765 8.4482 37.2485 8.1922 36.9925 8.0642L35.3285 6.5282H43.5205V18.5602C43.5205 19.2002 43.9045 19.5842 44.5445 19.5842C45.1845 19.5842 45.5685 19.2002 45.5685 18.5602V5.5042C45.5685 4.8642 45.1845 4.4802 44.5445 4.4802H35.4565L36.9925 3.0722C37.3765 2.6882 37.3765 2.0482 37.1205 1.6642C36.8645 1.4082 36.6085 1.4082 36.3525 1.4082C36.0965 1.4082 35.8405 1.5362 35.7125 1.6642L32.1285 4.8642C31.8725 5.1202 31.8725 5.2482 31.8725 5.6322C31.7445 5.8882 31.8725 6.1442 32.1285 6.2722Z" fill="#ED1C24"/>
<path d="M17.5368 41.8559L13.9528 38.5279C13.8248 38.3999 13.5688 38.2719 13.3128 38.2719C13.0568 38.2719 12.8008 38.3999 12.5448 38.6559C12.2888 38.9119 12.2888 39.1679 12.2888 39.4239C12.2888 39.6799 12.4168 39.9359 12.6728 40.0639L14.3368 41.5999H6.01675V33.2799C6.01675 32.6399 5.63275 32.2559 4.99275 32.2559C4.35275 32.2559 3.96875 32.6399 3.96875 33.2799V42.6239C3.96875 43.2639 4.35275 43.6479 4.99275 43.6479H14.2088L12.6728 45.0559C12.2888 45.4399 12.2888 46.0799 12.5448 46.4639C12.8008 46.7199 13.0568 46.7199 13.3128 46.7199C13.5688 46.7199 13.8248 46.5919 13.9528 46.4639L17.5368 43.2639C17.7928 43.0079 17.9208 42.4959 17.7928 42.3679C17.7928 42.2399 17.6648 41.9839 17.5368 41.8559Z" fill="#ED1C24"/>
<path d="M33.2809 28.416C30.5929 28.416 28.5449 30.464 28.5449 33.152C28.5449 35.712 30.7209 37.888 33.2809 37.888C35.9689 37.888 38.0169 35.712 38.0169 33.152C38.0169 30.592 35.9689 28.416 33.2809 28.416ZM36.2249 33.152C36.2249 34.688 34.9449 36.096 33.2809 36.096C31.6169 36.096 30.3369 34.816 30.3369 33.152C30.3369 31.488 31.6169 30.208 33.2809 30.208C34.9449 30.208 36.2249 31.616 36.2249 33.152Z" fill="#ED1C24"/>
<path d="M16.0004 10.1113C12.6724 10.1113 9.98438 12.6713 9.98438 15.9993C9.98438 19.3273 12.6724 21.8873 16.0004 21.8873C19.3284 21.8873 22.0164 19.1993 22.0164 15.9993C22.0164 12.7993 19.3284 10.1113 16.0004 10.1113ZM20.2244 15.9993C20.2244 18.3033 18.3044 20.0953 16.0004 20.0953C13.6964 20.0953 11.7764 18.3033 11.7764 15.9993C11.7764 13.6953 13.5684 11.9033 16.0004 11.9033C18.3044 11.9033 20.2244 13.8233 20.2244 15.9993Z" fill="#ED1C24"/>
</g>
<defs>
<clipPath id="clip0">
<rect width="48" height="48" fill="white"/>
</clipPath>
</defs>
</svg>
