<svg width="43" height="68" viewBox="0 0 43 68" fill="none" xmlns="http://www.w3.org/2000/svg">
<path d="M23.4545 42.0952C34.2045 41.1238 43 32.0571 43 21.0476C43 9.39048 33.553 0 21.8258 0C10.0985 0 0.651515 9.39048 0.651515 21.0476C0.651515 32.0571 9.12121 41.1238 20.197 42.0952V58.2857L17.5909 55.6952C19.2197 53.1048 18.8939 49.5429 16.6136 46.9524C14.3333 44.3619 4.56061 41.1238 2.60606 40.4762C1.95455 40.1524 1.30303 40.4762 0.977273 40.8C0 41.1238 0 41.7714 0 42.419C0.325758 44.3619 2.93182 54.4 5.21212 56.9905C6.84091 58.6095 8.79545 59.2571 10.75 59.2571C12.053 59.2571 13.6818 58.9333 14.6591 57.9619L19.8712 63.1429V66.381C19.8712 67.3524 20.5227 68 21.5 68C22.4773 68 23.1288 67.3524 23.1288 66.381V42.0952H23.4545ZM14.6591 52.781L10.75 48.8952C10.0985 48.2476 8.79545 48.2476 8.14394 48.8952C7.49242 49.5429 7.49242 50.8381 8.14394 51.4857L12.053 55.3714C10.75 56.019 8.79545 55.6952 7.81818 54.4C6.84091 53.4286 5.21212 48.8952 4.23485 44.6857C8.14394 46.3048 12.7045 47.9238 13.6818 49.219C14.6591 50.1905 14.9848 51.8095 14.6591 52.781ZM21.8258 38.5333C12.053 38.5333 4.23485 30.7619 4.23485 21.0476C4.23485 11.3333 12.053 3.5619 21.8258 3.5619C31.5985 3.5619 39.4167 11.3333 39.4167 21.0476C39.4167 30.7619 31.2727 38.5333 21.8258 38.5333Z" fill="#ED1C24"/>
<path d="M23.4522 14.8943C25.4067 14.8943 27.0355 15.542 28.6643 17.161L30.9446 14.8943C29.3158 12.9515 26.7098 11.6562 23.4522 11.6562C18.5658 11.6562 14.6567 14.5705 13.6794 18.7801H10.4219V20.7229H13.0279C13.0279 21.0467 13.0279 21.3705 13.0279 21.6943C13.0279 22.0182 13.0279 22.342 13.0279 22.6658H10.4219V24.6086H13.6794C14.9825 28.8182 18.5658 31.7324 23.4522 31.7324C26.7098 31.7324 29.3158 30.761 30.9446 28.4943L28.6643 25.9039C27.3613 27.5229 25.4067 28.1705 23.4522 28.1705C20.5204 28.1705 18.2401 26.5515 17.2628 24.2848H25.081V22.342H16.6113C16.6113 22.0182 16.6113 21.6943 16.6113 21.3705C16.6113 21.0467 16.6113 20.7229 16.6113 20.3991H25.081V18.7801H17.2628C18.2401 16.1896 20.5204 14.8943 23.4522 14.8943Z" fill="#ED1C24"/>
</svg>
