<svg width="62" height="39" viewBox="0 0 62 39" fill="none" xmlns="http://www.w3.org/2000/svg">
<g clip-path="url(#clip0)">
<path d="M61.5491 24.5714C61.0982 23.2188 60.4218 22.0917 59.7455 21.1899C58.6182 20.0628 57.7164 19.161 56.3636 18.4847C55.2364 17.8084 53.8836 17.3576 52.5309 17.3576C52.5309 17.1321 52.5309 16.9067 52.5309 16.9067C52.5309 7.66392 45.0909 0.224609 35.8473 0.224609C29.76 0.224609 24.1236 3.60611 21.1927 8.79108C19.6145 7.21305 17.8109 6.53675 15.7818 6.53675C11.2727 6.53675 7.44 10.1437 7.44 14.8778C7.44 15.3287 7.44 16.005 7.66545 16.4558C6.76364 16.6813 5.86182 17.1321 5.18545 17.583C4.05818 18.2593 2.93091 19.3865 2.02909 20.5136C1.35273 21.4154 0.901818 22.0917 0.676364 23.2188C0.225455 24.1206 0 25.2477 0 26.1495C0 27.2766 0 28.4038 0.225455 29.531C0.450909 30.6581 0.901818 31.7853 1.57818 32.9125C2.25455 34.2651 3.15636 35.1668 4.28364 36.294C4.96 36.7448 5.63636 37.1957 6.31273 37.6466C6.98909 38.0974 7.66545 38.3229 8.34182 38.5483H8.56727C9.24364 38.7737 9.92 38.7737 10.5964 38.7737H35.8473C40.8073 38.7737 45.7673 38.7737 50.7273 38.7737C51.6291 38.7737 52.7564 38.7737 53.8836 38.3229C55.0109 38.0974 56.1382 37.4211 57.2655 36.7448C57.9418 36.294 58.6182 35.6177 59.2945 34.7159C59.9709 34.0396 60.4218 33.1379 60.8727 32.2362C61.3236 31.109 61.5491 29.9818 61.7745 29.0801C62 28.1784 62 26.3749 61.5491 24.5714ZM27.0545 35.8431C21.6436 35.8431 16.0073 35.8431 10.5964 35.8431C10.1455 35.8431 9.69455 35.8431 9.24364 35.6177H9.01818C8.56727 35.6177 8.11636 35.3922 7.66545 35.1668C7.21455 34.9414 6.76364 34.4905 6.31273 34.2651C5.41091 33.5888 4.96 32.9125 4.50909 32.0107C4.05818 31.109 3.60727 30.2073 3.38182 29.3055C3.15636 28.4038 3.15636 27.7275 3.15636 26.8258C3.15636 26.1495 3.38182 25.2477 3.60727 24.5714C3.83273 23.8951 4.28364 23.2188 4.73455 22.5425C5.41091 21.6408 6.08727 20.9645 6.98909 20.2882C7.44 20.0628 8.11636 19.6119 8.56727 19.3865C9.01818 19.3865 9.24364 19.161 9.69455 19.161C9.92 19.161 10.1455 19.161 10.3709 18.9356L11.7236 18.2593L11.0473 16.9067C10.8218 16.2304 10.5964 15.5541 10.5964 14.8778C10.5964 11.9472 12.8509 9.69282 15.7818 9.69282C17.5855 9.69282 19.3891 10.5946 20.2909 12.1726L21.8691 14.8778L23.2218 11.2709C23.4473 11.0454 23.4473 10.82 23.6727 10.3691C25.9273 5.86045 30.6618 2.92981 35.8473 2.92981C43.2873 2.92981 49.3745 9.01652 49.3745 16.4558C49.3745 17.1321 49.3745 17.583 49.1491 18.2593L48.9236 19.8373L50.5018 20.2882C50.5018 20.2882 50.7273 20.2882 50.9527 20.2882H51.1782C51.4036 20.2882 51.8545 20.2882 52.08 20.2882C52.9818 20.5136 54.1091 20.7391 54.7855 21.1899C55.6873 21.6408 56.3636 22.3171 57.2655 23.2188C57.7164 23.8951 58.1673 24.7969 58.6182 25.6986C58.8436 26.6003 59.0691 27.7275 58.8436 29.0801C58.8436 29.7564 58.6182 30.4327 58.1673 31.3344C57.9418 32.0107 57.4909 32.687 57.04 33.1379C56.5891 33.8142 56.1382 34.2651 55.6873 34.4905C54.7855 34.9414 54.1091 35.3922 53.2073 35.6177C52.3055 35.8431 51.6291 35.8431 50.7273 35.8431C47.3455 35.8431 43.9636 35.8431 40.3564 35.8431H27.0545Z" fill="#ED1C24"/>
</g>
<defs>
<clipPath id="clip0">
<rect width="62" height="39" fill="white"/>
</clipPath>
</defs>
</svg>
