<svg width="62" height="42" viewBox="0 0 62 42" fill="none" xmlns="http://www.w3.org/2000/svg">
<g clip-path="url(#clip0)">
<path d="M43.0682 6.68182L41.6484 8.11364V7.15909C41.6484 3.34091 38.5721 0.238636 34.7858 0C30.9995 0 27.9232 3.10227 27.6866 6.92046C27.6866 8.35227 28.1598 9.78409 28.8698 10.9773C23.427 12.1705 18.9308 16.9432 18.4576 22.9091L15.3812 19.5682C14.6713 19.0909 13.9614 19.0909 13.2514 19.5682C12.7782 20.0455 12.7782 21 13.2514 21.7159L18.9308 27.4432C19.1675 27.6818 19.6408 27.9205 19.8774 27.9205C20.3507 27.9205 20.5873 27.6818 20.824 27.4432L26.5034 21.7159C26.9766 21.2386 26.9766 20.2841 26.5034 19.5682C26.0301 19.0909 25.0835 19.0909 24.3736 19.5682L21.2972 23.1477C21.7705 17.4205 26.74 13.3636 32.1827 13.8409C37.6255 14.3182 41.885 19.3295 41.4117 24.8182C40.9385 30.0682 36.6789 34.125 31.2362 34.125H22.9537C22.2438 34.125 21.5339 34.8409 21.5339 35.5568C21.5339 36.2727 22.2438 36.9886 22.9537 36.9886H40.4652C41.1751 36.9886 41.885 36.2727 41.885 35.5568C41.885 34.8409 41.1751 34.125 40.4652 34.125H39.5186C45.198 29.5909 46.1446 21.4773 41.6484 15.75C39.7553 13.3636 37.1522 11.6932 34.3125 11.2159C32.1827 10.7386 30.7629 8.59091 31.2362 6.20455C31.7095 4.05682 33.8392 2.625 36.2056 3.10227C38.0988 3.57955 39.5186 5.25 39.5186 7.15909V8.11364L38.3354 6.68182C37.8621 6.20455 36.9156 5.96591 36.4423 6.68182C35.969 7.15909 35.7324 8.11364 36.4423 8.59091L40.2285 12.4091C40.4652 12.6477 40.9385 12.8864 41.1751 12.8864C41.6484 12.8864 41.885 12.6477 42.1217 12.4091L45.9079 8.59091C46.3812 8.11364 46.3812 7.15909 45.9079 6.44318C44.7247 5.96591 43.7782 5.96591 43.0682 6.68182Z" fill="#FF0000"/>
<path d="M8.0458 25.5332C3.54962 25.5332 0 29.1127 0 33.6468C0 38.1809 3.54962 41.7605 8.0458 41.7605C12.542 41.7605 16.0916 38.1809 16.0916 33.6468C16.0916 29.3514 12.542 25.5332 8.0458 25.5332ZM8.0458 39.1355C5.20611 39.1355 2.83969 36.7491 2.83969 33.8855C2.83969 31.0218 5.20611 28.6355 8.0458 28.6355C10.8855 28.6355 13.2519 31.0218 13.2519 33.8855C13.2519 36.7491 10.8855 39.1355 8.0458 39.1355Z" fill="#FF0000"/>
<path d="M53.954 25.5332C49.4578 25.5332 45.9082 29.1127 45.9082 33.6468C45.9082 38.1809 49.4578 41.7605 53.954 41.7605C58.4502 41.7605 61.9998 38.1809 61.9998 33.6468C61.9998 29.3514 58.2135 25.5332 53.954 25.5332ZM53.954 39.1355C51.1143 39.1355 48.7479 36.7491 48.7479 33.8855C48.7479 31.0218 51.1143 28.6355 53.954 28.6355C56.7937 28.6355 59.1601 31.0218 59.1601 33.8855C59.1601 36.7491 56.7937 39.1355 53.954 39.1355Z" fill="#FF0000"/>
<path d="M55.6108 31.0221L52.5345 33.6471L52.0612 33.1698C51.5879 32.4539 50.6413 32.4539 50.1681 32.9312C49.4581 33.4085 49.4581 34.363 49.9314 34.8403L51.1146 36.5107C51.3513 36.7494 51.5879 36.988 52.0612 36.988H52.2978C52.5345 36.988 53.0077 36.988 53.2444 36.7494L57.5039 33.1698C58.2138 32.6926 58.2139 31.738 57.7406 31.2607C57.2673 30.5448 56.3207 30.3062 55.6108 31.0221Z" fill="#FF0000"/>
</g>
<defs>
<clipPath id="clip0">
<rect width="62" height="42" fill="white"/>
</clipPath>
</defs>
</svg>
