<svg width="46" height="30" viewBox="0 0 46 30" fill="none" xmlns="http://www.w3.org/2000/svg">
<g clip-path="url(#clip0)">
<path d="M9.23667 18.7041C12.3772 18.7041 14.9636 16.1115 14.9636 12.9634C14.9636 9.81525 12.3772 7.22266 9.23667 7.22266C6.09611 7.22266 3.50977 9.63006 3.50977 12.9634C3.50977 16.1115 6.09611 18.7041 9.23667 18.7041ZM9.23667 10.1856C10.7146 10.1856 12.0078 11.4819 12.0078 12.9634C12.0078 14.4449 10.7146 15.556 9.23667 15.556C7.75876 15.556 6.65033 14.4449 6.65033 12.9634C6.65033 11.4819 7.75876 10.1856 9.23667 10.1856Z" fill="#FF0000"/>
<path d="M36.764 18.7041C39.9046 18.7041 42.4909 16.1115 42.4909 12.9634C42.4909 9.81525 39.9046 7.22266 36.764 7.22266C33.6235 7.22266 31.0371 9.81525 31.0371 12.9634C31.0371 16.1115 33.6235 18.7041 36.764 18.7041ZM36.764 10.1856C38.2419 10.1856 39.5351 11.4819 39.5351 12.9634C39.5351 14.4449 38.2419 15.7412 36.764 15.7412C35.2861 15.7412 33.9929 14.4449 33.9929 12.9634C33.9929 11.4819 35.2861 10.1856 36.764 10.1856Z" fill="#FF0000"/>
<path d="M22.9085 11.4815C26.0491 11.4815 28.6355 8.88889 28.6355 5.74074C28.6355 2.59259 26.0491 0 22.9085 0C19.768 0 17.1816 2.59259 17.1816 5.74074C17.1816 8.88889 19.768 11.4815 22.9085 11.4815ZM22.9085 2.96296C24.3865 2.96296 25.6796 4.25926 25.6796 5.74074C25.6796 7.22222 24.3865 8.51852 22.9085 8.51852C21.4306 8.51852 20.3222 7.22222 20.3222 5.74074C20.3222 4.25926 21.4306 2.96296 22.9085 2.96296Z" fill="#FF0000"/>
<path d="M36.763 19.4444C35.1004 19.4444 33.4377 19.9999 32.1446 20.7407C31.0361 16.2962 27.3414 12.9629 22.9076 12.9629C18.4739 12.9629 14.9639 16.2962 13.8554 20.7407C12.5622 19.9999 11.0843 19.4444 9.23695 19.4444C4.249 19.4444 0.184739 23.3333 0 28.3333C0 29.2592 0.554217 29.8147 1.47791 29.9999C2.40161 29.9999 2.95582 29.4444 3.14056 28.5184C3.3253 25.1851 6.09639 22.5925 9.42169 22.5925C12.747 22.5925 15.5181 25.1851 15.7028 28.5184C15.7028 28.7036 15.7028 28.7036 15.7028 28.8888V29.074C15.7028 29.2592 15.8876 29.2592 15.8876 29.4444C15.8876 29.4444 15.8875 29.6296 16.0723 29.6296C16.0723 29.6296 16.257 29.8147 16.4418 29.8147C16.4418 29.8147 16.6265 29.8147 16.6265 29.9999C16.8112 29.9999 16.996 30.1851 17.1807 30.1851H24.5703H29.004H29.1888C29.3735 30.1851 29.3735 30.1851 29.5582 30.1851C29.5582 30.1851 29.743 30.1851 29.743 29.9999C29.9277 29.9999 29.9277 29.8147 29.9277 29.8147L30.1124 29.6296L30.2972 29.4444C30.2972 29.4444 30.2972 29.2592 30.2972 29.074V28.8888C30.4819 25.5555 33.253 22.9629 36.5783 22.9629C39.9036 22.9629 42.6747 25.5555 42.8594 28.8888C42.8594 29.6296 43.5984 30.3703 44.3373 30.3703C45.261 30.3703 45.8153 29.6296 45.8153 28.7036C45.8153 23.3333 41.751 19.4444 36.763 19.4444ZM27.5261 26.8518H18.2892C17.9197 25.5555 17.3655 24.2592 16.6265 23.1481V22.9629C16.8112 19.2592 19.5823 16.2962 22.9076 16.2962C26.2329 16.2962 29.004 19.2592 29.1888 22.9629V23.1481C28.4498 24.2592 27.8956 25.5555 27.5261 26.8518Z" fill="#FF0000"/>
</g>
<defs>
<clipPath id="clip0">
<rect width="46" height="30" fill="white"/>
</clipPath>
</defs>
</svg>
