<svg width="40" height="40" viewBox="0 0 40 40" fill="none" xmlns="http://www.w3.org/2000/svg">
<g clip-path="url(#clip0)">
<path d="M39.9996 2.03335C39.7737 0.677418 38.4177 -0.226536 37.0618 -0.000547501C29.8302 1.58137 23.7285 3.61527 19.2087 6.77911C18.7567 6.77911 18.5307 6.55312 18.5307 6.77911L4.74541 8.13504C4.29343 8.13504 3.84145 8.58702 3.84145 9.039L2.9375 14.4627C2.9375 14.9147 3.16349 15.3667 3.61547 15.5927L8.58722 17.1746C7.68326 19.2085 6.77931 21.2424 6.10134 23.2763C5.87535 24.4062 6.10134 25.5362 7.0053 26.4401L13.559 32.9938C14.2369 33.8978 15.5929 34.1237 16.7228 33.8978C18.7567 33.2198 20.7906 32.3158 22.8245 31.1859L24.4064 36.1576C24.6324 36.6096 25.0844 37.0616 25.5364 36.8356L30.9601 36.1576C31.4121 36.1576 31.8641 35.7057 31.8641 35.2537L33.446 21.4684C33.446 21.2424 33.446 21.0164 33.446 20.7904C36.3838 16.0446 38.6437 10.1689 40.2256 2.93731C39.9996 2.71132 39.9996 2.48533 39.9996 2.03335ZM5.19739 13.7848L5.64936 10.1689L15.8189 9.039C15.1409 9.71697 14.6889 10.1689 14.0109 10.6209C12.429 12.2028 11.0731 13.7848 9.94315 15.3667L5.19739 13.7848ZM16.0448 31.8639C15.5929 31.8639 15.3669 31.8639 14.9149 31.6379L8.36123 25.0842C8.13524 24.8582 7.90925 24.4062 8.13524 23.9543C8.81321 21.9204 9.49117 20.1124 10.8471 18.3045L21.9205 29.378C19.8866 30.2819 18.0787 31.1859 16.0448 31.8639ZM29.8302 34.1237L26.2143 34.5757L24.6324 29.83C26.2143 28.7 27.7963 27.3441 29.3782 25.7622C29.8302 25.3102 30.5081 24.6322 30.9601 23.9543L29.8302 34.1237ZM27.7963 24.4062C26.4403 25.7622 25.0844 26.8921 23.7285 28.022L11.977 16.2706C13.107 14.9147 14.2369 13.5588 15.5929 12.2028C18.5307 9.26499 22.5985 6.77911 27.7963 4.74521L35.2539 12.2028C33.22 17.4006 30.7341 21.4684 27.7963 24.4062ZM37.7398 2.71132C37.2878 5.42318 36.6098 7.68307 35.9318 9.94295L30.0561 4.06725C32.316 3.38928 34.8019 2.71132 37.2878 2.25934C37.5138 2.03335 37.7398 2.25934 37.7398 2.71132C37.7398 2.71132 37.7398 2.48533 37.7398 2.71132Z" fill="#FF0000"/>
<path d="M7.90943 32.089C7.45745 31.637 6.77948 31.637 6.32751 32.089L1.80773 36.6088C1.35576 37.0607 1.35576 37.7387 1.80773 38.1907C2.25971 38.6427 2.93768 38.6427 3.38965 38.1907L7.90943 33.6709C8.3614 33.2189 8.3614 32.541 7.90943 32.089Z" fill="#FF0000"/>
<path d="M4.97204 30.5088C5.42402 30.0568 5.42402 29.3789 4.97204 28.9269C4.52006 28.4749 3.84209 28.4749 3.39012 28.9269L0.452264 31.8647C0.00028692 32.3167 0.00028692 32.9947 0.452264 33.4467C0.904242 33.8986 1.58221 33.8986 2.03418 33.4467L4.97204 30.5088Z" fill="#FF0000"/>
<path d="M9.49168 35.0284L6.55383 37.9663C6.10185 38.4183 6.10185 39.0962 6.55383 39.5482C7.0058 40.0002 7.68377 40.0002 8.13575 39.5482L11.0736 36.6104C11.2996 36.1584 11.2996 35.4804 10.8476 35.0284C10.6216 34.5765 9.94366 34.5765 9.49168 35.0284Z" fill="#FF0000"/>
<path d="M21.6953 10.8453C19.6614 12.8792 19.6614 16.269 21.6953 18.5289C23.7292 20.5628 27.1191 20.5628 29.379 18.5289C31.4129 16.495 31.4129 13.1052 29.379 10.8453C27.1191 8.58542 23.7292 8.58542 21.6953 10.8453ZM27.5711 16.947C26.2151 18.3029 24.1812 18.3029 23.0513 16.947C21.6953 15.5911 21.6953 13.5572 23.0513 12.4272C24.4072 11.0713 26.4411 11.0713 27.5711 12.4272C28.927 13.5572 28.927 15.5911 27.5711 16.947Z" fill="#FF0000"/>
</g>
<defs>
<clipPath id="clip0">
<rect width="40" height="40" fill="white"/>
</clipPath>
</defs>
</svg>
