<svg width="40" height="46" viewBox="0 0 40 46" fill="none" xmlns="http://www.w3.org/2000/svg">
<g clip-path="url(#clip0)">
<path d="M12.7835 28.66H15.6701C16.4948 28.66 17.1134 28.0415 17.1134 27.2167C17.1134 26.392 16.4948 25.7734 15.6701 25.7734H12.7835C5.7732 25.7734 0 31.5466 0 38.5569V44.3301C0 45.1549 0.618557 45.7734 1.4433 45.7734H15.6701C16.4948 45.7734 17.1134 45.1549 17.1134 44.3301C17.1134 43.5054 16.4948 42.8868 15.6701 42.8868H2.8866V38.5569C2.8866 33.1961 7.42268 28.66 12.7835 28.66Z" fill="#FF0000"/>
<path d="M30.1031 25.7734C24.5361 25.7734 20 30.3095 20 35.8765C20 41.4435 24.5361 45.9796 30.1031 45.9796C35.6701 45.9796 40.2062 41.4435 40.2062 35.8765C40 30.3095 35.4639 25.7734 30.1031 25.7734ZM30.1031 42.8868C26.1856 42.8868 22.8866 39.5879 22.8866 35.6703C22.8866 31.7528 26.1856 28.4539 30.1031 28.4539C34.0206 28.4539 37.3196 31.7528 37.3196 35.6703C37.1134 39.7941 34.0206 42.8868 30.1031 42.8868Z" fill="#FF0000"/>
<path d="M35.2587 31.7522C34.6401 31.3399 33.8154 31.3399 33.1968 31.9584L28.4546 37.9378L26.8051 36.2883C26.1865 35.6698 25.3618 35.6698 24.7432 36.2883C24.1247 36.9069 24.1247 37.7316 24.7432 38.3502L27.6298 41.2368C27.836 41.443 28.2484 41.6492 28.6607 41.6492C29.0731 41.6492 29.4855 41.443 29.6917 41.0306L35.4649 33.8141C35.8772 33.1955 35.8772 32.3708 35.2587 31.7522Z" fill="#FF0000"/>
<path d="M24.7425 21.0309C24.9487 21.2371 25.3611 21.4433 25.7734 21.4433H31.5466C32.3714 21.4433 32.9899 20.8247 32.9899 20V13.6082C32.9899 6.18557 26.8044 0 19.3817 0C11.7528 0 5.77344 6.18557 5.77344 13.6082V20C5.77344 20.8247 6.39199 21.4433 7.21674 21.4433H12.9899C13.4023 21.4433 13.6085 21.2371 14.0209 21.0309C16.0827 22.4742 18.5569 23.0928 21.2374 22.6804C22.4745 22.4742 23.7116 21.8557 24.7425 21.0309ZM19.3817 2.8866C21.2374 2.8866 22.8868 3.29897 24.3301 4.12371C23.7116 5.36082 20.4126 11.3402 8.86622 11.5464C9.89715 6.59794 14.227 2.8866 19.3817 2.8866ZM8.66004 18.5567V14.2268C9.27859 14.2268 9.89715 14.2268 10.5157 14.2268C10.3095 14.433 10.1033 14.6392 10.1033 15.0515V15.2577C10.3095 16.4948 10.9281 17.5258 11.5466 18.5567H8.66004ZM18.1446 20C15.4642 19.3814 13.4023 17.3196 12.9899 14.8454C12.9899 14.6392 12.7837 14.2268 12.5776 14.0206C21.8559 12.7835 25.5673 7.83505 26.5982 5.7732C28.66 7.62887 29.8971 10.5155 29.8971 13.6082V18.5567H27.0106C27.6291 17.5258 28.0415 16.4948 28.4539 15.2577C28.66 14.433 28.0415 13.8144 27.2167 13.6082H27.0106C26.392 13.6082 25.7734 14.0206 25.5673 14.8454C24.9487 18.3505 21.6497 20.6186 18.1446 20Z" fill="#FF0000"/>
</g>
<defs>
<clipPath id="clip0">
<rect width="40" height="45.7732" fill="white"/>
</clipPath>
</defs>
</svg>
