<svg width="44" height="44" viewBox="0 0 44 44" fill="none" xmlns="http://www.w3.org/2000/svg">
<g clip-path="url(#clip0)">
<path d="M39.5779 17.4673C37.3668 17.4673 35.3769 19.2362 35.1558 21.2261H28.5226C28.3015 20.1206 28.0804 19.2362 27.4171 18.3518L32.2814 13.4874C32.9447 13.9296 33.608 14.1508 34.4925 14.1508C36.9246 14.1508 39.1357 12.1608 39.1357 9.50754C39.1357 7.07538 37.1457 4.86432 34.4925 4.86432C32.0603 4.86432 29.8492 6.85427 29.8492 9.50754C29.8492 10.392 30.0704 11.0553 30.5126 11.7186L25.6482 16.5829C24.9849 16.1407 24.3216 15.9196 23.4372 15.6985V8.84422C25.4271 8.40201 26.7538 6.63317 26.7538 4.42211C26.5327 1.98995 24.5427 0 22.1106 0C19.4573 0 17.4673 1.98995 17.4673 4.64322C17.4673 6.63317 18.794 8.40201 20.7839 9.06533V15.9196C19.8995 15.9196 19.2362 16.3618 18.5729 16.804L13.7085 11.9397C14.1508 11.2764 14.3719 10.6131 14.3719 9.72864C14.3719 7.29648 12.3819 5.08543 9.72864 5.08543C7.29648 5.08543 5.08543 7.07538 5.08543 9.72864C5.08543 12.1608 7.07538 14.3719 9.72864 14.3719C10.6131 14.3719 11.2764 14.1508 11.9397 13.7085L16.804 18.5729C16.1407 19.2362 15.9196 20.3417 15.6985 21.2261H9.06533C8.62312 19.0151 6.85427 17.4673 4.64322 17.4673C1.98995 17.4673 0 19.4573 0 21.8894C0 24.5427 1.98995 26.5327 4.64322 26.5327C6.85427 26.5327 8.84422 24.7638 9.06533 22.7739H15.6985C15.9196 23.8794 16.3618 25.206 17.0251 26.0905L12.3819 30.7337C11.7186 30.0704 10.6131 29.8492 9.72864 29.8492C7.29648 29.8492 5.08543 31.8392 5.08543 34.4925C5.08543 36.9246 7.07538 39.1357 9.72864 39.1357C12.1608 39.1357 14.3719 37.1457 14.3719 34.4925C14.3719 33.3869 13.9296 32.5025 13.4874 31.8392L18.1307 27.196C18.794 27.8593 19.8995 28.3015 20.7839 28.5226V35.3769C18.794 35.8191 17.4673 37.5879 17.4673 39.799C17.4673 42.2312 19.4573 44.4422 22.1106 44.4422C24.5427 44.4422 26.7538 42.4523 26.7538 39.799C26.7538 37.809 25.4271 36.0402 23.4372 35.3769V28.5226C24.3216 28.3015 25.4271 27.8593 26.0905 27.196L30.7337 31.8392C30.2915 32.5025 29.8492 33.608 29.8492 34.4925C29.8492 36.9246 31.8392 39.1357 34.4925 39.1357C36.9246 39.1357 39.1357 37.1457 39.1357 34.4925C39.1357 32.0603 37.1457 29.8492 34.4925 29.8492C33.3869 29.8492 32.5025 30.2915 31.8392 30.7337L27.196 26.0905C27.8593 25.206 28.5226 24.1005 28.5226 22.7739H35.1558C35.598 24.9849 37.3668 26.5327 39.5779 26.5327C42.01 26.5327 44.2211 24.5427 44.2211 21.8894C44 19.4573 42.01 17.4673 39.5779 17.4673ZM22.1106 25.8693C19.8995 25.8693 18.3518 24.1005 18.3518 22.1106C18.3518 21.2261 18.794 20.3417 19.2362 19.6784H19.4573C19.4573 19.6784 19.4573 19.4573 19.6784 19.4573C20.1206 18.5729 21.005 18.1307 22.1106 18.1307C24.3216 18.1307 25.8693 19.8995 25.8693 21.8894C25.8693 23.8794 24.1005 25.8693 22.1106 25.8693ZM32.2814 9.72864C32.2814 8.62312 33.1658 7.73869 34.2714 7.73869C35.3769 7.73869 36.2613 8.62312 36.2613 9.72864C36.2613 10.8342 35.3769 11.7186 34.2714 11.7186C33.8291 11.7186 33.3869 11.4975 33.1658 11.2764L32.9447 11.0553L32.7236 10.8342C32.2814 10.6131 32.2814 10.1709 32.2814 9.72864ZM22.1106 6.63317C20.7839 6.63317 19.8995 5.74874 19.8995 4.64322C19.8995 3.31658 20.7839 2.43216 22.1106 2.43216C23.2161 2.43216 24.1005 3.31658 24.1005 4.42211C24.1005 5.74874 23.2161 6.63317 22.1106 6.63317ZM6.63317 21.8894C6.63317 22.995 5.74874 23.8794 4.64322 23.8794C3.53769 23.8794 2.65327 22.995 2.65327 21.8894C2.65327 20.7839 3.31658 19.8995 4.64322 19.8995C5.74874 19.8995 6.63317 20.7839 6.63317 21.8894ZM11.9397 9.72864C11.9397 10.8342 11.0553 11.7186 9.94975 11.7186C8.84422 11.7186 7.9598 10.8342 7.9598 9.72864C7.9598 8.62312 8.84422 7.73869 9.94975 7.73869C10.8342 7.51759 11.9397 8.62312 11.9397 9.72864ZM11.7186 34.2714C11.7186 35.3769 10.8342 36.2613 9.72864 36.2613C8.62312 36.2613 7.51759 35.3769 7.51759 34.2714C7.51759 33.1658 8.40201 32.2814 9.50754 32.2814C10.6131 32.2814 11.7186 33.1658 11.7186 34.2714ZM22.1106 37.3668C23.2161 37.3668 24.1005 38.2513 24.1005 39.3568C24.1005 40.4623 23.2161 41.3467 22.1106 41.3467C21.005 41.3467 20.1206 40.4623 20.1206 39.3568C19.8995 38.2513 20.7839 37.3668 22.1106 37.3668ZM34.2714 32.0603C35.3769 32.0603 36.2613 32.9447 36.2613 34.0503C36.2613 35.1558 35.3769 36.0402 34.2714 36.0402C33.1658 36.0402 32.2814 35.1558 32.2814 34.0503C32.2814 33.1658 33.1658 32.0603 34.2714 32.0603ZM37.3668 21.8894C37.3668 20.7839 38.2513 19.8995 39.3568 19.8995C40.4623 19.8995 41.3467 20.7839 41.3467 21.8894C41.3467 22.995 40.4623 23.8794 39.3568 23.8794C38.2513 23.8794 37.3668 22.995 37.3668 21.8894Z" fill="#FF0000"/>
</g>
<defs>
<clipPath id="clip0">
<rect width="44" height="44" fill="white"/>
</clipPath>
</defs>
</svg>
