<svg width="67" height="30" viewBox="0 0 67 30" fill="none" xmlns="http://www.w3.org/2000/svg">
<path d="M51.9414 0C48.6678 0 45.3941 1.07914 42.7752 3.02158C40.1564 1.07914 36.8827 0 33.6091 0C30.1173 0 27.0619 1.07914 24.443 3.02158C21.6059 1.07914 18.5505 0 15.0586 0C6.76547 0 0 6.69065 0 14.8921C0 23.0935 6.76547 29.7842 15.0586 29.7842C18.3322 29.7842 21.6059 28.705 24.2248 26.7626C26.8436 28.705 29.899 29.7842 33.3909 29.7842C36.8827 29.7842 39.9381 28.705 42.557 26.7626C45.1759 28.705 48.4495 29.7842 51.7231 29.7842C60.0163 29.7842 66.7818 23.0935 66.7818 14.8921C67 6.69065 60.2345 0 51.9414 0ZM64.8176 13.813H62.6352C62.4169 11.6547 61.544 9.71223 60.2345 8.20144L61.7622 6.69065C63.5081 8.63309 64.5994 11.223 64.8176 13.813ZM53.0326 2.15827C55.8697 2.3741 58.2704 3.45324 60.2345 5.17986L58.7068 6.69065C57.1792 5.39568 55.215 4.53237 53.0326 4.31655V2.15827ZM50.8502 2.15827V4.31655C49.1042 4.53237 47.3583 5.17986 45.8306 6.25899C45.3941 5.61151 44.9577 5.17986 44.5212 4.53237C46.2671 3.23741 48.4495 2.3741 50.8502 2.15827ZM43.43 6.69065C45.1759 8.63309 46.2671 11.223 46.4853 13.813H44.3029C44.0847 11.6547 43.2117 9.71223 41.9023 8.20144L43.43 6.69065ZM34.7003 2.15827C37.5375 2.3741 39.9381 3.45324 41.9023 5.17986L40.3746 6.69065C38.8469 5.39568 36.8827 4.53237 34.7003 4.31655V2.15827ZM32.5179 2.15827V4.31655C30.3355 4.53237 28.3713 5.39568 26.8436 6.69065L25.316 5.17986C27.0619 3.45324 29.6808 2.3741 32.5179 2.15827ZM25.0977 8.20144C23.7883 9.71223 22.9153 11.6547 22.6971 13.813H20.5147C20.7329 11.223 21.8241 8.63309 23.57 6.69065L25.0977 8.20144ZM16.1498 2.15827C18.5505 2.3741 20.7329 3.23741 22.6971 4.53237C22.2606 4.96403 21.8241 5.61151 21.3876 6.25899C19.8599 5.17986 18.114 4.53237 16.1498 4.31655V2.15827ZM13.9674 2.15827V4.31655C11.785 4.53237 9.82085 5.39568 8.29316 6.69065L6.76547 5.17986C8.72964 3.45324 11.3485 2.3741 13.9674 2.15827ZM5.23779 6.69065L6.76547 8.20144C5.45603 9.71223 4.58306 11.6547 4.36482 13.813H2.18241C2.40065 11.223 3.49186 8.63309 5.23779 6.69065ZM2.18241 15.9712H4.36482C4.58306 18.1295 5.45603 20.0719 6.76547 21.5827L5.23779 23.0935C3.49186 21.3669 2.40065 18.777 2.18241 15.9712ZM13.9674 27.8417C11.1303 27.6259 8.72964 26.5468 6.76547 24.8201L8.29316 23.3094C9.82085 24.6043 11.785 25.4676 13.9674 25.6835V27.8417ZM6.54723 14.8921C6.54723 10.1439 10.4756 6.25899 15.2769 6.25899C17.0228 6.25899 18.7687 6.90647 20.2964 7.76978C19.2052 9.92806 18.5505 12.3022 18.5505 14.6763C18.5505 17.2662 19.2052 19.6403 20.2964 21.5827C18.7687 22.6619 17.0228 23.0935 15.2769 23.0935C10.4756 23.5252 6.54723 19.6403 6.54723 14.8921ZM16.1498 27.8417V25.6835C17.8958 25.4676 19.6417 24.8201 21.1694 23.741C21.6059 24.3885 22.0423 24.8201 22.4788 25.4676C20.7329 26.7626 18.5505 27.6259 16.1498 27.8417ZM23.57 23.3094C21.8241 21.3669 20.7329 18.777 20.5147 15.9712H22.6971C22.9153 18.1295 23.7883 20.0719 25.0977 21.5827L23.57 23.3094ZM32.5179 27.8417C29.6808 27.6259 27.2801 26.5468 25.316 24.8201L26.8436 23.3094C28.3713 24.6043 30.3355 25.4676 32.5179 25.6835V27.8417ZM24.8795 14.8921C24.8795 10.1439 28.8078 6.25899 33.6091 6.25899C38.4104 6.25899 42.3388 10.1439 42.3388 14.8921C42.3388 19.6403 38.4104 23.5252 33.6091 23.5252C28.8078 23.5252 24.8795 19.6403 24.8795 14.8921ZM34.7003 27.8417V25.6835C36.8827 25.4676 38.8469 24.6043 40.3746 23.3094L41.9023 24.8201C39.9381 26.5468 37.3192 27.6259 34.7003 27.8417ZM41.9023 21.7986C43.2117 20.2878 44.0847 18.3453 44.3029 16.1871H46.4853C46.2671 18.9928 45.1759 21.3669 43.43 23.3094L41.9023 21.7986ZM50.8502 27.8417C48.4495 27.6259 46.2671 26.7626 44.3029 25.4676C44.7394 25.036 45.1759 24.3885 45.6124 23.741C47.1401 24.8201 48.886 25.4676 50.6319 25.6835V27.8417H50.8502ZM46.9218 22.0144C48.013 19.8561 48.6678 17.482 48.6678 15.1079C48.6678 12.518 48.013 10.1439 46.9218 8.20144C48.4495 6.90647 50.1954 6.47482 51.9414 6.47482C56.7427 6.47482 60.671 10.3597 60.671 15.1079C60.671 19.8561 56.7427 23.741 51.9414 23.741C50.1954 23.5252 48.4495 22.8777 46.9218 22.0144ZM53.0326 27.8417V25.6835C55.215 25.4676 57.1792 24.6043 58.7068 23.3094L60.2345 24.8201C58.2704 26.5468 55.6515 27.6259 53.0326 27.8417ZM61.7622 23.3094L60.2345 21.7986C61.544 20.2878 62.4169 18.3453 62.6352 16.1871H64.8176C64.5994 18.777 63.5081 21.3669 61.7622 23.3094Z" fill="#FF0000"/>
<path d="M35.7921 8.63281C35.1374 8.63281 34.2645 8.84864 33.6097 9.28029C32.955 8.84864 32.3003 8.63281 31.4273 8.63281C29.0267 8.63281 27.0625 10.5753 27.0625 12.9494C27.0625 14.676 27.7172 16.1868 28.8084 17.2659L32.7368 21.1508C32.955 21.3666 33.1732 21.3666 33.6097 21.3666C33.828 21.3666 34.2645 21.3666 34.4827 21.1508L38.1928 17.2659C39.284 16.1868 39.9387 14.4602 39.9387 12.9494C39.9387 10.5753 37.9745 8.63281 35.7921 8.63281ZM36.6651 15.7551L33.6097 18.7767L30.5544 15.7551C29.6814 14.8918 29.2449 14.0285 29.2449 12.9494C29.2449 11.8702 30.1179 10.7911 31.4273 10.7911C31.8638 10.7911 32.3003 10.7911 32.7368 11.2227C33.1732 11.6544 33.828 11.6544 34.2645 11.2227C34.7009 10.7911 35.1374 10.7911 35.7921 10.7911C36.8833 10.7911 37.9745 11.6544 37.9745 12.9494C37.7563 13.8127 37.3198 14.8918 36.6651 15.7551Z" fill="#FF0000"/>
</svg>
