<svg width="65" height="66" viewBox="0 0 65 66" fill="none" xmlns="http://www.w3.org/2000/svg">
<path d="M64.7978 22.2715C64.7348 21.3265 64.1993 20.1924 63.4748 19.6254C62.6872 18.9954 62.4982 18.3654 62.4352 17.5463C61.3642 7.62336 52.8273 0 42.8098 0C32.7923 0 24.2554 7.62336 23.1844 17.5148C23.0899 18.4599 22.8379 19.0899 22.0188 19.6884C21.3573 20.1924 20.8533 21.232 20.7903 22.0825C20.6328 24.8547 20.6958 27.6268 20.7588 30.4304C20.7903 32.1315 21.9243 33.2656 23.6254 33.4231C24.3499 33.4861 25.106 33.3916 25.8305 33.4546C27.2166 33.6121 27.6576 33.0136 27.6261 31.659C27.5946 27.4063 27.5316 23.1536 27.6891 18.9009C27.9726 11.057 34.4934 4.85123 42.4948 4.59922C50.2756 4.3472 57.332 10.364 57.8675 18.0819C58.214 23.4686 58.088 28.8869 57.899 34.2736C57.8045 37.7703 54.8119 40.5424 51.2522 40.8574C51.3782 39.3453 50.3386 39.3769 49.2676 39.4084C48.102 39.4399 46.9365 39.3138 45.8024 39.4714C45.3299 39.5344 44.6999 40.1329 44.5739 40.6054C44.3849 41.3929 44.4164 42.275 44.5739 43.094C44.6369 43.472 45.1724 44.0076 45.5189 44.0076C47.094 44.1021 48.6691 44.0706 50.2441 44.0391C50.4647 44.0391 50.9057 43.8816 50.9057 43.7556C51.0317 42.086 52.4808 42.3695 53.4573 41.9915C57.3005 40.5109 59.1591 37.5813 59.6001 33.4231C60.1671 33.4231 60.5766 33.4231 60.9861 33.4231C63.8528 33.3916 64.8293 32.3835 64.8293 29.5169C64.8608 27.1228 64.9868 24.6972 64.7978 22.2715ZM46.3065 42.4955C45.5189 41.0149 45.9599 40.7314 49.5511 41.0464C49.5826 41.4559 49.6141 41.897 49.6771 42.4955C48.3541 42.4955 47.3145 42.4955 46.3065 42.4955Z" fill="#FF0000"/>
<path d="M48.7949 30.5253C48.8579 30.0843 49.0154 29.6117 48.9209 29.2337C48.5114 27.7847 48.0704 26.3041 47.5033 24.8865C47.1253 23.9415 47.4088 23.4689 48.1649 22.9649C49.3619 22.1774 50.496 21.3583 51.5985 20.4448C51.9766 20.1298 52.1971 19.5628 52.4806 19.1217C51.9766 18.9327 51.4725 18.6492 50.937 18.6177C49.6769 18.5547 48.4169 18.5232 47.1568 18.6177C45.9283 18.7122 45.2352 18.3972 44.9517 17.0741C44.6367 15.6566 44.1012 14.2705 43.5972 12.8845C43.4712 12.5694 43.0616 12.2229 42.7466 12.1599C42.5576 12.1284 42.1481 12.5379 42.0221 12.8529C41.6756 13.735 41.4236 14.6485 41.14 15.5306C40.132 18.5862 40.132 18.5862 36.9188 18.5862C36.0368 18.5862 35.1233 18.5547 34.2412 18.6177C33.8632 18.6492 33.5167 18.9327 33.1387 19.0902C33.3277 19.4683 33.4222 20.0038 33.7372 20.2243C34.9658 21.2008 36.2258 22.1459 37.5489 22.9964C38.3049 23.5004 38.4309 24.0045 38.1159 24.8235C37.6119 26.1466 37.1709 27.5011 36.8243 28.8557C36.6983 29.3597 36.7928 29.9268 36.7928 30.4623C37.3599 30.3048 37.9899 30.2733 38.4624 29.9583C39.5965 29.2337 40.7305 28.4147 41.7701 27.5641C42.4946 26.9656 43.0616 26.9341 43.8177 27.5326C44.9832 28.4777 46.2433 29.3597 47.5033 30.2103C47.8499 30.4623 48.3539 30.4308 48.7949 30.5253ZM44.1957 25.9891C43.2506 25.1385 42.4316 25.0755 41.4551 25.9576C40.7305 26.5876 39.9115 27.0916 38.7459 27.9422C39.187 26.4931 39.439 25.485 39.817 24.54C40.2265 23.532 40.006 22.8704 39.0924 22.2719C38.2419 21.7364 37.4544 21.0748 36.6353 20.4763C36.6668 20.3818 36.6983 20.2558 36.7613 20.1613C37.6749 20.1613 38.6199 20.0983 39.502 20.1928C40.762 20.3188 41.4551 19.8463 41.7701 18.6177C41.9906 17.7042 42.3371 16.8221 42.7781 15.4361C43.2506 16.7591 43.6287 17.6412 43.8492 18.5547C44.1327 19.7518 44.7627 20.3503 46.0543 20.1928C46.9678 20.0983 47.9129 20.1613 48.9839 20.4763C48.1964 21.0748 47.4088 21.7364 46.5898 22.2719C45.6133 22.8704 45.4243 23.595 45.8338 24.666C46.2118 25.5795 46.4323 26.5246 46.8733 27.9737C45.7393 27.0916 44.9202 26.5876 44.1957 25.9891Z" fill="#FF0000"/>
<path d="M6.77282 30.4615C7.52885 31.0601 8.31639 31.6271 9.13543 32.1626C9.35594 32.3201 9.67095 32.2886 9.95447 32.3201C9.98597 32.0366 10.112 31.7531 10.0175 31.5011C9.76546 30.556 9.48195 29.6425 9.13543 28.7289C8.88342 28.1304 9.07243 27.8154 9.54495 27.5004C10.301 26.9964 11.0255 26.4608 11.7186 25.8938C11.9706 25.7048 12.0966 25.3268 12.2856 25.0433C11.9706 24.9173 11.624 24.7283 11.309 24.7283C10.5215 24.6968 9.70246 24.6653 8.91492 24.7283C8.12738 24.7913 7.68636 24.5707 7.49735 23.7517C7.30834 22.8382 6.96183 21.9561 6.61531 21.0741C6.55231 20.8851 6.26879 20.6646 6.04828 20.6016C5.95378 20.6331 5.70177 20.9166 5.63876 21.1056C5.41825 21.6726 5.26075 22.2396 5.07174 22.8067C4.44171 24.7598 4.44171 24.7598 2.39411 24.7598C1.82709 24.7598 1.26006 24.7283 0.693033 24.7598C0.441021 24.7913 0.22051 24.9488 0 25.0433C0.126006 25.2953 0.189009 25.6103 0.378018 25.7678C1.16555 26.3978 1.98459 26.9964 2.80363 27.5319C3.27615 27.8469 3.37066 28.1619 3.15015 28.6974C2.83513 29.548 2.55162 30.3985 2.33111 31.2806C2.23661 31.5956 2.33111 31.9736 2.33111 32.3201C2.67763 32.2256 3.08714 32.1941 3.40216 32.0051C4.12669 31.5326 4.85123 31.0286 5.51276 30.493C5.92228 30.115 6.3003 30.0835 6.77282 30.4615Z" fill="#FF0000"/>
<path d="M62.6255 60.3888C62.153 60.4203 61.8695 60.2943 61.775 59.7903C61.649 59.2233 61.46 58.6878 61.2395 58.1522C61.208 58.0262 61.019 57.9002 60.893 57.8687C60.8299 57.8372 60.6724 58.0262 60.6094 58.1522C60.4834 58.4988 60.3889 58.8453 60.2629 59.1918C59.8849 60.3888 59.8849 60.3888 58.6248 60.3888C58.2783 60.3888 57.9318 60.3573 57.5853 60.3888C57.4278 60.3888 57.3018 60.5148 57.1758 60.5779C57.2388 60.7354 57.2703 60.9244 57.3963 61.0189C57.8688 61.3969 58.3728 61.7749 58.8769 62.0899C59.1604 62.2789 59.2234 62.4679 59.0974 62.8145C58.9084 63.3185 58.7509 63.854 58.5933 64.3895C58.5303 64.5785 58.5933 64.799 58.5933 65.0196C58.8139 64.9566 59.0659 64.9566 59.2549 64.8305C59.6959 64.547 60.1369 64.232 60.5464 63.8855C60.83 63.665 61.0505 63.6335 61.334 63.8855C61.8065 64.2635 62.279 64.61 62.783 64.9251C62.909 65.0196 63.0981 64.9881 63.2871 65.0196C63.3186 64.862 63.3816 64.673 63.3501 64.5155C63.1926 63.9485 63.0351 63.3815 62.8145 62.8145C62.657 62.4364 62.783 62.2474 63.0666 62.0584C63.5391 61.7434 63.9801 61.4284 64.3896 61.0819C64.5471 60.9559 64.6101 60.7354 64.7361 60.5779C64.5471 60.5148 64.3266 60.3888 64.1376 60.3888C63.6021 60.3573 63.1296 60.3573 62.6255 60.3888Z" fill="#FF0000"/>
<path d="M28.0361 37.3605C25.642 38.8096 23.3738 38.8096 21.0112 37.3605C17.6406 35.313 13.3879 35.1239 10.4897 38.6206C9.92271 39.3136 9.41869 40.0382 8.97767 40.8257C6.20554 45.929 5.48101 51.3787 6.48905 57.0805C7.02458 60.1361 9.48169 61.1442 11.9388 59.2226C13.6399 57.8995 15.278 56.4819 16.6325 54.7809C17.2941 53.9933 18.0816 53.6468 19.0581 53.6468C20.8852 53.6468 22.7123 53.6468 24.5394 53.6468C24.5394 53.6468 24.5394 53.6468 24.5394 53.6153C26.335 53.6153 28.1306 53.6468 29.9262 53.6153C30.9342 53.6153 31.6902 53.9618 32.3518 54.7179C33.8323 56.4504 35.3759 58.12 37.266 59.4431C39.4081 60.9237 41.8337 60.0416 42.3377 57.49C43.5978 51.2527 42.8103 45.3304 39.4081 39.8492C36.636 35.2815 32.0998 34.9349 28.0361 37.3605ZM20.6962 45.7714C20.6647 46.055 20.4127 46.055 20.1922 46.055C19.8457 46.055 19.4992 46.118 19.1841 46.055C18.2391 45.8975 17.9556 46.307 18.0186 47.2205C18.0501 47.693 18.3336 48.4806 17.7981 48.6381C17.042 48.8586 16.16 48.7956 15.3725 48.6696C14.9315 48.6066 15.152 48.0395 15.1205 47.693C15.089 46.0865 15.089 45.9605 13.5454 46.0865C12.1593 46.2125 12.4113 45.3304 12.4113 44.4169C12.1908 43.4403 12.5688 42.9048 13.7659 43.1253C14.9314 43.3458 15.278 42.8103 15.152 41.7078C15.1205 41.2982 14.8054 40.6052 15.467 40.4792C16.2545 40.3217 17.1366 40.2272 17.8611 40.5737C18.2706 40.7627 18.0501 41.4872 18.0186 41.9283C17.9241 42.8103 18.1761 43.2513 19.1526 43.1568C19.6567 43.0938 20.4127 42.8733 20.6017 43.3458C20.9482 44.0704 20.7592 44.9524 20.6962 45.7714ZM31.5957 40.0067C32.6353 39.9437 33.6433 40.8887 33.7063 41.8968C33.7693 42.8733 32.7613 43.9444 31.7217 43.9444C30.6822 43.9759 29.7371 43.0308 29.7056 41.9598C29.7056 40.9517 30.5562 40.0382 31.5957 40.0067ZM31.6902 49.4256C30.5877 49.4256 29.7056 48.5121 29.7056 47.441C29.7056 46.433 30.6192 45.4879 31.6272 45.4564C32.6038 45.4249 33.7063 46.4645 33.7063 47.4095C33.7378 48.4176 32.7298 49.4256 31.6902 49.4256ZM36.636 46.874C35.5964 46.874 34.5884 45.8659 34.6199 44.8579C34.6514 43.8814 35.6594 42.9048 36.636 42.9363C37.6755 42.9363 38.5576 43.8184 38.5891 44.8579C38.6206 45.9605 37.7385 46.874 36.636 46.874Z" fill="#FF0000"/>
</svg>
