<svg width="73" height="67" viewBox="0 0 73 67" fill="none" xmlns="http://www.w3.org/2000/svg">
<path d="M35.5933 15.1464C35.7433 15.1464 35.8932 15.1964 36.0432 15.1964C36.0932 15.1964 36.1432 15.2464 36.1432 15.2964C36.2432 15.4964 36.2932 15.6963 36.3931 15.8963C36.3931 15.9463 36.3931 15.9963 36.3931 15.9963C36.2932 16.1463 36.1932 16.2462 36.0932 16.3462C36.0432 16.3962 36.0432 16.4962 36.0932 16.5462C36.3432 16.8961 36.5931 17.1461 36.943 17.396C36.993 17.446 37.093 17.446 37.143 17.396C37.243 17.296 37.393 17.1961 37.4929 17.0961C37.5429 17.0461 37.5429 17.0461 37.5929 17.0961C37.7929 17.1961 37.9929 17.2461 38.1428 17.346C38.1928 17.346 38.2428 17.396 38.2428 17.446C38.2428 17.596 38.2928 17.746 38.2928 17.8959C38.2928 17.9959 38.3428 17.9959 38.3928 18.0459C38.7927 18.0959 39.1926 18.0959 39.5925 18.0459C39.6925 18.0459 39.6925 17.9959 39.6925 17.8959C39.6925 17.746 39.7425 17.596 39.7425 17.446C39.7425 17.396 39.7925 17.396 39.8425 17.346C40.0425 17.296 40.2424 17.1961 40.4424 17.0961C40.4924 17.0961 40.5424 17.0461 40.5424 17.0961C40.6424 17.1961 40.7923 17.296 40.8923 17.396C40.9423 17.396 40.9423 17.446 40.9923 17.446C41.0423 17.446 41.0423 17.396 41.0923 17.396C41.4422 17.1461 41.6922 16.8961 41.9421 16.5462C41.9921 16.4962 41.9921 16.3962 41.9421 16.3462C41.8421 16.2462 41.7422 16.0963 41.6422 15.9963C41.5922 15.9463 41.5922 15.9463 41.6422 15.8963C41.7422 15.6963 41.7921 15.4964 41.8921 15.2964C41.8921 15.2464 41.9421 15.1964 41.9921 15.1964C42.1421 15.1964 42.292 15.1464 42.442 15.1464C42.492 15.1464 42.542 15.0965 42.592 15.0465C42.642 14.6465 42.642 14.2466 42.592 13.8467C42.592 13.7467 42.542 13.7467 42.442 13.6967C42.292 13.6967 42.1421 13.6467 41.9921 13.6467C41.9421 13.6467 41.8921 13.6467 41.8921 13.5467C41.7921 13.3468 41.7422 13.1468 41.6422 12.9469C41.6422 12.8969 41.6422 12.8469 41.6422 12.8469C41.7422 12.6969 41.8421 12.5969 41.9421 12.4969C41.9921 12.447 41.9921 12.347 41.9421 12.297C41.6922 11.997 41.4422 11.6971 41.0923 11.4471C41.0423 11.3971 40.9423 11.3971 40.8923 11.4471C40.7923 11.5471 40.6424 11.6471 40.5424 11.7471C40.4924 11.7971 40.4924 11.7971 40.4424 11.7471C40.2424 11.6471 40.0425 11.5971 39.8425 11.4971C39.7925 11.4971 39.7425 11.4471 39.7425 11.3971C39.7425 11.2472 39.6925 11.0972 39.6925 10.9472C39.6925 10.8472 39.6425 10.7973 39.5426 10.7973C39.1426 10.7473 38.7427 10.7473 38.3428 10.7973C38.2428 10.7973 38.2428 10.8472 38.1928 10.9472C38.1928 11.0972 38.1428 11.2472 38.1428 11.3971C38.1428 11.4471 38.0928 11.4971 38.0428 11.4971C37.8429 11.5471 37.6429 11.6471 37.4929 11.7471C37.443 11.7471 37.393 11.7971 37.343 11.7471C37.243 11.6471 37.093 11.5471 36.993 11.4471C36.943 11.3971 36.8931 11.3971 36.7931 11.4471C36.4431 11.6971 36.1932 11.947 35.9432 12.297C35.8932 12.347 35.8932 12.447 35.9432 12.4969C36.0432 12.5969 36.1432 12.7469 36.2432 12.8469C36.2932 12.8969 36.2932 12.8969 36.2432 12.9469C36.1432 13.1468 36.0932 13.3468 35.9932 13.5467C35.9932 13.5967 35.9432 13.5967 35.8932 13.6467C35.7433 13.6467 35.5933 13.6967 35.4433 13.6967C35.3433 13.6967 35.3433 13.7467 35.2934 13.7967C35.2434 14.1966 35.2434 14.5965 35.2934 14.9965C35.4433 15.0965 35.4933 15.1464 35.5933 15.1464ZM39.0427 13.0968C39.7425 13.0968 40.3424 13.6967 40.3424 14.3966C40.3424 15.0965 39.7425 15.6963 39.0427 15.6963C38.3428 15.6963 37.7429 15.0965 37.7429 14.3966C37.7429 13.6967 38.2928 13.0968 39.0427 13.0968Z" fill="#FF0000"/>
<path d="M12.1985 38.6431C12.0486 38.6431 11.8486 38.5932 11.6986 38.5932C11.6486 38.5932 11.5986 38.5432 11.5986 38.4932C11.4987 38.2932 11.3987 38.0433 11.3487 37.8433C11.3487 37.7933 11.3487 37.7433 11.3487 37.7433C11.4487 37.5933 11.5486 37.4934 11.6486 37.3434C11.6986 37.2434 11.6986 37.1934 11.6486 37.0934C11.3987 36.7435 11.0987 36.4436 10.6988 36.1436C10.5988 36.0936 10.5488 36.0936 10.4988 36.1436C10.3489 36.2436 10.2489 36.3436 10.0989 36.4436C10.0489 36.4935 10.0489 36.4935 9.99894 36.4436C9.79898 36.3436 9.54902 36.2436 9.34906 36.1936C9.29907 36.1936 9.24908 36.1436 9.24908 36.0936C9.24908 35.9436 9.19909 35.7937 9.19909 35.5937C9.19909 35.4937 9.1491 35.4437 9.04912 35.4437C8.5992 35.3938 8.14928 35.3938 7.69937 35.4437C7.59939 35.4437 7.5494 35.4937 7.5494 35.5937C7.5494 35.7437 7.49941 35.9436 7.49941 36.0936C7.49941 36.1436 7.44941 36.1936 7.39942 36.1936C7.19946 36.2936 6.94951 36.3436 6.74955 36.4436C6.69955 36.4935 6.64956 36.4935 6.59957 36.4436C6.4496 36.3436 6.34962 36.2436 6.19965 36.1436C6.14966 36.0936 6.04968 36.0936 5.99969 36.1436C5.64975 36.3936 5.29982 36.7435 5.04986 37.0934C4.99987 37.1434 4.99987 37.2434 5.04986 37.2934C5.14984 37.4434 5.24983 37.5434 5.34981 37.6933C5.3998 37.7433 5.3998 37.7433 5.34981 37.7933C5.24983 37.9933 5.14984 38.2432 5.09985 38.4432C5.09985 38.4932 5.04986 38.5432 4.99987 38.5432C4.8499 38.5432 4.64994 38.5932 4.49997 38.5932C4.39998 38.5932 4.34999 38.6431 4.34999 38.7431C4.3 39.193 4.3 39.643 4.34999 40.0929C4.34999 40.1929 4.39998 40.2428 4.49997 40.2428C4.64994 40.2428 4.8499 40.2928 4.99987 40.2928C5.04986 40.2928 5.09985 40.3428 5.09985 40.3928C5.19983 40.5928 5.29982 40.8427 5.34981 41.0427C5.34981 41.0927 5.34981 41.1427 5.34981 41.1427C5.24983 41.2927 5.14984 41.3926 5.04986 41.5426C4.99987 41.5926 4.99987 41.6926 5.04986 41.7426C5.29982 42.0925 5.64975 42.4424 5.99969 42.6924C6.04968 42.7424 6.14966 42.7424 6.19965 42.6924C6.34962 42.5924 6.4496 42.4924 6.59957 42.3924C6.64956 42.3425 6.69955 42.3425 6.74955 42.3924C6.94951 42.4924 7.14947 42.5924 7.39942 42.6424C7.44941 42.6924 7.49941 42.6924 7.49941 42.7924C7.49941 42.9423 7.5494 43.1423 7.5494 43.2923C7.5494 43.3923 7.59939 43.4422 7.69937 43.4422C8.14928 43.4922 8.5992 43.4922 9.04912 43.4422C9.1491 43.4422 9.19909 43.3923 9.19909 43.2923C9.19909 43.1423 9.24908 42.9423 9.24908 42.7924C9.24908 42.7424 9.29907 42.6924 9.34906 42.6924C9.54902 42.5924 9.79898 42.5424 9.99894 42.4424C10.0489 42.4424 10.0989 42.3924 10.1489 42.4424C10.2989 42.5424 10.3989 42.6424 10.5488 42.7424C10.5988 42.7924 10.5988 42.7924 10.6488 42.7924C10.6988 42.7924 10.7488 42.7424 10.7488 42.7424C11.0987 42.4924 11.4487 42.1425 11.6986 41.7926C11.7486 41.6926 11.7486 41.6426 11.6986 41.5926C11.5986 41.4426 11.4987 41.3426 11.3987 41.1927C11.3487 41.1427 11.3487 41.0927 11.3987 41.0427C11.4987 40.8427 11.5986 40.5928 11.6486 40.3928C11.6486 40.3428 11.6986 40.2928 11.7486 40.2928C11.8986 40.2928 12.0985 40.2428 12.2485 40.2428C12.3485 40.2428 12.3985 40.1929 12.3985 40.0929C12.4485 39.643 12.4485 39.193 12.3985 38.7431C12.3485 38.6931 12.2985 38.6931 12.1985 38.6431ZM8.34925 40.9427C7.5494 40.9427 6.89952 40.2928 6.89952 39.493C6.89952 38.6931 7.5494 38.0433 8.34925 38.0433C9.1491 38.0433 9.79898 38.6931 9.79898 39.493C9.79898 40.2928 9.1491 40.9427 8.34925 40.9427Z" fill="#FF0000"/>
<path d="M30.7936 62.5873C30.6436 62.5873 30.4936 62.5373 30.3437 62.5373C30.2937 62.5373 30.2437 62.5374 30.2437 62.4374C30.1437 62.2374 30.0937 62.0374 29.9937 61.8375C29.9937 61.7875 29.9937 61.7375 29.9937 61.7375C30.0937 61.5875 30.1937 61.4875 30.2937 61.3876C30.3437 61.3376 30.3437 61.2376 30.2937 61.1876C30.0437 60.8877 29.7938 60.5877 29.4438 60.3378C29.3938 60.2878 29.2939 60.2878 29.2439 60.3378C29.1439 60.4377 28.9939 60.5377 28.8939 60.6377C28.8439 60.6877 28.8439 60.6877 28.794 60.6377C28.594 60.5377 28.394 60.4877 28.1941 60.3878C28.1441 60.3878 28.0941 60.3378 28.0941 60.2878C28.0941 60.1378 28.0441 59.9878 28.0441 59.8379C28.0441 59.7379 27.9941 59.6879 27.8941 59.6879C27.4942 59.6379 27.0943 59.6379 26.6943 59.6879C26.5944 59.6879 26.5944 59.7379 26.5444 59.8379C26.5444 59.9878 26.4944 60.1378 26.4944 60.2878C26.4944 60.3378 26.4444 60.3878 26.3944 60.3878C26.1944 60.4377 25.9945 60.5377 25.8445 60.6377C25.7945 60.6377 25.7445 60.6877 25.6945 60.6377C25.5946 60.5377 25.4446 60.4377 25.3446 60.3378C25.2946 60.2878 25.2446 60.2878 25.1446 60.3378C24.7947 60.5877 24.5447 60.8377 24.2948 61.1876C24.2448 61.2376 24.2448 61.3376 24.2948 61.3876C24.3948 61.4875 24.4948 61.6375 24.5947 61.7375C24.6447 61.7875 24.6447 61.7875 24.5947 61.8375C24.4948 62.0374 24.4448 62.2374 24.3448 62.4374C24.3448 62.4874 24.2948 62.4874 24.2448 62.5373C24.0948 62.5373 23.9449 62.5873 23.7949 62.5873C23.6949 62.5873 23.6949 62.6373 23.6449 62.6873C23.5949 63.0872 23.5949 63.4872 23.6449 63.8871C23.6449 63.9871 23.6949 63.9871 23.7949 64.0371C23.9449 64.0371 24.0948 64.0871 24.2448 64.0871C24.2948 64.0871 24.3448 64.137 24.3448 64.187C24.4448 64.387 24.4948 64.587 24.5947 64.7869C24.5947 64.8369 24.5947 64.8869 24.5947 64.8869C24.4948 65.0369 24.3948 65.1369 24.2948 65.2368C24.2448 65.2868 24.2448 65.3868 24.2948 65.4368C24.5447 65.7867 24.7947 66.0367 25.1446 66.2867C25.1946 66.3366 25.2946 66.3366 25.3446 66.2867C25.4446 66.1867 25.5946 66.0867 25.6945 65.9867C25.7445 65.9367 25.7445 65.9367 25.7945 65.9867C25.9945 66.0867 26.1944 66.1367 26.3444 66.2367C26.3944 66.2367 26.4444 66.2866 26.4444 66.3366C26.4444 66.4866 26.4944 66.6366 26.4944 66.7866C26.4944 66.8865 26.5444 66.8865 26.5944 66.9365C26.9943 66.9865 27.3942 66.9865 27.7941 66.9365C27.8941 66.9365 27.8941 66.8865 27.8941 66.7866C27.8941 66.6366 27.9441 66.4866 27.9441 66.3366C27.9441 66.2866 27.9941 66.2867 28.0441 66.2367C28.2441 66.1867 28.444 66.0867 28.644 65.9867C28.694 65.9867 28.744 65.9367 28.744 65.9867C28.8439 66.0867 28.9939 66.1867 29.0939 66.2867C29.1439 66.2867 29.1439 66.3366 29.1939 66.3366C29.2439 66.3366 29.2439 66.2867 29.2939 66.2867C29.6438 66.0367 29.8937 65.7867 30.1437 65.4368C30.1937 65.3868 30.1937 65.2868 30.1437 65.2368C30.0437 65.1369 29.9437 64.9869 29.8438 64.8869C29.7938 64.8369 29.7938 64.8369 29.8438 64.7869C29.9437 64.587 29.9937 64.387 30.0937 64.187C30.0937 64.137 30.1437 64.0871 30.1937 64.0871C30.3437 64.0871 30.4936 64.0371 30.6436 64.0371C30.6936 64.0371 30.7436 63.9871 30.7936 63.9371C30.8436 63.5372 30.8436 63.1372 30.7936 62.7373C30.8936 62.6373 30.8936 62.5873 30.7936 62.5873ZM27.3442 64.637C26.6444 64.637 26.0445 64.0371 26.0445 63.3372C26.0445 62.6373 26.6444 62.0374 27.3442 62.0374C28.0441 62.0374 28.644 62.6373 28.644 63.3372C28.644 64.0371 28.0441 64.637 27.3442 64.637Z" fill="#FF0000"/>
<path d="M60.2891 35.4941C61.1389 35.4941 61.9388 35.4941 62.8386 35.4941C62.8386 29.8452 62.8386 24.2962 62.8386 18.6973C61.9388 18.6973 61.1389 18.6973 60.2891 18.6973C60.2891 24.3462 60.2891 29.9452 60.2891 35.4941Z" fill="#FF0000"/>
<path d="M42.6909 25.0449C45.8404 24.6449 48.9898 24.0451 51.9392 22.7953C54.4387 21.7455 56.7883 20.3957 58.438 18.1462C59.0879 17.2463 59.5878 16.1965 60.1377 15.1967C60.5376 15.5966 60.9375 16.0465 61.4374 16.5964C61.2375 14.3969 60.9875 12.2972 60.7876 10.0977C59.1379 11.4474 57.5882 12.6972 56.0384 13.9969C56.0384 14.0469 56.0884 14.0969 56.0884 14.1469C56.6383 14.1469 57.1882 14.1469 57.9881 14.1469C57.6382 14.9468 57.3882 15.6466 57.0383 16.2965C55.4386 19.3459 52.839 21.2456 49.8396 22.6953C47.4401 23.8451 44.8905 24.495 42.291 24.9949C42.441 24.9949 42.541 25.0449 42.6909 25.0449Z" fill="#FF0000"/>
<path d="M56.0898 21.7461C56.0898 26.3452 56.0898 30.9444 56.0898 35.4935C56.9397 35.4935 57.7895 35.4935 58.5894 35.4935C58.5894 30.8944 58.5894 26.3452 58.5894 21.7461C57.7395 21.7461 56.9397 21.7461 56.0898 21.7461Z" fill="#FF0000"/>
<path d="M51.791 24.0957C51.791 27.895 51.791 31.6443 51.791 35.4936C52.6409 35.4936 53.4907 35.4936 54.3405 35.4936C54.3405 31.6943 54.3405 27.895 54.3405 24.0957C53.4407 24.0957 52.6409 24.0957 51.791 24.0957Z" fill="#FF0000"/>
<path d="M47.541 26.1465C47.541 29.2959 47.541 32.3953 47.541 35.4947C48.3909 35.4947 49.1907 35.4947 50.0905 35.4947C50.0905 32.3453 50.0905 29.2459 50.0905 26.1465C49.2407 26.1465 48.3909 26.1465 47.541 26.1465Z" fill="#FF0000"/>
<path d="M39.093 36.9428C47.0415 36.9428 54.94 36.9428 62.8385 36.9428C62.8385 36.6429 62.8385 36.3929 62.8385 36.043C54.89 36.043 46.9915 36.043 39.043 36.043C39.043 36.3929 39.043 36.6928 39.093 36.9428Z" fill="#FF0000"/>
<path d="M43.291 27.5449C43.291 30.1944 43.291 32.8439 43.291 35.4434C44.1409 35.4434 44.9907 35.4434 45.8405 35.4434C45.8405 32.7939 45.8405 30.1444 45.8405 27.5449C44.9907 27.5449 44.1409 27.5449 43.291 27.5449Z" fill="#FF0000"/>
<path d="M39.0918 30.3945C39.0918 32.1442 39.0918 33.7939 39.0918 35.4436C39.9416 35.4436 40.7915 35.4436 41.6413 35.4436C41.6413 33.7439 41.6413 32.0442 41.6413 30.3945C40.7415 30.3945 39.9416 30.3945 39.0918 30.3945Z" fill="#FF0000"/>
<path d="M69.887 4.34919H26.795C26.0951 3.44936 25.3453 2.64951 24.3954 1.99963C24.1955 1.84965 23.9955 1.84965 23.7956 1.99963C23.4456 2.29957 23.0457 2.54952 22.6958 2.84947C22.5958 2.94945 22.4958 2.94945 22.3458 2.89946C21.7959 2.64951 21.196 2.39955 20.6461 2.19959C20.4462 2.1496 20.3962 2.04962 20.3962 1.89965C20.3462 1.44973 20.2962 1.0498 20.2462 0.599888C20.2462 0.349935 20.0962 0.199963 19.8463 0.149972C18.6465 -0.0499907 17.4967 -0.0499907 16.297 0.149972C16.047 0.199963 15.947 0.299944 15.897 0.549897C15.847 0.999813 15.7971 1.44973 15.7471 1.89965C15.7471 2.04962 15.6471 2.1496 15.4971 2.19959C14.9472 2.39955 14.3473 2.64951 13.7974 2.89946C13.6475 2.94945 13.5475 2.99944 13.3975 2.84947C13.0476 2.54952 12.6976 2.29957 12.2977 1.99963C12.0977 1.84965 11.9478 1.84965 11.7478 1.99963C10.748 2.6995 9.94814 3.54934 9.19828 4.49916C9.04831 4.69912 9.04831 4.84909 9.19828 5.04906C9.49823 5.39899 9.74818 5.79892 10.0481 6.14885C10.1481 6.24883 10.1481 6.34881 10.0981 6.49879C9.84816 7.04868 9.59821 7.64857 9.39824 8.24846C9.34825 8.39843 9.24827 8.44842 9.0983 8.49841C8.64839 8.5484 8.19847 8.59839 7.74855 8.64838C7.4986 8.64838 7.39862 8.79836 7.34863 8.99832C7.14867 10.1981 7.14867 11.3979 7.34863 12.5477C7.39862 12.7976 7.4986 12.8976 7.79854 12.9476C8.24846 12.9976 8.64839 13.0476 9.0983 13.0976C9.24827 13.0976 9.34825 13.1975 9.39824 13.3475C9.59821 13.9474 9.89815 14.4973 10.0981 15.0972C10.1481 15.1972 10.0981 15.3471 10.0481 15.3971C9.79817 15.7471 9.49823 16.147 9.19828 16.4969C9.04831 16.6969 9.04831 16.8469 9.19828 17.0968C9.84816 17.9466 10.598 18.7465 11.3979 19.3964V31.0942C10.898 31.0942 10.3981 31.0942 9.84816 31.0942C8.0485 31.1942 6.29882 31.6441 4.64913 32.5439C2.04962 33.9937 0.649879 36.2932 0.0999813 39.1427C0.149972 39.8926 0.0999813 40.6924 0 41.4923C0.0499907 44.7416 1.34975 47.4911 3.64932 49.6907C4.49916 50.4906 4.69912 51.3404 4.44917 52.3902C4.19922 53.44 3.94926 54.4898 3.64932 55.5396C3.34937 56.6394 3.59933 57.4393 4.69912 57.8392C6.9487 58.739 9.29826 59.2389 11.6978 58.989C12.5976 58.889 13.4975 58.739 14.3973 58.5391C15.1472 58.3391 15.5971 57.8392 15.6971 57.0393C15.7971 56.2395 15.997 55.4896 16.047 54.6898C16.097 54.2899 16.247 54.2399 16.6469 54.1899C17.5467 54.1399 18.4965 54.1399 19.3464 53.9399C20.9461 53.54 21.546 52.4902 21.296 50.8905C21.296 50.7405 21.346 50.5406 21.446 50.3906C21.8959 49.8407 21.8959 49.1908 21.8959 48.4909C21.9459 47.7911 21.8459 47.0412 22.4458 46.4413H38.1929V52.1403H36.0933C35.6933 52.1403 35.3934 52.4402 35.3934 52.8401C35.3934 53.2401 35.6933 53.54 36.0933 53.54H48.441C48.8409 53.54 49.1408 53.2401 49.1408 52.8401C49.1408 52.4402 48.8409 52.1403 48.441 52.1403H46.3413V46.4413H69.9369C71.6366 46.4413 72.9864 45.0916 72.9864 43.3919V7.39862C72.9364 5.74893 71.5866 4.34919 69.887 4.34919ZM21.9959 10.798C21.9959 12.9476 20.2462 14.6973 18.0966 14.6973C15.947 14.6973 14.1973 12.9476 14.1973 10.798C14.1973 8.64839 15.947 6.89871 18.0966 6.89871C20.2462 6.89871 21.9959 8.64839 21.9959 10.798ZM19.7463 47.991C19.8963 48.191 19.9963 48.391 20.0962 48.5909C20.3462 48.9409 20.2462 49.2408 19.9463 49.5407C19.2464 50.1906 19.2464 50.1906 19.5963 51.0905C19.8463 51.7403 19.6963 52.0903 19.0464 52.3402C18.8965 52.3902 18.6965 52.4402 18.5465 52.4902C17.8467 52.5402 17.1968 52.5902 16.4969 52.5902C15.1472 52.5902 14.6473 52.9901 14.4473 54.2899C14.3473 54.9897 14.1973 55.6896 14.1474 56.3895C14.0974 56.8894 13.8474 57.0893 13.4475 57.1893C11.5978 57.6392 9.74818 57.5892 7.89853 57.1393C6.99869 56.9394 6.09886 56.6394 5.14904 56.3895C5.24902 56.0895 5.24902 55.9396 5.29901 55.7896C5.59895 54.4898 5.8989 53.1901 6.14885 51.8903C6.34881 50.7405 6.14885 49.6907 5.14904 48.9409C4.94908 48.7909 4.7991 48.5909 4.64913 48.391C2.24958 45.8414 1.24977 42.892 1.94964 39.3926C2.49953 36.6932 3.84928 34.6435 6.4488 33.5937C8.14848 32.8939 9.84816 32.5939 11.5978 32.6939C12.3977 32.7439 13.1975 32.8939 13.9974 33.0938C14.2473 33.1438 14.4973 33.2438 14.7972 33.2938C16.3469 33.7937 17.6967 34.6935 18.5965 36.0433C19.3964 37.1931 19.8963 38.5428 19.5963 39.9925C19.4964 40.5424 19.4964 41.0923 19.5963 41.5422H19.4964C19.5963 41.9922 19.7963 42.3921 20.0962 42.842C20.4962 43.3919 20.9461 43.9418 21.296 44.4917C21.646 45.0416 21.496 45.3415 20.8461 45.5415C20.5462 45.6415 20.1962 45.6915 19.8463 45.7914C19.8963 46.0414 19.9963 46.2914 20.0962 46.5413H20.1462C20.4462 46.9912 20.6961 47.5411 19.7463 47.991ZM42.2421 45.0416C41.6422 45.0416 41.1423 44.5417 41.1423 43.9418C41.1423 43.3419 41.6422 42.842 42.2421 42.842C42.842 42.842 43.3419 43.3419 43.3419 43.9418C43.3419 44.5417 42.842 45.0416 42.2421 45.0416ZM70.4368 41.4423H21.296C21.1461 41.0423 21.0961 40.5924 21.1461 40.0925C21.446 37.7929 20.6961 35.7933 19.0464 34.1436C17.5467 32.6439 15.7971 31.7441 13.9474 31.3441V18.7465C14.4473 18.9965 14.9972 19.1964 15.5471 19.3964C15.7471 19.4464 15.7971 19.5464 15.7971 19.7463C15.847 20.1962 15.897 20.5962 15.947 21.0461C15.947 21.296 16.097 21.396 16.297 21.446C17.4967 21.646 18.6965 21.646 19.8963 21.446C20.1462 21.396 20.2462 21.296 20.2462 21.0461C20.2962 20.5962 20.3462 20.1462 20.3962 19.6963C20.3962 19.5464 20.4962 19.4964 20.6461 19.3964C21.246 19.1964 21.7959 18.9465 22.3458 18.6965C22.4958 18.6465 22.5958 18.6465 22.6958 18.7465C23.0457 19.0464 23.3956 19.2964 23.7456 19.5963C23.8455 19.6463 23.9455 19.6963 24.0455 19.7463C24.1455 19.6963 24.2455 19.6463 24.3455 19.5963C25.2953 18.8965 26.1451 18.0466 26.845 17.0968C26.995 16.8968 26.995 16.6969 26.845 16.4969C26.545 16.147 26.2951 15.7971 25.9951 15.4471C25.8952 15.3471 25.8952 15.2472 25.9452 15.0972C26.1951 14.5473 26.4451 13.9474 26.645 13.3975C26.695 13.2475 26.795 13.1475 26.945 13.1475C27.3949 13.0976 27.8448 13.0476 28.2947 12.9976C28.4947 12.9976 28.6447 12.8476 28.6447 12.6476C28.8446 11.4479 28.8446 10.2481 28.6447 9.04831C28.5947 8.79836 28.4947 8.69838 28.2447 8.64838C27.7948 8.59839 27.3449 8.5484 26.895 8.49841C26.745 8.49841 26.695 8.44842 26.595 8.29845C26.3951 7.79854 26.1951 7.29864 25.9951 6.74874H70.2869V41.4423H70.4368Z" fill="#FF0000"/>
</svg>
