<svg width="67" height="56" viewBox="0 0 67 56" fill="none" xmlns="http://www.w3.org/2000/svg">
<path d="M63.2787 9.63867C61.2413 9.63867 59.5957 11.2843 59.5957 13.3609C59.5957 15.3983 61.2805 17.0439 63.2787 17.0439C65.3162 17.0439 67.001 15.3983 67.001 13.3609C67.001 11.2843 65.3553 9.63867 63.2787 9.63867ZM63.9056 10.7357C63.9448 10.7357 63.9448 10.6966 63.984 10.6966C64.1799 10.6182 64.4542 10.3831 64.6109 10.4615C64.9635 10.6182 65.277 10.8925 65.5904 11.1667C65.6296 11.2059 65.6296 11.2843 65.6296 11.3626C65.6296 11.4802 65.5904 11.5977 65.5904 11.7153C65.6296 12.2638 65.3553 12.5773 64.8068 12.6556C64.5717 12.6948 64.415 12.734 64.2191 12.5773C64.1407 12.4989 64.0232 12.4205 63.9056 12.3422C63.4746 12.0287 63.4746 12.0287 63.4355 11.441C63.3963 11.1276 63.553 10.8533 63.9056 10.7357ZM61.398 10.7357C61.7507 10.4615 62.1033 10.3439 62.4951 10.6574C62.5343 10.6966 62.5735 10.6966 62.6127 10.6966C63.0045 10.8141 63.2004 11.0492 63.0437 11.4802C63.2004 11.872 62.9261 12.0679 62.6518 12.303C62.2208 12.6948 61.829 12.734 61.3589 12.4989C61.163 12.4205 61.0454 12.303 61.0062 12.1071C61.0062 11.9895 61.0062 11.872 60.967 11.7545C60.7711 11.2843 61.0454 11.01 61.398 10.7357ZM61.163 15.0849C60.9279 15.0065 60.5752 15.0457 60.4969 14.889C60.301 14.5363 60.2226 14.1445 60.1051 13.7527C60.1051 13.7135 60.1442 13.6352 60.1834 13.5568C60.2618 13.4784 60.3401 13.4393 60.3793 13.3609C60.732 12.8515 61.1238 12.7732 61.6723 13.0474C61.829 13.1258 61.9466 13.2042 61.9858 13.3609C62.0641 13.6743 62.1817 13.9486 62.2992 14.3012C62.2208 14.4188 62.1033 14.5755 62.0249 14.6931C61.829 15.0849 61.5548 15.2024 61.163 15.0849ZM64.4542 15.555C64.3366 15.8293 64.2191 16.0644 64.0624 16.3387C64.0232 16.417 63.9056 16.4954 63.8273 16.4954C63.4746 16.4954 63.0828 16.4954 62.691 16.4954C62.6127 16.4954 62.5343 16.417 62.4951 16.3387C62.4559 16.2603 62.4168 16.1819 62.3776 16.1036C61.9858 15.3591 61.9858 15.3591 62.5735 14.6931C62.6518 14.6147 62.7302 14.5755 62.8477 14.5755C63.0045 14.5363 63.1612 14.5755 63.3963 14.5755C64.0232 14.3404 64.1799 14.9673 64.4934 15.3591C64.5325 15.3983 64.4934 15.4767 64.4542 15.555ZM65.9431 14.9673C65.6296 15.0065 65.3162 15.0849 64.9635 15.124C64.9244 15.0849 64.846 15.0849 64.8068 15.0065C64.6501 14.8106 64.4934 14.5755 64.3366 14.3796C64.2975 14.3404 64.2975 14.2621 64.2975 14.2229C64.415 13.8702 64.4934 13.5568 64.6501 13.2042C64.6893 13.1258 64.846 13.0866 64.9635 13.0083C65.4337 12.7732 65.8255 12.8124 66.0998 13.2433C66.2173 13.4001 66.4524 13.596 66.4524 13.7135C66.3741 14.1053 66.2173 14.4971 66.0606 14.889C66.0606 14.9673 65.9822 14.9673 65.9431 14.9673Z" fill="#FF0000"/>
<path d="M20.7284 19.7483C18.26 18.6904 17.3197 15.7126 18.8477 13.5576C19.4746 12.6564 20.5325 12.0295 21.5512 11.1676C21.5512 9.24768 21.5512 7.05353 21.5512 4.85938C16.0659 4.85938 10.698 4.85938 5.29102 4.85938C5.29102 6.58335 5.29102 8.22896 5.29102 9.95294C6.93663 9.95294 8.50388 9.95294 10.1103 9.95294C10.1103 13.8711 10.1103 17.7108 10.1103 21.6681C8.4647 21.6681 6.85827 21.6681 5.29102 21.6681C5.29102 23.3921 5.29102 25.0377 5.29102 26.6442C10.7372 26.6442 16.105 26.6442 21.6688 26.6442C21.6688 24.7243 21.6688 22.9219 21.6688 21.1588C21.6296 20.4535 21.4729 20.0617 20.7284 19.7483Z" fill="#FF0000"/>
<path d="M8.50388 11.5977C7.4068 11.5977 6.34891 11.5977 5.29102 11.5977C5.29102 14.4187 5.29102 17.2006 5.29102 19.9824C6.38809 19.9824 7.36762 19.9824 8.50388 19.9824C8.50388 17.1614 8.50388 14.3795 8.50388 11.5977Z" fill="#FF0000"/>
<path d="M19.7869 15.867C19.8261 17.0424 20.453 17.8652 21.55 18.1395C21.55 16.5331 21.55 14.9658 21.55 13.3594C20.3746 13.7512 19.7477 14.6524 19.7869 15.867Z" fill="#FF0000"/>
<path d="M25.1147 15.7907C25.1147 14.6936 24.4486 13.7533 23.3516 13.3223C23.3516 14.9287 23.3516 16.4959 23.3516 18.1807C24.4878 17.7497 25.0755 16.9269 25.1147 15.7907Z" fill="#FF0000"/>
<path d="M47.2908 29.7376C46.7423 29.4633 46.1154 29.3458 45.5668 29.0715C45.3709 28.9932 45.0575 28.7581 45.0575 28.5622C45.0183 27.4259 45.0183 26.3288 45.0183 25.1926C45.1358 25.1534 46.3505 25.5844 46.7423 26.8774C47.33 26.8774 48.0744 26.8774 49.054 26.8774C48.7797 25.8195 47.8002 24.7224 47.33 24.2914C46.468 23.5078 45.0183 22.9984 44.9791 23.0376C44.9399 22.5674 45.0183 22.0581 44.9791 21.5879C44.3914 21.5879 43.882 21.5879 43.4119 21.5879C43.3727 22.1364 43.451 22.6458 43.4119 23.0768C42.5891 23.2335 42.0405 23.4294 41.492 23.7037C39.9639 24.4089 39.1803 25.7019 39.2586 27.4259C39.337 28.9148 40.1206 29.8943 41.7662 30.5212C42.3148 30.7171 42.8633 30.8739 43.4119 31.1089V35.3405C42.1581 35.0271 41.3744 34.2826 41.2177 32.9896C40.4733 32.9896 39.768 32.9896 38.9844 32.9896C39.2195 35.7323 40.7867 37.0645 43.4119 37.4171C43.4119 38.044 43.4119 38.5926 43.4119 39.1411C43.9996 39.1411 44.5089 39.1411 45.0575 39.1411V37.4171C45.4885 37.2996 45.8803 37.2604 46.2721 37.1429C47.9961 36.6727 49.2499 35.3013 49.4066 33.7341C49.5633 31.8926 48.8581 30.5212 47.2908 29.7376ZM43.3727 28.4838C42.4715 28.2879 41.6879 27.8961 41.6487 26.9557C41.6095 26.0546 42.1972 25.2709 43.3727 25.1534C43.3727 26.2113 43.3727 27.2692 43.3727 28.4838ZM45.0183 35.2622C45.0183 34.0475 45.0183 32.7937 45.0183 31.5791C46.3113 31.6967 46.9382 32.2452 46.9382 33.2639C46.9774 34.4002 46.3113 35.1054 45.0183 35.2622Z" fill="#FF0000"/>
<path d="M53.7567 8.03216C50.7789 8.03216 47.8403 8.03216 44.8626 8.03216C44.8626 6.269 44.9017 4.58421 44.8234 2.89941C44.745 1.13626 43.452 0 41.6497 0C28.9158 0 16.1819 0 3.48713 0C1.17544 0 0 1.13626 0 3.44795C0 11.6368 0 19.8649 0 28.0538C0 30.4047 1.09708 31.5409 3.44795 31.5409C12.3813 31.5409 21.3538 31.5409 30.2871 31.5409C30.5222 31.5409 30.7573 31.5409 30.9924 31.5409C30.9924 34.1269 30.9924 32.0111 30.9924 34.5971C30.0129 34.2053 28.9158 34.0093 27.7795 34.0093C22.8427 34.0093 18.8462 38.0058 18.8854 42.9427C18.8854 47.8403 22.8819 51.8368 27.7795 51.8368C28.9158 51.8368 30.0129 51.6409 30.9924 51.2491C30.9924 51.6409 30.9924 52.0719 30.9924 52.4637C30.9924 52.6988 30.9924 52.9339 30.9924 53.169C31.0316 54.893 32.0503 55.8725 33.7351 55.8725C40.3959 55.8725 47.0567 55.8725 53.6783 55.8725C55.4807 55.8725 56.4994 54.893 56.4994 53.0514C56.4994 45.2544 56.4994 42.1199 56.4994 34.3228C56.4994 26.4865 56.4994 18.6503 56.4994 10.8532C56.5386 9.01169 55.559 8.03216 53.7567 8.03216ZM2.78187 28.7591C2.78187 20.0608 2.78187 11.4409 2.78187 2.78187C15.9076 2.78187 28.955 2.78187 42.1199 2.78187C42.1199 4.58421 42.1199 6.30818 42.1199 8.03216C41.2579 8.03216 40.3959 8.03216 39.5339 8.03216C39.5339 6.93509 39.5339 5.87719 39.5339 4.8193C34.0877 4.8193 28.7199 4.8193 23.2737 4.8193C23.2737 7.05263 23.2737 9.24678 23.2737 11.5193C25.2327 12.1462 26.5257 13.4 26.6433 15.5158C26.7608 17.7099 25.6637 19.1205 23.5871 19.8649C23.4304 19.9041 23.3129 20.2175 23.3129 20.4134C23.3129 22.255 23.2737 24.1357 23.352 25.9772C23.352 26.2123 23.7438 26.6433 23.9398 26.6824C26.2906 26.7216 28.6415 26.7216 30.9924 26.7216C30.9924 27.3877 30.9924 28.093 30.9924 28.7591C21.5497 28.7591 12.1854 28.7591 2.78187 28.7591ZM29.3468 36.6345C29.4251 36.5953 29.4643 36.5561 29.5427 36.5169C30.052 36.321 30.6789 35.8117 31.0316 35.9292H31.0707C31.2275 36.0076 31.4234 36.086 31.5801 36.2035C31.5801 36.2035 31.6193 36.2035 31.6193 36.2427C31.776 36.3602 31.9327 36.4386 32.1286 36.5561C32.5596 36.8696 32.9906 37.2614 33.4608 37.5748C33.5784 37.6532 33.5783 37.8883 33.5783 38.045C33.5783 38.3193 33.4608 38.5936 33.4608 38.8678C33.5 39.9649 33.069 40.6702 32.1678 40.9836C32.0895 41.0228 32.0111 41.0228 31.9327 41.062C31.8152 41.1012 31.6976 41.1403 31.5801 41.1403C31.5017 41.1403 31.4234 41.1795 31.345 41.1795C31.345 41.1795 31.345 41.1795 31.3058 41.1795C31.2275 41.1795 31.1491 41.2187 31.0707 41.2187C30.7573 41.2187 30.483 41.1795 30.2088 40.9444C29.9737 40.7485 29.7386 40.5918 29.4643 40.4351C28.4064 39.6514 28.4064 39.6514 28.3672 38.2801C28.1322 37.4965 28.4456 36.9088 29.3468 36.6345ZM23.2737 36.6345C24.1748 35.9684 24.9976 35.655 25.938 36.4386C26.0164 36.5169 26.0947 36.5561 26.2123 36.5953C27.1134 36.9088 27.6228 37.4181 27.3093 38.4368C27.6228 39.4164 26.9959 39.8082 26.369 40.3959C25.3895 41.2971 24.4099 41.4538 23.1953 40.9052C22.7251 40.6702 22.4117 40.4743 22.3725 39.9257C22.3725 39.6514 22.3333 39.3772 22.2158 39.1029C21.7848 37.9275 22.4117 37.2614 23.2737 36.6345ZM22.686 47.0567C22.1766 46.8608 21.3146 46.9392 21.1187 46.5865C20.6485 45.7637 20.4526 44.7842 20.1784 43.8438C20.1392 43.7263 20.2959 43.5304 20.4134 43.4128C20.5702 43.2561 20.7661 43.0994 20.8836 42.9427C21.7064 41.7281 22.7251 41.5321 24.0181 42.1982C24.4099 42.3941 24.6842 42.5509 24.8017 42.9819C24.9977 43.6871 25.2719 44.4316 25.507 45.2544C25.3111 45.5286 25.0368 45.8813 24.8409 46.2339C24.3316 47.1351 23.6655 47.4093 22.686 47.0567ZM30.6789 48.193C30.3655 48.8199 30.0912 49.4859 29.7386 50.0737C29.621 50.2696 29.386 50.4655 29.19 50.4655C28.2889 50.5047 27.3877 50.5047 26.4865 50.4655C26.3298 50.4655 26.1339 50.2696 25.9772 50.0737C25.8205 49.9169 25.7813 49.6819 25.6637 49.4859C24.7626 47.6836 24.7234 47.6444 26.0947 46.1164C26.2515 45.9596 26.4865 45.8421 26.7216 45.8029C27.0743 45.7637 27.4661 45.8029 28.0538 45.8029C29.5819 45.2544 29.9737 46.7433 30.7181 47.6836C30.7965 47.8011 30.7181 48.0754 30.6789 48.193ZM30.3263 45.4503C30.2479 45.3327 30.2088 45.1368 30.2479 45.0193C30.483 44.2357 30.7181 43.4128 31.0316 42.6684V42.6292V42.59C31.0316 42.5509 31.0707 42.5509 31.0707 42.5117C31.2275 42.355 31.5801 42.2374 31.8152 42.1199C31.8936 42.0807 32.0111 42.0415 32.0895 42.0023C33.069 41.5713 33.931 41.6889 34.5971 42.7468C34.8713 43.1386 35.4591 43.5696 35.4199 43.883C35.2631 44.8626 34.8321 45.8029 34.5187 46.7041C34.4795 46.7824 34.2836 46.8216 34.1661 46.8216C33.5 46.9392 32.8339 47.0567 32.0895 47.1743C32.0111 47.1743 31.9327 47.2134 31.8152 47.2134C31.8152 47.2134 31.8152 47.2134 31.776 47.2134C31.6976 47.1743 31.5801 47.1351 31.5017 47.0175C31.4626 46.9783 31.4234 46.9783 31.4234 46.9392C31.2667 46.7433 31.1491 46.5474 30.9924 46.3906C30.7965 46.0772 30.5614 45.7637 30.3263 45.4503ZM55.4415 52.8555C55.4415 54.3444 55.0105 54.7754 53.5216 54.7754C46.9783 54.7754 40.4743 54.7754 33.931 54.7754C32.5988 54.7754 32.1286 54.3052 32.1286 52.9731C32.1286 52.2286 32.1286 51.4842 32.1286 50.7397C34.8713 49.2117 36.752 46.3123 36.752 42.9427C36.752 39.5731 34.9105 36.6345 32.1286 35.1456C32.1286 25.507 32.1286 20.5702 32.1286 10.9316C32.1286 9.67777 32.638 9.16842 33.8526 9.16842C34.7538 9.16842 35.6941 9.16842 36.5953 9.16842C37.0655 9.16842 37.3789 9.28596 37.4965 9.75614C37.7707 10.6965 38.4368 11.0099 39.3772 10.9708C42.4333 10.9316 45.5286 10.9316 48.5848 10.9708C49.4859 10.9708 50.1128 10.6573 50.4263 9.75614C50.583 9.28596 50.8965 9.12924 51.3666 9.12924C52.0719 9.16842 52.7772 9.12924 53.4824 9.12924C55.0497 9.12924 55.4415 9.56023 55.4415 11.1275C55.4415 13.9877 55.4415 16.8479 55.4415 19.7082C55.4415 24.5667 55.4415 29.4643 55.4415 34.3228C55.4415 42.0415 55.4415 45.0976 55.4415 52.8555Z" fill="#FF0000"/>
</svg>
