<svg width="63" height="64" viewBox="0 0 63 64" fill="none" xmlns="http://www.w3.org/2000/svg">
<path d="M62.0691 45.6846C61.8363 45.5101 61.6618 45.3937 61.429 45.2191C60.2072 44.5209 58.9272 43.8227 57.7053 43.1245C57.5308 43.0082 57.4726 42.95 57.4726 42.7173C58.1126 39.3426 58.8108 35.968 59.4508 32.6515C60.6145 26.775 61.7781 20.9567 62.9418 15.0802C63.2327 13.6838 62.4182 11.8219 60.7308 11.531C59.6254 11.2983 58.5199 11.0073 57.4144 10.7746C52.2943 9.7273 47.1741 8.68 41.9958 7.6327C39.7848 7.16723 37.5739 6.81813 35.3629 6.35267C34.3738 6.17812 33.501 6.35267 32.6865 6.9345C32.5119 7.05087 32.3374 7.2836 32.1628 7.45815C31.9301 6.75995 31.6973 6.11993 31.4646 5.47992C31.0573 4.25807 30.5919 3.03622 30.1264 1.81437C29.6027 0.417965 27.8572 -0.222052 26.6354 0.0688646C26.1699 0.185231 25.7626 0.359781 25.2972 0.476148C21.2243 1.81437 17.0351 3.21077 12.8459 4.60717C9.29676 5.77083 5.68939 6.99268 2.14021 8.21453C0.511073 8.79637 -0.303494 10.3091 0.10379 11.9383C0.336523 12.811 0.569256 13.6838 0.860173 14.4983C3.24569 21.6549 5.63121 28.8696 8.07491 36.0262C9.52949 40.2736 10.9841 44.4628 12.4387 48.652C12.9041 50.0484 14.126 50.6884 15.5806 50.4557C15.8133 50.3975 16.046 50.3393 16.2788 50.2811C17.8497 49.8156 19.4207 49.292 21.0498 48.7683C21.2825 48.7101 21.4571 48.7102 21.5734 49.0011C22.9117 51.4448 24.3081 53.8303 25.6463 56.3322C26.0536 57.0886 26.6354 57.4377 27.5081 57.4377C30.1264 57.4377 32.7446 57.4377 35.3629 57.4377C35.4793 57.4377 35.5956 57.3795 35.6538 57.3795C36.0611 57.1467 36.5266 56.9722 36.8757 56.6813C37.8648 55.9831 38.7957 55.2849 39.7848 54.5867C40.0176 54.4121 40.2503 54.2376 40.5412 54.063C40.5412 54.2958 40.5412 54.4703 40.5994 54.6449C40.6576 55.5176 40.6576 56.3904 40.6576 57.2631C40.6576 58.2522 41.0649 59.0086 41.9958 59.4741C43.974 60.4632 45.9523 61.5105 47.8723 62.5578C48.8033 63.0233 49.676 63.1396 50.7233 63.0233C53.2834 62.6742 55.8434 62.3832 58.3453 61.976C59.4508 61.8014 60.5563 61.6269 61.6618 61.3941C62.5345 61.2196 63 60.6377 63 59.765C63 55.6922 63 51.6193 63 47.5465C63 46.7319 62.6509 46.0919 62.0691 45.6846ZM32.221 17.7566C32.7447 15.2547 33.2683 12.6947 33.7919 10.1928C33.8501 9.84367 33.9665 9.55275 34.0829 9.20365C34.2574 8.68 34.6065 8.44727 35.1884 8.56363C38.8539 9.32002 42.5195 10.0182 46.1268 10.7746C50.1997 11.5892 54.2725 12.4619 58.3453 13.3347C58.869 13.451 59.4508 13.5674 59.9745 13.742C60.4981 13.8583 60.6727 14.2074 60.6145 14.7311C59.6835 19.5021 58.7526 24.3313 57.7635 29.1024C56.9489 33.1752 56.0762 37.248 55.2616 41.3209C55.2034 41.5536 55.0871 41.67 54.8543 41.67C54.2725 41.67 53.7488 41.67 53.167 41.67C52.8179 40.3899 52.1197 39.459 51.3051 38.6444C51.247 38.5862 51.0724 38.5281 51.0142 38.5862C50.1997 38.9353 49.3851 39.3426 48.7451 39.9826C48.4542 40.2736 48.2214 40.5645 48.0469 40.9136C47.8141 41.379 47.8723 41.8445 48.1632 42.31C47.756 42.3682 47.4069 42.4263 46.9996 42.4845C46.0686 42.6009 45.1377 42.7754 44.2068 42.8918C44.0322 42.8918 43.9159 42.95 43.7995 42.7173C42.8686 40.9718 41.8794 39.2263 40.9485 37.4808C40.9485 37.4226 40.8903 37.3644 40.9485 37.3062C41.1812 37.5389 41.414 37.7717 41.7049 38.0044C41.7631 38.0626 41.9376 38.1208 42.054 38.1208C44.3813 37.1898 46.5341 36.0844 48.4542 34.4552C49.5596 33.5243 50.4906 32.4188 50.956 30.9642C51.7706 28.4042 49.9087 25.8441 47.2323 25.7277C46.3014 25.6695 45.4286 25.9023 44.6722 26.4841C44.5559 26.6005 44.3813 26.6587 44.2068 26.775C43.974 26.4841 43.7995 26.1932 43.5668 25.9023C41.9958 23.8659 39.0285 23.7495 37.283 25.6114C36.4102 26.6005 36.2357 27.7641 36.2938 29.0442C36.4102 30.4988 36.9339 31.7788 37.6321 32.9425C38.1557 33.757 38.7375 34.5716 39.3194 35.3862C39.4357 35.5607 39.6103 35.7353 39.6685 36.0262C39.5521 36.0262 39.4939 36.0262 39.3776 35.968C38.9121 35.8516 38.5048 35.6771 38.0393 35.6771C35.6538 35.6771 33.2683 35.7934 30.8828 35.8516C30.3009 35.8516 29.7773 36.0844 29.3118 36.4335C29.0209 36.6662 28.73 36.8407 28.3809 37.0735L28.3227 37.0153C28.3809 36.5498 28.4973 36.1425 28.5554 35.6771C29.7773 29.7424 30.9992 23.7495 32.221 17.7566ZM43.1595 48.0701C43.334 48.361 43.4504 48.652 43.5668 49.0011C43.5668 49.0011 43.5086 49.0011 43.5086 49.0592C43.5086 49.1756 43.5086 49.3502 43.4504 49.4665C43.3922 49.6411 43.2758 49.8738 43.1013 49.932C42.9267 49.9902 42.7522 49.8156 42.5776 49.6993C42.2867 49.4083 42.1704 48.652 42.3449 48.3029C42.5195 47.8374 42.9267 47.7792 43.1595 48.0701ZM20.177 43.4155C19.3625 44.1137 19.2461 44.8119 19.7698 45.7428C19.8861 45.9755 20.0025 46.2083 20.177 46.4992C19.7698 46.6737 19.4207 46.7901 19.0716 46.9065C18.0243 47.2556 16.9188 47.6047 15.8715 47.9538C15.1733 48.1865 14.5914 47.9538 14.3587 47.1392C12.9623 43.0082 11.5077 38.8772 10.1695 34.688C7.66763 27.1241 5.16574 19.5603 2.66386 11.9965C2.31476 10.9492 2.43112 10.6582 3.47842 10.3091C6.73669 9.20365 10.0531 8.03998 13.3114 6.87632C17.7333 5.42173 22.2716 3.90897 26.7518 2.45438C27.5081 2.22165 27.8572 2.33802 28.1482 3.0944C28.5554 4.02533 28.9045 5.01445 29.1955 6.00357C29.8937 8.09817 30.5919 10.251 31.2901 12.3456C31.3482 12.5201 31.3483 12.811 31.3483 12.9856C29.9519 19.6767 28.5554 26.3677 27.159 33.0006C26.7518 34.8625 26.4027 36.6662 25.9954 38.5281C25.9372 38.7026 25.8208 38.9353 25.6463 39.0517C24.6572 39.8663 23.6099 40.6808 22.6207 41.4954C21.8062 42.1354 20.9916 42.7173 20.177 43.4155ZM23.6099 48.7102C23.2026 48.4774 22.9117 48.1283 22.7953 47.721C22.7371 47.4883 22.7371 47.3137 22.9117 47.1392C23.0862 46.9646 23.3189 47.0228 23.4935 47.1392C23.9008 47.4301 24.3081 47.721 24.3081 48.1283C24.3081 48.8265 24.0753 48.9429 23.6099 48.7102ZM27.9736 43.6482C25.9954 43.6482 24.0171 43.6482 21.9807 43.6482C21.9807 43.59 21.9807 43.59 21.9807 43.5318C22.4462 43.1827 22.9698 42.7754 23.4353 42.4263C25.7626 40.739 28.0318 39.0517 30.3591 37.3644C30.5337 37.248 30.8246 37.1317 31.0573 37.1317C33.1519 37.0735 35.1884 37.0735 37.283 37.0735C37.3411 37.0735 37.3993 37.0735 37.5157 37.1317C37.3993 37.248 37.283 37.3062 37.2248 37.3644C34.432 39.4008 31.6974 41.379 28.9045 43.4155C28.6136 43.5318 28.2645 43.6482 27.9736 43.6482ZM32.4537 54.7612C32.3955 55.0521 32.3374 55.1103 32.0464 55.1103C31.4646 55.1103 30.7664 54.2376 30.941 53.7139C30.9992 53.5976 31.1737 53.423 31.2901 53.423C31.8719 53.423 32.5119 54.1794 32.4537 54.7612ZM41.2394 43.7064C40.8321 43.9973 40.5994 44.3464 40.5994 44.9282C40.6576 47.3137 40.5994 49.7574 40.5994 52.143C40.5994 52.3757 40.5412 52.4921 40.3667 52.6666C39.0866 53.5975 37.8066 54.5285 36.4684 55.4594C35.8866 55.8667 35.8284 55.8667 35.4793 55.2267C33.6756 51.852 31.8137 48.4774 30.01 45.0446C29.7191 44.5209 29.7191 44.4046 30.2428 44.0555C31.4064 43.1245 32.6283 42.2518 33.7919 41.379C35.3629 40.2154 36.992 39.1099 38.6212 37.9462C38.7957 37.8299 38.9703 37.7135 39.2612 37.5389C40.3085 39.4008 41.3558 41.2627 42.4613 43.1245C42.2867 43.1827 42.1704 43.2991 41.9958 43.3573C41.7631 43.4155 41.4722 43.5318 41.2394 43.7064ZM43.1595 57.2631C43.1013 57.3213 42.8686 57.3213 42.8104 57.2631C42.3449 56.9722 42.1122 56.1576 42.3449 55.634C42.5195 55.2267 42.9267 55.1685 43.1595 55.5176C43.334 55.8085 43.3922 56.1576 43.5668 56.5067C43.3922 56.7394 43.2758 57.0304 43.1595 57.2631ZM45.0213 54.5867C44.7886 54.6449 44.4977 54.3539 44.3231 54.0048C44.2068 53.6557 44.1486 53.2485 44.3231 52.8994C44.4977 52.5502 44.7304 52.4921 45.0213 52.7248C45.3123 52.9575 45.4868 53.3648 45.4868 53.7721C45.4868 54.1794 45.3123 54.5285 45.0213 54.5867ZM47.1159 59.3577C46.825 59.4159 46.5341 59.1832 46.4177 58.7759C46.3596 58.485 46.3014 58.194 46.3014 57.8449C46.3014 57.6122 46.4759 57.4376 46.7087 57.3795C46.9996 57.3213 47.1741 57.4958 47.2323 57.6704C47.3487 57.9613 47.4069 58.2522 47.465 58.5431C47.5232 59.0086 47.4069 59.2995 47.1159 59.3577ZM46.3014 50.6884C46.3014 50.6302 46.3014 50.4556 46.3596 50.3393C46.4759 50.2229 46.5923 49.9902 46.7668 49.9902C46.9414 49.9902 47.1159 50.1066 47.2323 50.2229C47.5232 50.6302 47.5232 51.0957 47.465 51.5611C47.4069 51.9102 46.9996 52.0266 46.7087 51.7357C46.4177 51.5029 46.3014 51.1538 46.3014 50.6884ZM48.6287 47.1974C46.9996 46.3246 45.4286 45.4519 43.7995 44.5791C43.6831 44.5209 43.5668 44.4628 43.4504 44.4046V44.3464C44.4395 44.23 45.3704 44.0555 46.3596 43.9391C48.5705 43.6482 50.7233 43.3573 52.9343 43.0664C53.807 42.95 54.5634 43.0082 55.3198 43.4155C56.8326 44.2882 58.4035 45.1028 59.9163 45.9173C59.9745 45.9755 60.0326 45.9755 60.149 46.0919C59.6835 46.1501 59.3344 46.2664 58.9853 46.2664C56.3089 46.6155 53.5743 46.9646 50.8979 47.3137C50.4906 47.3719 50.0251 47.3719 49.5596 47.4301C49.2687 47.4301 48.9778 47.3719 48.6287 47.1974ZM61.72 59.4159C61.72 60.0559 61.6618 60.1141 61.0218 60.2305C59.1599 60.5214 57.298 60.8123 55.4362 61.045C53.807 61.2778 52.1779 61.4523 50.6069 61.685C50.3742 61.685 50.1415 61.685 49.9087 61.7432C49.9087 61.6269 49.9087 61.5105 49.9087 61.4523C49.9087 57.9613 49.9087 54.4703 49.9087 50.9793C49.9087 50.4556 49.9669 49.932 49.9669 49.3502C49.9669 49.0011 50.0833 48.8265 50.4324 48.7683C52.2943 48.4774 54.1561 48.1865 56.018 47.9538C57.5889 47.721 59.2181 47.5465 60.789 47.3137C60.8472 47.3137 60.8472 47.3137 60.9054 47.3137C61.6036 47.2556 61.7781 47.3719 61.7781 48.0701C61.7781 51.7939 61.72 55.634 61.72 59.4159Z" fill="#FF0000"/>
<path d="M23.7837 32.4786C23.8419 32.2459 23.9001 32.1877 23.9001 32.0713C24.1328 30.7331 24.4237 29.3367 24.6565 27.9985C24.8892 26.7185 25.0637 25.4384 25.2965 24.1584C25.3547 23.9257 25.3547 23.7511 25.1801 23.5184C23.1437 21.7147 21.1655 19.8528 19.129 18.0491C19.0127 17.9328 18.8963 17.8746 18.7799 17.8164C18.7799 17.8746 18.7218 17.8746 18.7218 17.9328C18.1981 20.7838 17.6745 23.5766 17.209 26.4275C17.209 26.5439 17.2672 26.7185 17.3254 26.7766C19.129 28.4058 20.9327 30.0931 22.7364 31.7222C23.0855 31.955 23.4346 32.1877 23.7837 32.4786Z" fill="#FF0000"/>
<path d="M9.76094 18.1631C9.58639 18.0468 9.47002 17.9304 9.23729 17.7559C9.06274 18.5122 8.94637 19.2104 8.77182 19.9086C8.71364 20.1996 8.77182 20.3741 8.94637 20.5487C9.41184 21.0141 9.8773 21.4214 10.401 21.8869C10.4591 21.9451 10.5755 22.0032 10.6919 22.0614C10.7501 22.0032 10.7501 22.0032 10.7501 21.9451C10.9246 21.1887 11.0992 20.4323 11.2155 19.6759C11.2155 19.6177 11.1573 19.4432 11.0992 19.385C10.6337 18.9777 10.2264 18.5704 9.76094 18.1631Z" fill="#FF0000"/>
<path d="M9.35468 15.1375C9.52923 15.3702 9.76196 15.603 9.9947 15.8357C10.0529 15.8939 10.2274 15.8939 10.402 15.8939C10.402 15.7775 10.402 15.6612 10.3438 15.5448C9.52923 14.4393 8.71466 13.3338 7.84191 12.2283C7.72554 12.0538 7.60918 11.9374 7.37644 11.9956C7.14371 12.112 7.02734 12.2865 7.02734 12.5193C7.02734 13.9738 7.02734 15.4866 7.02734 16.9412C7.49281 16.8248 7.60918 16.8248 7.55099 16.1848C7.49281 15.3121 7.90009 15.0211 8.65648 14.8466C8.94739 14.8466 9.18013 14.9048 9.35468 15.1375ZM7.60918 14.7884C7.49281 14.0902 7.37644 13.392 7.49281 12.5774C7.95828 13.2175 8.36556 13.7411 8.83103 14.3229C8.36556 14.5557 8.01646 14.672 7.60918 14.7884Z" fill="#FF0000"/>
<path d="M35.7121 22.4117C35.9448 22.5862 36.1776 22.5862 36.4103 22.4699C37.2831 22.0626 38.0976 21.5389 38.7376 20.8407C39.0286 20.5498 39.1449 20.1425 39.1449 19.7934C39.1449 18.5716 38.0976 17.8734 37.1085 18.397C36.8176 18.5716 36.643 18.5134 36.4685 18.2807C36.1194 17.8734 35.7121 17.6988 35.1885 17.757C34.3739 17.8152 33.7921 18.6879 33.9666 19.5607C34.1993 20.7244 34.8394 21.5971 35.7121 22.4117Z" fill="#FF0000"/>
<path d="M36.0029 16.0698C36.1193 15.8952 36.2356 15.6625 36.352 15.4879C36.5265 15.197 36.7593 15.0807 37.1084 15.197C37.3411 15.2552 37.5738 15.3134 37.7484 15.3134C37.9811 15.3716 38.0975 15.4879 38.1557 15.7207C38.2139 16.0116 38.272 16.3025 38.3302 16.5934C38.3884 16.8843 38.563 17.0589 38.9121 17.0589C38.9121 16.768 38.8539 16.5352 38.8539 16.3025C38.6793 15.0807 38.563 13.8006 38.3884 12.5788C38.3884 12.346 38.272 12.2879 38.0393 12.2297C37.7484 12.1715 37.5738 12.2879 37.4575 12.5206C36.7593 13.6843 36.0611 14.8479 35.4211 16.0116C35.3629 16.128 35.3629 16.1861 35.3047 16.3025C35.6538 16.4771 35.8283 16.3607 36.0029 16.0698ZM37.7484 12.9279C37.8066 12.9279 37.8066 12.9279 37.8648 12.9279C37.9229 13.5679 38.0393 14.2079 38.0975 14.9061C37.632 14.7897 37.2247 14.7316 36.7593 14.6734C37.1084 14.0915 37.4575 13.5097 37.7484 12.9279Z" fill="#FF0000"/>
<path d="M59.2762 49.4648C58.7526 49.4648 58.2871 49.9885 58.2871 50.5703C58.2871 51.1522 58.8108 51.6758 59.2762 51.6758C59.7417 51.6758 60.2072 51.094 60.2072 50.5121C60.2072 49.9303 59.7999 49.4648 59.2762 49.4648Z" fill="#FF0000"/>
<path d="M52.4689 57.9031C52.1198 58.0776 51.8289 58.3104 51.7126 58.7177C51.4798 59.3577 52.0035 60.0559 52.6435 60.0559C52.9926 60.0559 53.2835 59.9395 53.4581 59.5904C53.6326 59.1249 53.749 58.7177 53.3999 58.3104C53.109 57.9613 52.7598 57.7867 52.4689 57.9031Z" fill="#FF0000"/>
<path d="M55.3192 53.8884C54.912 54.2957 54.9701 55.2266 55.4356 55.5757C55.7265 55.8084 56.0174 55.8084 56.3084 55.6339C56.6575 55.4011 56.8902 55.1102 56.8902 54.6448C56.832 54.4702 56.832 54.2957 56.7738 54.1211C56.5411 53.4811 55.8429 53.3647 55.3192 53.8884Z" fill="#FF0000"/>
<path d="M39.028 40.5067C38.4462 40.2158 37.748 40.7394 37.8061 41.3213C37.8643 41.6122 37.9225 41.9031 38.0971 42.194C38.3298 42.5431 38.7953 42.6595 39.1444 42.5431C39.4935 42.4268 39.7262 42.0777 39.7262 41.6122C39.7262 41.0885 39.4353 40.7394 39.028 40.5067Z" fill="#FF0000"/>
<path d="M33.3259 44.3477C32.8022 44.3477 32.4531 44.6968 32.4531 45.2786C32.4531 45.9768 32.9186 46.5004 33.5004 46.5004C33.9659 46.5004 34.3732 46.0932 34.3732 45.5695C34.4314 44.9877 33.9077 44.4058 33.3259 44.3477Z" fill="#FF0000"/>
<path d="M36.9915 50.9785C36.526 50.9785 36.0605 51.444 36.0605 51.9095C36.0605 52.4913 36.526 53.0731 37.0497 53.1313C37.5733 53.1313 37.9224 52.724 37.9806 52.084C38.0388 51.6185 37.5151 50.9785 36.9915 50.9785Z" fill="#FF0000"/>
<path d="M30.36 39.752C29.7781 39.8683 29.2545 40.1011 28.8472 40.6247C28.7308 40.7993 28.789 40.9156 29.0799 40.9156C29.6036 40.7993 30.0691 40.5665 30.4763 40.1011C30.5345 40.0429 30.5345 39.9265 30.5345 39.8683C30.5345 39.8101 30.4182 39.752 30.36 39.752Z" fill="#FF0000"/>
<path d="M54.1556 43.8223C53.9228 43.3569 52.701 43.2987 52.1191 43.706C52.4682 44.1132 53.6319 44.1714 54.1556 43.8223Z" fill="#FF0000"/>
<path d="M57.649 45.9756C57.7072 45.9756 57.7653 45.8593 57.8817 45.7429C57.8235 45.6847 57.7072 45.5684 57.649 45.5684C57.1835 45.5684 56.718 45.5684 56.1944 45.6265C56.078 45.6265 55.9617 45.7429 55.7871 45.8593C56.4271 46.2084 57.009 46.2084 57.649 45.9756Z" fill="#FF0000"/>
<path d="M50.8977 44.0548C50.4323 43.7057 49.4432 43.7057 48.8613 44.0548C49.3268 44.5203 50.6068 44.5203 50.8977 44.0548Z" fill="#FF0000"/>
<path d="M51.4205 46.6742C51.3623 46.616 51.3041 46.4996 51.1877 46.4415C50.7223 46.2669 50.1986 46.2669 49.7331 46.4415C49.675 46.4415 49.5586 46.5578 49.5586 46.616C49.5586 46.6742 49.675 46.7906 49.7331 46.7906C50.0241 46.8487 50.2568 46.9069 50.4895 46.9651C50.7223 46.9069 50.955 46.9069 51.1295 46.8487C51.2459 46.8487 51.3041 46.7324 51.4205 46.6742Z" fill="#FF0000"/>
<path d="M49.5603 45.6253C49.5021 45.5671 49.4439 45.4508 49.3857 45.4508C48.9202 45.3926 48.4548 45.3926 48.0475 45.3926C47.9311 45.3926 47.7566 45.5089 47.582 45.6253C47.6402 45.7417 47.6402 45.7417 47.6984 45.7417C48.2802 45.9744 48.8621 45.9744 49.4439 45.7999C49.5021 45.7417 49.5603 45.6835 49.5603 45.6253Z" fill="#FF0000"/>
<path d="M54.3881 46.0328C53.9226 45.9746 53.5153 45.9746 53.0499 45.9746C52.9335 45.9746 52.7589 46.091 52.6426 46.2073C52.6426 46.2655 52.6426 46.2655 52.6426 46.3237C53.1662 46.5564 53.7481 46.5564 54.3299 46.4401C54.3881 46.4401 54.5044 46.3237 54.5626 46.2655C54.5626 46.2073 54.5044 46.091 54.3881 46.0328Z" fill="#FF0000"/>
<path d="M54.0968 44.8706C54.155 44.9288 54.2132 44.9288 54.2132 44.9288C54.7368 44.9288 55.2605 44.9288 55.726 44.9288C55.7842 44.9288 55.9005 44.8124 55.9587 44.7542C55.9005 44.696 55.7842 44.5797 55.726 44.5797C55.2605 44.5215 54.8532 44.5215 54.3878 44.5215C54.2714 44.5215 54.0968 44.6379 53.9805 44.7542C54.0387 44.8124 54.0968 44.8706 54.0968 44.8706Z" fill="#FF0000"/>
<path d="M47.7556 44.578C47.6974 44.5198 47.6392 44.4035 47.5228 44.4035C47.2901 44.3453 46.9992 44.3453 46.7665 44.2871C46.5337 44.3453 46.2428 44.3453 46.0101 44.4035C45.9519 44.4035 45.8355 44.5198 45.7773 44.578C45.8355 44.6362 45.8937 44.7526 45.9519 44.7526C46.4755 44.9271 46.9992 44.9271 47.4647 44.7526C47.6392 44.6944 47.6974 44.6362 47.7556 44.578Z" fill="#FF0000"/>
<path d="M51.0148 45.3359C51.1312 45.3941 51.3057 45.4523 51.4221 45.4523C51.8876 45.5104 52.4112 45.5686 52.8767 45.2195C52.8185 45.1613 52.7603 45.1032 52.7603 45.045C52.1785 44.8704 51.5966 44.8704 51.0148 45.045C50.9566 45.045 50.8984 45.1613 50.8984 45.1613C50.8984 45.2195 50.9566 45.3359 51.0148 45.3359Z" fill="#FF0000"/>
</svg>
