<svg xmlns="http://www.w3.org/2000/svg" width="157" height="38" viewBox="0 0 157 38" fill="none"><path d="M107.029 17.8488V11.1719H108.037V14.3604H108.118L110.919 11.1719H112.187L109.494 14.1778L112.197 17.8488H110.984L108.826 14.8657L108.037 15.7721V17.8488H107.029Z" fill="black"></path><path d="M114.022 14.8755V17.8488H113.048V12.8411H113.983V13.6562H114.045C114.161 13.391 114.341 13.178 114.587 13.0172C114.834 12.8563 115.146 12.7759 115.522 12.7759C115.863 12.7759 116.162 12.8476 116.419 12.9911C116.675 13.1324 116.874 13.3432 117.015 13.6236C117.157 13.9039 117.227 14.2506 117.227 14.6636V17.8488H116.252V14.781C116.252 14.418 116.158 14.1343 115.969 13.93C115.78 13.7235 115.52 13.6203 115.19 13.6203C114.964 13.6203 114.763 13.6692 114.587 13.767C114.413 13.8648 114.275 14.0083 114.172 14.1974C114.072 14.3843 114.022 14.6103 114.022 14.8755Z" fill="black"></path><path d="M120.644 17.9499C120.175 17.9499 119.765 17.8423 119.415 17.6271C119.065 17.412 118.793 17.1109 118.6 16.724C118.406 16.3372 118.31 15.8851 118.31 15.3678C118.31 14.8483 118.406 14.3941 118.6 14.005C118.793 13.616 119.065 13.3138 119.415 13.0987C119.765 12.8835 120.175 12.7759 120.644 12.7759C121.113 12.7759 121.523 12.8835 121.873 13.0987C122.223 13.3138 122.495 13.616 122.688 14.005C122.882 14.3941 122.978 14.8483 122.978 15.3678C122.978 15.8851 122.882 16.3372 122.688 16.724C122.495 17.1109 122.223 17.412 121.873 17.6271C121.523 17.8423 121.113 17.9499 120.644 17.9499ZM120.647 17.1316C120.952 17.1316 121.204 17.0512 121.404 16.8903C121.604 16.7295 121.751 16.5154 121.847 16.2481C121.945 15.9807 121.994 15.6862 121.994 15.3645C121.994 15.045 121.945 14.7516 121.847 14.4843C121.751 14.2148 121.604 13.9985 121.404 13.8355C121.204 13.6725 120.952 13.591 120.647 13.591C120.341 13.591 120.087 13.6725 119.884 13.8355C119.684 13.9985 119.536 14.2148 119.438 14.4843C119.342 14.7516 119.294 15.045 119.294 15.3645C119.294 15.6862 119.342 15.9807 119.438 16.2481C119.536 16.5154 119.684 16.7295 119.884 16.8903C120.087 17.0512 120.341 17.1316 120.647 17.1316Z" fill="black"></path><path d="M125 17.8488L123.526 12.8411H124.533L125.515 16.5187H125.564L126.548 12.8411H127.556L128.534 16.5024H128.583L129.557 12.8411H130.565L129.095 17.8488H128.1L127.083 14.2332H127.008L125.991 17.8488H125Z" fill="black"></path><path d="M131.053 11.1719H132.197L133.942 14.2071H134.013L135.758 11.1719H136.902L134.48 15.2276V17.8488H133.475V15.2276L131.053 11.1719Z" fill="black"></path><path d="M139.059 17.9499C138.59 17.9499 138.18 17.8423 137.83 17.6271C137.48 17.412 137.209 17.1109 137.015 16.724C136.822 16.3372 136.725 15.8851 136.725 15.3678C136.725 14.8483 136.822 14.3941 137.015 14.005C137.209 13.616 137.48 13.3138 137.83 13.0987C138.18 12.8835 138.59 12.7759 139.059 12.7759C139.529 12.7759 139.939 12.8835 140.289 13.0987C140.638 13.3138 140.91 13.616 141.104 14.005C141.297 14.3941 141.394 14.8483 141.394 15.3678C141.394 15.8851 141.297 16.3372 141.104 16.724C140.91 17.1109 140.638 17.412 140.289 17.6271C139.939 17.8423 139.529 17.9499 139.059 17.9499ZM139.063 17.1316C139.367 17.1316 139.619 17.0512 139.819 16.8903C140.019 16.7295 140.167 16.5154 140.262 16.2481C140.36 15.9807 140.409 15.6862 140.409 15.3645C140.409 15.045 140.36 14.7516 140.262 14.4843C140.167 14.2148 140.019 13.9985 139.819 13.8355C139.619 13.6725 139.367 13.591 139.063 13.591C138.756 13.591 138.502 13.6725 138.3 13.8355C138.1 13.9985 137.951 14.2148 137.853 14.4843C137.758 14.7516 137.71 15.045 137.71 15.3645C137.71 15.6862 137.758 15.9807 137.853 16.2481C137.951 16.5154 138.1 16.7295 138.3 16.8903C138.502 17.0512 138.756 17.1316 139.063 17.1316Z" fill="black"></path><path d="M145.654 15.7721V12.8411H146.632V17.8488H145.674V16.9816H145.621C145.506 17.2489 145.322 17.4717 145.067 17.65C144.815 17.826 144.501 17.914 144.125 17.914C143.803 17.914 143.519 17.8434 143.271 17.7021C143.025 17.5587 142.832 17.3468 142.691 17.0664C142.551 16.786 142.482 16.4393 142.482 16.0264V12.8411H143.457V15.909C143.457 16.2502 143.551 16.5219 143.74 16.724C143.929 16.9262 144.175 17.0272 144.477 17.0272C144.66 17.0272 144.841 16.9816 145.022 16.8903C145.204 16.799 145.355 16.661 145.475 16.4763C145.596 16.2915 145.656 16.0568 145.654 15.7721Z" fill="black"></path><path d="M147.942 17.8488V12.8411H148.884V13.6366H148.936C149.028 13.3671 149.188 13.1552 149.419 13.0009C149.651 12.8444 149.914 12.7661 150.208 12.7661C150.269 12.7661 150.34 12.7683 150.423 12.7726C150.508 12.777 150.574 12.7824 150.622 12.7889V13.7214C150.583 13.7105 150.513 13.6986 150.413 13.6855C150.313 13.6703 150.213 13.6627 150.113 13.6627C149.883 13.6627 149.677 13.7116 149.497 13.8094C149.319 13.905 149.178 14.0387 149.073 14.2104C148.969 14.3799 148.917 14.5734 148.917 14.7907V17.8488H147.942Z" fill="black"></path><path fill-rule="evenodd" clip-rule="evenodd" d="M152.699 23.0186C152.699 21.921 153.419 21.207 154.527 21.207C155.635 21.207 156.354 21.921 156.354 23.0186C156.354 24.1161 155.635 24.8301 154.527 24.8301C153.419 24.8301 152.699 24.1161 152.699 23.0186ZM155.944 23.0186C155.944 22.1501 155.39 21.5853 154.527 21.5853C153.664 21.5853 153.104 22.1501 153.104 23.0186C153.104 23.887 153.664 24.4518 154.527 24.4518C155.39 24.4518 155.944 23.887 155.944 23.0186ZM153.584 23.0292C153.584 22.4112 153.951 22.0329 154.548 22.0329C155.006 22.0329 155.278 22.2353 155.417 22.5657L155.044 22.7468C154.958 22.539 154.809 22.4431 154.559 22.4431C154.223 22.4431 154.021 22.6563 154.021 23.0292C154.021 23.3969 154.223 23.6153 154.559 23.6153C154.82 23.6153 154.99 23.5141 155.076 23.2903L155.427 23.4448C155.283 23.8178 155.012 24.0202 154.548 24.0202C153.951 24.0202 153.584 23.642 153.584 23.0292ZM107.027 29.0393V22.3623H109.473C109.946 22.3623 110.339 22.4406 110.649 22.597C110.96 22.7514 111.193 22.9611 111.347 23.2263C111.501 23.4893 111.579 23.7859 111.579 24.1163C111.579 24.3945 111.528 24.6293 111.425 24.8205C111.323 25.0096 111.186 25.1618 111.015 25.277C110.845 25.39 110.658 25.4726 110.454 25.5247V25.5899C110.676 25.6008 110.892 25.6725 111.103 25.8051C111.316 25.9355 111.492 26.1214 111.631 26.3626C111.77 26.6039 111.839 26.8973 111.839 27.2429C111.839 27.5841 111.759 27.8906 111.598 28.1623C111.44 28.4318 111.194 28.6459 110.861 28.8045C110.529 28.961 110.104 29.0393 109.587 29.0393H107.027ZM108.035 28.1753H109.489C109.971 28.1753 110.317 28.0818 110.526 27.8949C110.734 27.708 110.839 27.4743 110.839 27.194C110.839 26.9831 110.785 26.7897 110.679 26.6136C110.572 26.4376 110.42 26.2974 110.222 26.1931C110.027 26.0887 109.794 26.0366 109.525 26.0366H108.035V28.1753ZM108.035 25.2509H109.384C109.611 25.2509 109.814 25.2074 109.994 25.1205C110.177 25.0335 110.321 24.9118 110.428 24.7553C110.536 24.5966 110.591 24.4097 110.591 24.1946C110.591 23.9185 110.494 23.687 110.301 23.5001C110.107 23.3132 109.81 23.2197 109.411 23.2197H108.035V25.2509ZM115.065 29.1403C114.596 29.1403 114.186 29.0327 113.836 28.8176C113.486 28.6024 113.215 28.3014 113.021 27.9145C112.828 27.5276 112.731 27.0755 112.731 26.5582C112.731 26.0388 112.828 25.5845 113.021 25.1954C113.215 24.8064 113.486 24.5043 113.836 24.2891C114.186 24.0739 114.596 23.9663 115.065 23.9663C115.535 23.9663 115.945 24.0739 116.295 24.2891C116.644 24.5043 116.916 24.8064 117.11 25.1954C117.303 25.5845 117.4 26.0388 117.4 26.5582C117.4 27.0755 117.303 27.5276 117.11 27.9145C116.916 28.3014 116.644 28.6024 116.295 28.8176C115.945 29.0327 115.535 29.1403 115.065 29.1403ZM115.069 28.322C115.373 28.322 115.625 28.2416 115.825 28.0807C116.025 27.9199 116.173 27.7058 116.268 27.4385C116.366 27.1711 116.415 26.8766 116.415 26.555C116.415 26.2355 116.366 25.942 116.268 25.6747C116.173 25.4052 116.025 25.1889 115.825 25.0259C115.625 24.8629 115.373 24.7814 115.069 24.7814C114.762 24.7814 114.508 24.8629 114.306 25.0259C114.106 25.1889 113.957 25.4052 113.859 25.6747C113.764 25.942 113.716 26.2355 113.716 26.555C113.716 26.8766 113.764 27.1711 113.859 27.4385C113.957 27.7058 114.106 27.9199 114.306 28.0807C114.508 28.2416 114.762 28.322 115.069 28.322ZM119.28 28.8273C119.597 29.0338 119.958 29.1371 120.363 29.1371C120.667 29.1371 120.915 29.086 121.106 28.9838C121.297 28.8817 121.447 28.7621 121.556 28.6252C121.667 28.4883 121.751 28.3666 121.81 28.2601H121.892V29.0393H122.844V22.3623H121.869V24.8433H121.81C121.751 24.739 121.669 24.6184 121.562 24.4815C121.458 24.3445 121.31 24.225 121.119 24.1228C120.93 24.0185 120.68 23.9663 120.369 23.9663C119.967 23.9663 119.607 24.0685 119.29 24.2728C118.973 24.4771 118.723 24.7716 118.54 25.1563C118.36 25.541 118.269 26.004 118.269 26.5452C118.269 27.0864 118.359 27.5504 118.537 27.9373C118.717 28.322 118.965 28.6187 119.28 28.8273ZM121.288 28.084C121.095 28.2318 120.858 28.3057 120.578 28.3057C120.289 28.3057 120.045 28.2285 119.847 28.0742C119.652 27.9177 119.504 27.7058 119.404 27.4385C119.304 27.1711 119.254 26.8701 119.254 26.5354C119.254 26.205 119.303 25.9083 119.401 25.6454C119.501 25.3824 119.649 25.1748 119.844 25.0227C120.04 24.8705 120.284 24.7944 120.578 24.7944C120.862 24.7944 121.101 24.8672 121.295 25.0129C121.488 25.1585 121.635 25.3617 121.735 25.6225C121.835 25.8834 121.885 26.1876 121.885 26.5354C121.885 26.8875 121.834 27.1961 121.732 27.4613C121.632 27.7265 121.484 27.934 121.288 28.084ZM124.851 30.9171C124.705 30.9171 124.573 30.9052 124.453 30.8813C124.334 30.8596 124.245 30.8356 124.186 30.8096L124.421 30.0108C124.599 30.0586 124.758 30.0793 124.897 30.0728C125.036 30.0662 125.159 30.0141 125.265 29.9163C125.374 29.8185 125.469 29.6587 125.552 29.437L125.673 29.1045L123.84 24.0315H124.884L126.152 27.9177H126.204L127.472 24.0315H128.519L126.455 29.7076C126.359 29.9684 126.238 30.189 126.09 30.3694C125.942 30.552 125.766 30.6889 125.562 30.7802C125.357 30.8715 125.121 30.9171 124.851 30.9171ZM129.513 22.3623V29.0393H130.521V26.1279H133.357V25.2639H130.521V23.2295H133.654V22.3623H129.513ZM136.254 29.1501C135.936 29.1501 135.649 29.0914 135.393 28.9741C135.137 28.8545 134.933 28.6817 134.783 28.4557C134.636 28.2296 134.562 27.9525 134.562 27.6243C134.562 27.3418 134.616 27.1092 134.725 26.9266C134.833 26.7441 134.98 26.5995 135.165 26.493C135.35 26.3865 135.556 26.3061 135.784 26.2518C136.012 26.1974 136.245 26.1561 136.482 26.1279L137.212 26.0431C137.399 26.0192 137.535 25.9812 137.62 25.929C137.704 25.8768 137.747 25.7921 137.747 25.6747V25.6519C137.747 25.3672 137.666 25.1465 137.506 24.9901C137.347 24.8336 137.11 24.7553 136.795 24.7553C136.467 24.7553 136.208 24.8281 136.019 24.9737C135.832 25.1172 135.703 25.277 135.631 25.453L134.715 25.2443C134.824 24.9401 134.982 24.6945 135.191 24.5075C135.402 24.3184 135.644 24.1815 135.918 24.0967C136.192 24.0098 136.48 23.9663 136.782 23.9663C136.982 23.9663 137.194 23.9902 137.418 24.0381C137.644 24.0837 137.854 24.1685 138.05 24.2924C138.248 24.4162 138.41 24.5934 138.536 24.8238C138.662 25.052 138.725 25.3487 138.725 25.7138V29.0393H137.773V28.3546H137.734C137.671 28.4807 137.576 28.6046 137.45 28.7263C137.324 28.848 137.162 28.9491 136.964 29.0295C136.767 29.1099 136.53 29.1501 136.254 29.1501ZM136.466 28.3676C136.735 28.3676 136.965 28.3144 137.157 28.2079C137.35 28.1014 137.497 27.9623 137.597 27.7906C137.699 27.6167 137.75 27.4309 137.75 27.2331V26.5876C137.715 26.6223 137.648 26.6549 137.548 26.6854C137.45 26.7136 137.338 26.7386 137.212 26.7604C137.086 26.7799 136.963 26.7984 136.844 26.8158C136.724 26.831 136.624 26.844 136.544 26.8549C136.355 26.8788 136.182 26.919 136.025 26.9755C135.871 27.032 135.747 27.1135 135.654 27.22C135.563 27.3244 135.517 27.4635 135.517 27.6374C135.517 27.8786 135.606 28.0612 135.784 28.1851C135.962 28.3068 136.19 28.3676 136.466 28.3676ZM140.881 28.811C141.231 29.0306 141.648 29.1403 142.133 29.1403C142.528 29.1403 142.873 29.0675 143.166 28.9219C143.462 28.7763 143.698 28.5763 143.874 28.322C144.05 28.0677 144.155 27.7786 144.19 27.4548H143.241C143.2 27.6352 143.127 27.7895 143.023 27.9177C142.921 28.046 142.793 28.1449 142.641 28.2144C142.491 28.2818 142.324 28.3155 142.139 28.3155C141.863 28.3155 141.623 28.2427 141.419 28.0971C141.217 27.9514 141.06 27.746 140.949 27.4809C140.838 27.2157 140.783 26.9005 140.783 26.5354C140.783 26.1789 140.839 25.8703 140.952 25.6095C141.066 25.3465 141.223 25.1444 141.425 25.0031C141.63 24.8596 141.868 24.7879 142.139 24.7879C142.45 24.7879 142.698 24.8727 142.883 25.0422C143.069 25.2117 143.189 25.4139 143.241 25.6486H144.19C144.155 25.3117 144.045 25.0172 143.861 24.7651C143.678 24.513 143.438 24.3174 143.14 24.1783C142.842 24.037 142.503 23.9663 142.123 23.9663C141.651 23.9663 141.242 24.0761 140.894 24.2956C140.546 24.5151 140.277 24.8205 140.085 25.2117C139.894 25.6008 139.798 26.0496 139.798 26.5582C139.798 27.0603 139.892 27.5059 140.079 27.8949C140.266 28.284 140.533 28.5893 140.881 28.811ZM147.57 24.0315V24.814H146.543V27.5689C146.543 27.758 146.571 27.9003 146.628 27.996C146.684 28.0894 146.757 28.1536 146.846 28.1883C146.937 28.2209 147.036 28.2372 147.143 28.2372C147.221 28.2372 147.29 28.2318 147.348 28.2209C147.407 28.2101 147.453 28.2014 147.485 28.1949L147.661 29.0001C147.605 29.0219 147.524 29.0436 147.42 29.0653C147.316 29.0892 147.185 29.1023 147.029 29.1045C146.772 29.1088 146.533 29.0632 146.311 28.9675C146.09 28.8719 145.91 28.7241 145.774 28.5241C145.637 28.3242 145.568 28.0731 145.568 27.771V24.814H144.835V24.0315H145.568V22.8318H146.543V24.0315H147.57ZM151.437 25.4106L152.32 25.2541C152.22 24.8629 152.015 24.551 151.704 24.3184C151.393 24.0837 150.967 23.9663 150.426 23.9663C150.05 23.9663 149.716 24.0294 149.425 24.1554C149.134 24.2793 148.906 24.4521 148.74 24.6738C148.575 24.8955 148.493 25.1541 148.493 25.4497C148.493 25.8062 148.603 26.1007 148.825 26.3333C149.049 26.5658 149.395 26.7354 149.862 26.8419L150.71 27.0277C150.949 27.082 151.126 27.1625 151.241 27.269C151.358 27.3755 151.417 27.5069 151.417 27.6634C151.417 27.8569 151.321 28.021 151.13 28.1557C150.939 28.2883 150.683 28.3546 150.364 28.3546C150.071 28.3546 149.833 28.2927 149.65 28.1688C149.467 28.0427 149.347 27.8569 149.288 27.6113L148.346 27.7547C148.426 28.1981 148.644 28.5404 148.998 28.7817C149.352 29.0208 149.81 29.1403 150.37 29.1403C150.775 29.1403 151.13 29.074 151.437 28.9415C151.745 28.8089 151.985 28.6263 152.157 28.3937C152.331 28.159 152.418 27.8917 152.418 27.5917C152.418 27.2374 152.305 26.9494 152.079 26.7278C151.853 26.5061 151.509 26.342 151.049 26.2355L150.253 26.0529C149.977 25.9877 149.777 25.904 149.653 25.8018C149.529 25.6997 149.467 25.5649 149.467 25.3976C149.467 25.2041 149.56 25.0466 149.745 24.9248C149.929 24.801 150.16 24.739 150.436 24.739C150.638 24.739 150.806 24.7716 150.941 24.8368C151.076 24.902 151.182 24.9857 151.261 25.0879C151.341 25.19 151.4 25.2976 151.437 25.4106Z" fill="#E4002B"></path><path d="M13.8121 17.4625C13.6043 16.5793 13.1738 15.8668 12.5207 15.325C11.8676 14.7906 11.0734 14.5234 10.1383 14.5234C9.15859 14.5234 8.35703 14.7832 7.72617 15.2953C7.11758 15.8074 6.73164 16.5348 6.56836 17.4625H13.8121ZM6.39023 21.1363C6.39023 23.8676 7.67422 25.2332 10.2422 25.2332C11.6152 25.2332 12.6543 24.6766 13.3594 23.5559H19.4824C18.243 27.6602 15.1555 29.716 10.2125 29.716C8.69844 29.716 7.31054 29.4934 6.04883 29.048C4.78711 28.5805 3.70351 27.9273 2.79805 27.0887C1.91484 26.25 1.22461 25.248 0.734765 24.0828C0.244922 22.9176 0 21.6113 0 20.1641C0 18.7168 0.230078 17.3289 0.697656 16.1414C1.16523 14.9316 1.82578 13.9 2.69414 13.0613C3.55508 12.2227 4.59414 11.577 5.81133 11.1391C7.05078 10.6715 8.43867 10.4414 9.975 10.4414C11.5113 10.4414 12.8547 10.6715 14.0719 11.1391C15.2816 11.5844 16.3133 12.2375 17.1519 13.0984C17.9906 13.9594 18.6363 15.0207 19.0742 16.2824C19.5195 17.5219 19.7422 18.9172 19.7422 20.4832V21.1512H6.39765L6.39023 21.1363Z" fill="black"></path><path d="M65.7574 15.7121C64.5922 15.1035 63.4492 14.7992 62.3285 14.7992C61.7422 14.7992 61.2672 14.918 60.8961 15.148C60.5473 15.3781 60.3691 15.6973 60.3691 16.0906C60.3691 16.2984 60.3914 16.4766 60.4359 16.6176C60.5027 16.7363 60.6363 16.8477 60.8219 16.9664C61.0297 17.0852 61.3266 17.1891 61.6977 17.2781C62.091 17.3746 62.6105 17.4859 63.234 17.627C64.9855 17.9758 66.2918 18.6066 67.1527 19.5195C68.0137 20.4027 68.4441 21.5457 68.4441 22.9484C68.4441 23.9949 68.2363 24.9449 67.8133 25.7836C67.3902 26.6223 66.8113 27.3348 66.0617 27.9211C65.3121 28.4777 64.4141 28.9156 63.3676 29.2125C62.3211 29.5391 61.1633 29.7023 59.9016 29.7023C57.4746 29.7023 55.0848 29.0121 52.7246 27.6391L55.0328 23.1562C56.8066 24.366 58.484 24.9746 60.0723 24.9746C60.6586 24.9746 61.1336 24.8484 61.5047 24.5887C61.8758 24.3289 62.0613 24.0023 62.0613 23.609C62.0613 23.3789 62.0242 23.1859 61.9574 23.0523C61.9129 22.8891 61.7941 22.748 61.6086 22.6293C61.423 22.4883 61.141 22.3695 60.7699 22.2805C60.4211 22.1617 59.9535 22.0504 59.3672 21.9316C57.4078 21.5383 56.0348 20.952 55.2406 20.1801C54.4687 19.3859 54.0828 18.3023 54.0828 16.9293C54.0828 15.9273 54.2684 15.0293 54.6394 14.2352C55.0105 13.4187 55.5523 12.7285 56.25 12.1719C56.9477 11.6152 57.7863 11.1773 58.766 10.8805C59.768 10.5762 60.8738 10.4277 62.091 10.4277C64.0727 10.4277 66.0023 10.8137 67.8652 11.5855L65.7277 15.7121H65.7574Z" fill="black"></path><path d="M77.9969 0H71.666V29.0418H77.9969V0Z" fill="black"></path><path d="M89.1742 26.5926L80.498 11.0957H87.8457L92.6402 20.2988L97.2938 11.0957H104.575L90.1539 38H83.0512L89.1742 26.5926Z" fill="black"></path><path fill-rule="evenodd" clip-rule="evenodd" d="M8.66992 37.5406C9.56055 37.6891 10.4809 37.7707 11.4086 37.7707C20.493 37.7707 27.8629 30.4082 27.8629 21.3164H22.3781C22.3781 27.3727 17.4648 32.2859 11.4086 32.2859C10.4586 32.2859 9.5457 32.1672 8.66992 31.9371V37.5406Z" fill="#E4002B"></path><path d="M43.1793 11.0969V12.893C41.7543 11.7129 39.9805 11.0078 38.0508 11.0078C33.3973 11.0078 29.627 15.0676 29.627 20.0773C29.627 25.0871 33.3973 29.1469 38.0508 29.1469C39.7281 29.1469 41.2867 28.6125 42.6004 27.6996C42.7934 27.5066 42.9863 27.2988 43.1793 27.0613V29.0578H49.5473V11.0969H43.1793ZM43.0383 21.6582C42.8305 22.148 42.5336 22.5785 42.1625 22.9496C41.8137 23.3207 41.3832 23.6176 40.8711 23.8254C40.3812 24.0332 39.8543 24.1371 39.2977 24.1371C38.741 24.1371 38.1695 24.0332 37.65 23.8254C37.1602 23.6176 36.7297 23.3207 36.3586 22.9496C36.0098 22.5785 35.7277 22.148 35.5199 21.6582C35.3121 21.1461 35.2082 20.5969 35.2082 20.0105C35.2082 19.4242 35.3121 18.9344 35.5199 18.4742C35.7277 17.9844 36.0098 17.5539 36.3586 17.1828C36.7297 16.8117 37.1602 16.5148 37.65 16.307C38.1621 16.0992 38.7113 15.9953 39.2977 15.9953C39.884 15.9953 40.3812 16.0992 40.8711 16.307C41.3832 16.5148 41.8137 16.8117 42.1625 17.1828C42.5336 17.5539 42.8305 17.9992 43.0383 18.5113C43.2684 19.0012 43.3871 19.5281 43.3871 20.0848C43.3871 20.6414 43.2684 21.1684 43.0383 21.6582Z" fill="black"></path><path d="M42.6016 27.6988C42.802 27.5578 42.9875 27.4168 43.1805 27.2609V27.0605C42.9875 27.298 42.802 27.5133 42.6016 27.6988Z" fill="black"></path></svg>