<svg width="204" height="86" viewBox="0 0 204 86" fill="none" xmlns="http://www.w3.org/2000/svg">
<path d="M4.94082 53.6706H0.637695V33.604H4.94082V41.5669H12.7502V33.604H17.0533V53.6706H12.7502V45.3891H4.94082V53.6706ZM26.9346 53.9891C22.4721 53.9891 19.6033 51.1225 19.6033 46.6632C19.6033 42.2039 22.4721 39.178 26.4564 39.178C30.7596 39.178 32.8314 42.0447 32.8314 46.3447V47.9373H23.7471C24.2252 50.1669 25.9783 50.8039 27.7314 50.8039C29.1658 50.8039 30.2814 50.4854 31.7158 49.6891H31.8752V53.0336C30.6002 53.5114 29.0064 53.9891 26.9346 53.9891ZM23.7471 44.7521H28.8471C28.6877 43.3188 28.2096 42.2039 26.4564 42.2039C25.1814 42.3632 24.0658 42.841 23.7471 44.7521ZM43.9877 45.2299L41.7564 53.6706H37.9314L33.6283 39.4965V39.3373H37.7721L40.1627 47.778L42.3939 39.3373H45.7408L47.9721 47.778L50.3627 39.3373H54.3471V39.4965L50.0439 53.6706H46.2189L43.9877 45.2299ZM61.5189 53.9891C58.0127 53.9891 56.7377 52.5558 56.7377 49.3706V33.604H60.8814V49.0521C60.8814 50.0077 61.2002 50.3262 62.1564 50.3262C62.4752 50.3262 62.7939 50.1669 63.1127 50.1669V53.6706C62.7939 53.8299 62.1564 53.9891 61.5189 53.9891ZM71.7189 53.9891C67.2564 53.9891 64.3877 51.1225 64.3877 46.6632C64.3877 42.2039 67.2564 39.178 71.2408 39.178C75.5439 39.178 77.6158 42.0447 77.6158 46.3447V47.9373H68.5314C69.0096 50.1669 70.7627 50.8039 72.5158 50.8039C73.9502 50.8039 75.0658 50.4854 76.5002 49.6891V53.0336C75.2252 53.5114 73.6314 53.9891 71.7189 53.9891ZM68.3721 44.7521H73.4721C73.3127 43.3188 72.8346 42.2039 71.0814 42.2039C69.8064 42.3632 68.6908 42.841 68.3721 44.7521ZM94.6689 39.3373H97.8564V42.6817H94.6689V48.4151C94.6689 49.6891 95.1471 50.1669 96.4221 50.1669C96.7408 50.1669 97.2189 50.1669 97.6971 50.0077H97.8564V53.3521C97.3783 53.5114 96.4221 53.8299 95.3064 53.8299C91.9596 53.8299 90.5252 52.2373 90.5252 48.5743V42.5225H85.1064V48.2558C85.1064 49.5299 85.5846 50.0077 86.8596 50.0077C87.1783 50.0077 87.6564 50.0077 88.1346 49.8484H88.2939V53.1928C87.8158 53.3521 86.8596 53.6706 85.7439 53.6706C82.3971 53.6706 80.9627 52.078 80.9627 48.4151V42.3632H78.7314V39.0188H80.9627V35.0373H85.1064V39.0188H90.5252V35.0373H94.6689V39.3373ZM119.691 40.2928C119.691 44.5928 116.822 46.9817 112.36 46.9817H109.331V53.5114H105.028V33.604H112.519C116.822 33.604 119.691 35.9928 119.691 40.2928ZM112.041 43.478C114.272 43.478 115.228 42.2039 115.228 40.4521C115.228 38.541 114.113 37.2669 112.041 37.2669H109.331V43.478H112.041ZM129.094 52.2373C128.138 53.3521 126.863 53.8299 125.269 53.8299C122.56 53.8299 120.169 52.078 120.169 49.0521C120.169 46.1854 122.4 44.4336 125.747 44.4336C126.703 44.4336 127.819 44.5928 128.935 44.9114V44.5928C128.935 43.0002 128.138 42.3632 125.747 42.3632C124.313 42.3632 122.878 42.841 121.763 43.478H121.603V40.1336C122.719 39.4965 124.631 39.0188 126.544 39.0188C130.847 39.0188 133.078 41.0891 133.078 44.5928V53.5114H129.094V52.2373ZM128.935 49.0521V47.778C128.297 47.4595 127.5 47.3002 126.544 47.3002C125.11 47.3002 124.313 47.778 124.313 48.8928C124.313 50.0077 125.11 50.6447 126.385 50.6447C127.66 50.8039 128.616 50.1669 128.935 49.0521ZM135.31 46.504C135.31 41.8854 138.497 39.0188 142.8 39.0188C144.235 39.0188 145.669 39.3373 146.785 40.1336V43.7965H146.625C145.669 43.1595 144.553 42.6817 143.438 42.6817C141.366 42.6817 139.772 44.1151 139.772 46.504C139.772 48.8928 141.366 50.3262 143.438 50.3262C144.713 50.3262 145.828 49.8484 146.625 49.2114V52.8743C145.51 53.6706 144.235 53.9891 142.641 53.9891C138.497 53.9891 135.31 51.1225 135.31 46.504ZM153.478 47.141V53.6706H149.335V33.604H153.478V45.0706L157.781 39.4965H162.563V39.6558L157.463 46.1854L162.563 53.6706V53.8299H157.781L153.478 47.141ZM172.125 52.2373C171.169 53.3521 169.894 53.8299 168.3 53.8299C165.591 53.8299 163.2 52.078 163.2 49.0521C163.2 46.1854 165.431 44.4336 168.778 44.4336C169.735 44.4336 170.85 44.5928 171.966 44.9114V44.5928C171.966 43.0002 171.169 42.3632 168.778 42.3632C167.344 42.3632 165.91 42.841 164.794 43.478H164.635V40.1336C165.75 39.4965 167.663 39.0188 169.575 39.0188C173.878 39.0188 176.11 41.0891 176.11 44.5928V53.5114H172.125V52.2373ZM171.966 49.0521V47.778C171.328 47.4595 170.531 47.3002 169.575 47.3002C168.141 47.3002 167.344 47.778 167.344 48.8928C167.344 50.0077 168.141 50.6447 169.416 50.6447C170.691 50.8039 171.647 50.1669 171.966 49.0521ZM183.281 41.5669C184.078 39.9743 185.194 39.0188 186.788 39.0188C187.425 39.0188 187.903 39.178 188.222 39.3373V43.3188H188.063C187.585 43.1595 186.947 43.0002 186.15 43.0002C184.875 43.0002 183.76 43.7965 183.441 45.2299V53.5114H179.297V39.178H183.441V41.5669H183.281ZM199.378 52.078C198.422 53.1928 197.147 53.8299 195.235 53.8299C191.569 53.8299 189.338 50.4854 189.338 46.3447C189.338 42.204 191.728 38.8595 195.235 38.8595C197.147 38.8595 198.422 39.4965 199.378 40.4521V33.2854H203.522V53.3521H199.378V52.078ZM199.219 48.7336V44.1151C198.581 43.1595 197.625 42.6817 196.51 42.6817C194.597 42.6817 193.481 43.9558 193.481 46.504C193.481 48.8928 194.756 50.3262 196.51 50.3262C197.625 50.3262 198.581 49.8484 199.219 48.7336ZM0.637695 60.2002H12.9096V62.5891H3.34707V68.8002H11.9533V71.1891H3.50645V77.878H13.0689V80.2669H0.637695V60.2002ZM23.1096 65.7743C26.2971 65.7743 28.0502 67.8447 28.0502 71.3484V80.2669H25.5002V71.5077C25.5002 69.7558 24.5439 68.3225 22.6314 68.3225C21.0377 68.3225 19.6033 69.4373 19.1252 70.8706V80.2669H16.4158V66.0928H19.1252V68.1632C19.7627 66.8891 21.1971 65.7743 23.1096 65.7743ZM35.2221 66.0928H38.8877V68.3225H35.2221V75.9669C35.2221 77.5595 36.0189 78.1965 37.6127 78.1965C38.0908 78.1965 38.4096 78.1965 38.7283 78.0373H38.8877V80.2669C38.5689 80.4262 37.9314 80.5854 37.2939 80.5854C33.9471 80.5854 32.6721 79.1521 32.6721 76.2854V68.4817H30.2814V66.2521H32.6721V62.4299H35.3814V66.0928H35.2221ZM47.3346 80.5854C43.1908 80.5854 40.4814 77.878 40.4814 73.4188C40.4814 68.9595 43.0314 65.9336 46.8564 65.9336C50.6814 65.9336 52.7533 68.8002 52.7533 72.941V74.2151H43.1908C43.5096 77.0817 45.2627 78.5151 47.8127 78.5151C49.4064 78.5151 50.5221 78.1965 51.7971 77.241H51.9564V79.6299C50.6814 80.1077 49.0877 80.5854 47.3346 80.5854ZM43.1908 71.8262H50.2033C50.0439 69.7558 49.0877 68.1632 46.8564 68.1632C44.9439 68.1632 43.6689 69.5965 43.1908 71.8262ZM58.4908 68.3225C59.1283 66.8891 60.4033 65.9336 61.9971 65.9336C62.6346 65.9336 63.1127 66.0928 63.4314 66.0928V68.8002H63.2721C62.9533 68.641 62.3158 68.4817 61.6783 68.4817C60.2439 68.4817 58.9689 69.4373 58.6502 71.0299V80.2669H55.9408V66.0928H58.6502V68.3225H58.4908ZM72.3564 65.7743C76.5002 65.7743 78.7314 69.278 78.7314 73.1003C78.7314 77.0817 76.5002 80.4262 72.3564 80.4262C70.6033 80.4262 69.1689 79.4706 68.3721 78.5151V85.5225H65.6627V66.0928H68.3721V67.6854C69.1689 66.7299 70.6033 65.7743 72.3564 65.7743ZM71.8783 78.1965C74.4283 78.1965 76.0221 76.1262 76.0221 73.2595C76.0221 70.3928 74.4283 68.3225 71.8783 68.3225C70.4439 68.3225 69.1689 69.1188 68.3721 70.5521V75.9669C69.1689 77.241 70.4439 78.1965 71.8783 78.1965ZM84.6283 68.3225C85.2658 66.8891 86.5408 65.9336 88.1346 65.9336C88.7721 65.9336 89.2502 66.0928 89.5689 66.0928V68.8002H89.2502C88.9314 68.4817 88.2939 68.4817 87.6564 68.4817C86.2221 68.4817 84.9471 69.4373 84.6283 71.0299V80.2669H81.9189V66.0928H84.6283V68.3225ZM93.2346 60.3595C94.1908 60.3595 94.9877 61.1558 94.9877 61.9521C94.9877 62.9077 94.1908 63.5447 93.2346 63.5447C92.2783 63.5447 91.4814 62.7484 91.4814 61.9521C91.4814 61.1558 92.2783 60.3595 93.2346 60.3595ZM91.9596 66.0928H94.6689V80.2669H91.9596V66.0928ZM104.072 71.9854C106.144 72.6225 108.375 73.4188 108.375 76.1262C108.375 78.9928 105.985 80.4262 102.956 80.4262C101.044 80.4262 99.2908 79.9484 98.1752 79.1521V76.6039H98.3346C99.4502 77.7188 101.203 78.1965 102.956 78.1965C104.391 78.1965 105.825 77.5595 105.825 76.4447C105.825 75.1706 104.71 74.8521 102.478 74.2151C100.566 73.578 98.3346 72.7817 98.3346 70.2336C98.3346 67.5262 100.566 65.9336 103.435 65.9336C105.028 65.9336 106.622 66.2521 107.738 67.0484V69.5965H107.578C106.463 68.641 105.028 68.1632 103.435 68.1632C101.841 68.1632 100.885 68.9595 100.885 69.9151C100.725 70.8706 101.681 71.1891 104.072 71.9854ZM117.46 80.5854C113.316 80.5854 110.606 77.878 110.606 73.4188C110.606 68.9595 113.156 65.9336 116.981 65.9336C120.806 65.9336 122.878 68.8002 122.878 72.941V74.2151H113.316C113.635 77.0817 115.388 78.5151 117.938 78.5151C119.531 78.5151 120.647 78.1965 121.922 77.241H122.081V79.6299C120.647 80.1077 119.213 80.5854 117.46 80.5854ZM113.316 71.8262H120.328C120.169 69.7558 119.213 68.1632 116.981 68.1632C114.91 68.1632 113.635 69.5965 113.316 71.8262Z" fill="black"/>
<path d="M0.637695 20.3853H70.1252V0.318665H0.637695V20.3853ZM4.94082 4.77792H65.6627V16.0853H4.94082V4.77792Z" fill="#01A982"/>
</svg>
