<?xml version="1.0" encoding="UTF-8"?>
<svg width="950px" height="120px" viewBox="0 0 950 120" version="1.1" xmlns="http://www.w3.org/2000/svg" xmlns:xlink="http://www.w3.org/1999/xlink">
    <!-- Generator: Sketch 53.2 (72643) - https://sketchapp.com -->
    <title>404</title>
    <desc>Created with Sketch.</desc>
    <defs>
        <polygon id="path-1" points="0.00427713418 1.00163304 31.1809376 1.00163304 31.1809376 28.0327869 0.00427713418 28.0327869"></polygon>
        <polygon id="path-3" points="0.024965226 0.0229563055 21.7685917 0.0229563055 21.7685917 33.2240437 0.024965226 33.2240437"></polygon>
        <polygon id="path-5" points="0.227110103 1.00163304 31.4037706 1.00163304 31.4037706 28.0327869 0.227110103 28.0327869"></polygon>
        <polygon id="path-7" points="0.835743437 0.822087432 31.6687312 0.822087432 31.6687312 37.3177205 0.835743437 37.3177205"></polygon>
        <polygon id="path-9" points="0.836451102 0.844009368 30.8209572 0.844009368 30.8209572 27.8025769 0.836451102 27.8025769"></polygon>
    </defs>
    <g id="Home" stroke="none" stroke-width="1" fill="none" fill-rule="evenodd">
        <g id="404" transform="translate(-226.000000, -306.000000)">
            <g transform="translate(226.000000, 306.000000)">
                <path d="M41.5300546,65.07482 C44.5296641,61.4863004 48.5444843,58.8921898 52.7000804,56.8223057 C56.8773344,54.7362085 61.3686268,53.3364697 65.9167711,52.3231452 C75.0455464,50.3289227 84.4883603,50.1127468 93.7768621,50.8666602 C112.416132,52.3988068 130.527492,57.6599873 147.975581,64.1803923 C165.507595,70.6170292 181.902572,79.8126107 199.767574,85.3142869 C217.526995,91.0132236 235.995709,94.4666333 254.6052,95.6637072 C291.905397,98.1497298 329.294933,91.9535886 365.019524,81.4933782 C382.922428,76.2619219 400.497756,69.9468839 417.802363,62.9968293 C426.451958,59.5082911 435.04741,55.8981538 443.583302,52.1366935 C452.143559,48.4292772 460.538675,44.3867882 469.182857,40.8090773 C486.503706,33.767148 504.80728,29.2598809 523.343675,26.9549055 C541.890899,24.6256104 560.654701,24.4418609 579.283142,25.6578503 C616.599583,28.1141487 653.258168,35.9883552 689.553983,44.5327069 C725.876871,53.0608454 762.007546,62.6590545 798.915196,68.3633956 C817.348716,71.1682777 835.998815,72.9490265 854.665157,72.4761417 C873.296305,71.9735328 891.984305,69.076776 909.508197,62.5942018 C891.992427,69.103798 873.304427,72.030279 854.667864,72.5626121 C835.996108,73.0625188 817.332473,71.308792 798.888123,68.5309319 C761.958816,62.8806348 725.806483,53.3310653 689.475474,44.8650773 C653.174244,36.3747696 616.521074,28.5627137 579.250656,26.1631614 C560.64658,24.9768962 541.915264,25.1903699 523.41677,27.5385804 C504.931812,29.8705777 486.690505,34.3913559 469.437336,41.4359874 C460.833763,44.9785696 452.403453,49.0210586 443.835074,52.714964 C435.29106,56.4629133 426.682073,60.064944 418.018941,63.5426734 C400.68997,70.465706 383.090276,76.7591264 365.1603,81.9689651 C329.378858,92.3832382 291.929762,98.5307398 254.583542,95.9825666 C235.952394,94.7449597 217.464729,91.2591236 199.699894,85.5250584 C181.815941,79.9855514 165.4345,70.7629479 147.926851,64.3155022 C130.492298,57.7761818 112.397181,52.4933837 93.7687404,50.9396196 C84.4883603,50.1721952 75.0509609,50.3775623 65.9248928,52.3582738 C61.3767485,53.3634916 56.8854561,54.7605283 52.7082021,56.8385189 C48.552606,58.9029986 44.5323713,61.4917048 41.5300546,65.07482" id="Fill-3" fill="#FF0000"></path>
                <path d="M516.061314,95.3613857 C518.104227,97.3319977 519.125683,100.304356 519.125683,104.276268 L519.125683,119.398907 L507.860349,119.398907 L507.860349,106.167968 C507.860349,103.132042 506.746442,101.612983 504.520885,101.612983 C503.255902,101.612983 502.234446,102.040423 501.454261,102.897497 C500.674075,103.752379 500.283983,105.100462 500.283983,106.943937 L500.283983,119.398907 L489.016393,119.398907 L489.016393,92.8888046 L499.733794,92.8888046 L499.733794,95.506058 C500.795838,94.4736238 502.026998,93.6976542 503.425018,93.1803412 C504.820783,92.6652201 506.331546,92.4043716 507.959563,92.4043716 C511.317066,92.4043716 514.018401,93.3907736 516.061314,95.3613857" id="Fill-11" fill="#000000"></path>
                <g id="Group-15" transform="translate(522.240437, 91.366120)">
                    <mask id="mask-2" fill="white">
                        <use xlink:href="#path-1"></use>
                    </mask>
                    <g id="Clip-14"></g>
                    <path d="M18.7311155,18.2849243 C19.5470611,17.3770933 19.9572511,16.1156179 19.9572511,14.494029 C19.9572511,12.8724401 19.5470611,11.6174338 18.7311155,10.7268537 C17.9129527,9.83843001 16.8664137,9.39206179 15.593716,9.39206179 C14.318801,9.39206179 13.2722621,9.83843001 12.4563165,10.7268537 C11.6381536,11.6174338 11.2301808,12.8724401 11.2301808,14.494029 C11.2301808,16.1156179 11.6381536,17.3770933 12.4563165,18.2849243 C13.2722621,19.190599 14.318801,19.6434363 15.593716,19.6434363 C16.8664137,19.6434363 17.9129527,19.190599 18.7311155,18.2849243 M7.57838084,26.2936759 C5.20814757,25.1335498 3.35231478,23.5292119 2.01531696,21.4763493 C0.673884663,19.4277995 0.00427713418,17.1010782 0.00427713418,14.494029 C0.00427713418,11.8869798 0.673884663,9.56025851 2.01531696,7.50955233 C3.35231478,5.46100252 5.20814757,3.86313367 7.57838084,2.71810214 C9.94639687,1.57307062 12.6181753,1.00163304 15.593716,1.00163304 C18.5980809,1.00163304 21.2875972,1.57307062 23.6578305,2.71810214 C26.0258465,3.86313367 27.8728103,5.46100252 29.1965047,7.50955233 C30.5201991,9.56025851 31.1809376,11.8869798 31.1809376,14.494029 C31.1809376,17.1010782 30.5201991,19.4277995 29.1965047,21.4763493 C27.8728103,23.5292119 26.0258465,25.1335498 23.6578305,26.2936759 C21.2875972,27.453802 18.5980809,28.0338651 15.593716,28.0338651 C12.6181753,28.0338651 9.94639687,27.453802 7.57838084,26.2936759" id="Fill-13" fill="#000000" mask="url(#mask-2)"></path>
                </g>
                <g id="Group-18" transform="translate(554.426230, 86.174863)">
                    <mask id="mask-4" fill="white">
                        <use xlink:href="#path-3"></use>
                    </mask>
                    <g id="Clip-17"></g>
                    <path d="M21.7685917,31.8093991 C20.136083,32.7523483 17.9130924,33.224927 15.0974491,33.224927 C11.415621,33.224927 8.58478142,32.3217274 6.60275956,30.5153282 C4.61856682,28.708929 3.62647044,25.9993302 3.62647044,22.3843235 L3.62647044,15.5518062 L0.024965226,15.5518062 L0.024965226,7.49367576 L3.62647044,7.49367576 L3.62647044,0.0229563055 L14.4744039,0.0229563055 L14.4744039,7.49367576 L19.8473547,7.49367576 L19.8473547,15.5518062 L14.4744039,15.5518062 L14.4744039,22.2871578 C14.4744039,23.1042332 14.6806384,23.7380187 15.0974491,24.192931 C15.5120889,24.6500516 16.0569821,24.8752994 16.7299578,24.8752994 C17.6547566,24.8752994 18.4710109,24.6323851 19.1765499,24.1421398 L21.7685917,31.8093991 Z" id="Fill-16" fill="#000000" mask="url(#mask-4)"></path>
                </g>
                <path d="M604.914519,93.3763662 L610.641798,93.3763662 L610.641798,101.349657 L605.25193,101.349657 L605.25193,118.360656 L594.374236,118.360656 L594.374236,101.349657 L590.765027,101.349657 L590.765027,93.3763662 L594.374236,93.3763662 L594.374236,93.2321126 C594.374236,89.7853254 595.401707,87.0532493 597.454472,85.0424413 C599.509413,83.0294476 602.39591,82.0218579 606.118315,82.0218579 C607.335171,82.0218579 608.523728,82.1333266 609.677456,82.3606354 C610.835537,82.5857584 611.795526,82.9070506 612.568306,83.3245118 L609.966976,90.9131264 C609.067939,90.4956652 608.251623,90.2836561 607.513672,90.2836561 C606.710416,90.2836561 606.076954,90.5328214 605.61111,91.0333377 C605.145265,91.5316684 604.914519,92.2988354 604.914519,93.3304673 L604.914519,93.3763662 Z" id="Fill-19" fill="#000000"></path>
                <g id="Group-23" transform="translate(612.568306, 91.366120)">
                    <mask id="mask-6" fill="white">
                        <use xlink:href="#path-5"></use>
                    </mask>
                    <g id="Clip-22"></g>
                    <path d="M18.9539485,18.2849243 C19.7698941,17.3770933 20.1800841,16.1156179 20.1800841,14.494029 C20.1800841,12.8724401 19.7698941,11.6174338 18.9539485,10.7268537 C18.1357856,9.83843001 17.0892467,9.39206179 15.816549,9.39206179 C14.541634,9.39206179 13.495095,9.83843001 12.6791494,10.7268537 C11.8609866,11.6174338 11.4530138,12.8724401 11.4530138,14.494029 C11.4530138,16.1156179 11.8609866,17.3770933 12.6791494,18.2849243 C13.495095,19.190599 14.541634,19.6434363 15.816549,19.6434363 C17.0892467,19.6434363 18.1357856,19.190599 18.9539485,18.2849243 M7.80121381,26.2936759 C5.43098053,25.1335498 3.57514775,23.5292119 2.23814993,21.4763493 C0.896717632,19.4277995 0.227110103,17.1010782 0.227110103,14.494029 C0.227110103,11.8869798 0.896717632,9.56025851 2.23814993,7.50955233 C3.57514775,5.46100252 5.43098053,3.86313367 7.80121381,2.71810214 C10.1692298,1.57307062 12.8410082,1.00163304 15.816549,1.00163304 C18.8209139,1.00163304 21.5104302,1.57307062 23.8806635,2.71810214 C26.2486795,3.86313367 28.0956433,5.46100252 29.4193377,7.50955233 C30.743032,9.56025851 31.4037706,11.8869798 31.4037706,14.494029 C31.4037706,17.1010782 30.743032,19.4277995 29.4193377,21.4763493 C28.0956433,23.5292119 26.2486795,25.1335498 23.8806635,26.2936759 C21.5104302,27.453802 18.8209139,28.0338651 15.816549,28.0338651 C12.8410082,28.0338651 10.1692298,27.453802 7.80121381,26.2936759" id="Fill-21" fill="#000000" mask="url(#mask-6)"></path>
                </g>
                <path d="M675.901639,92.4043716 L675.901639,118.916627 L665.113139,118.916627 L665.113139,116.395617 C664.109875,117.397444 662.938643,118.149363 661.599443,118.649181 C660.260244,119.148998 658.83933,119.398907 657.334433,119.398907 C653.854784,119.398907 651.062894,118.375158 648.954222,116.323275 C646.845551,114.271392 645.79235,111.17603 645.79235,107.041574 L645.79235,92.4043716 L657.132418,92.4043716 L657.132418,105.149721 C657.132418,106.962656 657.434306,108.251659 658.03808,109.029884 C658.639585,109.803724 659.524819,110.191741 660.698321,110.191741 C661.801458,110.191741 662.720739,109.764265 663.458433,108.907122 C664.193858,108.05217 664.561571,106.701786 664.561571,104.862545 L664.561571,92.4043716 L675.901639,92.4043716 Z" id="Fill-24" fill="#000000"></path>
                <path d="M707.099565,95.3613857 C709.142478,97.3319977 710.163934,100.304356 710.163934,104.276268 L710.163934,119.398907 L698.8986,119.398907 L698.8986,106.167968 C698.8986,103.132042 697.784694,101.612983 695.559136,101.612983 C694.294154,101.612983 693.272697,102.040423 692.492512,102.897497 C691.712327,103.752379 691.322234,105.100462 691.322234,106.943937 L691.322234,119.398907 L680.054645,119.398907 L680.054645,92.8888046 L690.772046,92.8888046 L690.772046,95.506058 C691.83409,94.4736238 693.065249,93.6976542 694.463269,93.1803412 C695.859034,92.6652201 697.369798,92.4043716 698.997814,92.4043716 C702.355317,92.4043716 705.056652,93.3907736 707.099565,95.3613857" id="Fill-26" fill="#000000"></path>
                <g id="Group-30" transform="translate(713.278689, 82.021858)">
                    <mask id="mask-8" fill="white">
                        <use xlink:href="#path-7"></use>
                    </mask>
                    <g id="Clip-29"></g>
                    <path d="M19.5603646,27.3944996 C20.3763102,26.4703372 20.7865002,25.1861686 20.7865002,23.5354083 C20.7865002,21.8846479 20.3763102,20.6070648 19.5603646,19.7004637 C18.744419,18.7960578 17.69788,18.3416596 16.4229651,18.3416596 C15.1480501,18.3416596 14.1015111,18.7960578 13.2855655,19.7004637 C12.4696199,20.6070648 12.0594299,21.8846479 12.0594299,23.5354083 C12.0594299,25.1861686 12.4696199,26.4703372 13.2855655,27.3944996 C14.1015111,28.3164668 15.1480501,28.7774504 16.4229651,28.7774504 C17.69788,28.7774504 18.744419,28.3164668 19.5603646,27.3944996 L19.5603646,27.3944996 Z M31.6687312,0.822087432 L31.6687312,36.8336877 L21.1279557,36.8336877 L21.1279557,34.6495035 C19.5271059,36.4275831 17.0770519,37.3188181 13.7755763,37.3188181 C11.423081,37.3188181 9.25905139,36.7612475 7.28127021,35.643911 C5.30127179,34.5287697 3.73368066,32.9197174 2.57406232,30.8167541 C1.41222674,28.7137908 0.835743437,26.2859438 0.835743437,23.5354083 C0.835743437,20.7848728 1.41222674,18.3680016 2.57406232,16.2804044 C3.73368066,14.1928072 5.30127179,12.5925355 7.28127021,11.4751991 C9.25905139,10.3578626 11.423081,9.80029196 13.7755763,9.80029196 C16.7488998,9.80029196 19.0215744,10.5620125 20.5891655,12.0810632 L20.5891655,0.822087432 L31.6687312,0.822087432 Z" id="Fill-28" fill="#000000" mask="url(#mask-8)"></path>
                </g>
                <path d="M584.994996,71.7098484 C582.280108,71.0631866 580.049702,70.1942349 578.306011,69.1029932 L582.059076,60.5639146 C583.702298,61.5249258 585.546458,62.295082 587.58709,62.8721378 C589.625489,63.4514389 591.583513,63.7410895 593.461162,63.7410895 C595.073127,63.7410895 596.222936,63.5861601 596.915054,63.2695653 C597.604939,62.9574612 597.953231,62.485937 597.953231,61.8549927 C597.953231,61.1274983 597.500005,60.5818774 596.593554,60.2181302 C595.689335,59.8543829 594.200165,59.4569554 592.126044,59.0258476 C589.462506,58.4645092 587.241031,57.8582638 585.46385,57.2138474 C583.68667,56.5694311 582.139451,55.5096243 580.824427,54.0366725 C579.50717,52.5659661 578.848542,50.569847 578.848542,48.0550513 C578.848542,45.8703226 579.458052,43.8831849 580.67484,42.098129 C581.891629,40.3108278 583.711229,38.9052366 586.131409,37.8791102 C588.549357,36.8529837 591.485277,36.3387978 594.941401,36.3387978 C597.312463,36.3387978 599.638873,36.5947681 601.925095,37.108954 C604.211317,37.6208945 606.229622,38.3730879 607.973313,39.3677794 L604.46807,47.8552149 C601.078925,46.1352743 597.870623,45.2753039 594.843165,45.2753039 C591.846964,45.2753039 590.348863,46.0027984 590.348863,47.4577874 C590.348863,48.1538469 590.795391,48.6747688 591.683981,49.0227986 C592.572572,49.3708284 594.037182,49.743557 596.077814,50.1409846 C598.710095,50.6349623 600.93157,51.2075274 602.740008,51.8519438 C604.550678,52.4963602 606.122455,53.5494309 607.45534,55.0066652 C608.785993,56.4616541 609.453552,58.4465464 609.453552,60.9613421 C609.453552,63.1460709 608.844042,65.1219818 607.627254,66.8935655 C606.410466,68.6651493 604.590865,70.0729858 602.172917,71.1125844 C599.752737,72.1566737 596.816817,72.6775956 593.360693,72.6775956 C590.49845,72.6775956 587.709885,72.3542648 584.994996,71.7098484" id="Fill-31" fill="#000000"></path>
                <path d="M630.239402,61.9039985 C631.054585,60.9974334 631.464392,59.7377171 631.464392,58.1183895 C631.464392,56.4990619 631.054585,55.2458057 630.239402,54.3564676 C629.422003,53.4692828 628.376442,53.023537 627.104933,53.023537 C625.831209,53.023537 624.785647,53.4692828 623.970464,54.3564676 C623.153065,55.2458057 622.745473,56.4990619 622.745473,58.1183895 C622.745473,59.7377171 623.153065,60.9974334 623.970464,61.9039985 C624.785647,62.8084101 625.831209,63.260616 627.104933,63.260616 C628.376442,63.260616 629.422003,62.8084101 630.239402,61.9039985 M619.097084,69.9015818 C616.729065,68.7430735 614.874965,67.1409728 613.539216,65.090973 C612.199037,63.0452799 611.530055,60.7218032 611.530055,58.1183895 C611.530055,55.5149759 612.199037,53.1914992 613.539216,51.1436527 C614.874965,49.0979596 616.729065,47.502319 619.097084,46.3588842 C621.462888,45.2154495 624.132171,44.6448087 627.104933,44.6448087 C630.106492,44.6448087 632.793496,45.2154495 635.161515,46.3588842 C637.527319,47.502319 639.372558,49.0979596 640.695016,51.1436527 C642.017474,53.1914992 642.677596,55.5149759 642.677596,58.1183895 C642.677596,60.7218032 642.017474,63.0452799 640.695016,65.090973 C639.372558,67.1409728 637.527319,68.7430735 635.161515,69.9015818 C632.793496,71.0600901 630.106492,71.6393443 627.104933,71.6393443 C624.132171,71.6393443 621.462888,71.0600901 619.097084,69.9015818" id="Fill-33" fill="#000000"></path>
                <path d="M664.480874,44.6448087 L664.480874,54.3386398 C663.622673,54.2093011 662.827004,54.1435356 662.098179,54.1435356 C658.410931,54.1435356 656.567307,56.0507344 656.567307,59.8629398 L656.567307,71.6393443 L645.79235,71.6393443 L645.79235,45.1292811 L656.041174,45.1292811 L656.041174,47.9878871 C657.949486,45.7584375 660.761282,44.6448087 664.480874,44.6448087" id="Fill-35" fill="#000000"></path>
                <path d="M686.284153,44.6448087 L686.284153,54.3386398 C685.425951,54.2093011 684.630282,54.1435356 683.901458,54.1435356 C680.21421,54.1435356 678.370586,56.0507344 678.370586,59.8629398 L678.370586,71.6393443 L667.595628,71.6393443 L667.595628,45.1292811 L677.844452,45.1292811 L677.844452,47.9878871 C679.752765,45.7584375 682.564561,44.6448087 686.284153,44.6448087" id="Fill-37" fill="#000000"></path>
                <path d="M720.546448,45.6830601 L709.456159,72.6832859 C708.04256,76.13464 706.285594,78.5551839 704.180803,79.9405404 C702.078241,81.3280854 699.498534,82.0218579 696.441681,82.0218579 C694.929977,82.0218579 693.409354,81.8051908 691.884272,81.369668 C690.354731,80.9319566 689.14626,80.3607433 688.261088,79.6516509 L691.957851,72.1514666 C692.515264,72.5694809 693.146255,72.9065187 693.853055,73.1669569 C694.562084,73.4252066 695.242128,73.5543315 695.899875,73.5543315 C697.115036,73.5543315 698.035882,73.1975967 698.662414,72.4885043 L687.322404,45.6830601 L698.760519,45.6830601 L704.330189,59.8627199 L710.000194,45.6830601 L720.546448,45.6830601 Z" id="Fill-39" fill="#000000"></path>
                <path d="M730.221201,60.873069 C731.384497,62.001563 731.967213,63.4996607 731.967213,65.3695492 C731.967213,66.2071717 731.858354,67.0447942 731.636367,67.8846037 C731.416515,68.7222263 730.912775,69.9950626 730.127283,71.7031127 L726.823093,78.9071038 L720.216847,78.9071038 L722.575458,70.7364569 C721.599997,70.2531291 720.844387,69.5532878 720.310765,68.6325591 C719.775008,67.7140174 719.508197,66.6270764 719.508197,65.3695492 C719.508197,63.4996607 720.090912,62.001563 721.254209,60.873069 C722.419641,59.7445749 723.913783,59.1803279 725.736638,59.1803279 C727.561626,59.1803279 729.055769,59.7445749 730.221201,60.873069" id="Fill-41" fill="#000000"></path>
                <path d="M32.1857923,53.1175792 C35.6210508,49.8185682 39.7044712,47.2285904 43.9769388,45.106842 C46.0969686,44.0044961 48.3628348,43.2071682 50.5503814,42.2439533 L57.3938915,40.0793954 C66.6815124,37.6499534 76.3067176,36.9783786 85.8860113,37.0238637 C105.071606,37.7248701 123.916915,42.3884355 141.8656,48.9677284 C146.356822,50.6132205 150.721113,52.601189 155.15292,54.3991901 C157.35127,55.3410002 159.590129,56.1945156 161.75607,57.2085669 L168.180976,60.3952028 C176.744816,64.6761579 185.327561,68.8527647 193.918407,72.9571303 C196.084349,73.94175 198.163868,75.1350662 200.405428,75.9484477 L207.081497,78.5170207 L213.752163,81.0855938 C215.98022,81.9391092 218.183971,82.8514877 220.498449,83.4508214 L234.223279,87.4989996 C236.489145,88.2401399 238.825229,88.7324498 241.164013,89.2006792 L248.164163,90.6829599 L255.164312,92.162565 C257.494994,92.673604 259.887792,92.8475178 262.242781,93.2060478 L276.432126,95.0682633 C285.965509,95.5525463 295.479986,96.5264636 305.032273,96.1465288 L312.191762,96.0849901 L315.770156,96.0368294 L319.340449,95.7746209 L333.618917,94.7257869 C338.369404,94.2976914 343.082081,93.5030391 347.819065,92.9117322 L354.911037,91.9538685 L361.943595,90.6133944 C366.623864,89.6822867 371.323038,88.8448248 375.987104,87.841476 L389.873974,84.3739024 C394.529938,83.314366 399.075173,81.8427877 403.639314,80.4702065 C408.18725,79.0280597 412.810806,77.8240411 417.293926,76.1865758 C426.287173,72.9999399 435.31823,69.9176522 444.095423,66.1798433 C453.00495,62.7577549 461.625504,58.6694428 470.318976,54.7550445 C487.506071,46.6265811 504.304269,37.1736971 522.55813,31.081363 C540.701264,24.8231418 559.676205,21.0371721 578.802385,19.5254599 C617.181675,16.4404966 655.528558,22.3134319 692.900497,30.1127969 C730.361558,37.9068107 767.401313,47.7530074 805.316088,52.8821266 C824.242417,55.4774557 843.3821,56.8446857 862.489375,56.012575 C881.580445,55.1991936 900.620203,52.1142303 918.852459,46.321563 C900.666114,52.2587126 881.629057,55.4988604 862.51098,56.4620753 C843.376699,57.446695 824.180302,56.2239472 805.197258,53.7731004 C767.182559,48.7617074 730.088789,38.9877518 692.649334,31.3114643 C655.2963,23.6191231 617.060145,17.8826434 578.929317,21.0559013 C559.927368,22.6077475 541.100964,26.4177975 523.11717,32.6760187 C505.041553,38.7603261 488.413498,48.1891297 471.112975,56.4139146 C462.376291,60.3176105 453.717928,64.3952202 444.767891,67.8066063 C435.947487,71.539064 426.870519,74.605298 417.836762,77.7812316 C413.334737,79.4133457 408.686875,80.6039863 404.120034,82.0434575 C399.531587,83.4106875 394.967447,84.874239 390.287177,85.9257486 L376.335491,89.3692418 C371.647119,90.3618883 366.923639,91.1913233 362.221764,92.1117287 L355.159499,93.4415003 L348.029718,94.3859861 C343.271129,94.9692662 338.539546,95.7532161 333.762052,96.1679336 L319.413367,97.187336 L315.826871,97.4388421 L312.232272,97.4763005 L305.040375,97.5217856 C295.442177,97.8749644 285.881788,96.8742912 276.310596,96.357901 L262.051033,94.4475248 C259.682541,94.0836436 257.284342,93.901703 254.942856,93.3826372 L247.913,91.8762761 L240.880442,90.3699151 C238.533556,89.8883076 236.18937,89.3906466 233.910001,88.6361283 L220.136559,84.5344382 C217.811278,83.9270777 215.599425,83.0066724 213.365967,82.1424546 L206.668293,79.5444499 L199.97332,76.9464453 C197.723658,76.1223615 195.638737,74.9183429 193.464694,73.9230208 C184.830636,69.7704944 176.250592,65.564456 167.743466,61.2808254 L161.342867,58.0888383 C159.187729,57.0721114 156.956971,56.2132448 154.772125,55.2714347 C150.361923,53.45738 146.008435,51.4908163 141.549621,49.8051902 C123.714364,43.1108467 104.982483,38.3188526 85.8698073,37.4706884 C76.3310237,37.3502865 66.7328252,37.9415935 57.4506057,40.2961187 L50.6070956,42.3991379 C48.4222496,43.3462992 46.1509821,44.1248979 44.0282516,45.2058391 C39.747682,47.2901291 35.6480575,49.8453241 32.1857923,53.1175792" id="Fill-1" fill="#FF0000"></path>
                <path d="M0,21.8207293 C8.38865823,15.5562694 18.0262885,11.1154694 27.8910045,7.62146627 C37.798975,4.17049933 48.1367865,1.95413397 58.5908443,0.859400115 C79.5232905,-1.40000146 100.845027,1.09340956 121.047554,6.92750721 C126.132655,8.3100458 131.071771,10.1363954 136.040625,11.8820521 C140.917563,13.8482694 145.840459,15.7257245 150.579524,18.0120238 C155.410505,20.10466 160.03062,22.6195891 164.71832,25.0080994 C169.308697,27.563375 173.909888,30.1159608 178.37591,32.8783482 C187.340393,38.3224301 195.953433,44.5169561 204.471855,50.4236774 C208.691866,53.46849 213.149777,56.166323 217.480628,59.0470601 C221.960166,61.6991671 226.320754,64.5449372 230.897615,67.0222097 C267.033997,87.6365593 306.895669,101.897687 348.095524,107.839375 C368.681935,110.819633 389.568423,111.580837 410.319741,110.40272 C431.07917,109.15467 451.673691,105.641838 471.759972,100.318796 C512.062298,89.8421656 549.8829,71.1832743 584.329656,47.8253655 C601.774713,36.1679293 619.960502,25.4599797 639.254686,16.9119104 C648.900427,12.6674631 658.835431,8.98786627 669.038072,6.19858123 C679.243417,3.42812453 689.700178,1.50225366 700.246152,0.644219012 C721.389464,-1.23054635 742.508445,1.28169303 763.194881,4.3883702 C783.916462,7.5300143 804.559644,10.8330442 825.410988,12.2371009 C867.102863,15.4863356 909.165104,11.0213277 950,1.90571823 C909.343528,11.7448741 867.262364,16.9872238 825.267708,14.4696049 C804.283897,13.3103167 783.486621,10.1579135 762.781261,7.24220957 C742.100231,4.34533398 721.238073,2.09669146 700.565153,4.1436017 C679.897641,6.04257493 659.81947,12.1026127 640.868617,20.5242631 C621.901545,28.9997088 603.932028,39.6511734 586.665396,51.2763325 C552.037512,74.9247357 513.773552,93.9817121 472.944062,104.732698 C452.555,110.079948 431.646884,113.563192 410.584675,114.765517 C389.525169,115.897907 368.344009,115.053322 347.487258,111.965473 C326.654838,108.791551 306.071131,103.826248 286.266003,96.6660963 C276.298558,93.2527861 266.63119,89.0621341 257.028704,84.7665814 C247.553278,80.1966727 238.140031,75.4868963 229.105259,70.104679 C224.506771,67.5574727 220.129963,64.6417687 215.639611,61.9197278 C211.292539,58.9717467 206.821112,56.20129 202.590287,53.0865435 C193.990763,46.9942285 185.68591,40.885775 176.81875,35.3717592 C172.423017,32.5905435 167.894818,30.0191293 163.382839,27.4423356 C158.768131,25.034997 154.223711,22.4985498 149.468426,20.3790159 C144.802353,18.0685088 139.957855,16.1668458 135.156612,14.1683513 C130.268861,12.3984867 125.402736,10.53986 120.393331,9.12235446 C100.534135,3.00314185 79.5043667,0.138543421 58.7016838,2.00254972 C48.3125076,2.89824106 38.0044336,4.91018437 28.0775393,8.16748832 C18.1938994,11.462449 8.49949774,15.7122757 0,21.8207293" id="Fill-5" fill="#FF0000"></path>
                <path d="M10.3825137,32.0569653 C18.3714618,25.735545 27.7500273,21.4020949 37.3583933,18.1086728 C42.251793,16.7355108 47.1127502,15.1510931 52.1575479,14.3927394 L55.9127591,13.6831369 C57.1617926,13.4177131 58.4189367,13.2145826 59.6895985,13.1387473 L67.3027551,12.423728 C87.6684899,10.9124373 108.218065,14.2925283 127.561863,20.676242 C132.528258,21.9383594 137.156712,24.1240432 141.909527,25.9765932 C146.629901,27.9103953 151.442194,29.6600257 155.908435,32.1382175 L169.558587,39.0690293 C174.032939,41.5065949 178.288304,44.3314627 182.670736,46.9477832 L208.597643,62.8921711 C210.717216,64.2815836 212.977371,65.4136974 215.218603,66.5864374 L221.934185,70.1046571 C226.424758,72.4230529 230.826114,74.9202036 235.524859,76.8025459 L249.415626,82.8693761 C254.084632,84.7869277 258.913147,86.2982185 263.652445,88.0370153 L270.787076,90.5693752 C273.166188,91.4198148 275.637219,91.9669129 278.059587,92.6792237 L292.65057,96.7255828 C297.576412,97.8306125 302.54551,98.727095 307.490277,99.740039 L314.914186,101.221537 C317.404143,101.614256 319.918431,101.858013 322.419202,102.18573 L337.445453,104.030155 C342.479437,104.341621 347.521531,104.528501 352.560922,104.783092 L360.120008,105.140601 C362.642406,105.173102 365.164805,105.026848 367.684501,104.980805 L382.81619,104.558294 C387.844767,104.219743 392.857122,103.564309 397.877588,103.087629 C402.89535,102.548656 407.934741,102.183021 412.879508,101.126743 L427.775989,98.4454208 L431.498758,97.760194 L435.162049,96.8149602 L442.494038,94.9244926 C447.363106,93.6027903 452.307873,92.5465118 457.112056,91.008137 L471.462423,86.1655066 L478.643014,83.7631502 C481.008608,82.8829181 483.317428,81.8483069 485.653283,80.8976563 L499.64408,75.0854163 L503.142455,73.6310022 C504.288754,73.1028629 505.408018,72.5124304 506.538096,71.9517902 L513.31586,68.563574 L526.874092,61.7790162 C535.638955,56.7359636 544.30649,51.5683244 553.047022,46.419644 L566.175391,38.5219312 L579.674145,31.2525686 C597.909494,22.0114863 617.255995,14.7800415 637.313527,10.5278436 C639.80078,9.91303534 642.328586,9.49052396 644.861799,9.10051345 C647.392308,8.70237772 649.914707,8.24736546 652.450624,7.89798105 C657.549492,7.41046791 662.629436,6.67107299 667.752636,6.55190311 C677.980112,5.92084444 688.229216,6.28647929 698.408028,7.04212465 C718.789984,8.62925075 738.825887,12.4453952 758.783388,16.1450783 C778.743592,19.8420529 798.714611,23.4604837 818.893801,25.3319925 C839.045957,27.3199627 859.376546,27.802059 879.601696,26.2338918 C899.82144,24.6765581 919.9006,21.2666746 939.617486,16.3942516 C919.987113,21.5998086 899.943099,25.3590765 879.68821,27.2630862 C859.430616,29.1833462 838.99459,29.0479259 818.704554,27.3930897 C798.401001,25.749087 778.31373,22.2742017 758.307565,18.7749408 C738.314919,15.2648462 718.327679,11.6653742 698.167413,10.2895038 C688.102149,9.6394863 677.996333,9.37135408 667.952698,10.0917902 C662.91601,10.2542945 657.930691,10.9828558 652.923742,11.4757858 C650.433786,11.8278786 647.957347,12.2855993 645.472798,12.6864434 C642.988248,13.0737455 640.509106,13.4935485 638.06511,14.1083567 C618.386073,18.3470126 599.382921,25.5107473 581.415222,34.6868278 L568.105716,41.9101475 L555.142262,49.759109 C546.396324,54.9565407 537.626054,60.2243909 528.799009,65.3324452 L515.121822,72.2334645 L508.28458,75.6785573 C507.140985,76.2446142 506.01361,76.8485889 504.856497,77.3848533 L501.325679,78.8663516 L487.197001,84.7923446 C484.834111,85.7592456 482.503663,86.8128157 480.113738,87.7092982 L472.854744,90.1549891 L458.317833,95.0057447 C453.448765,96.5495363 448.43641,97.6058148 443.50516,98.9275171 L436.078548,100.817985 L432.36389,101.76051 L428.592457,102.443028 L413.501321,105.113517 C408.494373,106.16167 403.387394,106.524597 398.30745,107.050028 C393.219396,107.52129 388.144859,108.163183 383.051398,108.4909 L367.727757,108.870077 C365.172916,108.910703 362.620778,109.05154 360.06864,109.008205 L352.414931,108.623612 C347.313359,108.350063 342.20638,108.146932 337.112918,107.813798 L321.90553,105.898955 C319.37502,105.560404 316.830993,105.300397 314.311298,104.896845 L306.800876,103.377429 C301.799335,102.337401 296.770758,101.408417 291.796252,100.273595 L277.040354,96.1378586 C274.593654,95.4092973 272.095587,94.8459488 269.692144,93.9792588 L262.489925,91.3656467 C257.710074,89.5672649 252.846413,87.988264 248.142261,86.0030022 L234.162277,79.7411668 C229.436497,77.7965311 225.010809,75.2316703 220.501311,72.8482727 L213.753286,69.2298419 C211.503944,68.0246011 209.232974,66.8599864 207.110699,65.4380731 L181.264897,49.2065941 C176.947351,46.5740231 172.751463,43.7274881 168.336589,41.2655468 L154.875685,34.2724417 C150.463514,31.7725827 145.72692,29.9985765 141.068728,28.0376904 C136.380797,26.1499312 131.798304,23.9669557 126.918422,22.6317114 C107.874716,15.9852823 87.5927909,12.2937245 67.3622329,13.450214 L59.7977399,14.0325213 C58.5324852,14.0866895 57.2807481,14.2681527 56.0371217,14.5092008 L52.2954282,15.1510931 C47.2668518,15.8200695 42.4167086,17.3151098 37.5151983,18.596186 C27.8987217,21.71627 18.4741961,25.8763821 10.3825137,32.0569653" id="Fill-7" fill="#FF0000"></path>
                <path d="M21.8032787,42.4624125 C25.4976791,39.1829937 29.7646035,36.6039807 34.1665572,34.402318 L37.4828757,32.7598939 L40.9153193,31.3808006 L44.3585653,30.0179958 C45.5225174,29.6216422 46.7188766,29.3013016 47.8963317,28.9429545 C52.5791462,27.3439664 57.4672052,26.575692 62.3039531,25.5848081 L69.6684486,24.8246779 L73.3547473,24.4554718 L77.0545488,24.4364686 C96.8363345,24.040115 116.461486,28.2425489 135.073919,34.7552355 C153.878093,41.0344536 171.17534,50.8781393 188.332157,60.5888021 C196.952425,65.2988944 205.364747,70.4270582 214.433312,74.2439976 L221.125362,77.3279542 L224.468686,78.8672178 L227.914632,80.1648686 L241.717323,85.2957472 C243.991215,86.2241919 246.36503,86.8594436 248.72264,87.5354164 L255.798173,89.5741941 L262.871006,91.6102571 C265.209712,92.3540987 267.653742,92.6798688 270.04376,93.2363927 L284.448681,96.2443363 C289.296231,96.9691747 294.168086,97.5582756 299.026439,98.2206748 C301.459666,98.5274416 303.884791,98.9020772 306.320719,99.1572637 L313.66361,99.5943386 C318.562471,99.8440956 323.453231,100.28117 328.352092,100.378901 C338.157917,100.175295 347.979944,100.495636 357.74526,99.4124503 C377.340705,98.250537 396.676895,94.4390272 415.734924,89.89182 C425.154564,87.1444924 434.714635,84.8641019 443.904726,81.3756474 C448.530829,79.735938 453.192039,78.2021039 457.785734,76.4809521 L471.38588,70.8234118 L478.191355,68.0217892 C480.427439,67.011902 482.628416,65.9151428 484.845596,64.8645343 L498.132475,58.4984442 C506.874269,54.0055319 515.375711,49.1135514 524.055391,44.4224624 C541.212208,34.532626 559.481666,26.4643872 578.542396,21.0457451 C597.595023,15.5863816 617.368707,12.828195 637.142391,12.4942807 C656.94038,12.1495074 676.654651,14.3701734 696.117768,17.5192841 C735.052103,23.9505282 773.157359,34.4756162 812.269932,38.9305219 C831.78166,41.292355 851.490529,42.2289439 871.129184,41.0371684 C890.765138,39.8888289 910.271464,36.5198234 929.234973,31.1663353 C910.341679,36.7560067 890.851557,40.3801988 871.177795,41.7810101 C851.504032,43.2252574 831.708744,42.5384255 812.102496,40.4182053 C772.822486,36.1533321 734.611908,25.7476931 695.796398,19.5254847 C676.395395,16.4741051 656.794549,14.3538849 637.1829,14.7828155 C617.590155,15.1981723 598.054123,18.0133687 579.244548,23.4917354 C560.42147,28.9348103 542.392364,36.9840458 525.438091,46.8521642 C516.798919,51.5731154 508.21646,56.5601123 499.45036,61.112749 L486.101368,67.5819996 C483.873386,68.6488966 481.661606,69.7646591 479.41472,70.7908348 L472.563335,73.6331787 L458.841663,79.2717157 C454.204758,80.9820085 449.500339,82.5131279 444.833728,84.144693 C435.562619,87.6141442 425.916129,89.8755315 416.41277,92.5984263 C397.184605,97.1021975 377.68638,100.853983 357.9289,101.939883 C348.082567,102.987777 338.179521,102.626715 328.300781,102.786885 C323.361411,102.667436 318.432843,102.208643 313.501575,101.931739 L306.101972,101.456657 C303.64714,101.193327 301.20311,100.805117 298.75368,100.484777 C293.857519,99.7952301 288.953256,99.1816965 284.070599,98.4269958 L269.568457,95.3348949 C267.162235,94.7647973 264.702002,94.4254534 262.347092,93.6653233 L255.233751,91.5831096 L248.115009,89.4981811 C245.743895,88.803205 243.356578,88.1570943 241.066482,87.2123611 L227.188175,81.9837515 L223.726025,80.661668 L220.361096,79.0952569 L213.63934,75.9624347 C204.527566,72.0803414 196.082836,66.8843087 187.430162,62.1063477 L174.586179,54.8335309 C170.278746,52.4716979 166.119845,49.8058128 161.609868,47.8484776 L148.290582,41.5285383 C143.796808,39.5521998 139.135599,37.983074 134.579712,36.1560468 C116.169823,29.4506129 96.7364129,25.0337137 77.0680517,25.1803102 L73.3871543,25.1531627 L69.7197597,25.4707885 L62.3822701,26.1359024 C57.5644263,27.0643471 52.6871696,27.7647528 48.0016545,29.2958721 C46.8241994,29.6406454 45.6278403,29.9446975 44.4638881,30.3247626 L41.0152409,31.6414166 L37.5773961,32.9716444 L34.2475747,34.5679177 C29.8294175,36.709856 25.5381879,39.2318593 21.8032787,42.4624125" id="Fill-9" fill="#FF0000"></path>
                <path d="M768.188194,63.2472866 C769.012464,62.3455469 769.426839,61.0695414 769.426839,59.4236475 C769.426839,57.7799423 769.012464,56.4973708 768.188194,55.5781215 C767.361685,54.6566836 766.306709,54.197059 765.018787,54.197059 C763.730866,54.197059 762.67365,54.6566836 761.849381,55.5781215 C761.025111,56.4973708 760.610736,57.7799423 760.610736,59.4236475 C760.610736,61.0695414 761.025111,62.3455469 761.849381,63.2472866 C762.67365,64.151215 763.730866,64.6020849 765.018787,64.6020849 C766.306709,64.6020849 767.361685,64.151215 768.188194,63.2472866 M774.253744,47.3508409 C776.251702,48.4648834 777.837526,50.0691922 779.008974,52.1659559 C780.180423,54.2649083 780.765027,56.6834093 780.765027,59.4236475 C780.765027,62.1660744 780.180423,64.5780093 779.008974,66.6594522 C777.837526,68.7408951 776.251702,70.3364492 774.253744,71.448303 C772.255786,72.5623455 770.069679,73.1182725 767.690944,73.1182725 C764.689527,73.1182725 762.393667,72.3609862 760.810084,70.8442249 L760.810084,82.0218579 L749.617486,82.0218579 L749.617486,46.1645716 L760.263557,46.1645716 L760.263557,48.3423168 C761.882979,46.569479 764.358028,45.6830601 767.690944,45.6830601 C770.069679,45.6830601 772.255786,46.238987 774.253744,47.3508409" id="Fill-43" fill="#000000"></path>
                <path d="M796.726912,64.5456067 C797.326695,64.1342819 797.771695,63.5140644 798.055464,62.6892613 L798.055464,60.8802936 L795.396211,60.8802936 C793.207755,60.8802936 792.113527,61.6103413 792.113527,63.0682831 C792.113527,63.6734259 792.345701,64.1730455 792.80575,64.5692956 C793.263649,64.9655457 793.891379,65.1636707 794.68249,65.1636707 C795.441356,65.1636707 796.124979,64.9569315 796.726912,64.5456067 M805.186218,47.7157467 C807.593949,49.7637566 808.797814,52.9143753 808.797814,57.1654493 L808.797814,71.1634135 L798.818629,71.1634135 L798.818629,67.734989 C797.580367,70.3386104 795.125341,71.6393443 791.451401,71.6393443 C789.389782,71.6393443 787.637727,71.2840113 786.199538,70.5690384 C784.757049,69.8540654 783.662821,68.8871292 782.919004,67.6639224 C782.173037,66.4428693 781.803279,65.0689152 781.803279,63.5463674 C781.803279,60.9750491 782.783569,59.0239482 784.74845,57.6887578 C786.71333,56.3557209 789.692898,55.6902792 793.685002,55.6902792 L798.010319,55.6902792 C797.662058,53.6573441 796.02824,52.6430301 793.113166,52.6430301 C791.939397,52.6430301 790.752729,52.8260804 789.548864,53.192181 C788.344998,53.5539746 787.315263,54.0557477 786.459659,54.69104 L783.037241,47.5951489 C784.527025,46.6755903 786.324224,45.9520032 788.433138,45.4286947 C790.539903,44.9053862 792.640219,44.6448087 794.729785,44.6448087 C799.291576,44.6448087 802.776337,45.6677369 805.186218,47.7157467" id="Fill-45" fill="#000000"></path>
                <path d="M831.907895,60.6829042 C832.766379,59.8808883 833.195621,58.8411559 833.195621,57.5637068 C833.195621,56.2862577 832.766379,55.2554119 831.907895,54.4689476 C831.04501,53.6824833 829.968603,53.2892511 828.669872,53.2892511 C827.340323,53.2892511 826.246307,53.6824833 825.385622,54.4689476 C824.524938,55.2554119 824.095696,56.2862577 824.095696,57.5637068 C824.095696,58.8411559 824.533743,59.8808883 825.409836,60.6829042 C826.285929,61.4849201 827.371141,61.8848172 828.669872,61.8848172 C829.968603,61.8848172 831.04501,61.4849201 831.907895,60.6829042 L831.907895,60.6829042 Z M844.098361,45.1357935 L844.098361,66.6502576 C844.098361,71.7578323 842.69397,75.5968445 839.887389,78.1672942 C837.08301,80.7377439 833.081156,82.0218579 827.892834,82.0218579 C825.231536,82.0218579 822.748537,81.7374867 820.446041,81.1643008 C818.141343,80.591115 816.177837,79.7646609 814.557725,78.6849388 L818.255807,71.1179969 C819.294792,71.9066829 820.606731,72.5442966 822.198227,73.0352814 C823.787522,73.5262661 825.312982,73.7728694 826.772403,73.7728694 C828.978046,73.7728694 830.582749,73.2974361 831.588716,72.3465697 C832.594682,71.3979249 833.098766,70.0071716 833.098766,68.1720883 L833.098766,67.6811035 C831.443434,69.5806147 828.995655,70.5314812 825.751028,70.5314812 C823.479349,70.5314812 821.361756,69.998285 819.398251,68.9341144 C817.436946,67.8699438 815.871865,66.3481132 814.703006,64.3664008 C813.534148,62.3869102 812.95082,60.1163833 812.95082,57.5637068 C812.95082,55.0088086 813.534148,52.74939 814.703006,50.7854509 C815.871865,48.8192902 817.436946,47.3063461 819.398251,46.2421755 C821.361756,45.1780049 823.479349,44.6448087 825.751028,44.6448087 C829.385275,44.6448087 832.011354,45.8245052 833.633667,48.1816764 L833.633667,45.1357935 L844.098361,45.1357935 Z" id="Fill-47" fill="#000000"></path>
                <g id="Group-51" transform="translate(847.213115, 43.606557)">
                    <mask id="mask-10" fill="white">
                        <use xlink:href="#path-9"></use>
                    </mask>
                    <g id="Clip-50"></g>
                    <path d="M13.3023414,9.06814676 C12.5498598,9.67033255 12.0570842,10.5284473 11.8306738,11.636039 L20.4675647,11.636039 C20.2367149,10.5585566 19.746159,9.71119516 18.9936774,9.09395472 C18.2434155,8.47456362 17.2933797,8.16486807 16.1480094,8.16486807 C15.0026392,8.16486807 14.0548231,8.46811163 13.3023414,9.06814676 M30.6737905,16.8191382 L12.0260083,16.8191382 C12.4188969,17.8041421 13.0714916,18.5547237 13.9904515,19.0773349 C14.9049719,19.5999461 16.0503422,19.8644778 17.4243426,19.8644778 C18.6030085,19.8644778 19.5907793,19.7203833 20.3920946,19.434345 C21.1956295,19.1483068 22.0701952,18.6579555 23.020231,17.9611405 L28.8092342,23.6195363 C26.1921963,26.4089469 22.2832874,27.8025769 17.0802875,27.8025769 C13.8417309,27.8025769 10.9960629,27.2240484 8.54106388,26.0669914 C6.08828453,24.9099344 4.19043264,23.3012381 2.84972791,21.2409024 C1.50902318,19.1805667 0.836451102,16.8664528 0.836451102,14.3007112 C0.836451102,11.7005589 1.50014434,9.37999297 2.82309139,7.33256128 C4.15047786,5.28943091 5.96398078,3.69578923 8.27025928,2.55593755 C10.5765378,1.41178454 13.1691588,0.844009368 16.0503422,0.844009368 C18.7650473,0.844009368 21.2444632,1.36662061 23.4863701,2.41184309 C25.7260573,3.45921624 27.5084843,4.99479001 28.833651,7.02501639 C30.1610375,9.05309212 30.822511,11.4790406 30.822511,14.3007112 C30.822511,14.4577096 30.7736774,15.2964684 30.6737905,16.8191382" id="Fill-49" fill="#000000" mask="url(#mask-10)"></path>
                </g>
            </g>
        </g>
    </g>
</svg>