<?xml version="1.0" encoding="UTF-8"?>
<svg width="1484px" height="198px" viewBox="0 0 1484 198" version="1.1" xmlns="http://www.w3.org/2000/svg" xmlns:xlink="http://www.w3.org/1999/xlink">
    <!-- Generator: sketchtool 55.1 (78136) - https://sketchapp.com -->
    <title>A9EADC56-2B73-4073-9F17-D9A5FC5F6FED</title>
    <desc>Created with sketchtool.</desc>
    <g id="Home" stroke="none" stroke-width="1" fill="none" fill-rule="evenodd">
        <g id="Baner" transform="translate(0.000000, -290.000000)" fill="#CF0000">
            <path d="M413.468045,459.026205 C413.990029,459.113685 414.512152,459.200338 415.034413,459.286167 C414.768904,459.215064 414.503435,459.143771 414.238016,459.072288 C413.98134,459.057111 413.724674,459.041748 413.468019,459.026201 Z M397.034669,457.77774 C396.898965,457.765343 396.763264,457.752895 396.627568,457.740396 C394.410253,457.50381 392.193883,457.256565 389.978834,456.997452 C379.710623,457.032119 369.441762,456.713475 359.192774,456.011609 C327.006224,453.833111 295.052847,447.815261 264.361217,437.751 C233.421161,428.177948 205.194189,411.829307 174.892633,400.632844 C144.758875,389.196285 113.478866,379.962453 81.2792407,377.253098 C73.2511263,376.528401 65.1707115,376.376413 57.1186261,376.715633 C49.0643615,377.015204 41.0297095,378.02185 33.1519589,379.753193 C25.2938209,381.517578 17.5337461,383.960402 10.3119299,387.603713 C6.67051317,389.357084 3.20996875,391.473905 -0.0784201206,393.826417 C-3.34065878,396.207566 -6.46996721,398.842027 -9,402.022765 C-6.47214639,398.839825 -3.34283797,396.20316 -0.0827784888,393.819809 C3.2034312,391.467297 6.6661548,389.34607 10.3053923,387.590497 C17.5250294,383.942781 25.2851041,381.495551 33.1454213,379.724558 C41.023172,377.988809 49.0600031,376.977757 57.1164469,376.671578 C65.1707115,376.327953 73.2533055,376.473333 81.2857782,377.195827 C113.49412,379.885357 144.787204,389.10377 174.934038,400.522708 C205.253027,411.708157 233.488715,428.036973 264.417876,437.576985 C295.100789,447.61261 327.04327,453.604028 359.210207,455.756092 C368.681352,456.397262 378.169109,456.711199 387.657365,456.721433 C374.181484,455.092972 360.759419,453.009171 347.475965,450.197121 C315.042875,443.291183 283.304485,432.914815 253.293043,418.758079 C238.216545,411.819401 223.791192,403.592953 208.949891,396.274492 L197.767193,390.865859 C194.021479,389.104452 190.212611,387.482736 186.436409,385.784626 L180.761217,383.263653 L175.005449,380.936937 C171.155204,379.42217 167.36158,377.7568 163.463425,376.357715 C148.005822,370.429609 132.147516,365.54918 116.034414,361.777542 C99.9147787,358.058289 83.4771933,355.563508 66.9285432,354.980737 C58.6596624,354.817038 50.3690043,354.87597 42.1327897,355.740303 C33.9031083,356.580627 25.714804,357.93606 17.7050743,360.037962 C9.69752248,362.133316 1.87507856,364.979505 -5.54230562,368.666019 C-12.9292014,372.365629 -20.0656571,376.789882 -26,382.602307 C-20.0874345,376.770238 -12.9618676,372.313245 -5.58368269,368.58526 C1.82716827,364.86819 9.64961219,361.98926 17.6571641,359.861166 C25.6712491,357.728707 33.8660867,356.340535 42.1044791,355.467471 C50.3515824,354.57258 58.6553069,354.480908 66.9416096,354.616233 C83.5185704,355.137889 99.9931774,357.578103 116.15419,361.244973 C132.310847,364.962044 148.217063,369.794454 163.720398,375.674542 C167.629442,377.058349 171.431777,378.721536 175.290733,380.236303 L181.059568,382.556471 L186.745648,385.073078 C190.528384,386.769006 194.345963,388.390722 198.100387,390.149947 L209.302685,395.552032 C224.191897,402.86831 238.615072,411.072931 253.658903,417.972321 C283.628968,432.061395 315.310737,442.374466 347.678495,449.223655 C360.559441,451.933064 373.568462,453.956489 386.629993,455.543086 C369.540021,451.680179 352.65455,446.908405 336.069028,441.213231 L323.979201,436.949167 L312.054988,432.250619 L306.101599,429.879511 L300.235374,427.296619 C296.332548,425.556497 292.394855,423.892792 288.522537,422.089353 C280.856349,418.314357 273.083384,414.751145 265.611139,410.596249 C261.860852,408.546092 258.025578,406.657503 254.351561,404.474162 L243.279389,398.013658 C235.889951,393.732127 228.594216,389.343613 221.176449,385.136316 C213.654084,381.13862 206.258108,376.885473 198.554875,373.237111 C183.355426,365.519003 167.639523,358.853265 151.635974,353.030296 C135.630246,347.22916 119.238812,342.386511 102.503075,339.170451 C85.793487,335.893257 68.7570295,334.131301 51.7183929,334.415136 L45.3335348,334.548319 L38.9573932,334.980621 C34.7015476,335.179305 30.4871054,335.858324 26.2530511,336.312458 C17.828525,337.578796 9.4737312,339.334202 1.29326798,341.731509 C-6.88283698,344.128817 -14.8780739,347.185494 -22.5181123,350.975773 C-30.1276428,354.792252 -37.5541262,359.145832 -44,364.7592 C-37.5846341,359.106532 -30.179942,354.707101 -22.5856654,350.840405 C-14.9587018,347.002093 -6.97000227,343.8952 1.20828181,341.445492 C9.38874503,338.997967 17.7500762,337.187978 26.1876771,335.871424 C30.4282688,335.386722 34.6514275,334.683687 38.9181689,334.460986 L45.3052061,333.989384 L51.7096763,333.8169 C68.7918956,333.434816 85.8893688,335.100705 102.673047,338.288381 C119.478516,341.419292 135.948399,346.178974 152.039113,351.905876 C168.118932,357.672078 183.882776,364.357466 199.138882,372.053741 C206.872623,375.697736 214.29039,379.946516 221.843263,383.939846 C229.278463,388.136226 236.62214,392.53129 244.007219,396.793171 L255.059779,403.212191 C258.727259,405.380248 262.558174,407.257921 266.299744,409.294978 C273.756736,413.421491 281.514447,416.958503 289.163202,420.707298 C293.026804,422.495454 296.95578,424.146059 300.84771,425.873081 L306.70086,428.436323 L312.641175,430.787781 L324.537059,435.447029 L336.59202,439.673976 C357.305792,446.739805 378.482953,452.361023 399.937661,456.566964 C401.528169,456.52547 403.118506,456.475724 404.708586,456.417837 C377.699594,448.642356 351.266497,438.866538 325.83744,426.891107 C317.794356,423.301777 310.010587,419.17383 302.150548,415.202889 C298.232514,413.196702 294.429972,410.972452 290.562058,408.865956 C286.709397,406.737653 282.841482,404.635519 279.097777,402.31532 L267.772958,395.518273 C264.040148,393.187171 260.372711,390.744857 256.670409,388.365781 L234.550295,374.054256 C230.889395,371.635929 227.036734,369.527252 223.288671,367.248486 C219.492667,365.054764 215.79908,362.675689 211.918091,360.632431 C204.193157,356.478316 196.542313,352.175918 188.592931,348.466653 C180.778654,344.471725 172.674556,341.111363 164.646726,337.585271 C156.475075,334.412444 148.344827,331.108778 139.985773,328.457122 C106.81323,317.281354 71.6402658,311.064356 36.5544662,313.101072 C27.783561,313.463058 19.0802082,314.675492 10.4204375,316.073281 C1.79553256,317.680411 -6.74874546,319.734571 -15.1274113,322.355698 C-23.4886444,325.02916 -31.6733698,328.269587 -39.570453,332.111871 C-43.5146365,334.041735 -47.3912676,336.11116 -51.1480478,338.392107 C-54.9070072,340.65779 -58.594056,343.071756 -62,345.849888 C-58.615847,343.043408 -54.9462311,340.598913 -51.2003464,338.302701 C-47.460999,335.991225 -43.5952634,333.889091 -39.6619755,331.924336 C-31.7845042,328.016633 -23.6128535,324.706425 -15.2537995,321.961003 C-6.87731276,319.270096 1.67132347,317.141793 10.3093031,315.460522 C18.9799693,313.990772 27.7072923,312.708557 36.5043467,312.27461 C71.7012808,309.954411 107.089976,315.916275 140.504401,326.884882 C148.931007,329.468938 157.091762,332.805314 165.313533,335.958516 C173.387123,339.475884 181.534804,342.831886 189.390484,346.820272 C197.385627,350.525175 205.077875,354.821032 212.842032,358.972966 C216.744813,361.011862 220.455832,363.388757 224.273627,365.582479 C228.041303,367.856884 231.913576,369.96556 235.594087,372.379526 L257.786111,386.6518 C261.481877,389.015611 265.140597,391.436119 268.86687,393.749775 L280.165539,400.492307 C283.900528,402.79288 287.761905,404.875389 291.60585,406.986246 C295.465048,409.073116 299.258873,411.277741 303.166012,413.266483 C311.004259,417.200353 318.768417,421.289049 326.789709,424.843488 C354.437425,437.773156 383.260894,448.090585 412.704966,456.058472 C413.698763,456.005385 414.69241,455.949185 415.685888,455.889901 C381.527394,443.745078 348.518291,428.368681 317.224725,410.133998 C301.517184,401.025998 286.221451,391.221734 271.385463,380.764723 L249.302521,364.950833 C245.574459,362.39424 241.885616,359.785426 238.090008,357.333273 L232.431459,353.606086 L226.69447,349.998569 C196.081216,330.842613 163.291262,314.887295 128.647082,304.49991 C94.0922355,294.069009 57.5851134,289.308305 21.515946,292.663426 C3.50750888,294.308349 -14.3353334,297.959382 -31.5092598,303.673097 C-40.1005808,306.519075 -48.5088759,309.919888 -56.6622421,313.853778 C-64.7829251,317.829009 -72.7663387,322.208943 -80.0002179,327.661558 C-72.8120952,322.145844 -64.8591859,317.694108 -56.7624705,313.644899 C-48.6352508,309.637031 -40.2422079,306.160064 -31.6574236,303.23358 C-14.4987494,297.361031 3.36588172,293.544635 21.426612,291.740877 C57.6003655,288.063734 94.3406277,292.524174 129.176549,302.724437 C164.064764,313.003031 197.103111,328.884371 227.951683,347.98158 L233.73225,351.580393 L239.436556,355.296701 C243.260489,357.742327 246.979836,360.344613 250.734045,362.892503 L272.899784,378.610657 C287.72052,388.954525 302.994464,398.645646 318.669321,407.638327 C352.097182,426.85202 387.382935,442.935768 423.899696,455.329705 C434.530552,454.514603 445.136128,453.354081 455.693585,451.881495 C487.640424,447.427581 519.162323,440.156378 550.10238,431.004047 C581.053332,421.84731 611.435517,410.813849 641.353536,398.659201 C656.315815,392.588485 671.160417,386.2204 685.92221,379.660679 L708.001704,369.684528 C715.328121,366.292328 722.698122,362.952993 730.159648,359.853756 C760.060234,347.527295 791.664942,339.634923 823.674978,335.586311 C838.336581,333.716921 853.07855,332.632168 867.841731,332.208244 C885.13788,328.470003 902.689779,325.914744 920.319718,324.491152 C927.969492,323.864178 935.630915,323.444558 943.29701,323.214281 C963.801687,318.696806 984.675333,315.890377 1005.63154,314.686376 C1011.45148,313.145475 1017.31005,311.745696 1023.20393,310.49521 C1025.35907,310.035095 1027.49895,309.487755 1029.66934,309.101782 L1036.19795,308.037631 C1040.5518,307.35073 1044.89476,306.570062 1049.25952,305.961664 C1057.16186,305.205819 1065.03595,304.105312 1072.96447,303.723121 C1074.68513,303.216308 1076.41015,302.72369 1078.13948,302.245756 C1095.68817,297.415426 1113.66828,294.040723 1131.81399,292.508943 C1168.17949,289.169053 1204.60817,293.41191 1240.40062,298.707866 C1258.33715,301.338437 1276.23011,304.153954 1294.17972,306.527778 C1312.12497,308.905954 1330.12687,310.842437 1348.18542,312.056547 C1384.29163,314.573976 1420.60919,314.080064 1456.6631,310.635734 C1492.72791,307.247976 1528.50947,301.092569 1563.84435,293.074657 C1528.57701,301.38413 1492.8325,307.844152 1456.75243,311.534349 C1420.68327,315.283295 1384.28945,316.083998 1348.06776,313.85813 C1311.81992,311.732349 1275.90328,306.188349 1240.06725,301.018591 C1204.27698,295.890174 1168.05747,291.862723 1132.06892,295.33969 C1116.82701,296.697564 1101.76188,299.366943 1086.95506,303.10955 C1100.78924,302.749127 1114.63833,303.313556 1128.42429,304.282573 C1163.58418,306.897157 1198.24287,313.360568 1232.80569,319.636443 C1267.37286,325.910137 1301.99451,332.070439 1336.98007,335.175667 C1371.91769,338.459707 1407.15385,339.133524 1442.16992,336.261624 C1477.18381,333.413712 1511.91223,327.3559 1546,318.777272 C1511.98414,327.624119 1477.28187,333.963232 1442.23965,337.092447 C1407.19743,340.245649 1371.87847,339.853135 1336.82753,336.835132 C1301.74609,333.865104 1267.04599,327.754957 1232.45267,321.585933 C1197.87025,315.401644 1163.25949,309.047266 1128.25868,306.541714 C1110.97591,305.375353 1093.61434,304.846314 1076.32979,305.989313 C1067.67148,308.49307 1059.10987,311.350353 1050.66169,314.512251 C1075.23782,315.678229 1099.71418,318.732412 1123.97359,322.614181 C1191.37416,333.616033 1257.43891,351.737758 1325.28185,359.3467 C1359.12595,363.313829 1393.31436,364.815967 1427.35459,362.64136 C1461.39264,360.54317 1495.18227,354.608851 1528,345.253237 C1495.23892,354.800985 1461.46237,360.940538 1427.39599,363.241779 C1393.32744,365.619437 1359.06929,364.315982 1325.14456,360.54317 C1257.16652,353.087063 1191.01896,335.061404 1123.71427,324.227669 C1098.12297,320.183418 1072.31604,317.069063 1046.4364,316.122519 C1040.28287,318.509592 1034.19158,321.05538 1028.16906,323.740723 C1025.96717,324.726059 1023.77321,325.728232 1021.58704,326.746615 C1053.89314,330.34667 1085.89951,336.19578 1117.68616,342.869154 C1182.53056,356.464946 1246.6868,373.677408 1312.37616,382.604489 C1345.16858,387.083309 1378.33557,389.41439 1411.42851,387.884345 C1444.49097,386.391405 1477.45325,380.91511 1509,370.702441 C1477.49245,381.032974 1444.53235,386.635863 1411.44594,388.251032 C1378.32904,389.903306 1345.11849,387.694454 1312.27817,383.333498 C1246.51258,374.500271 1182.31061,357.346741 1117.48363,343.844803 C1085.10272,337.093257 1052.51324,331.195251 1019.63275,327.662252 C1010.34575,332.038503 1001.19875,336.705164 992.179033,341.613985 C1032.05978,348.00044 1071.57487,356.885035 1110.84568,366.230651 C1173.61926,381.125493 1236.0725,397.903665 1299.86158,407.85779 C1331.72561,412.754452 1363.96228,415.860297 1396.22292,415.016653 C1428.42473,414.126751 1460.71806,409.042857 1491,397.683393 C1460.72459,409.062681 1428.43126,414.173008 1396.2251,415.08714 C1363.9601,415.950609 1331.71471,412.868994 1299.84197,407.994359 C1236.03546,398.082086 1173.56478,381.347968 1110.78249,366.499384 C1071.35497,357.146526 1031.68644,348.259149 991.658424,341.897663 C971.887135,352.684086 952.726933,364.630866 934.043656,377.229009 C904.094961,397.683932 872.71692,416.228481 839.911714,431.846547 C807.14137,447.532064 772.939502,460.280218 737.820326,469.692833 C702.70115,479.096745 666.614552,484.910547 630.32096,487.079844 C594.02301,489.220855 557.509351,487.617273 521.542591,482.33002 C498.986413,479.015379 476.65952,474.276719 454.702365,468.20665 C447.636756,466.876659 440.599348,465.392115 433.583175,463.82416 C421.330624,462.255406 409.136651,460.24163 397.034683,457.777743 Z M954.10022,323.01326 C961.836588,322.95636 969.574373,323.08354 977.306414,323.376308 C983.675664,321.155374 990.10025,319.094793 996.575506,317.206058 C982.32273,318.376675 968.134931,320.30107 954.10022,323.01326 Z M1038.42199,315.900095 C1032.94904,315.797386 1027.47351,315.797233 1021.99673,315.911326 C1017.8424,315.995021 1013.68914,316.140639 1009.53911,316.349015 C1001.15607,318.511453 992.852018,320.970871 984.636452,323.702976 C994.926278,324.229742 1005.20191,325.039738 1015.44642,326.089314 C1019.22955,324.284543 1023.03653,322.52656 1026.86827,320.818591 C1030.69393,319.124078 1034.54534,317.482491 1038.42199,315.900095 Z M1042.65351,314.200608 C1049.16973,311.626524 1055.75609,309.224478 1062.41023,307.023806 C1058.13383,307.47753 1053.86322,308.000465 1049.5842,308.419243 C1045.25214,309.036363 1040.94404,309.825754 1036.62287,310.519197 L1030.14439,311.59207 C1027.99143,311.980224 1025.87116,312.531925 1023.73128,312.99204 C1022.0021,313.363924 1020.27599,313.748758 1018.55303,314.146336 C1019.68998,314.116512 1020.827,314.091329 1021.96404,314.07077 C1028.86565,313.94128 1035.76299,313.992332 1042.65351,314.200609 Z M913.337666,333.277757 C883.494063,342.573486 854.843821,355.588835 827.783728,371.254638 C798.310962,388.500844 767.816182,404.148845 736.34951,417.493421 C673.433597,444.156374 606.381692,461.568514 538.163951,466.57273 C512.607431,468.454997 486.896165,468.483185 461.328798,466.61182 C461.736175,466.719304 462.143674,466.826325 462.551293,466.932882 C467.558426,467.776442 472.580726,468.52971 477.620949,469.167129 L484.129941,470.09172 C486.300332,470.388286 488.485976,470.564918 490.662904,470.806969 L503.739724,472.167687 C508.106654,472.525311 512.482301,472.765181 516.853589,473.070471 C521.224878,473.382302 525.596166,473.672327 529.980529,473.733385 L543.118364,474.110635 C547.500548,474.167332 551.882732,474.0583 556.264916,474.043035 C565.031463,474.114996 573.778398,473.480431 582.53187,473.129348 C586.909696,472.924368 591.26791,472.438086 595.637019,472.106629 C599.997412,471.69885 604.379596,471.476425 608.720376,470.865846 C617.415013,469.78643 626.13144,468.859659 634.765062,467.333213 C639.086231,466.611422 643.429191,466.007385 647.732927,465.191827 L660.624523,462.629578 L667.068142,461.336459 L673.461641,459.818736 L686.25082,456.781107 C690.49572,455.703872 694.701396,454.467451 698.928863,453.320435 C703.138898,452.10364 707.405589,451.091824 711.561146,449.694035 C719.89623,446.985683 728.329373,444.576078 736.53589,441.490476 C769.627806,429.933096 801.756558,415.630294 832.627965,398.981125 C840.302779,394.744146 847.916579,390.389413 855.536915,386.049944 L878.007865,372.338094 L900.659681,358.724373 C908.419481,354.552813 916.140056,350.30275 923.934722,346.194429 C931.116057,342.555655 938.395433,339.098531 945.764899,335.842639 C937.28542,334.972199 928.788045,334.248185 920.271673,333.689763 C917.961398,333.539608 915.649986,333.402114 913.337666,333.277757 Z M907.424491,332.988758 C895.840584,332.479974 884.23871,332.310657 872.64725,332.540539 C856.017065,335.94981 839.612944,340.446399 823.591017,346.075482 L817.704585,348.026781 L811.959705,350.362228 L800.469946,355.039669 L794.725067,357.377299 C792.821722,358.1827 790.994598,359.160532 789.126096,360.04451 L777.971709,365.477152 C770.506415,369.017427 763.171785,372.911294 755.800133,376.704758 C748.382749,380.410915 740.974076,384.143265 733.469582,387.666079 C718.506327,394.825206 703.281743,401.412475 687.965694,407.768383 C672.562535,413.912572 657.091867,419.901793 641.34898,425.127082 C625.634405,430.413486 609.776098,435.302646 593.723973,439.464979 C585.729488,441.673832 577.639182,443.489805 569.572831,445.412729 C565.533122,446.338177 561.460747,447.126118 557.407972,447.990451 L551.31901,449.258577 L545.201737,450.369551 C528.914416,453.503852 512.452875,455.645042 495.967379,457.378074 C479.466639,459.063088 462.885323,459.783366 446.306185,460 C443.575355,460.003863 440.844762,459.986438 438.114638,459.947842 C442.566135,461.329683 447.034438,462.656548 451.518438,463.927447 C480.26708,466.534691 509.242016,466.716396 538.01577,464.54004 C605.974194,459.41574 672.74935,441.933733 735.397229,415.235847 C766.787632,401.972054 797.186529,386.470337 826.663654,369.298365 C852.272391,354.541652 879.307099,342.136788 907.424491,332.988758 Z M914.483391,332.922895 C916.422291,333.032132 918.36048,333.150546 920.297823,333.277853 C929.049911,333.85798 937.781396,334.612791 946.493515,335.521516 C955.616112,331.51074 964.876137,327.808818 974.258544,324.4528 C965.386112,324.177678 956.509111,324.124098 947.638471,324.320126 C938.788851,326.190096 930.005951,328.377589 921.312093,330.891224 C919.029117,331.546591 916.752825,332.22397 914.483391,332.922895 Z M908.568609,332.61851 C912.606457,331.318849 916.666491,330.086467 920.747697,328.924035 C926.101627,327.387325 931.488928,325.973717 936.904263,324.681185 C931.405183,324.930608 925.910249,325.280462 920.422072,325.737451 C905.201651,326.986342 890.044396,329.08058 875.063985,332.053058 C886.234106,331.892911 897.410845,332.099252 908.568609,332.61851 Z M403.558672,457.262898 C405.410817,457.407475 407.263617,457.542458 409.117,457.667812 C407.945939,457.340825 406.775913,457.010115 405.606955,456.675666 C404.149612,456.730415 402.692045,456.778345 401.234314,456.81937 C402.00875,456.969054 402.783537,457.116896 403.558672,457.262898 Z M951.324638,336.434425 C942.493801,340.247788 933.788061,344.356108 925.220395,348.726149 C917.478028,352.834471 909.809751,357.082353 902.10225,361.253913 L879.596434,374.865453 L857.090619,388.679793 C849.45067,393.060694 841.815079,397.452498 834.116295,401.730909 C803.151186,418.530542 770.909121,433.016518 737.653771,444.700375 C729.394956,447.781616 720.907335,450.182498 712.522132,452.882127 C708.340426,454.275555 704.043227,455.283009 699.809222,456.493263 C695.553427,457.635917 691.321601,458.865797 687.048373,459.938671 L674.180747,462.958854 L667.745844,464.467855 L661.263001,465.75007 L648.292957,468.290513 C643.963072,469.09953 639.593962,469.697024 635.246644,470.410093 C626.562903,471.921275 617.794177,472.830601 609.047242,473.892571 C604.680312,474.492247 600.274158,474.705949 595.887616,475.102825 C591.494537,475.425559 587.112353,475.900938 582.710557,476.097196 C573.906965,476.426472 565.109911,477.039231 556.295423,476.941103 C551.891448,476.947645 547.485294,477.043593 543.081319,476.975993 L529.871574,476.559491 C525.46542,476.485349 521.070161,476.184421 516.677082,475.859506 C512.284002,475.541133 507.884385,475.285999 503.497843,474.91529 L491.107516,473.591082 C501.356585,475.692435 511.668472,477.497295 522.03066,478.994481 C557.779532,484.192525 594.055693,485.730833 630.109608,483.550657 C666.159166,481.342196 701.990835,475.506635 736.865977,466.12013 C771.765086,456.822833 805.777391,444.207404 838.390856,428.658965 C871.050078,413.169273 902.258165,394.794437 932.161104,374.439602 C949.761705,362.610805 967.794244,351.348689 986.378453,341.073685 C974.725678,339.288974 963.042045,337.725649 951.324638,336.434425 Z M952.049871,336.122036 C963.700745,337.424813 975.317392,338.995452 986.902781,340.784134 C995.637994,335.965965 1004.4952,331.36651 1013.48681,327.029354 C1002.878,325.987023 992.239323,325.204383 981.589717,324.730021 C971.604217,328.141475 961.751877,331.953471 952.049871,336.122036 Z M421.485412,458.360637 C421.97992,458.382584 422.474458,458.403841 422.969026,458.424407 C420.777387,457.678206 418.590272,456.918718 416.407828,456.14604 C415.479747,456.202095 414.551517,456.255465 413.623152,456.306128 C416.239185,457.009412 418.860069,457.694187 421.485412,458.360637 Z M434.385395,458.776107 C438.35585,458.855556 442.3275,458.890223 446.299651,458.879745 C462.843946,458.641835 479.386063,457.904096 495.849781,456.20162 C512.300433,454.448944 528.724952,452.294658 544.975252,449.145079 L551.079458,448.027557 L557.153177,446.755065 C561.199419,445.888549 565.260905,445.096243 569.29408,444.16643 C577.340831,442.236958 585.413715,440.414437 593.390779,438.199036 C609.40806,434.025789 625.229345,429.123534 640.911255,423.828399 C656.619297,418.592196 672.057299,412.594245 687.425614,406.441325 C702.706819,400.074504 717.898737,393.478504 732.829326,386.315012 C740.322931,382.792198 747.727249,379.083858 755.1381,375.392979 C762.505396,371.610428 769.818249,367.742754 777.331454,364.187199 L788.531573,358.750192 C790.408785,357.866215 792.242443,356.8862 794.154499,356.082981 L799.923334,353.740986 L811.461003,349.061362 L817.229837,346.725915 L823.140225,344.774617 C836.991049,339.927935 851.124354,335.924646 865.438981,332.735539 C851.497175,333.214448 837.578968,334.289343 823.733816,336.064303 C791.763005,340.130537 760.208419,348.036125 730.364492,360.362586 C722.911682,363.453012 715.554756,366.77913 708.219623,370.17133 L686.124875,380.132063 C671.356544,386.68077 656.503224,393.040044 641.53005,399.101949 C611.592418,411.238976 581.188441,422.254814 550.215697,431.391727 C519.25167,440.524234 487.707979,447.777814 455.737169,452.207499 C445.408863,453.64002 435.034567,454.774284 424.635768,455.578974 C427.876139,456.673873 431.12616,457.739714 434.385395,458.776107 Z" id="Combined-Shape"></path>
        </g>
    </g>
</svg>