<svg xmlns="http://www.w3.org/2000/svg" viewBox="0 0 56 56"><defs><style>.cls-1{fill:#fd2500;}.cls-2{fill:none;stroke:#fd2500;stroke-miterlimit:10;stroke-width:4px;}</style></defs><title>Domain</title><g id="Layer_3" data-name="Layer 3"><path class="cls-1" d="M28.647,10a19,19,0,1,1-19,19,19.022,19.022,0,0,1,19-19m0-4a23,23,0,1,0,23,23,23,23,0,0,0-23-23Z"/><path class="cls-1" d="M28.647,11.561c.4.35.79.722,1.172,1.115C34.344,17.324,35.294,24.118,35.294,29s-.95,11.676-5.475,16.324c-.382.393-.774.765-1.172,1.115q-.6-.525-1.172-1.115C22.95,40.676,22,33.882,22,29s.95-11.676,5.474-16.324q.574-.59,1.173-1.115m0-5a22.869,22.869,0,0,0-4.039,3.325C20.025,14.594,18,21.4,18,29s2.025,14.406,6.608,19.114a22.869,22.869,0,0,0,4.039,3.325,22.9,22.9,0,0,0,4.038-3.325C37.268,43.406,39.294,36.6,39.294,29S37.268,14.594,32.685,9.886a22.9,22.9,0,0,0-4.038-3.325Z"/><line class="cls-2" x1="6.641" y1="28.672" x2="51.482" y2="28.672"/></g></svg>