<svg width="396" height="360" viewBox="0 0 396 360" fill="none" xmlns="http://www.w3.org/2000/svg">
<circle cx="197.5" cy="179.5" r="118.5" fill="#FF0000"/>
<g clip-path="url(#clip0)">
<path d="M270.725 203.006C275.372 199.023 277.231 189.863 271.522 187.739C269.265 186.942 266.742 187.606 264.618 186.677C261.829 185.615 260.502 182.429 259.439 179.508C256.784 171.941 253.996 164.374 251.34 156.94C249.747 152.426 247.224 147.116 242.445 146.452C239.789 146.054 237.134 147.381 234.478 147.912C225.184 149.638 209.65 127.203 202.613 142.337C201.683 138.221 194.912 139.814 192.787 143.399C190.663 146.983 190.265 151.895 186.813 154.417C184.29 156.409 180.44 156.409 178.315 158.931C176.855 160.657 176.589 163.047 176.456 165.303C176.058 169.552 175.792 173.932 175.394 178.181C175.129 181.632 174.863 185.349 176.589 188.403C178.315 191.456 182.829 193.182 185.352 190.792C186.547 189.73 187.078 188.137 188.008 186.81C189.601 184.686 192.389 183.756 194.912 184.42C197.036 184.951 198.762 186.544 200.223 188.137C212.305 201.147 216.554 219.6 217.085 237.257C217.218 240.443 217.218 243.762 218.413 246.815C219.873 250.4 222.794 253.187 223.591 256.905C224.255 259.692 223.591 262.878 224.786 265.534C227.043 270.446 234.478 270.578 238.594 267.127C242.71 263.675 244.038 257.967 244.967 252.656C245.764 247.346 246.295 241.77 249.349 237.257C251.208 234.469 253.863 232.212 255.191 229.159C257.05 224.91 255.722 219.733 257.315 215.485C259.439 209.644 266.078 207.121 270.725 203.006Z" fill="#F5F8FA" fill-opacity="0.5"/>
<path d="M124.94 272.436C126.135 273.366 127.33 274.295 128.657 275.224C129.587 275.888 130.649 276.552 131.578 277.348C132.64 278.012 133.57 278.676 134.632 279.34C135.296 279.738 136.093 280.269 136.756 280.667C136.624 280.402 136.624 280.269 136.491 280.003C133.835 274.295 133.703 266.064 139.279 263.143C140.341 262.612 141.536 262.347 142.466 261.418C144.988 259.028 142.864 254.116 145.387 251.859C146.847 250.532 148.972 250.664 150.698 249.868C153.884 248.408 154.814 244.425 154.548 240.973C154.283 237.522 153.22 234.07 153.619 230.751C154.283 225.574 158.266 220.263 156.009 215.617C153.353 210.44 145.785 211.236 140.474 208.847C133.039 205.528 130.649 196.368 125.869 189.73C121.488 183.889 111.264 177.384 103.563 179.242C97.9867 180.57 95.9951 183.889 95.464 188.004C95.1985 188.004 94.9329 187.871 94.8002 187.871C92.6758 187.606 90.2859 187.473 89.0909 185.747C87.7632 183.756 89.0909 180.702 87.7632 178.844C87.0993 177.782 85.7716 177.384 84.8422 176.587C83.78 175.923 82.9834 174.463 83.6472 173.401C84.1783 172.472 85.506 172.339 86.1699 171.41C86.701 170.746 86.701 169.684 86.1699 169.02C84.0455 166.498 81.6556 171.675 80.4607 172.87C80.0623 173.268 79.7968 173.534 79.5312 173.799C79.5312 174.065 79.5312 174.197 79.5312 174.463C79.5312 175.127 79.5312 175.923 79.5312 176.587C79.5312 177.251 79.5312 178.047 79.5312 178.711C79.5312 179.242 79.5312 179.906 79.5312 180.437C79.5312 180.968 79.5312 181.632 79.5312 182.163C79.5312 182.428 79.5312 182.694 79.5312 182.959C80.0623 196.102 82.585 208.847 87.0993 220.529C89.0909 225.839 91.4808 231.149 94.4018 236.061C95.5968 238.185 96.7918 240.31 98.1195 242.434C99.7128 244.956 101.439 247.478 103.298 250.001C105.024 252.39 106.883 254.647 108.741 256.771C111.397 259.825 114.185 262.612 117.106 265.4C119.363 267.923 122.019 270.312 124.94 272.436Z" fill="#F5F8FA" fill-opacity="0.5"/>
<path d="M86.4358 144.328C88.6929 142.469 92.4106 142.204 94.1366 144.593C95.3316 146.319 95.066 148.576 94.8005 150.7C94.4022 153.488 93.8711 156.276 93.4727 159.064C93.34 159.86 93.2072 160.789 93.6055 161.586C94.4022 163.312 97.3232 163.046 98.3853 161.453C99.4475 159.86 99.3148 157.736 99.0492 155.745C98.7837 153.753 98.3853 151.762 99.0492 150.036C100.908 145.523 107.547 146.186 111.397 143.398C113.787 141.54 114.849 138.619 116.31 135.964C117.77 133.309 120.16 130.654 123.081 130.787C124.143 130.787 125.073 131.185 126.135 131.185C129.056 131.052 130.782 126.804 128.658 124.68C128.259 124.282 127.595 123.883 127.33 123.352C126.799 122.423 127.33 121.096 128.259 120.432C129.189 119.768 130.251 119.635 131.446 119.37C133.969 118.971 136.491 118.573 139.014 118.175C141.802 117.777 145.387 116.316 144.989 113.529C144.59 111.139 141.404 110.077 140.873 107.687C140.74 107.156 140.873 106.492 140.607 105.961C139.811 104.368 137.553 105.032 136.093 105.829C135.429 103.572 132.242 102.643 130.516 104.103C129.056 105.298 128.79 107.555 128.259 109.413C127.064 113.927 123.479 117.378 120.027 120.432C118.832 121.494 117.637 122.556 116.044 122.689C114.451 122.821 112.858 121.096 113.521 119.768C114.053 118.839 115.38 118.308 115.248 117.246C115.115 115.918 112.725 116.051 112.327 114.723C113.256 111.006 117.505 109.413 120.691 107.422C124.674 105.032 127.728 101.182 129.321 96.8014C129.587 96.1376 129.853 95.3411 129.454 94.6773C128.923 93.748 127.728 93.6152 126.666 93.6152C124.143 93.6152 120.957 93.8807 120.16 96.2703C119.629 97.4651 120.027 98.9254 119.762 100.253C118.832 104.103 113.521 104.634 110.335 106.891C109.007 107.82 108.078 109.015 106.617 109.679C105.157 110.475 103.298 110.342 101.572 110.475C101.306 110.475 100.908 110.475 100.642 110.608C99.5803 112.068 98.6509 113.529 97.7215 114.989C96.7921 116.449 95.8627 118.042 94.9332 119.503C90.6845 126.671 87.2324 134.371 84.7097 142.469C83.7803 145.257 82.9837 148.178 82.3198 150.966C81.6559 153.753 80.9921 156.807 80.5938 159.727C81.7887 157.338 82.3198 154.417 82.7181 152.293C83.382 149.24 84.3114 146.186 86.4358 144.328Z" fill="#F5F8FA" fill-opacity="0.5"/>
<path d="M185.882 86.0482C186.944 84.5879 186.679 82.4638 187.343 80.738C188.538 77.9501 192.255 76.8881 193.583 74.1002C194.114 73.0382 194.247 71.7106 195.043 70.9141C195.707 70.2503 196.902 70.1176 197.566 69.4538C199.292 68.1262 198.628 65.0729 196.77 63.8781C192.122 60.9575 183.625 64.2763 179.509 67.197C174.464 71.0469 169.418 75.5605 162.647 75.1623C160.788 75.0295 158.796 74.4985 157.07 75.1623C155.344 75.8261 154.149 78.4812 155.743 79.676C156.539 80.3397 157.734 80.0742 158.796 80.6052C160.522 81.4018 160.788 83.9241 159.859 85.7827C158.929 87.5085 157.469 88.8361 156.407 90.5619C155.477 92.1549 154.946 94.1463 155.079 96.0049C155.212 97.3324 155.61 98.66 156.672 99.4565C158.796 101.182 162.116 99.722 163.842 97.5979C165.701 95.6066 166.896 92.9515 169.286 91.4912C170.48 90.8274 171.808 90.4291 173.136 90.1636C176.057 89.4998 179.111 88.7033 182.032 88.0395C183.492 87.5085 184.953 87.1102 185.882 86.0482Z" fill="#F5F8FA" fill-opacity="0.5"/>
<path d="M316 177.251C316 175.525 316 173.799 315.867 172.206C315.735 170.48 315.602 168.887 315.469 167.161C315.336 165.834 315.204 164.506 314.938 163.179C314.805 161.718 314.54 160.391 314.274 158.931C313.61 154.815 312.681 150.7 311.486 146.584C311.088 144.991 310.556 143.531 310.025 141.938C309.494 140.478 308.963 138.885 308.432 137.424C307.768 136.362 307.237 135.167 306.441 134.105C299.802 123.618 290.242 115.52 283.072 105.563C280.683 102.377 278.824 99.589 274.708 99.0579C268.467 98.1286 265.414 101.58 261.032 95.7391C259.837 94.146 257.846 92.6857 255.987 93.615C256.385 94.8098 256.916 96.1373 257.314 97.4649C257.447 97.7304 257.447 97.9959 257.447 98.2614C257.314 99.1907 255.987 99.3234 255.323 98.9252C254.526 98.3942 254.261 97.5976 253.73 96.8011C251.738 94.0132 247.224 93.615 244.834 96.0046C244.701 94.8098 243.904 93.7477 242.842 93.2167C242.577 95.4735 239.921 97.1994 237.797 96.5356C237.398 95.3408 239.523 95.208 240.187 94.146C240.851 93.2167 240.054 91.8892 239.257 91.2254C237 89.234 234.079 88.172 231.158 88.0392C229.299 88.0392 227.175 88.3048 225.582 87.3755C224.652 86.8445 223.988 85.9152 222.926 85.3841C220.802 84.1893 218.279 85.2514 216.155 86.4462C213.234 88.0392 210.313 90.0306 209.251 93.2167C208.188 96.2701 210.446 100.518 213.765 100.12C214.562 99.9872 215.491 99.589 216.288 99.8545C217.483 100.12 218.014 101.58 218.014 102.775C218.146 103.97 218.014 105.297 218.545 106.227C219.076 107.289 220.802 107.82 221.466 106.758C223.059 105.297 222.793 102.775 222.395 100.784C221.997 98.6597 221.599 96.4028 222.793 94.677C223.988 92.9512 227.573 93.4822 227.308 95.6063C227.175 96.8011 225.714 97.7304 225.847 99.0579C225.847 100.385 227.441 101.049 228.768 100.917C230.096 100.917 231.291 100.385 232.619 100.784C233.814 101.049 234.876 102.775 233.946 103.572C232.353 105.297 228.37 102.377 227.573 104.501C227.308 105.032 227.573 105.696 227.573 106.359C227.441 108.218 225.051 108.882 223.325 109.147C221.466 109.413 219.474 109.546 217.881 108.749C216.155 107.953 215.093 105.828 216.022 104.235C215.093 103.572 213.632 104.235 213.101 105.297C212.57 106.359 212.703 107.554 212.835 108.749C210.844 108.351 209.118 109.944 208.056 111.537C206.993 113.13 205.798 115.121 203.94 115.652C202.081 116.183 199.425 115.387 198.363 117.113C197.035 119.369 200.886 122.157 199.558 124.414C198.762 125.609 197.035 125.609 195.575 126.007C191.857 127.069 190.53 132.645 193.052 135.566C195.575 138.486 200.753 138.353 203.541 135.566C205.4 133.574 206.197 130.919 207.525 128.53C208.852 126.273 211.508 124.149 214.03 124.812C215.093 125.078 215.889 125.874 216.686 126.538C217.881 127.6 219.209 128.662 220.404 129.724C221.2 130.388 222.13 131.185 221.997 132.247C221.864 133.043 221.2 133.707 220.935 134.504C220.138 136.76 223.457 138.885 225.449 137.69C227.573 136.495 227.706 133.309 226.378 131.317C224.387 128.662 220.005 127.202 220.138 123.883C222.395 122.025 225.98 124.016 227.308 126.538C228.635 129.061 228.635 132.247 229.83 134.902C230.893 137.557 234.079 139.947 236.602 138.619C235.938 136.229 235.274 133.973 234.61 131.716C236.204 130.521 238.195 134.105 240.187 133.442C241.382 133.043 241.514 131.317 240.983 130.123C240.452 128.928 239.523 127.999 239.257 126.671C238.859 124.414 241.382 122.29 243.772 122.688C246.029 123.087 247.755 125.211 248.153 127.468C248.286 128.397 248.419 129.326 248.817 130.123C249.614 131.981 251.871 132.512 253.73 133.176C255.588 133.973 257.447 135.831 256.783 137.557C256.385 138.353 255.588 139.15 255.854 139.947C256.119 140.743 257.182 141.009 257.182 141.805C257.182 142.336 256.651 142.734 256.119 142.867C254.925 143.398 253.597 143.531 252.269 144.062C251.074 144.593 250.012 145.788 250.012 147.115C250.145 148.974 252.402 149.903 253.464 151.496C254.526 152.957 254.261 154.948 254.925 156.674C255.588 158.267 256.783 159.462 257.713 160.789C260.767 165.037 261.563 170.48 263.024 175.525C263.688 177.782 264.883 180.304 267.272 180.702C268.6 180.968 269.795 180.437 270.99 179.906C274.309 178.578 277.894 177.118 280.151 174.463C282.541 171.675 283.338 167.294 280.948 164.639C280.683 164.241 280.284 163.975 279.753 163.842C279.089 163.71 278.558 164.241 278.027 164.506C276.301 165.303 274.177 164.639 272.849 163.444C271.388 162.249 270.592 160.524 269.795 158.798C268.866 156.939 267.936 155.081 267.007 153.222C268.069 152.293 269.928 152.691 270.99 153.62C272.052 154.55 272.849 155.877 273.778 156.939C276.567 160.391 281.214 161.984 285.595 162.515C286.657 162.648 287.852 162.78 288.914 163.179C292.234 164.639 293.163 169.551 296.748 170.613C297.677 170.879 298.872 170.879 299.669 171.277C300.997 171.941 301.793 173.534 302.192 174.994C302.988 177.782 303.254 180.702 304.449 183.225C305.644 185.88 307.901 188.269 310.822 188.269C312.548 188.269 314.274 187.473 315.602 186.145C315.735 183.623 315.867 180.968 315.867 178.313C316 178.313 316 177.782 316 177.251Z" fill="#F5F8FA" fill-opacity="0.5"/>
<path d="M268.202 226.37C266.476 226.768 266.078 227.698 265.148 229.025C263.953 230.751 262.095 232.477 261.032 234.07C259.041 236.858 260.9 241.371 258.244 243.761C257.713 244.292 257.049 244.558 256.651 245.089C255.589 246.283 255.987 248.275 257.315 249.204C258.51 250.133 260.368 250.133 261.696 249.337C263.024 248.54 263.953 247.08 264.352 245.62C264.75 244.558 264.883 243.363 265.679 242.566C267.14 241.239 269.397 242.301 271.256 242.035C279.488 240.973 276.036 224.91 268.202 226.37Z" fill="#F5F8FA" fill-opacity="0.5"/>
</g>
<path d="M238 180L178 214.641L178 145.359L238 180Z" fill="white"/>
<circle cx="355" cy="95" r="10" fill="#FF0000"/>
<circle cx="39" cy="284" r="14" fill="#FF0000"/>
<circle cx="313.5" cy="300.5" r="7.5" fill="#FF0000"/>
<circle cx="322.5" cy="284.5" r="2.5" fill="#FF0000"/>
<circle cx="64.5" cy="48.5" r="14.5" fill="#FF0000"/>
<circle cx="42.5" cy="78.5" r="4.5" fill="#FF0000"/>
<path d="M337.096 314.07C337.096 314.07 337.592 313.41 338.419 312.254C338.584 311.924 338.915 311.593 339.246 311.263C339.576 310.933 339.742 310.437 340.072 309.942C340.568 308.951 341.229 307.96 341.725 306.474C342.056 305.813 342.387 305.153 342.552 304.327C342.717 303.501 343.048 302.676 343.213 301.85C343.544 301.024 343.709 300.033 343.709 299.042C343.875 298.052 344.04 297.061 344.205 296.07C344.701 291.941 344.371 286.987 343.544 281.537C341.891 270.638 337.262 257.922 330.153 244.05C323.044 230.178 313.455 215.15 301.551 199.626C289.648 184.103 275.43 167.919 258.897 151.735C242.364 135.551 223.848 119.367 202.852 104.009C192.436 96.4122 181.359 88.8157 169.786 81.8797C158.214 74.7785 145.979 68.338 133.084 62.558C120.189 56.9431 106.466 51.9888 92.2485 49.6768C85.1394 48.5208 77.6998 48.0254 70.4254 49.1814C66.7882 49.6768 63.3164 50.6677 59.8446 52.154C56.538 53.8054 53.5622 55.9522 51.0823 58.5945C48.6024 61.402 46.9491 64.7048 45.6265 68.1728C44.4692 71.6408 43.9733 75.274 43.8079 78.9071C43.4773 86.1734 44.9652 93.4397 46.7838 100.541C50.7516 114.578 57.1993 127.459 64.143 139.68C71.2521 151.9 79.1877 163.295 87.454 174.029C95.7203 184.764 104.483 194.837 113.245 204.416C130.935 223.407 149.121 240.086 167.141 254.619C185.162 269.152 202.686 281.537 219.549 291.446C236.413 301.52 252.449 309.446 266.998 314.731C281.547 320.181 294.773 323.318 305.85 323.649C311.305 323.814 316.265 323.649 320.398 322.658C321.39 322.493 322.382 322.162 323.374 321.832C324.366 321.502 325.193 321.337 326.019 321.006C326.846 320.676 327.673 320.346 328.334 320.016C328.995 319.685 329.657 319.19 330.318 318.86C331.641 318.199 332.632 317.373 333.459 316.713C333.955 316.382 334.286 316.052 334.616 315.887C334.947 315.557 335.278 315.226 335.443 315.061C336.6 314.566 337.096 314.07 337.096 314.07C337.096 314.07 336.6 314.566 335.443 315.722C335.112 316.052 334.947 316.217 334.616 316.548C334.286 316.878 333.79 317.208 333.459 317.538C332.632 318.199 331.641 319.025 330.318 319.685C329.657 320.016 328.995 320.511 328.334 320.841C327.507 321.172 326.846 321.502 326.019 321.832C325.193 322.162 324.366 322.493 323.374 322.658C322.382 322.823 321.39 323.318 320.398 323.484C316.265 324.474 311.305 324.805 305.85 324.64C294.773 324.309 281.547 321.172 266.998 315.887C252.284 310.602 236.247 302.676 219.384 292.602C202.521 282.528 184.831 270.308 166.81 255.775C148.79 241.242 130.604 224.563 112.749 205.572C103.987 195.993 95.2243 185.92 86.958 175.185C78.6917 164.451 70.7561 153.056 63.4817 140.836C56.3727 128.615 49.925 115.569 45.9572 101.532C43.9733 94.4305 42.6506 87.1642 42.9813 79.7328C43.1466 75.9345 43.6426 72.3014 44.7999 68.6682C46.1225 65.0351 47.9411 61.7322 50.421 58.9248C53.0662 56.1174 56.2074 53.9705 59.5139 52.3191C62.9858 50.8328 66.6229 49.842 70.2601 49.1814C77.6998 48.0254 85.1394 48.686 92.4138 49.6768C106.962 51.9888 120.519 56.9431 133.58 62.558C146.475 68.338 158.875 74.7785 170.448 81.8797C182.02 88.9808 193.097 96.4122 203.513 104.009C224.344 119.367 243.026 135.716 259.558 151.9C275.926 168.084 290.309 184.268 302.212 199.957C314.116 215.645 323.705 230.508 330.814 244.545C337.758 258.417 342.387 271.298 344.04 282.198C344.867 287.648 345.032 292.602 344.701 296.73C344.701 297.721 344.371 298.712 344.205 299.703C344.04 300.694 343.875 301.52 343.544 302.51C343.379 303.336 343.048 304.162 342.883 304.988C342.552 305.813 342.221 306.474 342.056 307.134C341.56 308.456 340.899 309.612 340.237 310.602C339.907 311.098 339.741 311.593 339.411 311.924C339.08 312.254 338.915 312.584 338.584 312.914C337.592 313.41 337.096 314.07 337.096 314.07Z" fill="#960020"/>
<path d="M390 186.414C390 186.414 390 185.589 389.835 184.102C389.835 183.772 389.835 183.277 389.67 182.781C389.67 182.286 389.504 181.79 389.339 181.295C389.174 180.304 388.843 178.983 388.347 177.662C388.016 177.001 387.851 176.176 387.52 175.515C387.19 174.854 386.859 174.029 386.363 173.203C386.032 172.377 385.536 171.552 385.04 170.726C384.544 169.9 384.048 169.074 383.387 168.249C380.907 164.781 377.435 161.313 373.302 157.845C364.871 150.909 352.967 144.468 338.418 138.688C323.87 133.073 306.676 128.284 287.498 124.486C268.155 120.688 246.828 118.21 223.848 117.054C200.867 115.898 176.068 116.229 150.277 118.706C137.382 119.862 124.156 121.678 110.765 124.156C97.3731 126.633 83.9817 129.936 70.425 134.229C57.0336 138.688 43.6422 143.973 31.408 151.9C25.291 155.863 19.5046 160.322 14.7101 165.937C12.3956 168.744 10.4116 171.882 8.92371 175.185C7.6011 178.653 6.77447 182.121 6.60914 185.919C6.60914 189.552 7.43577 193.185 8.92371 196.653C10.4116 199.956 12.3956 203.094 14.7101 205.901C19.3392 211.516 25.291 216.14 31.408 219.938C43.6422 227.7 57.0336 233.15 70.425 237.609C83.8164 241.902 97.3731 245.205 110.765 247.682C124.156 250.16 137.382 251.976 150.277 253.132C176.068 255.609 200.867 255.774 223.848 254.784C246.828 253.628 268.32 251.15 287.498 247.352C306.676 243.554 323.87 238.93 338.418 233.15C352.967 227.535 364.871 221.094 373.302 213.993C377.601 210.525 381.073 207.057 383.387 203.589C384.048 202.764 384.544 201.938 385.04 201.112C385.536 200.286 386.032 199.461 386.363 198.635C386.694 197.809 387.19 197.149 387.52 196.323C387.851 195.497 388.016 194.837 388.347 194.176C388.843 192.855 389.174 191.534 389.339 190.543C389.504 190.048 389.504 189.552 389.67 189.057C389.67 188.561 389.669 188.231 389.835 187.901C390 187.24 390 186.414 390 186.414C390 186.414 390 187.24 389.835 188.726C389.835 189.057 389.835 189.552 389.835 190.048C389.835 190.543 389.669 191.038 389.504 191.534C389.339 192.69 389.008 193.846 388.512 195.167C388.347 195.828 388.016 196.653 387.686 197.314C387.355 197.974 387.024 198.8 386.528 199.626C386.198 200.452 385.702 201.277 385.206 202.103C384.71 202.929 384.214 203.754 383.552 204.58C381.073 208.048 377.601 211.516 373.468 214.984C365.036 222.085 352.967 228.526 338.584 234.306C324.035 240.086 306.841 244.875 287.498 248.673C268.155 252.472 246.828 254.949 223.682 256.105C200.537 257.261 175.903 256.93 149.947 254.618C137.051 253.462 123.825 251.646 110.434 249.169C97.0425 246.692 83.4857 243.389 70.0943 239.095C56.7029 234.636 43.1462 229.186 30.7467 221.425C24.6297 217.461 18.6779 212.837 13.8835 207.057C11.5689 204.25 9.41969 200.947 7.93175 197.479C6.44382 194.011 5.61719 190.213 5.61719 186.414C5.61719 182.616 6.60914 178.818 7.93175 175.35C9.41969 171.882 11.5689 168.744 13.8835 165.937C18.6779 160.157 24.6297 155.698 30.7467 151.734C43.1462 143.808 56.5376 138.358 69.929 134.064C83.3204 129.77 96.8771 126.468 110.269 123.99C123.66 121.513 136.886 119.697 149.781 118.541C175.738 116.064 200.371 115.898 223.517 117.054C246.663 118.21 267.99 120.688 287.333 124.486C306.676 128.284 323.87 133.073 338.418 138.853C352.967 144.633 364.871 151.074 373.302 158.175C377.601 161.643 381.073 165.111 383.387 168.579C384.048 169.405 384.544 170.396 385.04 171.056C385.536 171.882 386.032 172.708 386.363 173.533C386.694 174.359 387.19 175.185 387.52 175.845C387.851 176.671 388.016 177.332 388.347 177.992C388.843 179.313 389.008 180.634 389.339 181.625C389.504 182.121 389.504 182.616 389.67 183.112C389.67 183.607 389.67 183.937 389.67 184.433C390 185.754 390 186.414 390 186.414Z" fill="#960020"/>
<path d="M319.902 27.5478C319.902 27.5478 319.241 27.2175 318.084 26.3918C317.753 26.2267 317.422 25.8964 317.092 25.7312C316.761 25.5661 316.265 25.2358 315.769 25.0707C314.777 24.5752 313.62 24.0798 312.297 23.5844C311.636 23.4192 310.975 23.089 310.148 22.9238C309.321 22.7587 308.495 22.5935 307.668 22.4284C306.842 22.2632 305.85 22.0981 304.858 22.0981C303.866 22.0981 302.874 21.7678 301.882 21.933C297.583 21.7678 292.789 22.4284 287.498 23.5844C276.752 26.0615 264.353 31.5112 250.961 39.4381C237.57 47.365 223.352 58.0992 208.638 70.9804C193.924 83.8615 178.714 99.2198 163.835 116.725C148.79 134.23 133.911 153.882 120.023 175.846C113.079 186.745 106.466 198.305 100.184 210.361C93.9016 222.416 88.2805 235.132 83.4861 248.344C78.857 261.555 74.8891 275.592 73.5665 289.96C72.9052 297.226 72.9052 304.492 74.5585 311.759C75.3851 315.392 76.5424 318.86 78.361 321.997C80.1796 325.135 82.4941 328.108 85.47 330.42C88.4459 332.567 91.7524 334.218 95.3896 335.209C99.0267 336.035 102.664 336.365 106.301 336.365C113.575 336.2 120.85 334.218 127.628 331.906C141.35 326.952 153.915 319.685 165.488 311.924C177.226 303.997 187.972 295.244 198.057 286.327C208.142 277.244 217.731 267.996 226.658 258.583C244.348 239.591 259.724 220.269 272.95 201.443C286.176 182.617 297.253 164.121 306.18 146.616C314.612 128.78 321.39 112.431 325.854 97.4032C330.318 82.5404 332.467 69.1638 332.136 58.0992C331.971 52.6495 331.31 47.6952 330.152 43.7318C329.987 42.741 329.491 41.7501 329.161 40.9244C328.83 39.9335 328.499 39.1078 328.169 38.2821C327.838 37.4564 327.342 36.7958 327.011 35.9701C326.681 35.3095 326.185 34.649 325.854 33.9884C325.193 32.6672 324.201 31.8415 323.539 31.0158C323.209 30.5204 322.878 30.1901 322.547 29.8598C322.217 29.5295 321.886 29.1992 321.556 29.0341C320.398 28.0432 319.902 27.5478 319.902 27.5478C319.902 27.5478 320.564 28.0432 321.556 29.0341C321.886 29.1992 322.217 29.5295 322.547 29.8598C322.878 30.1901 323.209 30.5204 323.539 31.0158C324.201 31.8415 325.193 32.8324 325.854 33.9884C326.185 34.649 326.681 35.1444 327.177 35.9701C327.507 36.6307 327.838 37.4564 328.334 38.2821C328.83 39.1078 329.161 39.9335 329.491 40.9244C329.822 41.9152 330.318 42.741 330.483 43.7318C331.806 47.8604 332.302 52.6495 332.632 58.0992C332.963 69.1638 330.814 82.5404 326.515 97.5684C322.217 112.596 315.438 129.111 306.511 146.616C297.749 164.121 286.506 182.617 273.28 201.608C260.054 220.6 244.679 239.921 226.989 258.913C218.061 268.326 208.638 277.739 198.388 286.822C188.303 295.905 177.391 304.492 165.653 312.584C153.915 320.511 141.35 327.777 127.628 332.732C120.684 335.209 113.41 337.025 105.97 337.191C102.168 337.356 98.5308 337.025 94.7283 336.035C91.0911 335.044 87.6192 333.392 84.478 331.08C81.5022 328.768 79.0223 325.796 77.2037 322.493C75.3851 319.19 74.2278 315.557 73.4012 311.924C71.7479 304.657 71.7479 297.226 72.4092 289.96C73.7319 275.427 77.6997 261.39 82.4941 248.179C87.2886 234.802 93.075 222.251 99.1921 210.196C105.474 198.14 112.087 186.58 119.031 175.681C132.919 153.717 147.963 134.065 163.008 116.56C178.053 99.0546 193.263 83.6964 207.977 70.8152C222.691 57.9341 237.074 47.1998 250.465 39.273C263.857 31.3461 276.422 25.8964 287.168 23.5844C292.458 22.4284 297.418 21.7678 301.716 21.933C302.708 21.933 303.866 22.0981 304.692 22.0981C305.684 22.2632 306.676 22.2632 307.503 22.4284C308.329 22.5935 309.156 22.7587 309.983 22.9238C310.809 23.089 311.471 23.4192 312.132 23.5844C313.455 23.9147 314.612 24.5752 315.604 25.0707C316.1 25.401 316.596 25.5661 316.926 25.7312C317.257 26.0615 317.588 26.2267 317.918 26.3918C319.241 27.2175 319.902 27.5478 319.902 27.5478Z" fill="#960020"/>
<defs>
<clipPath id="clip0">
<rect width="237" height="217.719" fill="white" transform="translate(79 62.8164)"/>
</clipPath>
</defs>
</svg>
