<svg width="351" height="338" viewBox="0 0 351 338" fill="none" xmlns="http://www.w3.org/2000/svg">
<g clip-path="url(#clip0_6511:33400)">
<path d="M23.4711 307.889C23.4757 309.309 24.041 310.668 25.0436 311.672C26.0461 312.675 27.4044 313.24 28.8215 313.243H318.147C319.564 313.24 320.922 312.675 321.925 311.672C322.927 310.668 323.493 309.309 323.497 307.889L325.905 141.359C325.905 138.415 322.441 132.666 316.094 133.098L33.3325 125.77C31.5064 125.722 29.6896 126.046 27.9923 126.723C26.295 127.399 24.7527 128.414 23.4589 129.705C22.1651 130.997 21.1468 132.539 20.4659 134.236C19.785 135.934 19.4556 137.753 19.4977 139.582L23.4711 307.889Z" fill="#960020"/>
<path d="M28.7542 302.752C28.7581 304.096 29.2927 305.383 30.2411 306.333C31.1895 307.283 32.4747 307.818 33.816 307.822H311.171C312.512 307.818 313.797 307.283 314.745 306.333C315.694 305.383 316.228 304.096 316.232 302.752L318.504 151.575C318.236 142.477 310.273 139.207 305.446 139.4L34.4451 132.118C33.1614 132.085 31.8842 132.313 30.6912 132.789C29.4981 133.264 28.4141 133.978 27.5048 134.886C26.5956 135.795 25.8802 136.879 25.4021 138.072C24.9239 139.266 24.693 140.545 24.7233 141.83L28.7542 302.752Z" fill="#FF0000"/>
<rect x="156" y="158" width="59" height="11" rx="5.5" fill="#F5F8FA" fill-opacity="0.8"/>
<rect x="156" y="180" width="87" height="11" rx="5.5" fill="#F5F8FA" fill-opacity="0.8"/>
<path d="M209.854 210.646C210.049 210.842 210.049 211.158 209.854 211.354L206.672 214.536C206.476 214.731 206.16 214.731 205.964 214.536C205.769 214.34 205.769 214.024 205.964 213.828L208.793 211L205.964 208.172C205.769 207.976 205.769 207.66 205.964 207.464C206.16 207.269 206.476 207.269 206.672 207.464L209.854 210.646ZM209.5 211.5H207.458V210.5H209.5V211.5ZM203.375 211.5H199.292V210.5H203.375V211.5ZM195.208 211.5H191.125V210.5H195.208V211.5ZM187.042 211.5H182.958V210.5H187.042V211.5ZM178.875 211.5H174.792V210.5H178.875V211.5ZM170.708 211.5H166.625V210.5H170.708V211.5ZM162.542 211.5H158.458V210.5H162.542V211.5ZM154.375 211.5H150.292V210.5H154.375V211.5ZM146.208 211.5H142.125V210.5H146.208V211.5ZM138.042 211.5H136V210.5H138.042V211.5Z" fill="white"/>
<path d="M2.39938 327.066L338.704 327.066C340.029 327.066 341.104 325.99 341.104 324.663V314.838C341.104 313.511 340.029 312.434 338.704 312.434L2.39938 312.434C1.07401 312.434 -0.000427246 313.511 -0.000427246 314.838V324.663C-0.000427246 325.99 1.07401 327.066 2.39938 327.066Z" fill="#960020"/>
<path d="M133.966 87.0425C128.256 74.7533 122.896 62.3907 116.685 50.2793C100.841 58.3397 86.7448 69.4586 75.2078 82.9963C63.6709 96.534 54.9207 112.223 49.4609 129.161C63.0471 131.438 76.8817 132.574 90.6304 134.079C99.15 113.814 114.481 97.1735 133.966 87.0425Z" fill="#EAEDF0"/>
<path d="M92.6897 211.23C86.9147 199.248 83.7448 186.176 83.3895 172.877C83.0342 159.577 85.5016 146.354 90.6285 134.08C76.8797 132.575 63.0452 131.439 49.459 129.162C39.333 160.851 41.2446 195.169 54.8272 225.533C56.1553 225.056 57.4877 224.572 58.8188 224.061C70.3081 219.912 81.6437 215.928 92.6897 211.23Z" fill="#D1D5D9"/>
<path d="M233.658 292.552C227.764 280.213 222.254 267.764 216.645 255.367C204.409 261.078 191.086 264.078 177.586 264.161C164.086 264.244 150.728 261.409 138.422 255.849C132.209 267.869 126.318 280.034 119.201 291.651C137.041 300.217 156.546 304.738 176.329 304.894C196.112 305.05 215.686 300.835 233.658 292.552Z" fill="#D1D5D9"/>
<path d="M92.6906 211.229C81.6446 215.927 70.309 219.911 58.8197 224.06C57.4886 224.571 56.1562 225.055 54.8281 225.532C67.8611 254.463 90.6522 277.872 119.201 291.65C126.317 280.033 132.209 267.868 138.422 255.848C118.448 246.773 102.272 230.989 92.6906 211.229Z" fill="#EAEDF0"/>
<path d="M194.847 36.9203C168.044 33.4348 140.814 38.0888 116.682 50.2797C122.893 62.3911 128.253 74.7537 133.963 87.0429C151.848 77.7999 172.224 74.5527 192.09 77.7794C193.967 64.9709 195.177 52.0238 194.864 38.9756C194.834 38.2919 194.83 37.6073 194.847 36.9203Z" fill="#D1D5D9"/>
<path d="M194.848 36.9199C194.831 37.6069 194.835 38.2915 194.865 38.9752C195.178 52.0234 193.969 64.9706 192.092 77.779C211.17 80.8938 228.815 89.8535 242.599 103.425C253.039 94.5821 263.224 85.3967 273.431 76.2906C252.805 55.173 225.348 40.8904 194.848 36.9199Z" fill="#EAEDF0"/>
<path d="M310.165 149.91C305.932 122.119 293.081 96.3648 273.431 76.291C263.224 85.397 253.04 94.5817 242.6 103.426C256.783 117.333 266.171 135.407 269.398 155.023C283.034 153.539 296.563 151.869 310.165 149.91Z" fill="#D1D5D9"/>
<path d="M269.397 155.023C270.007 158.722 270.396 162.454 270.563 166.2C271.431 185.076 266.558 203.771 256.59 219.814C268.638 226.315 280.157 233.658 291.465 241.406C305.817 218.367 312.835 191.501 311.587 164.374C311.371 159.531 310.896 154.703 310.165 149.91C296.563 151.869 283.034 153.539 269.397 155.023Z" fill="#EAEDF0"/>
<path d="M216.646 255.367C222.255 267.764 227.765 280.213 233.659 292.552C257.49 281.506 277.581 263.73 291.466 241.407C280.159 233.659 268.639 226.316 256.591 219.814C246.991 235.287 233.115 247.637 216.646 255.367Z" fill="#DFDFDF"/>
<path d="M146.182 249.659L105.436 251.473C104.998 251.492 104.571 251.614 104.187 251.827C103.804 252.04 103.475 252.34 103.227 252.702C102.979 253.065 102.818 253.48 102.758 253.915C102.697 254.35 102.738 254.793 102.878 255.21L116.526 295.88C116.696 296.387 117.006 296.836 117.42 297.174C117.834 297.512 118.335 297.726 118.865 297.791C119.395 297.857 119.933 297.77 120.416 297.542C120.9 297.314 121.309 296.954 121.596 296.503L148.695 254.019C148.974 253.582 149.127 253.076 149.139 252.557C149.151 252.037 149.02 251.525 148.761 251.075C148.502 250.625 148.124 250.255 147.669 250.006C147.215 249.756 146.7 249.636 146.182 249.659Z" fill="#D1D5D9"/>
<path d="M190.444 85.1769L225.625 64.5093C226.003 64.287 226.325 63.9797 226.565 63.6116C226.804 63.2435 226.955 62.8248 227.006 62.3883C227.056 61.9518 227.004 61.5096 226.855 61.0965C226.705 60.6834 226.462 60.3107 226.144 60.0079L195.108 30.4338C194.721 30.065 194.238 29.8133 193.714 29.7079C193.191 29.6025 192.648 29.6476 192.149 29.8381C191.649 30.0285 191.214 30.3565 190.893 30.7842C190.572 31.2118 190.378 31.7217 190.335 32.255L186.189 82.4969C186.147 83.0145 186.247 83.5339 186.478 83.9985C186.71 84.4631 187.065 84.855 187.504 85.1315C187.943 85.408 188.449 85.5584 188.968 85.5664C189.486 85.5744 189.997 85.4397 190.444 85.1769Z" fill="#D1D5D9"/>
<path d="M264.274 160.071L292.053 189.982C292.352 190.304 292.721 190.551 293.132 190.706C293.543 190.86 293.984 190.917 294.42 190.871C294.856 190.826 295.276 190.679 295.646 190.443C296.016 190.208 296.327 189.889 296.553 189.512L318.64 152.75C318.916 152.291 319.056 151.764 319.045 151.229C319.034 150.694 318.872 150.173 318.578 149.727C318.285 149.28 317.87 148.926 317.384 148.705C316.897 148.484 316.358 148.405 315.829 148.477L265.962 155.33C265.449 155.4 264.964 155.611 264.562 155.938C264.159 156.266 263.854 156.698 263.68 157.187C263.506 157.676 263.469 158.204 263.574 158.712C263.679 159.221 263.921 159.691 264.274 160.071Z" fill="#D1D5D9"/>
<path d="M94.6732 139.723L79.6883 101.73C79.5272 101.321 79.2734 100.956 78.9471 100.662C78.6208 100.368 78.2308 100.155 77.808 100.038C77.3851 99.9209 76.9409 99.904 76.5104 99.9884C76.0799 100.073 75.6749 100.256 75.3273 100.524L41.3817 126.696C40.9584 127.022 40.6359 127.462 40.4515 127.964C40.267 128.466 40.2282 129.011 40.3394 129.534C40.4506 130.057 40.7073 130.538 41.0799 130.922C41.4525 131.305 41.9258 131.575 42.4451 131.701L91.3753 143.523C91.8794 143.644 92.4072 143.625 92.9012 143.467C93.3952 143.309 93.8363 143.018 94.1765 142.626C94.5168 142.234 94.743 141.756 94.8306 141.244C94.9182 140.733 94.8637 140.206 94.6732 139.723Z" fill="#D1D5D9"/>
<path d="M328.032 106.745C328.032 119.517 316.07 129.872 303.317 129.872C300.279 129.88 297.27 129.289 294.461 128.13C291.651 126.972 289.098 125.27 286.947 123.121C284.796 120.973 283.089 118.42 281.924 115.61C280.76 112.8 280.16 109.787 280.16 106.744C280.16 103.702 280.76 100.689 281.924 97.8786C283.089 95.0684 284.796 92.5159 286.947 90.3675C289.098 88.219 291.651 86.5169 294.461 85.3586C297.27 84.2002 300.279 83.6085 303.317 83.6173C316.07 83.6173 328.032 93.9717 328.032 106.745Z" fill="#FF0000"/>
<path opacity="0.65" d="M322.979 106.745C322.977 109.83 322.224 112.868 320.787 115.596C319.349 118.324 317.27 120.66 314.728 122.403C312.187 124.145 309.26 125.241 306.2 125.596C303.141 125.951 300.041 125.555 297.169 124.44C294.213 123.289 291.592 121.412 289.549 118.981C287.506 116.551 286.105 113.645 285.475 110.531C284.969 108.033 284.969 105.458 285.475 102.959C286.412 98.3508 289.023 94.2548 292.804 91.4658C296.585 88.6767 301.265 87.3936 305.937 87.8652C310.608 88.3368 314.939 90.5296 318.088 94.0181C321.237 97.5067 322.98 102.042 322.979 106.745ZM320.453 106.745C320.449 105.697 320.339 104.652 320.124 103.626C319.905 102.598 319.58 101.597 319.153 100.638C318.285 98.7002 317.032 96.9605 315.468 95.5258C313.887 94.0811 312.04 92.9586 310.031 92.2209C308.019 91.4879 305.886 91.1438 303.746 91.2067C299.529 91.3136 295.511 93.0236 292.508 95.9897C291.077 97.4122 289.936 99.1001 289.15 100.959C288.379 102.791 287.983 104.758 287.983 106.745C287.983 108.732 288.379 110.699 289.15 112.53C289.937 114.39 291.077 116.078 292.508 117.5C295.512 120.466 299.53 122.176 303.746 122.283C305.887 122.346 308.019 122.002 310.032 121.269C312.041 120.531 313.888 119.409 315.469 117.964C317.032 116.529 318.286 114.79 319.154 112.852C319.58 111.893 319.906 110.891 320.125 109.864C320.339 108.838 320.449 107.793 320.453 106.745Z" fill="white"/>
<g opacity="0.8">
<path opacity="0.8" d="M299.158 100.138C299.1 100.145 299.043 100.158 298.988 100.177C298.78 100.249 298.607 100.397 298.505 100.592C298.404 100.788 298.381 101.015 298.441 101.226C298.502 101.438 298.641 101.618 298.831 101.73C299.02 101.842 299.245 101.876 299.46 101.826C299.674 101.776 299.861 101.646 299.982 101.462C300.103 101.278 300.148 101.055 300.11 100.838C300.071 100.621 299.951 100.428 299.773 100.298C299.596 100.167 299.376 100.11 299.158 100.138Z" fill="white"/>
<path opacity="0.8" d="M303.668 98.2717L302.946 97.3498C302.936 97.3367 302.922 97.3271 302.906 97.3224C302.89 97.3177 302.873 97.3181 302.857 97.3235L301.936 97.6431C301.575 97.354 301.17 97.1256 300.736 96.9671L300.531 96.0121C300.527 95.9958 300.518 95.981 300.506 95.9698C300.494 95.9585 300.478 95.9514 300.462 95.9494L299.3 95.8092C299.284 95.8072 299.267 95.8104 299.252 95.8183C299.238 95.8263 299.226 95.8387 299.219 95.8537L298.792 96.7326C298.333 96.7832 297.886 96.9085 297.467 97.1034L296.648 96.574C296.634 96.5649 296.617 96.5605 296.601 96.5612C296.584 96.562 296.568 96.5679 296.555 96.5782L295.635 97.3018C295.621 97.3121 295.612 97.3262 295.607 97.3423C295.602 97.3583 295.603 97.3754 295.608 97.3912L295.927 98.3137C295.639 98.6749 295.411 99.0808 295.253 99.5155L294.299 99.7211C294.283 99.7246 294.268 99.7332 294.257 99.7455C294.245 99.7578 294.238 99.7734 294.236 99.79L294.096 100.953C294.094 100.97 294.097 100.987 294.105 101.001C294.113 101.016 294.126 101.028 294.141 101.035L295.018 101.462C295.069 101.922 295.194 102.37 295.389 102.79L294.86 103.61C294.851 103.624 294.847 103.64 294.847 103.657C294.848 103.674 294.854 103.69 294.864 103.703L295.586 104.625C295.596 104.638 295.61 104.647 295.626 104.652C295.642 104.657 295.659 104.656 295.675 104.651L296.596 104.331C296.957 104.621 297.362 104.849 297.796 105.007L298.001 105.962C298.005 105.979 298.014 105.994 298.026 106.005C298.038 106.016 298.054 106.023 298.07 106.025L299.232 106.165C299.248 106.167 299.265 106.164 299.28 106.156C299.294 106.148 299.306 106.136 299.313 106.121L299.74 105.242C300.199 105.191 300.646 105.066 301.065 104.871L301.884 105.401C301.898 105.41 301.915 105.414 301.931 105.413C301.948 105.413 301.964 105.407 301.977 105.396L302.897 104.673C302.911 104.662 302.92 104.648 302.925 104.632C302.93 104.616 302.929 104.599 302.924 104.583L302.605 103.661C302.893 103.3 303.121 102.894 303.279 102.459L304.233 102.253C304.249 102.25 304.264 102.241 304.275 102.229C304.287 102.217 304.294 102.201 304.296 102.185L304.436 101.021C304.438 101.005 304.434 100.988 304.426 100.973C304.418 100.958 304.406 100.947 304.391 100.939L303.514 100.513C303.463 100.053 303.338 99.6044 303.143 99.1848L303.672 98.3647C303.681 98.3507 303.686 98.3343 303.685 98.3176C303.684 98.3009 303.678 98.2849 303.668 98.2717ZM301.861 99.9156C301.818 99.9369 301.767 99.94 301.721 99.9241C301.676 99.9083 301.638 99.8748 301.616 99.831C301.534 99.6619 301.434 99.502 301.318 99.354C300.958 98.8952 300.457 98.5687 299.892 98.4252C299.328 98.2817 298.731 98.3294 298.197 98.5608C297.662 98.7922 297.219 99.1943 296.936 99.7044C296.654 100.215 296.547 100.804 296.634 101.381C296.721 101.958 296.996 102.49 297.417 102.894C297.837 103.297 298.379 103.551 298.958 103.614C299.537 103.677 300.121 103.546 300.618 103.242C301.115 102.938 301.498 102.478 301.706 101.933C301.724 101.888 301.759 101.851 301.803 101.831C301.847 101.812 301.898 101.81 301.943 101.827C301.989 101.845 302.025 101.88 302.045 101.924C302.065 101.968 302.066 102.019 302.049 102.064C301.811 102.685 301.375 103.21 300.809 103.557C300.242 103.904 299.577 104.053 298.917 103.981C298.257 103.909 297.639 103.621 297.16 103.161C296.68 102.7 296.367 102.094 296.268 101.436C296.169 100.779 296.29 100.107 296.612 99.5255C296.934 98.944 297.439 98.4857 298.049 98.2221C298.658 97.9584 299.338 97.9043 299.982 98.0681C300.625 98.2318 301.196 98.6043 301.606 99.1274C301.615 99.1387 301.624 99.1504 301.633 99.1621C301.733 99.2932 301.822 99.4322 301.899 99.5778L301.915 99.6091L301.921 99.6206C301.929 99.6369 301.938 99.6532 301.946 99.6697C301.949 99.6768 301.952 99.6837 301.954 99.6908C301.969 99.7333 301.967 99.7797 301.95 99.8211C301.933 99.8625 301.901 99.8962 301.86 99.9156H301.861ZM300.233 101.736C300.086 101.927 299.884 102.071 299.655 102.148C299.426 102.225 299.179 102.232 298.946 102.168C298.713 102.105 298.504 101.974 298.345 101.791C298.186 101.608 298.085 101.383 298.054 101.143C298.024 100.903 298.065 100.659 298.172 100.442C298.28 100.225 298.45 100.045 298.659 99.925C298.869 99.8047 299.11 99.7494 299.351 99.7661C299.592 99.7828 299.823 99.8708 300.014 100.019C300.142 100.117 300.249 100.239 300.329 100.378C300.409 100.518 300.461 100.672 300.481 100.832C300.501 100.991 300.49 101.154 300.447 101.309C300.404 101.464 300.331 101.609 300.232 101.736H300.233Z" fill="white"/>
</g>
<g opacity="0.84">
<path opacity="0.84" d="M308.025 109.393C307.934 109.375 307.842 109.365 307.749 109.365C307.398 109.365 307.06 109.5 306.806 109.743C306.552 109.985 306.4 110.315 306.383 110.666C306.365 111.017 306.482 111.362 306.711 111.628C306.939 111.895 307.262 112.063 307.611 112.099C307.96 112.135 308.309 112.035 308.586 111.819C308.864 111.604 309.048 111.291 309.101 110.944C309.155 110.596 309.073 110.242 308.872 109.953C308.672 109.665 308.369 109.464 308.025 109.393Z" fill="white"/>
<path opacity="0.84" d="M315.791 108.909L315.176 107.144C315.168 107.119 315.151 107.097 315.129 107.082C315.108 107.067 315.082 107.058 315.055 107.058L313.501 107.065C313.106 106.442 312.612 105.889 312.039 105.425L312.221 103.879C312.224 103.852 312.219 103.825 312.206 103.802C312.193 103.779 312.173 103.76 312.149 103.748L310.469 102.937C310.445 102.925 310.418 102.921 310.392 102.926C310.366 102.93 310.342 102.943 310.323 102.962L309.228 104.068C308.509 103.907 307.769 103.865 307.037 103.942L306.074 102.72C306.057 102.7 306.035 102.684 306.009 102.677C305.984 102.67 305.957 102.67 305.931 102.679L304.171 103.295C304.145 103.304 304.124 103.32 304.108 103.342C304.093 103.364 304.085 103.39 304.085 103.416L304.091 104.973C303.47 105.369 302.917 105.863 302.454 106.437L300.91 106.255C300.883 106.252 300.857 106.257 300.833 106.27C300.81 106.283 300.791 106.303 300.78 106.327L299.97 108.01C299.958 108.034 299.954 108.061 299.959 108.087C299.963 108.113 299.976 108.137 299.995 108.156L301.099 109.253C300.938 109.973 300.896 110.714 300.974 111.448L299.754 112.412C299.733 112.428 299.718 112.451 299.71 112.477C299.703 112.502 299.703 112.529 299.712 112.554L300.327 114.319C300.336 114.344 300.353 114.366 300.374 114.382C300.396 114.397 300.422 114.405 300.448 114.405L302.003 114.399C302.398 115.021 302.892 115.575 303.465 116.038L303.283 117.585C303.28 117.612 303.285 117.638 303.298 117.662C303.31 117.685 303.33 117.704 303.354 117.715L305.034 118.527C305.058 118.538 305.085 118.542 305.111 118.538C305.138 118.533 305.162 118.521 305.18 118.502L306.276 117.396C306.995 117.557 307.735 117.599 308.467 117.521L309.43 118.743C309.446 118.764 309.469 118.779 309.494 118.787C309.52 118.794 309.547 118.793 309.572 118.785L311.334 118.168C311.359 118.16 311.381 118.143 311.396 118.122C311.412 118.1 311.42 118.074 311.42 118.047L311.413 116.491C312.035 116.095 312.588 115.6 313.05 115.026L314.595 115.208C314.621 115.211 314.648 115.206 314.671 115.193C314.695 115.181 314.713 115.161 314.725 115.137L315.535 113.454C315.547 113.43 315.55 113.403 315.546 113.377C315.541 113.351 315.529 113.326 315.51 113.308L314.406 112.211C314.566 111.491 314.609 110.75 314.531 110.016L315.751 109.052C315.772 109.035 315.787 109.013 315.794 108.987C315.801 108.961 315.8 108.934 315.791 108.909ZM312.219 110.456C312.142 110.466 312.065 110.444 312.004 110.397C311.943 110.349 311.903 110.279 311.893 110.202C311.856 109.904 311.788 109.611 311.689 109.328C311.382 108.45 310.794 107.698 310.016 107.19C309.238 106.681 308.314 106.445 307.388 106.518C306.462 106.591 305.586 106.969 304.897 107.592C304.208 108.216 303.744 109.051 303.578 109.966C303.412 110.881 303.553 111.826 303.979 112.653C304.405 113.479 305.093 114.141 305.934 114.536C306.775 114.93 307.723 115.034 308.63 114.833C309.537 114.631 310.351 114.134 310.946 113.42C310.971 113.391 311.001 113.366 311.035 113.348C311.069 113.331 311.106 113.32 311.144 113.316C311.183 113.313 311.221 113.317 311.258 113.328C311.294 113.34 311.328 113.358 311.358 113.383C311.387 113.407 311.412 113.437 311.43 113.471C311.447 113.506 311.458 113.543 311.462 113.581C311.465 113.619 311.461 113.658 311.45 113.695C311.438 113.731 311.42 113.765 311.395 113.795C310.717 114.609 309.789 115.175 308.756 115.406C307.722 115.636 306.642 115.517 305.683 115.068C304.724 114.619 303.941 113.865 303.455 112.922C302.969 111.98 302.808 110.904 302.997 109.861C303.186 108.817 303.715 107.866 304.5 107.155C305.286 106.445 306.284 106.014 307.34 105.931C308.395 105.849 309.448 106.118 310.335 106.697C311.221 107.277 311.891 108.134 312.24 109.135C312.248 109.157 312.255 109.179 312.263 109.201C312.346 109.451 312.408 109.706 312.45 109.966V109.967C312.453 109.987 312.456 110.004 312.458 110.023L312.461 110.043C312.465 110.072 312.469 110.1 312.473 110.13C312.478 110.168 312.475 110.207 312.465 110.244C312.454 110.281 312.437 110.315 312.414 110.346C312.39 110.376 312.361 110.401 312.327 110.42C312.294 110.439 312.257 110.451 312.219 110.456L312.219 110.456ZM308.825 112.361C308.504 112.574 308.126 112.686 307.741 112.684C307.355 112.681 306.979 112.565 306.66 112.348C306.341 112.132 306.093 111.826 305.948 111.469C305.802 111.111 305.766 110.719 305.843 110.341C305.921 109.962 306.108 109.616 306.382 109.344C306.656 109.073 307.004 108.889 307.382 108.816C307.761 108.743 308.152 108.783 308.508 108.933C308.863 109.083 309.166 109.334 309.378 109.656C309.521 109.87 309.62 110.11 309.669 110.362C309.719 110.614 309.718 110.873 309.666 111.125C309.615 111.376 309.514 111.615 309.369 111.827C309.225 112.04 309.04 112.221 308.825 112.361H308.825Z" fill="white"/>
</g>
<path d="M182.521 29.3233C182.521 42.9294 169.779 53.9592 156.195 53.9592C152.959 53.9683 149.753 53.3377 146.761 52.1037C143.769 50.8697 141.049 49.0565 138.758 46.7679C136.467 44.4794 134.649 41.7605 133.408 38.7671C132.168 35.7736 131.529 32.5644 131.529 29.3234C131.529 26.0824 132.168 22.8732 133.408 19.8798C134.649 16.8863 136.467 14.1675 138.758 11.8789C141.049 9.59036 143.769 7.77713 146.761 6.54311C149.753 5.3091 152.959 4.67855 156.195 4.6876C169.779 4.6876 182.521 15.7174 182.521 29.3233Z" fill="#FF0000"/>
<path opacity="0.65" d="M177.142 29.3235C177.139 32.6094 176.338 35.8453 174.806 38.7514C173.275 41.6574 171.06 44.1461 168.353 46.0023C165.645 47.8584 162.528 49.0261 159.269 49.4044C156.01 49.7826 152.708 49.3601 149.648 48.1733C146.499 46.9468 143.707 44.9472 141.531 42.3581C139.354 39.7691 137.862 36.6736 137.192 33.3562C136.652 30.695 136.652 27.9522 137.192 25.2909C138.19 20.3824 140.972 16.02 144.999 13.0497C149.026 10.0794 154.011 8.7129 158.987 9.21519C163.963 9.71748 168.576 12.0528 171.93 15.7682C175.284 19.4836 177.142 24.3143 177.142 29.3235ZM174.451 29.3235C174.447 28.2068 174.329 27.0934 174.1 26.0005C173.867 24.9064 173.521 23.8398 173.066 22.818C172.142 20.7538 170.806 18.9006 169.141 17.3723C167.457 15.8333 165.49 14.6376 163.349 13.8517C161.206 13.0711 158.934 12.7045 156.654 12.7713C152.11 12.8899 147.744 14.7836 144.683 17.8664C143.159 19.3819 141.944 21.1802 141.106 23.1608C140.285 25.1117 139.863 27.2071 139.863 29.3239C139.863 31.4406 140.285 33.5361 141.106 35.4869C141.944 37.4675 143.159 39.2658 144.683 40.7813C147.745 43.8641 152.111 45.7578 156.654 45.8762C158.934 45.9432 161.206 45.5766 163.349 44.7958C165.49 44.0099 167.457 42.8142 169.141 41.2752C170.806 39.7471 172.142 37.8939 173.066 35.8297C173.521 34.8079 173.867 33.7413 174.1 32.6473C174.329 31.5541 174.447 30.4404 174.451 29.3235Z" fill="white"/>
<path opacity="0.83" d="M162.649 21.6218C162.649 24.5675 160.265 27.7476 157.323 27.7476C154.382 27.7476 151.998 24.5675 151.998 21.6218C151.998 18.6761 154.382 16.5859 157.323 16.5859C160.264 16.5859 162.649 18.6759 162.649 21.6218Z" fill="white"/>
<path opacity="0.83" d="M150.714 39.0899H163.714C164.381 39.0899 165.031 38.8777 165.569 38.4838C166.108 38.09 166.508 37.5349 166.711 36.8987L167.411 34.7088C167.659 33.9365 167.6 33.098 167.247 32.3681C166.893 31.6383 166.271 31.0734 165.512 30.7913C160.221 28.8538 154.75 29.1023 149.146 30.9701C148.391 31.2285 147.762 31.7662 147.389 32.4733C147.015 33.1804 146.926 34.0035 147.138 34.7746L147.677 36.7634C147.858 37.4314 148.253 38.0211 148.802 38.4416C149.351 38.8621 150.023 39.0899 150.714 39.0899Z" fill="white"/>
<path d="M278.945 44.4493C278.945 57.7494 266.489 68.5314 253.21 68.5314C250.053 68.5314 246.926 67.9085 244.009 66.6983C241.092 65.488 238.441 63.7141 236.208 61.4779C233.976 59.2417 232.205 56.5869 230.996 53.6651C229.788 50.7433 229.166 47.6118 229.166 44.4493C229.166 41.2868 229.788 38.1552 230.996 35.2335C232.205 32.3117 233.976 29.6569 236.208 27.4207C238.441 25.1844 241.092 23.4106 244.009 22.2003C246.926 20.9901 250.053 20.3672 253.21 20.3672C266.489 20.3672 278.945 31.1492 278.945 44.4493Z" fill="#FF0000"/>
<path opacity="0.65" d="M273.686 44.4478C273.683 47.6599 272.9 50.8231 271.403 53.6638C269.906 56.5045 267.741 58.9373 265.094 60.7517C262.448 62.5661 259.4 63.7075 256.214 64.0773C253.029 64.4471 249.801 64.034 246.811 62.8739C243.732 61.6749 241.003 59.7202 238.875 57.1893C236.748 54.6585 235.289 51.6326 234.634 48.3898C234.106 45.7883 234.106 43.1072 234.634 40.5058C235.609 35.7075 238.329 31.4431 242.265 28.5395C246.202 25.6358 251.075 24.3 255.939 24.791C260.804 25.282 265.312 27.5649 268.591 31.1969C271.87 34.8289 273.686 39.5512 273.686 44.4478ZM271.056 44.4478C271.051 43.3562 270.937 42.2678 270.713 41.1994C270.485 40.1299 270.146 39.0873 269.701 38.0885C268.798 36.0706 267.493 34.2591 265.865 32.7652C264.218 31.2608 262.295 30.092 260.203 29.3238C258.108 28.5606 255.887 28.2023 253.658 28.2678C249.217 28.3829 244.949 30.2346 241.956 33.2482C240.466 34.7293 239.278 36.4867 238.459 38.4223C237.657 40.3293 237.244 42.3776 237.244 44.4468C237.244 46.5161 237.657 48.5644 238.459 50.4713C239.278 52.4073 240.466 54.1651 241.956 55.6465C244.949 58.66 249.217 60.5112 253.658 60.627C255.887 60.6925 258.108 60.3341 260.203 59.5708C262.295 58.8027 264.218 57.6338 265.865 56.1295C267.493 54.6356 268.798 52.824 269.701 50.8061C270.146 49.8073 270.485 48.7647 270.713 47.6952C270.937 46.6272 271.051 45.5391 271.056 44.4478Z" fill="white"/>
<path opacity="0.86" d="M247.523 53.3099C247.237 53.3099 246.996 53.3062 246.806 53.3026C246.649 53.299 246.498 53.2389 246.381 53.1333C246.265 53.0277 246.19 52.8836 246.17 52.7274C246.151 52.5711 246.188 52.4131 246.275 52.282C246.362 52.151 246.494 52.0557 246.645 52.0135H246.646C248.33 51.5034 249.969 50.8554 251.547 50.0761C245.06 49.5462 243.764 46.209 243.514 44.6825C242.882 40.8327 246.219 36.4769 250.95 34.9722C255.779 33.4376 260.67 33.9906 263.413 36.3812C264.871 37.6518 266.452 40.0846 265.706 44.4628C264.312 52.6534 251.558 53.3099 247.523 53.3099ZM256.204 48.9197L254.149 50.0674C252.811 50.7989 251.436 51.462 250.031 52.0542C255.04 51.7517 263.513 50.3344 264.546 44.2635C265.071 41.1818 264.43 38.8285 262.641 37.2697C259.867 34.8506 254.95 34.9375 251.307 36.0948C247.182 37.4067 244.145 41.2511 244.677 44.4901C245.159 47.4302 248.502 49.0747 253.851 48.9627L256.204 48.9197Z" fill="white"/>
<path d="M99.7825 70.1741C99.7825 83.4044 87.3926 94.1294 74.1832 94.1294C67.8399 94.1294 61.7563 91.6055 57.2709 87.113C52.7855 82.6206 50.2656 76.5274 50.2656 70.1741C50.2656 63.8207 52.7855 57.7276 57.2709 53.2351C61.7563 48.7426 67.8399 46.2188 74.1832 46.2188C87.3926 46.2188 99.7825 56.944 99.7825 70.1741Z" fill="#FF0000"/>
<path opacity="0.65" d="M94.5504 70.174C94.5481 73.3692 93.7687 76.5157 92.2796 79.3415C90.7906 82.1672 88.6367 84.5872 86.0043 86.392C83.3719 88.1969 80.3401 89.3323 77.1711 89.7002C74.0022 90.068 70.7915 89.6572 67.8167 88.5033C64.7541 87.3106 62.0399 85.3661 59.9234 82.8486C57.8069 80.331 56.356 77.3211 55.7041 74.0953C55.1794 71.5076 55.1794 68.8405 55.7041 66.2527C56.6743 61.4797 59.3796 57.2377 63.2956 54.3493C67.2115 51.461 72.0589 50.1321 76.8976 50.6206C81.7363 51.109 86.2214 53.3799 89.4832 56.9928C92.7449 60.6057 94.5507 65.3031 94.5504 70.174ZM91.9344 70.174C91.9301 69.0881 91.8158 68.0055 91.5931 66.9427C91.3666 65.8788 91.0295 64.8417 90.5872 63.8482C89.6888 61.8412 88.39 60.0395 86.7709 58.5537C85.1332 57.0573 83.2202 55.8945 81.1388 55.1304C79.0545 54.3712 76.8454 54.0147 74.6285 54.0798C70.2102 54.1949 65.965 56.0364 62.988 59.0341C61.5057 60.5077 60.324 62.2563 59.5088 64.1821C58.7111 66.0791 58.3002 68.1166 58.3002 70.1749C58.3002 72.2332 58.7111 74.2707 59.5088 76.1676C60.3241 78.0934 61.5058 79.8419 62.988 81.3155C65.965 84.3132 70.2102 86.1545 74.6285 86.2698C76.8454 86.3349 79.0545 85.9784 81.1388 85.2192C83.2202 84.455 85.1332 83.2922 86.7709 81.7957C88.3901 80.3099 89.6888 78.5082 90.5872 76.5012C91.0295 75.5077 91.3666 74.4706 91.5931 73.4067C91.8159 72.3435 91.9302 71.2604 91.9344 70.174Z" fill="white"/>
<g opacity="0.84">
<path opacity="0.84" d="M74.769 81.426C74.2704 81.4281 73.7799 81.3003 73.3456 81.0552C72.9113 80.81 72.5482 80.456 72.2918 80.0277C69.3726 75.1973 65.8926 68.8329 65.8926 65.9444C65.8926 61.4184 69.8746 57.7363 74.7686 57.7363C79.6626 57.7363 83.6448 61.4194 83.6448 65.9444C83.6448 68.8329 80.1646 75.1973 77.2456 80.0277C76.9893 80.456 76.6263 80.81 76.192 81.0552C75.7578 81.3003 75.2674 81.4281 74.769 81.426ZM74.769 58.9972C70.5688 58.9972 67.1519 62.1138 67.1519 65.9444C67.1519 67.9419 69.4178 72.8369 73.3691 79.3746C73.5149 79.6158 73.7203 79.8153 73.9655 79.9537C74.2108 80.0922 74.4875 80.1649 74.7691 80.1649C75.0506 80.1649 75.3273 80.0922 75.5726 79.9537C75.8178 79.8153 76.0232 79.6158 76.169 79.3746C80.1201 72.8367 82.3863 67.9417 82.3863 65.9442C82.3859 62.1136 78.9687 58.9972 74.7686 58.9972H74.769Z" fill="white"/>
<path opacity="0.84" d="M74.0868 71.6953C72.6212 71.6934 71.2161 71.1095 70.1798 70.0715C69.1434 69.0336 68.5604 67.6263 68.5586 66.1584C68.5615 65.9931 68.6291 65.8355 68.7468 65.7196C68.8645 65.6038 69.023 65.5388 69.188 65.5388C69.3531 65.5388 69.5116 65.6038 69.6293 65.7196C69.747 65.8355 69.8146 65.9931 69.8175 66.1584C69.8177 67.1741 70.1789 68.1567 70.8366 68.9299C71.4942 69.7032 72.4052 70.2167 73.4065 70.3784C74.4077 70.5401 75.4337 70.3394 76.3007 69.8124C77.1677 69.2854 77.819 68.4664 78.1379 67.5022C78.4569 66.5379 78.4226 65.4915 78.0413 64.5502C77.66 63.609 76.9566 62.8345 76.057 62.3655C75.1574 61.8964 74.1205 61.7635 73.132 61.9905C72.1435 62.2175 71.268 62.7897 70.6623 63.6044C70.5616 63.736 70.4133 63.8226 70.2493 63.8454C70.0854 63.8682 69.919 63.8255 69.7863 63.7264C69.6536 63.6273 69.5652 63.4798 69.5403 63.3159C69.5153 63.1521 69.5558 62.9849 69.653 62.8507C70.2163 62.0931 70.9638 61.4925 71.8244 61.106C72.6849 60.7194 73.6299 60.5598 74.5694 60.6422C75.5089 60.7247 76.4117 61.0466 77.192 61.5772C77.9723 62.1078 78.604 62.8295 79.0272 63.6736C79.4504 64.5178 79.651 65.4564 79.6097 66.4001C79.5685 67.3438 79.287 68.2613 78.7918 69.0652C78.2967 69.8692 77.6044 70.5329 76.7809 70.9932C75.9573 71.4536 75.0299 71.6953 74.0868 71.6953Z" fill="white"/>
</g>
</g>
<defs>
<clipPath id="clip0_6511:33400">
<rect width="351" height="338" fill="white"/>
</clipPath>
</defs>
</svg>
