<svg width="396" height="360" viewBox="0 0 396 360" fill="none" xmlns="http://www.w3.org/2000/svg">
<path d="M236 52.05V48.0167H236.5V46.5H237.956V46H241.868V46.5H245.779V46H249.691V46.5H253.603V46H257.515V46.5H261.426V46H265.338V46.5H269.25V46H273.162V46.5H277.074V46H280.985V46.5H284.897V46H288.809V46.5H292.721V46H296.632V46.5H300.544V46H304.456V46.5H308.368V46H312.279V46.5H316.191V46H320.103V46.5H324.015V46H327.926V46.5H331.838V46H335.75V46.5H339.662V46H343.574V46.5H347.485V46H351.397V46.5H355.309V46H359.221V46.5H363.132V46H367.044V46.5H368.5V48.0167H369V52.05H368.5V56.0833H369V60.1167H368.5V64.15H369V68.1833H368.5V72.2167H369V76.25H368.5V80.2833H369V84.3167H368.5V88.35H369V92.3833H368.5V96.4167H369V100.45H368.5V104.483H369V108.517H368.5V112.55H369V116.583H368.5V120.617H369V124.65H368.5V128.683H369V132.717H368.5V136.75H369V140.783H368.5V144.817H369V148.85H368.5V152.883H369V156.917H368.5V160.95H369V164.983H368.5V166.5H367.044V167H363.132V166.5H359.221V167H355.309V166.5H351.397V167H347.485V166.5H343.574V167H339.662V166.5H335.75V167H331.838V166.5H327.926V167H324.015V166.5H320.103V167H316.191V166.5H312.279V167H308.368V166.5H304.456V167H300.544V166.5H296.632V167H292.721V166.5H288.809V167H284.897V166.5H280.985V167H277.074V166.5H273.162V167H269.25V166.5H265.338V167H261.426V166.5H257.515V167H253.603V166.5H249.691V167H245.779V166.5H241.868V167H237.956V166.5H236.5V164.983H236V160.95H236.5V156.917H236V152.883H236.5V148.85H236V144.817H236.5V140.783H236V136.75H236.5V132.717H236V128.683H236.5V124.65H236V120.617H236.5V116.583H236V112.55H236.5V108.517H236V104.483H236.5V100.45H236V96.4167H236.5V92.3833H236V88.35H236.5V84.3167H236V80.2833H236.5V76.25H236V72.2167H236.5V68.1833H236V64.15H236.5V60.1167H236V56.0833H236.5V52.05H236Z" stroke="#C80000" stroke-dasharray="4 4"/>
<rect x="350.484" y="65" width="229.953" height="294.485" rx="8" transform="rotate(90 350.484 65)" fill="#FF0000"/>
<path d="M342.484 65C346.903 65 350.484 68.5817 350.484 73L350.484 91.3582L55.9994 91.3582L55.9994 73C55.9994 68.5817 59.5811 65 63.9994 65L342.484 65Z" fill="#C80000"/>
<circle cx="71.4515" cy="77.7249" r="5.45343" fill="white"/>
<circle cx="89.6292" cy="77.7249" r="5.45343" fill="white"/>
<circle cx="107.807" cy="77.7249" r="5.45343" fill="white"/>
<rect x="80" y="115" width="246" height="148" fill="#960020"/>
<path d="M369.5 320C380.27 320 389 311.27 389 300.5C389 295.762 387.31 291.418 384.5 288.039C380.923 283.738 375.531 281 369.5 281H263V320H369.5Z" fill="#C80000" stroke="#C80000" stroke-width="6" stroke-linecap="round"/>
<path d="M369.5 320C380.27 320 389 311.27 389 300.5C389 295.762 387.31 291.418 384.5 288.039C380.923 283.738 375.531 281 369.5 281H263V320H369.5Z" fill="#C80000"/>
<mask id="mask0_6520:32196" style="mask-type:alpha" maskUnits="userSpaceOnUse" x="260" y="278" width="132" height="45">
<path fill-rule="evenodd" clip-rule="evenodd" d="M260 278H369.5C376.46 278 382.684 281.164 386.807 286.121C390.048 290.019 392 295.035 392 300.5C392 312.926 381.926 323 369.5 323H260V278Z" fill="#C80000"/>
</mask>
<g mask="url(#mask0_6520:32196)">
<rect x="260" y="278" width="135" height="13" fill="#960020"/>
</g>
<path d="M301.5 320C312.27 320 321 311.27 321 300.5C321 289.73 312.27 281 301.5 281H195V320H301.5Z" fill="#F7C6C8"/>
<path d="M195 281H301.5C312.27 281 321 289.73 321 300.5C321 311.27 312.27 320 301.5 320H195" stroke="#C80000" stroke-width="6" stroke-linecap="round"/>
<path d="M195 281H301.5C307.531 281 312.923 283.738 316.5 288.039H327.5" stroke="#960020" stroke-width="6" stroke-linecap="round"/>
<path d="M202.371 274.742C192.777 274.742 185 266.965 185 257.371C185 247.777 192.777 240 202.371 240H297.244V274.742H202.371Z" fill="#C80000" stroke="#C80000" stroke-width="6" stroke-linecap="round"/>
<path d="M262.947 274.742C253.353 274.742 245.576 266.965 245.576 257.371C245.576 247.777 253.353 240 262.947 240H357.82V274.742H262.947Z" fill="#F7C6C8"/>
<path d="M357.82 240H262.947C253.353 240 245.576 247.777 245.576 257.371C245.576 266.965 253.353 274.742 262.947 274.742H357.82" stroke="#C80000" stroke-width="6" stroke-linecap="round"/>
<rect x="43" y="195" width="104" height="128" rx="8" fill="#EAEDF0"/>
<rect x="60" y="307" width="46.6215" height="10" rx="5" transform="rotate(-90 60 307)" fill="#D1D5D9"/>
<rect x="80" y="307" width="68.9998" height="10" rx="5" transform="rotate(-90 80 307)" fill="#D1D5D9"/>
<rect width="46.6215" height="10" rx="5" transform="matrix(4.37114e-08 -1 -1 -4.37114e-08 130 307)" fill="#D1D5D9"/>
<rect width="91" height="10" rx="5" transform="matrix(4.37114e-08 -1 -1 -4.37114e-08 110 307)" fill="#D1D5D9"/>
<path d="M232.5 185.134C233.167 185.519 233.167 186.481 232.5 186.866L187.5 212.847C186.833 213.232 186 212.751 186 211.981L186 160.019C186 159.249 186.833 158.768 187.5 159.153L232.5 185.134Z" fill="#F5F8FA"/>
</svg>
