<svg width="396" height="360" viewBox="0 0 396 360" fill="none" xmlns="http://www.w3.org/2000/svg">
<rect x="260.5" y="206.5" width="132" height="120" stroke="#C80000" stroke-dasharray="4 4"/>
<rect x="350.484" y="65" width="229.953" height="294.485" rx="8" transform="rotate(90 350.484 65)" fill="#FF0000"/>
<path d="M342.484 65C346.903 65 350.484 68.5817 350.484 73L350.484 91.3582L55.9994 91.3582L55.9994 73C55.9994 68.5817 59.5811 65 63.9994 65L342.484 65Z" fill="#C80000"/>
<circle cx="71.4515" cy="77.7249" r="5.45343" fill="white"/>
<circle cx="89.6292" cy="77.7249" r="5.45343" fill="white"/>
<circle cx="107.807" cy="77.7249" r="5.45343" fill="white"/>
<rect x="84" y="127" width="244" height="53" fill="#960020"/>
<rect x="158.5" y="210.5" width="176" height="65" stroke="white" stroke-dasharray="4 4"/>
<rect x="155" y="207" width="6.12403" height="6.12403" fill="white"/>
<rect x="155" y="271.876" width="6.12403" height="6.12403" fill="white"/>
<rect x="331.875" y="207" width="6.12403" height="6.12403" fill="white"/>
<rect x="331.875" y="271.876" width="6.12403" height="6.12403" fill="white"/>
<rect x="25" y="203" width="104" height="128" rx="1" fill="#EAEDF0"/>
<rect x="43" y="221" width="46.6215" height="10" rx="5" fill="#D1D5D9"/>
<rect x="43" y="241" width="68.9998" height="10" rx="5" fill="#D1D5D9"/>
<rect x="172" y="34" width="221" height="75" rx="3.33333" fill="#EAEDF0"/>
<rect x="245" y="56.5" width="83.3333" height="10" rx="5" fill="#D1D5D9"/>
<rect x="245" y="76.5" width="123.333" height="10" rx="5" fill="#D1D5D9"/>
<circle cx="206.5" cy="59.5" r="10.5" fill="#FF0000"/>
<path d="M224 91C224 88.6362 223.534 86.2956 222.63 84.1117C221.725 81.9278 220.399 79.9435 218.728 78.2721C217.056 76.6006 215.072 75.2748 212.888 74.3702C210.704 73.4656 208.364 73 206 73C203.636 73 201.296 73.4656 199.112 74.3702C196.928 75.2748 194.944 76.6006 193.272 78.2721C191.601 79.9435 190.275 81.9278 189.37 84.1117C188.466 86.2956 188 88.6362 188 91L206 91H224Z" fill="#FF0000"/>
<path d="M357 126.5L334.5 104H357V126.5Z" fill="#EAEDF0"/>
<path d="M178 228V257.5H218V228M178 228H218M178 228L198 244L218 228" stroke="white" stroke-width="2"/>
<path d="M55.2878 284.52C70.9978 277.608 91.3278 269.182 94.134 268.016C101.495 264.963 103.754 265.548 102.628 272.308C101.819 277.167 99.4853 293.253 97.6253 303.266C96.5215 309.203 94.0453 309.907 90.1515 307.338C88.279 306.102 78.8278 299.852 76.7765 298.385C74.904 297.047 72.3215 295.438 75.5603 292.27C76.7128 291.141 84.2678 283.927 90.154 278.312C90.9253 277.575 89.9565 276.363 89.0665 276.955C81.1328 282.216 70.1328 289.518 68.7328 290.47C66.6178 291.906 64.5865 292.565 60.9403 291.517C58.1853 290.726 55.494 289.782 54.4465 289.422C50.4128 288.037 51.3703 286.243 55.2878 284.52Z" fill="#FF0000"/>
<rect x="236" y="227" width="49.2795" height="10.9069" rx="5.45343" fill="#F5F8FA" fill-opacity="0.8"/>
<rect x="236" y="248.814" width="72.9337" height="10.9069" rx="5.45343" fill="#F5F8FA" fill-opacity="0.8"/>
</svg>
