<svg width="396" height="360" viewBox="0 0 396 360" fill="none" xmlns="http://www.w3.org/2000/svg">
<rect x="236.5" y="201.5" width="132" height="120" stroke="#C80000" stroke-dasharray="4 4"/>
<rect x="350.484" y="65" width="229.953" height="294.485" rx="8" transform="rotate(90 350.484 65)" fill="#FF0000"/>
<path d="M342.484 65C346.903 65 350.484 68.5817 350.484 73L350.484 91.3582L55.9994 91.3582L55.9994 73C55.9994 68.5817 59.5811 65 63.9994 65L342.484 65Z" fill="#C80000"/>
<circle cx="71.4515" cy="77.7249" r="5.45343" fill="white"/>
<circle cx="89.6292" cy="77.7249" r="5.45343" fill="white"/>
<circle cx="107.807" cy="77.7249" r="5.45343" fill="white"/>
<path d="M140.5 105.5V264" stroke="white"/>
<path d="M335 138L77 138" stroke="white"/>
<path d="M207 105.5V264" stroke="white"/>
<path d="M273 105.5V264" stroke="white"/>
<rect x="79" y="106" width="58" height="24" fill="#960020"/>
<rect x="145" y="106" width="58" height="24" fill="#960020"/>
<rect x="211" y="106" width="58" height="24" fill="#960020"/>
<rect x="277" y="106" width="58" height="24" fill="#960020"/>
<rect x="145" y="145" width="58" height="29" fill="#F7C6C8"/>
<rect x="278" y="145" width="58" height="29" fill="#F7C6C8"/>
<rect x="211" y="180" width="58" height="29" fill="#F7C6C8"/>
<rect x="278" y="180" width="58" height="29" fill="#F7C6C8"/>
<rect x="211" y="215" width="58" height="29" fill="#F7C6C8"/>
<rect x="211" y="145" width="58" height="29" fill="#C80000"/>
<rect x="79" y="145" width="58" height="29" fill="#F7C6C8"/>
<rect x="79" y="180" width="58" height="35" fill="#C80000"/>
<rect x="27" y="180" width="164" height="142" fill="#EAEDF0"/>
<rect x="27" y="180" width="164" height="16" fill="#DFDFDF"/>
<rect x="27" y="306" width="164" height="16" fill="#DFDFDF"/>
<circle cx="67.0198" cy="248.447" r="13.7483" fill="#C80000"/>
<path d="M83.7278 271.346C85.9902 273.608 87.7849 276.294 89.0093 279.25L43.9902 279.25C45.2146 276.294 47.0093 273.608 49.2717 271.346C51.5341 269.084 54.22 267.289 57.176 266.065C60.132 264.84 63.3002 264.21 66.4998 264.21C69.6993 264.21 72.8675 264.84 75.8235 266.065C78.7795 267.289 81.4654 269.084 83.7278 271.346Z" fill="#C80000"/>
<circle cx="150.014" cy="248.447" r="13.7483" fill="#C80000"/>
<path d="M166.718 271.346C168.98 273.608 170.775 276.294 172 279.25L126.98 279.25C128.205 276.294 130 273.608 132.262 271.346C134.524 269.084 137.21 267.289 140.166 266.065C143.122 264.84 146.29 264.21 149.49 264.21C152.69 264.21 155.858 264.84 158.814 266.065C161.77 267.289 164.456 269.084 166.718 271.346Z" fill="#C80000"/>
<circle cx="108.137" cy="232.069" r="17.0691" fill="#FF0000"/>
<path d="M138.483 280.994C138.483 277.009 137.698 273.063 136.173 269.381C134.648 265.699 132.413 262.354 129.595 259.536C126.777 256.719 123.432 254.483 119.751 252.958C116.069 251.433 112.123 250.648 108.138 250.648C104.153 250.648 100.207 251.433 96.5255 252.958C92.8439 254.483 89.4986 256.719 86.6808 259.536C83.863 262.354 81.6278 265.699 80.1028 269.381C78.5779 273.063 77.793 277.009 77.793 280.994L138.483 280.994Z" fill="#FF0000"/>
<circle cx="317.5" cy="77.5" r="48.5" fill="#EAEDF0"/>
<circle cx="317.501" cy="41.2939" r="3.35253" fill="#DFDFDF"/>
<circle cx="317.501" cy="114.156" r="3.35253" fill="#DFDFDF"/>
<circle cx="353.933" cy="77.7246" r="3.35253" transform="rotate(90 353.933 77.7246)" fill="#DFDFDF"/>
<circle cx="281.071" cy="77.7246" r="3.35253" transform="rotate(90 281.071 77.7246)" fill="#DFDFDF"/>
<circle cx="335.715" cy="46.1744" r="3.35253" transform="rotate(30 335.715 46.1744)" fill="#DFDFDF"/>
<circle cx="299.286" cy="109.274" r="3.35253" transform="rotate(30 299.286 109.274)" fill="#DFDFDF"/>
<circle cx="349.053" cy="95.94" r="3.35253" transform="rotate(120 349.053 95.94)" fill="#DFDFDF"/>
<circle cx="285.954" cy="59.5093" r="3.35253" transform="rotate(120 285.954 59.5093)" fill="#DFDFDF"/>
<circle cx="349.05" cy="59.5093" r="3.35253" transform="rotate(60 349.05 59.5093)" fill="#DFDFDF"/>
<circle cx="285.953" cy="95.94" r="3.35253" transform="rotate(60 285.953 95.94)" fill="#DFDFDF"/>
<circle cx="335.715" cy="109.275" r="3.35253" transform="rotate(150 335.715 109.275)" fill="#DFDFDF"/>
<circle cx="299.284" cy="46.1762" r="3.35253" transform="rotate(150 299.284 46.1762)" fill="#DFDFDF"/>
<path d="M315.2 79.019C315.818 80.4576 317.501 81.1423 318.954 80.5266L352.707 66.549L317.158 75.1346C315.458 75.5583 314.523 77.4031 315.2 79.019Z" fill="#960020"/>
<path d="M317.869 80.7495C319.434 80.7095 320.695 79.401 320.663 77.8227L319.104 56.7146L314.989 77.4893C314.752 79.225 316.117 80.7779 317.869 80.7495Z" fill="#C80000"/>
</svg>
