<svg width="396" height="360" viewBox="0 0 396 360" fill="none" xmlns="http://www.w3.org/2000/svg">
<rect x="350.484" y="65" width="229.953" height="294.485" rx="8" transform="rotate(90 350.484 65)" fill="#FF0000"/>
<path d="M342.484 65C346.903 65 350.484 68.5817 350.484 73L350.484 91.3582L55.9994 91.3582L55.9994 73C55.9994 68.5817 59.5811 65 63.9994 65L342.484 65Z" fill="#C80000"/>
<circle cx="71.4515" cy="77.7249" r="5.45343" fill="white"/>
<circle cx="89.6292" cy="77.7249" r="5.45343" fill="white"/>
<circle cx="107.807" cy="77.7249" r="5.45343" fill="white"/>
<path d="M153 138L153 233L262 233L262 138L153 138Z" stroke="white"/>
<path d="M102 186H209" stroke="white"/>
<path d="M262 186L306 186" stroke="white"/>
<rect x="82" y="161" width="50" height="50" rx="25" fill="#C80000"/>
<rect x="275" y="161" width="50" height="50" rx="25" fill="#960020"/>
<rect x="175" y="174" width="48" height="24" fill="#F7C6C8"/>
<rect x="175" y="221" width="69" height="24" fill="#F7C6C8"/>
<rect x="175" y="126" width="68" height="24" fill="#F7C6C8"/>
<path d="M137.936 301.826C138.079 301.464 137.988 301.041 137.692 300.782L129.23 293.329C130.064 288.146 130.085 282.761 129.199 277.432L137.602 269.95C137.901 269.676 137.993 269.275 137.835 268.897L132.617 256.427C132.47 256.066 132.097 255.834 131.702 255.859L120.47 256.564C117.292 252.176 113.473 248.414 109.184 245.356L109.824 234.111C109.844 233.71 109.625 233.35 109.252 233.19L96.742 228.057C96.3797 227.914 95.9575 228.006 95.6976 228.302L88.2457 236.763C83.0627 235.929 77.6782 235.908 72.3488 236.793L64.8664 228.39C64.5922 228.091 64.1913 227.999 63.8139 228.156L51.3438 233.374C50.983 233.521 50.7515 233.895 50.7759 234.29L51.4821 245.522C47.094 248.699 43.3324 252.519 40.2742 256.807L29.0294 256.167C28.6288 256.147 28.2684 256.366 28.1092 256.739L22.9764 269.249C22.8337 269.611 22.925 270.033 23.2212 270.293L31.683 277.746C30.849 282.929 30.8282 288.313 31.7138 293.643L23.3109 301.125C23.012 301.399 22.9196 301.8 23.0774 302.178L28.2958 314.648C28.4424 315.009 28.8163 315.241 29.2111 315.216L40.4431 314.51C43.6207 318.899 47.4402 322.661 51.7287 325.719L51.0889 336.964C51.0688 337.365 51.2877 337.725 51.6612 337.884L64.1709 343.018C64.5332 343.16 64.9554 343.069 65.2152 342.773L72.6672 334.311C77.8502 335.146 83.2346 335.167 88.5641 334.281L96.0465 342.685C96.3094 342.967 96.7216 343.076 97.099 342.918L109.569 337.7C109.93 337.554 110.161 337.18 110.137 336.785L109.431 325.553C113.819 322.375 117.58 318.556 120.639 314.268L131.884 314.908C132.284 314.928 132.644 314.709 132.804 314.336L137.936 301.826Z" fill="#EAEDF0"/>
<path d="M82.4998 298.964C75.0912 300.067 68.1551 294.948 67.0524 287.539C66.5212 283.954 67.4083 280.356 69.5619 277.452C71.732 274.537 74.8755 272.634 78.4769 272.092C85.8855 270.99 92.8216 276.109 93.9243 283.517C94.9398 290.259 90.7748 296.6 84.4497 298.52C83.8168 298.729 83.1668 298.877 82.4998 298.964ZM72.1141 279.335C70.452 281.569 69.7716 284.326 70.1926 287.066C71.041 292.735 76.3577 296.672 82.0266 295.824C87.6955 294.976 91.6326 289.659 90.7841 283.99C89.9357 278.321 84.619 274.384 78.9501 275.232C78.4443 275.307 77.9444 275.427 77.439 275.574C75.3066 276.214 73.4615 277.531 72.1141 279.335Z" fill="#D1D5D9"/>
<path d="M94.1978 316.024L94.1964 316.024C94.15 316.045 94.1031 316.066 94.0556 316.087C93.7832 316.209 93.4934 316.338 93.1956 316.455C92.1344 316.903 91.0388 317.301 89.9418 317.627C89.9418 317.627 89.9417 317.627 89.9416 317.627L89.8705 317.387C82.546 319.618 74.729 319.254 67.5267 316.323L94.1978 316.024ZM94.1978 316.024C95.8427 315.28 97.4124 314.392 98.9127 313.404L98.915 313.402L98.9151 313.402L98.9152 313.402L98.9153 313.402L98.9154 313.402L98.9155 313.402L98.9156 313.402L98.9157 313.402L98.9158 313.402L98.9159 313.402L98.916 313.402L98.9161 313.402L98.9162 313.402L98.9163 313.402L98.9164 313.402L98.9165 313.401L98.9166 313.401L98.9167 313.401L98.9168 313.401L98.9169 313.401L98.917 313.401L98.9171 313.401L98.9172 313.401L98.9173 313.401L98.9174 313.401L98.9175 313.401L98.9176 313.401L98.9177 313.401L98.9178 313.401L98.9179 313.401L98.9179 313.4L98.918 313.4L98.9181 313.4L98.9182 313.4L98.9183 313.4L98.9184 313.4L98.9185 313.4L98.9186 313.4L98.9187 313.4L98.9188 313.4L98.9189 313.4L98.919 313.4L98.9191 313.4L98.9192 313.4L98.9193 313.4L98.9194 313.399L98.9195 313.399L98.9196 313.399L98.9197 313.399L98.9198 313.399L98.9199 313.399L98.92 313.399L98.9201 313.399L98.9202 313.399L98.9203 313.399L98.9204 313.399L98.9205 313.399L98.9206 313.399L98.9207 313.399L98.9208 313.399L98.9209 313.398L98.921 313.398L98.9211 313.398L98.9212 313.398L98.9213 313.398L98.9214 313.398L98.9215 313.398L98.9216 313.398L98.9217 313.398L98.9218 313.398L98.9219 313.398L98.922 313.398L98.9221 313.398L98.9222 313.398L98.9223 313.398L98.9224 313.397L98.9225 313.397L98.9226 313.397L98.9227 313.397L98.9228 313.397L98.9229 313.397L98.923 313.397L98.9231 313.397L98.9232 313.397L98.9233 313.397L98.9234 313.397L98.9235 313.397L98.9236 313.397L98.9237 313.397L98.9238 313.397L98.9239 313.396L98.924 313.396L98.9241 313.396L98.9242 313.396L98.9243 313.396L98.9244 313.396L98.9245 313.396L98.9246 313.396L98.9247 313.396L98.9248 313.396L98.9249 313.396L98.925 313.396L98.9251 313.396L98.9252 313.396L98.9253 313.396L98.9254 313.395L98.9255 313.395L98.9256 313.395L98.9257 313.395L98.9258 313.395L98.9259 313.395L98.926 313.395L98.9261 313.395L98.9262 313.395L98.9263 313.395L98.9264 313.395L98.9265 313.395L98.9266 313.395L98.9267 313.395L98.9268 313.394L98.9269 313.394L98.927 313.394L98.9271 313.394L98.9272 313.394L98.9273 313.394L98.9274 313.394L98.9275 313.394L98.9276 313.394L98.9278 313.394L98.9279 313.394L98.928 313.394L98.9281 313.394L98.9282 313.394L98.9283 313.394L98.9284 313.393L98.9285 313.393L98.9286 313.393L98.9287 313.393L98.9288 313.393L98.9289 313.393L98.929 313.393L98.9291 313.393L98.9292 313.393L98.9293 313.393L98.9294 313.393L98.9295 313.393L98.9296 313.393L98.9297 313.393L98.9298 313.392L98.9299 313.392L98.9301 313.392L98.9302 313.392L98.9303 313.392L98.9304 313.392L98.9305 313.392L98.9306 313.392L98.9307 313.392L98.9308 313.392L98.9309 313.392L98.931 313.392L98.9311 313.392L98.9312 313.392L98.9313 313.391L98.9314 313.391L98.9315 313.391L98.9317 313.391L98.9318 313.391L98.9319 313.391L98.932 313.391L98.9321 313.391L98.9322 313.391L98.9323 313.391L98.9324 313.391L98.9325 313.391L98.9326 313.391L98.9327 313.39L98.9328 313.39L98.933 313.39L98.9331 313.39L98.9332 313.39L98.9333 313.39L98.9334 313.39L98.9335 313.39L98.9336 313.39L98.9337 313.39L98.9338 313.39L98.9339 313.39L98.9341 313.39L98.9342 313.39L98.9343 313.389L98.9344 313.389L98.9345 313.389L98.9346 313.389L98.9347 313.389L98.9348 313.389L98.9349 313.389L98.9351 313.389L98.9352 313.389L98.9353 313.389L98.9354 313.389L98.9355 313.389L98.9356 313.389L98.9357 313.388L98.9358 313.388L98.9359 313.388L98.9361 313.388L98.9362 313.388L98.9363 313.388L98.9364 313.388L98.9365 313.388L98.9366 313.388L98.9367 313.388L98.9369 313.388L98.937 313.388L98.9371 313.388L98.9372 313.387L98.9373 313.387L98.9374 313.387L98.9375 313.387L98.9377 313.387L98.9378 313.387L98.9379 313.387L98.938 313.387L98.9381 313.387L98.9382 313.387L98.9384 313.387L98.9385 313.387L98.9386 313.387L98.9387 313.386L98.9388 313.386L98.9389 313.386L98.9391 313.386L98.9392 313.386L98.9393 313.386L98.9394 313.386L98.9395 313.386L98.9396 313.386L98.9398 313.386L98.9399 313.386L98.94 313.386L98.9401 313.386L98.9402 313.385L98.9404 313.385L98.9405 313.385L98.9406 313.385L98.9407 313.385L98.9408 313.385L98.941 313.385L98.9411 313.385L98.9412 313.385L98.9413 313.385L98.9414 313.385L98.9416 313.385L98.9417 313.384L98.9418 313.384L98.9419 313.384L98.942 313.384L98.9422 313.384L98.9423 313.384L98.9424 313.384L98.9425 313.384L98.9427 313.384L98.9428 313.384L98.9429 313.384L98.943 313.384L98.9431 313.383L98.9433 313.383L98.9434 313.383L98.9435 313.383L98.9436 313.383L98.9438 313.383L98.9439 313.383L98.944 313.383L98.9441 313.383L98.9443 313.383L98.9444 313.383L98.9445 313.383L98.9446 313.382L98.9448 313.382L98.9449 313.382L98.945 313.382L98.9451 313.382L98.9453 313.382L98.9454 313.382L98.9455 313.382L98.9457 313.382L98.9458 313.382L98.9459 313.382L98.946 313.382L98.9462 313.381L98.9463 313.381L98.9464 313.381L98.9466 313.381L98.9467 313.381L98.9468 313.381L98.9469 313.381L98.9471 313.381L98.9472 313.381L98.9473 313.381L98.9475 313.381L98.9476 313.38L98.9477 313.38L98.9479 313.38L98.948 313.38L98.9481 313.38L98.9483 313.38L98.9484 313.38L98.9485 313.38L98.9486 313.38L98.9488 313.38L98.9489 313.38L98.949 313.379L98.9492 313.379L98.9493 313.379L98.9495 313.379L98.9496 313.379L98.9497 313.379L98.9499 313.379L98.95 313.379L98.9501 313.379L98.9503 313.379L98.9504 313.379L98.9505 313.378L98.9507 313.378L98.9508 313.378L98.9509 313.378L98.9511 313.378L98.9512 313.378L98.9514 313.378L98.9515 313.378L98.9516 313.378L98.9518 313.378L98.9519 313.378L98.952 313.377L98.9522 313.377L98.9523 313.377L98.9525 313.377L98.9526 313.377L98.9527 313.377L98.9529 313.377L98.953 313.377L98.9532 313.377L98.9533 313.377L98.9534 313.377L98.9536 313.376L98.9537 313.376L98.9539 313.376L98.954 313.376L98.9541 313.376L98.9543 313.376L98.9544 313.376L98.9546 313.376L98.9547 313.376L98.9549 313.376L98.955 313.375L98.9552 313.375L98.9553 313.375L98.9554 313.375L98.9556 313.375L98.9557 313.375L98.9559 313.375L98.956 313.375L98.9562 313.375L98.9563 313.375L98.9565 313.374L98.9566 313.374L98.9568 313.374L98.9569 313.374L98.957 313.374L98.9572 313.374L98.9573 313.374L98.9575 313.374L98.9576 313.374L98.9578 313.374L98.9579 313.373L98.9581 313.373L98.9582 313.373L98.9584 313.373L98.9585 313.373L98.9587 313.373L98.9588 313.373L98.959 313.373L98.9591 313.373L98.9593 313.373L98.9594 313.372L98.9596 313.372L98.9598 313.372L98.9599 313.372L98.9601 313.372L98.9602 313.372L98.9604 313.372L98.9605 313.372L98.9607 313.372L98.9608 313.372L98.961 313.371L98.9611 313.371L98.9613 313.371L98.9615 313.371L98.9616 313.371L98.9618 313.371L98.9619 313.371L98.9621 313.371L98.9622 313.371L98.9624 313.37L98.9626 313.37L98.9627 313.37L98.9629 313.37L98.963 313.37L98.9632 313.37L98.9633 313.37L98.9635 313.37L98.9637 313.37L98.9638 313.37L98.964 313.369L98.9641 313.369L98.9643 313.369L98.9645 313.369L98.9646 313.369L98.9648 313.369L98.965 313.369L98.9651 313.369L98.9653 313.369L98.9654 313.368L98.9656 313.368L98.9658 313.368L98.9659 313.368L98.9661 313.368L98.9663 313.368L98.9664 313.368L98.9666 313.368L98.9668 313.368L98.9669 313.367L98.9671 313.367L98.9673 313.367L98.9674 313.367L98.9676 313.367L98.9678 313.367L98.9679 313.367L98.9681 313.367L98.9683 313.367L98.9684 313.366L98.9686 313.366L98.9688 313.366L98.969 313.366L98.9691 313.366L98.9693 313.366L98.9695 313.366L98.9696 313.366L98.9698 313.365L98.97 313.365L98.9702 313.365L98.9703 313.365L98.9705 313.365L98.9707 313.365L98.9708 313.365L98.971 313.365L98.9712 313.365L98.9714 313.364L98.9715 313.364L98.9717 313.364L98.9719 313.364L98.9721 313.364L98.9722 313.364L98.9724 313.364L98.9726 313.364L98.9728 313.363L98.973 313.363L98.9731 313.363L98.9733 313.363L98.9735 313.363L98.9737 313.363L98.9739 313.363L98.974 313.363L98.9742 313.363L98.9744 313.362L98.9746 313.362L98.9748 313.362L98.9749 313.362L98.9751 313.362L98.9753 313.362L98.9755 313.362L98.9757 313.362L98.9759 313.361L98.976 313.361L98.9762 313.361L98.9764 313.361L98.9766 313.361L98.9768 313.361L98.977 313.361L98.9771 313.361L98.9773 313.36L98.9775 313.36L98.9777 313.36L98.9779 313.36L98.9781 313.36L98.9783 313.36L98.9785 313.36L98.9786 313.36L98.9788 313.359L98.979 313.359L98.9792 313.359L98.9794 313.359L98.9796 313.359L98.9798 313.359L98.98 313.359L98.9802 313.358L98.9804 313.358L98.9806 313.358L98.9808 313.358L98.9809 313.358L98.9811 313.358L98.9813 313.358L98.9815 313.358L98.9818 313.357L98.9821 313.357L98.9824 313.357L98.9827 313.357L98.983 313.357L98.9833 313.356L98.9836 313.356L98.9839 313.356L98.9842 313.356L98.9845 313.356L98.9848 313.355L98.9851 313.355L98.9854 313.355L98.9857 313.355L98.986 313.355L98.9863 313.354L98.9866 313.354L98.9869 313.354L98.9872 313.354L98.9875 313.354L98.9877 313.353L98.988 313.353L98.9883 313.353L98.9887 313.353L98.989 313.353L98.9893 313.352L98.9896 313.352L98.9899 313.352L98.9902 313.352L98.9905 313.352L98.9908 313.351L98.9911 313.351L98.9914 313.351L98.9917 313.351L98.992 313.351L98.9923 313.35L98.9926 313.35L98.9929 313.35L98.9932 313.35L98.9935 313.35L98.9938 313.349L98.9941 313.349L98.9944 313.349L98.9947 313.349L98.995 313.348L98.9954 313.348L98.9957 313.348L98.996 313.348L98.9963 313.348L98.9966 313.347L98.9969 313.347L98.9972 313.347L98.9975 313.347L98.9978 313.347L98.9981 313.346L98.9985 313.346L98.9988 313.346L98.9991 313.346L98.9994 313.346L98.9997 313.345L99 313.345L99.0003 313.345L99.0006 313.345L99.0009 313.344L99.0013 313.344L99.0016 313.344L99.0019 313.344L99.0022 313.344L99.0025 313.343L99.0028 313.343L99.0032 313.343L99.0035 313.343L99.0038 313.343L99.0041 313.342L99.0044 313.342L99.0047 313.342L99.0051 313.342L99.0054 313.342L99.0057 313.341L99.006 313.341L99.0063 313.341L99.0066 313.341L99.007 313.34L99.0073 313.34L99.0076 313.34L99.0079 313.34L99.0082 313.34L99.0086 313.339L99.0089 313.339L99.0092 313.339L99.0095 313.339L99.0098 313.338L99.0102 313.338L99.0105 313.338L99.0108 313.338L99.0111 313.338L99.0114 313.337L99.0118 313.337L99.0121 313.337L99.0124 313.337L99.0127 313.337L99.0131 313.336L99.0134 313.336L99.0137 313.336L99.014 313.336L99.0144 313.335L99.0147 313.335L99.015 313.335L99.0153 313.335L99.0157 313.335L99.016 313.334L99.0163 313.334L99.0166 313.334L99.017 313.334L99.0173 313.333L99.0176 313.333L99.0179 313.333L99.0183 313.333L99.0186 313.333L99.0189 313.332L99.0192 313.332L99.0196 313.332L99.0199 313.332L99.0202 313.331L99.0206 313.331L99.0209 313.331L99.0212 313.331L99.0215 313.331L99.0219 313.33L99.0222 313.33L99.0225 313.33L99.0229 313.33L99.0232 313.329L99.0235 313.329L99.0238 313.329L99.0242 313.329L99.0245 313.329L99.0248 313.328L99.0252 313.328L99.0255 313.328L99.0258 313.328L99.0262 313.327L99.0265 313.327L99.0268 313.327L99.0272 313.327L99.0275 313.327L99.0278 313.326L99.0281 313.326L99.0285 313.326L99.0288 313.326L99.0291 313.325L99.0295 313.325L99.0298 313.325L99.0301 313.325L99.0305 313.325L99.0308 313.324L99.0311 313.324L99.0315 313.324L99.0318 313.324L99.0321 313.323L99.0325 313.323L99.0328 313.323L99.0331 313.323L99.0335 313.323L99.0338 313.322L99.0342 313.322L99.0345 313.322L99.0348 313.322L99.0352 313.321L99.0355 313.321L99.0358 313.321L99.0362 313.321L99.0365 313.321L99.0368 313.32L99.0372 313.32L99.0375 313.32L99.0378 313.32L99.0382 313.319L99.0385 313.319L99.0389 313.319L99.0392 313.319L99.0395 313.318L99.0399 313.318L99.0402 313.318L99.0405 313.318L99.0409 313.318L99.0412 313.317L99.0416 313.317L99.0419 313.317L99.0422 313.317L99.0426 313.316L99.0429 313.316L99.0432 313.316L99.0436 313.316L99.0439 313.315L99.0443 313.315L99.0446 313.315L99.0449 313.315L99.0453 313.315L99.0456 313.314L99.0459 313.314L99.0463 313.314L99.0466 313.314L99.047 313.313L99.0473 313.313L99.0476 313.313L99.048 313.313L99.0483 313.313L99.0487 313.312L99.049 313.312L99.0493 313.312L99.0497 313.312L99.05 313.311L99.0504 313.311L99.0507 313.311L99.051 313.311L99.0514 313.31L99.0517 313.31L99.0521 313.31L99.0524 313.31L99.0527 313.31L99.0531 313.309L99.0534 313.309L99.0538 313.309L99.0541 313.309L99.0544 313.308L99.0548 313.308L99.0551 313.308L99.0555 313.308L99.0558 313.307L99.0561 313.307L99.0565 313.307L99.0568 313.307L99.0572 313.307L99.0575 313.306L99.0578 313.306L99.0582 313.306L99.0585 313.306L99.0589 313.305L99.0592 313.305L99.0595 313.305L99.0599 313.305L99.0602 313.304L99.0606 313.304L99.0609 313.304L99.0613 313.304L99.0616 313.304L99.0619 313.303L99.0623 313.303L99.0626 313.303L99.063 313.303L99.0633 313.302L99.0636 313.302L99.064 313.302L99.0643 313.302L99.0647 313.302L99.065 313.301L99.0653 313.301L99.0657 313.301L99.066 313.301L99.0664 313.3L99.0667 313.3L99.067 313.3L99.0674 313.3L99.0677 313.299L99.0681 313.299L99.0684 313.299L99.0688 313.299L99.0691 313.299L99.0694 313.298L99.0698 313.298L99.0701 313.298L99.0705 313.298L99.0708 313.297L99.0711 313.297L99.0715 313.297L99.0718 313.297L99.0722 313.296L99.0725 313.296L99.0728 313.296L99.0732 313.296L99.0735 313.296L99.0739 313.295L99.0742 313.295L99.0745 313.295L99.0749 313.295L99.0752 313.294L99.0756 313.294L99.0759 313.294L99.0762 313.294L99.0766 313.293L99.0769 313.293L99.0773 313.293L99.0776 313.293L99.0779 313.293L99.0783 313.292L99.0786 313.292L99.079 313.292L99.0793 313.292L99.0796 313.291L99.08 313.291L99.0803 313.291L99.0807 313.291L99.081 313.29L99.0813 313.29L99.0817 313.29L99.082 313.29L99.0824 313.29L99.0827 313.289L99.083 313.289L99.0834 313.289L99.0837 313.289L99.0841 313.288L99.0844 313.288L99.0847 313.288L99.0851 313.288L99.0854 313.288L99.0857 313.287L99.0861 313.287L99.0864 313.287L99.0868 313.287L99.0871 313.286L99.0874 313.286L99.0878 313.286L99.0881 313.286L99.0884 313.285L99.0888 313.285L99.0891 313.285L99.0895 313.285L99.0898 313.285L99.0901 313.284L99.0905 313.284L99.0908 313.284L99.0911 313.284L99.0915 313.283L99.0918 313.283L99.0921 313.283L99.0925 313.283L99.0928 313.283L99.0932 313.282L99.0935 313.282L99.0938 313.282L99.0942 313.282L99.0945 313.281L99.0948 313.281L99.0952 313.281L99.0955 313.281L99.0958 313.28L99.0962 313.28L99.0965 313.28L99.0968 313.28L99.0972 313.28L99.0975 313.279L99.0978 313.279L99.0982 313.279L99.0985 313.279L99.0988 313.278L99.0992 313.278L99.0995 313.278L99.0998 313.278L99.1002 313.278L99.1005 313.277L99.1008 313.277L99.1012 313.277L99.1015 313.277L99.1018 313.276L99.1022 313.276L99.1025 313.276L99.1028 313.276L99.1032 313.276L99.1035 313.275L99.1038 313.275L99.1042 313.275L99.1045 313.275L99.1048 313.274L99.1051 313.274L99.1055 313.274L99.1058 313.274L99.1061 313.274L99.1065 313.273L99.1068 313.273L99.1071 313.273L99.1075 313.273L99.1078 313.272L99.1081 313.272L99.1084 313.272L99.1088 313.272L99.1091 313.272L99.1094 313.271L99.1098 313.271L99.1101 313.271L99.1104 313.271L99.1107 313.27L99.1111 313.27L99.1114 313.27L99.1117 313.27L99.112 313.27L99.1124 313.269L99.1127 313.269L99.113 313.269L99.1133 313.269L99.1137 313.268L99.114 313.268L99.1143 313.268L99.1146 313.268L99.115 313.268L99.1153 313.267L99.1156 313.267L99.1159 313.267L99.1163 313.267L99.1166 313.266L99.1169 313.266L99.1172 313.266L99.1176 313.266L99.1179 313.266L99.1182 313.265L99.1185 313.265L99.1188 313.265L99.1192 313.265L99.1195 313.265L99.1198 313.264L99.1201 313.264L99.1204 313.264L99.1208 313.264L99.1211 313.263L99.1214 313.263L99.1217 313.263L99.122 313.263L99.1224 313.263L99.1227 313.262L99.123 313.262L99.1233 313.262L99.1236 313.262L99.124 313.262L99.1243 313.261L99.1246 313.261L99.1249 313.261L99.1252 313.261L99.1255 313.26L99.1259 313.26L99.1262 313.26L99.1265 313.26L99.1268 313.26L99.1271 313.259L99.1274 313.259L99.1277 313.259L99.1281 313.259L99.1284 313.259L99.1287 313.258L99.129 313.258L99.1293 313.258L99.1296 313.258L99.1299 313.257L99.1302 313.257L99.1306 313.257L99.1309 313.257L99.1312 313.257L99.1315 313.256L99.1318 313.256L99.1321 313.256L99.1324 313.256L99.1327 313.256L99.133 313.255L99.1334 313.255L99.1337 313.255L99.134 313.255L99.1343 313.255L99.1346 313.254L99.1349 313.254L99.1352 313.254L99.1355 313.254L99.1358 313.254L99.1361 313.253L99.1364 313.253L99.1367 313.253L99.137 313.253L99.1373 313.252L99.1376 313.252L99.1379 313.252L99.1383 313.252L99.1386 313.252L99.1389 313.251L99.1392 313.251L99.1395 313.251L99.1398 313.251L99.1401 313.251L99.1404 313.25L99.1407 313.25L99.141 313.25L99.1413 313.25L99.1416 313.25L99.1419 313.249L99.1422 313.249L99.1425 313.249L99.1428 313.249L99.1431 313.249L99.1434 313.248L99.1437 313.248L99.144 313.248L99.1443 313.248L99.1446 313.248L99.1448 313.247L99.1451 313.247L99.1454 313.247L99.1457 313.247L99.146 313.247L99.1463 313.246L99.1466 313.246L99.1469 313.246L99.1472 313.246L99.1475 313.246L99.1478 313.245L99.1485 313.245L99.1492 313.245L99.1498 313.244L99.1505 313.244L99.1512 313.243L99.1519 313.243L99.1526 313.242L99.1532 313.242L99.1539 313.241L99.1546 313.241L99.1553 313.24L99.1559 313.24L99.1566 313.239L99.1573 313.239L99.158 313.239L99.1587 313.238L99.1593 313.238L99.16 313.237L99.1607 313.237L99.1614 313.236L99.162 313.236L99.1627 313.235L99.1634 313.235L99.164 313.234L99.1647 313.234L99.1654 313.234L99.1661 313.233L99.1667 313.233L99.1674 313.232L99.1681 313.232L99.1688 313.231L99.1694 313.231L99.1701 313.23L99.1708 313.23L99.1714 313.229L99.1721 313.229L99.1728 313.229L99.1734 313.228L99.1741 313.228L99.1748 313.227L99.1754 313.227L99.1761 313.226L99.1768 313.226L99.1774 313.225L99.1781 313.225L99.1788 313.225L99.1794 313.224L99.1801 313.224L99.1808 313.223L99.1814 313.223L99.1821 313.222L99.1828 313.222L99.1834 313.221L99.1841 313.221L99.1848 313.221L99.1854 313.22L99.1861 313.22L99.1868 313.219L99.1874 313.219L99.1881 313.218L99.1887 313.218L99.1894 313.217L99.1901 313.217L99.1907 313.216L99.1914 313.216L99.192 313.216L99.1927 313.215L99.1934 313.215L99.194 313.214L99.1947 313.214L99.1953 313.213L99.196 313.213L99.1967 313.212L99.1973 313.212L99.198 313.212L99.1986 313.211L99.1993 313.211L99.1999 313.21L99.2006 313.21L99.2013 313.209L99.2019 313.209L99.2026 313.208L99.2032 313.208L99.2039 313.208L99.2045 313.207L99.2052 313.207L99.2058 313.206L99.2065 313.206L99.2071 313.205L99.2078 313.205L99.2085 313.205L99.2091 313.204L99.2098 313.204L99.2104 313.203L99.2111 313.203L99.2117 313.202L99.2124 313.202L99.213 313.201L99.2137 313.201L99.2143 313.201L99.215 313.2L99.2156 313.2L99.2163 313.199L99.2169 313.199L99.2176 313.198L99.2182 313.198L99.2189 313.197L99.2195 313.197L99.2202 313.197L99.2208 313.196L99.2215 313.196L99.2221 313.195L99.2228 313.195L99.2234 313.194L99.2241 313.194L99.2247 313.194L99.2254 313.193L99.226 313.193L99.2267 313.192L99.2273 313.192L99.228 313.191L99.2286 313.191L99.2292 313.19L99.2299 313.19L99.2305 313.19L99.2312 313.189L99.2318 313.189L99.2325 313.188L99.2331 313.188L99.2338 313.187L99.2344 313.187L99.2351 313.187L99.2357 313.186L99.2363 313.186L99.237 313.185L99.2376 313.185L99.2383 313.184L99.2389 313.184L99.2396 313.184L99.2402 313.183L99.2409 313.183L99.2415 313.182L99.2421 313.182L99.2428 313.181L99.2434 313.181L99.2441 313.18L99.2447 313.18L99.2454 313.18L99.246 313.179L99.2466 313.179L99.2473 313.178L99.2479 313.178L99.2486 313.177L99.2492 313.177L99.2498 313.177L99.2505 313.176L99.2511 313.176L99.2518 313.175L99.2524 313.175L99.253 313.174L99.2537 313.174L99.2543 313.174L99.255 313.173L99.2556 313.173L99.2562 313.172L99.2569 313.172L99.2575 313.171L99.2582 313.171L99.2588 313.171L99.2594 313.17L99.2601 313.17L99.2607 313.169L99.2614 313.169L99.262 313.168L99.2626 313.168L99.2633 313.168L99.2639 313.167L99.2645 313.167L99.2652 313.166L99.2658 313.166L99.2665 313.165L99.2671 313.165L99.2677 313.165L99.2684 313.164L99.269 313.164L99.2696 313.163L99.2703 313.163L99.2709 313.162L99.2716 313.162L99.2722 313.162L99.2728 313.161L99.2735 313.161L99.2741 313.16L99.2747 313.16L99.2754 313.159L99.276 313.159L99.2766 313.159L99.2773 313.158L99.2779 313.158L99.2785 313.157L99.2792 313.157L99.2798 313.156L99.2805 313.156L99.2811 313.156L99.2817 313.155L99.2824 313.155L99.283 313.154L99.2836 313.154L99.2843 313.153L99.2849 313.153L99.2855 313.153L99.2862 313.152L99.2868 313.152L99.2874 313.151L99.2881 313.151L99.2887 313.15L99.2893 313.15L99.29 313.15L99.2906 313.149L99.2912 313.149L99.2919 313.148L99.2925 313.148L99.2931 313.147L99.2938 313.147L99.2944 313.147L99.295 313.146L99.2957 313.146L99.2963 313.145L99.2969 313.145L99.2976 313.144L99.2982 313.144L99.2988 313.144L99.2995 313.143L99.3001 313.143L99.3007 313.142L99.3014 313.142L99.302 313.141L99.3027 313.141L99.3033 313.141L99.3039 313.14L99.3046 313.14L99.3052 313.139L99.3058 313.139L99.3065 313.138L99.3071 313.138L99.3077 313.138L99.3083 313.137L99.309 313.137L99.3096 313.136L99.3103 313.136L99.3109 313.135L99.3115 313.135L99.3122 313.135L99.3128 313.134L99.3134 313.134L99.314 313.133L99.3147 313.133L99.3153 313.132L99.3159 313.132L99.3166 313.132L99.3172 313.131L99.3178 313.131L99.3185 313.13L99.3191 313.13L99.3198 313.129L99.3204 313.129L99.321 313.129L99.3216 313.128L99.3223 313.128L99.3229 313.127L99.3235 313.127L99.3242 313.126L99.3248 313.126L99.3254 313.126L99.3261 313.125L99.3267 313.125L99.3273 313.124L99.328 313.124L99.3286 313.123L99.3293 313.123L99.3299 313.123L99.3305 313.122L99.3312 313.122L99.3318 313.121L99.3324 313.121L99.3331 313.12L99.3337 313.12L99.3343 313.12L99.335 313.119L99.3356 313.119L99.3362 313.118L99.3369 313.118L99.3375 313.117L99.3381 313.117L99.3388 313.117L99.3394 313.116L99.34 313.116L99.3407 313.115L99.3413 313.115L99.3419 313.114L99.3426 313.114L99.3432 313.114L99.3438 313.113L99.3445 313.113L99.3451 313.112L99.3457 313.112L99.3464 313.111L99.347 313.111L99.3476 313.111L99.3483 313.11L99.3489 313.11L99.3496 313.109L99.3502 313.109L99.3508 313.108L99.3515 313.108L99.3521 313.108L99.3527 313.107L99.3534 313.107L99.354 313.106L99.3546 313.106L99.3553 313.105L99.3559 313.105L99.3565 313.105L99.3572 313.104L99.3578 313.104L99.3585 313.103L99.3591 313.103L99.3597 313.102L99.3604 313.102L99.361 313.102L99.3616 313.101L99.3623 313.101L99.3629 313.1L99.3636 313.1L99.3642 313.099L99.3648 313.099L99.3655 313.099L99.3661 313.098L99.3667 313.098L99.3674 313.097L99.368 313.097L99.3687 313.096L99.3693 313.096L99.3699 313.096L99.3706 313.095L99.3712 313.095L99.3719 313.094L99.3725 313.094L99.3731 313.093L99.3738 313.093L99.3744 313.093L99.3751 313.092L99.3757 313.092L99.3763 313.091L99.377 313.091L99.3776 313.09L99.3783 313.09L99.3789 313.09L99.3795 313.089L99.3802 313.089L99.3808 313.088L99.3815 313.088L99.3821 313.087L99.3827 313.087L99.3834 313.087L99.384 313.086L99.3847 313.086L99.3853 313.085L99.386 313.085L99.3866 313.084L99.3872 313.084L99.3879 313.083L99.3885 313.083L99.3892 313.083L99.3898 313.082L99.3905 313.082L99.3911 313.081L99.3918 313.081L99.3924 313.08L99.393 313.08L99.3937 313.08L99.3943 313.079L99.395 313.079L99.3956 313.078L99.3963 313.078L99.3969 313.077L99.3976 313.077L99.3982 313.077L99.3989 313.076L99.3995 313.076L99.4001 313.075L99.4008 313.075L99.4014 313.074L99.4021 313.074L99.4027 313.073L99.4034 313.073L99.404 313.073L99.4047 313.072L99.4053 313.072L99.406 313.071L99.4066 313.071L99.4073 313.07L99.4079 313.07L99.4086 313.07L99.4092 313.069L99.4099 313.069L99.4105 313.068L99.4112 313.068L99.4118 313.067L99.4125 313.067L99.4131 313.066L99.4138 313.066L99.4144 313.066L99.4151 313.065L99.4157 313.065L99.4164 313.064L99.417 313.064L99.4177 313.063L99.4183 313.063L99.419 313.063L99.4196 313.062L99.4203 313.062L99.421 313.061L99.4216 313.061L99.4223 313.06L99.4229 313.06L99.4236 313.059L99.4242 313.059L99.4249 313.059L99.4255 313.058L99.4262 313.058L99.4268 313.057L99.4275 313.057L99.4282 313.056L99.4288 313.056L99.4295 313.055L99.4301 313.055L99.4308 313.055L99.4314 313.054L99.4321 313.054L99.4328 313.053L99.4334 313.053L99.4341 313.052L99.4347 313.052L99.4354 313.051L99.4361 313.051L99.4367 313.051L99.4374 313.05L99.438 313.05L99.4387 313.049L99.4394 313.049L99.44 313.048L99.4407 313.048L99.4413 313.047L99.442 313.047L99.4427 313.047L99.4433 313.046L99.444 313.046L99.4447 313.045L99.4453 313.045L99.446 313.044L99.4467 313.044L99.4473 313.043L99.448 313.043L99.4487 313.043L99.4493 313.042L99.45 313.042L99.4507 313.041L99.4513 313.041L99.452 313.04L99.4527 313.04L99.4533 313.039L99.454 313.039L99.4547 313.038L99.4553 313.038L99.456 313.038L99.4567 313.037L99.4573 313.037L99.458 313.036L99.4587 313.036L99.4593 313.035L99.46 313.035L99.4607 313.034L99.4614 313.034L99.462 313.033L99.4627 313.033L99.4634 313.033L99.4641 313.032L99.4647 313.032L99.4654 313.031L99.4661 313.031L99.4667 313.03L99.4674 313.03L99.4681 313.029L99.4688 313.029L99.4694 313.028L99.4701 313.028L99.4708 313.028L99.4715 313.027L99.4722 313.027L99.4728 313.026L99.4735 313.026L99.4742 313.025L99.4749 313.025L99.4755 313.024L99.4762 313.024L99.4769 313.023L99.4776 313.023L99.4783 313.023L99.4789 313.022L99.4796 313.022L99.4803 313.021C99.8807 312.751 100.005 312.276 99.8812 311.862L99.8791 311.855L99.8766 311.848L99.8733 311.839C99.8473 311.767 99.81 311.664 99.7476 311.572C99.4191 311.085 98.7714 310.985 98.2981 311.304L98.2944 311.307C96.4705 312.585 94.4843 313.661 92.4071 314.534C82.0951 318.849 70.7404 317.244 62.1811 311.28C57.4227 307.961 53.5126 303.303 51.1027 297.56C50.6825 296.545 50.3075 295.526 50.0046 294.509L50.0042 294.508C47.8972 287.577 48.2432 280.192 51.0376 273.411L51.0377 273.41C54.2459 265.606 60.2992 259.531 68.0688 256.283C84.1352 249.574 102.664 257.189 109.362 273.239C109.771 274.237 110.135 275.239 110.438 276.257L110.439 276.259C111.786 280.675 112.127 285.34 111.468 289.912C111.438 290.072 111.465 290.243 111.489 290.356L111.492 290.368L111.496 290.38C111.611 290.734 111.909 291.043 112.338 291.108C112.911 291.2 113.444 290.806 113.521 290.217C114.223 285.333 113.848 280.371 112.422 275.655C112.096 274.556 111.703 273.505 111.274 272.436L111.274 272.436L111.272 272.433C104.118 255.323 84.3601 247.203 67.2506 254.356L67.2505 254.356C58.965 257.825 52.5103 264.299 49.0869 272.628L49.0867 272.628C46.1229 279.866 45.7449 287.726 47.9874 295.133M94.1978 316.024L47.9874 295.133M47.9874 295.133C47.9873 295.133 47.9873 295.133 47.9872 295.133L48.2269 295.062M47.9874 295.133C47.9875 295.134 47.9875 295.134 47.9876 295.134L48.2269 295.062M48.2269 295.062C46.001 287.709 46.3757 279.908 49.3181 272.723L49.3902 298.293C48.9451 297.238 48.5498 296.15 48.2269 295.062Z" fill="#D1D5D9" stroke="#D1D5D9" stroke-width="0.5"/>
<rect x="196" y="40" width="176" height="64" fill="#EAEDF0"/>
<rect x="196" y="24" width="176" height="16" fill="#DFDFDF"/>
<path d="M213 62H254L262 72L254 82H213L221 72L213 62Z" fill="#960020"/>
<path d="M262 62H303L311 72L303 82H262L270 72L262 62Z" fill="#C80000"/>
<path d="M311 62H352L360 72L352 82H311L319 72L311 62Z" fill="#FF0000"/>
</svg>
