<svg width="396" height="360" viewBox="0 0 396 360" fill="none" xmlns="http://www.w3.org/2000/svg">
<g clip-path="url(#clip0_6511:33528)">
<path d="M198.5 315.5C197.837 315.5 197.175 315.496 196.515 315.487L196.508 315.987C195.182 315.97 193.861 315.936 192.543 315.885L192.563 315.385C191.242 315.334 189.926 315.266 188.614 315.182L188.582 315.681C187.259 315.595 185.942 315.493 184.629 315.373L184.674 314.876C183.358 314.756 182.046 314.62 180.74 314.467L180.682 314.963C179.367 314.809 178.056 314.638 176.751 314.451L176.822 313.956C175.514 313.768 174.212 313.563 172.915 313.341L172.831 313.834C171.526 313.612 170.226 313.372 168.933 313.116L169.03 312.626C167.734 312.369 166.443 312.096 165.159 311.807L165.049 312.295C163.758 312.004 162.474 311.696 161.196 311.373L161.318 310.888C160.038 310.564 158.763 310.223 157.495 309.866L157.36 310.347C156.087 309.989 154.82 309.614 153.561 309.224L153.709 308.746C152.447 308.355 151.192 307.947 149.945 307.524L149.784 307.997C148.532 307.572 147.286 307.131 146.049 306.674L146.222 306.205C144.983 305.748 143.752 305.275 142.528 304.787L142.343 305.251C141.114 304.76 139.894 304.254 138.681 303.732L138.879 303.273C137.666 302.752 136.462 302.215 135.266 301.662L135.057 302.116C133.855 301.562 132.663 300.992 131.479 300.407L131.7 299.958C130.518 299.374 129.344 298.775 128.179 298.161L127.946 298.603C126.775 297.986 125.614 297.354 124.461 296.707L124.706 296.271C123.556 295.626 122.416 294.966 121.285 294.292L121.029 294.721C119.892 294.043 118.765 293.351 117.648 292.645L117.915 292.222C116.801 291.518 115.697 290.799 114.602 290.067L114.324 290.482C113.225 289.746 112.135 288.996 111.056 288.232L111.345 287.824C110.27 287.062 109.204 286.287 108.15 285.498L107.85 285.899C106.791 285.106 105.742 284.3 104.704 283.481L105.014 283.089C103.98 282.272 102.956 281.442 101.944 280.599L101.624 280.983C100.607 280.137 99.6021 279.278 98.6084 278.406L98.9382 278.03C97.9476 277.161 96.9686 276.278 96.0012 275.384L95.6617 275.751C94.6909 274.853 93.7318 273.943 92.7848 273.02L93.1337 272.662C92.1898 271.742 91.2579 270.81 90.3383 269.866L89.9801 270.215C89.0574 269.268 88.147 268.309 87.2492 267.338L87.6163 266.999C86.7216 266.032 85.8395 265.052 84.9701 264.062L84.5943 264.392C83.7222 263.398 82.8628 262.393 82.0165 261.376L82.4008 261.056C81.5579 260.044 80.728 259.02 79.9113 257.986L79.5189 258.296C78.6996 257.258 77.8937 256.209 77.1013 255.15L77.5017 254.85C76.7129 253.796 75.9376 252.73 75.176 251.655L74.768 251.944C74.0041 250.865 73.254 249.775 72.5179 248.676L72.9334 248.398C72.2008 247.303 71.4821 246.199 70.7777 245.085L70.355 245.352C69.6488 244.235 68.9567 243.108 68.279 241.971L68.7085 241.715C68.0342 240.584 67.3742 239.444 66.7289 238.294L66.2928 238.539C65.6462 237.386 65.0142 236.225 64.3971 235.055L64.8394 234.821C64.2253 233.656 63.6259 232.483 63.0416 231.3L62.5933 231.521C62.0083 230.337 61.4383 229.145 60.8836 227.943L61.3376 227.734C60.7854 226.538 60.2484 225.334 59.7269 224.122L59.2676 224.319C58.7459 223.107 58.2397 221.886 57.749 220.657L58.2134 220.472C57.7248 219.248 57.2518 218.017 56.7946 216.778L56.3255 216.951C55.8688 215.714 55.4278 214.469 55.0027 213.216L55.4761 213.055C55.0527 211.808 54.6452 210.553 54.2537 209.291L53.7762 209.439C53.3856 208.18 53.011 206.913 52.6526 205.64L53.1339 205.505C52.777 204.237 52.4363 202.963 52.1119 201.682L51.6272 201.804C51.3036 200.526 50.9962 199.242 50.7053 197.951L51.1931 197.841C50.9037 196.557 50.6306 195.266 50.3742 193.97L49.8837 194.067C49.6278 192.774 49.3884 191.475 49.1657 190.17L49.6586 190.085C49.4372 188.788 49.2324 187.486 49.0444 186.178L48.5495 186.249C48.3618 184.944 48.1909 183.634 48.0367 182.318L48.5333 182.26C48.3803 180.954 48.244 179.643 48.1245 178.326L47.6266 178.372C47.5074 177.059 47.4049 175.741 47.3195 174.418L47.8184 174.386C47.7337 173.074 47.6656 171.758 47.6146 170.437L47.115 170.457C47.064 169.139 47.0299 167.818 47.0128 166.492L47.5128 166.485C47.5043 165.825 47.5 165.163 47.5 164.5C47.5 163.837 47.5043 163.175 47.5128 162.515L47.0128 162.508C47.0299 161.182 47.064 159.861 47.115 158.543L47.6146 158.563C47.6656 157.242 47.7337 155.926 47.8184 154.614L47.3195 154.582C47.4049 153.259 47.5074 151.942 47.6265 150.629L48.1245 150.674C48.244 149.358 48.3803 148.046 48.5333 146.74L48.0367 146.682C48.1908 145.367 48.3618 144.056 48.5494 142.751L49.0443 142.822C49.2324 141.514 49.4372 140.212 49.6585 138.915L49.1657 138.831C49.3884 137.526 49.6278 136.226 49.8837 134.933L50.3742 135.03C50.6306 133.734 50.9036 132.443 51.193 131.159L50.7053 131.049C50.9962 129.758 51.3036 128.474 51.6272 127.196L52.1119 127.318C52.4363 126.038 52.777 124.763 53.1338 123.495L52.6526 123.36C53.0109 122.087 53.3856 120.82 53.7762 119.561L54.2537 119.709C54.6451 118.447 55.0527 117.192 55.4761 115.945L55.0026 115.784C55.4277 114.532 55.8688 113.286 56.3255 112.049L56.7946 112.222C57.2518 110.983 57.7248 109.752 58.2133 108.528L57.749 108.343C58.2396 107.114 58.7459 105.894 59.2675 104.681L59.7268 104.879C60.2484 103.666 60.7854 102.462 61.3375 101.266L60.8836 101.057C61.4383 99.8555 62.0083 98.6627 62.5933 97.4787L63.0416 97.7002C63.6259 96.5175 64.2253 95.3436 64.8394 94.1787L64.3971 93.9456C65.0142 92.775 65.6462 91.6136 66.2928 90.4614L66.7288 90.7061C67.3742 89.5562 68.0341 88.4156 68.7085 87.2846L68.279 87.0286C68.9566 85.892 69.6487 84.7651 70.355 83.648L70.7776 83.9152C71.4821 82.801 72.2007 81.6966 72.9333 80.6024L72.5178 80.3242C73.2539 79.2247 74.0041 78.1354 74.7679 77.0565L75.176 77.3454C75.9376 76.2697 76.7129 75.2045 77.5016 74.1498L77.1012 73.8504C77.8936 72.7909 78.6996 71.7421 79.5188 70.7043L79.9113 71.0141C80.7279 69.9796 81.5578 68.956 82.4007 67.9436L82.0165 67.6237C82.8628 66.6073 83.7221 65.6021 84.5942 64.6084L84.97 64.9382C85.8394 63.9476 86.7216 62.9686 87.6162 62.0012L87.2491 61.6617C88.147 60.6909 89.0574 59.7318 89.9801 58.7848L90.3382 59.1337C91.2579 58.1898 92.1898 57.2579 93.1337 56.3383L92.7848 55.9801C93.7318 55.0574 94.6908 54.147 95.6616 53.2492L96.0011 53.6163C96.9685 52.7216 97.9476 51.8395 98.9382 50.9701L98.6083 50.5943C99.602 49.7222 100.607 48.8628 101.624 48.0165L101.944 48.4008C102.956 47.5579 103.98 46.728 105.014 45.9113L104.704 45.5189C105.742 44.6996 106.791 43.8937 107.85 43.1013L108.15 43.5017C109.204 42.7129 110.27 41.9376 111.345 41.176L111.056 40.768C112.135 40.0041 113.225 39.254 114.324 38.5179L114.602 38.9334C115.697 38.2008 116.801 37.4821 117.915 36.7777L117.648 36.355C118.765 35.6488 119.892 34.9567 121.029 34.279L121.285 34.7085C122.416 34.0342 123.556 33.3742 124.706 32.7289L124.461 32.2928C125.614 31.6462 126.775 31.0142 127.945 30.3971L128.179 30.8394C129.344 30.2253 130.517 29.6259 131.7 29.0416L131.479 28.5933C132.663 28.0083 133.855 27.4383 135.057 26.8836L135.266 27.3376C136.462 26.7854 137.666 26.2484 138.878 25.7269L138.681 25.2676C139.893 24.7459 141.114 24.2397 142.343 23.749L142.528 24.2134C143.752 23.7248 144.983 23.2518 146.222 22.7946L146.049 22.3255C147.286 21.8688 148.531 21.4278 149.784 21.0027L149.945 21.4761C151.192 21.0527 152.447 20.6452 153.709 20.2537L153.561 19.7762C154.82 19.3856 156.087 19.011 157.36 18.6526L157.495 19.1339C158.763 18.777 160.037 18.4363 161.318 18.1119L161.196 17.6272C162.474 17.3036 163.758 16.9962 165.049 16.7053L165.159 17.1931C166.443 16.9037 167.734 16.6306 169.03 16.3742L168.933 15.8837C170.226 15.6278 171.525 15.3884 172.83 15.1657L172.915 15.6586C174.212 15.4372 175.514 15.2324 176.822 15.0444L176.751 14.5495C178.056 14.3618 179.366 14.1909 180.682 14.0367L180.74 14.5333C182.046 14.3803 183.357 14.244 184.674 14.1245L184.628 13.6266C185.941 13.5074 187.259 13.4049 188.582 13.3195L188.614 13.8184C189.926 13.7337 191.242 13.6656 192.563 13.6146L192.543 13.115C193.861 13.064 195.182 13.0299 196.508 13.0128L196.515 13.5128C197.175 13.5043 197.837 13.5 198.5 13.5C199.163 13.5 199.825 13.5043 200.485 13.5128L200.492 13.0128C201.818 13.0299 203.139 13.064 204.457 13.115L204.437 13.6146C205.758 13.6656 207.074 13.7337 208.386 13.8184L208.418 13.3195C209.741 13.4049 211.058 13.5074 212.371 13.6265L212.326 14.1245C213.642 14.244 214.954 14.3803 216.26 14.5333L216.318 14.0367C217.633 14.1908 218.944 14.3618 220.249 14.5494L220.178 15.0443C221.486 15.2324 222.788 15.4372 224.085 15.6585L224.169 15.1657C225.474 15.3884 226.774 15.6278 228.067 15.8837L227.97 16.3742C229.266 16.6306 230.557 16.9036 231.841 17.193L231.951 16.7053C233.242 16.9962 234.526 17.3036 235.804 17.6272L235.682 18.1119C236.962 18.4363 238.237 18.777 239.505 19.1338L239.64 18.6526C240.913 19.0109 242.18 19.3856 243.439 19.7762L243.291 20.2537C244.553 20.6451 245.808 21.0527 247.055 21.4761L247.216 21.0026C248.468 21.4277 249.714 21.8688 250.951 22.3255L250.778 22.7946C252.017 23.2518 253.248 23.7248 254.472 24.2133L254.657 23.749C255.886 24.2396 257.106 24.7459 258.319 25.2675L258.121 25.7268C259.334 26.2484 260.538 26.7854 261.734 27.3375L261.943 26.8836C263.145 27.4383 264.337 28.0083 265.521 28.5933L265.3 29.0416C266.482 29.6259 267.656 30.2253 268.821 30.8394L269.054 30.3971C270.225 31.0142 271.386 31.6462 272.539 32.2928L272.294 32.7288C273.444 33.3742 274.584 34.0341 275.715 34.7085L275.971 34.279C277.108 34.9566 278.235 35.6487 279.352 36.355L279.085 36.7776C280.199 37.4821 281.303 38.2007 282.398 38.9333L282.676 38.5178C283.775 39.2539 284.865 40.0041 285.944 40.7679L285.655 41.176C286.73 41.9376 287.796 42.7129 288.85 43.5016L289.15 43.1012C290.209 43.8936 291.258 44.6996 292.296 45.5188L291.986 45.9113C293.02 46.7279 294.044 47.5578 295.056 48.4007L295.376 48.0165C296.393 48.8628 297.398 49.7221 298.392 50.5942L298.062 50.97C299.052 51.8394 300.031 52.7216 300.999 53.6162L301.338 53.2491C302.309 54.147 303.268 55.0574 304.215 55.9801L303.866 56.3382C304.81 57.2579 305.742 58.1898 306.662 59.1337L307.02 58.7848C307.943 59.7318 308.853 60.6908 309.751 61.6616L309.384 62.0011C310.278 62.9685 311.161 63.9476 312.03 64.9382L312.406 64.6083C313.278 65.602 314.137 66.6072 314.983 67.6237L314.599 67.9436C315.442 68.956 316.272 69.9796 317.089 71.0141L317.481 70.7043C318.3 71.7421 319.106 72.7908 319.899 73.8503L319.498 74.1498C320.287 75.2044 321.062 76.2697 321.824 77.3453L322.232 77.0564C322.996 78.1353 323.746 79.2247 324.482 80.3242L324.067 80.6023C324.799 81.6966 325.518 82.8009 326.222 83.9151L326.645 83.6479C327.351 84.765 328.043 85.8919 328.721 87.0285L328.292 87.2846C328.966 88.4156 329.626 89.5562 330.271 90.7061L330.707 90.4614C331.354 91.6135 331.986 92.775 332.603 93.9455L332.161 94.1787C332.775 95.3436 333.374 96.5175 333.958 97.7001L334.407 97.4786C334.992 98.6627 335.562 99.8554 336.116 101.057L335.662 101.266C336.215 102.462 336.752 103.666 337.273 104.878L337.732 104.681C338.254 105.893 338.76 107.114 339.251 108.343L338.787 108.528C339.275 109.752 339.748 110.983 340.205 112.222L340.674 112.049C341.131 113.286 341.572 114.531 341.997 115.784L341.524 115.945C341.947 117.192 342.355 118.447 342.746 119.709L343.224 119.561C343.614 120.82 343.989 122.087 344.347 123.36L343.866 123.495C344.223 124.763 344.564 126.037 344.888 127.318L345.373 127.196C345.696 128.474 346.004 129.758 346.295 131.049L345.807 131.159C346.096 132.443 346.369 133.734 346.626 135.03L347.116 134.933C347.372 136.226 347.612 137.525 347.834 138.83L347.341 138.915C347.563 140.212 347.768 141.514 347.956 142.822L348.451 142.751C348.638 144.056 348.809 145.366 348.963 146.682L348.467 146.74C348.62 148.046 348.756 149.357 348.875 150.674L349.373 150.628C349.493 151.941 349.595 153.259 349.681 154.582L349.182 154.614C349.266 155.926 349.334 157.242 349.385 158.563L349.885 158.543C349.936 159.861 349.97 161.182 349.987 162.508L349.487 162.515C349.496 163.175 349.5 163.837 349.5 164.5C349.5 165.163 349.496 165.825 349.487 166.485L349.987 166.492C349.97 167.818 349.936 169.139 349.885 170.457L349.385 170.437C349.334 171.758 349.266 173.074 349.182 174.386L349.681 174.418C349.595 175.741 349.493 177.058 349.373 178.371L348.876 178.326C348.756 179.642 348.62 180.954 348.467 182.26L348.963 182.318C348.809 183.633 348.638 184.944 348.451 186.249L347.956 186.178C347.768 187.486 347.563 188.788 347.341 190.085L347.834 190.169C347.612 191.474 347.372 192.774 347.116 194.067L346.626 193.97C346.369 195.266 346.096 196.557 345.807 197.841L346.295 197.951C346.004 199.242 345.696 200.526 345.373 201.804L344.888 201.682C344.564 202.962 344.223 204.237 343.866 205.505L344.347 205.64C343.989 206.913 343.614 208.18 343.224 209.439L342.746 209.291C342.355 210.553 341.947 211.808 341.524 213.055L341.997 213.216C341.572 214.468 341.131 215.714 340.674 216.951L340.205 216.778C339.748 218.017 339.275 219.248 338.787 220.472L339.251 220.657C338.76 221.886 338.254 223.106 337.732 224.319L337.273 224.121C336.752 225.334 336.215 226.538 335.662 227.734L336.116 227.943C335.562 229.145 334.992 230.337 334.407 231.521L333.958 231.3C333.374 232.482 332.775 233.656 332.161 234.821L332.603 235.054C331.986 236.225 331.354 237.386 330.707 238.539L330.271 238.294C329.626 239.444 328.966 240.584 328.292 241.715L328.721 241.971C328.043 243.108 327.351 244.235 326.645 245.352L326.222 245.085C325.518 246.199 324.799 247.303 324.067 248.398L324.482 248.676C323.746 249.775 322.996 250.865 322.232 251.944L321.824 251.655C321.062 252.73 320.287 253.796 319.498 254.85L319.899 255.15C319.106 256.209 318.3 257.258 317.481 258.296L317.089 257.986C316.272 259.02 315.442 260.044 314.599 261.056L314.983 261.376C314.137 262.393 313.278 263.398 312.406 264.392L312.03 264.062C311.161 265.052 310.278 266.031 309.384 266.999L309.751 267.338C308.853 268.309 307.943 269.268 307.02 270.215L306.662 269.866C305.742 270.81 304.81 271.742 303.866 272.662L304.215 273.02C303.268 273.943 302.309 274.853 301.338 275.751L300.999 275.384C300.032 276.278 299.052 277.161 298.062 278.03L298.392 278.406C297.398 279.278 296.393 280.137 295.376 280.983L295.056 280.599C294.044 281.442 293.02 282.272 291.986 283.089L292.296 283.481C291.258 284.3 290.209 285.106 289.15 285.899L288.85 285.498C287.796 286.287 286.73 287.062 285.655 287.824L285.944 288.232C284.865 288.996 283.775 289.746 282.676 290.482L282.398 290.067C281.303 290.799 280.199 291.518 279.085 292.222L279.352 292.645C278.235 293.351 277.108 294.043 275.971 294.721L275.715 294.292C274.584 294.966 273.444 295.626 272.294 296.271L272.539 296.707C271.386 297.354 270.225 297.986 269.055 298.603L268.821 298.161C267.656 298.775 266.483 299.374 265.3 299.958L265.521 300.407C264.337 300.992 263.145 301.562 261.943 302.116L261.734 301.662C260.538 302.215 259.334 302.752 258.122 303.273L258.319 303.732C257.107 304.254 255.886 304.76 254.657 305.251L254.472 304.787C253.248 305.275 252.017 305.748 250.778 306.205L250.951 306.674C249.714 307.131 248.469 307.572 247.216 307.997L247.055 307.524C245.808 307.947 244.553 308.355 243.291 308.746L243.439 309.224C242.18 309.614 240.913 309.989 239.64 310.347L239.505 309.866C238.237 310.223 236.963 310.564 235.682 310.888L235.804 311.373C234.526 311.696 233.242 312.004 231.951 312.295L231.841 311.807C230.557 312.096 229.266 312.369 227.97 312.626L228.067 313.116C226.774 313.372 225.475 313.612 224.17 313.834L224.085 313.341C222.788 313.563 221.486 313.768 220.178 313.956L220.249 314.451C218.944 314.638 217.634 314.809 216.318 314.963L216.26 314.467C214.954 314.62 213.643 314.756 212.326 314.875L212.372 315.373C211.059 315.493 209.741 315.595 208.418 315.681L208.386 315.182C207.074 315.266 205.758 315.334 204.437 315.385L204.457 315.885C203.139 315.936 201.818 315.97 200.492 315.987L200.485 315.487C199.825 315.496 199.163 315.5 198.5 315.5Z" stroke="#C80000" stroke-dasharray="4 4"/>
<path d="M197.621 285.216C264.79 285.216 319.241 230.771 319.241 163.608C319.241 96.4459 264.79 42 197.621 42C130.451 42 76 96.4459 76 163.608C76 230.771 130.451 285.216 197.621 285.216Z" fill="#EAEDF0"/>
<path d="M267.305 191.804C290.195 200.391 308.029 207.198 310.363 208.088C310.768 207.055 311.159 206.016 311.536 204.971C296.923 199.415 281.55 193.412 268.771 188.558C276.733 169.932 281.202 149.947 281.599 129.544C291.8 129.212 302.346 127.964 312.507 125.537C312.136 124.417 311.75 123.306 311.348 122.205C301.555 124.346 291.391 125.399 281.579 125.611C281.506 105.019 277.23 84.6605 269.013 65.7874C265.59 63.2809 262.039 60.9545 258.375 58.8175C257.423 58.3195 256.471 57.829 255.52 57.3463C258.661 59.0637 261.768 60.8584 264.749 62.8535C273.502 82.6334 277.925 104.063 277.721 125.7C258.278 125.628 239.09 121.85 220.987 114.872C236.663 80.2653 248.577 53.7196 248.591 53.6881H248.568L245.527 52.3857C235.166 75.0816 225.925 95.3215 217.589 113.569C198.429 105.654 180.863 94.3159 165.747 80.1079C180.508 64.4941 198.435 52.2321 218.322 44.1478C225.509 45.476 232.563 47.4474 239.398 50.0386C238.233 49.5405 237.057 49.0597 235.877 48.6074C227.713 45.8517 219.28 43.9721 210.72 43C205.856 45.0627 201.104 47.3845 196.487 49.9556C183.777 57.0849 172.147 65.9935 161.946 76.4126C155.177 69.6886 148.949 62.4385 143.32 54.73C142.225 55.2682 141.141 55.8206 140.067 56.3874C145.789 64.5387 152.177 72.1982 159.167 79.2864C144.382 95.1898 133.239 113.961 126.011 134.304L84.2447 118.429C83.9962 119.051 83.7535 119.675 83.5107 120.299C86.5465 122.211 102.645 128.794 124.894 137.522C118.404 157.181 115.547 177.863 116.464 198.55C104.837 198.786 93.2749 200.347 82 203.202C82.3808 204.318 82.7758 205.426 83.1852 206.525C94.1745 203.96 105.412 202.616 116.695 202.518C118.214 225.062 123.94 247.121 133.576 267.548C144.769 274.397 156.988 279.397 169.765 282.355C191.803 273.868 212.188 260.924 228.409 245.771C236.817 253.331 245.319 262.917 252.292 272.205C253.404 271.633 254.503 271.053 255.588 270.465C248.551 260.77 239.93 250.832 231.356 242.963C246.394 228.286 258.584 210.939 267.305 191.804ZM219.199 118.813C237.831 126.009 257.616 129.813 277.644 129.69C276.949 149.442 272.558 168.888 264.701 187.015L199.463 162.221C206.254 147.342 212.982 132.541 219.199 118.819V118.813ZM163.011 83.0934C178.332 97.7342 196.229 109.399 215.795 117.496L195.979 160.893L131.389 136.351C138.333 116.687 149.079 98.5892 163.011 83.0934ZM130.246 139.617C149.12 146.987 171.738 155.646 194.428 164.282L174.303 208.363C157.425 202.246 139.696 198.797 121.73 198.582C121.087 178.578 123.97 158.617 130.246 139.617ZM138.882 269.311C128.95 248.4 123.19 225.744 121.927 202.618C139.208 203.027 156.246 206.433 172.501 212.304L145.096 272.294C143.015 271.341 140.907 270.422 138.885 269.311H138.882ZM165.918 280.188C159.35 278.414 153.007 275.938 146.821 273.081C148.82 271.077 160.781 246.074 175.899 213.478C193.937 220.452 210.658 230.454 225.345 243.055C208.185 259.251 187.986 271.869 165.921 280.177L165.918 280.188ZM228.272 240.195C213.333 227.102 196.227 216.725 177.724 209.533C184.133 195.694 191.018 180.701 197.906 165.619C221.09 174.426 244.17 183.122 263.225 190.284C254.673 208.894 242.833 225.8 228.275 240.184L228.272 240.195Z" fill="#F5F6F9"/>
<mask id="mask0_6511:33528" style="mask-type:alpha" maskUnits="userSpaceOnUse" x="47" y="13" width="303" height="303">
<path d="M198.5 316C282.171 316 350 248.171 350 164.5C350 80.8289 282.171 13 198.5 13C114.829 13 47 80.8289 47 164.5C47 248.171 114.829 316 198.5 316Z" fill="#C4C4C4"/>
</mask>
<g mask="url(#mask0_6511:33528)">
<circle cx="149.448" cy="175.666" r="16.8246" fill="#960020"/>
<path d="M178.624 225.603C178.624 221.687 177.852 217.81 176.354 214.193C174.856 210.575 172.659 207.289 169.891 204.52C167.122 201.751 163.835 199.555 160.218 198.057C156.6 196.558 152.723 195.787 148.808 195.787C144.892 195.787 141.015 196.558 137.398 198.057C133.781 199.555 130.494 201.751 127.725 204.52C124.956 207.289 122.76 210.575 121.262 214.193C119.763 217.81 118.992 221.687 118.992 225.603L148.808 225.603H178.624Z" fill="#960020"/>
<circle cx="247.942" cy="175.666" r="16.8246" fill="#960020"/>
<path d="M277.12 225.603C277.12 221.687 276.348 217.81 274.85 214.193C273.352 210.575 271.156 207.289 268.387 204.52C265.618 201.751 262.331 199.555 258.714 198.057C255.097 196.558 251.219 195.787 247.304 195.787C243.389 195.787 239.511 196.558 235.894 198.057C232.277 199.555 228.99 201.751 226.221 204.52C223.452 207.289 221.256 210.575 219.758 214.193C218.259 217.81 217.488 221.687 217.488 225.603L247.304 225.603H277.12Z" fill="#960020"/>
<circle cx="101.419" cy="171.886" r="32.2823" fill="#C80000"/>
<path d="M157.403 266.108C157.403 258.595 155.923 251.155 153.048 244.215C150.173 237.274 145.959 230.967 140.646 225.655C135.334 220.342 129.027 216.128 122.086 213.253C115.146 210.378 107.706 208.898 100.193 208.898C92.6807 208.898 85.2414 210.378 78.3005 213.253C71.3596 216.128 65.0529 220.342 59.7405 225.655C54.4282 230.967 50.2142 237.274 47.3392 244.215C44.4641 251.155 42.9844 258.595 42.9844 266.108L82.5 300L157.403 303.811V266.108Z" fill="#C80000"/>
<circle cx="296.288" cy="171.886" r="32.2823" fill="#C80000"/>
<path d="M352.272 266.108C352.272 258.595 350.792 251.155 347.917 244.215C345.042 237.274 340.828 230.967 335.516 225.655C330.203 220.342 323.897 216.128 316.956 213.253C310.015 210.378 302.575 208.898 295.063 208.898C287.55 208.898 280.111 210.378 273.17 213.253C266.229 216.128 259.922 220.342 254.61 225.655C249.297 230.967 245.083 237.274 242.208 244.215C239.333 251.155 237.854 258.595 237.854 266.108L237.854 305.147L316.956 307.52L352.272 266.108Z" fill="#C80000"/>
<circle cx="197.959" cy="151.08" r="40.0797" fill="#FF0000"/>
<path d="M269.213 265.96C269.213 256.603 267.37 247.337 263.789 238.693C260.208 230.048 254.96 222.193 248.343 215.577C241.727 208.96 233.872 203.712 225.227 200.131C216.582 196.55 207.317 194.707 197.96 194.707C188.603 194.707 179.337 196.55 170.693 200.131C162.048 203.712 154.193 208.96 147.577 215.577C140.96 222.193 135.712 230.048 132.131 238.693C128.55 247.337 126.707 256.603 126.707 265.96L126.707 314.501L197.96 324L269.213 314.501V265.96Z" fill="#FF0000"/>
</g>
<path d="M293.044 302.261C293.172 301.937 293.09 301.561 292.826 301.329L285.275 294.679C286.02 290.054 286.038 285.249 285.248 280.494L292.746 273.818C293.012 273.573 293.095 273.215 292.954 272.878L288.298 261.751C288.167 261.429 287.833 261.222 287.481 261.244L277.459 261.874C274.623 257.958 271.215 254.602 267.389 251.873L267.96 241.839C267.978 241.481 267.782 241.16 267.449 241.018L256.287 236.437C255.963 236.31 255.587 236.391 255.355 236.655L248.705 244.206C244.081 243.461 239.276 243.442 234.521 244.232L227.844 236.734C227.6 236.467 227.242 236.385 226.905 236.526L215.778 241.182C215.456 241.312 215.249 241.646 215.271 241.998L215.901 252.021C211.986 254.856 208.63 258.264 205.901 262.091L195.867 261.519C195.51 261.501 195.188 261.697 195.046 262.03L190.466 273.192C190.339 273.516 190.42 273.892 190.684 274.124L198.235 280.774C197.491 285.399 197.472 290.203 198.262 294.959L190.764 301.635C190.498 301.88 190.415 302.238 190.556 302.574L195.212 313.702C195.343 314.024 195.677 314.23 196.029 314.209L206.051 313.579C208.887 317.495 212.295 320.851 216.121 323.58L215.551 333.614C215.533 333.972 215.728 334.293 216.061 334.435L227.224 339.016C227.547 339.143 227.924 339.062 228.155 338.797L234.805 331.247C239.43 331.992 244.234 332.01 248.989 331.22L255.666 338.719C255.901 338.971 256.268 339.068 256.605 338.927L267.732 334.271C268.054 334.14 268.261 333.807 268.239 333.454L267.609 323.432C271.524 320.597 274.881 317.189 277.609 313.362L287.643 313.934C288.001 313.952 288.322 313.756 288.464 313.423L293.044 302.261Z" fill="#EAEDF0"/>
<path d="M243.578 299.706C236.968 300.69 230.778 296.122 229.795 289.511C229.321 286.313 230.112 283.102 232.034 280.511C233.97 277.91 236.775 276.212 239.989 275.728C246.599 274.744 252.788 279.312 253.772 285.923C254.678 291.938 250.962 297.597 245.318 299.31C244.753 299.496 244.173 299.629 243.578 299.706ZM234.311 282.191C232.828 284.184 232.221 286.644 232.596 289.089C233.354 294.148 238.098 297.661 243.156 296.904C248.214 296.147 251.727 291.403 250.97 286.345C250.213 281.286 245.469 277.773 240.411 278.53C239.959 278.597 239.513 278.704 239.062 278.835C237.16 279.406 235.513 280.581 234.311 282.191Z" fill="#D1D5D9"/>
<path d="M250.225 316.385C251.205 316.095 252.183 315.739 253.131 315.339C253.397 315.235 253.656 315.119 253.899 315.01C253.941 314.991 253.983 314.973 254.024 314.954L254.026 314.954C255.495 314.29 256.897 313.496 258.236 312.614L258.239 312.613L258.239 312.613L258.239 312.613L258.239 312.613L258.239 312.613L258.239 312.612L258.239 312.612L258.239 312.612L258.239 312.612L258.24 312.612L258.24 312.612L258.24 312.612L258.24 312.612L258.24 312.612L258.24 312.612L258.24 312.612L258.24 312.612L258.24 312.612L258.24 312.612L258.24 312.612L258.241 312.612L258.241 312.612L258.241 312.611L258.241 312.611L258.241 312.611L258.241 312.611L258.241 312.611L258.241 312.611L258.241 312.611L258.241 312.611L258.241 312.611L258.241 312.611L258.242 312.611L258.242 312.611L258.242 312.611L258.242 312.611L258.242 312.611L258.242 312.611L258.242 312.611L258.242 312.61L258.242 312.61L258.242 312.61L258.242 312.61L258.243 312.61L258.243 312.61L258.243 312.61L258.243 312.61L258.243 312.61L258.243 312.61L258.243 312.61L258.243 312.61L258.243 312.61L258.243 312.61L258.243 312.61L258.243 312.61L258.244 312.61L258.244 312.609L258.244 312.609L258.244 312.609L258.244 312.609L258.244 312.609L258.244 312.609L258.244 312.609L258.244 312.609L258.244 312.609L258.244 312.609L258.245 312.609L258.245 312.609L258.245 312.609L258.245 312.609L258.245 312.609L258.245 312.609L258.245 312.608L258.245 312.608L258.245 312.608L258.245 312.608L258.245 312.608L258.246 312.608L258.246 312.608L258.246 312.608L258.246 312.608L258.246 312.608L258.246 312.608L258.246 312.608L258.246 312.608L258.246 312.608L258.246 312.608L258.246 312.608L258.247 312.608L258.247 312.607L258.247 312.607L258.247 312.607L258.247 312.607L258.247 312.607L258.247 312.607L258.247 312.607L258.247 312.607L258.247 312.607L258.247 312.607L258.247 312.607L258.248 312.607L258.248 312.607L258.248 312.607L258.248 312.607L258.248 312.607L258.248 312.607L258.248 312.606L258.248 312.606L258.248 312.606L258.248 312.606L258.248 312.606L258.249 312.606L258.249 312.606L258.249 312.606L258.249 312.606L258.249 312.606L258.249 312.606L258.249 312.606L258.249 312.606L258.249 312.606L258.249 312.606L258.249 312.606L258.25 312.605L258.25 312.605L258.25 312.605L258.25 312.605L258.25 312.605L258.25 312.605L258.25 312.605L258.25 312.605L258.25 312.605L258.25 312.605L258.251 312.605L258.251 312.605L258.251 312.605L258.251 312.605L258.251 312.605L258.251 312.605L258.251 312.604L258.251 312.604L258.251 312.604L258.251 312.604L258.251 312.604L258.252 312.604L258.252 312.604L258.252 312.604L258.252 312.604L258.252 312.604L258.252 312.604L258.252 312.604L258.252 312.604L258.252 312.604L258.252 312.604L258.252 312.604L258.253 312.603L258.253 312.603L258.253 312.603L258.253 312.603L258.253 312.603L258.253 312.603L258.253 312.603L258.253 312.603L258.253 312.603L258.253 312.603L258.254 312.603L258.254 312.603L258.254 312.603L258.254 312.603L258.254 312.603L258.254 312.602L258.254 312.602L258.254 312.602L258.254 312.602L258.254 312.602L258.254 312.602L258.255 312.602L258.255 312.602L258.255 312.602L258.255 312.602L258.255 312.602L258.255 312.602L258.255 312.602L258.255 312.602L258.255 312.602L258.255 312.601L258.256 312.601L258.256 312.601L258.256 312.601L258.256 312.601L258.256 312.601L258.256 312.601L258.256 312.601L258.256 312.601L258.256 312.601L258.256 312.601L258.257 312.601L258.257 312.601L258.257 312.601L258.257 312.601L258.257 312.6L258.257 312.6L258.257 312.6L258.257 312.6L258.257 312.6L258.257 312.6L258.258 312.6L258.258 312.6L258.258 312.6L258.258 312.6L258.258 312.6L258.258 312.6L258.258 312.6L258.258 312.6L258.258 312.6L258.258 312.599L258.259 312.599L258.259 312.599L258.259 312.599L258.259 312.599L258.259 312.599L258.259 312.599L258.259 312.599L258.259 312.599L258.259 312.599L258.259 312.599L258.26 312.599L258.26 312.599L258.26 312.599L258.26 312.598L258.26 312.598L258.26 312.598L258.26 312.598L258.26 312.598L258.26 312.598L258.261 312.598L258.261 312.598L258.261 312.598L258.261 312.598L258.261 312.598L258.261 312.598L258.261 312.598L258.261 312.598L258.261 312.598L258.261 312.597L258.262 312.597L258.262 312.597L258.262 312.597L258.262 312.597L258.262 312.597L258.262 312.597L258.262 312.597L258.262 312.597L258.262 312.597L258.263 312.597L258.263 312.597L258.263 312.597L258.263 312.596L258.263 312.596L258.263 312.596L258.263 312.596L258.263 312.596L258.263 312.596L258.264 312.596L258.264 312.596L258.264 312.596L258.264 312.596L258.264 312.596L258.264 312.596L258.264 312.596L258.264 312.596L258.264 312.595L258.265 312.595L258.265 312.595L258.265 312.595L258.265 312.595L258.265 312.595L258.265 312.595L258.265 312.595L258.265 312.595L258.265 312.595L258.266 312.595L258.266 312.595L258.266 312.595L258.266 312.594L258.266 312.594L258.266 312.594L258.266 312.594L258.266 312.594L258.266 312.594L258.267 312.594L258.267 312.594L258.267 312.594L258.267 312.594L258.267 312.594L258.267 312.594L258.267 312.594L258.267 312.593L258.267 312.593L258.268 312.593L258.268 312.593L258.268 312.593L258.268 312.593L258.268 312.593L258.268 312.593L258.268 312.593L258.268 312.593L258.269 312.593L258.269 312.593L258.269 312.593L258.269 312.592L258.269 312.592L258.269 312.592L258.269 312.592L258.269 312.592L258.269 312.592L258.27 312.592L258.27 312.592L258.27 312.592L258.27 312.592L258.27 312.592L258.27 312.592L258.27 312.591L258.27 312.591L258.271 312.591L258.271 312.591L258.271 312.591L258.271 312.591L258.271 312.591L258.271 312.591L258.271 312.591L258.271 312.591L258.272 312.591L258.272 312.591L258.272 312.59L258.272 312.59L258.272 312.59L258.272 312.59L258.272 312.59L258.272 312.59L258.273 312.59L258.273 312.59L258.273 312.59L258.273 312.59L258.273 312.59L258.273 312.59L258.273 312.589L258.273 312.589L258.274 312.589L258.274 312.589L258.274 312.589L258.274 312.589L258.274 312.589L258.274 312.589L258.274 312.589L258.274 312.589L258.275 312.589L258.275 312.589L258.275 312.588L258.275 312.588L258.275 312.588L258.275 312.588L258.275 312.588L258.275 312.588L258.276 312.588L258.276 312.588L258.276 312.588L258.276 312.588L258.276 312.588L258.276 312.587L258.276 312.587L258.277 312.587L258.277 312.587L258.277 312.587L258.277 312.587L258.277 312.587L258.277 312.587L258.277 312.587L258.277 312.587L258.278 312.587L258.278 312.586L258.278 312.586L258.278 312.586L258.278 312.586L258.278 312.586L258.278 312.586L258.279 312.586L258.279 312.586L258.279 312.586L258.279 312.586L258.279 312.586L258.279 312.585L258.279 312.585L258.28 312.585L258.28 312.585L258.28 312.585L258.28 312.585L258.28 312.585L258.28 312.585L258.28 312.585L258.28 312.585L258.281 312.585L258.281 312.584L258.281 312.584L258.281 312.584L258.281 312.584L258.281 312.584L258.281 312.584L258.282 312.584L258.282 312.584L258.282 312.584L258.282 312.584L258.282 312.583L258.282 312.583L258.282 312.583L258.283 312.583L258.283 312.583L258.283 312.583L258.283 312.583L258.283 312.583L258.283 312.583L258.283 312.583L258.284 312.582L258.284 312.582L258.284 312.582L258.284 312.582L258.284 312.582L258.284 312.582L258.285 312.582L258.285 312.582L258.285 312.582L258.285 312.582L258.285 312.582L258.285 312.581L258.285 312.581L258.286 312.581L258.286 312.581L258.286 312.581L258.286 312.581L258.286 312.581L258.286 312.581L258.286 312.581L258.287 312.58L258.287 312.58L258.287 312.58L258.287 312.58L258.287 312.58L258.287 312.58L258.288 312.58L258.288 312.58L258.288 312.58L258.288 312.58L258.288 312.579L258.288 312.579L258.288 312.579L258.289 312.579L258.289 312.579L258.289 312.579L258.289 312.579L258.289 312.579L258.289 312.579L258.29 312.579L258.29 312.578L258.29 312.578L258.29 312.578L258.29 312.578L258.29 312.578L258.29 312.578L258.291 312.578L258.291 312.578L258.291 312.578L258.291 312.577L258.291 312.577L258.291 312.577L258.292 312.577L258.292 312.577L258.292 312.577L258.292 312.577L258.292 312.577L258.292 312.577L258.293 312.576L258.293 312.576L258.293 312.576L258.293 312.576L258.293 312.576L258.293 312.576L258.294 312.576L258.294 312.576L258.294 312.576L258.294 312.575L258.294 312.575L258.294 312.575L258.295 312.575L258.295 312.575L258.295 312.575L258.295 312.575L258.295 312.575L258.295 312.575L258.296 312.574L258.296 312.574L258.296 312.574L258.296 312.574L258.296 312.574L258.296 312.574L258.297 312.574L258.297 312.574L258.297 312.574L258.297 312.573L258.297 312.573L258.297 312.573L258.298 312.573L258.298 312.573L258.298 312.573L258.298 312.573L258.298 312.573L258.299 312.572L258.299 312.572L258.299 312.572L258.299 312.572L258.3 312.572L258.3 312.571L258.3 312.571L258.3 312.571L258.301 312.571L258.301 312.571L258.301 312.571L258.302 312.57L258.302 312.57L258.302 312.57L258.302 312.57L258.303 312.57L258.303 312.57L258.303 312.569L258.303 312.569L258.304 312.569L258.304 312.569L258.304 312.569L258.304 312.568L258.305 312.568L258.305 312.568L258.305 312.568L258.306 312.568L258.306 312.568L258.306 312.567L258.306 312.567L258.307 312.567L258.307 312.567L258.307 312.567L258.307 312.566L258.308 312.566L258.308 312.566L258.308 312.566L258.309 312.566L258.309 312.566L258.309 312.565L258.309 312.565L258.31 312.565L258.31 312.565L258.31 312.565L258.31 312.564L258.311 312.564L258.311 312.564L258.311 312.564L258.312 312.564L258.312 312.563L258.312 312.563L258.312 312.563L258.313 312.563L258.313 312.563L258.313 312.563L258.313 312.562L258.314 312.562L258.314 312.562L258.314 312.562L258.315 312.562L258.315 312.561L258.315 312.561L258.315 312.561L258.316 312.561L258.316 312.561L258.316 312.56L258.317 312.56L258.317 312.56L258.317 312.56L258.317 312.56L258.318 312.56L258.318 312.559L258.318 312.559L258.319 312.559L258.319 312.559L258.319 312.559L258.319 312.558L258.32 312.558L258.32 312.558L258.32 312.558L258.321 312.558L258.321 312.557L258.321 312.557L258.321 312.557L258.322 312.557L258.322 312.557L258.322 312.556L258.323 312.556L258.323 312.556L258.323 312.556L258.323 312.556L258.324 312.555L258.324 312.555L258.324 312.555L258.325 312.555L258.325 312.555L258.325 312.555L258.325 312.554L258.326 312.554L258.326 312.554L258.326 312.554L258.327 312.554L258.327 312.553L258.327 312.553L258.327 312.553L258.328 312.553L258.328 312.553L258.328 312.552L258.329 312.552L258.329 312.552L258.329 312.552L258.329 312.552L258.33 312.551L258.33 312.551L258.33 312.551L258.331 312.551L258.331 312.551L258.331 312.55L258.331 312.55L258.332 312.55L258.332 312.55L258.332 312.55L258.333 312.549L258.333 312.549L258.333 312.549L258.334 312.549L258.334 312.549L258.334 312.548L258.334 312.548L258.335 312.548L258.335 312.548L258.335 312.548L258.336 312.547L258.336 312.547L258.336 312.547L258.336 312.547L258.337 312.547L258.337 312.546L258.337 312.546L258.338 312.546L258.338 312.546L258.338 312.546L258.339 312.545L258.339 312.545L258.339 312.545L258.339 312.545L258.34 312.545L258.34 312.544L258.34 312.544L258.341 312.544L258.341 312.544L258.341 312.544L258.342 312.543L258.342 312.543L258.342 312.543L258.342 312.543L258.343 312.543L258.343 312.542L258.343 312.542L258.344 312.542L258.344 312.542L258.344 312.542L258.344 312.541L258.345 312.541L258.345 312.541L258.345 312.541L258.346 312.541L258.346 312.54L258.346 312.54L258.347 312.54L258.347 312.54L258.347 312.54L258.347 312.539L258.348 312.539L258.348 312.539L258.348 312.539L258.349 312.539L258.349 312.538L258.349 312.538L258.35 312.538L258.35 312.538L258.35 312.538L258.35 312.537L258.351 312.537L258.351 312.537L258.351 312.537L258.352 312.537L258.352 312.536L258.352 312.536L258.353 312.536L258.353 312.536L258.353 312.536L258.353 312.535L258.354 312.535L258.354 312.535L258.354 312.535L258.355 312.535L258.355 312.534L258.355 312.534L258.356 312.534L258.356 312.534L258.356 312.534L258.357 312.533L258.357 312.533L258.357 312.533L258.357 312.533L258.358 312.533L258.358 312.532L258.358 312.532L258.359 312.532L258.359 312.532L258.359 312.531L258.36 312.531L258.36 312.531L258.36 312.531L258.36 312.531L258.361 312.53L258.361 312.53L258.361 312.53L258.362 312.53L258.362 312.53L258.362 312.529L258.363 312.529L258.363 312.529L258.363 312.529L258.363 312.529L258.364 312.528L258.364 312.528L258.364 312.528L258.365 312.528L258.365 312.528L258.365 312.527L258.366 312.527L258.366 312.527L258.366 312.527L258.367 312.527L258.367 312.526L258.367 312.526L258.367 312.526L258.368 312.526L258.368 312.526L258.368 312.525L258.369 312.525L258.369 312.525L258.369 312.525L258.37 312.525L258.37 312.524L258.37 312.524L258.37 312.524L258.371 312.524L258.371 312.524L258.371 312.523L258.372 312.523L258.372 312.523L258.372 312.523L258.373 312.522L258.373 312.522L258.373 312.522L258.374 312.522L258.374 312.522L258.374 312.521L258.374 312.521L258.375 312.521L258.375 312.521L258.375 312.521L258.376 312.52L258.376 312.52L258.376 312.52L258.377 312.52L258.377 312.52L258.377 312.519L258.377 312.519L258.378 312.519L258.378 312.519L258.378 312.519L258.379 312.518L258.379 312.518L258.379 312.518L258.38 312.518L258.38 312.518L258.38 312.517L258.381 312.517L258.381 312.517L258.381 312.517L258.381 312.517L258.382 312.516L258.382 312.516L258.382 312.516L258.383 312.516L258.383 312.516L258.383 312.515L258.384 312.515L258.384 312.515L258.384 312.515L258.384 312.514L258.385 312.514L258.385 312.514L258.385 312.514L258.386 312.514L258.386 312.513L258.386 312.513L258.387 312.513L258.387 312.513L258.387 312.513L258.387 312.512L258.388 312.512L258.388 312.512L258.388 312.512L258.389 312.512L258.389 312.511L258.389 312.511L258.39 312.511L258.39 312.511L258.39 312.511L258.391 312.51L258.391 312.51L258.391 312.51L258.391 312.51L258.392 312.51L258.392 312.509L258.392 312.509L258.393 312.509L258.393 312.509L258.393 312.509L258.394 312.508L258.394 312.508L258.394 312.508L258.394 312.508L258.395 312.508L258.395 312.507L258.395 312.507L258.396 312.507L258.396 312.507L258.396 312.507L258.397 312.506L258.397 312.506L258.397 312.506L258.397 312.506L258.398 312.506L258.398 312.505L258.398 312.505L258.399 312.505L258.399 312.505L258.399 312.505L258.4 312.504L258.4 312.504L258.4 312.504L258.4 312.504L258.401 312.504L258.401 312.503L258.401 312.503L258.402 312.503L258.402 312.503L258.402 312.503L258.403 312.502L258.403 312.502L258.403 312.502L258.403 312.502L258.404 312.502L258.404 312.501L258.404 312.501L258.405 312.501L258.405 312.501L258.405 312.501L258.405 312.5L258.406 312.5L258.406 312.5L258.406 312.5L258.407 312.5L258.407 312.499L258.407 312.499L258.408 312.499L258.408 312.499L258.408 312.499L258.408 312.498L258.409 312.498L258.409 312.498L258.409 312.498L258.41 312.498L258.41 312.497L258.41 312.497L258.41 312.497L258.411 312.497L258.411 312.497L258.411 312.496L258.412 312.496L258.412 312.496L258.412 312.496L258.413 312.496L258.413 312.495L258.413 312.495L258.413 312.495L258.414 312.495L258.414 312.495L258.414 312.494L258.415 312.494L258.415 312.494L258.415 312.494L258.415 312.494L258.416 312.493L258.416 312.493L258.416 312.493L258.417 312.493L258.417 312.493L258.417 312.492L258.417 312.492L258.418 312.492L258.418 312.492L258.418 312.492L258.419 312.491L258.419 312.491L258.419 312.491L258.419 312.491L258.42 312.491L258.42 312.49L258.42 312.49L258.421 312.49L258.421 312.49L258.421 312.49L258.422 312.489L258.422 312.489L258.422 312.489L258.422 312.489L258.423 312.489L258.423 312.489L258.423 312.488L258.424 312.488L258.424 312.488L258.424 312.488L258.424 312.488L258.425 312.487L258.425 312.487L258.425 312.487L258.425 312.487L258.426 312.487L258.426 312.486L258.426 312.486L258.427 312.486L258.427 312.486L258.427 312.486L258.427 312.485L258.428 312.485L258.428 312.485L258.428 312.485L258.429 312.485L258.429 312.485L258.429 312.484L258.429 312.484L258.43 312.484L258.43 312.484L258.43 312.484L258.431 312.483L258.431 312.483L258.431 312.483L258.431 312.483L258.432 312.483L258.432 312.482L258.432 312.482L258.432 312.482L258.433 312.482L258.433 312.482L258.433 312.482L258.434 312.481L258.434 312.481L258.434 312.481L258.434 312.481L258.435 312.481L258.435 312.48L258.435 312.48L258.436 312.48L258.436 312.48L258.436 312.48L258.436 312.479L258.437 312.479L258.437 312.479L258.437 312.479L258.437 312.479L258.438 312.479L258.438 312.478L258.438 312.478L258.439 312.478L258.439 312.478L258.439 312.478L258.439 312.477L258.44 312.477L258.44 312.477L258.44 312.477L258.44 312.477L258.441 312.477L258.441 312.476L258.441 312.476L258.441 312.476L258.442 312.476L258.442 312.476L258.442 312.475L258.443 312.475L258.443 312.475L258.443 312.475L258.443 312.475L258.444 312.475L258.444 312.474L258.444 312.474L258.444 312.474L258.445 312.474L258.445 312.474L258.445 312.474L258.445 312.473L258.446 312.473L258.446 312.473L258.446 312.473L258.446 312.473L258.447 312.472L258.448 312.472L258.448 312.471L258.449 312.471L258.45 312.471L258.45 312.47L258.451 312.47L258.451 312.469L258.452 312.469L258.453 312.469L258.453 312.468L258.454 312.468L258.454 312.467L258.455 312.467L258.456 312.467L258.456 312.466L258.457 312.466L258.457 312.465L258.458 312.465L258.459 312.464L258.459 312.464L258.46 312.464L258.46 312.463L258.461 312.463L258.462 312.462L258.462 312.462L258.463 312.462L258.463 312.461L258.464 312.461L258.465 312.46L258.465 312.46L258.466 312.46L258.466 312.459L258.467 312.459L258.468 312.458L258.468 312.458L258.469 312.458L258.469 312.457L258.47 312.457L258.471 312.456L258.471 312.456L258.472 312.456L258.472 312.455L258.473 312.455L258.474 312.454L258.474 312.454L258.475 312.454L258.475 312.453L258.476 312.453L258.477 312.452L258.477 312.452L258.478 312.452L258.478 312.451L258.479 312.451L258.479 312.45L258.48 312.45L258.481 312.45L258.481 312.449L258.482 312.449L258.482 312.448L258.483 312.448L258.484 312.448L258.484 312.447L258.485 312.447L258.485 312.446L258.486 312.446L258.487 312.446L258.487 312.445L258.488 312.445L258.488 312.444L258.489 312.444L258.489 312.444L258.49 312.443L258.491 312.443L258.491 312.442L258.492 312.442L258.492 312.442L258.493 312.441L258.494 312.441L258.494 312.44L258.495 312.44L258.495 312.44L258.496 312.439L258.497 312.439L258.497 312.439L258.498 312.438L258.498 312.438L258.499 312.437L258.499 312.437L258.5 312.437L258.501 312.436L258.501 312.436L258.502 312.435L258.502 312.435L258.503 312.435L258.504 312.434L258.504 312.434L258.505 312.433L258.505 312.433L258.506 312.433L258.506 312.432L258.507 312.432L258.508 312.431L258.508 312.431L258.509 312.431L258.509 312.43L258.51 312.43L258.51 312.429L258.511 312.429L258.512 312.429L258.512 312.428L258.513 312.428L258.513 312.428L258.514 312.427L258.515 312.427L258.515 312.426L258.516 312.426L258.516 312.426L258.517 312.425L258.517 312.425L258.518 312.424L258.519 312.424L258.519 312.424L258.52 312.423L258.52 312.423L258.521 312.422L258.521 312.422L258.522 312.422L258.523 312.421L258.523 312.421L258.524 312.421L258.524 312.42L258.525 312.42L258.525 312.419L258.526 312.419L258.527 312.419L258.527 312.418L258.528 312.418L258.528 312.417L258.529 312.417L258.53 312.417L258.53 312.416L258.531 312.416L258.531 312.415L258.532 312.415L258.532 312.415L258.533 312.414L258.534 312.414L258.534 312.414L258.535 312.413L258.535 312.413L258.536 312.412L258.536 312.412L258.537 312.412L258.538 312.411L258.538 312.411L258.539 312.41L258.539 312.41L258.54 312.41L258.54 312.409L258.541 312.409L258.542 312.409L258.542 312.408L258.543 312.408L258.543 312.407L258.544 312.407L258.544 312.407L258.545 312.406L258.546 312.406L258.546 312.405L258.547 312.405L258.547 312.405L258.548 312.404L258.548 312.404L258.549 312.404L258.55 312.403L258.55 312.403L258.551 312.402L258.551 312.402L258.552 312.402L258.552 312.401L258.553 312.401L258.553 312.4L258.554 312.4L258.555 312.4L258.555 312.399L258.556 312.399L258.556 312.399L258.557 312.398L258.557 312.398L258.558 312.397L258.559 312.397L258.559 312.397L258.56 312.396L258.56 312.396L258.561 312.395L258.561 312.395L258.562 312.395L258.563 312.394L258.563 312.394L258.564 312.394L258.564 312.393L258.565 312.393L258.565 312.392L258.566 312.392L258.567 312.392L258.567 312.391L258.568 312.391L258.568 312.391L258.569 312.39L258.569 312.39L258.57 312.389L258.571 312.389L258.571 312.389L258.572 312.388L258.572 312.388L258.573 312.387L258.573 312.387L258.574 312.387L258.574 312.386L258.575 312.386L258.576 312.386L258.576 312.385L258.577 312.385L258.577 312.384L258.578 312.384L258.578 312.384L258.579 312.383L258.58 312.383L258.58 312.382L258.581 312.382L258.581 312.382L258.582 312.381L258.582 312.381L258.583 312.381L258.584 312.38L258.584 312.38L258.585 312.379L258.585 312.379L258.586 312.379L258.586 312.378L258.587 312.378L258.587 312.378L258.588 312.377L258.589 312.377L258.589 312.376L258.59 312.376L258.59 312.376L258.591 312.375L258.591 312.375L258.592 312.374L258.593 312.374L258.593 312.374L258.594 312.373L258.594 312.373L258.595 312.373L258.595 312.372L258.596 312.372L258.597 312.371L258.597 312.371L258.598 312.371L258.598 312.37L258.599 312.37L258.599 312.37L258.6 312.369L258.6 312.369L258.601 312.368L258.602 312.368L258.602 312.368L258.603 312.367L258.603 312.367L258.604 312.366L258.604 312.366L258.605 312.366L258.606 312.365L258.606 312.365L258.607 312.365L258.607 312.364L258.608 312.364L258.608 312.363L258.609 312.363L258.61 312.363L258.61 312.362L258.611 312.362L258.611 312.362L258.612 312.361L258.612 312.361L258.613 312.36L258.613 312.36L258.614 312.36L258.615 312.359L258.615 312.359L258.616 312.358L258.616 312.358L258.617 312.358L258.617 312.357L258.618 312.357L258.619 312.357L258.619 312.356L258.62 312.356L258.62 312.355L258.621 312.355L258.621 312.355L258.622 312.354L258.623 312.354L258.623 312.354L258.624 312.353L258.624 312.353L258.625 312.352L258.625 312.352L258.626 312.352L258.627 312.351L258.627 312.351L258.628 312.35L258.628 312.35L258.629 312.35L258.629 312.349L258.63 312.349L258.63 312.349L258.631 312.348L258.632 312.348L258.632 312.347L258.633 312.347L258.633 312.347L258.634 312.346L258.634 312.346L258.635 312.345L258.636 312.345L258.636 312.345L258.637 312.344L258.637 312.344L258.638 312.344L258.638 312.343L258.639 312.343L258.64 312.342L258.64 312.342L258.641 312.342L258.641 312.341L258.642 312.341L258.642 312.34L258.643 312.34L258.644 312.34L258.644 312.339L258.645 312.339L258.645 312.339L258.646 312.338L258.646 312.338L258.647 312.337L258.648 312.337L258.648 312.337L258.649 312.336L258.649 312.336L258.65 312.335L258.65 312.335L258.651 312.335L258.652 312.334L258.652 312.334L258.653 312.334L258.653 312.333L258.654 312.333L258.654 312.332L258.655 312.332L258.656 312.332L258.656 312.331L258.657 312.331L258.657 312.33L258.658 312.33L258.658 312.33L258.659 312.329L258.66 312.329L258.66 312.329L258.661 312.328L258.661 312.328L258.662 312.327L258.662 312.327L258.663 312.327L258.664 312.326L258.664 312.326L258.665 312.325L258.665 312.325L258.666 312.325L258.666 312.324L258.667 312.324L258.668 312.323L258.668 312.323L258.669 312.323L258.669 312.322L258.67 312.322L258.67 312.322L258.671 312.321L258.672 312.321L258.672 312.32L258.673 312.32L258.673 312.32L258.674 312.319L258.675 312.319L258.675 312.318L258.676 312.318L258.676 312.318L258.677 312.317L258.677 312.317L258.678 312.316L258.679 312.316L258.679 312.316L258.68 312.315L258.68 312.315L258.681 312.315L258.681 312.314L258.682 312.314L258.683 312.313L258.683 312.313L258.684 312.313L258.684 312.312L258.685 312.312L258.686 312.311L258.686 312.311L258.687 312.311L258.687 312.31L258.688 312.31L258.688 312.309L258.689 312.309L258.69 312.309L258.69 312.308L258.691 312.308L258.691 312.307L258.692 312.307L258.693 312.307L258.693 312.306L258.694 312.306L258.694 312.305L258.695 312.305L258.695 312.305L258.696 312.304L258.697 312.304L258.697 312.304L258.698 312.303L258.698 312.303L258.699 312.302L258.7 312.302L258.7 312.302L258.701 312.301L258.701 312.301L258.702 312.3L258.703 312.3L258.703 312.3L258.704 312.299L258.704 312.299L258.705 312.298L258.705 312.298L258.706 312.298L258.707 312.297L258.707 312.297L258.708 312.296L258.708 312.296L258.709 312.296L258.71 312.295L258.71 312.295L258.711 312.294L258.711 312.294L258.712 312.294L258.713 312.293L258.713 312.293L258.714 312.292L258.714 312.292L258.715 312.292L258.716 312.291L258.716 312.291L258.717 312.29L258.717 312.29L258.718 312.29L258.719 312.289L258.719 312.289L258.72 312.288L258.72 312.288L258.721 312.288L258.721 312.287L258.722 312.287L258.723 312.286L258.723 312.286L258.724 312.286L258.724 312.285L258.725 312.285L258.726 312.284L258.726 312.284L258.727 312.284L258.727 312.283L258.728 312.283L258.729 312.282L258.729 312.282L258.73 312.281L258.73 312.281L258.731 312.281L258.732 312.28L258.732 312.28L258.733 312.279L258.733 312.279L258.734 312.279L258.735 312.278L258.735 312.278L258.736 312.277L258.737 312.277L258.737 312.277L258.738 312.276L258.738 312.276L258.739 312.275L258.74 312.275L258.74 312.275L258.741 312.274L258.741 312.274L258.742 312.273L258.743 312.273L258.743 312.273C259.111 312.024 259.225 311.588 259.112 311.208L259.11 311.201L259.107 311.194L259.104 311.186C259.081 311.122 259.047 311.027 258.989 310.942C258.687 310.494 258.092 310.403 257.658 310.696L257.655 310.699C256.029 311.838 254.258 312.797 252.407 313.575C243.214 317.422 233.092 315.991 225.462 310.675C221.22 307.716 217.734 303.563 215.586 298.443C215.211 297.538 214.877 296.631 214.607 295.724L214.607 295.723C212.728 289.545 213.037 282.962 215.528 276.916L215.528 276.916C218.388 269.959 223.784 264.543 230.71 261.647C245.032 255.667 261.549 262.456 267.521 276.763C267.885 277.653 268.21 278.546 268.48 279.453L268.48 279.455C269.682 283.392 269.985 287.55 269.398 291.625C269.371 291.774 269.395 291.93 269.417 292.032L269.42 292.044L269.424 292.056C269.529 292.381 269.803 292.665 270.197 292.724C270.723 292.808 271.212 292.446 271.283 291.906C271.91 287.544 271.576 283.113 270.302 278.901C270.011 277.92 269.66 276.98 269.276 276.026L269.276 276.026L269.275 276.023C262.886 260.742 245.24 253.49 229.959 259.879L229.959 259.879C222.56 262.976 216.795 268.759 213.737 276.197L213.737 276.197C211.09 282.662 210.753 289.681 212.755 296.297C213.046 297.277 213.402 298.256 213.802 299.205C216.9 306.605 222.683 312.37 230.121 315.427L230.122 315.428C236.601 318.065 243.634 318.393 250.225 316.385ZM250.225 316.385C250.226 316.385 250.226 316.385 250.226 316.385L250.153 316.146L250.224 316.386C250.225 316.386 250.225 316.385 250.225 316.385Z" fill="#D1D5D9" stroke="#D1D5D9" stroke-width="0.5"/>
<path d="M192.535 315.981C192.62 315.765 192.565 315.513 192.389 315.358L187.345 310.916C187.842 307.826 187.854 304.617 187.326 301.44L192.335 296.98C192.513 296.816 192.568 296.577 192.474 296.352L189.364 288.919C189.276 288.704 189.053 288.566 188.818 288.58L182.123 289.001C180.229 286.385 177.952 284.143 175.396 282.32L175.777 275.617C175.789 275.378 175.659 275.163 175.436 275.068L167.979 272.008C167.763 271.923 167.511 271.978 167.357 272.154L162.915 277.198C159.825 276.701 156.615 276.688 153.439 277.216L148.979 272.207C148.815 272.029 148.576 271.974 148.351 272.068L140.918 275.178C140.703 275.265 140.565 275.488 140.579 275.724L141 282.419C138.385 284.313 136.142 286.59 134.32 289.146L127.617 288.764C127.378 288.752 127.163 288.883 127.068 289.105L124.009 296.562C123.924 296.778 123.978 297.03 124.154 297.185L129.198 301.627C128.701 304.717 128.689 307.926 129.217 311.103L124.208 315.563C124.03 315.726 123.975 315.965 124.069 316.19L127.179 323.624C127.267 323.839 127.49 323.977 127.725 323.963L134.42 323.542C136.314 326.158 138.591 328.4 141.147 330.223L140.766 336.926C140.754 337.165 140.884 337.38 141.107 337.475L148.564 340.535C148.78 340.62 149.032 340.565 149.186 340.389L153.629 335.345C156.718 335.842 159.928 335.855 163.104 335.327L167.565 340.336C167.721 340.504 167.967 340.569 168.192 340.475L175.625 337.365C175.84 337.278 175.978 337.055 175.964 336.819L175.543 330.124C178.158 328.23 180.401 325.953 182.224 323.397L188.926 323.779C189.165 323.791 189.38 323.66 189.475 323.438L192.535 315.981Z" fill="#EAEDF0"/>
<path d="M159.49 314.273C155.073 314.93 150.939 311.879 150.282 307.463C149.965 305.326 150.494 303.181 151.777 301.45C153.071 299.712 154.945 298.578 157.092 298.255C161.508 297.598 165.642 300.649 166.3 305.065C166.905 309.084 164.422 312.864 160.652 314.008C160.275 314.133 159.887 314.221 159.49 314.273ZM153.299 302.573C152.308 303.904 151.902 305.548 152.153 307.181C152.659 310.56 155.828 312.907 159.207 312.401C162.587 311.896 164.933 308.727 164.428 305.347C163.922 301.968 160.753 299.621 157.374 300.127C157.072 300.172 156.774 300.243 156.473 300.331C155.202 300.712 154.102 301.497 153.299 302.573Z" fill="#D1D5D9"/>
<path d="M166.502 324.536L166.503 324.535C167.489 324.09 168.43 323.557 169.328 322.966L169.33 322.965L169.33 322.965L169.33 322.965L169.33 322.965L169.33 322.965L169.33 322.964L169.33 322.964L169.33 322.964L169.331 322.964L169.331 322.964L169.331 322.964L169.331 322.964L169.331 322.964L169.331 322.964L169.331 322.964L169.331 322.964L169.331 322.964L169.331 322.964L169.331 322.964L169.331 322.964L169.331 322.964L169.331 322.964L169.331 322.964L169.331 322.964L169.331 322.964L169.332 322.964L169.332 322.964L169.332 322.964L169.332 322.964L169.332 322.964L169.332 322.963L169.332 322.963L169.332 322.963L169.332 322.963L169.332 322.963L169.332 322.963L169.332 322.963L169.332 322.963L169.332 322.963L169.332 322.963L169.332 322.963L169.332 322.963L169.333 322.963L169.333 322.963L169.333 322.963L169.333 322.963L169.333 322.963L169.333 322.963L169.333 322.963L169.333 322.963L169.333 322.963L169.333 322.963L169.333 322.963L169.333 322.963L169.333 322.963L169.333 322.962L169.333 322.962L169.333 322.962L169.333 322.962L169.334 322.962L169.334 322.962L169.334 322.962L169.334 322.962L169.334 322.962L169.334 322.962L169.334 322.962L169.334 322.962L169.334 322.962L169.334 322.962L169.334 322.962L169.334 322.962L169.334 322.962L169.334 322.962L169.334 322.962L169.334 322.962L169.334 322.962L169.335 322.962L169.335 322.962L169.335 322.962L169.335 322.962L169.335 322.962L169.335 322.961L169.335 322.961L169.335 322.961L169.335 322.961L169.335 322.961L169.335 322.961L169.335 322.961L169.335 322.961L169.335 322.961L169.335 322.961L169.335 322.961L169.335 322.961L169.336 322.961L169.336 322.961L169.336 322.961L169.336 322.961L169.336 322.961L169.336 322.961L169.336 322.961L169.336 322.961L169.336 322.961L169.336 322.961L169.336 322.961L169.336 322.961L169.336 322.96L169.336 322.96L169.336 322.96L169.336 322.96L169.336 322.96L169.337 322.96L169.337 322.96L169.337 322.96L169.337 322.96L169.337 322.96L169.337 322.96L169.337 322.96L169.337 322.96L169.337 322.96L169.337 322.96L169.337 322.96L169.337 322.96L169.337 322.96L169.337 322.96L169.337 322.96L169.337 322.96L169.338 322.96L169.338 322.96L169.338 322.96L169.338 322.96L169.338 322.959L169.338 322.959L169.338 322.959L169.338 322.959L169.338 322.959L169.338 322.959L169.338 322.959L169.338 322.959L169.338 322.959L169.338 322.959L169.338 322.959L169.338 322.959L169.339 322.959L169.339 322.959L169.339 322.959L169.339 322.959L169.339 322.959L169.339 322.959L169.339 322.959L169.339 322.959L169.339 322.959L169.339 322.959L169.339 322.959L169.339 322.958L169.339 322.958L169.339 322.958L169.339 322.958L169.339 322.958L169.34 322.958L169.34 322.958L169.34 322.958L169.34 322.958L169.34 322.958L169.34 322.958L169.34 322.958L169.34 322.958L169.34 322.958L169.34 322.958L169.34 322.958L169.34 322.958L169.34 322.958L169.34 322.958L169.34 322.958L169.341 322.958L169.341 322.958L169.341 322.958L169.341 322.957L169.341 322.957L169.341 322.957L169.341 322.957L169.341 322.957L169.341 322.957L169.341 322.957L169.341 322.957L169.341 322.957L169.341 322.957L169.341 322.957L169.341 322.957L169.341 322.957L169.342 322.957L169.342 322.957L169.342 322.957L169.342 322.957L169.342 322.957L169.342 322.957L169.342 322.957L169.342 322.957L169.342 322.957L169.342 322.957L169.342 322.956L169.342 322.956L169.342 322.956L169.342 322.956L169.342 322.956L169.343 322.956L169.343 322.956L169.343 322.956L169.343 322.956L169.343 322.956L169.343 322.956L169.343 322.956L169.343 322.956L169.343 322.956L169.343 322.956L169.343 322.956L169.343 322.956L169.343 322.956L169.343 322.956L169.343 322.956L169.344 322.956L169.344 322.956L169.344 322.955L169.344 322.955L169.344 322.955L169.344 322.955L169.344 322.955L169.344 322.955L169.344 322.955L169.344 322.955L169.344 322.955L169.344 322.955L169.344 322.955L169.344 322.955L169.345 322.955L169.345 322.955L169.345 322.955L169.345 322.955L169.345 322.955L169.345 322.955L169.345 322.955L169.345 322.955L169.345 322.955L169.345 322.954L169.345 322.954L169.345 322.954L169.345 322.954L169.345 322.954L169.346 322.954L169.346 322.954L169.346 322.954L169.346 322.954L169.346 322.954L169.346 322.954L169.346 322.954L169.346 322.954L169.346 322.954L169.346 322.954L169.346 322.954L169.346 322.954L169.346 322.954L169.346 322.954L169.347 322.954L169.347 322.954L169.347 322.953L169.347 322.953L169.347 322.953L169.347 322.953L169.347 322.953L169.347 322.953L169.347 322.953L169.347 322.953L169.347 322.953L169.347 322.953L169.347 322.953L169.348 322.953L169.348 322.953L169.348 322.953L169.348 322.953L169.348 322.953L169.348 322.953L169.348 322.953L169.348 322.953L169.348 322.952L169.348 322.952L169.348 322.952L169.348 322.952L169.348 322.952L169.348 322.952L169.349 322.952L169.349 322.952L169.349 322.952L169.349 322.952L169.349 322.952L169.349 322.952L169.349 322.952L169.349 322.952L169.349 322.952L169.349 322.952L169.349 322.952L169.349 322.952L169.349 322.952L169.35 322.952L169.35 322.951L169.35 322.951L169.35 322.951L169.35 322.951L169.35 322.951L169.35 322.951L169.35 322.951L169.35 322.951L169.35 322.951L169.35 322.951L169.35 322.951L169.351 322.951L169.351 322.951L169.351 322.951L169.351 322.951L169.351 322.951L169.351 322.951L169.351 322.951L169.351 322.95L169.351 322.95L169.351 322.95L169.351 322.95L169.351 322.95L169.351 322.95L169.352 322.95L169.352 322.95L169.352 322.95L169.352 322.95L169.352 322.95L169.352 322.95L169.352 322.95L169.352 322.95L169.352 322.95L169.352 322.95L169.352 322.95L169.352 322.95L169.353 322.949L169.353 322.949L169.353 322.949L169.353 322.949L169.353 322.949L169.353 322.949L169.353 322.949L169.353 322.949L169.353 322.949L169.353 322.949L169.353 322.949L169.353 322.949L169.354 322.949L169.354 322.949L169.354 322.949L169.354 322.949L169.354 322.949L169.354 322.949L169.354 322.948L169.354 322.948L169.354 322.948L169.354 322.948L169.354 322.948L169.355 322.948L169.355 322.948L169.355 322.948L169.355 322.948L169.355 322.948L169.355 322.948L169.355 322.948L169.355 322.948L169.355 322.948L169.355 322.948L169.355 322.948L169.355 322.948L169.356 322.947L169.356 322.947L169.356 322.947L169.356 322.947L169.356 322.947L169.356 322.947L169.356 322.947L169.356 322.947L169.356 322.947L169.356 322.947L169.356 322.947L169.357 322.947L169.357 322.947L169.357 322.947L169.357 322.947L169.357 322.947L169.357 322.946L169.357 322.946L169.357 322.946L169.357 322.946L169.357 322.946L169.357 322.946L169.358 322.946L169.358 322.946L169.358 322.946L169.358 322.946L169.358 322.946L169.358 322.946L169.358 322.946L169.358 322.946L169.358 322.946L169.358 322.946L169.358 322.945L169.359 322.945L169.359 322.945L169.359 322.945L169.359 322.945L169.359 322.945L169.359 322.945L169.359 322.945L169.359 322.945L169.359 322.945L169.359 322.945L169.36 322.945L169.36 322.945L169.36 322.945L169.36 322.945L169.36 322.945L169.36 322.944L169.36 322.944L169.36 322.944L169.36 322.944L169.36 322.944L169.361 322.944L169.361 322.944L169.361 322.944L169.361 322.944L169.361 322.944L169.361 322.944L169.361 322.944L169.361 322.944L169.361 322.944L169.361 322.944L169.362 322.943L169.362 322.943L169.362 322.943L169.362 322.943L169.362 322.943L169.362 322.943L169.362 322.943L169.362 322.943L169.362 322.943L169.362 322.943L169.363 322.943L169.363 322.943L169.363 322.943L169.363 322.943L169.363 322.942L169.363 322.942L169.363 322.942L169.363 322.942L169.363 322.942L169.363 322.942L169.364 322.942L169.364 322.942L169.364 322.942L169.364 322.942L169.364 322.942L169.364 322.942L169.364 322.942L169.364 322.942L169.364 322.942L169.365 322.941L169.365 322.941L169.365 322.941L169.365 322.941L169.365 322.941L169.365 322.941L169.365 322.941L169.365 322.941L169.365 322.941L169.365 322.941L169.366 322.941L169.366 322.941L169.366 322.941L169.366 322.94L169.366 322.94L169.366 322.94L169.366 322.94L169.366 322.94L169.366 322.94L169.367 322.94L169.367 322.94L169.367 322.94L169.367 322.94L169.367 322.94L169.367 322.94L169.367 322.94L169.367 322.94L169.367 322.939L169.368 322.939L169.368 322.939L169.368 322.939L169.368 322.939L169.368 322.939L169.368 322.939L169.368 322.939L169.368 322.939L169.368 322.939L169.369 322.939L169.369 322.939L169.369 322.939L169.369 322.938L169.369 322.938L169.369 322.938L169.369 322.938L169.369 322.938L169.369 322.938L169.37 322.938L169.37 322.938L169.37 322.938L169.37 322.938L169.37 322.938L169.37 322.937L169.371 322.937L169.371 322.937L169.371 322.937L169.371 322.937L169.371 322.937L169.371 322.937L169.372 322.937L169.372 322.936L169.372 322.936L169.372 322.936L169.372 322.936L169.373 322.936L169.373 322.936L169.373 322.936L169.373 322.936L169.373 322.936L169.373 322.935L169.374 322.935L169.374 322.935L169.374 322.935L169.374 322.935L169.374 322.935L169.374 322.935L169.375 322.935L169.375 322.934L169.375 322.934L169.375 322.934L169.375 322.934L169.376 322.934L169.376 322.934L169.376 322.934L169.376 322.934L169.376 322.933L169.376 322.933L169.377 322.933L169.377 322.933L169.377 322.933L169.377 322.933L169.377 322.933L169.378 322.933L169.378 322.932L169.378 322.932L169.378 322.932L169.378 322.932L169.379 322.932L169.379 322.932L169.379 322.932L169.379 322.932L169.379 322.931L169.379 322.931L169.38 322.931L169.38 322.931L169.38 322.931L169.38 322.931L169.38 322.931L169.381 322.931L169.381 322.93L169.381 322.93L169.381 322.93L169.381 322.93L169.381 322.93L169.382 322.93L169.382 322.93L169.382 322.93L169.382 322.929L169.382 322.929L169.383 322.929L169.383 322.929L169.383 322.929L169.383 322.929L169.383 322.929L169.384 322.929L169.384 322.928L169.384 322.928L169.384 322.928L169.384 322.928L169.384 322.928L169.385 322.928L169.385 322.928L169.385 322.928L169.385 322.927L169.385 322.927L169.386 322.927L169.386 322.927L169.386 322.927L169.386 322.927L169.386 322.927L169.387 322.927L169.387 322.926L169.387 322.926L169.387 322.926L169.387 322.926L169.388 322.926L169.388 322.926L169.388 322.926L169.388 322.926L169.388 322.925L169.389 322.925L169.389 322.925L169.389 322.925L169.389 322.925L169.389 322.925L169.389 322.925L169.39 322.924L169.39 322.924L169.39 322.924L169.39 322.924L169.39 322.924L169.391 322.924L169.391 322.924L169.391 322.924L169.391 322.923L169.391 322.923L169.392 322.923L169.392 322.923L169.392 322.923L169.392 322.923L169.392 322.923L169.393 322.922L169.393 322.922L169.393 322.922L169.393 322.922L169.393 322.922L169.394 322.922L169.394 322.922L169.394 322.922L169.394 322.921L169.394 322.921L169.395 322.921L169.395 322.921L169.395 322.921L169.395 322.921L169.395 322.921L169.396 322.921L169.396 322.92L169.396 322.92L169.396 322.92L169.396 322.92L169.397 322.92L169.397 322.92L169.397 322.92L169.397 322.919L169.397 322.919L169.398 322.919L169.398 322.919L169.398 322.919L169.398 322.919L169.398 322.919L169.398 322.919L169.399 322.918L169.399 322.918L169.399 322.918L169.399 322.918L169.399 322.918L169.4 322.918L169.4 322.918L169.4 322.917L169.4 322.917L169.4 322.917L169.401 322.917L169.401 322.917L169.401 322.917L169.401 322.917L169.401 322.916L169.402 322.916L169.402 322.916L169.402 322.916L169.402 322.916L169.402 322.916L169.403 322.916L169.403 322.916L169.403 322.915L169.403 322.915L169.403 322.915L169.404 322.915L169.404 322.915L169.404 322.915L169.404 322.915L169.404 322.914L169.405 322.914L169.405 322.914L169.405 322.914L169.405 322.914L169.405 322.914L169.406 322.914L169.406 322.914L169.406 322.913L169.406 322.913L169.407 322.913L169.407 322.913L169.407 322.913L169.407 322.913L169.407 322.913L169.408 322.912L169.408 322.912L169.408 322.912L169.408 322.912L169.408 322.912L169.409 322.912L169.409 322.912L169.409 322.911L169.409 322.911L169.409 322.911L169.41 322.911L169.41 322.911L169.41 322.911L169.41 322.911L169.41 322.911L169.411 322.91L169.411 322.91L169.411 322.91L169.411 322.91L169.411 322.91L169.412 322.91L169.412 322.91L169.412 322.909L169.412 322.909L169.412 322.909L169.413 322.909L169.413 322.909L169.413 322.909L169.413 322.909L169.413 322.908L169.414 322.908L169.414 322.908L169.414 322.908L169.414 322.908L169.414 322.908L169.415 322.908L169.415 322.908L169.415 322.907L169.415 322.907L169.415 322.907L169.416 322.907L169.416 322.907L169.416 322.907L169.416 322.907L169.416 322.906L169.417 322.906L169.417 322.906L169.417 322.906L169.417 322.906L169.417 322.906L169.418 322.906L169.418 322.905L169.418 322.905L169.418 322.905L169.418 322.905L169.419 322.905L169.419 322.905L169.419 322.905L169.419 322.904L169.419 322.904L169.42 322.904L169.42 322.904L169.42 322.904L169.42 322.904L169.42 322.904L169.421 322.904L169.421 322.903L169.421 322.903L169.421 322.903L169.422 322.903L169.422 322.903L169.422 322.903L169.422 322.903L169.422 322.902L169.423 322.902L169.423 322.902L169.423 322.902L169.423 322.902L169.423 322.902L169.424 322.902L169.424 322.901L169.424 322.901L169.424 322.901L169.424 322.901L169.425 322.901L169.425 322.901L169.425 322.901L169.425 322.901L169.425 322.9L169.426 322.9L169.426 322.9L169.426 322.9L169.426 322.9L169.426 322.9L169.427 322.9L169.427 322.899L169.427 322.899L169.427 322.899L169.427 322.899L169.428 322.899L169.428 322.899L169.428 322.899L169.428 322.898L169.428 322.898L169.429 322.898L169.429 322.898L169.429 322.898L169.429 322.898L169.429 322.898L169.43 322.898L169.43 322.897L169.43 322.897L169.43 322.897L169.43 322.897L169.431 322.897L169.431 322.897L169.431 322.897L169.431 322.896L169.431 322.896L169.432 322.896L169.432 322.896L169.432 322.896L169.432 322.896L169.432 322.896L169.433 322.895L169.433 322.895L169.433 322.895L169.433 322.895L169.433 322.895L169.434 322.895L169.434 322.895L169.434 322.895L169.434 322.894L169.434 322.894L169.435 322.894L169.435 322.894L169.435 322.894L169.435 322.894L169.435 322.894L169.436 322.893L169.436 322.893L169.436 322.893L169.436 322.893L169.436 322.893L169.437 322.893L169.437 322.893L169.437 322.893L169.437 322.892L169.437 322.892L169.438 322.892L169.438 322.892L169.438 322.892L169.438 322.892L169.438 322.892L169.439 322.891L169.439 322.891L169.439 322.891L169.439 322.891L169.439 322.891L169.44 322.891L169.44 322.891L169.44 322.89L169.44 322.89L169.44 322.89L169.441 322.89L169.441 322.89L169.441 322.89L169.441 322.89L169.441 322.89L169.442 322.889L169.442 322.889L169.442 322.889L169.442 322.889L169.442 322.889L169.443 322.889L169.443 322.889L169.443 322.888L169.443 322.888L169.443 322.888L169.444 322.888L169.444 322.888L169.444 322.888L169.444 322.888L169.444 322.888L169.445 322.887L169.445 322.887L169.445 322.887L169.445 322.887L169.445 322.887L169.446 322.887L169.446 322.887L169.446 322.886L169.446 322.886L169.446 322.886L169.447 322.886L169.447 322.886L169.447 322.886L169.447 322.886L169.447 322.886L169.448 322.885L169.448 322.885L169.448 322.885L169.448 322.885L169.448 322.885L169.448 322.885L169.449 322.885L169.449 322.885L169.449 322.884L169.449 322.884L169.449 322.884L169.45 322.884L169.45 322.884L169.45 322.884L169.45 322.884L169.45 322.883L169.451 322.883L169.451 322.883L169.451 322.883L169.451 322.883L169.451 322.883L169.452 322.883L169.452 322.883L169.452 322.882L169.452 322.882L169.452 322.882L169.453 322.882L169.453 322.882L169.453 322.882L169.453 322.882L169.453 322.882L169.453 322.881L169.454 322.881L169.454 322.881L169.454 322.881L169.454 322.881L169.454 322.881L169.455 322.881L169.455 322.881L169.455 322.88L169.455 322.88L169.455 322.88L169.456 322.88L169.456 322.88L169.456 322.88L169.456 322.88L169.456 322.88L169.456 322.879L169.457 322.879L169.457 322.879L169.457 322.879L169.457 322.879L169.457 322.879L169.458 322.879L169.458 322.879L169.458 322.878L169.458 322.878L169.458 322.878L169.459 322.878L169.459 322.878L169.459 322.878L169.459 322.878L169.459 322.878L169.459 322.877L169.46 322.877L169.46 322.877L169.46 322.877L169.46 322.877L169.46 322.877L169.461 322.877L169.461 322.877L169.461 322.876L169.461 322.876L169.461 322.876L169.461 322.876L169.462 322.876L169.462 322.876L169.462 322.876L169.462 322.876L169.462 322.875L169.463 322.875L169.463 322.875L169.463 322.875L169.463 322.875L169.463 322.875L169.463 322.875L169.464 322.875L169.464 322.874L169.464 322.874L169.464 322.874L169.464 322.874L169.465 322.874L169.465 322.874L169.465 322.874L169.465 322.874L169.465 322.873L169.465 322.873L169.466 322.873L169.466 322.873L169.466 322.873L169.466 322.873L169.466 322.873L169.467 322.873L169.467 322.872L169.467 322.872L169.467 322.872L169.467 322.872L169.467 322.872L169.468 322.872L169.468 322.872L169.468 322.872L169.468 322.872L169.468 322.871L169.468 322.871L169.469 322.871L169.469 322.871L169.469 322.871L169.47 322.871L169.47 322.87L169.47 322.87L169.471 322.87L169.471 322.869L169.472 322.869L169.472 322.869L169.472 322.869L169.473 322.868L169.473 322.868L169.474 322.868L169.474 322.868L169.474 322.867L169.475 322.867L169.475 322.867L169.476 322.866L169.476 322.866L169.477 322.866L169.477 322.866L169.477 322.865L169.478 322.865L169.478 322.865L169.479 322.865L169.479 322.864L169.479 322.864L169.48 322.864L169.48 322.863L169.481 322.863L169.481 322.863L169.481 322.863L169.482 322.862L169.482 322.862L169.483 322.862L169.483 322.862L169.483 322.861L169.484 322.861L169.484 322.861L169.485 322.86L169.485 322.86L169.485 322.86L169.486 322.86L169.486 322.859L169.487 322.859L169.487 322.859L169.487 322.859L169.488 322.858L169.488 322.858L169.488 322.858L169.489 322.858L169.489 322.857L169.49 322.857L169.49 322.857L169.49 322.856L169.491 322.856L169.491 322.856L169.492 322.856L169.492 322.855L169.492 322.855L169.493 322.855L169.493 322.855L169.494 322.854L169.494 322.854L169.494 322.854L169.495 322.854L169.495 322.853L169.496 322.853L169.496 322.853L169.496 322.852L169.497 322.852L169.497 322.852L169.498 322.852L169.498 322.851L169.498 322.851L169.499 322.851L169.499 322.851L169.5 322.85L169.5 322.85L169.5 322.85L169.501 322.85L169.501 322.849L169.501 322.849L169.502 322.849L169.502 322.849L169.503 322.848L169.503 322.848L169.503 322.848L169.504 322.847L169.504 322.847L169.505 322.847L169.505 322.847L169.505 322.846L169.506 322.846L169.506 322.846L169.507 322.846L169.507 322.845L169.507 322.845L169.508 322.845L169.508 322.845L169.508 322.844L169.509 322.844L169.509 322.844L169.51 322.844L169.51 322.843L169.51 322.843L169.511 322.843L169.511 322.842L169.512 322.842L169.512 322.842L169.512 322.842L169.513 322.841L169.513 322.841L169.514 322.841L169.514 322.841L169.514 322.84L169.515 322.84L169.515 322.84L169.515 322.84L169.516 322.839L169.516 322.839L169.517 322.839L169.517 322.839L169.517 322.838L169.518 322.838L169.518 322.838L169.519 322.838L169.519 322.837L169.519 322.837L169.52 322.837L169.52 322.837L169.52 322.836L169.521 322.836L169.521 322.836L169.522 322.835L169.522 322.835L169.522 322.835L169.523 322.835L169.523 322.834L169.524 322.834L169.524 322.834L169.524 322.834L169.525 322.833L169.525 322.833L169.525 322.833L169.526 322.833L169.526 322.832L169.527 322.832L169.527 322.832L169.527 322.832L169.528 322.831L169.528 322.831L169.529 322.831L169.529 322.831L169.529 322.83L169.53 322.83L169.53 322.83L169.53 322.83L169.531 322.829L169.531 322.829L169.532 322.829L169.532 322.828L169.532 322.828L169.533 322.828L169.533 322.828L169.533 322.827L169.534 322.827L169.534 322.827L169.535 322.827L169.535 322.826L169.535 322.826L169.536 322.826L169.536 322.826L169.537 322.825L169.537 322.825L169.537 322.825L169.538 322.825L169.538 322.824L169.538 322.824L169.539 322.824L169.539 322.824L169.54 322.823L169.54 322.823L169.54 322.823L169.541 322.823L169.541 322.822L169.541 322.822L169.542 322.822L169.542 322.822L169.543 322.821L169.543 322.821L169.543 322.821L169.544 322.821L169.544 322.82L169.544 322.82L169.545 322.82L169.545 322.82L169.546 322.819L169.546 322.819L169.546 322.819L169.547 322.819L169.547 322.818L169.548 322.818L169.548 322.818L169.548 322.817L169.549 322.817L169.549 322.817L169.549 322.817L169.55 322.816L169.55 322.816L169.551 322.816L169.551 322.816L169.551 322.815L169.552 322.815L169.552 322.815L169.552 322.815L169.553 322.814L169.553 322.814L169.554 322.814L169.554 322.814L169.554 322.813L169.555 322.813L169.555 322.813L169.555 322.813L169.556 322.812L169.556 322.812L169.557 322.812L169.557 322.812L169.557 322.811L169.558 322.811L169.558 322.811L169.558 322.811L169.559 322.81L169.559 322.81L169.56 322.81L169.56 322.81L169.56 322.809L169.561 322.809L169.561 322.809L169.562 322.809L169.562 322.808L169.562 322.808L169.563 322.808L169.563 322.808L169.563 322.807L169.564 322.807L169.564 322.807L169.565 322.807L169.565 322.806L169.565 322.806L169.566 322.806L169.566 322.805L169.566 322.805L169.567 322.805L169.567 322.805L169.568 322.804L169.568 322.804L169.568 322.804L169.569 322.804L169.569 322.803L169.569 322.803L169.57 322.803L169.57 322.803L169.571 322.802L169.571 322.802L169.571 322.802L169.572 322.802L169.572 322.801L169.572 322.801L169.573 322.801L169.573 322.801L169.574 322.8L169.574 322.8L169.574 322.8L169.575 322.8L169.575 322.799L169.575 322.799L169.576 322.799L169.576 322.799L169.577 322.798L169.577 322.798L169.577 322.798L169.578 322.798L169.578 322.797L169.578 322.797L169.579 322.797L169.579 322.797L169.58 322.796L169.58 322.796L169.58 322.796L169.581 322.796L169.581 322.795L169.582 322.795L169.582 322.795L169.582 322.795L169.583 322.794L169.583 322.794L169.583 322.794L169.584 322.794L169.584 322.793L169.585 322.793L169.585 322.793L169.585 322.793L169.586 322.792L169.586 322.792L169.586 322.792L169.587 322.791L169.587 322.791L169.588 322.791L169.588 322.791L169.588 322.79L169.589 322.79L169.589 322.79L169.589 322.79L169.59 322.789L169.59 322.789L169.591 322.789L169.591 322.789L169.591 322.788L169.592 322.788L169.592 322.788L169.593 322.788L169.593 322.787L169.593 322.787L169.594 322.787L169.594 322.787L169.594 322.786L169.595 322.786L169.595 322.786L169.596 322.786L169.596 322.785L169.596 322.785L169.597 322.785L169.597 322.785L169.597 322.784L169.598 322.784L169.598 322.784L169.599 322.784L169.599 322.783L169.599 322.783L169.6 322.783L169.6 322.783L169.6 322.782L169.601 322.782L169.601 322.782L169.602 322.781L169.602 322.781L169.602 322.781L169.603 322.781L169.603 322.78L169.604 322.78L169.604 322.78L169.604 322.78L169.605 322.779L169.605 322.779L169.605 322.779L169.606 322.779L169.606 322.778L169.607 322.778L169.607 322.778L169.607 322.778L169.608 322.777L169.608 322.777L169.608 322.777L169.609 322.777L169.609 322.776L169.61 322.776L169.61 322.776L169.61 322.776L169.611 322.775L169.611 322.775L169.612 322.775L169.612 322.775L169.612 322.774L169.613 322.774L169.613 322.774L169.613 322.774L169.614 322.773L169.614 322.773L169.615 322.773L169.615 322.772L169.615 322.772L169.616 322.772L169.616 322.772L169.617 322.771L169.617 322.771L169.617 322.771L169.618 322.771L169.618 322.77L169.618 322.77L169.619 322.77L169.619 322.77L169.62 322.769L169.62 322.769L169.62 322.769L169.621 322.769L169.621 322.768L169.622 322.768L169.622 322.768L169.622 322.768L169.623 322.767L169.623 322.767L169.623 322.767L169.624 322.766L169.624 322.766L169.625 322.766L169.625 322.766L169.625 322.765L169.626 322.765L169.626 322.765L169.627 322.765L169.627 322.764L169.627 322.764L169.628 322.764L169.628 322.764L169.629 322.763L169.629 322.763L169.629 322.763L169.63 322.763L169.63 322.762L169.63 322.762L169.631 322.762L169.631 322.762L169.632 322.761L169.632 322.761L169.632 322.761L169.633 322.76L169.633 322.76L169.634 322.76L169.634 322.76L169.634 322.759L169.635 322.759L169.635 322.759L169.636 322.759L169.636 322.758L169.636 322.758L169.637 322.758L169.637 322.758L169.638 322.757L169.638 322.757L169.638 322.757L169.639 322.756L169.639 322.756L169.639 322.756L169.64 322.756L169.64 322.755L169.641 322.755L169.641 322.755L169.641 322.755L169.642 322.754L169.642 322.754L169.643 322.754L169.643 322.754L169.643 322.753L169.644 322.753L169.644 322.753L169.645 322.753L169.645 322.752L169.645 322.752L169.646 322.752L169.646 322.751L169.647 322.751L169.647 322.751L169.647 322.751L169.648 322.75L169.648 322.75L169.649 322.75L169.649 322.75L169.649 322.749L169.65 322.749L169.65 322.749L169.651 322.748L169.651 322.748L169.651 322.748L169.652 322.748L169.652 322.747L169.653 322.747L169.653 322.747L169.653 322.747L169.654 322.746L169.654 322.746L169.655 322.746L169.655 322.746L169.655 322.745L169.656 322.745L169.656 322.745L169.657 322.744L169.657 322.744L169.657 322.744L169.658 322.744L169.658 322.743L169.659 322.743L169.659 322.743L169.659 322.743L169.66 322.742L169.66 322.742L169.661 322.742L169.661 322.741L169.661 322.741L169.662 322.741L169.662 322.741L169.663 322.74L169.663 322.74L169.663 322.74L169.664 322.74L169.664 322.739L169.665 322.739L169.665 322.739L169.665 322.738L169.666 322.738L169.666 322.738L169.667 322.738L169.667 322.737C169.947 322.549 170.031 322.218 169.946 321.934L169.944 321.927L169.942 321.92L169.939 321.913C169.924 321.871 169.898 321.799 169.854 321.733C169.625 321.394 169.175 321.327 168.849 321.547L168.846 321.549C167.765 322.307 166.588 322.944 165.356 323.462C159.242 326.021 152.51 325.069 147.435 321.533C144.614 319.565 142.295 316.803 140.866 313.398C140.617 312.796 140.395 312.192 140.216 311.59L140.215 311.589C138.966 307.48 139.171 303.102 140.828 299.081L140.828 299.081C142.73 294.453 146.319 290.852 150.926 288.926C160.451 284.948 171.436 289.463 175.408 298.979C175.65 299.571 175.866 300.165 176.046 300.768L176.046 300.77C176.845 303.387 177.047 306.152 176.657 308.862C176.636 308.978 176.655 309.094 176.67 309.165L176.673 309.177L176.677 309.189C176.756 309.431 176.961 309.646 177.259 309.692C177.657 309.755 178.026 309.481 178.08 309.074C178.5 306.149 178.276 303.176 177.422 300.351C177.226 299.692 176.991 299.062 176.734 298.424L176.734 298.424L176.733 298.421C172.447 288.17 160.61 283.306 150.36 287.591L150.36 287.591C145.396 289.669 141.529 293.548 139.478 298.537L139.478 298.538C137.703 302.874 137.476 307.582 138.82 312.02C139.015 312.678 139.254 313.335 139.522 313.971C141.6 318.934 145.479 322.802 150.468 324.853L150.469 324.853C154.815 326.622 159.533 326.842 163.955 325.495C164.612 325.3 165.268 325.062 165.903 324.794C166.082 324.724 166.257 324.646 166.418 324.573C166.447 324.561 166.475 324.548 166.502 324.536Z" fill="#D1D5D9" stroke="#D1D5D9" stroke-width="0.5"/>
</g>
<defs>
<clipPath id="clip0_6511:33528">
<rect width="396" height="360" fill="white"/>
</clipPath>
</defs>
</svg>
