<svg width="396" height="360" viewBox="0 0 396 360" fill="none" xmlns="http://www.w3.org/2000/svg">
<rect x="33.5" y="197.5" width="132" height="120" stroke="#C80000" stroke-dasharray="4 4"/>
<rect x="350.484" y="65" width="229.953" height="294.485" rx="8" transform="rotate(90 350.484 65)" fill="#FF0000"/>
<path d="M342.484 65C346.903 65 350.484 68.5817 350.484 73L350.484 91.3582L55.9994 91.3582L55.9994 73C55.9994 68.5817 59.5811 65 63.9994 65L342.484 65Z" fill="#C80000"/>
<circle cx="71.4515" cy="77.7249" r="5.45343" fill="white"/>
<circle cx="89.6292" cy="77.7249" r="5.45343" fill="white"/>
<circle cx="107.807" cy="77.7249" r="5.45343" fill="white"/>
<rect x="100" y="114" width="209" height="144.083" fill="#C80000"/>
<path d="M155.416 183.667L117.416 220.875V243.833H292.374V135.375L245.666 176.542L224.291 155.958L184.708 201.875L155.416 183.667Z" fill="#960020"/>
<path d="M117.416 220.875L155.416 183.667L184.708 201.875L224.291 155.958L245.666 176.542L292.374 135.375" stroke="white" stroke-width="1.58333"/>
<path d="M155.416 183.666V243.833" stroke="#FF0000" stroke-width="1.58333" stroke-dasharray="6.33 6.33"/>
<path d="M183.916 199.5L183.916 243.833" stroke="#FF0000" stroke-width="1.58333" stroke-dasharray="6.33 6.33"/>
<path d="M225.084 155.166L225.084 243.833" stroke="#FF0000" stroke-width="1.58333" stroke-dasharray="6.33 6.33"/>
<path d="M245.666 174.166L245.666 243.833" stroke="#FF0000" stroke-width="1.58333" stroke-dasharray="6.33 6.33"/>
<circle cx="183.916" cy="201.083" r="4.75" fill="#FF0000"/>
<circle cx="155.416" cy="183.666" r="4.75" fill="#FF0000"/>
<circle cx="225.084" cy="155.166" r="4.75" fill="#FF0000"/>
<circle cx="245.666" cy="175.75" r="4.75" fill="#FF0000"/>
<path d="M348.421 24.8443C334.633 17.391 318.79 14.6402 303.298 17.0095C287.805 19.3787 273.508 26.7387 262.578 37.9718C251.648 49.2049 244.682 63.6976 242.738 79.2496C240.793 94.8016 243.977 110.563 251.804 124.142C259.632 137.72 271.677 148.373 286.109 154.484C300.542 160.595 316.575 161.829 331.773 158C346.971 154.171 360.504 145.487 370.318 133.267C380.133 121.047 385.691 105.959 386.151 90.2923L362.457 89.5976C362.149 100.106 358.421 110.228 351.837 118.424C345.254 126.621 336.176 132.446 325.981 135.015C315.787 137.584 305.032 136.755 295.351 132.656C285.67 128.557 277.591 121.411 272.34 112.303C267.089 103.195 264.954 92.6223 266.258 82.1903C267.563 71.7583 272.235 62.0368 279.567 54.5017C286.898 46.9667 296.488 42.0298 306.881 40.4405C317.273 38.8513 327.9 40.6965 337.149 45.696L348.421 24.8443Z" fill="#960020"/>
<path d="M348.421 24.8443C335.894 18.0724 321.64 15.1673 307.462 16.4963C293.284 17.8254 279.818 23.3289 268.768 32.3108C257.718 41.2928 249.579 53.3499 245.381 66.9574C241.183 80.5648 241.115 95.1115 245.184 108.758C249.254 122.404 257.279 134.537 268.244 143.623C279.209 152.709 292.622 158.339 306.787 159.801C320.952 161.264 335.233 158.493 347.823 151.84C360.413 145.186 370.748 134.948 377.519 122.421L356.668 111.149C352.125 119.552 345.193 126.419 336.748 130.883C328.302 135.346 318.723 137.204 309.221 136.223C299.72 135.242 290.722 131.466 283.367 125.371C276.012 119.277 270.629 111.138 267.899 101.984C265.169 92.8302 265.215 83.0725 268.031 73.9448C270.847 64.8172 276.306 56.7295 283.719 50.7045C291.131 44.6795 300.164 40.9878 309.674 40.0963C319.185 39.2048 328.746 41.1535 337.149 45.696L348.421 24.8443Z" fill="#C80000"/>
<path d="M348.421 24.8443C337.303 18.834 324.798 15.8563 312.165 16.2103C299.531 16.5644 287.213 20.2377 276.449 26.8611C265.685 33.4846 256.854 42.8248 250.844 53.9429C244.834 65.061 241.856 77.5653 242.21 90.1989C242.564 102.833 246.237 115.151 252.861 125.915C259.484 136.679 268.824 145.51 279.942 151.52C291.061 157.53 303.565 160.508 316.199 160.154C328.832 159.8 341.15 156.126 351.914 149.503L339.492 129.315C332.272 133.758 324.009 136.222 315.535 136.46C307.06 136.697 298.672 134.7 291.214 130.668C283.757 126.637 277.491 120.713 273.048 113.492C268.606 106.272 266.142 98.0094 265.904 89.535C265.667 81.0605 267.664 72.6728 271.696 65.2149C275.727 57.7571 281.651 51.4918 288.871 47.0489C296.092 42.606 304.354 40.142 312.829 39.9045C321.303 39.667 329.691 41.6644 337.149 45.696L348.421 24.8443Z" fill="#F7C6C8"/>
<circle cx="315.182" cy="88.1816" r="43" fill="#EAEDF0"/>
<circle cx="315.682" cy="70.6816" r="12.5" fill="#FF0000"/>
<path d="M337.182 109.182C337.182 106.293 336.613 103.432 335.507 100.763C334.401 98.0934 332.781 95.6682 330.738 93.6253C328.695 91.5824 326.27 89.9619 323.601 88.8563C320.932 87.7507 318.071 87.1816 315.182 87.1816C312.293 87.1816 309.432 87.7507 306.763 88.8563C304.093 89.9619 301.668 91.5824 299.625 93.6253C297.582 95.6682 295.962 98.0934 294.856 100.763C293.751 103.432 293.182 106.293 293.182 109.182L315.182 109.182H337.182Z" fill="#FF0000"/>
</svg>
