<svg width="396" height="360" viewBox="0 0 396 360" fill="none" xmlns="http://www.w3.org/2000/svg">
<path d="M156 116L156 257" stroke="white" stroke-dasharray="4 4"/>
<rect x="341.484" y="55" width="229.953" height="294.485" rx="8" transform="rotate(90 341.484 55)" fill="#FF0000"/>
<path d="M333.484 55C337.903 55 341.484 58.5817 341.484 63L341.484 81.3582L46.9994 81.3582L46.9994 63C46.9994 58.5817 50.5811 55 54.9994 55L333.484 55Z" fill="#C80000"/>
<circle cx="62.4515" cy="67.7249" r="5.45343" fill="white"/>
<circle cx="80.6292" cy="67.7249" r="5.45343" fill="white"/>
<circle cx="98.8069" cy="67.7249" r="5.45343" fill="white"/>
<path d="M131.5 95.5V254" stroke="white"/>
<path d="M326 128L68 128" stroke="white"/>
<path d="M198 95.5V254" stroke="white"/>
<path d="M264 95.5V254" stroke="white"/>
<rect x="70" y="96" width="58" height="24" fill="#C80000"/>
<rect x="136" y="96" width="58" height="24" fill="#C80000"/>
<rect x="202" y="96" width="58" height="24" fill="#C80000"/>
<rect x="268" y="96" width="58" height="24" fill="#C80000"/>
<rect x="130" y="102" width="58" height="56" fill="#F7C6C8"/>
<path d="M168.331 129.844C168.298 129.443 167.889 129.096 167.196 128.817C167.949 128.401 168.366 127.955 168.331 127.518C168.224 126.196 164.039 125.454 158.983 125.862C153.927 126.27 149.915 127.673 150.022 128.997C150.054 129.398 150.463 129.746 151.157 130.024C150.403 130.44 149.986 130.886 150.022 131.323C150.054 131.724 150.463 132.072 151.157 132.35C150.403 132.766 149.986 133.212 150.022 133.649C150.054 134.05 150.463 134.398 151.157 134.677C150.403 135.093 149.986 135.538 150.022 135.975C150.069 136.56 150.915 137.032 152.28 137.34C152.262 137.817 152.274 138.294 152.314 138.769C152.512 141.207 155.251 143.118 158.874 143.118C162.497 143.118 165.632 140.512 165.668 138.067C165.679 137.534 165.655 137.001 165.597 136.471C167.33 135.892 168.386 135.184 168.331 134.498C168.298 134.096 167.889 133.749 167.196 133.47C167.949 133.054 168.366 132.609 168.331 132.172C168.298 131.77 167.889 131.423 167.196 131.144C167.949 130.727 168.366 130.282 168.331 129.844Z" fill="#960020"/>
<path d="M156.643 137.866C155.299 137.88 153.957 137.771 152.633 137.538C152.616 137.536 152.601 137.53 152.587 137.521C152.573 137.513 152.561 137.502 152.552 137.488C152.542 137.475 152.536 137.46 152.532 137.444C152.529 137.428 152.528 137.411 152.531 137.395C152.535 137.379 152.541 137.364 152.55 137.35C152.559 137.337 152.571 137.325 152.584 137.316C152.598 137.307 152.613 137.301 152.63 137.298C152.646 137.295 152.662 137.296 152.678 137.299C154.454 137.64 156.827 137.715 159.359 137.51C161.254 137.374 163.13 137.05 164.961 136.543C164.992 136.535 165.024 136.54 165.051 136.555C165.078 136.571 165.098 136.597 165.107 136.627C165.116 136.657 165.113 136.689 165.098 136.717C165.084 136.745 165.059 136.766 165.03 136.776C163.183 137.288 161.29 137.615 159.378 137.752C158.438 137.829 157.519 137.866 156.643 137.866Z" fill="#FF0000"/>
<path d="M156.667 135.536C154.716 135.536 152.973 135.351 151.743 135.001C151.727 134.998 151.712 134.99 151.699 134.981C151.686 134.971 151.675 134.959 151.667 134.944C151.659 134.93 151.653 134.915 151.651 134.898C151.649 134.882 151.651 134.866 151.655 134.85C151.659 134.834 151.667 134.819 151.677 134.807C151.688 134.794 151.7 134.783 151.715 134.776C151.729 134.768 151.745 134.763 151.761 134.762C151.778 134.761 151.794 134.762 151.81 134.767C153.562 135.268 156.384 135.422 159.358 135.182C162.299 134.945 165.043 134.347 166.697 133.583C166.711 133.577 166.727 133.573 166.743 133.572C166.759 133.572 166.775 133.574 166.79 133.58C166.804 133.585 166.818 133.594 166.83 133.605C166.842 133.615 166.851 133.628 166.858 133.643C166.864 133.657 166.868 133.673 166.869 133.689C166.869 133.705 166.867 133.721 166.861 133.736C166.856 133.751 166.847 133.765 166.837 133.776C166.826 133.788 166.813 133.797 166.798 133.804C165.12 134.579 162.346 135.184 159.378 135.424C158.451 135.5 157.538 135.536 156.667 135.536Z" fill="#FF0000"/>
<path d="M156.643 133.213C154.536 133.213 152.693 132.998 151.452 132.588C151.422 132.578 151.397 132.556 151.382 132.527C151.368 132.499 151.365 132.465 151.375 132.435C151.385 132.404 151.407 132.379 151.436 132.364C151.465 132.35 151.498 132.347 151.529 132.357C153.255 132.927 156.182 133.114 159.358 132.858C162.3 132.621 165.043 132.023 166.697 131.259C166.712 131.253 166.727 131.249 166.743 131.248C166.759 131.248 166.775 131.25 166.79 131.256C166.805 131.261 166.819 131.27 166.831 131.28C166.842 131.291 166.852 131.304 166.858 131.319C166.865 131.333 166.869 131.349 166.869 131.365C166.87 131.381 166.868 131.397 166.862 131.412C166.856 131.427 166.848 131.44 166.837 131.452C166.826 131.464 166.813 131.473 166.799 131.48C165.121 132.255 162.346 132.86 159.378 133.1C158.437 133.176 157.517 133.213 156.643 133.213Z" fill="#FF0000"/>
<path d="M156.659 130.887C155.192 130.908 153.727 130.775 152.287 130.489C152.256 130.482 152.229 130.462 152.212 130.435C152.195 130.408 152.189 130.375 152.196 130.344C152.203 130.313 152.222 130.286 152.249 130.268C152.276 130.251 152.308 130.245 152.34 130.252C154.116 130.647 156.675 130.749 159.358 130.533C162.274 130.298 165.004 129.706 166.66 128.952C166.689 128.939 166.723 128.938 166.753 128.949C166.783 128.96 166.807 128.983 166.821 129.013C166.834 129.042 166.835 129.075 166.824 129.106C166.813 129.136 166.79 129.16 166.76 129.174C165.08 129.939 162.32 130.539 159.378 130.776C158.449 130.85 157.533 130.887 156.659 130.887Z" fill="#FF0000"/>
<path d="M146.627 118.103C146.011 115.925 144.971 113.891 143.565 112.119C140.555 108.321 135.644 100.599 135.041 90.0584C134.161 74.7275 147.744 67.0516 160.138 68.0936C172.533 69.1357 184.763 78.374 183.424 92.6367C182.6 101.412 177.693 108.069 174.04 111.892C171.728 114.325 170.055 117.293 169.169 120.531C168.073 124.494 165.464 129.432 159.262 129.733C151.237 130.122 147.905 122.634 146.627 118.103Z" fill="white"/>
<path d="M161.313 126.676L165.649 98.4374C165.739 97.8539 166.026 97.4628 166.29 97.5624C166.554 97.6619 166.696 98.2164 166.606 98.8004C166.603 98.816 166.6 98.8352 166.598 98.8505L161.658 126.825C161.621 127.036 161.514 127.168 161.419 127.122C161.325 127.077 161.282 126.879 161.313 126.676Z" fill="#DFDFDF"/>
<path d="M156.812 126.898L152.475 98.662C152.386 98.0786 152.099 97.6874 151.835 97.787C151.571 97.8865 151.429 98.4413 151.519 99.025C151.522 99.0406 151.525 99.0598 151.527 99.0751L156.467 127.05C156.504 127.261 156.611 127.392 156.706 127.347C156.8 127.301 156.843 127.102 156.812 126.898Z" fill="#DFDFDF"/>
<path opacity="0.49" d="M165.619 96.0119C165.557 95.9238 165.466 95.8605 165.361 95.8334C165.257 95.8063 165.147 95.8171 165.049 95.8639L162.635 96.9934L161.797 94.6026C161.771 94.5355 161.732 94.4745 161.681 94.4235C161.631 94.3726 161.57 94.3328 161.503 94.3068C161.372 94.2501 161.226 94.242 161.09 94.2839C160.954 94.3259 160.837 94.4152 160.761 94.5357L160.757 94.5434L158.771 98.1682L156.929 93.0082L156.926 92.9998C156.875 92.8636 156.776 92.751 156.647 92.6837C156.498 92.6015 156.325 92.5745 156.158 92.6074C155.992 92.6402 155.842 92.7309 155.735 92.8633L152.958 96.6907C152.931 96.7282 152.912 96.771 152.902 96.8162C152.892 96.8615 152.892 96.9083 152.901 96.9537C152.91 96.999 152.929 97.042 152.956 97.0799C152.982 97.1177 153.016 97.1496 153.056 97.1736C153.146 97.2334 153.255 97.2597 153.363 97.2479C153.47 97.2362 153.571 97.1872 153.646 97.1093L156.091 94.3795L158.292 99.2883L158.293 99.292C158.333 99.3766 158.402 99.4442 158.487 99.4824C158.585 99.5298 158.697 99.5408 158.802 99.5135C158.908 99.4861 159 99.4222 159.063 99.3331L161.187 95.9213L161.986 97.6469L161.993 97.6622C161.999 97.6748 162.006 97.6871 162.013 97.6988C162.075 97.7869 162.166 97.8502 162.271 97.8773C162.375 97.9044 162.485 97.8936 162.582 97.8469L165.448 96.5061C165.495 96.4881 165.537 96.4602 165.571 96.4244C165.606 96.3886 165.632 96.3456 165.648 96.2986C165.664 96.2515 165.67 96.2015 165.665 96.152C165.66 96.1025 165.644 96.0547 165.619 96.0119Z" fill="#DFDFDF"/>
<rect x="211" y="137" width="53" height="11" rx="5.5" fill="#F5F8FA" fill-opacity="0.8"/>
<rect x="76" y="175" width="53" height="11" rx="5.5" fill="#F7C6C8"/>
<rect x="76" y="196" width="112" height="11" rx="5.5" fill="#F7C6C8"/>
<rect x="272" y="170" width="104" height="128" rx="8" fill="#D1D5D9"/>
<rect x="288" y="252" width="46.6215" height="10" rx="5" fill="#D1D5D9"/>
<rect x="288" y="272" width="68.9998" height="10" rx="5" fill="#D1D5D9"/>
<circle cx="323.5" cy="199.5" r="12.5" fill="#FF0000"/>
<path d="M345 238C345 235.111 344.431 232.25 343.325 229.581C342.22 226.912 340.599 224.487 338.556 222.444C336.513 220.401 334.088 218.78 331.419 217.675C328.75 216.569 325.889 216 323 216C320.111 216 317.25 216.569 314.581 217.675C311.912 218.78 309.487 220.401 307.444 222.444C305.401 224.487 303.78 226.912 302.675 229.581C301.569 232.25 301 235.111 301 238L323 238H345Z" fill="#FF0000"/>
<rect x="264" y="178" width="104" height="128" rx="8" fill="#EAEDF0"/>
<rect x="280" y="260" width="46.6215" height="10" rx="5" fill="#D1D5D9"/>
<rect x="280" y="280" width="68.9998" height="10" rx="5" fill="#D1D5D9"/>
<circle cx="315.5" cy="207.5" r="12.5" fill="#FF0000"/>
<path d="M337 246C337 243.111 336.431 240.25 335.325 237.581C334.22 234.912 332.599 232.487 330.556 230.444C328.513 228.401 326.088 226.78 323.419 225.675C320.75 224.569 317.889 224 315 224C312.111 224 309.25 224.569 306.581 225.675C303.912 226.78 301.487 228.401 299.444 230.444C297.401 232.487 295.78 234.912 294.675 237.581C293.569 240.25 293 243.111 293 246L315 246H337Z" fill="#FF0000"/>
<path d="M72.8638 223.837C72.8121 224.632 72.7086 225.412 72.5566 226.175L72.0663 226.077C71.9912 226.454 71.904 226.826 71.805 227.194C71.597 227.966 71.5612 228.785 71.6674 229.579L72.163 229.513C72.3642 231.017 73.1202 232.458 74.246 233.273L73.9528 233.678C74.6219 234.163 75.4183 234.458 76.3052 234.458H78.1421V233.958H81.8158V234.458H85.4895V233.958H89.1632V234.458H90.5V235.658H91V239.058H90.5V242.458H91V245.858H90.5V247.558C90.5 248.422 90.1573 249.221 89.5614 249.924L89.9429 250.247C88.7684 251.634 86.7754 252.589 84.7951 252.892L84.7195 252.398C83.7521 252.546 82.8045 252.527 81.9815 252.326C81.639 252.242 81.2926 252.169 80.9428 252.105L80.8536 252.597C80.1835 252.476 79.5001 252.393 78.8058 252.352L78.8354 251.853C78.4843 251.832 78.1306 251.822 77.7745 251.822C76.9764 251.822 76.1901 251.875 75.4192 251.977L75.4853 252.473C73.9411 252.679 72.4608 253.09 71.0717 253.679L70.8765 253.219C69.417 253.837 68.0559 254.646 66.8231 255.614L67.1319 256.008C65.9298 256.952 64.8529 258.052 63.9307 259.279L63.531 258.978C62.5927 260.226 61.8101 261.601 61.2127 263.074L61.676 263.262C61.11 264.657 60.715 266.142 60.5175 267.689L60.0216 267.626C59.9232 268.396 59.8725 269.182 59.8725 269.979C59.8725 270.776 59.9232 271.562 60.0216 272.332L60.5175 272.269C60.715 273.817 61.11 275.301 61.676 276.696L61.2127 276.884C61.8101 278.357 62.5927 279.732 63.531 280.98L63.9307 280.679C64.8529 281.906 65.9298 283.006 67.1319 283.95L66.8231 284.344C68.0559 285.312 69.417 286.121 70.8765 286.739L71.0717 286.279C72.4607 286.868 73.9411 287.279 75.4853 287.485L75.4192 287.981C76.1901 288.083 76.9764 288.136 77.7745 288.136C78.1306 288.136 78.4843 288.126 78.8354 288.105L78.8058 287.606C79.5001 287.565 80.1835 287.482 80.8536 287.361L80.9428 287.853C81.2926 287.789 81.639 287.716 81.9815 287.632C82.8045 287.431 83.7521 287.412 84.7195 287.56L84.7951 287.066C86.7754 287.369 88.7684 288.324 89.9429 289.711L89.5614 290.034C90.1573 290.737 90.5 291.536 90.5 292.4V294.1H91V297.5H90.5V300.9H91V304.3H90.5V305.5H88.862V306H84.5861V305.5H80.3102V306H76.0343V305.5H71.7584V306H67.4825V305.5H63.2066V306H58.9307V305.5H54.6548V306H50.3789V305.5H46.1029V306H41.827V305.5H37.5511V306H33.2752V305.5H31.1373C30.4215 305.5 29.7228 305.428 29.0475 305.292L28.9484 305.782C27.4803 305.485 26.1163 304.895 24.918 304.075L25.2004 303.663C24.043 302.871 23.0469 301.854 22.2735 300.673L21.8552 300.947C21.0633 299.738 20.4946 298.365 20.209 296.889L20.6999 296.794C20.5688 296.117 20.5 295.417 20.5 294.699V292.801H20V289.005H20.5V285.208H20V281.412H20.5V277.616H20V273.819H20.5V270.023H20V266.227H20.5V262.431H20V258.634H20.5V254.838H20V251.042H20.5V247.245H20V243.449H20.5V239.653H20V235.856H20.5V234.458H21.8368V233.958H25.5105V234.458H29.1842V233.958H32.8579V234.458H34.6948C35.5817 234.458 36.3781 234.163 37.0472 233.678L36.754 233.273C37.8798 232.458 38.6358 231.018 38.837 229.513L39.3326 229.579C39.4388 228.785 39.403 227.966 39.195 227.194C39.096 226.826 39.0088 226.454 38.9337 226.077L38.4434 226.175C38.2914 225.412 38.1879 224.632 38.1362 223.837L38.6352 223.804C38.6106 223.425 38.598 223.043 38.598 222.657C38.598 221.903 38.646 221.159 38.739 220.431L38.243 220.367C38.4405 218.82 38.8355 217.335 39.4015 215.94L39.8648 216.128C40.4294 214.737 41.169 213.437 42.0558 212.258L41.6562 211.957C42.5784 210.73 43.6553 209.63 44.8574 208.686L45.1662 209.079C46.3306 208.165 47.6155 207.401 48.9923 206.818L48.7971 206.357C50.1862 205.769 51.6666 205.357 53.2108 205.151L53.2768 205.647C54.0041 205.55 54.7462 205.5 55.5 205.5C56.2538 205.5 56.9959 205.55 57.7232 205.647L57.7892 205.151C59.3334 205.357 60.8138 205.769 62.2029 206.357L62.0077 206.818C63.3845 207.401 64.6694 208.165 65.8337 209.079L66.1426 208.686C67.3447 209.63 68.4216 210.73 69.3438 211.957L68.9442 212.257C69.831 213.437 70.5706 214.737 71.1352 216.128L71.5985 215.94C72.1645 217.335 72.5595 218.82 72.757 220.367L72.261 220.431C72.354 221.159 72.402 221.903 72.402 222.657C72.402 223.043 72.3894 223.425 72.3648 223.804L72.8638 223.837Z" stroke="#C80000" stroke-dasharray="4 4"/>
</svg>
