<svg width="396" height="360" viewBox="0 0 396 360" fill="none" xmlns="http://www.w3.org/2000/svg">
<path d="M260 212.05V208.017H260.5V206.5H261.956V206H265.868V206.5H269.779V206H273.691V206.5H277.603V206H281.515V206.5H285.426V206H289.338V206.5H293.25V206H297.162V206.5H301.074V206H304.985V206.5H308.897V206H312.809V206.5H316.721V206H320.632V206.5H324.544V206H328.456V206.5H332.368V206H336.279V206.5H340.191V206H344.103V206.5H348.015V206H351.926V206.5H355.838V206H359.75V206.5H363.662V206H367.574V206.5H371.485V206H375.397V206.5H379.309V206H383.221V206.5H387.132V206H391.044V206.5H392.5V208.017H393V212.05H392.5V216.083H393V220.117H392.5V224.15H393V228.183H392.5V232.217H393V236.25H392.5V240.283H393V244.317H392.5V248.35H393V252.383H392.5V256.417H393V260.45H392.5V264.483H393V268.517H392.5V272.55H393V276.583H392.5V280.617H393V284.65H392.5V288.683H393V292.717H392.5V296.75H393V300.783H392.5V304.817H393V308.85H392.5V312.883H393V316.917H392.5V320.95H393V324.983H392.5V326.5H391.044V327H387.132V326.5H383.221V327H379.309V326.5H375.397V327H371.485V326.5H367.574V327H363.662V326.5H359.75V327H355.838V326.5H351.926V327H348.015V326.5H344.103V327H340.191V326.5H336.279V327H332.368V326.5H328.456V327H324.544V326.5H320.632V327H316.721V326.5H312.809V327H308.897V326.5H304.985V327H301.074V326.5H297.162V327H293.25V326.5H289.338V327H285.426V326.5H281.515V327H277.603V326.5H273.691V327H269.779V326.5H265.868V327H261.956V326.5H260.5V324.983H260V320.95H260.5V316.917H260V312.883H260.5V308.85H260V304.817H260.5V300.783H260V296.75H260.5V292.717H260V288.683H260.5V284.65H260V280.617H260.5V276.583H260V272.55H260.5V268.517H260V264.483H260.5V260.45H260V256.417H260.5V252.383H260V248.35H260.5V244.317H260V240.283H260.5V236.25H260V232.217H260.5V228.183H260V224.15H260.5V220.117H260V216.083H260.5V212.05H260Z" stroke="#C80000" stroke-dasharray="4 4"/>
<rect x="350.484" y="65" width="229.953" height="294.485" rx="8" transform="rotate(90 350.484 65)" fill="#FF0000"/>
<path d="M342.484 65C346.903 65 350.484 68.5817 350.484 73L350.484 91.3582L55.9994 91.3582L55.9994 73C55.9994 68.5817 59.5811 65 63.9994 65L342.484 65Z" fill="#C80000"/>
<circle cx="71.4515" cy="77.7249" r="5.45343" fill="white"/>
<circle cx="89.6292" cy="77.7249" r="5.45343" fill="white"/>
<circle cx="107.807" cy="77.7249" r="5.45343" fill="white"/>
<rect x="261.5" y="210.5" width="73" height="65" stroke="white" stroke-dasharray="4 4"/>
<rect x="259" y="207" width="6.12403" height="6.12403" fill="white"/>
<rect x="259" y="271.876" width="6.12403" height="6.12403" fill="white"/>
<rect x="331.875" y="207" width="6.12403" height="6.12403" fill="white"/>
<rect x="331.875" y="271.876" width="6.12403" height="6.12403" fill="white"/>
<rect x="84" y="191" width="104" height="128" rx="1" fill="#EAEDF0"/>
<path d="M130.345 294.393L139.202 259L145.655 260.607L136.798 296L130.345 294.393Z" fill="#FF0000"/>
<path d="M107 277.5L121.203 263.312L125.631 267.736L115.857 277.5L125.631 287.264L121.203 291.688L107 277.5Z" fill="#FF0000"/>
<path d="M150.369 267.736L154.797 263.312L169 277.5L154.797 291.688L150.369 287.264L160.143 277.5L150.369 267.736Z" fill="#FF0000"/>
<rect x="102" y="208" width="46.6215" height="10" rx="5" fill="#D1D5D9"/>
<rect x="102" y="228" width="68.9998" height="10" rx="5" fill="#D1D5D9"/>
<rect x="196" y="24" width="176" height="80" fill="#EAEDF0"/>
<rect x="196" y="24" width="176" height="16" fill="#DFDFDF"/>
<path d="M238.797 76H234.836V63.3906L230.945 64.5273V61.5273L238.434 58.9375H238.797V76ZM261.824 76H249.918V73.4219L255.402 67.6562C256.754 66.1172 257.43 64.8945 257.43 63.9883C257.43 63.2539 257.27 62.6953 256.949 62.3125C256.629 61.9297 256.164 61.7383 255.555 61.7383C254.953 61.7383 254.465 61.9961 254.09 62.5117C253.715 63.0195 253.527 63.6562 253.527 64.4219H249.566C249.566 63.375 249.828 62.4102 250.352 61.5273C250.875 60.6367 251.602 59.9414 252.531 59.4414C253.461 58.9414 254.5 58.6914 255.648 58.6914C257.492 58.6914 258.91 59.1172 259.902 59.9688C260.902 60.8203 261.402 62.043 261.402 63.6367C261.402 64.3086 261.277 64.9648 261.027 65.6055C260.777 66.2383 260.387 66.9062 259.855 67.6094C259.332 68.3047 258.484 69.2383 257.312 70.4102L255.109 72.9531H261.824V76ZM273.402 65.8164H275.266C276.742 65.8164 277.48 65.0938 277.48 63.6484C277.48 63.0859 277.305 62.6289 276.953 62.2773C276.602 61.918 276.105 61.7383 275.465 61.7383C274.941 61.7383 274.484 61.8906 274.094 62.1953C273.711 62.5 273.52 62.8789 273.52 63.332H269.57C269.57 62.4336 269.82 61.6328 270.32 60.9297C270.82 60.2266 271.512 59.6797 272.395 59.2891C273.285 58.8906 274.262 58.6914 275.324 58.6914C277.223 58.6914 278.715 59.125 279.801 59.9922C280.887 60.8594 281.43 62.0508 281.43 63.5664C281.43 64.3008 281.203 64.9961 280.75 65.6523C280.305 66.3008 279.652 66.8281 278.793 67.2344C279.699 67.5625 280.41 68.0625 280.926 68.7344C281.441 69.3984 281.699 70.2227 281.699 71.207C281.699 72.7305 281.113 73.9492 279.941 74.8633C278.77 75.7773 277.23 76.2344 275.324 76.2344C274.207 76.2344 273.168 76.0234 272.207 75.6016C271.254 75.1719 270.531 74.582 270.039 73.832C269.547 73.0742 269.301 72.2148 269.301 71.2539H273.273C273.273 71.7773 273.484 72.2305 273.906 72.6133C274.328 72.9961 274.848 73.1875 275.465 73.1875C276.16 73.1875 276.715 72.9961 277.129 72.6133C277.543 72.2227 277.75 71.7266 277.75 71.125C277.75 70.2656 277.535 69.6562 277.105 69.2969C276.676 68.9375 276.082 68.7578 275.324 68.7578H273.402V65.8164ZM300.098 69.332H301.832V72.3789H300.098V76H296.148V72.3789H289.551L289.316 69.9648L296.148 58.9727V58.9375H300.098V69.332ZM293.078 69.332H296.148V64.082L295.902 64.4805L293.078 69.332ZM309.777 67.6562L310.82 58.9375H320.793V62.0078H314.031L313.645 65.3945C313.926 65.2305 314.293 65.0859 314.746 64.9609C315.207 64.8359 315.656 64.7734 316.094 64.7734C317.789 64.7734 319.09 65.2773 319.996 66.2852C320.91 67.2852 321.367 68.6914 321.367 70.5039C321.367 71.5977 321.121 72.5898 320.629 73.4805C320.145 74.3633 319.461 75.043 318.578 75.5195C317.695 75.9961 316.652 76.2344 315.449 76.2344C314.379 76.2344 313.375 76.0156 312.438 75.5781C311.5 75.1328 310.766 74.5273 310.234 73.7617C309.703 72.9883 309.441 72.1172 309.449 71.1484H313.41C313.449 71.7734 313.648 72.2695 314.008 72.6367C314.367 73.0039 314.84 73.1875 315.426 73.1875C316.754 73.1875 317.418 72.2031 317.418 70.2344C317.418 68.4141 316.605 67.5039 314.98 67.5039C314.059 67.5039 313.371 67.8008 312.918 68.3945L309.777 67.6562ZM338.957 58.6914V61.7969H338.781C337.305 61.7969 336.09 62.1523 335.137 62.8633C334.191 63.5664 333.609 64.5469 333.391 65.8047C334.281 64.9297 335.406 64.4922 336.766 64.4922C338.242 64.4922 339.418 65.0312 340.293 66.1094C341.168 67.1875 341.605 68.6016 341.605 70.3516C341.605 71.4375 341.348 72.4336 340.832 73.3398C340.324 74.2461 339.609 74.957 338.688 75.4727C337.773 75.9805 336.758 76.2344 335.641 76.2344C334.43 76.2344 333.348 75.9609 332.395 75.4141C331.441 74.8594 330.699 74.0703 330.168 73.0469C329.637 72.0234 329.363 70.8438 329.348 69.5078V67.9258C329.348 66.168 329.723 64.5898 330.473 63.1914C331.23 61.7852 332.309 60.6836 333.707 59.8867C335.105 59.0898 336.656 58.6914 338.359 58.6914H338.957ZM335.395 67.5156C334.871 67.5156 334.434 67.6367 334.082 67.8789C333.73 68.1211 333.469 68.418 333.297 68.7695V69.9531C333.297 72.1094 334.043 73.1875 335.535 73.1875C336.137 73.1875 336.637 72.918 337.035 72.3789C337.441 71.8398 337.645 71.1641 337.645 70.3516C337.645 69.5156 337.438 68.8359 337.023 68.3125C336.617 67.7812 336.074 67.5156 335.395 67.5156Z" fill="#FF0000"/>
<path d="M125 131V157C125 161.418 128.582 165 133 165H202" stroke="#D1D5D9"/>
<path d="M183 166H286" stroke="#D1D5D9"/>
<path d="M159 130H262" stroke="#D1D5D9"/>
<rect x="82" y="118" width="87" height="24" fill="#F5F8FA"/>
<rect x="181" y="118" width="36" height="24" fill="#F5F8FA"/>
<rect x="261" y="154" width="37" height="24" fill="#F5F8FA"/>
<rect x="229" y="118" width="69" height="24" fill="#F5F8FA"/>
<rect x="181" y="154" width="68" height="24" fill="#F5F8FA"/>
</svg>
