<?xml version="1.0" encoding="UTF-8"?>
<svg width="190px" height="35px" viewBox="0 0 190 35" version="1.1" xmlns="http://www.w3.org/2000/svg" xmlns:xlink="http://www.w3.org/1999/xlink">
    <!-- Generator: sketchtool 53.2 (72643) - https://sketchapp.com -->
    <title>E278067F-A723-41B2-AE2B-AEC44D6097D2</title>
    <desc>Created with sketchtool.</desc>
    <defs>
        <linearGradient x1="100%" y1="50%" x2="0.13719953%" y2="50%" id="linearGradient-1">
            <stop stop-color="#253A8F" offset="0%"></stop>
            <stop stop-color="#E30613" offset="99.9313767%"></stop>
        </linearGradient>
        <polygon id="path-2" points="0.0923112088 0.549166667 9.05666667 0.549166667 9.05666667 16.4875066 0.0923112088 16.4875066"></polygon>
    </defs>
    <g id="Home" stroke="none" stroke-width="1" fill="none" fill-rule="evenodd">
        <g id="Home-" transform="translate(-221.000000, -728.000000)">
            <g id="LC-logo-Copy" transform="translate(221.000000, 728.000000)">
                <g id="Group-11" transform="translate(78.138528, 27.197583)" fill="#253A8F">
                    <path d="M5.40792641,7.04575 C4.88234199,7.30325 4.18156277,7.49991667 3.44212554,7.49991667 C1.38913853,7.49991667 0.435848485,6.12908333 0.435848485,4.13825 C0.435848485,2.97491667 0.834766234,1.96908333 1.56433333,1.33825 C2.08004762,0.894083333 2.79069697,0.639083333 3.60827273,0.639083333 C4.21117316,0.639083333 4.81407359,0.766583333 5.18420346,0.934083333 C5.22286147,1.06241667 5.2327316,1.18075 5.2327316,1.31825 C5.2327316,1.45658333 5.22286147,1.57575 5.18420346,1.70325 C4.75567532,1.57575 4.14290476,1.47575 3.68558874,1.47575 C3.04320779,1.47575 2.53736364,1.68325 2.18697403,2.01908333 C1.68112987,2.50158333 1.45740693,3.27075 1.45740693,4.11825 C1.45740693,5.74408333 2.15818615,6.65158333 3.54000433,6.65158333 C3.89039394,6.65158333 4.23091342,6.58241667 4.4348961,6.49491667 L4.4348961,4.32491667 C4.59035065,4.30575 4.73675758,4.27658333 4.89221212,4.27658333 C5.06740693,4.27658333 5.2327316,4.29575 5.40792641,4.32491667 L5.40792641,7.04575 Z" id="Fill-1"></path>
                    <path d="M9.78754978,1.4565 C9.56382684,1.4565 9.21343723,1.4565 9.04811255,1.4665 L9.04811255,4.059 L9.70941126,4.059 C10.6240433,4.059 11.169368,3.64483333 11.169368,2.70816667 C11.169368,1.8015 10.6536537,1.4565 9.78754978,1.4565 L9.78754978,1.4565 Z M12.4533074,7.40066667 C12.2591948,7.43066667 12.0642597,7.44983333 11.8701472,7.44983333 C11.6850823,7.44983333 11.5296277,7.4415 11.3445628,7.40066667 L9.90434632,4.839 L9.04811255,4.839 L9.04811255,7.40066667 C8.88278788,7.43066667 8.7174632,7.44983333 8.55213853,7.44983333 C8.39586147,7.44983333 8.2305368,7.43066667 8.07508225,7.40066667 L8.07508225,0.7365 C8.55213853,0.708166667 9.12625108,0.687333333 9.68062338,0.687333333 C11.0525714,0.687333333 12.1522684,1.1115 12.1522684,2.70816667 C12.1522684,3.58566667 11.6752121,4.35566667 10.8773766,4.65066667 L12.4533074,7.40066667 Z" id="Fill-3"></path>
                    <path d="M16.9013636,1.4565 C15.9077706,1.4565 15.3056926,2.1365 15.3056926,4.059 C15.3056926,5.95233333 15.8987229,6.68233333 16.890671,6.68233333 C17.8834416,6.68233333 18.4772944,5.95233333 18.4772944,4.059 C18.4772944,2.1365 17.8924892,1.4565 16.9013636,1.4565 M16.890671,7.49983333 C15.295,7.49983333 14.2833117,6.44483333 14.2833117,4.079 C14.2833117,1.77233333 15.3155628,0.639 16.9112338,0.639 C18.5060823,0.639 19.4988528,1.77233333 19.4988528,4.079 C19.4988528,6.44483333 18.4871645,7.49983333 16.890671,7.49983333" id="Fill-5"></path>
                    <path d="M26.2992078,4.90708333 C26.2992078,6.62291667 25.7152251,7.49875 23.9254416,7.49875 C22.056697,7.49875 21.5796407,6.66125 21.5796407,4.90708333 L21.5796407,0.737083333 C21.7359177,0.717083333 21.8913723,0.687916667 22.0468268,0.687916667 C22.2220216,0.687916667 22.3774762,0.707083333 22.552671,0.737083333 L22.552671,5.07458333 C22.552671,6.03125 22.7574762,6.74041667 23.9155714,6.74041667 C25.0728442,6.74041667 25.3549654,6.03125 25.3549654,5.07458333 L25.3549654,0.737083333 C25.5112424,0.717083333 25.6469567,0.687916667 25.8024113,0.687916667 C25.9784286,0.687916667 26.124013,0.707083333 26.2992078,0.737083333 L26.2992078,4.90708333 Z" id="Fill-7"></path>
                    <path d="M30.5403203,1.4565 C30.3067273,1.4565 29.8008831,1.4665 29.6552987,1.4765 L29.6552987,4.109 L30.5115325,4.109 C31.2896277,4.109 31.9311861,3.85233333 31.9311861,2.73816667 C31.9311861,1.75233333 31.3768139,1.4565 30.5403203,1.4565 M31.998632,4.5715 C31.6301472,4.79816667 31.0362944,4.88733333 30.6085887,4.88733333 L29.6552987,4.88733333 L29.6552987,7.40066667 C29.4891515,7.43066667 29.333697,7.44983333 29.1576797,7.44983333 C28.9931775,7.44983333 28.8377229,7.43066667 28.6814459,7.40066667 L28.6814459,0.7365 C29.0219654,0.717333333 29.9176797,0.687333333 30.5205801,0.687333333 C31.9311861,0.687333333 32.9140866,1.1115 32.9140866,2.719 C32.9140866,3.47733333 32.6031775,4.19733333 31.998632,4.5715" id="Fill-9"></path>
                </g>
                <g id="Group-14" transform="translate(51.818182, 22.197583)" fill="url(#linearGradient-1)">
                    <polygon id="Fill-12" points="0.760822511 0.986666667 85.0204762 0.986666667 85.0204762 0.285 0.760822511 0.285"></polygon>
                </g>
                <g id="Group-44" transform="translate(0.000000, 0.530917)">
                    <path d="M17.4937359,1.84475 C17.6228701,2.54891667 18.147632,4.24725 18.4363333,5.10058333 L20.5436061,11.2405833 L14.4759437,11.2405833 L16.4516147,5.12891667 C16.7666364,4.11891667 17.3794069,2.46558333 17.4937359,1.84475 L17.4937359,1.84475 Z M22.3819177,16.5380833 C22.6878918,16.5905833 23.1024372,16.6105833 23.4265065,16.6105833 C23.6831299,16.6105833 23.9726537,16.5855833 24.2087143,16.5580833 L18.3499697,0.506416667 C18.0991039,0.466416667 17.727329,0.425583333 17.4929134,0.425583333 C17.2445152,0.425583333 16.8283247,0.458083333 16.545381,0.50225 L11.080619,16.5639167 C11.3068095,16.59225 11.5543853,16.6105833 11.7542554,16.6105833 C12.1071126,16.6105833 12.4805325,16.5689167 12.7988442,16.5239167 L14.0745584,12.5455833 L21.0025671,12.5455833 L22.3819177,16.5380833 Z" id="Fill-15" fill="#E30613"></path>
                    <path d="M31.0013377,15.3815 C30.0784805,15.3815 29.3020303,15.3531667 28.8702121,15.3048333 L28.556013,15.269 L28.556013,1.6965 L28.8932424,1.67983333 C29.3908615,1.6565 30.2684805,1.63066667 30.7825498,1.63066667 C35.7990433,1.63066667 36.8271818,4.324 36.8271818,8.36983333 C36.8271818,10.8415 36.270342,12.6823333 35.1714675,13.8415 C34.2050173,14.8773333 32.8404719,15.3815 31.0013377,15.3815 L31.0013377,15.3815 Z M26.8320303,16.5148333 C27.7293896,16.5731667 29.4714675,16.6106667 30.4181775,16.6106667 C33.1785238,16.6106667 34.9855801,16.149 36.2760996,15.1123333 C37.8438052,13.8273333 38.6720736,11.5115 38.6720736,8.41983333 C38.6720736,2.74233333 36.3937186,0.425666667 30.8064026,0.425666667 C29.3596061,0.425666667 27.9638052,0.4615 26.8320303,0.527333333 L26.8320303,16.5148333 Z" id="Fill-17" fill="#E30613"></path>
                    <path d="M45.3145887,7.47216667 L43.4532468,7.47216667 L43.4532468,1.698 L43.7888312,1.6805 C44.234632,1.65633333 44.8235498,1.6305 45.4363203,1.6305 C45.7184416,1.6305 47.1668831,1.65716667 48.0091342,2.20383333 C48.757619,2.67883333 49.1219913,3.3905 49.1219913,4.37883333 C49.1219913,7.1205 47.0870996,7.47216667 45.3145887,7.47216667 L45.3145887,7.47216667 Z M45.6551082,15.4055 C45.1064935,15.4055 44.2831602,15.3821667 43.7715584,15.3296667 L43.4532468,15.2971667 L43.4532468,8.72633333 L45.6551082,8.72633333 C48.5158009,8.72633333 50.2891342,9.26883333 50.2891342,11.9671667 C50.2891342,15.0146667 47.8125541,15.4055 45.6551082,15.4055 L45.6551082,15.4055 Z M41.7292641,16.5071667 C43.0674892,16.5805 44.2370996,16.6105 45.6797835,16.6105 C47.8808225,16.6105 49.3070563,16.3238333 50.3047619,15.6805 C51.4217316,14.958 51.9884416,13.7088333 51.9884416,11.9671667 C51.9884416,9.798 50.7752381,7.85216667 48.6589177,7.633 L48.3414286,7.6005 L48.5758442,7.4905 C50.0752814,6.948 50.7735931,5.90466667 50.7735931,4.20716667 C50.7735931,0.883833333 48.0445022,0.4255 45.0958009,0.4255 C43.9311255,0.4255 42.75,0.4605 41.7292641,0.5255 L41.7292641,16.5071667 Z" id="Fill-19" fill="#E30613"></path>
                    <path d="M59.1747186,8.85233333 L57.1669697,8.85233333 L57.1669697,1.6765 L57.5000866,1.65483333 C57.9236797,1.63066667 58.7938961,1.63066667 59.3696537,1.63066667 C61.8955844,1.63066667 63.1762338,2.80316667 63.1762338,5.11816667 C63.1762338,7.56066667 61.7927706,8.85233333 59.1747186,8.85233333 L59.1747186,8.85233333 Z M63.4879654,16.5256667 C64.1550216,16.6473333 64.7118615,16.6406667 65.4595238,16.5598333 L61.5748052,9.78233333 L61.9712554,9.63483333 C63.7931169,8.95983333 64.9248918,7.229 64.9248918,5.11816667 C64.9248918,1.9165 63.0750649,0.425666667 59.1015152,0.425666667 C57.914632,0.425666667 56.6290476,0.462333333 55.442987,0.529 L55.442987,16.5431667 C56.0631602,16.6356667 56.541039,16.6323333 57.1669697,16.5406667 L57.1669697,10.0815 L59.8664502,10.0815 L63.4879654,16.5256667 Z" id="Fill-21" fill="#E30613"></path>
                    <path d="M73.8614719,15.4050833 C70.9563636,15.4050833 69.5441126,13.14425 69.5441126,8.49258333 C69.5441126,3.87508333 70.9637662,1.63091667 73.8861472,1.63091667 C76.8151082,1.63091667 78.1788312,3.81091667 78.1788312,8.49258333 C78.1788312,13.14425 76.7665801,15.4050833 73.8614719,15.4050833 M73.91,0.302583333 C69.9043723,0.302583333 67.6983983,3.22925 67.6983983,8.54341667 C67.6983983,13.9009167 69.8295238,16.73425 73.8614719,16.73425 C77.8934199,16.73425 80.025368,13.9009167 80.025368,8.54341667 C80.025368,3.22925 77.8531169,0.302583333 73.91,0.302583333" id="Fill-23" fill="#E30613"></path>
                    <path d="M91.941,16.5143333 C92.3769307,16.5785 92.7824286,16.611 93.1468009,16.611 C93.4264545,16.611 93.6649827,16.6035 93.9224286,16.5768333 L87.8777965,7.59433333 L91.1629048,4.0835 C92.3761082,2.7835 93.0661948,1.68433333 93.4116494,0.480166667 C93.1468009,0.446833333 92.8449394,0.426 92.586671,0.426 C92.3259351,0.426 92.0142035,0.4535 91.7172771,0.500166667 C91.4285758,1.63016667 90.3535541,2.89683333 89.8797879,3.41516667 L84.9858485,8.711 L84.9858485,0.491 C84.7070173,0.451 84.3837706,0.426 84.1000043,0.426 C83.8524286,0.426 83.545632,0.451833333 83.2618658,0.492666667 L83.2618658,16.5435 C83.5464545,16.5851667 83.8532511,16.611 84.1000043,16.611 C84.3837706,16.611 84.7061948,16.586 84.9858485,16.5451667 L84.9858485,10.6676667 L86.7205238,8.78433333 L91.941,16.5143333 Z" id="Fill-25" fill="#E30613"></path>
                    <path d="M97.0134242,16.4874167 L105.961519,16.4874167 C105.992775,16.2999167 106.009225,16.0824167 106.009225,15.83575 C106.009225,15.5924167 105.992775,15.3665833 105.962342,15.1840833 L98.7382294,15.1840833 L98.7382294,8.89908333 L104.672645,8.89908333 C104.7039,8.71241667 104.720351,8.49408333 104.720351,8.24658333 C104.720351,8.00325 104.7039,7.77741667 104.673468,7.59491667 L98.7382294,7.59491667 L98.7382294,1.85241667 L105.596325,1.85241667 C105.628403,1.66575 105.64403,1.44741667 105.64403,1.20075 C105.64403,0.956583333 105.62758,0.731583333 105.59797,0.549083333 L97.0134242,0.549083333 L97.0134242,16.4874167 Z" id="Fill-27" fill="#E30613"></path>
                    <path d="M108.862762,15.91375 C109.973152,16.4470833 111.901939,16.7329167 113.219602,16.7329167 C115.752113,16.7329167 118.458173,15.57875 118.458173,12.3370833 C118.458173,9.85458333 117.011377,8.81458333 114.677091,7.94291667 L113.530511,7.49708333 C111.494797,6.71458333 110.701074,5.84708333 110.701074,4.40291667 C110.701074,2.67791667 112.066442,1.60625 114.26419,1.60625 C115.308779,1.60625 116.322113,1.70875 117.508173,1.93708333 C117.542719,1.71541667 117.558346,1.51541667 117.558346,1.32375 C117.558346,1.12125 117.536139,0.90625 117.493368,0.682916667 C116.444667,0.430416667 115.310424,0.302916667 114.118606,0.302916667 C111.735792,0.302916667 108.951593,1.39625 108.951593,4.47625 C108.951593,6.43041667 110.104753,7.73958333 112.686615,8.72458333 L113.926139,9.19208333 C116.071247,9.99625 116.831247,10.8845833 116.831247,12.5829167 C116.831247,14.3929167 115.469991,15.4304167 113.097048,15.4304167 C111.843541,15.4304167 110.057048,15.0629167 108.811766,14.5654167 C108.791203,14.7345833 108.782156,14.9245833 108.782156,15.14625 C108.782156,15.3804167 108.806831,15.6179167 108.862762,15.91375" id="Fill-29" fill="#E30613"></path>
                    <path d="M131.49061,0.3245 C129.474636,0.3245 127.69719,1.027 126.48481,2.30283333 C125.093944,3.7795 124.328186,6.04033333 124.328186,8.66533333 C124.328186,11.6703333 125.232948,16.7111667 131.295675,16.7111667 C132.434853,16.7111667 133.796931,16.4545 134.980524,16.0211667 C135.015069,15.8153333 135.029874,15.6028333 135.029874,15.3428333 C135.029874,15.2195 135.009312,15.0595 134.975589,14.8995 C133.847926,15.202 132.783597,15.3536667 131.806455,15.3536667 C129.888359,15.3536667 128.487623,14.7511667 127.522818,13.5086667 C126.623814,12.3528333 126.12784,10.6061667 126.12784,8.592 C126.12784,4.18533333 128.163554,1.65866667 131.709398,1.65866667 C132.717797,1.65866667 133.994333,1.84616667 135.071823,2.14783333 C135.093208,1.98616667 135.103078,1.80283333 135.103078,1.5945 C135.103078,1.34283333 135.089918,1.19366667 135.04468,1.01116667 C134.246844,0.680333333 132.902039,0.3245 131.49061,0.3245" id="Fill-31" fill="#253A8F"></path>
                    <path d="M143.410602,15.4279167 C140.489866,15.4279167 139.070212,13.1595833 139.070212,8.49291667 C139.070212,3.86041667 140.498091,1.60875 143.433632,1.60875 C146.378221,1.60875 147.749346,3.79625 147.749346,8.49291667 C147.749346,13.1595833 146.330515,15.4279167 143.410602,15.4279167 M143.45913,0.325416667 C139.467485,0.325416667 137.269736,3.24375 137.269736,8.54291667 C137.269736,13.8854167 139.393459,16.71125 143.410602,16.71125 C147.427745,16.71125 149.551468,13.8854167 149.551468,8.54291667 C149.551468,3.24375 147.388264,0.325416667 143.45913,0.325416667" id="Fill-33" fill="#253A8F"></path>
                    <path d="M156.361939,8.87433333 L154.331983,8.87433333 L154.331983,1.65516667 L154.686485,1.6335 C155.1109,1.60766667 155.979472,1.60766667 156.556052,1.60766667 C159.096788,1.60766667 160.386485,2.7885 160.386485,5.11766667 C160.386485,7.57516667 158.993974,8.87433333 156.361939,8.87433333 L156.361939,8.87433333 Z M160.689169,16.5051667 C161.339775,16.6218333 161.8851,16.6168333 162.610554,16.541 L158.730771,9.77016667 L159.151896,9.61433333 C160.963887,8.94183333 162.089905,7.21933333 162.089905,5.11766667 C162.089905,1.93183333 160.246658,0.447666667 156.288736,0.447666667 C155.110078,0.447666667 153.832719,0.484333333 152.652416,0.549333333 L152.652416,16.5235 C153.256961,16.6118333 153.722502,16.6076667 154.331983,16.521 L154.331983,10.0593333 L157.066831,10.0593333 L160.689169,16.5051667 Z" id="Fill-35" fill="#253A8F"></path>
                    <path d="M0.0298571429,0.549166667 L0.0224545455,15.0266667 C0.0216320346,15.0483333 -0.000575757576,15.6858333 0.392584416,16.1016667 C0.633580087,16.3566667 0.993839827,16.485 1.46431602,16.485 L8.16531169,16.4875 C8.6604632,16.4875 8.70734632,16.4908333 8.75011688,16.3475 L8.80851515,16.085 C8.80851515,16.085 8.911329,15.5458333 8.98617749,15.1858333 C8.96232468,15.1841667 8.93682684,15.1825 8.91544156,15.1841667 L2.86505195,15.1816667 C2.56565801,15.1816667 2.28024675,15.1841667 2.01868831,15.0108333 C1.70942424,14.8041667 1.75712987,14.1758333 1.75466234,14.0583333 L1.75466234,0.549166667 L0.0298571429,0.549166667 Z" id="Fill-37" fill="#E30613"></path>
                    <path d="M171.197649,1.84475 C171.326784,2.54975 171.84661,4.24725 172.135312,5.10058333 L174.241762,11.2414167 L168.1741,11.2414167 L170.150593,5.12891667 C170.464792,4.11891667 171.084143,2.46558333 171.197649,1.84475 L171.197649,1.84475 Z M176.080896,16.53725 C176.38687,16.58975 176.801416,16.60975 177.124662,16.60975 C177.382108,16.60975 177.67081,16.5864167 177.90687,16.5580833 L172.048126,0.50725 C171.79726,0.46725 171.425485,0.42475 171.191069,0.42475 C170.942671,0.42475 170.527303,0.45725 170.243537,0.503083333 L164.779597,16.5630833 C165.005788,16.59225 165.252541,16.60975 165.453234,16.60975 C165.805268,16.60975 166.178688,16.5680833 166.497,16.5230833 L167.772714,12.54475 L174.701545,12.54475 L176.080896,16.53725 Z" id="Fill-39" fill="#253A8F"></path>
                    <g id="Group-43" transform="translate(180.129870, 0.000000)">
                        <mask id="mask-3" fill="white">
                            <use xlink:href="#path-2"></use>
                        </mask>
                        <g id="Clip-42"></g>
                        <path d="M0.100181818,0.549166667 L0.0927792208,15.0266667 C0.09195671,15.0483333 0.0697489177,15.6858333 0.462909091,16.1016667 C0.703904762,16.3566667 1.06498701,16.485 1.53464069,16.485 L8.23645887,16.4875 C8.73078788,16.4875 8.77849351,16.4908333 8.82126407,16.3475 L8.87883983,16.085 C8.87883983,16.085 8.98165368,15.5458333 9.05732468,15.1858333 C9.03264935,15.1841667 9.00715152,15.1825 8.98658874,15.1841667 L2.93537662,15.1816667 C2.63598268,15.1816667 2.35057143,15.1841667 2.08901299,15.0108333 C1.77974892,14.8041667 1.82827706,14.1758333 1.82580952,14.0583333 L1.82580952,0.549166667 L0.100181818,0.549166667 Z" id="Fill-41" fill="#253A8F" mask="url(#mask-3)"></path>
                    </g>
                </g>
            </g>
        </g>
    </g>
</svg>