<?xml version="1.0" encoding="UTF-8"?>
<svg width="70px" height="70px" viewBox="0 0 70 70" version="1.1" xmlns="http://www.w3.org/2000/svg" xmlns:xlink="http://www.w3.org/1999/xlink">
    <!-- Generator: sketchtool 62 (101010) - https://sketch.com -->
    <title>E79C12C6-79B1-4E7C-BA5A-59EAB5C19A3E</title>
    <desc>Created with sketchtool.</desc>
    <defs>
        <polygon id="path-1" points="0 0.0597692308 69.4015 0.0597692308 69.4015 69.4615385 0 69.4615385"></polygon>
        <polygon id="path-3" points="0 69.671 69.4015 69.671 69.4015 0.269230769 0 0.269230769"></polygon>
    </defs>
    <g id="Design" stroke="none" stroke-width="1" fill="none" fill-rule="evenodd">
        <g id="Agile-Tr.-&amp;-Cer.-Copy-5" transform="translate(-1092.000000, -168.000000)">
            <g id="banner" transform="translate(435.000000, 128.000000)">
                <g id="Logo-partnership" transform="translate(657.000000, 40.000000)">
                    <path d="M34.7008038,2.1539 C16.6060731,2.1539 1.88453462,16.8751692 1.88453462,34.9701692 C1.88453462,53.0649 16.6060731,67.7864385 34.7008038,67.7864385 C52.7958038,67.7864385 67.5170731,53.0649 67.5170731,34.9701692 C67.5170731,16.8751692 52.7958038,2.1539 34.7008038,2.1539" id="Fill-1" fill="#FFFFFF"></path>
                    <g id="Group-5" transform="translate(0.000000, 0.209462)">
                        <mask id="mask-2" fill="white">
                            <use xlink:href="#path-1"></use>
                        </mask>
                        <g id="Clip-4"></g>
                        <path d="M34.7008038,68.5192308 C16.0565731,68.5192308 0.942226923,53.4048846 0.942226923,34.7606538 C0.942226923,16.1161538 16.0565731,1.00207692 34.7008038,1.00207692 C53.3450346,1.00207692 68.4593808,16.1161538 68.4593808,34.7606538 C68.4593808,53.4048846 53.3450346,68.5192308 34.7008038,68.5192308 M34.7008038,0.0597692308 C15.5668423,0.0597692308 -8.07692308e-05,15.6266923 -8.07692308e-05,34.7606538 C-8.07692308e-05,53.8948846 15.5668423,69.4615385 34.7008038,69.4615385 C53.8347654,69.4615385 69.4016885,53.8948846 69.4016885,34.7606538 C69.4016885,15.6266923 53.8347654,0.0597692308 34.7008038,0.0597692308" id="Fill-3" fill="#C57A37" mask="url(#mask-2)"></path>
                    </g>
                    <path d="M34.7008038,67.7863846 C16.6060731,67.7863846 1.88453462,53.0648462 1.88453462,34.9701154 C1.88453462,16.8751154 16.6060731,2.15384615 34.7008038,2.15384615 C52.7958038,2.15384615 67.5170731,16.8751154 67.5170731,34.9701154 C67.5170731,53.0648462 52.7958038,67.7863846 34.7008038,67.7863846 M34.7008038,1.21153846 C16.0565731,1.21153846 0.942226923,16.3256154 0.942226923,34.9701154 C0.942226923,53.6143462 16.0565731,68.7286923 34.7008038,68.7286923 C53.3450346,68.7286923 68.4593808,53.6143462 68.4593808,34.9701154 C68.4593808,16.3256154 53.3450346,1.21153846 34.7008038,1.21153846" id="Fill-6" fill="#C57A37"></path>
                    <path d="M2.46211538,45.1712692 C6.7865,58.8290769 19.5617692,68.7286923 34.6502692,68.7286923 C49.7387692,68.7286923 62.5135,58.8290769 66.8384231,45.1712692 L2.46211538,45.1712692 Z" id="Fill-8" fill="#C57A37"></path>
                    <path d="M65.0284385,22.3323962 L4.19574615,22.3323962 C2.5599,26.2432423 1.65474615,30.5361269 1.65474615,35.0406269 C1.65474615,38.6870885 2.2484,42.1946269 3.34174615,45.4735885 L65.8824385,45.4735885 C66.9757846,42.1946269 67.5694385,38.6870885 67.5694385,35.0406269 C67.5694385,30.5361269 66.6645538,26.2432423 65.0284385,22.3323962" id="Fill-10" fill="#1C4465"></path>
                    <polygon id="Fill-12" fill="#1C4465" points="31.0081962 22.3998385 40.8407731 13.9317231 40.3416192 13.3294538 29.7826577 22.3998385"></polygon>
                    <polygon id="Fill-14" fill="#1C4465" points="33.7369308 22.3998385 42.1048923 15.1473 41.6054692 14.5450308 32.5113923 22.3998385"></polygon>
                    <polygon id="Fill-16" fill="#1C4465" points="51.5179808 22.3998385 46.8780577 12.8806462 35.8570962 22.3998385"></polygon>
                    <polygon id="Fill-18" fill="#1C4465" points="27.6705692 22.3998385 34.8983385 16.0936462 34.3989154 15.4911077 26.4453 22.3998385"></polygon>
                    <polygon id="Fill-20" fill="#1C4465" points="21.8075577 22.3998385 27.9829038 16.9670308 27.4834808 16.3647615 20.5822885 22.3998385"></polygon>
                    <polygon id="Fill-22" fill="#1C4465" points="18.9318769 22.3998385 27.0368 15.3656462 26.5371077 14.7633769 17.7063385 22.3998385"></polygon>
                    <polygon id="Fill-24" fill="#1C4465" points="24.9421038 22.3998385 33.6608731 14.8559923 33.16145 14.2537231 23.7165654 22.3998385"></polygon>
                    <path d="M11.7539962,30.3934077 C11.8826885,30.5864462 12.0471885,30.7286 12.2474962,30.8201385 C12.4480731,30.9116769 12.6545731,30.9574462 12.8672654,30.9574462 C12.9859962,30.9574462 13.10715,30.9388692 13.2307269,30.9017154 C13.3545731,30.8645615 13.4671115,30.8088308 13.5686115,30.7347923 C13.6698423,30.6604846 13.7530346,30.5689462 13.8171115,30.4601769 C13.8814577,30.3514077 13.9134962,30.2251385 13.9134962,30.0816385 C13.9134962,29.8789077 13.84915,29.7243692 13.7207269,29.6180231 C13.5920346,29.5116769 13.4323808,29.4225615 13.2420346,29.3506769 C13.0514192,29.2790615 12.8438423,29.2098692 12.6187654,29.1428308 C12.3934192,29.0760615 12.1858423,28.9834462 11.9952269,28.8647154 C11.8046115,28.7457154 11.6452269,28.5863308 11.5165346,28.3860231 C11.3881115,28.1854462 11.3234962,27.9146 11.3234962,27.5732154 C11.3234962,27.4200231 11.3568808,27.2568692 11.42365,27.0834846 C11.4904192,26.9103692 11.5956885,26.7520615 11.7391885,26.6085615 C11.8826885,26.4650615 12.0668423,26.3449846 12.2921885,26.2486 C12.5172654,26.1522154 12.7881115,26.1037538 13.1049962,26.1037538 C13.3917269,26.1037538 13.6663423,26.1436 13.9285731,26.2227538 C14.1908038,26.3019077 14.4207269,26.4626385 14.6188808,26.7049462 L14.0397654,27.2318308 C13.95065,27.0934462 13.82465,26.9822538 13.6614962,26.8979846 C13.4983423,26.8139846 13.3125731,26.7717154 13.1049962,26.7717154 C12.9068423,26.7717154 12.7423423,26.7978308 12.6114962,26.8497923 C12.4801115,26.9017538 12.3751115,26.9685231 12.2959577,27.0501 C12.2168038,27.1316769 12.1610731,27.2197154 12.1290346,27.3136769 C12.0964577,27.4076385 12.0805731,27.4940615 12.0805731,27.5732154 C12.0805731,27.7961385 12.1449192,27.9665615 12.2736115,28.0852923 C12.4020346,28.2040231 12.5616885,28.3006769 12.7523038,28.3747154 C12.94265,28.4490231 13.1504962,28.5157923 13.3755731,28.5752923 C13.60065,28.6345231 13.8084962,28.7174462 13.9991115,28.8237923 C14.1894577,28.9301385 14.3491115,29.0736385 14.4775346,29.2542923 C14.6064962,29.4349462 14.6705731,29.6834462 14.6705731,30.0000615 C14.6705731,30.2523308 14.6223808,30.4801 14.5259962,30.6828308 C14.4296115,30.8858308 14.2995731,31.0565231 14.1364192,31.1949077 C13.9729962,31.3335615 13.7799577,31.4399077 13.5573038,31.5139462 C13.3349192,31.5882538 13.0971885,31.6254077 12.8451885,31.6254077 C12.50865,31.6254077 12.1893423,31.5659077 11.8875346,31.4471769 C11.5857269,31.3284462 11.3458423,31.1453692 11.1676115,30.8982154 L11.7539962,30.3934077 Z" id="Fill-26" fill="#FFFFFF"></path>
                    <path d="M19.0121885,27.3729885 C18.8638423,27.17995 18.67565,27.0316038 18.44815,26.9276808 C18.22065,26.8237577 17.9856115,26.7717962 17.7430346,26.7717962 C17.4463423,26.7717962 17.1779192,26.8275269 16.9380346,26.9387192 C16.6978808,27.0501808 16.4927269,27.2022962 16.3220346,27.3953346 C16.1513423,27.5881038 16.0188808,27.8145269 15.9249192,28.0743346 C15.8309577,28.3338731 15.7841115,28.6122577 15.7841115,28.9092192 C15.7841115,29.1862577 15.8285346,29.4484885 15.91765,29.6956423 C16.0067654,29.9433346 16.1351885,30.1608731 16.3034577,30.3487962 C16.4714577,30.5369885 16.6768808,30.6853346 16.9194577,30.7941038 C17.1617654,30.9031423 17.4363808,30.9572577 17.7430346,30.9572577 C18.0448423,30.9572577 18.3097654,30.8956038 18.5372654,30.7720269 C18.7647654,30.64845 18.9578038,30.4750654 19.1161115,30.2524115 L19.7173038,30.7049885 C19.6777269,30.7596423 19.6085346,30.83745 19.5094577,30.93895 C19.4103808,31.04045 19.2792654,31.14195 19.1161115,31.2431808 C18.9526885,31.3446808 18.75615,31.4337962 18.5259577,31.5102577 C18.2960346,31.5869885 18.0303038,31.6252192 17.7282269,31.6252192 C17.3128038,31.6252192 16.9380346,31.5460654 16.6041885,31.3880269 C16.2700731,31.2297192 15.9854962,31.0218731 15.7507269,30.7644885 C15.5156885,30.5073731 15.3361115,30.2166038 15.2125346,29.89245 C15.0889577,29.5685654 15.0270346,29.2406423 15.0270346,28.9092192 C15.0270346,28.5034885 15.0938038,28.1287192 15.2273423,27.7849115 C15.3608808,27.4408346 15.5477269,27.1441423 15.7876115,26.8942962 C16.0274962,26.64445 16.3155731,26.4503346 16.6521115,26.3116808 C16.98865,26.1732962 17.35965,26.1038346 17.7653808,26.1038346 C18.1116115,26.1038346 18.4519192,26.1706038 18.7857654,26.3044115 C19.1196115,26.43795 19.39315,26.6433731 19.6058423,26.9201423 L19.0121885,27.3729885 Z" id="Fill-28" fill="#FFFFFF"></path>
                    <path d="M23.1308538,29.5696692 L22.1511231,27.1579 L22.1363154,27.1579 L21.1417769,29.5696692 L23.1308538,29.5696692 Z M21.8544308,26.2374 L22.5000462,26.2374 L24.7486615,31.4917077 L23.9175462,31.4917077 L23.3906615,30.1929385 L20.8895077,30.1929385 L20.3701615,31.4917077 L19.5387769,31.4917077 L21.8544308,26.2374 Z" id="Fill-30" fill="#FFFFFF"></path>
                    <polygon id="Fill-32" fill="#FFFFFF" points="25.0604038 26.2374269 25.7727885 26.2374269 25.7727885 30.8237731 28.1845577 30.8237731 28.1845577 31.4917346 25.0604038 31.4917346"></polygon>
                    <polygon id="Fill-34" fill="#FFFFFF" points="28.5409654 26.2374269 31.9324654 26.2374269 31.9324654 26.9053885 29.25335 26.9053885 29.25335 28.4712346 31.7466962 28.4712346 31.7466962 29.1391962 29.25335 29.1391962 29.25335 30.8237731 32.0660038 30.8237731 32.0660038 31.4917346 28.5409654 31.4917346"></polygon>
                    <path d="M33.2979769,30.8238 L34.1958615,30.8238 C34.4976692,30.8238 34.7833231,30.7831462 35.0530923,30.7013 C35.3228615,30.6197231 35.5589769,30.4972231 35.7619769,30.3340692 C35.9647077,30.1706462 36.1254385,29.9665692 36.2444385,29.7218385 C36.3629,29.4768385 36.4224,29.1911846 36.4224,28.8646077 C36.4224,28.6966077 36.3949385,28.4998 36.3408231,28.2747231 C36.2861692,28.0496462 36.1835923,27.8356077 36.0328231,27.6326077 C35.8817846,27.4298769 35.6728615,27.2578385 35.4057846,27.1167615 C35.1384385,26.9759538 34.7919385,26.9054154 34.3665538,26.9054154 L33.2979769,26.9054154 L33.2979769,30.8238 Z M32.5855923,26.2374538 L34.4185154,26.2374538 C34.7895154,26.2374538 35.1150154,26.2797231 35.3947462,26.3637231 C35.6742077,26.4479923 35.9165154,26.5602615 36.1219385,26.7013385 C36.3268231,26.8421462 36.4977846,27.0042231 36.6337462,27.1873 C36.7699769,27.3703769 36.8774,27.5585692 36.9565538,27.7513385 C37.0357077,27.9443769 37.0927846,28.1371462 37.1275154,28.3301846 C37.1619769,28.5232231 37.1794769,28.7014538 37.1794769,28.8646077 C37.1794769,29.2011462 37.1175538,29.5263769 36.9937077,29.8405692 C36.8701308,30.1547615 36.6867846,30.4342231 36.4447462,30.6789538 C36.2021692,30.9239538 35.9014385,31.1207615 35.5428231,31.2691077 C35.1842077,31.4174538 34.7698615,31.4917615 34.2997846,31.4917615 L32.5855923,31.4917615 L32.5855923,26.2374538 Z" id="Fill-36" fill="#FFFFFF"></path>
                    <path d="M42.4485385,29.5696692 L41.4688077,27.1579 L41.454,27.1579 L40.4594615,29.5696692 L42.4485385,29.5696692 Z M41.1721154,26.2374 L41.8177308,26.2374 L44.0663462,31.4917077 L43.2352308,31.4917077 L42.7083462,30.1929385 L40.2071923,30.1929385 L39.6878462,31.4917077 L38.8564615,31.4917077 L41.1721154,26.2374 Z" id="Fill-38" fill="#FFFFFF"></path>
                    <path d="M48.8530269,28.5529731 L48.8530269,31.1429731 C48.7243346,31.2221269 48.5784115,31.2913192 48.4152577,31.3508192 C48.2521038,31.41005 48.0824885,31.4609346 47.9066808,31.5029346 C47.7311423,31.5449346 47.5531808,31.5758962 47.3725269,31.59555 C47.1918731,31.6154731 47.0222577,31.6254346 46.86395,31.6254346 C46.4189115,31.6254346 46.0217962,31.5511269 45.6728731,31.4027808 C45.3242192,31.2544346 45.02995,31.0538577 44.7897962,30.8015885 C44.5499115,30.5493192 44.3668346,30.2561269 44.2405654,29.9220115 C44.1145654,29.5881654 44.0515654,29.2357423 44.0515654,28.8647423 C44.0515654,28.4738192 44.1194115,28.1100885 44.2556423,27.77355 C44.3916038,27.4372808 44.5795269,27.1454346 44.8196808,26.8980115 C45.0595654,26.6505885 45.3476423,26.4564731 45.6839115,26.3153962 C46.02045,26.1745885 46.3892962,26.1037808 46.7899115,26.1037808 C47.2747962,26.1037808 47.6702962,26.1646269 47.9772192,26.2857808 C48.2841423,26.4069346 48.5415269,26.5738577 48.7491038,26.78655 L48.2445654,27.3285115 C48.0267577,27.1206654 47.7965654,26.9758192 47.5542577,26.8942423 C47.3116808,26.8126654 47.0569885,26.7717423 46.7899115,26.7717423 C46.4881038,26.7717423 46.2159115,26.8274731 45.9736038,26.9386654 C45.7310269,27.0501269 45.52345,27.1998192 45.3500654,27.3877423 C45.17695,27.5759346 45.0434115,27.7972423 44.94945,28.0519346 C44.8552192,28.3068962 44.8086423,28.5777423 44.8086423,28.8647423 C44.8086423,29.1614346 44.8603346,29.4373962 44.9642577,29.6920885 C45.0681808,29.94705 45.2116808,30.1683577 45.3947577,30.3562808 C45.5778346,30.5442038 45.79295,30.6914731 46.0403731,30.7978192 C46.2877962,30.9041654 46.5572962,30.9574731 46.8494115,30.9574731 C47.1016808,30.9574731 47.3402192,30.93405 47.5655654,30.8869346 C47.7906423,30.8400885 47.9823346,30.7719731 48.1406423,30.6828577 L48.1406423,29.2206654 L46.9754115,29.2206654 L46.9754115,28.5529731 L48.8530269,28.5529731 Z" id="Fill-40" fill="#FFFFFF"></path>
                    <mask id="mask-4" fill="white">
                        <use xlink:href="#path-3"></use>
                    </mask>
                    <g id="Clip-43"></g>
                    <polygon id="Fill-42" fill="#FFFFFF" mask="url(#mask-4)" points="49.7807692 31.4916538 50.4931538 31.4916538 50.4931538 26.2373462 49.7807692 26.2373462"></polygon>
                    <polygon id="Fill-44" fill="#FFFFFF" mask="url(#mask-4)" points="51.4727769 26.2374269 52.1851615 26.2374269 52.1851615 30.8237731 54.5969308 30.8237731 54.5969308 31.4917346 51.4727769 31.4917346"></polygon>
                    <polygon id="Fill-45" fill="#FFFFFF" mask="url(#mask-4)" points="54.9535808 26.2374269 58.3450808 26.2374269 58.3450808 26.9053885 55.6659654 26.9053885 55.6659654 28.4712346 58.1593115 28.4712346 58.1593115 29.1391962 55.6659654 29.1391962 55.6659654 30.8237731 58.4786192 30.8237731 58.4786192 31.4917346 54.9535808 31.4917346"></polygon>
                    <path d="M16.6750769,56.2226 L17.9956538,56.2226 C18.1329615,56.2226 18.2845385,56.2083308 18.4501154,56.1803308 C18.6154231,56.1520615 18.7699615,56.0960615 18.9134615,56.0117923 C19.0572308,55.9272538 19.1789231,55.8133692 19.2790769,55.6698692 C19.3786923,55.5263692 19.4290385,55.3357538 19.4290385,55.0985615 C19.4290385,54.7049462 19.3008846,54.4101385 19.0448462,54.2133308 C18.7888077,54.0167923 18.4420385,53.9182538 18.0050769,53.9182538 L16.6750769,53.9182538 L16.6750769,56.2226 Z M16.6750769,53.1315615 L17.9022308,53.1315615 C18.0707692,53.1315615 18.2298846,53.1143308 18.3798462,53.0798692 C18.5298077,53.0456769 18.6606538,52.9877923 18.7731923,52.9067538 C18.8854615,52.8257154 18.9745769,52.7226 19.04,52.5976769 C19.1056923,52.4727538 19.1382692,52.3198308 19.1382692,52.1386385 C19.1382692,51.8764077 19.0542692,51.6486385 18.8854615,51.4547923 C18.7169231,51.2614846 18.4514615,51.1645615 18.0893462,51.1645615 L16.6750769,51.1645615 L16.6750769,53.1315615 Z M15.7758462,50.3778692 L18.0801923,50.3778692 C18.3671923,50.3778692 18.634,50.4120615 18.8808846,50.4807154 C19.1272308,50.5496385 19.3396538,50.6511385 19.5178846,50.7852154 C19.6958462,50.9195615 19.8361154,51.0910615 19.9392308,51.3005231 C20.0423462,51.5097154 20.0937692,51.7544462 20.0937692,52.0355231 C20.0937692,52.4164846 19.9876923,52.7274462 19.7755385,52.9676 C19.5631154,53.2080231 19.2882308,53.3843692 18.9511538,53.4969077 L18.9511538,53.5154846 C19.1509231,53.5281385 19.3383077,53.5798308 19.5130385,53.6702923 C19.6877692,53.7604846 19.8393462,53.8794846 19.9675,54.0259462 C20.0953846,54.1729462 20.1968846,54.3431 20.2717308,54.5364077 C20.3468462,54.7299846 20.384,54.9391769 20.384,55.1639846 C20.384,55.4639077 20.3234231,55.7277538 20.2017308,55.9555231 C20.0797692,56.1832923 19.9125769,56.3755231 19.7004231,56.5314077 C19.488,56.6878308 19.2413846,56.8062923 18.9603077,56.8876 C18.6795,56.9686385 18.3763462,57.0092923 18.0519231,57.0092923 L15.7758462,57.0092923 L15.7758462,50.3778692 Z" id="Fill-46" fill="#FFFFFF" mask="url(#mask-4)"></path>
                    <path d="M22.8100654,53.3002346 L23.9903731,53.3002346 C24.1648346,53.3002346 24.3382192,53.2859654 24.5099885,53.2579654 C24.6817577,53.2296962 24.8346808,53.1782731 24.9690269,53.1034269 C25.1033731,53.0283115 25.2110654,52.9208885 25.2921038,52.7800808 C25.3734115,52.6398115 25.4140654,52.4570038 25.4140654,52.2321962 C25.4140654,52.0073885 25.3734115,51.8251192 25.2921038,51.6843115 C25.2110654,51.5440423 25.1033731,51.4360808 24.9690269,51.3612346 C24.8346808,51.2863885 24.6817577,51.2346962 24.5099885,51.2066962 C24.3382192,51.1784269 24.1648346,51.1644269 23.9903731,51.1644269 L22.8100654,51.1644269 L22.8100654,53.3002346 Z M21.9108346,50.3780038 L24.2429115,50.3780038 C24.6674885,50.3780038 25.0172192,50.43535 25.2921038,50.5511192 C25.5667192,50.6666192 25.7839885,50.81335 25.9431038,50.9913115 C26.1024885,51.1692731 26.2131423,51.3690423 26.2756038,51.5906192 C26.3380654,51.8124654 26.3692962,52.0265038 26.3692962,52.2321962 C26.3692962,52.4446192 26.3318731,52.6492346 26.2570269,52.8460423 C26.1819115,53.0425808 26.0742192,53.2205423 25.93395,53.3796577 C25.7931423,53.5390423 25.6213731,53.6733885 25.4183731,53.7824269 C25.2156423,53.8917346 24.9892192,53.9590423 24.7396423,53.9838115 L26.6221038,57.0091577 L25.4980654,57.0091577 L23.8124115,54.0869269 L22.8100654,54.0869269 L22.8100654,57.0091577 L21.9108346,57.0091577 L21.9108346,50.3780038 Z" id="Fill-47" fill="#FFFFFF" mask="url(#mask-4)"></path>
                    <path d="M30.9119731,56.3348692 C31.2926654,56.3348692 31.6362038,56.2646 31.9423192,56.1240615 C32.2481654,55.9835231 32.5103962,55.7947923 32.7290115,55.5573308 C32.9476269,55.3201385 33.1164346,55.0406769 33.2348962,54.7192154 C33.3533577,54.3977538 33.4128577,54.0555615 33.4128577,53.6934462 C33.4128577,53.3316 33.3533577,52.9894077 33.2348962,52.6679462 C33.1164346,52.3464846 32.9476269,52.0667538 32.7290115,51.8295615 C32.5103962,51.5923692 32.2481654,51.4033692 31.9423192,51.2628308 C31.6362038,51.1225615 31.2926654,51.0522923 30.9119731,51.0522923 C30.5310115,51.0522923 30.1877423,51.1225615 29.8816269,51.2628308 C29.5755115,51.4033692 29.31355,51.5923692 29.0949346,51.8295615 C28.87605,52.0667538 28.7075115,52.3464846 28.58905,52.6679462 C28.4705885,52.9894077 28.4110885,53.3316 28.4110885,53.6934462 C28.4110885,54.0555615 28.4705885,54.3977538 28.58905,54.7192154 C28.7075115,55.0406769 28.87605,55.3201385 29.0949346,55.5573308 C29.31355,55.7947923 29.5755115,55.9835231 29.8816269,56.1240615 C30.1877423,56.2646 30.5310115,56.3348692 30.9119731,56.3348692 M30.9119731,57.1778308 C30.4060885,57.1778308 29.9411269,57.0889846 29.5162808,56.9110231 C29.0917038,56.7330615 28.7279731,56.4877923 28.4253577,56.1754846 C28.1222038,55.8634462 27.8850115,55.4951385 27.7132423,55.0705615 C27.5414731,54.6459846 27.4555885,54.1866769 27.4555885,53.6934462 C27.4555885,53.2002154 27.5414731,52.7411769 27.7132423,52.3166 C27.8850115,51.8920231 28.1222038,51.5237154 28.4253577,51.2114077 C28.7279731,50.8993692 29.0917038,50.6538308 29.5162808,50.4761385 C29.9411269,50.2981769 30.4060885,50.2090615 30.9119731,50.2090615 C31.4178577,50.2090615 31.8828192,50.2981769 32.3076654,50.4761385 C32.7322423,50.6538308 33.0957038,50.8993692 33.3985885,51.2114077 C33.7014731,51.5237154 33.9386654,51.8920231 34.1107038,52.3166 C34.2824731,52.7411769 34.3683577,53.2002154 34.3683577,53.6934462 C34.3683577,54.1866769 34.2824731,54.6459846 34.1107038,55.0705615 C33.9386654,55.4951385 33.7014731,55.8634462 33.3985885,56.1754846 C33.0957038,56.4877923 32.7322423,56.7330615 32.3076654,56.9110231 C31.8828192,57.0889846 31.4178577,57.1778308 30.9119731,57.1778308" id="Fill-48" fill="#FFFFFF" mask="url(#mask-4)"></path>
                    <polygon id="Fill-49" fill="#FFFFFF" mask="url(#mask-4)" points="35.8949769 50.3778692 37.0752846 50.3778692 40.7279385 55.8289846 40.7467846 55.8289846 40.7467846 50.3778692 41.6460154 50.3778692 41.6460154 57.0092923 40.5031308 57.0092923 36.8127846 51.5579077 36.7942077 51.5579077 36.7942077 57.0092923 35.8949769 57.0092923"></polygon>
                    <polygon id="Fill-50" fill="#FFFFFF" mask="url(#mask-4)" points="43.0322308 56.1663308 46.8071154 51.2208308 43.1445 51.2208308 43.1445 50.3778692 47.9308846 50.3778692 47.9308846 51.2208308 44.1748462 56.1663308 47.9871538 56.1663308 47.9871538 57.0092923 43.0322308 57.0092923"></polygon>
                    <polygon id="Fill-51" fill="#FFFFFF" mask="url(#mask-4)" points="49.3733423 50.3778692 53.6535731 50.3778692 53.6535731 51.2208308 50.2725731 51.2208308 50.2725731 53.1972538 53.4196115 53.1972538 53.4196115 54.0402154 50.2725731 54.0402154 50.2725731 56.1663308 53.8223808 56.1663308 53.8223808 57.0092923 49.3733423 57.0092923"></polygon>
                    <path d="M14.9195577,37.0380769 C14.9195577,36.8531154 14.8824038,36.701 14.8086346,36.5828077 C14.7345962,36.4640769 14.6344423,36.3714615 14.5087115,36.3046923 C14.3827115,36.2381923 14.2402885,36.1937692 14.0811731,36.1714231 C13.9217885,36.1493462 13.7570192,36.1383077 13.5868654,36.1383077 L12.7538654,36.1383077 L12.7538654,37.9933077 L13.5534808,37.9933077 C13.7311731,37.9933077 13.9015962,37.9782308 14.0642115,37.9488846 C14.2273654,37.919 14.3735577,37.8673077 14.5030577,37.7932692 C14.6325577,37.7192308 14.7345962,37.6209615 14.8086346,37.499 C14.8824038,37.3767692 14.9195577,37.2230385 14.9195577,37.0380769 M16.8189808,37.0267692 C16.8189808,37.4860769 16.7336346,37.8729615 16.5632115,38.1876923 C16.3930577,38.5021538 16.1636731,38.7560385 15.8747885,38.9485385 C15.5861731,39.1410385 15.2528654,39.2815769 14.8751346,39.3704231 C14.4976731,39.4592692 14.1051346,39.5036923 13.6977885,39.5036923 L12.7538654,39.5036923 L12.7538654,42.4692692 L10.8544423,42.4692692 L10.8544423,34.6055769 L13.7422115,34.6055769 C14.1716346,34.6055769 14.5733269,34.6483846 14.9475577,34.7331923 C15.32125,34.8185385 15.6470192,34.9553077 15.9245962,35.1443077 C16.2024423,35.3330385 16.4207885,35.5812692 16.5801731,35.8881923 C16.7392885,36.1956538 16.8189808,36.5752692 16.8189808,37.0267692" id="Fill-52" fill="#FFFFFF" mask="url(#mask-4)"></path>
                    <path d="M20.2400154,36.7046885 L19.2403615,39.4037269 L21.2173231,39.4037269 L20.2400154,36.7046885 Z M22.3502462,42.4691885 L21.7393615,40.9254192 L18.6962462,40.9254192 L18.1184769,42.4691885 L16.0526692,42.4691885 L19.3512846,34.6054962 L21.1952462,34.6054962 L24.4604769,42.4691885 L22.3502462,42.4691885 Z" id="Fill-53" fill="#FFFFFF" mask="url(#mask-4)"></path>
                    <path d="M28.9697962,37.0157308 C28.9697962,36.8307692 28.9304885,36.6808077 28.8521423,36.5658462 C28.7740654,36.4511538 28.6736423,36.3623077 28.5511423,36.2993077 C28.4281038,36.2363077 28.2907962,36.1937692 28.1381423,36.1714231 C27.9854885,36.1493462 27.8384885,36.1383077 27.6971423,36.1383077 L26.6816038,36.1383077 L26.6816038,37.9709615 L27.5856808,37.9709615 C27.7418346,37.9709615 27.9017577,37.9580385 28.0657192,37.9319231 C28.2294115,37.9063462 28.3782962,37.8600385 28.5121038,37.7932692 C28.6461808,37.7267692 28.7557577,37.6303846 28.8411038,37.5043846 C28.9269885,37.3786538 28.9697962,37.2155 28.9697962,37.0157308 L28.9697962,37.0157308 Z M29.0473346,42.4692692 L27.3401423,39.3480769 L26.6929115,39.3480769 L26.6929115,42.4692692 L24.8379115,42.4692692 L24.8379115,34.6055769 L27.8368731,34.6055769 C28.2143346,34.6055769 28.5829115,34.6443462 28.9417962,34.7221538 C29.30095,34.7999615 29.6232192,34.9313462 29.9080654,35.1165769 C30.1931808,35.3018077 30.42095,35.546 30.5911038,35.8494231 C30.7615269,36.1533846 30.8468731,36.5308462 30.8468731,36.9823462 C30.8468731,37.5154231 30.7025654,37.9636923 30.4134115,38.3263462 C30.1247962,38.6892692 29.7249885,38.9485385 29.2139885,39.1038846 L31.2687577,42.4692692 L29.0473346,42.4692692 Z" id="Fill-54" fill="#FFFFFF" mask="url(#mask-4)"></path>
                    <polygon id="Fill-55" fill="#FFFFFF" mask="url(#mask-4)" points="35.15645 36.2272346 35.15645 42.46935 33.2570269 42.46935 33.2570269 36.2272346 31.0356038 36.2272346 31.0356038 34.6056577 37.3778731 34.6056577 37.3778731 36.2272346"></polygon>
                    <polygon id="Fill-56" fill="#FFFFFF" mask="url(#mask-4)" points="42.9646538 42.4692154 39.7990385 37.3266385 39.7656538 37.3266385 39.8100769 42.4692154 37.9666538 42.4692154 37.9666538 34.6055231 40.1320769 34.6055231 43.2866538 39.7370615 43.3200385 39.7370615 43.2756154 34.6055231 45.1193077 34.6055231 45.1193077 42.4692154"></polygon>
                    <polygon id="Fill-57" fill="#FFFFFF" mask="url(#mask-4)" points="46.4630654 42.4692154 46.4630654 34.6055231 51.74995 34.6055231 51.74995 36.2047538 48.2957192 36.2047538 48.2957192 37.6933308 51.5612192 37.6933308 51.5612192 39.2147538 48.2957192 39.2147538 48.2957192 40.8476385 51.9499885 40.8476385 51.9499885 42.4692154"></polygon>
                    <path d="M57.0590462,37.0157308 C57.0590462,36.8307692 57.0197385,36.6808077 56.9413923,36.5658462 C56.8633154,36.4511538 56.7628923,36.3623077 56.6403923,36.2993077 C56.5173538,36.2363077 56.3800462,36.1937692 56.2273923,36.1714231 C56.0747385,36.1493462 55.9277385,36.1383077 55.7863923,36.1383077 L54.7708538,36.1383077 L54.7708538,37.9709615 L55.6749308,37.9709615 C55.8310846,37.9709615 55.9910077,37.9580385 56.1549692,37.9319231 C56.3186615,37.9063462 56.4675462,37.8600385 56.6013538,37.7932692 C56.7354308,37.7267692 56.8450077,37.6303846 56.9303538,37.5043846 C57.0162385,37.3786538 57.0590462,37.2155 57.0590462,37.0157308 L57.0590462,37.0157308 Z M57.1365846,42.4692692 L55.4293923,39.3480769 L54.7821615,39.3480769 L54.7821615,42.4692692 L52.9271615,42.4692692 L52.9271615,34.6055769 L55.9261231,34.6055769 C56.3035846,34.6055769 56.6721615,34.6443462 57.0310462,34.7221538 C57.3902,34.7999615 57.7124692,34.9313462 57.9973154,35.1165769 C58.2824308,35.3018077 58.5102,35.546 58.6803538,35.8494231 C58.8507769,36.1533846 58.9361231,36.5308462 58.9361231,36.9823462 C58.9361231,37.5154231 58.7918154,37.9636923 58.5026615,38.3263462 C58.2140462,38.6892692 57.8142385,38.9485385 57.3032385,39.1038846 L59.3580077,42.4692692 L57.1365846,42.4692692 Z" id="Fill-58" fill="#FFFFFF" mask="url(#mask-4)"></path>
                </g>
            </g>
        </g>
    </g>
</svg>