<svg width="364" height="331" viewBox="0 0 364 331" fill="none" xmlns="http://www.w3.org/2000/svg">
<rect x="183" width="331" height="183" rx="8" transform="rotate(90 183 0)" fill="#FF0000"/>
<rect x="18" y="254" width="100" height="12" rx="6" fill="#F5F8FA" fill-opacity="0.8"/>
<rect x="18" y="278" width="148" height="12" rx="6" fill="#F5F8FA" fill-opacity="0.8"/>
<rect x="17" y="224" width="148" height="12" rx="6" fill="white"/>
<rect x="75" y="21" width="21" height="4" rx="2" fill="white"/>
<circle cx="106" cy="23" r="3" fill="white"/>
<path d="M252.639 224.424C252.488 223.235 253.333 222.135 254.553 221.992C256.874 221.724 259.227 221.335 261.525 220.851C262.689 220.613 263.833 221.356 264.109 222.498C264.12 222.517 264.12 222.517 264.112 222.547C264.362 223.73 263.599 224.885 262.416 225.135C259.981 225.647 257.51 226.053 255.071 226.338C253.95 226.475 252.935 225.733 252.673 224.66C252.659 224.592 252.634 224.504 252.639 224.424ZM272.568 217.742C274.788 216.945 276.983 216.061 279.122 215.081C280.211 214.58 281.507 215.056 282.019 216.164C282.52 217.253 282.024 218.56 280.935 219.062C278.689 220.078 276.379 221.028 274.053 221.861C272.909 222.267 271.675 221.677 271.27 220.533C271.245 220.446 271.22 220.358 271.206 220.289C270.943 219.216 271.511 218.122 272.568 217.742ZM289.211 209.613C291.185 208.346 293.134 206.991 295.008 205.552C295.965 204.821 297.342 204.996 298.072 205.952C298.803 206.908 298.628 208.285 297.672 209.016C295.702 210.511 293.649 211.951 291.58 213.273C290.568 213.908 289.205 213.624 288.57 212.612C288.437 212.383 288.334 212.161 288.281 211.936C288.061 211.068 288.41 210.127 289.211 209.613ZM303.613 197.955C305.256 196.292 306.863 194.522 308.369 192.708C309.135 191.781 310.513 191.649 311.44 192.415C312.368 193.181 312.5 194.56 311.734 195.487C310.155 197.394 308.474 199.257 306.727 201.006C305.868 201.86 304.502 201.882 303.649 201.022C303.343 200.714 303.133 200.35 303.06 199.959C302.89 199.266 303.073 198.522 303.613 197.955ZM315.069 183.404C316.296 181.419 317.469 179.339 318.531 177.245C319.08 176.162 320.392 175.737 321.474 176.286C322.557 176.835 322.982 178.146 322.433 179.229C321.308 181.435 320.092 183.617 318.783 185.726C318.151 186.754 316.804 187.072 315.776 186.441C315.262 186.125 314.925 185.631 314.802 185.064C314.679 184.497 314.761 183.888 315.069 183.404ZM323.005 166.648C323.763 164.424 324.438 162.146 325.015 159.873C325.311 158.707 326.506 157.991 327.673 158.288C328.839 158.584 329.544 159.76 329.258 160.945C328.649 163.339 327.942 165.738 327.151 168.083C326.764 169.225 325.503 169.825 324.38 169.427C323.642 169.165 323.121 168.572 322.959 167.849C322.866 167.468 322.881 167.052 323.005 166.648ZM310.988 86.508C311.944 85.7773 313.321 85.952 314.052 86.9083C315.546 88.8782 316.987 90.9306 318.301 93.0302C318.947 94.0608 318.651 95.4055 317.621 96.0516C316.609 96.6867 315.264 96.3911 314.599 95.3716C313.351 93.3868 311.966 91.4301 310.557 89.564C310.364 89.3181 310.237 89.0089 310.169 88.7158C309.993 87.9243 310.296 87.0348 310.988 86.508ZM327.051 148.591C327.307 146.249 327.453 143.893 327.5 141.543C327.516 140.334 328.518 139.373 329.738 139.409C330.948 139.425 331.89 140.438 331.873 141.647C331.824 144.126 331.657 146.621 331.388 149.073C331.262 150.269 330.185 151.146 328.989 151.02C328.032 150.909 327.297 150.21 327.096 149.331C327.051 149.076 327.036 148.83 327.051 148.591ZM321.161 102.582C322.25 102.081 323.558 102.577 324.059 103.666C325.075 105.912 326.006 108.233 326.839 110.559C327.244 111.704 326.655 112.937 325.511 113.342C324.366 113.748 323.133 113.158 322.728 112.014C321.931 109.795 321.047 107.6 320.086 105.449C320.028 105.304 319.98 105.178 319.952 105.041C319.715 104.056 320.207 103.006 321.161 102.582ZM326.95 130.07C326.671 127.73 326.293 125.396 325.809 123.098C325.56 121.915 326.322 120.76 327.505 120.511C328.669 120.273 329.813 121.016 330.071 122.169C330.082 122.188 330.082 122.188 330.074 122.218C330.575 124.634 330.981 127.105 331.277 129.563C331.408 130.763 330.552 131.844 329.363 131.995C328.242 132.131 327.227 131.39 326.984 130.306C326.959 130.218 326.945 130.15 326.95 130.07Z" fill="#D1D5D9"/>
<path d="M299.828 77.4337C299.923 77.8637 300.144 78.2465 300.48 78.563C301.309 79.3351 302.138 80.1073 302.958 80.9096C303.812 81.7694 305.207 81.7549 306.037 80.8931C306.897 80.0394 306.882 78.644 306.02 77.8145C305.178 76.9739 304.297 76.1553 303.427 75.356C302.527 74.5485 301.154 74.6012 300.346 75.5013C299.852 76.0162 299.669 76.76 299.828 77.4337Z" fill="#D1D5D9"/>
<path d="M173.238 89.7681C173.935 88.788 175.285 88.532 176.287 89.2351C177.267 89.9325 177.523 91.2825 176.826 92.2626C175.518 94.1546 174.263 96.1064 173.081 98.1238C172.485 99.1539 171.128 99.5224 170.103 98.9047C169.052 98.3026 168.705 96.951 169.322 95.9267C169.83 95.056 170.359 94.191 170.883 93.3474C171.622 92.1267 172.425 90.9232 173.238 89.7681ZM166.873 105.407C167.986 105.866 168.512 107.15 168.053 108.263C167.181 110.409 166.367 112.594 165.659 114.807C165.308 115.948 164.058 116.597 162.922 116.224C161.781 115.873 161.132 114.623 161.505 113.487C162.241 111.168 163.089 108.855 164.012 106.608C164.067 106.486 164.117 106.385 164.189 106.289C164.751 105.388 165.883 105.004 166.873 105.407ZM180.685 80.5059C182.329 78.7268 184.079 76.9763 185.887 75.3554C186.769 74.5393 188.146 74.6107 188.962 75.493C189.778 76.3753 189.707 77.7519 188.824 78.5681C187.125 80.1264 185.446 81.7816 183.895 83.4711C183.087 84.3528 181.697 84.4152 180.821 83.5856C180.029 82.8699 179.909 81.6937 180.46 80.8345C180.516 80.7121 180.593 80.5955 180.685 80.5059ZM161.223 123.251C162.404 123.453 163.2 124.582 162.998 125.763C162.617 128.041 162.315 130.362 162.11 132.664C162.015 133.874 160.954 134.757 159.744 134.662C158.534 134.566 157.651 133.506 157.746 132.296C157.959 129.882 158.273 127.426 158.683 125.042C158.736 124.759 158.832 124.487 158.986 124.253C159.46 123.511 160.324 123.102 161.223 123.251ZM195.196 67.942C197.192 66.5548 199.278 65.2604 201.411 64.0471C202.461 63.4589 203.785 63.8136 204.394 64.8693C204.982 65.9193 204.628 67.243 203.572 67.8525C201.569 69.009 199.591 70.2409 197.687 71.5385C196.705 72.2136 195.332 71.9599 194.657 70.9781C194.144 70.2457 194.149 69.2861 194.611 68.5862C194.744 68.3472 194.941 68.1253 195.196 67.942ZM212.108 58.8819C214.364 57.9763 216.689 57.1577 219.012 56.4301C220.16 56.0741 221.382 56.722 221.738 57.8699C222.094 59.0179 221.447 60.2401 220.299 60.596C218.099 61.2882 215.877 62.0657 213.751 62.9145C212.622 63.3673 211.35 62.8205 210.919 61.6981C210.641 61.0286 210.744 60.3012 211.102 59.7335C211.312 59.3779 211.671 59.0622 212.108 58.8819ZM230.585 53.7191C232.977 53.3305 235.438 53.0287 237.849 52.8281C239.041 52.7356 240.103 53.6381 240.196 54.8298C240.288 56.0216 239.386 57.084 238.194 57.1765C235.901 57.3631 233.565 57.6294 231.285 58.0253C230.091 58.2089 228.979 57.4074 228.768 56.2298C228.686 55.6815 228.802 55.1634 229.083 54.7124C229.403 54.2031 229.94 53.8208 230.585 53.7191ZM249.753 52.7229C252.185 52.871 254.636 53.116 257.038 53.4621C258.225 53.6429 259.054 54.7345 258.894 55.9273C258.714 57.1145 257.622 57.9432 256.429 57.7838C254.14 57.445 251.822 57.213 249.497 57.0934C248.303 57.025 247.366 55.996 247.44 54.7802C247.473 54.4001 247.592 54.0429 247.763 53.7456C248.192 53.0826 248.923 52.6606 249.753 52.7229ZM268.684 55.942C271.021 56.614 273.351 57.3984 275.637 58.2626C276.755 58.6996 277.335 59.9532 276.898 61.0717C276.461 62.1902 275.207 62.7695 274.088 62.3325C271.931 61.5027 269.702 60.7683 267.493 60.1306C266.325 59.7946 265.664 58.5879 266 57.4195C266.052 57.2273 266.151 57.0253 266.24 56.8659C266.746 56.0863 267.729 55.6632 268.684 55.942ZM286.432 63.2373C288.01 64.0949 289.57 65.0165 291.077 65.9693C291.623 66.3217 292.17 66.674 292.695 67.0206C293.708 67.681 294.006 69.0424 293.325 70.0496C292.664 71.0625 291.308 71.3399 290.296 70.6795C289.792 70.3386 289.261 70.0134 288.752 69.6938C287.325 68.7852 285.817 67.9235 284.34 67.1158C283.283 66.5351 282.881 65.2148 283.462 64.1577C283.473 64.115 283.506 64.078 283.539 64.041C284.151 63.0381 285.411 62.6894 286.432 63.2373Z" fill="#D1D5D9"/>
<path d="M157.905 142.979C157.668 143.351 157.554 143.778 157.568 144.239C157.639 145.425 157.71 146.611 157.824 147.809C157.938 149.006 159.006 149.887 160.204 149.773C161.401 149.659 162.282 148.591 162.168 147.394C162.059 146.266 161.976 145.123 161.909 144.006C161.843 142.799 160.808 141.881 159.622 141.952C158.897 142.01 158.263 142.412 157.905 142.979Z" fill="#D1D5D9"/>
<path d="M193.94 183.57C194.184 183.924 194.626 184.101 195.046 183.99L207.07 180.852C211.291 184.808 216.198 188.146 221.614 190.621L223.271 202.91C223.338 203.352 223.647 203.683 224.089 203.772L238.699 206.689C239.119 206.778 239.561 206.579 239.782 206.203L246.06 195.505C252.027 195.307 257.818 194.135 263.256 192.102L273.136 199.616C273.49 199.882 273.954 199.904 274.33 199.661L286.729 191.395C287.083 191.151 287.26 190.709 287.149 190.289L284.011 178.266C287.967 174.044 291.305 169.138 293.78 163.723L306.07 162.065C306.512 161.999 306.843 161.689 306.932 161.247L309.849 146.638C309.938 146.218 309.739 145.776 309.363 145.555L298.665 139.278C298.466 133.31 297.295 127.52 295.261 122.083L302.776 112.203C303.042 111.849 303.064 111.385 302.821 111.009L294.554 98.6102C294.311 98.2566 293.869 98.0797 293.449 98.1903L281.425 101.329C277.203 97.3725 272.296 94.0351 266.881 91.5596L265.223 79.2709C265.157 78.8289 264.847 78.4973 264.405 78.4089L249.795 75.4915C249.375 75.4031 248.933 75.602 248.712 75.9777L242.435 86.6751C236.467 86.874 230.676 88.0454 225.238 90.0788L215.358 82.5641C215.005 82.2989 214.541 82.2768 214.165 82.5199L201.765 90.7861C201.411 91.0292 201.234 91.4712 201.345 91.8912L204.484 103.915C200.527 108.136 197.19 113.043 194.714 118.458L182.425 120.115C182.005 120.182 181.651 120.491 181.563 120.933L178.645 135.543C178.557 135.963 178.756 136.405 179.131 136.626L189.829 142.903C190.028 148.87 191.2 154.661 193.233 160.098L185.718 169.978C185.453 170.331 185.431 170.795 185.674 171.171L193.94 183.57Z" fill="#EAEDF0"/>
<path d="M230.721 134.681C234.28 127.233 243.231 124.05 250.68 127.609C254.283 129.333 257.024 132.361 258.35 136.118C259.676 139.898 259.477 143.942 257.753 147.567C254.195 155.015 245.243 158.198 237.794 154.64C231.008 151.413 227.781 143.699 229.925 136.737C230.124 136.03 230.389 135.345 230.721 134.681ZM255.057 137.29C254.04 134.394 251.94 132.073 249.177 130.769C243.475 128.051 236.6 130.482 233.882 136.184C231.163 141.887 233.594 148.761 239.297 151.479C245 154.198 251.874 151.766 254.592 146.064C254.836 145.556 255.034 145.025 255.211 144.473C255.941 142.13 255.874 139.632 255.057 137.29Z" fill="#D1D5D9"/>
<path d="M207.951 134.86L207.951 134.858C207.961 134.803 207.97 134.747 207.98 134.691C208.037 134.367 208.097 134.023 208.173 133.679C208.418 132.434 208.729 131.189 209.108 129.987C209.108 129.986 209.108 129.986 209.108 129.986L209.346 130.061C211.822 121.994 216.972 115.076 224.089 110.302L207.951 134.86ZM207.951 134.86C207.617 136.819 207.461 138.8 207.439 140.778L207.439 140.781L207.439 140.781L207.439 140.781L207.439 140.781L207.439 140.781L207.439 140.781L207.439 140.782L207.439 140.782L207.439 140.782L207.439 140.782L207.439 140.782L207.439 140.782L207.439 140.782L207.439 140.782L207.439 140.783L207.439 140.783L207.439 140.783L207.439 140.783L207.439 140.783L207.439 140.783L207.439 140.783L207.439 140.784L207.439 140.784L207.439 140.784L207.439 140.784L207.439 140.784L207.439 140.784L207.439 140.784L207.439 140.784L207.439 140.785L207.439 140.785L207.439 140.785L207.439 140.785L207.439 140.785L207.439 140.785L207.439 140.785L207.439 140.785L207.439 140.786L207.439 140.786L207.439 140.786L207.439 140.786L207.439 140.786L207.439 140.786L207.439 140.786L207.439 140.787L207.439 140.787L207.439 140.787L207.439 140.787L207.439 140.787L207.439 140.787L207.439 140.787L207.439 140.787L207.439 140.788L207.439 140.788L207.439 140.788L207.439 140.788L207.439 140.788L207.439 140.788L207.439 140.788L207.439 140.788L207.439 140.789L207.439 140.789L207.439 140.789L207.439 140.789L207.439 140.789L207.439 140.789L207.439 140.789L207.439 140.79L207.439 140.79L207.439 140.79L207.439 140.79L207.439 140.79L207.439 140.79L207.439 140.79L207.439 140.79L207.439 140.791L207.439 140.791L207.439 140.791L207.439 140.791L207.439 140.791L207.439 140.791L207.439 140.791L207.439 140.792L207.439 140.792L207.439 140.792L207.439 140.792L207.439 140.792L207.439 140.792L207.439 140.792L207.439 140.792L207.439 140.793L207.439 140.793L207.439 140.793L207.439 140.793L207.439 140.793L207.439 140.793L207.439 140.793L207.439 140.794L207.439 140.794L207.439 140.794L207.439 140.794L207.439 140.794L207.439 140.794L207.439 140.794L207.439 140.794L207.439 140.795L207.439 140.795L207.439 140.795L207.439 140.795L207.439 140.795L207.439 140.795L207.439 140.795L207.439 140.796L207.439 140.796L207.439 140.796L207.439 140.796L207.439 140.796L207.439 140.796L207.439 140.796L207.439 140.796L207.439 140.797L207.439 140.797L207.439 140.797L207.439 140.797L207.439 140.797L207.439 140.797L207.439 140.797L207.439 140.798L207.439 140.798L207.439 140.798L207.439 140.798L207.439 140.798L207.439 140.798L207.439 140.798L207.439 140.799L207.439 140.799L207.439 140.799L207.439 140.799L207.439 140.799L207.439 140.799L207.439 140.799L207.439 140.8L207.439 140.8L207.439 140.8L207.439 140.8L207.439 140.8L207.439 140.8L207.439 140.8L207.439 140.801L207.439 140.801L207.439 140.801L207.439 140.801L207.439 140.801L207.439 140.801L207.439 140.801L207.439 140.801L207.439 140.802L207.439 140.802L207.439 140.802L207.439 140.802L207.439 140.802L207.439 140.802L207.439 140.802L207.439 140.803L207.439 140.803L207.439 140.803L207.439 140.803L207.439 140.803L207.439 140.803L207.439 140.803L207.439 140.804L207.439 140.804L207.439 140.804L207.439 140.804L207.439 140.804L207.439 140.804L207.439 140.804L207.439 140.805L207.439 140.805L207.439 140.805L207.439 140.805L207.439 140.805L207.439 140.805L207.439 140.806L207.439 140.806L207.439 140.806L207.439 140.806L207.439 140.806L207.439 140.806L207.439 140.806L207.439 140.807L207.439 140.807L207.439 140.807L207.439 140.807L207.439 140.807L207.439 140.807L207.439 140.807L207.439 140.808L207.439 140.808L207.439 140.808L207.439 140.808L207.439 140.808L207.439 140.808L207.439 140.808L207.439 140.809L207.439 140.809L207.439 140.809L207.439 140.809L207.439 140.809L207.439 140.809L207.439 140.81L207.439 140.81L207.439 140.81L207.439 140.81L207.439 140.81L207.439 140.81L207.439 140.81L207.439 140.811L207.439 140.811L207.439 140.811L207.439 140.811L207.439 140.811L207.439 140.811L207.439 140.812L207.439 140.812L207.439 140.812L207.439 140.812L207.439 140.812L207.439 140.812L207.439 140.812L207.439 140.813L207.439 140.813L207.439 140.813L207.439 140.813L207.439 140.813L207.439 140.813L207.439 140.814L207.439 140.814L207.439 140.814L207.439 140.814L207.439 140.814L207.439 140.814L207.439 140.814L207.439 140.815L207.439 140.815L207.439 140.815L207.439 140.815L207.439 140.815L207.439 140.815L207.439 140.816L207.439 140.816L207.439 140.816L207.439 140.816L207.439 140.816L207.439 140.816L207.439 140.817L207.439 140.817L207.439 140.817L207.439 140.817L207.439 140.817L207.439 140.817L207.439 140.818L207.439 140.818L207.439 140.818L207.439 140.818L207.439 140.818L207.439 140.818L207.439 140.819L207.439 140.819L207.439 140.819L207.439 140.819L207.439 140.819L207.439 140.819L207.439 140.82L207.439 140.82L207.439 140.82L207.439 140.82L207.439 140.82L207.439 140.82L207.439 140.821L207.439 140.821L207.439 140.821L207.439 140.821L207.439 140.821L207.439 140.821L207.439 140.822L207.439 140.822L207.439 140.822L207.439 140.822L207.439 140.822L207.439 140.822L207.439 140.823L207.439 140.823L207.439 140.823L207.439 140.823L207.439 140.823L207.439 140.823L207.439 140.824L207.439 140.824L207.439 140.824L207.439 140.824L207.439 140.824L207.439 140.824L207.439 140.825L207.439 140.825L207.439 140.825L207.439 140.825L207.439 140.825L207.439 140.826L207.439 140.826L207.439 140.826L207.439 140.826L207.439 140.826L207.439 140.826L207.439 140.827L207.439 140.827L207.439 140.827L207.439 140.827L207.439 140.827L207.439 140.827L207.439 140.828L207.439 140.828L207.439 140.828L207.439 140.828L207.439 140.828L207.439 140.829L207.439 140.829L207.439 140.829L207.439 140.829L207.439 140.829L207.439 140.829L207.439 140.83L207.439 140.83L207.439 140.83L207.439 140.83L207.439 140.83L207.439 140.831L207.439 140.831L207.439 140.831L207.439 140.831L207.439 140.831L207.439 140.832L207.439 140.832L207.439 140.832L207.439 140.832L207.439 140.832L207.439 140.832L207.439 140.833L207.439 140.833L207.439 140.833L207.439 140.833L207.439 140.833L207.439 140.834L207.439 140.834L207.439 140.834L207.439 140.834L207.439 140.834L207.439 140.835L207.439 140.835L207.439 140.835L207.439 140.835L207.439 140.835L207.439 140.836L207.439 140.836L207.439 140.836L207.439 140.836L207.439 140.836L207.439 140.836L207.439 140.837L207.439 140.837L207.439 140.837L207.439 140.837L207.439 140.837L207.439 140.838L207.439 140.838L207.439 140.838L207.439 140.838L207.439 140.838L207.439 140.839L207.439 140.839L207.439 140.839L207.439 140.839L207.439 140.839L207.439 140.84L207.439 140.84L207.439 140.84L207.439 140.84L207.439 140.84L207.439 140.841L207.439 140.841L207.439 140.841L207.439 140.841L207.439 140.841L207.439 140.842L207.439 140.842L207.439 140.842L207.439 140.842L207.439 140.843L207.439 140.843L207.439 140.843L207.439 140.843L207.439 140.843L207.439 140.844L207.439 140.844L207.439 140.844L207.439 140.844L207.439 140.844L207.439 140.845L207.439 140.845L207.439 140.845L207.439 140.845L207.439 140.845L207.439 140.846L207.439 140.846L207.439 140.846L207.439 140.846L207.439 140.847L207.439 140.847L207.439 140.847L207.439 140.847L207.439 140.847L207.439 140.848L207.439 140.848L207.439 140.848L207.439 140.848L207.439 140.848L207.439 140.849L207.439 140.849L207.439 140.849L207.439 140.849L207.439 140.85L207.439 140.85L207.439 140.85L207.439 140.85L207.439 140.85L207.439 140.851L207.439 140.851L207.439 140.851L207.439 140.851L207.439 140.852L207.439 140.852L207.439 140.852L207.439 140.852L207.439 140.852L207.439 140.853L207.439 140.853L207.439 140.853L207.439 140.853L207.439 140.854L207.439 140.854L207.439 140.854L207.439 140.854L207.439 140.855L207.439 140.855L207.439 140.855L207.439 140.855L207.439 140.855L207.439 140.856L207.439 140.856L207.439 140.856L207.439 140.856L207.439 140.857L207.439 140.857L207.439 140.857L207.439 140.857L207.439 140.858L207.439 140.858L207.439 140.858L207.439 140.858L207.439 140.859L207.439 140.859L207.439 140.859L207.439 140.859L207.439 140.859L207.439 140.86L207.439 140.86L207.439 140.86L207.439 140.86L207.439 140.861L207.439 140.861L207.439 140.861L207.439 140.861L207.439 140.862L207.439 140.862L207.439 140.862L207.439 140.862L207.439 140.863L207.439 140.863L207.439 140.863L207.439 140.863L207.439 140.864L207.439 140.864L207.439 140.864L207.439 140.864L207.439 140.865L207.439 140.865L207.439 140.865L207.439 140.865L207.439 140.866L207.439 140.866L207.439 140.866L207.439 140.866L207.439 140.867L207.439 140.867L207.439 140.867L207.439 140.867L207.439 140.868L207.439 140.868L207.439 140.868L207.439 140.868L207.439 140.869L207.439 140.869L207.439 140.869L207.439 140.87L207.439 140.87L207.439 140.87L207.439 140.871L207.439 140.871L207.439 140.872L207.439 140.872L207.439 140.872L207.439 140.873L207.439 140.873L207.439 140.874L207.439 140.874L207.439 140.874L207.439 140.875L207.439 140.875L207.439 140.875L207.439 140.876L207.439 140.876L207.439 140.877L207.439 140.877L207.439 140.877L207.439 140.878L207.439 140.878L207.439 140.879L207.439 140.879L207.439 140.879L207.439 140.88L207.439 140.88L207.439 140.881L207.439 140.881L207.439 140.881L207.439 140.882L207.439 140.882L207.439 140.883L207.439 140.883L207.439 140.884L207.439 140.884L207.439 140.884L207.439 140.885L207.439 140.885L207.439 140.886L207.439 140.886L207.439 140.886L207.439 140.887L207.439 140.887L207.439 140.888L207.439 140.888L207.439 140.888L207.439 140.889L207.439 140.889L207.439 140.89L207.439 140.89L207.439 140.89L207.439 140.891L207.439 140.891L207.439 140.892L207.439 140.892L207.439 140.893L207.439 140.893L207.439 140.893L207.439 140.894L207.439 140.894L207.439 140.895L207.439 140.895L207.439 140.895L207.439 140.896L207.439 140.896L207.439 140.897L207.439 140.897L207.439 140.898L207.439 140.898L207.439 140.898L207.439 140.899L207.439 140.899L207.439 140.9L207.439 140.9L207.439 140.9L207.439 140.901L207.439 140.901L207.439 140.902L207.439 140.902L207.439 140.903L207.439 140.903L207.439 140.903L207.439 140.904L207.439 140.904L207.439 140.905L207.439 140.905L207.439 140.906L207.439 140.906L207.439 140.906L207.439 140.907L207.439 140.907L207.439 140.908L207.439 140.908L207.439 140.909L207.439 140.909L207.439 140.909L207.439 140.91L207.439 140.91L207.439 140.911L207.439 140.911L207.439 140.912L207.439 140.912L207.439 140.912L207.439 140.913L207.439 140.913L207.439 140.914L207.439 140.914L207.439 140.915L207.439 140.915L207.439 140.915L207.439 140.916L207.439 140.916L207.439 140.917L207.439 140.917L207.439 140.918L207.439 140.918L207.439 140.918L207.439 140.919L207.439 140.919L207.439 140.92L207.439 140.92L207.439 140.921L207.439 140.921L207.439 140.922L207.439 140.922L207.439 140.922L207.439 140.923L207.439 140.923L207.439 140.924L207.439 140.924L207.439 140.925L207.439 140.925L207.439 140.925L207.439 140.926L207.439 140.926L207.439 140.927L207.439 140.927L207.439 140.928L207.439 140.928L207.439 140.929L207.439 140.929L207.439 140.929L207.439 140.93L207.439 140.93L207.439 140.931L207.439 140.931L207.439 140.932L207.439 140.932L207.439 140.933L207.439 140.933L207.439 140.933L207.439 140.934L207.439 140.934L207.439 140.935L207.439 140.935L207.439 140.936L207.439 140.936L207.439 140.937L207.439 140.937L207.439 140.937L207.439 140.938L207.439 140.938L207.439 140.939L207.439 140.939L207.439 140.94L207.439 140.94L207.439 140.941L207.439 140.941L207.439 140.941L207.439 140.942L207.439 140.942L207.439 140.943L207.439 140.943L207.439 140.944L207.439 140.944L207.439 140.945L207.439 140.945L207.439 140.945L207.439 140.946L207.439 140.946L207.439 140.947L207.439 140.947L207.439 140.948L207.439 140.948L207.439 140.949L207.439 140.949L207.439 140.949L207.439 140.95L207.439 140.95L207.439 140.951L207.439 140.951L207.439 140.952L207.439 140.952L207.439 140.953L207.439 140.953L207.439 140.954L207.439 140.954L207.439 140.954L207.439 140.955L207.439 140.955L207.439 140.956L207.439 140.956L207.439 140.957L207.439 140.957L207.439 140.958L207.439 140.958L207.439 140.958L207.439 140.959L207.439 140.959L207.439 140.96L207.439 140.96L207.439 140.961L207.439 140.961L207.439 140.962L207.439 140.962L207.439 140.963L207.439 140.963L207.439 140.963L207.439 140.964L207.439 140.964L207.439 140.965L207.439 140.965L207.439 140.966L207.439 140.966L207.439 140.967L207.439 140.967L207.439 140.967L207.439 140.968L207.439 140.968L207.439 140.969L207.439 140.969L207.439 140.97L207.439 140.97L207.439 140.971L207.439 140.971L207.439 140.972L207.439 140.972L207.439 140.972L207.439 140.973L207.439 140.973L207.439 140.974L207.439 140.974L207.439 140.975L207.439 140.975L207.439 140.976L207.439 140.976L207.439 140.977L207.439 140.977L207.439 140.977L207.439 140.978L207.439 140.978L207.439 140.979L207.439 140.979L207.439 140.98L207.439 140.98L207.439 140.981L207.439 140.981L207.439 140.982L207.439 140.982L207.439 140.982L207.439 140.983L207.439 140.983L207.439 140.984L207.439 140.984L207.439 140.985L207.439 140.985L207.439 140.986L207.439 140.986L207.439 140.987L207.439 140.987L207.439 140.987L207.439 140.988L207.439 140.988L207.439 140.989L207.439 140.989L207.439 140.99L207.439 140.99L207.439 140.991L207.439 140.991L207.439 140.992L207.439 140.992L207.439 140.992L207.439 140.993L207.439 140.993L207.439 140.994L207.439 140.994L207.439 140.995L207.439 140.995L207.439 140.996L207.439 140.996L207.439 140.996L207.439 140.997L207.439 140.997L207.439 140.998L207.439 140.998L207.439 140.999L207.439 140.999L207.439 141L207.439 141L207.439 141.001L207.439 141.001L207.439 141.001L207.439 141.002L207.439 141.002L207.439 141.003L207.439 141.003L207.439 141.004L207.439 141.004L207.439 141.005L207.439 141.005L207.439 141.006L207.439 141.006L207.439 141.006L207.439 141.007L207.439 141.007L207.439 141.008L207.439 141.008L207.439 141.009L207.439 141.009L207.439 141.01L207.439 141.01L207.439 141.01L207.439 141.011L207.439 141.011L207.439 141.012L207.439 141.012L207.439 141.013L207.439 141.013L207.439 141.014L207.439 141.014L207.439 141.014L207.439 141.015L207.439 141.015L207.439 141.016L207.439 141.016L207.439 141.017L207.439 141.017L207.439 141.018L207.439 141.018L207.439 141.019L207.439 141.019L207.439 141.019L207.439 141.02L207.439 141.02L207.439 141.021L207.439 141.021L207.439 141.022L207.439 141.022L207.439 141.023L207.439 141.023L207.439 141.023L207.439 141.024L207.439 141.024L207.439 141.025L207.439 141.025L207.439 141.026L207.439 141.026L207.439 141.026L207.439 141.027L207.439 141.027L207.439 141.028L207.439 141.028L207.439 141.029L207.439 141.029L207.439 141.03L207.439 141.03L207.439 141.03L207.439 141.031L207.439 141.031L207.439 141.032L207.439 141.032L207.439 141.033L207.439 141.033L207.439 141.034L207.439 141.034L207.439 141.034L207.439 141.035L207.439 141.035L207.439 141.036L207.439 141.036L207.439 141.037L207.439 141.037L207.439 141.037L207.439 141.038L207.439 141.038L207.439 141.039L207.439 141.039L207.439 141.04L207.439 141.04L207.439 141.041L207.439 141.041L207.439 141.041L207.439 141.042L207.439 141.042L207.439 141.043L207.439 141.043L207.439 141.044L207.439 141.044L207.439 141.044L207.439 141.045L207.439 141.045L207.439 141.046L207.439 141.046L207.439 141.047L207.439 141.047L207.439 141.047L207.439 141.048L207.439 141.048L207.439 141.049L207.439 141.049L207.439 141.05L207.439 141.05L207.439 141.05L207.439 141.051L207.439 141.051L207.439 141.052L207.439 141.052L207.439 141.053L207.439 141.053L207.439 141.053L207.439 141.054L207.439 141.054L207.439 141.055L207.439 141.055L207.439 141.056L207.439 141.056L207.439 141.056L207.439 141.057L207.439 141.057L207.439 141.058L207.439 141.058L207.439 141.059L207.439 141.059L207.439 141.059L207.439 141.06L207.439 141.06L207.439 141.061L207.439 141.061L207.439 141.061L207.439 141.062L207.439 141.062L207.439 141.063L207.439 141.063L207.439 141.064L207.439 141.064L207.439 141.064L207.439 141.065L207.439 141.065L207.439 141.066L207.439 141.066L207.439 141.067L207.439 141.067L207.439 141.067L207.439 141.068L207.439 141.068L207.439 141.069L207.439 141.069L207.439 141.069L207.439 141.07L207.439 141.07L207.439 141.071L207.439 141.071L207.439 141.071L207.439 141.072L207.439 141.072L207.439 141.073L207.439 141.073L207.439 141.074L207.439 141.074L207.439 141.074L207.439 141.075L207.439 141.075L207.439 141.076L207.439 141.076L207.439 141.076L207.439 141.077L207.439 141.077L207.439 141.078L207.439 141.078L207.439 141.078L207.439 141.079L207.439 141.079L207.439 141.08L207.439 141.08L207.439 141.08L207.439 141.081L207.439 141.081L207.439 141.082L207.439 141.082L207.439 141.082L207.439 141.083L207.439 141.083L207.439 141.084L207.439 141.084L207.439 141.084L207.439 141.085L207.439 141.085L207.439 141.086L207.439 141.086L207.439 141.086L207.439 141.087L207.439 141.087L207.439 141.088L207.439 141.088L207.439 141.088L207.439 141.089L207.439 141.089L207.439 141.089L207.439 141.09L207.439 141.09L207.439 141.091L207.439 141.092L207.439 141.093L207.439 141.094L207.439 141.095L207.439 141.096L207.439 141.097L207.439 141.097L207.439 141.098L207.439 141.099L207.439 141.1L207.439 141.101L207.439 141.102L207.439 141.103L207.439 141.104L207.439 141.105L207.439 141.106L207.439 141.106L207.439 141.107L207.439 141.108L207.439 141.109L207.439 141.11L207.439 141.111L207.439 141.112L207.439 141.113L207.439 141.114L207.439 141.115L207.439 141.115L207.439 141.116L207.439 141.117L207.439 141.118L207.439 141.119L207.439 141.12L207.439 141.121L207.439 141.122L207.439 141.123L207.439 141.123L207.439 141.124L207.439 141.125L207.439 141.126L207.439 141.127L207.439 141.128L207.439 141.129L207.439 141.13L207.439 141.131L207.439 141.131L207.439 141.132L207.439 141.133L207.439 141.134L207.439 141.135L207.439 141.136L207.439 141.137L207.439 141.138L207.439 141.139L207.439 141.139L207.439 141.14L207.439 141.141L207.439 141.142L207.439 141.143L207.439 141.144L207.439 141.145L207.439 141.146L207.439 141.146L207.439 141.147L207.439 141.148L207.439 141.149L207.439 141.15L207.439 141.151L207.439 141.152L207.439 141.153L207.439 141.153L207.439 141.154L207.439 141.155L207.439 141.156L207.439 141.157L207.439 141.158L207.439 141.159L207.439 141.16L207.439 141.16L207.439 141.161L207.439 141.162L207.439 141.163L207.439 141.164L207.439 141.165L207.439 141.166L207.439 141.167L207.439 141.167L207.439 141.168L207.439 141.169L207.439 141.17L207.439 141.171L207.439 141.172L207.439 141.173L207.439 141.173L207.439 141.174L207.439 141.175L207.439 141.176L207.439 141.177L207.439 141.178L207.439 141.179L207.439 141.18L207.439 141.18L207.439 141.181L207.439 141.182L207.439 141.183L207.439 141.184L207.439 141.185L207.439 141.186L207.439 141.186L207.439 141.187L207.439 141.188L207.439 141.189L207.439 141.19L207.439 141.191L207.439 141.192L207.439 141.193L207.439 141.193L207.439 141.194L207.439 141.195L207.439 141.196L207.439 141.197L207.439 141.198L207.439 141.199L207.439 141.199L207.439 141.2L207.439 141.201L207.439 141.202L207.439 141.203L207.439 141.204L207.439 141.205L207.439 141.205L207.439 141.206L207.439 141.207L207.439 141.208L207.439 141.209L207.439 141.21L207.439 141.211L207.439 141.211L207.439 141.212L207.439 141.213L207.439 141.214L207.439 141.215L207.439 141.216L207.439 141.217L207.439 141.217L207.439 141.218L207.439 141.219L207.439 141.22L207.439 141.221L207.439 141.222L207.439 141.222L207.439 141.223L207.439 141.224L207.439 141.225L207.439 141.226L207.439 141.227L207.439 141.228L207.439 141.228L207.439 141.229L207.439 141.23L207.439 141.231L207.439 141.232L207.439 141.233L207.439 141.234L207.439 141.234L207.439 141.235L207.439 141.236L207.439 141.237L207.439 141.238L207.439 141.239L207.439 141.24L207.439 141.24L207.439 141.241L207.439 141.242L207.439 141.243L207.439 141.244L207.439 141.245L207.439 141.245L207.439 141.246L207.439 141.247L207.439 141.248L207.439 141.249L207.439 141.25L207.439 141.251L207.439 141.251L207.439 141.252L207.439 141.253L207.439 141.254L207.439 141.255L207.439 141.256L207.439 141.256L207.439 141.257L207.439 141.258L207.439 141.259L207.439 141.26L207.439 141.261L207.439 141.262L207.439 141.262L207.439 141.263L207.439 141.264L207.439 141.265L207.439 141.266L207.439 141.267L207.439 141.267L207.439 141.268L207.439 141.269L207.439 141.27L207.439 141.271L207.439 141.272L207.439 141.273L207.439 141.273L207.439 141.274L207.439 141.275L207.439 141.276L207.439 141.277L207.439 141.278L207.439 141.278L207.439 141.279L207.439 141.28L207.439 141.281L207.439 141.282L207.439 141.283L207.439 141.283L207.439 141.284L207.439 141.285L207.439 141.286L207.439 141.287L207.439 141.288L207.439 141.289L207.439 141.289L207.439 141.29L207.439 141.291L207.439 141.292L207.439 141.293L207.439 141.294L207.439 141.294L207.439 141.295L207.439 141.296L207.439 141.297L207.439 141.298L207.439 141.299L207.439 141.299L207.439 141.3L207.439 141.301L207.439 141.302L207.439 141.303L207.439 141.304L207.439 141.305L207.439 141.305L207.439 141.306L207.439 141.307L207.439 141.308L207.439 141.309L207.439 141.31L207.439 141.31L207.439 141.311L207.439 141.312L207.439 141.313L207.439 141.314L207.439 141.315L207.439 141.315L207.439 141.316L207.439 141.317L207.439 141.318L207.439 141.319L207.439 141.32L207.439 141.321L207.439 141.321L207.439 141.322L207.439 141.323L207.439 141.324L207.439 141.325L207.439 141.326L207.439 141.326L207.439 141.327L207.439 141.328L207.439 141.329L207.439 141.33L207.439 141.331L207.439 141.331L207.439 141.332L207.439 141.333L207.439 141.334L207.439 141.335L207.439 141.336L207.439 141.337L207.439 141.337L207.439 141.338L207.439 141.339L207.439 141.34L207.439 141.341L207.439 141.342L207.439 141.342L207.439 141.343L207.439 141.344L207.439 141.345L207.439 141.346L207.439 141.347L207.439 141.347L207.439 141.348L207.439 141.349L207.439 141.35L207.439 141.351L207.439 141.352L207.439 141.353L207.439 141.353L207.439 141.354L207.439 141.355L207.439 141.356L207.439 141.357L207.439 141.358L207.439 141.358L207.439 141.359L207.439 141.36L207.439 141.361L207.439 141.362L207.439 141.363L207.439 141.364L207.439 141.364L207.439 141.365L207.439 141.366L207.439 141.367L207.439 141.368L207.439 141.369L207.439 141.369L207.439 141.37L207.439 141.371L207.439 141.372L207.439 141.373L207.439 141.374L207.439 141.375L207.439 141.375L207.439 141.376L207.439 141.377L207.439 141.378L207.439 141.379L207.439 141.38L207.439 141.38L207.439 141.381L207.439 141.382L207.439 141.383L207.439 141.384L207.439 141.385L207.439 141.386L207.439 141.386L207.439 141.387L207.439 141.388L207.439 141.389L207.439 141.39L207.439 141.391L207.439 141.392L207.439 141.392L207.439 141.393L207.439 141.394L207.439 141.395L207.439 141.396L207.439 141.397L207.439 141.397L207.439 141.398L207.439 141.399L207.439 141.4L207.439 141.401L207.439 141.402L207.439 141.403L207.439 141.403L207.439 141.404L207.439 141.405L207.439 141.406L207.439 141.407L207.439 141.408L207.439 141.409L207.439 141.409L207.439 141.41L207.439 141.411L207.439 141.412L207.439 141.413L207.439 141.414L207.439 141.415L207.439 141.415L207.439 141.416L207.439 141.417L207.439 141.418L207.439 141.419L207.439 141.42L207.439 141.421L207.439 141.421L207.439 141.422L207.439 141.423L207.439 141.424L207.439 141.425L207.439 141.426L207.439 141.427L207.439 141.427L207.439 141.428L207.439 141.429L207.439 141.43L207.439 141.431L207.439 141.432L207.439 141.433L207.439 141.433L207.439 141.434L207.439 141.435L207.439 141.436L207.439 141.437L207.439 141.438L207.439 141.439L207.439 141.44L207.439 141.44L207.439 141.441L207.439 141.442L207.439 141.443L207.439 141.444L207.439 141.445L207.439 141.446L207.439 141.446L207.439 141.447L207.439 141.448L207.439 141.449L207.439 141.45L207.439 141.451L207.439 141.452L207.439 141.453L207.439 141.453L207.439 141.454L207.439 141.455L207.439 141.456L207.439 141.457L207.439 141.458L207.439 141.459L207.439 141.459L207.439 141.46L207.439 141.461L207.439 141.462L207.439 141.463L207.439 141.464L207.439 141.465L207.439 141.466L207.439 141.466L207.439 141.467L207.439 141.468L207.439 141.469L207.439 141.47L207.439 141.471L207.439 141.472L207.439 141.473L207.439 141.473L207.439 141.474L207.439 141.475L207.439 141.476L207.439 141.477L207.439 141.478L207.439 141.479L207.439 141.48L207.439 141.48L207.439 141.481L207.439 141.482L207.439 141.483L207.439 141.484L207.439 141.485L207.439 141.486L207.439 141.487L207.439 141.488L207.439 141.488L207.439 141.489L207.439 141.49L207.439 141.491L207.439 141.492L207.439 141.493L207.439 141.494L207.439 141.495L207.439 141.496L207.439 141.496L207.439 141.497L207.439 141.498L207.439 141.499L207.439 141.5L207.439 141.501L207.439 141.502L207.439 141.503L207.439 141.504L207.439 141.504L207.439 141.505L207.439 141.506L207.439 141.507L207.439 141.508L207.439 141.509L207.439 141.51L207.439 141.511L207.439 141.512L207.439 141.512L207.439 141.513L207.439 141.514L207.439 141.515L207.439 141.516L207.439 141.517L207.439 141.518L207.439 141.519L207.439 141.52L207.439 141.521L207.439 141.521L207.439 141.522L207.439 141.523L207.439 141.524L207.439 141.525L207.439 141.526L207.439 141.527L207.439 141.528L207.439 141.529L207.439 141.53L207.439 141.53L207.439 141.531L207.439 141.532C207.439 142.052 207.788 142.449 208.233 142.589L208.24 142.591L208.247 142.593L208.257 142.595C208.339 142.616 208.453 142.644 208.573 142.644C209.205 142.644 209.685 142.126 209.685 141.51L209.685 141.506C209.641 139.05 209.882 136.57 210.365 134.133C212.779 122.042 221.25 112.65 231.982 108.502C237.951 106.198 244.622 105.496 251.359 106.834C252.546 107.076 253.709 107.361 254.826 107.712L254.828 107.712C262.464 110.06 269.003 114.931 273.48 121.668L273.481 121.668C278.638 129.415 280.459 138.697 278.638 147.804C274.863 166.632 256.473 178.877 237.666 175.103C236.502 174.862 235.361 174.576 234.243 174.226L234.242 174.225C229.372 172.734 224.897 170.168 221.123 166.746C220.998 166.623 220.829 166.543 220.712 166.496L220.7 166.492L220.688 166.488C220.301 166.378 219.845 166.458 219.53 166.802C219.102 167.259 219.133 167.972 219.612 168.396C223.64 172.044 228.401 174.759 233.585 176.361C234.789 176.74 235.991 177.029 237.232 177.295L237.232 177.295L237.236 177.295C257.264 181.301 276.846 168.261 280.852 148.234L280.852 148.234C282.788 138.533 280.852 128.652 275.356 120.397L275.355 120.397C270.572 113.232 263.629 108.047 255.484 105.533L207.951 134.86ZM251.789 104.598C251.789 104.598 251.789 104.598 251.788 104.598L251.74 104.843L251.789 104.598C251.789 104.598 251.789 104.598 251.789 104.598Z" fill="#D1D5D9" stroke="#D1D5D9" stroke-width="0.5"/>
<path d="M130.212 275.874C130.036 276.426 130.257 277.067 130.765 277.399C131.715 278.04 132.71 278.637 133.705 279.211C134.346 279.587 135.164 279.366 135.539 278.725C135.915 278.084 135.694 277.266 135.053 276.89C134.103 276.338 133.174 275.763 132.246 275.166C131.627 274.747 130.787 274.923 130.367 275.542C130.301 275.631 130.257 275.741 130.212 275.874Z" fill="#D1D5D9"/>
<path d="M139.407 280.649C139.694 279.963 140.49 279.632 141.175 279.941C142.899 280.671 144.689 281.334 146.48 281.886C146.855 281.997 147.231 282.107 147.629 282.218C148.336 282.417 148.756 283.168 148.557 283.876C148.336 284.539 147.607 285.003 146.9 284.804C146.502 284.693 146.104 284.561 145.706 284.45C143.827 283.876 141.948 283.19 140.136 282.417C139.495 282.152 139.163 281.422 139.362 280.781C139.362 280.737 139.385 280.693 139.407 280.649ZM154.304 283.677C156.559 284.03 158.857 284.251 161.112 284.318C161.863 284.34 162.438 284.959 162.416 285.71C162.394 286.439 161.775 287.036 161.023 287.014C158.636 286.926 156.249 286.705 153.884 286.329C153.155 286.218 152.646 285.533 152.757 284.782C152.757 284.715 152.779 284.649 152.801 284.583C153 283.986 153.641 283.566 154.304 283.677ZM167.964 284.119C170.218 283.92 172.495 283.566 174.727 283.08C175.457 282.925 176.164 283.389 176.341 284.119C176.496 284.848 176.032 285.555 175.324 285.732C172.981 286.24 170.594 286.616 168.229 286.837C167.478 286.904 166.837 286.351 166.77 285.622C166.748 285.445 166.77 285.268 166.814 285.091C166.969 284.561 167.411 284.163 167.964 284.119ZM181.314 281.201C183.458 280.45 185.58 279.544 187.614 278.527C188.277 278.195 189.094 278.461 189.426 279.124C189.758 279.787 189.492 280.604 188.829 280.936C186.707 281.997 184.475 282.947 182.22 283.743C181.513 283.986 180.739 283.632 180.496 282.925C180.408 282.638 180.408 282.351 180.474 282.085C180.607 281.665 180.894 281.334 181.314 281.201ZM193.559 275.101C195.46 273.841 197.295 272.449 199.019 270.968C199.593 270.482 200.433 270.548 200.92 271.123C201.406 271.697 201.34 272.537 200.765 273.023C198.952 274.571 197.029 276.029 195.04 277.355C194.421 277.775 193.581 277.599 193.161 276.98C192.918 276.626 192.874 276.206 193.007 275.83C193.095 275.543 193.272 275.278 193.559 275.101ZM203.926 266.216C205.451 264.536 206.91 262.746 208.214 260.889C208.634 260.293 209.496 260.138 210.092 260.558C210.689 260.978 210.844 261.818 210.424 262.437C209.054 264.382 207.528 266.26 205.915 268.028C205.407 268.581 204.567 268.625 204.014 268.117C203.616 267.763 203.484 267.211 203.638 266.724C203.705 266.548 203.793 266.371 203.926 266.216ZM211.816 255.077C212.877 253.087 213.85 250.988 214.668 248.866C214.933 248.181 215.707 247.827 216.414 248.092C217.099 248.358 217.453 249.131 217.188 249.838C216.326 252.071 215.309 254.259 214.204 256.358C213.85 257.022 213.032 257.265 212.369 256.911C211.794 256.602 211.529 255.939 211.728 255.32C211.75 255.231 211.772 255.143 211.816 255.077ZM219.508 234.411C220.238 234.5 220.768 235.185 220.68 235.914C220.437 237.97 220.061 240.025 219.575 242.058C219.508 242.368 219.42 242.677 219.354 242.987C219.199 243.716 218.447 244.158 217.718 243.959C216.989 243.782 216.569 243.053 216.745 242.324C216.812 242.036 216.878 241.749 216.944 241.462C217.409 239.517 217.74 237.55 217.983 235.605C217.983 235.516 218.005 235.45 218.027 235.362C218.226 234.743 218.845 234.345 219.508 234.411Z" fill="#D1D5D9"/>
<path d="M104.924 224.611C105.05 222.266 105.311 219.908 105.701 217.606C105.823 216.865 106.517 216.381 107.259 216.503C108.001 216.624 108.484 217.318 108.363 218.06C107.992 220.265 107.725 222.51 107.618 224.758C107.587 225.499 106.943 226.083 106.197 226.031C105.478 225.995 104.899 225.372 104.924 224.611ZM106.246 230.229C106.985 230.168 107.638 230.725 107.677 231.47C107.838 233.692 108.122 235.95 108.55 238.146C108.696 238.862 108.205 239.589 107.483 239.713C106.746 239.865 106.04 239.368 105.916 238.646C105.48 236.337 105.173 233.994 104.999 231.638C104.987 231.595 104.997 231.547 105.007 231.499C105.018 230.855 105.55 230.278 106.246 230.229ZM107.333 210.717C108.014 208.475 108.834 206.241 109.79 204.086C110.09 203.411 110.899 203.102 111.575 203.402C112.25 203.702 112.553 204.49 112.259 205.187C111.366 207.234 110.559 209.349 109.926 211.509C109.707 212.231 108.963 212.614 108.247 212.417C107.648 212.234 107.269 211.672 107.291 211.071C107.284 210.959 107.298 210.84 107.333 210.717ZM108.539 243.824C109.253 243.587 110 243.981 110.237 244.696C110.921 246.824 111.761 248.933 112.696 250.97C113.013 251.64 112.726 252.449 112.035 252.772C111.364 253.089 110.555 252.802 110.233 252.111C109.248 249.972 108.385 247.778 107.645 245.528C107.605 245.378 107.586 245.223 107.589 245.062C107.623 244.504 107.989 243.994 108.539 243.824ZM113.015 197.845C114.214 195.83 115.543 193.873 116.986 191.999C117.448 191.417 118.288 191.307 118.891 191.763C119.472 192.225 119.583 193.065 119.126 193.667C117.746 195.433 116.485 197.304 115.333 199.237C114.952 199.866 114.119 200.089 113.491 199.708C113.052 199.437 112.814 198.974 112.822 198.492C112.829 198.261 112.905 198.034 113.015 197.845ZM121.625 186.683C123.281 185.003 125.056 183.429 126.881 181.957C127.468 181.502 128.317 181.595 128.772 182.182C129.227 182.769 129.134 183.618 128.546 184.073C126.789 185.459 125.115 186.983 123.528 188.575C123.006 189.104 122.159 189.102 121.63 188.58C121.352 188.312 121.207 187.939 121.222 187.569C121.254 187.262 121.372 186.933 121.625 186.683ZM132.662 177.913C134.668 176.689 136.767 175.555 138.89 174.597C139.56 174.28 140.375 174.588 140.671 175.264C140.987 175.934 140.679 176.749 140.003 177.044C137.966 177.979 135.962 179.043 134.057 180.217C133.431 180.613 132.597 180.402 132.2 179.776C132.046 179.543 131.999 179.281 132 179.029C132.041 178.583 132.269 178.156 132.662 177.913Z" fill="#D1D5D9"/>
<path d="M122.582 265.998C122.085 265.433 121.244 265.36 120.678 265.857C120.239 266.228 120.1 266.84 120.286 267.367C120.346 267.517 120.424 267.652 120.519 267.774C122.078 269.558 123.727 271.243 125.468 272.828C126.034 273.34 126.891 273.288 127.385 272.735C127.896 272.169 127.845 271.312 127.292 270.818C125.637 269.306 124.041 267.691 122.582 265.998Z" fill="#D1D5D9"/>
<path d="M113.44 257.59C113.439 257.842 113.492 258.125 113.646 258.358C114.253 259.34 114.902 260.31 115.56 261.232C116 261.846 116.838 261.988 117.432 261.554C118.025 261.121 118.188 260.276 117.754 259.683C117.128 258.798 116.518 257.886 115.923 256.947C115.526 256.321 114.697 256.132 114.066 256.507C113.694 256.744 113.466 257.171 113.44 257.59Z" fill="#D1D5D9"/>
<path d="M130.594 254.188C130.749 254.431 131.059 254.541 131.346 254.475L139.392 252.375C142.221 255.028 145.492 257.26 149.139 258.918L150.244 267.14C150.288 267.427 150.509 267.67 150.797 267.714L160.566 269.681C160.854 269.748 161.141 269.615 161.296 269.35L165.495 262.189C169.496 262.056 173.364 261.283 176.989 259.912L183.598 264.952C183.819 265.128 184.15 265.128 184.393 264.974L192.682 259.448C192.925 259.293 193.036 258.984 192.97 258.697L190.87 250.651C193.522 247.822 195.755 244.551 197.412 240.904L205.635 239.799C205.922 239.755 206.165 239.534 206.209 239.247L208.176 229.478C208.243 229.19 208.11 228.903 207.845 228.748L200.684 224.549C200.551 220.549 199.777 216.681 198.407 213.056L203.446 206.447C203.623 206.226 203.623 205.895 203.468 205.652L197.943 197.363C197.788 197.12 197.479 197.01 197.191 197.076L189.146 199.176C186.316 196.524 183.045 194.291 179.398 192.634L178.293 184.412C178.249 184.124 178.028 183.881 177.74 183.837L167.971 181.87C167.684 181.804 167.396 181.936 167.241 182.201L163.042 189.363C159.041 189.495 155.173 190.269 151.548 191.639L144.939 186.6C144.718 186.423 144.387 186.423 144.144 186.578L135.855 192.103C135.612 192.258 135.501 192.567 135.568 192.855L137.668 200.9C135.015 203.729 132.783 207 131.125 210.647L122.903 211.752C122.615 211.796 122.372 212.017 122.328 212.304L120.361 222.074C120.294 222.361 120.427 222.648 120.692 222.803L127.854 227.002C127.986 231.003 128.782 234.871 130.13 238.495L125.091 245.104C124.914 245.325 124.914 245.656 125.069 245.9L130.594 254.188Z" fill="#EAEDF0"/>
<path d="M155.041 221.389C156.213 218.935 158.268 217.079 160.832 216.173C163.396 215.266 166.159 215.399 168.635 216.57C173.718 218.98 175.862 225.08 173.453 230.163C171.022 235.247 164.943 237.391 159.86 234.981C157.406 233.81 155.55 231.755 154.643 229.191C153.914 227.113 153.87 224.881 154.511 222.803C154.643 222.317 154.82 221.853 155.041 221.389ZM167.485 219.002C165.673 218.14 163.639 218.029 161.761 218.692C159.882 219.355 158.357 220.726 157.495 222.538C156.633 224.35 156.522 226.384 157.185 228.262C157.848 230.141 159.219 231.666 161.031 232.528C164.767 234.318 169.254 232.727 171.022 228.992C171.176 228.66 171.309 228.307 171.42 227.975C172.503 224.483 170.889 220.637 167.485 219.002Z" fill="#D1D5D9"/>
<path d="M140.166 218.183C139.923 219.001 139.702 219.841 139.525 220.681C139.193 222.383 139.016 224.107 139.016 225.83C139.016 225.919 139.016 225.985 139.016 226.074C139.016 226.67 139.414 227.179 139.967 227.333C140.099 227.378 140.232 227.4 140.387 227.4C141.138 227.4 141.713 226.781 141.713 226.029C141.691 224.416 141.845 222.802 142.155 221.211C142.177 221.123 142.199 221.034 142.199 220.946C142.995 217.211 144.675 213.807 147.084 210.956C148.388 209.409 149.913 208.038 151.637 206.889C151.659 206.889 151.659 206.867 151.681 206.867C151.726 206.845 151.77 206.801 151.814 206.779C156.854 203.419 162.91 202.225 168.856 203.419C169.629 203.574 170.381 203.773 171.11 203.994C176.083 205.519 180.349 208.701 183.289 213.1C186.649 218.139 187.842 224.195 186.649 230.14C185.455 236.086 182.029 241.213 176.967 244.573C171.928 247.933 165.872 249.126 159.926 247.933C159.174 247.778 158.423 247.601 157.693 247.358C154.511 246.385 151.593 244.728 149.14 242.473C148.985 242.341 148.808 242.23 148.631 242.186C148.145 242.031 147.592 242.164 147.239 242.562C146.73 243.114 146.774 243.954 147.327 244.462C150.09 246.96 153.361 248.817 156.898 249.922C157.716 250.165 158.555 250.386 159.395 250.563C166.048 251.889 172.812 250.563 178.47 246.805C184.107 243.048 187.953 237.324 189.301 230.671C190.627 224.018 189.301 217.255 185.543 211.597C182.272 206.69 177.498 203.132 171.928 201.408C171.11 201.143 170.248 200.944 169.386 200.767C156.544 198.203 143.945 205.894 140.166 218.183Z" fill="#D1D5D9"/>
</svg>
