<?xml version="1.0" encoding="UTF-8"?>
<svg xmlns="http://www.w3.org/2000/svg" viewBox="0 0 1420 387">
	<style>
		.shp0 { fill: #ed1c24 }
		.shp1 { fill: #ffffff }
	</style>
	<path class="shp0" d="M-154.08 176.08C-151.38 172.71 -148 170.01 -144.62 167.53C-141.24 165.06 -137.41 162.81 -133.58 161.01C-125.92 157.19 -117.81 154.71 -109.47 152.69C-101.14 150.89 -92.58 149.76 -84.02 149.54C-75.46 149.09 -66.9 149.31 -58.34 149.99C-24.09 152.91 9.02 162.36 41.01 174.51C73.23 186.2 103.19 203.29 135.86 213.19C168.3 223.76 202.31 230.06 236.33 232.31C270.35 234.56 304.82 232.98 338.61 228.26C372.4 223.54 405.97 215.89 438.63 206.44C471.52 196.77 503.74 185.3 535.28 172.48C551.05 166.18 566.82 159.44 582.59 152.69C590.47 149.31 598.13 145.72 606.02 142.34C613.67 138.74 621.56 135.37 629.45 132C661.21 119.18 694.55 110.86 728.57 106.58C762.59 102.31 796.83 101.86 831.07 104.11C899.33 108.61 966.46 123 1033.15 138.52C1099.61 154.04 1165.84 171.58 1233.42 182.15C1267.21 187.33 1301.46 190.47 1335.47 189.57C1369.72 188.68 1403.73 183.28 1435.95 171.36C1403.96 183.28 1369.72 188.68 1335.47 189.57C1301.23 190.47 1266.99 187.33 1233.2 182.15C1165.61 171.81 1099.38 154.26 1032.7 138.74C966.24 123.22 899.11 108.83 830.85 104.33C796.83 102.08 762.36 102.53 728.57 106.81C694.78 111.08 661.21 119.4 629.67 132.22C621.79 135.37 613.9 138.97 606.24 142.57C598.36 146.17 590.7 149.54 582.81 152.91C567.27 159.66 551.5 166.41 535.5 172.71C503.74 185.3 471.52 197 438.63 206.44C405.74 216.12 372.4 223.54 338.38 228.26C304.59 232.98 270.12 234.56 236.11 232.31C202.09 230.06 168.07 223.76 135.63 213.19C102.74 203.07 73 185.98 40.79 174.28C8.8 162.36 -24.32 152.69 -58.34 149.76C-66.9 149.09 -75.46 148.87 -84.02 149.31C-92.58 149.54 -101.14 150.66 -109.47 152.46C-117.81 154.26 -125.92 156.96 -133.58 160.79C-137.41 162.59 -141.01 164.83 -144.62 167.31C-148 170.01 -151.38 172.93 -154.08 176.08Z" />
	<path class="shp0" d="M-173 156.51C-166.7 150.44 -159.26 145.72 -151.38 141.67C-143.49 137.84 -135.16 134.7 -126.82 132.45C-118.26 130.2 -109.7 128.62 -100.91 127.72C-92.13 126.82 -83.34 126.6 -74.56 126.82C-56.99 127.27 -39.41 129.97 -22.29 133.8C-5.17 137.62 11.73 142.79 28.17 149.09C32.23 150.44 36.28 152.24 40.34 153.81L46.42 156.29L52.5 158.99C56.56 160.79 60.61 162.59 64.44 164.38L76.38 170.01C92.15 177.65 107.47 186.43 123.46 193.62C155.23 208.47 188.8 219.49 223.26 226.69C240.39 230.28 257.73 232.76 275.3 234.56C292.88 236.13 310.22 237.03 327.79 236.81C345.37 236.58 362.94 235.68 380.28 233.88C397.63 232.08 415.2 229.83 432.33 226.46L438.86 225.34L445.39 223.99C449.67 223.09 453.95 222.19 458.23 221.29C466.79 219.26 475.35 217.24 483.69 214.99C500.59 210.49 517.48 205.32 534.15 199.7C550.82 194.07 567.27 187.78 583.49 181.25C599.71 174.51 615.7 167.53 631.7 159.89C639.58 156.06 647.47 152.24 655.35 148.41C663.24 144.37 670.9 140.32 678.78 136.5L690.72 130.65C692.75 129.75 694.55 128.62 696.58 127.72L702.66 125.25L714.83 120.3L720.91 117.83L727.22 115.8C760.56 104.11 795.25 97.14 830.4 94.44C865.54 91.51 900.68 92.86 935.83 96.69C970.75 100.51 1005.44 106.81 1039.91 114C1108.62 128.4 1176.65 146.62 1246.49 156.06C1281.18 160.79 1316.55 163.26 1351.47 161.69C1386.61 160.11 1421.53 154.26 1454.87 143.47C1421.53 154.49 1386.39 160.34 1351.47 161.91C1316.33 163.71 1281.18 161.24 1246.26 156.74C1176.43 147.29 1108.39 129.3 1039.68 114.9C1005.21 107.71 970.75 101.63 935.83 97.81C900.91 93.99 865.76 92.86 830.62 95.79C795.7 98.71 761.01 105.68 727.89 117.38L721.59 119.4L715.5 121.88L703.34 126.82L697.25 129.3C695.23 130.2 693.2 131.1 691.4 132.22L679.46 138.07C671.57 141.89 663.69 145.94 656.03 149.99C648.14 153.81 640.26 157.86 632.37 161.46C616.6 169.11 600.38 176.08 584.16 182.6C567.72 189.13 551.5 195.42 534.83 201.04C518.16 206.67 501.26 211.84 484.37 216.12C475.8 218.36 467.24 220.39 458.68 222.41C454.4 223.31 450.12 224.21 445.84 225.11L439.31 226.46L432.77 227.59C415.43 230.96 398.08 233.21 380.51 235.01C362.94 236.81 345.37 237.48 327.79 237.71C310.22 237.71 292.65 237.03 275.08 235.23C257.51 233.43 240.16 230.96 223.04 227.36C188.57 220.16 155 209.14 123.24 194.07C107.25 186.65 91.93 178.1 76.16 170.23L64.22 164.61C60.16 162.81 56.11 161.01 52.28 159.21L46.19 156.51L40.11 154.04C36.06 152.46 32 150.66 27.95 149.09C11.5 142.79 -5.17 137.62 -22.29 133.8C-39.41 129.97 -56.76 127.27 -74.33 126.6C-83.12 126.37 -91.9 126.6 -100.69 127.5C-109.47 128.4 -118.04 129.75 -126.6 132C-135.16 134.25 -143.49 137.17 -151.15 141.22C-159.04 145.72 -166.7 150.44 -173 156.51Z" />
	<path class="shp0" d="M-191.93 136.72C-185.17 130.65 -177.28 126.15 -169.17 122.1C-161.06 118.05 -152.73 114.68 -143.94 112.2C-135.38 109.73 -126.37 107.71 -117.36 106.36C-112.85 105.91 -108.35 105.01 -103.84 104.78L-97.09 104.33L-90.33 104.11C-72.3 103.66 -54.06 105.46 -36.26 108.83C-18.46 112.2 -0.89 117.15 16.01 123.22C33.13 129.3 49.8 136.27 66.02 144.59C74.13 148.41 82.01 152.91 90.12 157.19C98.01 161.69 105.89 166.18 113.55 170.68L125.27 177.43C129.1 179.68 133.15 181.7 137.21 183.95C145.09 188.22 153.43 192.05 161.54 196.1C165.59 197.9 169.87 199.7 173.93 201.5L180.24 204.19L186.54 206.67L199.16 211.62L212 216.12C280.49 239.28 353.48 247.83 425.57 242.43C497.66 237.03 568.39 218.59 634.85 190.25C668.19 176.31 700.41 159.89 731.5 141.67C762.81 123.67 796.38 108.83 831.3 98.93C866.22 89.04 902.26 83.86 938.53 83.19C940.78 82.97 943.04 83.19 945.29 83.19L952.05 83.19C956.55 83.19 961.06 83.19 965.56 83.42L979.08 84.09L985.84 84.54L992.6 85.21L1006.11 86.56C1010.62 87.01 1015.13 87.69 1019.63 88.14C1028.64 89.26 1037.65 90.61 1046.44 91.96C1117.85 103.66 1187.92 122.78 1259.78 130.65C1295.6 134.92 1331.87 136.5 1367.91 134.02C1403.96 131.77 1439.78 125.47 1474.7 115.58C1440 125.7 1404.18 132.22 1368.14 134.47C1332.1 136.94 1295.82 135.59 1259.78 131.55C1187.69 123.67 1117.63 104.56 1046.21 93.09C1037.2 91.74 1028.42 90.16 1019.41 89.26C1014.9 88.81 1010.39 88.14 1005.89 87.69L992.37 86.34L985.61 85.66L978.86 85.21L965.34 84.54C960.83 84.31 956.33 84.31 951.82 84.31L945.06 84.31C942.81 84.31 940.56 84.31 938.3 84.31C902.26 84.99 866.22 90.16 831.52 100.06C796.83 109.95 763.71 124.57 732.4 142.79C701.08 161.01 668.87 177.43 635.53 191.6C568.85 219.71 497.88 238.16 425.57 243.55C353.25 248.95 279.81 240.18 211.32 216.79L198.48 212.29L185.87 207.34L179.56 204.87L173.25 202.17C169.2 200.37 164.92 198.57 160.86 196.77C152.75 192.72 144.42 189.13 136.53 184.63C132.48 182.38 128.42 180.35 124.59 178.1L112.88 171.36C104.99 166.86 97.33 162.13 89.45 157.86C81.56 153.59 73.68 149.09 65.57 145.27C49.35 137.17 32.9 129.97 15.78 123.9C-1.12 117.83 -18.46 112.65 -36.26 109.28C-54.06 105.91 -72.08 103.88 -90.1 104.33L-96.86 104.56L-103.62 105.01C-108.12 105.23 -112.63 105.91 -117.13 106.36C-126.15 107.71 -134.93 109.5 -143.49 111.98C-152.05 114.45 -160.61 117.83 -168.72 121.65C-177.28 126.37 -185.17 130.87 -191.93 136.72Z" />
	<path class="shp0" d="M-211.08 117.15C-207.47 114.23 -203.64 111.53 -199.59 109.28C-197.56 107.93 -195.53 107.03 -193.5 105.68C-191.48 104.56 -189.45 103.43 -187.2 102.53C-178.86 98.48 -170.08 94.89 -161.29 91.96C-152.5 89.04 -143.27 86.79 -134.26 84.99C-125.02 83.42 -115.78 82.07 -106.55 81.62C-69.15 79.14 -31.75 85.44 3.62 97.14C12.63 99.83 21.19 103.43 29.97 106.81C38.53 110.63 47.1 114 55.43 118.28C63.99 122.1 72.1 126.82 80.21 131.1C84.27 133.35 88.32 135.82 92.38 138.07C96.43 140.54 100.49 142.79 104.32 145.27L127.75 160.34C131.57 162.81 135.63 165.28 139.46 167.76L151.4 174.96C155.45 177.43 159.51 179.68 163.56 181.93C167.62 184.18 171.68 186.43 175.73 188.68C184.07 192.72 192.18 197.22 200.74 200.82C234.53 216.56 269.67 228.71 305.94 237.48C323.97 241.53 342.21 245.35 360.69 247.83L367.67 248.73C369.92 248.95 372.17 249.18 374.65 249.4L388.62 250.75C393.35 251.2 397.86 251.43 402.59 251.65L409.57 252.1C411.82 252.33 414.3 252.33 416.55 252.33L430.52 252.78C435.25 252.78 439.76 252.78 444.49 252.78C453.73 252.78 462.96 252.1 472.42 251.88C477.16 251.65 481.66 251.2 486.39 250.75C491.12 250.3 495.63 250.08 500.36 249.4C509.6 248.28 518.83 247.38 528.07 245.58C532.58 244.9 537.31 244.23 541.81 243.33L555.55 240.63L562.31 239.28L569.07 237.71L582.59 234.56C587.09 233.43 591.6 232.08 596.1 230.96C600.61 229.61 605.12 228.71 609.39 227.13C618.18 224.21 627.19 221.74 635.98 218.36C671.12 206.22 705.14 190.92 737.8 173.38C745.91 168.88 754.02 164.38 762.13 159.66L786.02 145.27L810.12 130.87C818.46 126.37 826.57 121.88 834.9 117.6C868.24 100.73 903.61 87.69 940.11 79.82C942.36 79.37 944.61 78.69 946.87 78.24L953.85 77.12C958.35 76.44 963.09 75.54 967.59 74.87C976.83 73.97 986.06 72.62 995.53 72.39C1014.22 71.27 1032.92 71.72 1051.62 73.07C1088.12 75.99 1124.84 82.74 1161.56 89.49C1198.28 96.01 1235 102.53 1271.95 105.91C1308.89 109.28 1346.29 110.18 1383.46 107.03C1420.63 104.11 1457.35 97.58 1493.62 88.59C1457.58 98.03 1420.86 104.56 1383.68 107.93C1346.51 111.31 1309.12 110.86 1271.95 107.71C1234.77 104.56 1198.05 98.03 1161.33 91.51C1124.61 84.99 1087.89 78.24 1050.72 75.54C1032.25 74.42 1013.55 73.74 995.08 75.09C985.84 75.32 976.6 76.67 967.37 77.57C962.86 78.24 958.13 79.14 953.62 79.82L946.87 80.94C944.61 81.39 942.36 81.84 940.11 82.52C903.84 90.39 868.69 103.43 835.58 120.3C827.47 124.58 819.13 129.07 811.02 133.57L787.14 147.97L763.26 162.59C755.15 167.31 747.04 171.81 738.93 176.31C706.04 194.07 672.02 209.37 636.65 221.74C627.87 224.89 618.86 227.59 610.07 230.28C605.57 231.86 601.06 232.76 596.55 234.11C592.05 235.23 587.54 236.58 583.04 237.71L569.29 240.85L562.54 242.43L555.55 243.78L541.81 246.48C537.31 247.38 532.58 248.05 528.07 248.73C518.83 250.3 509.6 251.2 500.36 252.33C495.63 253 491.12 253.22 486.39 253.68C481.66 254.13 477.16 254.57 472.42 254.8C463.19 255.25 453.73 255.7 444.49 255.7C439.76 255.7 435.25 255.7 430.52 255.7L416.55 255.25C414.3 255.25 411.82 255.25 409.57 255.03L402.59 254.57C397.86 254.35 393.35 253.9 388.62 253.68L374.65 252.1C372.4 251.88 369.92 251.65 367.67 251.43L360.69 250.53C342.21 248.05 323.97 244.23 305.72 240.18C269.45 231.18 234.08 219.04 200.29 203.07C191.73 199.25 183.62 194.97 175.28 190.7C171.23 188.68 167.17 186.2 162.89 183.95C158.83 181.7 154.78 179.45 150.72 176.98L138.78 169.78C134.73 167.31 130.9 164.83 127.07 162.13L103.42 147.07C99.58 144.59 95.53 142.34 91.48 139.87C87.42 137.62 83.59 134.92 79.31 132.9C71.2 128.4 63.09 123.9 54.53 120.08C46.19 115.8 37.63 112.2 29.07 108.61C20.51 105.23 11.73 101.86 2.94 98.93C-32.2 87.01 -69.6 80.49 -106.77 82.74C-116.01 83.19 -125.25 84.31 -134.48 85.89C-143.72 87.69 -152.73 89.71 -161.51 92.64C-170.3 95.56 -179.09 98.93 -187.42 102.98C-189.45 103.88 -191.48 105.01 -193.73 106.13C-195.76 107.26 -197.78 108.38 -199.81 109.5C-203.42 111.75 -207.47 114.23 -211.08 117.15Z" />
	<path class="shp0" d="M-230 97.58C-222.34 91.74 -214.01 87.01 -205.44 82.74C-196.88 78.47 -187.87 74.87 -178.86 71.72C-160.61 65.42 -141.69 61.37 -122.54 59.57C-84.24 55.75 -45.27 60.25 -8.32 71.05C28.62 81.84 63.77 98.71 96.43 118.95L102.51 122.78L108.6 126.82C112.65 129.52 116.71 132.22 120.54 134.92L143.97 151.56C159.74 162.59 175.95 172.71 192.4 182.38C258.86 220.39 332.08 246.93 407.99 257.95C445.84 263.35 484.36 265.15 522.44 262.67C560.74 260.42 598.58 254.13 635.53 244.23C672.47 234.33 708.52 221.06 743.21 204.64C777.9 188.22 810.8 168.88 842.56 147.29C874.55 125.92 907.67 106.13 943.04 90.39C960.61 82.52 978.86 75.77 997.33 70.6C1016.03 65.42 1034.95 61.82 1054.32 60.25C1092.85 56.65 1131.6 61.15 1169.44 66.77C1188.37 69.47 1207.51 72.62 1226.44 75.09C1245.36 77.57 1264.51 79.59 1283.66 80.94C1321.96 83.64 1360.48 83.19 1398.55 79.59C1436.85 75.99 1474.7 69.47 1512.09 61.15C1474.7 69.92 1436.85 76.89 1398.55 80.72C1360.26 84.76 1321.73 85.66 1283.21 83.19C1244.69 80.94 1206.61 75.09 1168.77 69.7C1130.92 64.3 1092.4 60.02 1054.32 63.62C1016.93 67 979.76 78.02 944.84 93.54C909.92 109.28 876.8 128.85 845.04 150.22C813.27 171.81 779.93 191.6 745.24 208.24C710.55 224.89 674.28 238.38 636.88 248.28C599.71 258.17 561.41 264.47 522.89 266.72C484.37 268.97 445.62 267.17 407.54 261.77C331.17 250.53 257.28 223.99 190.82 185.08C174.15 175.41 157.93 165.06 142.16 153.81L118.73 136.94C114.68 134.25 110.85 131.55 106.79 128.85L100.71 124.8L94.63 120.98C62.19 100.73 27.5 83.64 -9.22 72.84C-45.5 62.05 -84.24 56.88 -122.32 60.47C-141.46 62.27 -160.39 66.1 -178.64 72.17C-187.65 75.09 -196.66 78.69 -205.22 82.97C-213.78 87.01 -222.34 91.74 -230 97.58Z" />
	<path class="shp0" d="M-211.08 117.15C-207.47 114.23 -203.64 111.53 -199.59 109.28C-197.56 107.93 -195.53 107.03 -193.5 105.68C-191.48 104.56 -189.45 103.43 -187.2 102.53C-178.86 98.48 -170.08 94.89 -161.29 91.96C-152.5 89.04 -143.27 86.79 -134.26 84.99C-125.02 83.42 -115.78 82.07 -106.55 81.62C-69.15 79.14 -31.75 85.44 3.62 97.14C12.63 99.83 21.19 103.43 29.97 106.81C38.53 110.63 47.1 114 55.43 118.28C63.99 122.1 72.1 126.82 80.21 131.1C84.27 133.35 88.32 135.82 92.38 138.07C96.43 140.54 100.49 142.79 104.32 145.27L127.75 160.34C131.57 162.81 135.63 165.28 139.46 167.76L151.4 174.96C155.45 177.43 159.51 179.68 163.56 181.93C167.62 184.18 171.68 186.43 175.73 188.68C184.07 192.72 192.18 197.22 200.74 200.82C234.53 216.56 269.67 228.71 305.94 237.48C323.97 241.53 342.21 245.35 360.69 247.83L367.67 248.73C369.92 248.95 372.17 249.18 374.65 249.4L388.62 250.75C393.35 251.2 397.86 251.43 402.59 251.65L409.57 252.1C411.82 252.33 414.3 252.33 416.55 252.33L430.52 252.78C435.25 252.78 439.76 252.78 444.49 252.78C453.73 252.78 462.96 252.1 472.42 251.88C477.16 251.65 481.66 251.2 486.39 250.75C491.12 250.3 495.63 250.08 500.36 249.4C509.6 248.28 518.83 247.38 528.07 245.58C532.58 244.9 537.31 244.23 541.81 243.33L555.55 240.63L562.31 239.28L569.07 237.71L582.59 234.56C587.09 233.43 591.6 232.08 596.1 230.96C600.61 229.61 605.12 228.71 609.39 227.13C618.18 224.21 627.19 221.74 635.98 218.36C671.12 206.22 705.14 190.92 737.8 173.38C745.91 168.88 754.02 164.38 762.13 159.66L786.02 145.27L810.12 130.87C818.46 126.37 826.57 121.88 834.9 117.6C868.24 100.73 903.61 87.69 940.11 79.82C942.36 79.37 944.61 78.69 946.87 78.24L953.85 77.12C958.35 76.44 963.09 75.54 967.59 74.87C976.83 73.97 986.06 72.62 995.53 72.39C1014.22 71.27 1032.92 71.72 1051.62 73.07C1088.12 75.99 1124.84 82.74 1161.56 89.49C1198.28 96.01 1235 102.53 1271.95 105.91C1308.89 109.28 1346.29 110.18 1383.46 107.03C1420.63 104.11 1457.35 97.58 1493.62 88.59C1457.58 98.03 1420.86 104.56 1383.68 107.93C1346.51 111.31 1309.12 110.86 1271.95 107.71C1234.77 104.56 1198.05 98.03 1161.33 91.51C1124.61 84.99 1087.89 78.24 1050.72 75.54C1032.25 74.42 1013.55 73.74 995.08 75.09C985.84 75.32 976.6 76.67 967.37 77.57C962.86 78.24 958.13 79.14 953.62 79.82L946.87 80.94C944.61 81.39 942.36 81.84 940.11 82.52C903.84 90.39 868.69 103.43 835.58 120.3C827.47 124.58 819.13 129.07 811.02 133.57L787.14 147.97L763.26 162.59C755.15 167.31 747.04 171.81 738.93 176.31C706.04 194.07 672.02 209.37 636.65 221.74C627.87 224.89 618.86 227.59 610.07 230.28C605.57 231.86 601.06 232.76 596.55 234.11C592.05 235.23 587.54 236.58 583.04 237.71L569.29 240.85L562.54 242.43L555.55 243.78L541.81 246.48C537.31 247.38 532.58 248.05 528.07 248.73C518.83 250.3 509.6 251.2 500.36 252.33C495.63 253 491.12 253.22 486.39 253.68C481.66 254.13 477.16 254.57 472.42 254.8C463.19 255.25 453.73 255.7 444.49 255.7C439.76 255.7 435.25 255.7 430.52 255.7L416.55 255.25C414.3 255.25 411.82 255.25 409.57 255.03L402.59 254.57C397.86 254.35 393.35 253.9 388.62 253.68L374.65 252.1C372.4 251.88 369.92 251.65 367.67 251.43L360.69 250.53C342.21 248.05 323.97 244.23 305.72 240.18C269.45 231.18 234.08 219.04 200.29 203.07C191.73 199.25 183.62 194.97 175.28 190.7C171.23 188.68 167.17 186.2 162.89 183.95C158.83 181.7 154.78 179.45 150.72 176.98L138.78 169.78C134.73 167.31 130.9 164.83 127.07 162.13L103.42 147.07C99.58 144.59 95.53 142.34 91.48 139.87C87.42 137.62 83.59 134.92 79.31 132.9C71.2 128.4 63.09 123.9 54.53 120.08C46.19 115.8 37.63 112.2 29.07 108.61C20.51 105.23 11.73 101.86 2.94 98.93C-32.2 87.01 -69.6 80.49 -106.77 82.74C-116.01 83.19 -125.25 84.31 -134.48 85.89C-143.72 87.69 -152.73 89.71 -161.51 92.64C-170.3 95.56 -179.09 98.93 -187.42 102.98C-189.45 103.88 -191.48 105.01 -193.73 106.13C-195.76 107.26 -197.78 108.38 -199.81 109.5C-203.42 111.75 -207.47 114.23 -211.08 117.15Z" />
	<path fill-rule="evenodd" class="shp1" d="M337.02 203.45L335.74 213.72L345.44 213.72L345.44 225.78L334.21 225.78L332.93 236.81L320.16 236.81L321.44 225.78L313.53 225.78L312.25 236.81L299.48 236.81L300.76 225.78L291.06 225.78L291.06 213.72L302.29 213.72L303.57 203.45L293.87 203.45L293.87 191.39L305.1 191.39L306.38 180.36L319.14 180.36L317.87 191.39L325.78 191.39L327.06 180.36L339.83 180.36L338.55 191.39L348.25 191.39L348.25 203.45L337.02 203.45ZM324.25 203.45L316.33 203.45L315.06 213.72L322.97 213.72L324.25 203.45Z" />
	<path class="shp1" d="M461.06 132.78L461.06 215.67L439.36 197.19L439.36 149.21L428.38 149.21L428.38 132.78L461.06 132.78Z" />
	<path fill-rule="evenodd" class="shp1" d="M415.1 257.24C389.82 257.24 369.14 236.46 369.14 211.05C369.14 185.65 389.82 164.86 415.1 164.86C440.38 164.86 461.06 185.65 461.06 211.05C461.06 236.46 440.38 257.24 415.1 257.24ZM415.1 186.93C401.82 186.93 391.1 197.71 391.1 211.05C391.1 224.4 401.82 235.17 415.1 235.17C428.38 235.17 439.1 224.4 439.1 211.05C439.1 197.71 428.38 186.93 415.1 186.93Z" />
	<path class="shp1" d="M224.11 171.53L224.11 179.75C224.11 181.54 224.62 183.08 225.64 184.11C226.67 185.13 228.2 185.65 230.24 185.65L231.01 185.65L231.01 200.27L224.62 200.27C217.99 200.27 213.13 198.74 209.81 195.66C206.5 192.58 204.71 187.96 204.71 182.06L204.71 171.28C204.71 169.99 204.45 168.97 203.69 168.45C202.92 167.94 202.15 167.43 200.88 167.43L198.32 167.43L198.32 152.8L201.13 152.8C202.15 152.8 203.18 152.54 203.94 151.77C204.71 151.26 204.96 150.23 204.96 148.95L204.96 138.43C204.96 132.53 206.75 128.16 210.07 124.83C213.39 121.75 218.24 120.21 224.88 120.21L231.26 120.21L231.26 134.84L230.5 134.84C228.45 134.84 226.92 135.35 225.9 136.38C224.88 137.4 224.37 138.94 224.37 140.74L224.37 148.69C224.37 152.03 223.86 154.6 222.84 156.39C221.81 158.19 220.03 159.47 217.48 160.24C220.03 161.01 221.56 162.29 222.84 164.09C223.6 165.63 224.11 168.2 224.11 171.53Z" />
	<path class="shp1" d="M496.3 211.16L514.94 211.16L514.94 192.94L535.36 192.94L535.36 211.16L554 211.16L554 230.66L535.36 230.66L535.36 248.88L514.94 248.88L514.94 230.66L496.3 230.66L496.3 211.16Z" />
	<path class="shp1" d="M1015.81 16.36L1015.81 76.15L995.64 76.15L995.64 31.76L985.42 31.76L985.42 16.36L1015.81 16.36Z" />
	<path fill-rule="evenodd" class="shp1" d="M891.76 42.7C891.76 19.35 910.66 0.36 933.89 0.36C957.13 0.36 976.02 19.35 976.02 42.7C976.02 66.05 957.13 85.04 933.89 85.04C910.4 84.79 891.76 65.8 891.76 42.7ZM911.42 42.7C911.42 55.02 921.38 65.03 933.64 65.03C945.89 65.03 955.85 55.02 955.85 42.7C955.85 30.38 945.89 20.38 933.64 20.38C921.38 20.12 911.42 30.38 911.42 42.7Z" />
	<path class="shp1" d="M1188.76 106.1L1188.76 97.89C1188.76 96.09 1188.25 94.55 1187.22 93.53C1186.2 92.5 1184.67 91.99 1182.63 91.99L1181.86 91.99L1181.86 77.36L1188.25 77.36C1194.88 77.36 1199.74 78.9 1203.05 81.98C1206.37 85.06 1208.16 89.68 1208.16 95.58L1208.16 106.36C1208.16 107.64 1208.42 108.67 1209.18 109.18C1209.95 109.69 1210.71 110.2 1211.99 110.2L1214.8 110.2L1214.8 124.83L1211.99 124.83C1210.97 124.83 1209.95 125.09 1209.18 125.86C1208.42 126.37 1208.16 127.4 1208.16 128.68L1208.16 139.46C1208.16 145.36 1206.37 149.72 1203.05 153.06C1199.74 156.14 1194.88 157.68 1188.25 157.68L1181.86 157.68L1181.86 143.05L1182.63 143.05C1184.67 143.05 1186.2 142.54 1187.22 141.51C1188.25 140.49 1188.76 138.95 1188.76 137.15L1188.76 128.94C1188.76 125.6 1189.27 123.04 1190.29 121.24C1191.31 119.44 1193.1 118.16 1195.65 117.39C1193.1 116.62 1191.56 115.34 1190.29 113.54C1189.27 112 1188.76 109.44 1188.76 106.1Z" />
	<path fill-rule="evenodd" class="shp1" d="M702.09 227.79L702.09 133.36L777.93 180.57L702.09 227.79ZM720.99 166.46L720.99 194.69L743.71 180.57L720.99 166.46Z" />
	<path class="shp1" d="M570.34 221.58L588.98 221.58L588.98 203.36L609.41 203.36L609.41 221.58L628.05 221.58L628.05 240.82L609.41 240.82L609.41 259.04L588.98 259.04L588.98 240.82L570.34 240.82L570.34 221.58Z" />
</svg>