<?xml version="1.0" encoding="UTF-8"?>
<svg width="24" height="24" viewBox="0 0 24 24" fill="none" xmlns="http://www.w3.org/2000/svg">
<path d="M22.2244 0H1.77026C0.79373 0 0 0.77484 0 1.73071V22.2687C0 23.224 0.79373 24 1.77026 24H22.2244C23.2027 24 24 23.224 24 22.2681V1.73071C24 0.77484 23.2033 0 22.2244 0Z" fill="#2767B2"/>
<path d="M3.55587 8.99732H7.1194V20.4507H3.55587V8.99732ZM5.33852 3.30396C6.47722 3.30396 7.40186 4.22857 7.40186 5.36784C7.40186 6.50769 6.47722 7.43231 5.33852 7.43231C4.1951 7.43231 3.27341 6.50769 3.27341 5.36784C3.27341 4.22857 4.19569 3.30396 5.33852 3.30396Z" fill="white"/>
<path d="M9.35257 8.99736H12.7645V10.563H12.8135C13.2882 9.66252 14.4493 8.71313 16.1812 8.71313C19.7855 8.71313 20.4518 11.0848 20.4518 14.1694V20.4507H16.8924V14.8812C16.8924 13.5532 16.8694 11.8443 15.0425 11.8443C13.1903 11.8443 12.9078 13.292 12.9078 14.7863V20.4507H9.35257V8.99736Z" fill="white"/>
</svg>
