<?xml version="1.0" encoding="UTF-8"?>
<svg width="98" height="47" viewBox="0 0 98 47" fill="none" xmlns="http://www.w3.org/2000/svg">
<path d="M50.4103 23.7034C52.0443 24.7095 53.6295 25.691 55.1904 26.6725C50.9712 35.0643 37.4847 39.7264 27.6563 30.0096C22.9006 34.9907 17.1207 36.6347 10.5115 34.917C5.95095 33.7393 2.56101 30.8684 0.0246582 26.7706C1.65866 25.7155 3.1951 24.7095 4.73155 23.7034C5.51196 24.6359 6.14605 25.5437 6.95086 26.2799C10.4627 29.5188 14.5355 30.5003 19.0961 29.1017C20.0228 28.8072 20.9496 28.2429 21.7056 27.5804C23.5591 26.01 23.2664 23.3354 21.0471 22.3539C18.901 21.446 16.6085 20.8816 14.3892 20.0964C12.2918 19.3603 10.1457 18.7223 8.14587 17.7163C4.97543 16.1214 2.87806 13.6431 2.95122 9.83977C3.02439 5.81562 5.09737 2.99381 8.60924 1.39888C14.0478 -1.0794 19.1936 -0.0488314 23.9981 3.33734C24.3395 3.58271 24.6322 3.82809 24.9492 4.098C24.998 4.14708 25.0224 4.24522 25.0468 4.26976C23.9981 5.8647 22.9738 7.45963 22.1446 8.76012C20.0472 7.90131 18.1206 6.89527 16.0476 6.30637C14.2917 5.79108 12.4138 5.93831 10.731 6.87073C9.68232 7.45963 8.92629 8.26937 8.92629 9.56985C8.92629 10.8703 9.73109 11.631 10.7798 12.0481C12.1211 12.6125 13.5112 13.0296 14.9014 13.4713C17.5597 14.3056 20.2423 15.1153 22.9982 15.9741C23.6079 11.2629 25.6565 7.21426 29.4122 4.12254C32.1925 1.81602 35.4361 0.51553 39.0455 0.270156C47.5325 -0.318743 53.6052 5.17765 55.4343 9.44717C53.8734 10.4041 52.2882 11.3856 50.6054 12.4162C48.1422 8.34298 44.6548 6.061 39.8747 6.18368C36.6799 6.2573 33.9972 7.58232 31.8023 9.91338C27.388 14.6 27.827 22.4275 32.6802 26.697C37.4603 30.8438 45.7278 30.8929 50.4103 23.7034Z" fill="#717171"/>
<path d="M57.8487 21.0285C51.9224 21.0285 46.2156 21.0285 40.3381 21.0285C40.3381 19.2372 40.2893 17.4951 40.3868 15.7774C40.3868 15.5566 41.0453 15.1885 41.4111 15.1885C45.0937 15.1395 48.8007 15.164 52.4833 15.164C53.9466 15.164 55.4099 15.1885 56.8731 15.1395C57.6048 15.1149 57.8731 15.3848 57.8731 16.121C57.8243 17.7404 57.8487 19.3108 57.8487 21.0285Z" fill="#717171"/>
<path d="M75.4324 22.1573C77.3835 22.1573 79.2369 22.1327 81.0904 22.1818C81.2855 22.1818 81.6026 22.648 81.627 22.9179C81.6757 24.4638 81.627 26.0096 81.6514 27.5555C81.6514 28.218 81.3099 28.3898 80.749 28.3652C79.2857 28.3407 77.8224 28.3898 76.3836 28.3162C76.0665 28.2916 75.53 27.899 75.5056 27.6537C75.408 25.9115 75.4324 24.1203 75.4324 22.1573Z" fill="#717171"/>
<path d="M75.8227 46.4985C75.8227 44.1429 75.8227 41.8119 75.8227 39.4808C77.8225 39.1373 77.8469 39.1373 78.5297 40.904C78.8468 41.7383 79.1882 42.5725 79.5053 43.4068C79.5296 43.4559 79.6272 43.505 79.7491 43.6031C80.0906 42.7198 80.432 41.8609 80.7734 40.9776C81.4807 39.1864 81.4807 39.1864 83.6268 39.4563C83.6268 40.6095 83.6268 41.8119 83.6268 43.0142C83.6268 43.7994 83.5781 44.5601 83.6512 45.3453C83.7488 46.4495 83.3342 46.8666 82.0904 46.474C82.0904 45.0754 82.0904 43.6522 82.0904 42.2045C81.9928 42.1799 81.8709 42.1554 81.7733 42.1309C81.3588 43.186 80.9685 44.2656 80.5052 45.3207C80.3101 45.7624 79.9686 46.155 79.7004 46.5721C79.4077 46.1795 79.0419 45.8115 78.8468 45.3698C78.3834 44.3147 77.9932 43.2105 77.3103 42.1799C77.3103 43.2596 77.2616 44.3147 77.3347 45.3943C77.4323 46.5721 76.9201 46.8175 75.8227 46.4985Z" fill="#717171"/>
<path d="M89.0166 0.0245375C89.0166 1.91392 89.0409 3.68062 88.9922 5.44732C88.9922 5.69269 88.5288 6.10983 88.2605 6.10983C86.529 6.1589 84.7974 6.13437 82.9196 6.13437C82.9196 4.04868 82.9196 2.06115 82.9196 0C84.9194 0.0245375 86.846 0.0245375 89.0166 0.0245375Z" fill="#717171"/>
<path d="M60.8484 28.2425C60.8484 26.2059 60.8484 24.2674 60.8484 22.2554C62.8726 22.2554 64.8236 22.2554 66.8235 22.2554C66.8235 24.2674 66.8235 26.2059 66.8235 28.2425C64.848 28.2425 62.9214 28.2425 60.8484 28.2425Z" fill="#717171"/>
<path d="M90.2604 35.7511C90.2604 33.5427 90.2604 31.6288 90.2604 29.6658C92.2846 29.6658 94.2356 29.6658 96.333 29.6658C96.333 31.5306 96.3574 33.3218 96.3086 35.0885C96.3086 35.3094 95.9916 35.7265 95.7965 35.7265C93.9674 35.7511 92.1383 35.7511 90.2604 35.7511Z" fill="#717171"/>
<path d="M60.8728 29.6411C62.897 29.6411 64.8237 29.6411 66.8235 29.6411C66.8235 31.6532 66.8235 33.5916 66.8235 35.6283C64.8724 35.6283 62.897 35.6283 60.8728 35.6283C60.8728 33.6653 60.8728 31.7268 60.8728 29.6411Z" fill="#717171"/>
<path d="M90.2604 20.9059C90.2604 18.7466 90.2604 16.8081 90.2604 14.7224C92.1383 14.7224 93.943 14.6979 95.7477 14.747C95.9672 14.747 96.333 15.1887 96.333 15.434C96.3818 17.0044 96.3818 18.5994 96.333 20.1698C96.333 20.4151 95.9672 20.8568 95.7721 20.8813C93.9674 20.9304 92.1626 20.9059 90.2604 20.9059Z" fill="#717171"/>
<path d="M66.8234 6.06075C64.7992 6.06075 62.9214 6.06075 60.8972 6.06075C60.8972 4.09775 60.8972 2.13476 60.8972 0.0490723C62.8482 0.0490723 64.7992 0.0490723 66.8234 0.0490723C66.8234 2.06114 66.8234 3.9996 66.8234 6.06075Z" fill="#717171"/>
<path d="M60.8728 7.41016C62.8726 7.41016 64.7993 7.41016 66.8235 7.41016C66.8235 9.42223 66.8235 11.3607 66.8235 13.3973C64.8724 13.3973 62.9214 13.3973 60.8728 13.3973C60.8728 11.4588 60.8728 9.52038 60.8728 7.41016Z" fill="#717171"/>
<path d="M66.8479 14.747C66.8479 16.8572 66.8479 18.7711 66.8479 20.7832C64.8481 20.7832 62.897 20.7832 60.7996 20.7832C60.7996 18.9429 60.7753 17.1271 60.824 15.3114C60.824 15.1151 61.1899 14.7715 61.4093 14.747C63.1653 14.7225 64.9456 14.747 66.8479 14.747Z" fill="#717171"/>
<path d="M68.1892 29.5923C70.0671 29.5923 71.7743 29.5678 73.457 29.6169C73.7253 29.6169 74.1887 30.034 74.1887 30.2794C74.2618 32.0215 74.2131 33.7637 74.2131 35.6776C72.3352 35.6776 70.5792 35.7021 68.7989 35.6531C68.5794 35.6531 68.2136 35.2359 68.1892 34.9906C68.1648 33.2484 68.1892 31.5062 68.1892 29.5923Z" fill="#717171"/>
<path d="M74.1642 0.146973C74.1642 2.13451 74.1642 4.02389 74.1642 6.08504C72.3351 6.08504 70.5548 6.10958 68.7745 6.0605C68.555 6.0605 68.1892 5.61883 68.1892 5.37345C68.1404 3.68037 68.1648 1.96275 68.1648 0.17151C70.2134 0.146973 72.1156 0.146973 74.1642 0.146973Z" fill="#717171"/>
<path d="M74.1399 13.373C72.1644 13.373 70.2378 13.373 68.238 13.373C68.238 11.41 68.238 9.52062 68.238 7.50854C70.2134 7.50854 72.1157 7.50854 74.1399 7.50854C74.1399 9.447 74.1399 11.3609 74.1399 13.373Z" fill="#717171"/>
<path d="M68.238 20.8813C68.238 18.7956 68.238 16.8817 68.238 14.8206C70.0671 14.8206 71.823 14.796 73.6033 14.8697C73.8228 14.8697 74.213 15.3849 74.213 15.6794C74.2862 17.1516 74.2862 18.6239 74.213 20.0716C74.1887 20.366 73.7497 20.8568 73.4814 20.8568C71.7742 20.9059 70.0671 20.8813 68.238 20.8813Z" fill="#717171"/>
<path d="M68.2624 28.2672C68.2624 26.206 68.2624 24.2921 68.2624 22.231C70.0671 22.231 71.7986 22.2064 73.5302 22.2801C73.774 22.2801 74.1887 22.8199 74.213 23.1143C74.2862 24.5375 74.2862 25.9607 74.213 27.3838C74.1887 27.7028 73.7984 28.2427 73.5546 28.2427C71.7986 28.2917 70.0671 28.2672 68.2624 28.2672Z" fill="#717171"/>
<path d="M81.4563 35.5303C79.5296 35.5303 77.6518 35.5303 75.6763 35.5303C75.6763 33.641 75.6763 31.7516 75.6763 29.7886C77.5786 29.7886 79.4809 29.7886 81.4563 29.7886C81.4563 31.7025 81.4563 33.5919 81.4563 35.5303Z" fill="#717171"/>
<path d="M75.5788 14.8943C77.6517 14.8943 79.5052 14.8943 81.5538 14.8943C81.5538 16.7101 81.5782 18.4768 81.5294 20.2435C81.5294 20.4643 81.0661 20.8078 80.8222 20.8324C79.3345 20.8814 77.8225 20.906 76.3348 20.8324C76.0909 20.8324 75.6519 20.3661 75.6519 20.0962C75.53 18.4031 75.5788 16.7101 75.5788 14.8943Z" fill="#717171"/>
<path d="M75.6275 5.91376C75.6275 3.9753 75.6275 2.13499 75.6275 0.196533C77.603 0.196533 79.5052 0.196533 81.4807 0.196533C81.4807 2.13499 81.4807 3.9753 81.4807 5.91376C79.554 5.91376 77.6761 5.91376 75.6275 5.91376Z" fill="#717171"/>
<path d="M75.6276 13.2995C75.6032 12.8824 75.5788 12.5143 75.5788 12.1708C75.5788 10.674 75.5788 9.17721 75.5788 7.58228C77.603 7.58228 79.5053 7.58228 81.4807 7.58228C81.4807 9.4962 81.4807 11.3365 81.4807 13.2995C79.5297 13.2995 77.6274 13.2995 75.6276 13.2995Z" fill="#717171"/>
<path d="M85.9681 22.2554C88.8459 22.2554 88.8459 22.2554 88.8459 25.1508C88.8459 28.218 88.8459 28.218 85.773 28.218C82.8952 28.218 82.8952 28.218 82.8952 25.3226C82.9196 22.2554 82.9196 22.2554 85.9681 22.2554Z" fill="#717171"/>
<path d="M82.9196 20.587C82.9196 18.8939 82.8708 17.3235 82.9684 15.7531C82.9927 15.4587 83.5293 14.9679 83.8463 14.9434C85.4559 14.8698 87.0655 14.8943 88.7727 14.8943C88.7727 16.8082 88.7727 18.6485 88.7727 20.587C86.8461 20.587 84.9682 20.587 82.9196 20.587Z" fill="#717171"/>
<path d="M88.7971 7.53273C88.7971 9.49573 88.7971 11.3115 88.7971 13.2254C86.8948 13.2254 85.0169 13.2254 82.9439 13.2254C82.9439 11.5814 82.9195 9.88833 82.9927 8.19525C82.9927 7.97441 83.5292 7.58181 83.8219 7.58181C85.4071 7.5082 87.0167 7.53273 88.7971 7.53273Z" fill="#717171"/>
<path d="M88.7483 35.5793C87.0167 35.5793 85.3583 35.6284 83.7244 35.5302C83.4561 35.5057 82.9683 35.0149 82.9683 34.745C82.8952 33.1746 82.9439 31.5797 82.9439 29.9111C84.895 29.9111 86.7972 29.9111 88.7727 29.9111C88.7483 31.7024 88.7483 33.5427 88.7483 35.5793Z" fill="#717171"/>
<path d="M96.0647 5.86468C94.2112 5.86468 92.4309 5.86468 90.5286 5.86468C90.5286 3.99984 90.5286 2.15953 90.5286 0.245605C92.3821 0.245605 94.1624 0.245605 96.0647 0.245605C96.0647 2.13499 96.0647 3.9753 96.0647 5.86468Z" fill="#717171"/>
<path d="M90.5042 13.2011C90.5042 11.3117 90.5042 9.52049 90.5042 7.6311C92.3577 7.6311 94.1624 7.6311 96.0647 7.6311C96.0647 9.44688 96.0647 11.2872 96.0647 13.2011C94.26 13.2011 92.4553 13.2011 90.5042 13.2011Z" fill="#717171"/>
<path d="M90.5286 22.5254C92.4065 22.5254 94.2112 22.5254 96.1623 22.5254C96.1623 24.1939 96.1867 25.8134 96.1379 27.4083C96.1379 27.6783 95.6989 28.1445 95.4306 28.1445C93.821 28.2181 92.2114 28.169 90.5286 28.169C90.5286 26.2796 90.5286 24.4884 90.5286 22.5254Z" fill="#717171"/>
<path d="M24.0225 39.5051C25.1931 39.137 25.8272 39.456 26.3637 40.3148C27.0953 41.4436 27.9245 42.4741 28.9244 43.7991C28.9244 42.1797 28.9244 40.8301 28.9244 39.4315C29.5098 39.4315 29.9244 39.4315 30.4609 39.4315C30.4609 41.7871 30.4609 44.1181 30.4609 46.4737C29.5585 46.8173 28.9488 46.621 28.4123 45.7867C27.6075 44.5843 26.7051 43.4311 25.6321 41.9588C25.6321 43.6765 25.6321 45.0506 25.6321 46.351C24.1688 46.7927 24.0468 46.7191 24.0468 45.4677C24.0225 43.5047 24.0225 41.5172 24.0225 39.5051Z" fill="#717171"/>
<path d="M65.726 44.2901C65.0188 43.6767 63.2872 44.5846 63.8725 42.6706C64.9212 42.6706 65.9699 42.6706 66.9942 42.6706C67.6771 45.0017 67.1405 46.1304 65.0675 46.6457C62.9702 47.161 60.7996 45.885 60.385 43.8484C60.0192 42.1063 60.824 40.3886 62.3361 39.6525C64.0432 38.8183 65.7504 39.2109 67.0186 40.7812C66.482 41.3947 65.9943 41.591 65.2139 41.0021C64.3359 40.3396 63.1653 40.5604 62.4824 41.3701C61.7264 42.229 61.6776 43.6276 62.3848 44.5355C62.9945 45.2961 64.2871 45.6151 65.1407 45.1244C65.3846 44.9526 65.5309 44.56 65.726 44.2901Z" fill="#717171"/>
<path d="M5.92655 40.2415C5.63389 40.6341 5.4144 40.9531 5.2193 41.1985C4.43888 41.0022 3.75601 40.7323 3.04876 40.6587C2.70733 40.6341 2.34151 41.0022 1.97569 41.1985C2.24396 41.4439 2.48784 41.7874 2.80488 41.9346C3.39019 42.18 4.04867 42.2781 4.65837 42.499C5.53634 42.7934 6.12165 43.4069 6.09727 44.3884C6.07288 45.4189 5.56073 46.1796 4.56082 46.4986C2.95121 47.0139 1.46354 46.744 0.0978088 45.6152C0.366077 45.1981 0.58557 44.8791 0.731898 44.6828C1.78058 44.9037 2.68294 45.1736 3.60969 45.2472C3.87795 45.2717 4.195 44.83 4.48766 44.6092C4.24377 44.3638 4.04867 44.0203 3.75601 43.8976C3.07315 43.6277 2.34151 43.5296 1.65864 43.2596C0.82945 42.9407 0.170973 42.3272 0.390465 41.4193C0.58557 40.7077 1.07333 39.8735 1.65864 39.5545C3.14631 38.8184 4.58521 39.211 5.92655 40.2415Z" fill="#717171"/>
<path d="M91.0164 45.6154C91.309 45.1983 91.5285 44.8793 91.6749 44.6584C92.626 44.9038 93.4552 45.1737 94.3088 45.2719C94.6502 45.2964 95.016 44.9038 95.3818 44.7075C95.1136 44.4131 94.8697 44.0205 94.5283 43.8732C93.9429 43.6033 93.2845 43.5542 92.6748 43.3334C91.7968 43.0144 91.0895 42.3519 91.3334 41.4195C91.5285 40.7079 92.1138 39.8491 92.7479 39.5301C94.1137 38.8431 95.5038 39.2356 96.8451 40.1926C96.5768 40.5852 96.3573 40.9287 96.1866 41.1986C95.3331 41.0023 94.6014 40.757 93.8698 40.6834C93.5771 40.6588 93.2357 41.0269 92.9186 41.2232C93.1625 41.4686 93.3576 41.7875 93.6503 41.9102C94.2844 42.1801 94.9672 42.2783 95.6257 42.5237C96.5525 42.8672 97.1378 43.5297 97.089 44.5357C97.0402 45.5172 96.4793 46.2288 95.5525 46.5233C93.8698 47.014 92.4065 46.7441 91.0164 45.6154Z" fill="#717171"/>
<path d="M86.7485 45.2962C87.9435 45.2962 89.041 45.2962 90.1872 45.2962C90.2116 45.7379 90.236 46.0814 90.236 46.5231C88.5288 46.5231 86.8948 46.5231 85.1877 46.5231C85.1877 44.1675 85.1877 41.861 85.1877 39.4563C86.846 39.4563 88.4556 39.4563 90.1628 39.4563C90.1872 39.8244 90.2116 40.1679 90.236 40.6586C89.041 40.6586 87.9435 40.6586 86.7241 40.6586C86.6997 41.1739 86.6753 41.5665 86.6265 42.1554C87.6021 42.1554 88.48 42.0818 89.3336 42.18C89.6263 42.2045 89.8945 42.6462 90.1872 42.867C89.8945 43.0878 89.6263 43.4804 89.3092 43.5295C88.48 43.6277 87.6265 43.5541 86.7241 43.5541C86.7485 44.1675 86.7485 44.6337 86.7485 45.2962Z" fill="#717171"/>
<path d="M19.1937 40.6587C19.1937 41.2476 19.1937 41.5911 19.1937 42.1555C20.096 42.1555 20.974 42.0819 21.852 42.18C22.169 42.2046 22.4129 42.6462 22.7055 42.8916C22.4129 43.1124 22.1446 43.505 21.8276 43.5541C20.9984 43.6523 20.1448 43.5787 19.2424 43.5787C19.2424 44.1921 19.2424 44.6583 19.2424 45.2472C20.3887 45.2472 21.5105 45.2472 22.608 45.2472C22.9738 46.2287 22.7787 46.6704 21.7788 46.6213C20.4618 46.5722 19.1205 46.6213 17.706 46.6213C17.706 44.1676 17.706 41.861 17.706 39.3582C19.2424 39.3582 20.7789 39.3091 22.2909 39.4073C22.5104 39.4318 22.7055 40.0453 23.0714 40.6587C21.5593 40.6587 20.4618 40.6587 19.1937 40.6587Z" fill="#717171"/>
<path d="M13.6819 41.2966C12.9259 41.2476 12.2918 41.3703 11.9016 41.1249C10.8285 40.4624 9.73107 40.4869 8.95065 41.3703C8.19463 42.2291 8.19463 43.7995 8.95065 44.6337C9.70668 45.4925 10.9261 45.5662 11.9016 44.8055C12.0479 44.6828 12.1943 44.5356 12.3894 44.3884C12.7552 44.5847 13.121 44.7564 13.4624 44.9282C12.7308 46.3759 11.3895 47.0139 9.82862 46.6949C8.0483 46.3023 6.85328 44.9773 6.75573 43.2351C6.63379 41.542 7.70687 39.9716 9.29209 39.4563C11.0724 38.8674 12.4869 39.3827 13.6819 41.2966Z" fill="#717171"/>
<path d="M55.605 41.6157C54.2392 40.4134 53.1418 40.3397 52.215 41.2967C51.337 42.2046 51.3127 43.7259 52.1419 44.6338C53.0442 45.6398 54.1904 45.5662 55.5806 44.3884C55.922 44.5602 56.2634 44.7319 56.6049 44.9282C55.9708 46.3269 54.6538 46.9894 53.1174 46.7195C51.2639 46.4005 50.0445 45.0509 49.9713 43.2106C49.8738 41.3458 50.8737 39.9226 52.5808 39.4073C54.3368 38.892 55.7269 39.4073 56.6536 41.0022C56.3122 41.1985 55.9708 41.3948 55.605 41.6157Z" fill="#717171"/>
<path d="M41.1185 39.3582C42.6061 39.3582 44.0206 39.3582 45.4352 39.3582C46.3863 39.3582 46.1668 39.9716 46.0692 40.6832C44.923 40.6832 43.8255 40.6832 42.6061 40.6832C42.5818 41.1985 42.5574 41.5911 42.5086 42.18C43.3866 42.18 44.1914 42.229 44.9962 42.18C45.9473 42.1063 46.2643 42.4989 45.9473 43.5786C44.8986 43.5786 43.7768 43.5786 42.533 43.5786C42.533 44.6582 42.533 45.5661 42.533 46.5722C41.9964 46.5967 41.6306 46.6212 41.1185 46.6458C41.1185 44.2166 41.1185 41.8855 41.1185 39.3582Z" fill="#717171"/>
<path d="M35.0946 46.6211C34.4605 46.5966 34.0703 46.572 33.5582 46.5475C33.5582 44.609 33.5582 42.7442 33.5582 40.7812C32.8265 40.7321 32.1924 40.683 31.5584 40.634C31.2169 39.7506 31.3632 39.309 32.3875 39.3335C33.924 39.3826 35.4604 39.3335 37.0944 39.3335C37.0944 39.7997 37.0944 40.1678 37.0944 40.6094C36.4603 40.6585 35.875 40.7076 35.119 40.7567C35.0946 42.6706 35.0946 44.5845 35.0946 46.6211Z" fill="#717171"/>
<path d="M14.7794 39.4316C15.2672 39.4316 15.6818 39.4316 16.1695 39.4316C16.1695 41.8118 16.1695 44.1183 16.1695 46.523C15.7062 46.523 15.2916 46.523 14.7794 46.523C14.7794 44.1674 14.7794 41.8363 14.7794 39.4316Z" fill="#717171"/>
<path d="M39.5089 46.474C38.5334 46.793 37.9968 46.6458 38.0456 45.4925C38.0944 43.505 38.07 41.5174 38.07 39.4563C38.6065 39.4563 39.0211 39.4563 39.5333 39.4563C39.5089 41.8119 39.5089 44.143 39.5089 46.474Z" fill="#717171"/>
<path d="M48.7764 46.5476C48.2886 46.5476 47.8984 46.5476 47.4106 46.5476C47.4106 44.143 47.4106 41.8119 47.4106 39.4072C47.874 39.4072 48.2642 39.4072 48.7764 39.4072C48.7764 41.7874 48.7764 44.1184 48.7764 46.5476Z" fill="#717171"/>
<path fill-rule="evenodd" clip-rule="evenodd" d="M67.9556 45.3341C67.8154 45.7027 67.6741 46.0744 67.5307 46.4495C68.9452 46.7194 68.9452 46.7194 69.5306 45.836C69.9451 45.1981 72.6522 45.0999 72.8961 45.787C73.3107 46.8911 74.0423 46.7194 74.9447 46.4985C74.7252 45.9244 74.5106 45.3552 74.2975 44.79C73.6818 43.1569 73.0787 41.5575 72.4083 39.9716C72.2864 39.6526 71.6035 39.4072 71.1646 39.4072C70.7743 39.4072 70.189 39.7017 70.0671 40.0207C69.3163 41.756 68.65 43.5083 67.9556 45.3341ZM72.3351 43.9219C72.3351 43.922 72.3352 43.9221 72.3352 43.9221H70.2378C70.2378 43.9221 70.2378 43.922 70.2379 43.9219H70.2378C70.4071 43.4241 70.5624 42.9612 70.7299 42.4623C70.8761 42.0269 71.0314 41.564 71.2133 41.0265C71.5037 41.7828 71.7463 42.4067 71.9997 43.0584C72.108 43.337 72.2183 43.6207 72.3352 43.9219H72.3351Z" fill="#717171"/>
</svg>
