<?xml version="1.0" encoding="UTF-8"?>
<svg width="104" height="30" viewBox="0 0 104 30" fill="none" xmlns="http://www.w3.org/2000/svg">
<path fill-rule="evenodd" clip-rule="evenodd" d="M26.058 3.4873H20.4069V25.5318H22.2095V25.5353H36.119V20.589H26.058V3.4873Z" fill="#717171"/>
<path fill-rule="evenodd" clip-rule="evenodd" d="M44.3903 20.5882V16.71H52.5218V12.077H44.3903V8.51378H54.4043V3.56575H44.3903V3.48657H38.7392V25.5327H41.0459V25.5363H54.9571V20.5882H44.3903Z" fill="#717171"/>
<path fill-rule="evenodd" clip-rule="evenodd" d="M77.6071 0V6.9892C77.6071 9.41747 75.3195 11.9284 72.3002 11.9284H72.2324V16.887C75.2517 16.887 77.6783 19.1904 77.6783 21.8263V28.8172H82.7766V21.8263C82.7766 18.7522 81.2556 16.0459 78.9438 14.4077C81.2556 12.7695 82.7766 10.0632 82.7766 6.9892V0H77.6071ZM67.5461 0V4.58556C67.5461 5.75043 68.4812 6.6971 69.6337 6.6971H70.767C71.9178 6.6971 72.8529 5.75043 72.8529 4.58556V0H67.5461ZM57.6902 0V6.9892C57.6902 10.0632 59.2112 12.7695 61.523 14.4077C59.2112 16.0459 57.6902 18.7522 57.6902 21.8263V28.8172H62.8597V21.8263C62.8597 19.3998 65.149 16.887 68.1666 16.887H68.2362V11.9284C65.2151 11.9284 62.7902 9.62686 62.7902 6.9892V0H57.6902ZM69.6337 22.3243C68.4812 22.3243 67.5461 23.2692 67.5461 24.4358V29.0196H72.8529V24.4358C72.8529 23.2692 71.9178 22.3243 70.767 22.3243H69.6337Z" fill="#717171"/>
<mask id="mask0" mask-type="alpha" maskUnits="userSpaceOnUse" x="85" y="3" width="19" height="23">
<path d="M85.4633 3.48804H103.245V25.5324H85.4633V3.48804Z" fill="#717171"/>
</mask>
<g mask="url(#mask0)">
<path fill-rule="evenodd" clip-rule="evenodd" d="M96.5064 11.1529C96.5064 12.455 95.4635 13.509 94.1772 13.509H91.13V8.16156H94.1772C95.4635 8.16156 96.5064 9.21557 96.5064 10.5177V11.1529ZM98.6497 17.301H98.6184C100.132 16.3807 102.005 14.3202 102.005 10.0919C102.005 3.67456 95.2045 3.48804 95.2045 3.48804H91.1144H85.4633V25.5324H91.1144V17.952H93.3671H93.4123L97.1339 25.5324H103.246L98.6497 17.301Z" fill="#717171"/>
</g>
<mask id="mask1" mask-type="alpha" maskUnits="userSpaceOnUse" x="0" y="3" width="19" height="23">
<path d="M0.374756 3.4873H18.1098V25.5317H0.374756V3.4873Z" fill="#717171"/>
</mask>
<g mask="url(#mask1)">
<path fill-rule="evenodd" clip-rule="evenodd" d="M12.2205 19.0264C12.2205 20.42 11.1028 21.5515 9.72439 21.5515H6.02712V16.2462H9.72439C11.1028 16.2462 12.2205 17.3777 12.2205 18.7713V19.0264ZM6.02712 7.735H8.89698C10.1537 7.735 11.1706 8.76613 11.1706 10.0383V10.1298C11.1706 11.402 10.1537 12.4332 8.89698 12.4332H6.02712V7.735ZM13.4234 13.9517C13.4234 13.9517 16.9155 13.7194 16.9155 8.65176C16.9155 3.58056 10.4823 3.4873 10.4823 3.4873H6.02712H0.374329V25.5317H4.8764H6.02712H10.2997C12.3196 25.5317 18.1097 24.8367 18.1097 19.7197C18.1097 14.6028 13.4234 13.9517 13.4234 13.9517Z" fill="#717171"/>
</g>
</svg>
