<?xml version="1.0" encoding="UTF-8"?>
<svg width="152" height="44" data-name="Layer 1" xmlns="http://www.w3.org/2000/svg" viewBox="0 0 152.717 43.688"><defs><style>.cls-1{fill:#717272;}</style></defs><title>Accenture</title><path class="cls-1" d="M11.145,34.454c0,2.547-1.019,5.924-4.14,5.986a2.259,2.259,0,0,1-2.483-2.42c0-2.992,4.394-3.566,6.623-3.566Zm4.394,8.789V29.04c.064-4.584-2.993-6.176-7.2-6.176-4.14,0-7.578,1.783-7.578,6.305H5.286a2.755,2.755,0,0,1,3.057-3.058c2.293,0,2.8,1.655,2.8,3.63v1.974C6.624,31.842.064,32.479,0,38.465c.064,3.375,2.739,5.223,5.859,5.223,2.229,0,4.2-.764,5.159-2.738h.127v2.293Z"/><path class="cls-1" d="M29.3,30.124c0-2.037-.574-4.013-2.994-4.013-2.929,0-3.757,3.058-3.821,5.477.064,4.967,2.929,8.79,8.215,8.852a14.241,14.241,0,0,0,3.312-.51v2.8a19.764,19.764,0,0,1-5.8.955c-7.068,0-10.635-4.394-10.635-11.271,0-5.8,3.121-9.553,9.107-9.553,4.84,0,7.578,2.356,7.578,7.26Z"/><path class="cls-1" d="M47.127,30.124c0-2.037-.573-4.013-2.993-4.013-2.93,0-3.821,3.058-3.821,5.477,0,4.967,2.929,8.79,8.152,8.852a14.786,14.786,0,0,0,3.375-.51v2.8a19.763,19.763,0,0,1-5.8.955c-7.07,0-10.636-4.394-10.636-11.271,0-5.8,3.12-9.553,9.107-9.553,4.84,0,7.515,2.356,7.515,7.26Z"/><path class="cls-1" d="M65.277,29.3h-7.26a3.745,3.745,0,0,1,3.757-3.438,3.2,3.2,0,0,1,3.5,3.438Zm4.394,2.8V30.952c0-4.905-2.483-8.088-7.578-8.088-5.923,0-8.47,3.693-8.534,9.361.064,6.559,2.993,11.463,10.063,11.463a17.954,17.954,0,0,0,5.541-.828V39.676a14.97,14.97,0,0,1-3.822.764C60.883,40.378,57.89,36.3,57.89,32.1Z"/><path class="cls-1" d="M83.428,43.243v-11.4c0-.955.063-3.5-.7-4.265a1.955,1.955,0,0,0-1.338-.383c-3.375,0-4.713,4.713-4.713,7.451v8.6H72.028V23.309h4.649v3.758h.063a6.3,6.3,0,0,1,5.923-4.2c3.821,0,5.413,3.12,5.413,6.558V43.243Z"/><path class="cls-1" d="M97.693,26.557v9.426c0,2.291.254,4.4,3.121,4.457a11.783,11.783,0,0,0,2.165-.381V43.37a25.781,25.781,0,0,1-3.821.318c-4.012,0-6.05-1.338-6.114-5.476V26.557H89.159V23.309h3.885V18.6l4.649-1.847v6.559h5.922v3.248Z"/><path class="cls-1" d="M116.989,43.243V39.485h-.063a6.262,6.262,0,0,1-5.923,4.2c-3.757,0-5.35-3.184-5.35-6.559V23.309h4.65v11.4c0,.957-.064,3.5.7,4.267a2.356,2.356,0,0,0,1.338.383c3.311-.064,4.648-4.777,4.648-7.387V23.309h4.65V43.243Z"/><path class="cls-1" d="M129.217,34.518v8.725h-4.65V23.309h4.65V27h.064c1.592-2.739,3.12-4.139,6.432-4.139V27.7c-4.713,0-6.5,2.1-6.5,6.814Z"/><path class="cls-1" d="M148.322,29.3h-7.259a3.744,3.744,0,0,1,3.758-3.438,3.166,3.166,0,0,1,3.5,3.438Zm4.4,2.8V30.952c0-4.905-2.484-8.088-7.515-8.088-5.923,0-8.534,3.693-8.534,9.361,0,6.559,2.994,11.463,10,11.463a17.939,17.939,0,0,0,5.54-.828V39.676a14.461,14.461,0,0,1-3.757.764c-4.522-.062-7.451-4.139-7.514-8.342Z"/><path class="cls-1" d="M89.159,0V3.248s9.3,3.567,10.636,4.14c-1.338.51-10.636,4.075-10.636,4.075v3.249l14.456-5.859V5.859L89.159,0Z"/></svg>