<?xml version="1.0" encoding="UTF-8"?>
<svg width="130" height="46" viewBox="0 0 130 46" fill="none" xmlns="http://www.w3.org/2000/svg">
<path d="M65.5988 14.6721C65.5988 12.2836 65.6367 9.89515 65.5609 7.50669C65.523 6.33141 65.8263 5.64899 67.1153 5.91438C68.2147 6.14185 69.6175 5.15613 70.3378 6.78636C70.3378 6.78636 70.8686 6.5968 71.134 6.44515C76.2521 3.98086 80.5362 6.63471 80.5741 12.3594C80.5741 15.4303 80.4983 18.5391 80.612 21.61C80.6499 22.899 80.195 23.2781 79.0197 23.1265C78.6027 23.0507 78.1477 23.0507 77.6928 23.1265C76.4037 23.3161 75.9488 22.8232 75.9867 21.4963C76.1005 18.8045 76.0246 16.0748 76.0246 13.3831C76.0246 10.9567 75.0389 9.66768 73.257 9.62977C71.2856 9.55395 70.262 10.805 70.262 13.3072C70.262 16.0748 70.1862 18.8424 70.2999 21.61C70.3378 22.8611 69.9208 23.2023 68.7076 23.1644C65.6367 23.1265 65.6367 23.2023 65.6367 20.1314C65.5988 18.3117 65.5988 16.4919 65.5988 14.6721Z" fill="#717171"/>
<path d="M122.315 16.4539C122.315 14.71 122.277 12.9281 122.315 11.1841C122.353 10.1605 122.088 9.59182 120.988 9.78139C119.32 10.0847 119.358 9.06105 119.396 7.88578C119.434 6.82424 119.131 5.61105 120.913 5.91435C122.164 6.10391 122.429 5.42149 122.315 4.35995C122.277 3.79127 122.315 3.22258 122.315 2.6539C122.391 -0.227423 121.785 0.189611 124.931 0.037962C126.334 -0.0378623 126.903 0.341259 126.713 1.78192C126.599 2.54016 126.751 3.29841 126.675 4.05665C126.524 5.38358 126.827 6.10391 128.381 5.91435C130.012 5.68687 129.594 6.97589 129.594 7.80995C129.594 8.64402 130.012 9.93303 128.419 9.74347C126.941 9.55391 126.637 10.1984 126.675 11.5633C126.789 14.8995 126.675 18.2358 126.713 21.5721C126.751 22.7473 126.448 23.3539 125.159 23.1644C124.59 23.0886 124.021 23.0886 123.453 23.1644C122.543 23.2402 122.24 22.8611 122.277 21.9512C122.353 20.0935 122.315 18.2737 122.315 16.4539Z" fill="#717171"/>
<path d="M74.3565 40.1491C74.8873 40.4524 76.2142 39.5425 76.2521 40.7178C76.29 42.0826 77.1241 43.7886 75.5318 44.8881C73.4845 46.3288 70.1862 46.1013 68.518 44.4711C66.812 42.8408 66.4708 39.8079 67.7598 37.6848C69.0488 35.5617 71.6647 34.7276 74.2048 35.5996C74.5081 35.7134 74.8114 35.7892 75.0389 35.9787C75.3801 36.2441 76.0625 36.3958 75.6076 37.1161C75.2285 37.6469 74.8873 37.3815 74.5081 37.154C73.712 36.6233 72.8021 36.3579 71.8164 36.4716C70.0724 36.6612 68.8592 37.6469 68.4801 39.3529C68.0631 41.0969 68.2905 42.8029 69.8449 43.9403C71.2477 44.9639 72.7642 44.8881 74.3186 44.2436C75.4559 43.7507 75.1527 42.8029 75.1147 41.9689C75.0768 40.9452 74.2048 41.4002 73.6741 41.3244C73.4466 41.2864 73.1812 41.3244 72.9158 41.3244C72.5746 41.2864 72.0818 41.4381 72.0439 40.8694C72.0059 40.2628 72.423 40.1491 72.9158 40.187C73.3329 40.1491 73.7878 40.1491 74.3565 40.1491Z" fill="#717171"/>
<path d="M25.4119 42.6511C25.8289 44.0918 24.9569 44.9258 23.4405 45.4566C21.2036 46.2528 18.7773 45.7599 17.3745 44.1676C15.7443 42.272 15.6685 39.1632 17.2229 37.1918C18.8531 35.1445 21.7344 34.6137 24.0471 35.9028C24.4262 36.1302 25.1465 36.2061 24.8053 36.9264C24.4262 37.7225 23.9333 37.2676 23.4405 37.0022C21.7723 36.0923 20.1421 36.0923 18.7394 37.4192C17.4124 38.7083 17.0712 40.3385 17.7157 42.0824C18.5877 44.4709 21.2416 45.3429 23.4784 44.2055C24.5778 43.6368 24.1987 42.7269 24.1987 41.9308C24.1987 40.8692 23.2888 41.4379 22.758 41.2863C22.2273 41.1346 21.2416 41.7412 21.2416 40.7555C21.2416 39.6561 22.3031 40.1868 22.8718 40.1868C25.8289 40.111 25.3361 39.8077 25.4119 42.6511Z" fill="#717171"/>
<path d="M5.84922 35.3341C6.79702 35.372 7.70691 35.5995 8.50307 36.1302C8.84428 36.3577 9.10966 36.5473 8.76845 37.0022C8.50307 37.3813 8.23768 37.4951 7.85856 37.1918C7.17614 36.6989 6.37999 36.4335 5.58383 36.4335C4.59812 36.4335 3.65031 36.661 3.42284 37.7984C3.19537 38.9357 4.02943 39.3528 4.90141 39.6182C5.73548 39.8835 6.60746 40.0731 7.40362 40.3764C8.73054 40.8314 9.5267 41.7033 9.37505 43.1819C9.2234 44.6226 8.27559 45.4187 6.94867 45.6841C5.43218 45.9874 3.95361 45.722 2.62668 44.888C2.24756 44.6226 1.60306 44.3951 1.98218 43.7506C2.3613 43.1061 2.81624 43.5231 3.23328 43.8264C4.18108 44.5088 5.28053 44.7742 6.45581 44.6226C7.3657 44.5088 8.01021 44.0539 8.12395 43.1061C8.19977 42.1962 7.669 41.7412 6.83493 41.5138C6.19043 41.3242 5.50801 41.1347 4.8635 40.9451C2.70251 40.3006 1.94427 39.3907 2.20965 37.7605C2.39921 36.0923 3.68822 35.2583 5.84922 35.3341Z" fill="#717171"/>
<path d="M122.126 40.5281C122.126 39.1633 122.126 37.7605 122.126 36.3957C122.126 35.9407 122.126 35.5237 122.77 35.4858C123.491 35.4479 123.566 35.8649 123.566 36.4336C123.566 38.7083 123.604 40.9451 123.529 43.2199C123.491 44.3193 123.87 44.6226 124.931 44.5847C126.107 44.5089 127.32 44.5468 128.495 44.5847C128.798 44.5847 129.14 44.6605 129.177 45.0397C129.215 45.5325 128.912 45.7221 128.495 45.7221C126.599 45.7221 124.742 45.7221 122.846 45.7221C122.126 45.7221 122.088 45.2292 122.088 44.6984C122.126 43.2957 122.126 41.8929 122.126 40.5281Z" fill="#717171"/>
<path d="M95.5494 41.1347C95.5494 40.566 95.4736 39.9973 95.5494 39.4287C95.8148 37.4572 95.5115 36.0924 93.0093 36.5853C92.5543 36.6611 92.0994 36.5473 92.1373 35.9407C92.1752 35.41 92.6302 35.4858 92.9714 35.4858C95.0565 35.4858 97.1038 35.4858 99.189 35.4858C99.606 35.4858 100.137 35.3721 100.099 36.0924C100.061 36.6232 99.6818 36.6232 99.3027 36.6232C98.5065 36.6611 97.3692 36.3957 96.9901 36.8127C96.3456 37.5331 96.8005 38.7083 96.7626 39.694C96.7247 41.2105 96.8005 42.6891 96.7247 44.2056C96.6868 44.6985 97.1796 45.6842 96.1181 45.6083C95.1324 45.5704 95.5873 44.6605 95.5494 44.0919C95.5115 43.1441 95.5494 42.1204 95.5494 41.1347Z" fill="#717171"/>
<path d="M58.3955 40.3008C58.3955 39.0497 58.3955 37.7986 58.3955 36.5095C58.3955 36.0167 58.2817 35.448 59.0779 35.448C59.7603 35.4859 59.6466 35.9788 59.6466 36.3958C59.6466 39.0876 59.6466 41.8172 59.6466 44.509C59.6466 45.0019 59.7603 45.6464 58.9641 45.5705C58.2059 45.5326 58.3955 44.8502 58.3955 44.3953C58.3955 43.0683 58.3955 41.7035 58.3955 40.3008Z" fill="#717171"/>
<path d="M85.0477 40.7176C85.0477 42.1204 85.0477 43.4852 85.0477 44.888C85.0477 45.2671 85.0477 45.6462 84.479 45.6841C83.9483 45.6841 83.8345 45.3429 83.8345 44.9638C83.8345 42.0825 83.8345 39.1632 83.8345 36.2819C83.8345 35.9028 83.8724 35.5237 84.4032 35.5237C85.0856 35.5237 85.0098 36.0165 85.0098 36.4336C85.0477 37.8363 85.0477 39.277 85.0477 40.7176Z" fill="#717171"/>
<path d="M12.2943 0C5.7734 0 0.617348 5.04232 0.579436 11.4874C0.541524 18.0083 5.58384 23.0885 12.1047 23.0885C18.5877 23.0885 23.7059 18.1599 23.7438 11.7907C23.7817 5.3077 18.6635 0 12.2943 0ZM12.1806 18.9182C8.08604 18.9182 4.93933 15.7715 4.93933 11.6769C4.93933 7.43078 8.08604 4.20825 12.2185 4.20825C16.1992 4.20825 19.346 7.50661 19.346 11.639C19.346 15.8094 16.313 18.8803 12.1806 18.9182Z" fill="#717171"/>
<path d="M99.3785 15.4682C98.9615 13.1176 97.2175 11.9044 95.0944 10.805C97.4071 9.28847 98.2411 7.2033 97.3692 4.73901C96.4593 2.08516 94.1087 1.17527 91.6065 0.909886C89.4834 0.682413 87.3224 0.834061 85.1994 0.758237C84.3653 0.720325 84.1378 1.13736 84.1378 1.8956C84.1378 8.60605 84.1378 15.3544 84.1378 22.0649C84.1378 22.7473 84.2136 23.316 85.1235 23.2781C88.0807 23.2022 91.0378 23.5055 93.9571 23.0506C97.6725 22.4061 100.023 19.0319 99.3785 15.4682ZM89.8626 4.51154C92.0235 4.62528 93.3884 5.49726 93.3505 7.08957C93.3126 8.64397 91.9856 9.66759 89.8626 9.70551C88.4977 9.74342 88.4977 9.74342 88.4977 6.86209C88.8389 6.10385 87.5878 4.3978 89.8626 4.51154ZM90.2796 19.3731C89.3318 19.4868 88.4219 19.5248 88.4598 17.7429C88.6115 12.5868 88.2702 13.3072 89.9384 13.2692C93.0851 13.1555 95.0186 14.3687 95.0944 16.416C95.1703 18.3495 93.7675 19.2973 90.2796 19.3731Z" fill="#717171"/>
<path d="M41.7141 8.4165C38.9844 5.08023 35.0795 4.7011 30.2646 7.5066C30.53 6.17968 30.0372 5.68682 28.8619 5.87638C28.2932 5.95221 27.7245 5.95221 27.1558 5.87638C26.3976 5.83847 26.0564 6.02803 26.0564 6.90001C26.0943 13.8 26.0943 20.7379 26.0564 27.638C26.0564 28.3962 26.208 28.8132 27.08 28.7374C27.6487 28.6616 28.2174 28.6616 28.7861 28.7374C30.0751 28.927 30.3784 28.3583 30.3405 27.183C30.2646 25.2495 30.3026 23.2781 30.3026 21.155C34.6625 23.9605 38.5674 23.6193 41.4487 20.3967C44.2542 17.2879 44.368 11.6769 41.7141 8.4165ZM34.8141 19.2215C32.1223 19.2594 30.1888 17.1363 30.2267 14.1791C30.2646 11.4116 32.1223 9.47804 34.7762 9.47804C37.3921 9.47804 39.3257 11.5632 39.2877 14.4066C39.2877 17.0984 37.3163 19.2215 34.8141 19.2215Z" fill="#717171"/>
<path d="M118.145 15.8473C116.742 15.7335 115.15 15.089 113.975 16.9467C112.458 19.411 109.274 20.0555 107.226 18.6907C106.809 18.4253 106.316 18.0462 106.241 17.6291C106.127 17.0226 106.923 16.9846 107.34 16.7951C110.563 15.2407 113.785 13.7242 117.083 12.2835C117.955 11.9044 118.031 11.5253 117.614 10.7291C115.984 7.58243 113.52 5.72473 111.093 5.64891C104.004 5.611 99.9093 10.35 100.895 15.9231C101.577 19.7522 104.762 22.8231 108.364 23.1264C112.61 23.5055 117.008 20.9654 118.221 17.3638C118.41 16.9088 119.169 15.9231 118.145 15.8473ZM107.492 9.78133C109.311 8.87144 110.98 9.13683 112.799 10.5396C110.07 11.8286 107.492 13.0418 104.724 14.3308C104.648 11.9423 105.71 10.6533 107.492 9.78133Z" fill="#717171"/>
<path d="M62.6416 15.7714C61.1631 15.7714 59.5328 15.1269 58.3576 17.0983C56.9548 19.4488 53.7323 20.0175 51.7229 18.6527C51.3059 18.3873 50.7751 18.0082 50.6993 17.5911C50.6235 17.0225 51.3817 16.9845 51.7988 16.7571C54.9834 15.2785 58.168 13.7999 61.3526 12.3214C62.1488 11.9422 62.5279 11.6768 62.0729 10.6532C60.2911 6.78618 55.9691 4.70101 51.9125 5.87629C47.1356 7.24112 44.5954 10.9944 45.2779 15.6197C45.9224 19.828 49.5619 23.0505 53.6944 23.0884C57.8268 23.0884 61.6559 20.5483 62.7933 17.0225C63.0587 16.6054 63.5515 15.7714 62.6416 15.7714ZM51.9883 9.78124C53.8081 8.90926 55.4762 9.13673 57.3339 10.5395C54.5663 11.8285 51.9883 13.0417 49.2207 14.3307C49.2207 12.0181 50.2064 10.6532 51.9883 9.78124Z" fill="#717171"/>
<path d="M51.0026 39.3528C50.396 36.3957 47.5147 34.8033 43.0789 35.5616C40.8421 35.9407 42.5103 38.2533 42.0553 39.6182C41.9416 39.8836 42.0553 40.2248 42.0553 40.566C42.0553 41.8929 42.0553 43.2198 42.0553 44.5089C42.0553 45.0775 41.9795 45.722 42.8515 45.6841C44.4817 45.6462 46.1119 45.9116 47.7042 45.3808C50.1685 44.5089 51.5334 42.0067 51.0026 39.3528ZM49.6377 41.5896C49.0312 43.7885 45.9982 45.305 43.8372 44.5468C43.2685 44.3572 43.3064 43.9402 43.3064 43.4852C43.3064 42.4616 43.3064 41.4759 43.3064 40.4523C43.3064 40.2627 43.2685 40.0731 43.3064 39.8836C43.4581 38.822 42.7377 37.116 43.7235 36.7748C45.2399 36.244 47.1355 36.3577 48.5383 37.6468C49.6378 38.7083 50.0548 40.0352 49.6377 41.5896Z" fill="#717171"/>
<path d="M115.15 45.0398C115.112 44.964 115.036 44.7744 114.96 44.6228C113.709 41.8931 112.458 39.1634 111.245 36.3959C111.018 35.8651 110.866 35.2964 110.108 35.3343C109.463 35.3722 109.387 35.9409 109.16 36.3959C107.947 39.0876 106.696 41.7415 105.52 44.4332C105.369 44.7744 104.61 45.3052 105.482 45.6464C106.013 45.8739 106.506 45.4948 106.582 44.9261C106.923 43.0305 108.288 42.9926 109.804 43.0305C111.51 43.0684 113.406 42.6514 113.823 45.1536C113.899 45.6464 114.43 45.7602 114.885 45.6843C115.226 45.6464 115.302 45.381 115.15 45.0398ZM108.136 41.8552C108.477 40.1112 109.425 38.7464 110.183 36.9266C110.942 38.6706 111.624 40.1492 112.382 41.8552C110.79 41.8552 109.539 41.8552 108.136 41.8552Z" fill="#717171"/>
</svg>
