<?xml version="1.0" encoding="UTF-8"?>
<svg width="102" height="31" viewBox="0 0 102 31" fill="none" xmlns="http://www.w3.org/2000/svg">
<path d="M27.5986 30.2574C26.8966 30.2574 26.2341 30.3048 25.5874 30.2496C24.2624 30.1391 23.4658 29.3741 23.1109 28.128C22.9926 27.7257 22.9059 27.3235 22.7797 26.7951C22.7008 26.9292 22.6693 26.9923 22.6377 27.0396C20.9972 29.3583 18.7337 30.5808 15.918 30.8568C13.4179 31.0935 10.9729 30.8805 8.66997 29.8552C5.35746 28.3961 3.18067 25.8644 1.90298 22.5361C0.846136 19.7757 0.65685 16.897 0.838249 13.9788C0.980214 11.7626 1.41399 9.60948 2.42352 7.61408C4.57665 3.39458 8.02324 1.01273 12.7475 0.531625C15.5316 0.247696 18.2605 0.515852 20.8553 1.62002C24.6804 3.25261 26.7862 6.2181 27.5197 10.2641C27.4093 10.2799 27.3383 10.2956 27.2594 10.2956C25.9739 10.2956 24.6883 10.3035 23.3949 10.2956C22.3222 10.2878 21.4941 9.82242 20.9578 8.89177C19.7984 6.85694 18.0002 5.90262 15.713 5.71334C14.2381 5.59503 12.8027 5.70545 11.4383 6.32852C9.51387 7.21185 8.36238 8.76557 7.65255 10.69C6.88752 12.7564 6.75344 14.9095 6.90329 17.0863C7.0216 18.7346 7.37651 20.3278 8.1652 21.7948C9.52175 24.3186 11.667 25.5805 14.5063 25.7146C15.6578 25.7698 16.7935 25.6594 17.874 25.2414C20.2085 24.3344 21.3679 22.4809 21.9752 20.1464C20.9341 19.7205 19.9246 19.2867 18.8993 18.9003C18.0081 18.5611 17.109 18.2378 16.1862 17.9854C15.2319 17.7251 14.6404 18.0643 14.3249 19.0028C14.1514 19.5233 14.0804 20.0675 13.9384 20.6038C13.9148 20.6985 13.7965 20.8483 13.7176 20.8483C12.7081 20.8562 11.6985 20.8483 10.689 20.8405C10.6654 20.8405 10.6417 20.8168 10.5944 20.7852C10.6417 19.0896 10.6654 17.3702 11.5881 15.8323C12.7948 13.8132 15.0584 12.8825 17.4245 13.4346C19.4751 13.9157 21.3916 14.7754 23.3318 15.5641C23.9233 15.8086 24.5306 16.0215 25.1536 16.1951C26.4708 16.55 27.3304 15.919 27.4487 14.5546C27.4803 14.2312 27.4882 13.9 27.5434 13.5766C27.5591 13.4741 27.7011 13.3242 27.7879 13.3242C28.8211 13.3084 29.8621 13.3163 30.9584 13.3163C30.9584 13.5529 30.9584 13.7738 30.9584 13.9867C30.9348 15.2092 30.8401 16.4238 30.3432 17.5595C29.8227 18.7504 29.0182 19.689 27.8667 20.312C27.6538 20.4303 27.5907 20.5644 27.5907 20.801C27.5986 23.8059 27.5986 26.8109 27.5986 29.8158C27.5986 29.9341 27.5986 30.076 27.5986 30.2574Z" fill="#717171"/>
<path d="M81.6083 10.7617C81.5452 10.7774 81.4978 10.8011 81.4505 10.8011C80.2123 10.8011 78.9819 10.8169 77.7516 10.7853C76.5922 10.7538 75.7483 10.178 75.2041 9.15272C75.0463 8.85302 74.857 8.56909 74.6835 8.27727C73.9658 7.07846 72.8853 6.40807 71.5445 6.10048C69.8567 5.71402 68.1768 5.71402 66.5285 6.21878C64.4226 6.85763 62.9241 8.22995 62.1749 10.2806C60.8814 13.8376 60.7947 17.4734 62.1433 21.0147C63.5235 24.6348 66.3313 25.8809 69.9277 25.597C70.4877 25.5496 71.0477 25.4471 71.584 25.2894C73.8554 24.6348 75.07 22.9785 75.6615 20.8017C75.7798 20.3758 75.9297 20.226 76.395 20.2338C77.9803 20.2733 79.5734 20.2496 81.1587 20.2496C81.3007 20.2496 81.4426 20.2496 81.6161 20.2496C81.5609 21.3065 81.3638 22.2844 81.0641 23.2467C79.9993 26.6065 77.791 28.8858 74.4785 30.0373C71.0319 31.2282 67.5143 31.3071 64.0204 30.3133C60.1322 29.2092 57.6241 26.5828 56.2991 22.8208C55.2896 19.9657 55.1476 17.0002 55.3133 14.0111C55.4158 12.0788 55.7234 10.178 56.4174 8.36403C57.9317 4.35747 60.8026 1.8652 64.959 0.91877C68.3661 0.137965 71.7733 0.169512 75.07 1.43931C78.6586 2.81952 80.6855 5.51685 81.419 9.23948C81.5057 9.68903 81.5531 10.1465 81.6083 10.6039C81.6161 10.6512 81.6083 10.6986 81.6083 10.7617Z" fill="#717171"/>
<path d="M38.8927 30.282C35.5486 20.6205 32.2125 10.9905 28.8684 1.31329C29.034 1.3054 29.1445 1.28963 29.2549 1.28963C31.2108 1.28963 33.1668 1.29751 35.1227 1.28174C35.4303 1.28174 35.5486 1.37638 35.6275 1.6682C37.5913 8.6008 39.5631 15.5255 41.5269 22.4502C41.5664 22.5764 41.5979 22.7026 41.6531 22.8919C41.7241 22.6868 41.7793 22.5449 41.8187 22.4029C43.6643 16.0303 45.5177 9.64976 47.3632 3.27713C47.7103 2.07043 48.5226 1.36849 49.7766 1.32906C51.3225 1.28174 52.8683 1.32117 54.4615 1.32117C54.2012 2.07832 53.9646 2.8118 53.7122 3.5374C50.7231 12.3155 47.7418 21.0858 44.7606 29.8639C44.6501 30.1794 44.524 30.3056 44.1612 30.3056C42.4339 30.2662 40.6909 30.282 38.8927 30.282Z" fill="#717171"/>
<path d="M90.694 19.7211C91.1751 19.7211 91.5852 19.7132 91.9874 19.729C92.0821 19.729 92.1925 19.7842 92.2556 19.8473C92.6105 20.2022 93.0206 20.3757 93.5017 20.2101C94.0301 20.0287 94.2588 19.5949 94.3456 19.0744C94.3772 18.9009 94.3535 18.7195 94.3535 18.4908C94.2825 18.5381 94.2352 18.5539 94.2115 18.5854C93.6121 19.3978 92.2082 19.3583 91.459 18.6564C91.0094 18.2384 90.6703 17.7415 90.6309 17.1342C90.5914 16.4638 90.5678 15.754 90.7334 15.1152C91.1198 13.6245 92.2082 13.2696 93.6437 13.4905C94.5586 13.6324 95.3709 14.0031 95.6312 15.0205C95.7022 15.3123 95.7495 15.612 95.7495 15.9118C95.7652 16.9213 95.7652 17.9308 95.7574 18.9403C95.7416 20.4467 95.1422 21.2118 93.4149 21.4247C92.1373 21.5824 91.2776 21.1171 90.8596 20.1786C90.7886 20.0603 90.757 19.9262 90.694 19.7211ZM94.4008 16.3455C94.4245 16.3298 94.4402 16.3219 94.4639 16.3061C94.3219 15.896 94.2115 15.4622 94.0222 15.0757C93.8408 14.6972 93.4623 14.5789 93.0521 14.6104C92.6341 14.642 92.3029 14.8234 92.1294 15.2335C91.9007 15.8092 91.8533 16.3929 91.9559 17.0001C92.0742 17.6626 92.3975 17.9939 92.9969 18.0254C93.6752 18.057 94.109 17.7573 94.2667 17.1106C94.3377 16.8661 94.3614 16.6058 94.4008 16.3455Z" fill="#717171"/>
<path d="M69.6043 19.0904C69.1627 19.0904 68.7683 19.1061 68.3819 19.0746C68.303 19.0667 68.1768 18.8616 68.1689 18.7512C68.1532 17.9547 68.1453 17.1502 68.1689 16.3536C68.1768 15.9908 68.0901 15.841 67.6957 15.8567C66.9859 15.8883 66.2761 15.8804 65.5662 15.8567C65.2113 15.8488 65.0851 15.9356 65.093 16.3142C65.1167 17.2133 65.1009 18.1203 65.1009 19.0825C64.675 19.0825 64.2728 19.0904 63.8706 19.0746C63.8075 19.0746 63.7207 18.9563 63.6891 18.8774C63.6576 18.7986 63.6734 18.696 63.6734 18.6014C63.6734 16.7006 63.6734 14.7999 63.6734 12.8991C63.6734 12.0947 64.0835 11.7555 64.888 11.929C64.9747 11.9448 65.0851 12.1183 65.0851 12.2209C65.1009 12.8912 65.1088 13.5616 65.093 14.2241C65.0851 14.5081 65.164 14.6264 65.4637 14.6185C66.2366 14.6027 67.0174 14.6027 67.7904 14.6185C68.1058 14.6264 68.1689 14.4923 68.161 14.2241C68.1531 13.5853 68.1689 12.9386 68.1532 12.2997C68.1453 12.0079 68.2557 11.9133 68.5475 11.9054C69.6043 11.8817 69.6043 11.8738 69.6043 12.9149C69.6043 14.792 69.6043 16.6691 69.6043 18.5383C69.6043 18.7039 69.6043 18.8616 69.6043 19.0904Z" fill="#717171"/>
<path d="M81.3637 11.8895C81.6003 11.8895 81.7739 11.8816 81.9395 11.8895C82.4048 11.9053 82.7124 12.1498 82.7124 12.6072C82.7124 14.1925 82.7282 15.7777 82.6493 17.363C82.602 18.341 81.7739 19.0114 80.6145 19.1612C80.228 19.2086 79.8258 19.2086 79.4393 19.1612C78.6033 19.0508 78.0118 18.5934 77.7436 17.781C77.4203 16.8346 77.4124 15.8724 77.7515 14.9338C78.1774 13.7587 79.2895 13.1672 80.37 13.5694C80.7091 13.6956 80.9931 13.9638 81.3637 14.2082C81.3637 13.4196 81.3637 12.6545 81.3637 11.8895ZM81.3874 16.3141C81.3322 16.0301 81.3006 15.7541 81.2218 15.4938C81.0561 14.9496 80.6697 14.6578 80.1334 14.6341C79.6207 14.6184 79.2027 14.9181 79.0213 15.4544C78.8084 16.0853 78.8241 16.7163 79.0686 17.3315C79.2658 17.8205 79.6523 18.0413 80.1807 18.0255C80.6776 18.0097 81.0404 17.7574 81.1981 17.2526C81.2928 16.9529 81.3243 16.6295 81.3874 16.3141Z" fill="#717171"/>
<path d="M100.884 15.21C100.284 15.2258 99.7324 15.3441 99.3144 14.7762C99.0778 14.4529 98.297 14.4213 97.9499 14.6264C97.6423 14.8078 97.6266 15.1942 97.9499 15.3441C98.3285 15.5176 98.7386 15.6044 99.1409 15.7305C99.4642 15.8331 99.7955 15.9198 100.119 16.0302C100.702 16.2353 101.081 16.6297 101.097 17.2685C101.12 17.9231 100.908 18.5067 100.3 18.8301C99.9611 19.0115 99.5589 19.1535 99.1882 19.1614C98.5572 19.1771 97.8947 19.1535 97.2874 19.0036C96.5382 18.8143 96.1596 18.1439 96.2069 17.3237C96.4199 17.3237 96.6407 17.3237 96.8536 17.3237C97.0666 17.3237 97.2717 17.3237 97.4767 17.3237C97.8001 18.1992 98.5257 18.2859 99.1961 18.0808C99.3775 18.0256 99.5983 17.789 99.622 17.6076C99.6377 17.4736 99.4169 17.2133 99.2434 17.1502C98.8096 16.9846 98.3364 16.8978 97.8868 16.7716C97.6739 16.7085 97.4609 16.6454 97.2559 16.5587C96.7511 16.3378 96.3647 16.0066 96.3173 15.4072C96.2621 14.721 96.4751 14.1374 97.0903 13.8061C98.084 13.2777 99.1172 13.3014 100.103 13.8377C100.616 14.1058 100.837 14.5869 100.884 15.21Z" fill="#717171"/>
<path d="M75.2119 16.3376C75.1646 16.6767 75.1409 17.0159 75.0542 17.3392C74.5889 19.1138 72.4121 19.8157 70.9609 18.6642C70.3694 18.191 70.1958 17.5206 70.1091 16.8266C70.0223 16.1562 70.0775 15.4858 70.3299 14.8548C70.6848 13.9873 71.3473 13.5062 72.2859 13.451C74.1866 13.3563 75.1804 14.358 75.2119 16.3376ZM71.4262 16.2745C71.4893 16.6294 71.5287 16.9685 71.6076 17.2919C71.7338 17.7888 72.0966 18.0412 72.5777 18.0727C73.043 18.1121 73.3979 17.8598 73.5793 17.4496C73.8948 16.7398 73.9185 15.9906 73.6188 15.2728C73.4453 14.8469 73.0903 14.5788 72.6014 14.6103C72.1124 14.6419 71.7496 14.8864 71.5997 15.3596C71.5051 15.6593 71.4814 15.9748 71.4262 16.2745Z" fill="#717171"/>
<path d="M90.0788 19.0823C89.8185 19.0823 89.5346 19.1139 89.2743 19.0744C88.9115 19.0192 88.7538 18.759 88.7538 18.404C88.7538 17.6154 88.7538 16.8345 88.7538 16.0459C88.7538 15.9039 88.7617 15.754 88.7459 15.6121C88.7065 14.9259 88.3121 14.5316 87.6891 14.5473C87.0739 14.5631 86.7111 14.9496 86.7032 15.6357C86.6874 16.6216 86.6953 17.5996 86.6953 18.5854C86.6953 18.7353 86.6953 18.893 86.6953 19.0744C86.2221 19.0744 85.7883 19.0744 85.3624 19.0744C85.3466 19.0587 85.3151 19.035 85.3151 19.0192C85.3151 17.8125 85.252 16.6058 85.323 15.407C85.394 14.224 86.1669 13.5615 87.4051 13.4668C87.6654 13.4432 87.9335 13.4432 88.1938 13.4826C89.4557 13.6877 90.0078 14.224 90.0867 15.4938C90.1655 16.6453 90.1182 17.7968 90.1261 18.9482C90.134 18.9798 90.1103 19.0192 90.0788 19.0823Z" fill="#717171"/>
<path d="M77.0732 19.0744C76.6 19.0744 76.1741 19.0744 75.7009 19.0744C75.693 18.9403 75.6773 18.8141 75.6773 18.6958C75.6773 16.59 75.6851 14.4763 75.6694 12.3705C75.6694 11.9841 75.8113 11.9131 76.1505 11.921C76.884 11.9446 77.0811 12.126 77.0811 12.8595C77.0811 14.7682 77.0811 16.6847 77.0811 18.5933C77.0732 18.7353 77.0732 18.8772 77.0732 19.0744Z" fill="#717171"/>
<path d="M83.296 19.0665C83.2881 18.9403 83.2724 18.822 83.2724 18.7116C83.2724 17.1263 83.2803 15.541 83.2645 13.9558C83.2645 13.6482 83.3434 13.5457 83.6588 13.5457C84.4791 13.5535 84.6999 13.7586 84.6999 14.5552C84.6999 15.9196 84.6999 17.2762 84.6999 18.6406C84.6999 18.7668 84.6999 18.9009 84.6999 19.0586C84.2188 19.0665 83.7693 19.0665 83.296 19.0665Z" fill="#717171"/>
<path d="M83.296 13.0016C83.2881 12.8754 83.2645 12.7886 83.2724 12.7019C83.3039 12.4495 83.3276 11.9842 83.4064 11.9763C83.7377 11.9369 84.1242 11.9447 84.416 12.0867C84.7551 12.2523 84.7393 12.6388 84.6684 13.0016C84.2109 13.0016 83.7692 13.0016 83.296 13.0016Z" fill="#717171"/>
</svg>
