<?xml version="1.0" encoding="UTF-8"?>
<svg width="97" height="45" data-name="Layer 1" xmlns="http://www.w3.org/2000/svg" viewBox="0 0 97.044 45">
<defs><style>.cls-1{fill:#717272;}</style></defs><title>Coral</title>
<path class="cls-1" d="M39.529,44.343a3.793,3.793,0,0,1-1.605.366c-1.677,0-2.455-1.1-2.455-2.709a2.9,2.9,0,0,1,.921-2.257,2.553,2.553,0,0,1,1.669-.564,3.435,3.435,0,0,1,1.287.238,1.221,1.221,0,0,1,0,.62,4.862,4.862,0,0,0-1.224-.182,1.733,1.733,0,0,0-1.223.436,2.288,2.288,0,0,0-.6,1.693c0,1.311.572,2.042,1.7,2.042a2,2,0,0,0,.731-.128V42.151a2.948,2.948,0,0,1,.374-.04,2.5,2.5,0,0,1,.421.04Z"/><path class="cls-1" d="M43.1,39.838c-.182,0-.468,0-.6.008v2.09h.54c.747,0,1.191-.334,1.191-1.088,0-.731-.42-1.01-1.128-1.01m2.177,4.791a3.2,3.2,0,0,1-.476.04,1.942,1.942,0,0,1-.429-.04L43.2,42.564h-.7v2.065a2.318,2.318,0,0,1-.406.04,2.149,2.149,0,0,1-.389-.04v-5.37c.389-.024.858-.04,1.311-.04,1.12,0,2.018.342,2.018,1.629a1.618,1.618,0,0,1-1.041,1.565Z"/><path class="cls-1" d="M48.913,39.839c-.81,0-1.3.548-1.3,2.1,0,1.525.484,2.113,1.3,2.113s1.3-.588,1.3-2.113c0-1.549-.477-2.1-1.287-2.1m-.008,4.87c-1.3,0-2.129-.85-2.129-2.757,0-1.859.842-2.773,2.145-2.773s2.113.914,2.113,2.773c0,1.907-.826,2.757-2.129,2.757"/><path class="cls-1" d="M56.587,42.619c0,1.383-.477,2.09-1.939,2.09-1.525,0-1.915-.675-1.915-2.09V39.258a3.3,3.3,0,0,1,.382-.039,2.52,2.52,0,0,1,.413.039v3.5c0,.771.167,1.343,1.112,1.343s1.176-.572,1.176-1.343v-3.5a3.014,3.014,0,0,1,.365-.039,2.426,2.426,0,0,1,.406.039Z"/><path class="cls-1" d="M60.049,39.839c-.19,0-.6.008-.722.016v2.121h.7c.635,0,1.16-.207,1.16-1.1,0-.8-.453-1.033-1.137-1.033m1.192,2.51a2.425,2.425,0,0,1-1.136.255h-.778v2.025a2.262,2.262,0,0,1-.406.04,2.069,2.069,0,0,1-.389-.04v-5.37c.278-.016,1.009-.04,1.5-.04,1.153,0,1.955.342,1.955,1.637a1.711,1.711,0,0,1-.747,1.493"/><rect class="cls-1" x="14.33" y="34.866" width="68.801" height="0.565"/><path class="cls-1" d="M15.018,1.456c.1.568.534,1.937.769,2.625l1.721,4.948H12.553L14.167,4.1c.257-.814.757-2.146.851-2.647M19.009,13.3a5.6,5.6,0,0,0,1.492.016L15.716.378a5.352,5.352,0,0,0-.7-.066,5.982,5.982,0,0,0-.774.063L9.782,13.318a4.488,4.488,0,0,0,.549.038,6.239,6.239,0,0,0,.853-.07l1.042-3.206h5.657Z"/><path class="cls-1" d="M26.047,12.366c-.754,0-1.388-.023-1.74-.062l-.256-.029V1.337l.275-.013c.406-.02,1.123-.04,1.542-.04,4.1,0,4.936,2.171,4.936,5.431a6.215,6.215,0,0,1-1.351,4.41,4.428,4.428,0,0,1-3.406,1.241m-3.4.913c.732.047,2.155.078,2.928.078,2.254,0,3.729-.373,4.783-1.208,1.28-1.036,1.957-2.9,1.957-5.394,0-4.576-1.86-6.442-6.423-6.442-1.181,0-2.321.029-3.245.082Z"/><path class="cls-1" d="M37.734,5.992H36.215V1.338l.273-.014c.364-.019.845-.04,1.346-.04a4.561,4.561,0,0,1,2.1.461A1.909,1.909,0,0,1,40.843,3.5c0,2.209-1.662,2.493-3.109,2.493m.278,6.393c-.448,0-1.12-.019-1.538-.061l-.259-.026V7h1.8c2.337,0,3.784.437,3.784,2.612,0,2.456-2.022,2.771-3.784,2.771m-3.206.888c1.093.059,2.048.083,3.226.083a7.008,7.008,0,0,0,3.777-.749,3.287,3.287,0,0,0,1.375-2.993,3.24,3.24,0,0,0-2.718-3.493l-.26-.026.192-.088A2.508,2.508,0,0,0,42.192,3.36c0-2.678-2.229-3.047-4.636-3.047-.951,0-1.916.028-2.75.08Z"/><path class="cls-1" d="M49.051,7.1H47.412V1.32l.272-.016c.346-.021,1.056-.021,1.526-.021,2.063,0,3.109.946,3.109,2.811,0,1.969-1.13,3.01-3.268,3.01m3.522,6.184a5.294,5.294,0,0,0,1.61.027L51.011,7.853l.324-.118a3.732,3.732,0,0,0,2.411-3.641c0-2.58-1.51-3.781-4.754-3.781C48.023.313,46.973.342,46,.4V13.3a4.493,4.493,0,0,0,1.408,0V8.1h2.2Z"/><path class="cls-1" d="M61.043,12.385c-2.372,0-3.525-1.822-3.525-5.57,0-3.722,1.159-5.531,3.545-5.531s3.506,1.757,3.506,5.531c0,3.748-1.154,5.57-3.526,5.57M61.083.214c-3.271,0-5.072,2.358-5.072,6.64,0,4.319,1.741,6.6,5.032,6.6s5.033-2.283,5.033-6.6c0-4.282-1.773-6.64-4.993-6.64"/><path class="cls-1" d="M75.806,13.279a7.028,7.028,0,0,0,.985.078,5.866,5.866,0,0,0,.633-.028L72.489,6.09,75.17,3.26a7.081,7.081,0,0,0,1.837-2.9,5.718,5.718,0,0,0-.674-.044,4.79,4.79,0,0,0-.71.06,6.612,6.612,0,0,1-1.5,2.349l-4,4.269V.365A5.284,5.284,0,0,0,69.4.313a5,5,0,0,0-.684.054V13.3a5.009,5.009,0,0,0,.684.055,5.3,5.3,0,0,0,.724-.053V8.567l1.416-1.518Z"/><path class="cls-1" d="M79.687,13.257h7.307a3.134,3.134,0,0,0,.038-.525,3.226,3.226,0,0,0-.038-.525H81.1V7.141h4.846a3.117,3.117,0,0,0,.039-.525,3.217,3.217,0,0,0-.038-.525H81.1V1.462h5.6a3.016,3.016,0,0,0,.039-.525A3.235,3.235,0,0,0,86.7.412H79.687Z"/><path class="cls-1" d="M89.1,12.8a9.7,9.7,0,0,0,3.557.661c2.068,0,4.278-.931,4.278-3.544,0-2-1.181-2.838-3.087-3.541l-.936-.358C91.251,5.381,90.6,4.682,90.6,3.519c0-1.391,1.115-2.255,2.91-2.255a13.78,13.78,0,0,1,2.648.266,3.15,3.15,0,0,0,.041-.494,2.654,2.654,0,0,0-.053-.517A12.019,12.019,0,0,0,93.394.214c-1.946,0-4.218.881-4.218,3.364,0,1.574.94,2.63,3.049,3.423l1.012.377c1.751.648,2.372,1.364,2.372,2.733,0,1.458-1.112,2.3-3.049,2.3a10.831,10.831,0,0,1-3.5-.7,4.011,4.011,0,0,0-.024.468,3.18,3.18,0,0,0,.066.619"/><path class="cls-1" d="M.758.412.752,12.08a1.3,1.3,0,0,0,.3.867,1.159,1.159,0,0,0,.874.309H7.4c.4,0,.443,0,.478-.113l.047-.211s.084-.435.145-.725a.379.379,0,0,0-.058,0l-4.94,0a1.176,1.176,0,0,1-.69-.137c-.253-.166-.215-.674-.216-.768V.412Z"/><path class="cls-1" d="M28.061,17.435a5.577,5.577,0,0,0-4.088,1.6,7.356,7.356,0,0,0-1.761,5.128c0,2.421.739,6.484,5.689,6.484a9.315,9.315,0,0,0,3.01-.557,3.309,3.309,0,0,0,.04-.546,1.859,1.859,0,0,0-.045-.357,10.21,10.21,0,0,1-2.588.366,4.144,4.144,0,0,1-3.5-1.488A6.452,6.452,0,0,1,23.682,24.1c0-3.551,1.662-5.588,4.558-5.588a11.08,11.08,0,0,1,2.746.394,3.65,3.65,0,0,0,.024-.445,1.707,1.707,0,0,0-.048-.47,8.128,8.128,0,0,0-2.9-.554"/><path class="cls-1" d="M37.793,29.607c-2.384,0-3.543-1.828-3.543-5.589,0-3.733,1.166-5.548,3.563-5.548s3.524,1.763,3.524,5.548c0,3.761-1.159,5.589-3.544,5.589m.04-12.171c-3.259,0-5.054,2.351-5.054,6.622,0,4.307,1.734,6.583,5.014,6.583s5.014-2.276,5.014-6.583c0-4.271-1.766-6.622-4.974-6.622"/><path class="cls-1" d="M48.369,24.325H46.711V18.507L47,18.49c.346-.021,1.057-.021,1.527-.021,2.075,0,3.127.952,3.127,2.829,0,1.981-1.136,3.027-3.285,3.027m3.533,6.15a5.277,5.277,0,0,0,1.568.029L50.3,25.047l.344-.125a3.717,3.717,0,0,0,2.4-3.624c0-2.568-1.505-3.764-4.737-3.764-.963,0-2.006.029-2.969.083V30.49a4.47,4.47,0,0,0,1.371,0V25.28h2.233Z"/><path class="cls-1" d="M60.483,18.66a27.263,27.263,0,0,0,.764,2.625l1.722,4.949H58.014l1.613-4.927c.257-.814.762-2.146.856-2.647M64.469,30.5a5.6,5.6,0,0,0,1.492.016L61.177,17.582a5.383,5.383,0,0,0-.7-.066,5.974,5.974,0,0,0-.774.062L55.242,30.522a4.488,4.488,0,0,0,.549.038,6.225,6.225,0,0,0,.853-.07l1.042-3.206h5.657Z"/><path class="cls-1" d="M67.858,17.616l-.007,11.668a1.308,1.308,0,0,0,.3.867,1.163,1.163,0,0,0,.875.309H74.5c.4,0,.443,0,.477-.113l.048-.211s.084-.435.145-.724a.289.289,0,0,0-.058,0l-4.94,0a1.179,1.179,0,0,1-.691-.137c-.252-.166-.214-.674-.216-.768V17.616Z"/></svg>