<?xml version="1.0" encoding="UTF-8"?>
<svg width="113" height="47" viewBox="0 0 113 47" fill="none" xmlns="http://www.w3.org/2000/svg">
<path d="M38.8196 11.1637H0V0H38.8196V11.1637ZM2.54892 8.60669H36.2644V2.55082H2.54892V8.60669Z" fill="#717272"/>
<path d="M9.38551 18.1987V28.9321H7.14819V24.423H2.29341V28.9321H0.0560913V18.1987H2.29341V22.4647H7.14819V18.1987H9.38551V18.1987Z" fill="#717272"/>
<path d="M12.9503 25.5206C13.1247 26.7992 14.0533 27.323 15.2063 27.323C16.0601 27.323 16.6708 27.1297 17.4436 26.6432V28.4269C16.7954 28.9009 15.9229 29.1067 14.876 29.1067C12.5015 29.1067 10.875 27.5663 10.875 25.0841C10.875 22.6393 12.4143 20.9429 14.5457 20.9429C16.8141 20.9429 17.9858 22.5145 17.9858 24.8221V25.5206H12.9503V25.5206ZM13.0188 24.1049H15.9728C15.9229 23.2629 15.4493 22.6704 14.5955 22.6704C13.8726 22.6767 13.2619 23.1257 13.0188 24.1049Z" fill="#717272"/>
<path d="M26.3991 26.1008L27.7951 21.1177H29.889L27.5146 28.9323H25.5203L24.2428 24.1425L22.9652 28.9323H20.9709L18.5965 21.1177H20.7653L22.1613 26.1008L23.4388 21.1177H25.0966L26.3991 26.1008Z" fill="#717272"/>
<path d="M37.7664 25.5206C37.9409 26.7992 38.8695 27.323 40.0224 27.323C40.8762 27.323 41.4869 27.1297 42.2597 26.6432V28.4269C41.6116 28.9009 40.7391 29.1067 39.6921 29.1067C37.3177 29.1067 35.6911 27.5663 35.6911 25.0841C35.6911 22.6393 37.2304 20.9429 39.3618 20.9429C41.6303 20.9429 42.8019 22.5145 42.8019 24.8221V25.5206H37.7664V25.5206ZM37.8349 24.1049H40.7889C40.7391 23.2629 40.2654 22.6704 39.4117 22.6704C38.695 22.6767 38.0842 23.1257 37.8349 24.1049Z" fill="#717272"/>
<path d="M60.4075 25.2088V28.9321H58.1889V18.1987H62.5576C64.8261 18.1987 66.328 19.4211 66.328 21.71C66.328 23.9802 64.8261 25.2088 62.5576 25.2088H60.4075ZM62.4142 20.1009H60.4075V23.3004H62.4142C63.5672 23.3004 64.1281 22.633 64.1281 21.71C64.1281 20.7496 63.5672 20.1009 62.4142 20.1009Z" fill="#717272"/>
<path d="M71.6377 24.055C71.6377 23.3004 70.9896 22.8326 69.8927 22.8326C69.1075 22.8326 68.3721 23.0571 67.7613 23.4625V21.5915C68.3222 21.2422 69.3318 20.9429 70.3664 20.9429C72.5164 20.9429 73.7192 22.0468 73.7192 23.949V28.9321H71.6377V28.5143C71.3759 28.7762 70.6094 29.0756 69.7494 29.0756C68.1789 29.0756 66.8639 28.165 66.8639 26.5435C66.8639 25.0591 68.1727 24.0425 69.8865 24.0425C70.5658 24.0425 71.3199 24.267 71.6315 24.4978V24.055H71.6377ZM71.6377 26.2379C71.4445 25.82 70.8712 25.5581 70.2604 25.5581C69.5811 25.5581 68.8831 25.8574 68.8831 26.5185C68.8831 27.1983 69.5811 27.479 70.2604 27.479C70.8712 27.479 71.4507 27.217 71.6377 26.7992V26.2379Z" fill="#717272"/>
<path d="M79.2408 20.9429C80.0261 20.9429 80.7926 21.1175 81.3535 21.5541V23.5311C80.83 23.0571 80.2006 22.8326 79.5026 22.8326C78.3497 22.8326 77.4398 23.6371 77.4398 25.0342C77.4398 26.4125 78.3497 27.2357 79.5026 27.2357C80.2006 27.2357 80.83 26.9925 81.3535 26.5372V28.4955C80.7926 28.9321 80.0261 29.1067 79.2408 29.1067C77.0222 29.1067 75.2897 27.5351 75.2897 25.0342C75.2897 22.5145 77.0222 20.9429 79.2408 20.9429Z" fill="#717272"/>
<path d="M90.6331 28.9322H88.1028L85.2922 25.3336V28.9322H83.1234V17.5688H85.2922V24.211L87.9657 21.1175H90.5707L87.3238 24.7037L90.6331 28.9322Z" fill="#717272"/>
<path d="M95.7185 24.055C95.7185 23.3004 95.0703 22.8326 93.9735 22.8326C93.1882 22.8326 92.4528 23.0571 91.8421 23.4625V21.5915C92.403 21.2422 93.4126 20.9429 94.4471 20.9429C96.5972 20.9429 97.8 22.0468 97.8 23.949V28.9321H95.7185V28.5143C95.4567 28.7762 94.6902 29.0756 93.8301 29.0756C92.2596 29.0756 90.9447 28.165 90.9447 26.5435C90.9447 25.0591 92.2534 24.0425 93.9672 24.0425C94.6465 24.0425 95.4006 24.267 95.7122 24.4978V24.055H95.7185ZM95.7185 26.2379C95.5253 25.82 94.9519 25.5581 94.3412 25.5581C93.6619 25.5581 92.9639 25.8574 92.9639 26.5185C92.9639 27.1983 93.6619 27.479 94.3412 27.479C94.9519 27.479 95.5315 27.217 95.7185 26.7992V26.2379Z" fill="#717272"/>
<path d="M104.593 23.2505C104.294 23.0758 103.914 22.9885 103.509 22.9885C102.773 22.9885 102.181 23.3752 102.025 24.0924V28.9321H99.8566V21.1175H102.025V21.8846C102.356 21.3233 103.004 20.9429 103.77 20.9429C104.138 20.9429 104.468 21.0115 104.593 21.0801V23.2505Z" fill="#717272"/>
<path d="M110.813 28.2836C110.464 28.7014 109.697 29.1068 108.856 29.1068C106.587 29.1068 105.31 27.2732 105.31 25.0342C105.31 22.7952 106.587 20.9429 108.856 20.9429C109.697 20.9429 110.464 21.3421 110.813 21.7662V17.5688H112.994V28.9322H110.813V28.2836ZM110.813 23.7432C110.57 23.2193 109.971 22.8326 109.348 22.8326C108.176 22.8326 107.478 23.7744 107.478 25.0342C107.478 26.2753 108.176 27.2171 109.348 27.2171C109.996 27.2171 110.57 26.8491 110.813 26.3065V23.7432Z" fill="#717272"/>
<path d="M34.5257 27.5976C33.8713 27.5976 33.4787 27.2421 33.46 26.5498H33.4912V18.2737H31.3224V26.0197V26.5498V26.6558C31.3224 28.4208 32.4255 29.4374 34.0832 29.4374C34.588 29.4374 34.9744 29.3688 35.286 29.2254V27.3918C35.0679 27.5477 34.7874 27.5976 34.5257 27.5976Z" fill="#717272"/>
<path d="M52.3806 23.2194H54.3499V21.4544H52.3806V18.2737H50.2119V21.4544H47.0834V18.2737H44.9146V21.4544H43.4999V23.2194H44.9208V26.0197V26.5498V26.6559C44.9208 28.4208 46.0239 29.4374 47.6816 29.4374C48.1864 29.4374 48.5728 29.3688 48.8844 29.2254V27.3918C48.6601 27.5477 48.3796 27.6038 48.1179 27.6038C47.4635 27.6038 47.0647 27.2483 47.0522 26.5561H47.0834V23.2256H50.2119V26.0259V26.5561V26.6621C50.2119 28.4271 51.3149 29.4437 52.9727 29.4437C53.4775 29.4437 53.8638 29.3751 54.1755 29.2316V27.398C53.9511 27.5539 53.6707 27.6101 53.4089 27.6101C52.7545 27.6101 52.3557 27.2546 52.3432 26.5623H52.3744V23.2194H52.3806Z" fill="#717272"/>
<path d="M7.06094 33.1919V34.4268H1.55178V37.8445H6.54991V39.0794H1.55178V42.759H7.06094V44.0126H0.180725V33.1919H7.06094Z" fill="#717272"/>
<path d="M9.13622 36.1856H10.4574V37.171C10.9124 36.5536 11.7599 36.0234 12.7633 36.0234C14.5394 36.0234 15.5116 37.171 15.5116 38.8799V44.0065H14.1717V39.0919C14.1717 38.0005 13.6233 37.2396 12.4454 37.2396C11.5293 37.2396 10.7379 37.857 10.4574 38.699V44.0002H9.13622V36.1856Z" fill="#717272"/>
<path d="M23.9436 40.3268C23.9997 42.1417 25.1402 43.0023 26.5673 43.0023C27.4461 43.0023 28.0817 42.7903 28.7859 42.2602V43.4763C28.1503 43.969 27.3401 44.1624 26.4115 44.1624C24.1555 44.1624 22.6474 42.6281 22.6474 40.1646C22.6474 37.7323 24.0558 36.0234 26.1311 36.0234C28.2438 36.0234 29.3344 37.5577 29.3344 39.8466V40.3205H23.9436V40.3268ZM24.0122 39.2853H28.0443C27.9945 38.1377 27.4087 37.1523 26.1435 37.1523C25.1028 37.1585 24.2615 37.8446 24.0122 39.2853Z" fill="#717272"/>
<path d="M35.1364 37.5079C34.9245 37.3644 34.588 37.2958 34.2577 37.2958C33.4288 37.2958 32.7059 37.8447 32.4442 38.7552V44.0066H31.123V36.1857H32.4442V37.2085C32.7807 36.5412 33.5161 36.0298 34.3823 36.0298C34.7189 36.0298 34.9993 36.0797 35.1364 36.1545V37.5079Z" fill="#717272"/>
<path d="M37.8287 47.0002H36.5075V36.1857H37.8287V37.1025C38.2338 36.5412 39.0627 36.0298 40.0286 36.0298C42.3345 36.0298 43.5498 37.932 43.5498 40.0961C43.5498 42.2603 42.3345 44.1625 40.0286 44.1625C39.0627 44.1625 38.2338 43.6511 37.8287 43.0898V47.0002ZM37.8287 41.6803C38.2338 42.491 39.0066 42.965 39.8354 42.965C41.3311 42.965 42.2099 41.7489 42.2099 40.0961C42.2099 38.4372 41.3311 37.2272 39.8354 37.2272C39.0066 37.2272 38.2338 37.7012 37.8287 38.512V41.6803Z" fill="#717272"/>
<path d="M49.626 37.5079C49.4141 37.3644 49.0776 37.2958 48.7473 37.2958C47.9184 37.2958 47.1955 37.8447 46.9337 38.7552V44.0066H45.6125V36.1857H46.9337V37.2085C47.2703 36.5412 48.0057 36.0298 48.8719 36.0298C49.2085 36.0298 49.4889 36.0797 49.626 36.1545V37.5079Z" fill="#717272"/>
<path d="M51.9132 34.67C51.4582 34.67 51.0656 34.2833 51.0656 33.8218C51.0656 33.3478 51.452 32.9736 51.9132 32.9736C52.3868 32.9736 52.7732 33.3416 52.7732 33.8218C52.7794 34.2833 52.393 34.67 51.9132 34.67ZM52.5862 44.0064H51.265V36.1856H52.5862V44.0064Z" fill="#717272"/>
<path d="M54.487 41.9795C55.21 42.6468 56.1074 43.0335 57.0546 43.0335C57.9147 43.0335 58.675 42.7155 58.675 41.9421C58.675 41.3621 58.2325 41.044 57.547 40.8133L56.4751 40.4453C55.2972 40.0586 54.5057 39.4911 54.5057 38.225C54.5057 36.8529 55.721 36.0234 57.2665 36.0234C58.1453 36.0234 58.9554 36.2729 59.5911 36.7095V38.0816C58.9367 37.5327 58.22 37.1461 57.2665 37.1461C56.4564 37.1461 55.7895 37.4953 55.7895 38.1689C55.7895 38.805 56.2133 39.0171 56.9487 39.279L58.1453 39.6844C59.3231 40.0898 59.9775 40.7758 59.9775 41.886C59.9775 43.3329 58.6937 44.1561 57.0546 44.1561C56.0326 44.1561 55.0666 43.8381 54.487 43.3828V41.9795Z" fill="#717272"/>
<path d="M62.6012 40.3268C62.6511 42.1417 63.7978 43.0023 65.2249 43.0023C66.1036 43.0023 66.7393 42.7903 67.4435 42.2602V43.4763C66.8078 43.969 65.9977 44.1624 65.0691 44.1624C62.8131 44.1624 61.3049 42.6281 61.3049 40.1646C61.3049 37.7323 62.7134 36.0234 64.7887 36.0234C66.9013 36.0234 67.9919 37.5577 67.9919 39.8466V40.3205H62.6012V40.3268ZM62.6698 39.2853H66.7019C66.652 38.1377 66.0662 37.1523 64.8011 37.1523C63.7604 37.1585 62.919 37.8446 62.6698 39.2853Z" fill="#717272"/>
<path d="M20.9273 43.0022C20.1545 43.0022 19.6435 42.5095 19.6435 41.574V40.9004H19.6747V37.3018H21.7499V36.1979H19.6747V34.2583H18.341V36.1979H16.5462V37.3018H18.341V40.9004V41.68C18.341 43.2454 19.3631 44.1622 20.7341 44.1622C21.1579 44.1622 21.457 44.1123 21.7562 43.9876V42.7901C21.5069 42.9523 21.2078 43.0022 20.9273 43.0022Z" fill="#717272"/>
</svg>
