<svg width="396" height="360" viewBox="0 0 396 360" fill="none" xmlns="http://www.w3.org/2000/svg">
<g clip-path="url(#clip0_6511:33775)">
<path d="M190.294 297.677L173.093 280.535L167.441 286.498L190.294 301.829V297.677Z" fill="#FF0000"/>
<path d="M200.555 297.677L218.421 280.535L223.74 286.498L200.555 301.829V297.677Z" fill="#FF0000"/>
<path d="M192.859 269.856L135.325 326.864H124.375L192.859 259.447V269.856Z" fill="#FF0000"/>
<path d="M138.094 329.455L138.032 329.093C137.954 328.63 137.727 328.205 137.386 327.883C137.045 327.56 136.608 327.358 136.142 327.306L125.326 326.106C124.307 325.993 123.282 326.255 122.442 326.845C121.602 327.434 121.006 328.309 120.764 329.306C120.687 329.626 120.683 329.958 120.752 330.28C120.821 330.601 120.962 330.902 121.164 331.161C121.365 331.42 121.623 331.63 121.917 331.776C122.212 331.921 122.535 331.998 122.863 332.001H135.965C136.281 331.998 136.592 331.927 136.877 331.792C137.162 331.657 137.415 331.462 137.617 331.22C137.819 330.978 137.967 330.694 138.049 330.39C138.132 330.085 138.147 329.766 138.094 329.455H138.094Z" fill="#FF0000"/>
<path d="M199.016 269.856L257.118 326.864H268.068L199.016 259.447V269.856Z" fill="#FF0000"/>
<path d="M254.352 329.455L254.413 329.093C254.491 328.63 254.718 328.205 255.059 327.883C255.401 327.56 255.837 327.358 256.304 327.306L267.119 326.106C268.138 325.993 269.163 326.255 270.003 326.845C270.843 327.434 271.439 328.309 271.681 329.306C271.758 329.626 271.763 329.958 271.693 330.28C271.624 330.601 271.484 330.902 271.282 331.161C271.08 331.42 270.822 331.63 270.528 331.776C270.234 331.921 269.911 331.998 269.582 332.001H256.48C256.164 331.998 255.853 331.927 255.568 331.792C255.283 331.657 255.031 331.462 254.828 331.22C254.626 330.978 254.478 330.694 254.396 330.39C254.314 330.085 254.298 329.766 254.351 329.455H254.352Z" fill="#FF0000"/>
<path d="M190.293 234.938V301.953C190.293 303.146 192.168 303.755 193.36 303.755H198.624C199.817 303.755 200.553 303.146 200.553 301.953V234.938H190.293Z" fill="#FF0000"/>
<path d="M361.642 69.5723H30.2344V241.614H361.642V69.5723Z" fill="#960020"/>
<path d="M358.565 69.5723H32.8008V236.992H358.565V69.5723Z" fill="#FF0000"/>
<path d="M366.758 59.8145H25.6867C23.3568 59.8145 21 61.6378 21 63.9704V69.0352C21 70.1621 21.6843 71.2422 22.4827 72.0352C23.3276 72.8314 24.4475 73.2695 25.6078 73.2578L366.431 70.0392C368.745 70.0164 370.361 68.1332 370.361 65.8166V63.97C370.363 61.6378 369.088 59.8145 366.758 59.8145Z" fill="#960020"/>
<path d="M366.758 234.938H25.6867C23.3568 234.938 21 237.034 21 239.366V244.43C21 245.557 21.6843 246.637 22.4827 247.431C23.3278 248.227 24.4476 248.665 25.6078 248.653L366.431 245.435C368.745 245.412 370.361 243.529 370.361 241.212V239.366C370.363 237.034 369.088 234.938 366.758 234.938Z" fill="#960020"/>
<path opacity="0.6" d="M134.151 123.527L129.414 132.402C132 134.738 134.066 137.592 135.479 140.779C136.892 143.966 137.621 147.414 137.617 150.901C137.617 151.349 137.604 151.793 137.581 152.235L148.18 154.185C149.349 154.399 150.447 154.896 151.381 155.632C152.314 156.369 153.053 157.322 153.534 158.409L155.059 161.85C156.819 154.991 156.895 147.808 155.28 140.913C153.664 134.018 150.405 127.618 145.782 122.258L134.151 123.527Z" fill="#F7C6C8"/>
<path opacity="0.6" d="M94.4805 120.639L103.188 127.837C109.196 125.357 115.935 125.323 121.968 127.743L126.788 118.711C127.348 117.662 128.155 116.766 129.139 116.1C130.124 115.434 131.256 115.019 132.437 114.891L136.875 114.406C130.813 110.385 123.846 107.938 116.603 107.287C109.36 106.636 102.07 107.8 95.3888 110.676L94.4805 120.639Z" fill="#F7C6C8"/>
<path opacity="0.6" d="M145.838 162.668L135.579 160.781C134.2 163.97 132.173 166.837 129.625 169.198C127.078 171.559 124.067 173.363 120.785 174.494L124.763 181.272C125.365 182.298 125.708 183.455 125.762 184.643C125.816 185.831 125.579 187.014 125.072 188.09L122.485 193.585C128.295 192.245 133.771 189.732 138.577 186.2C143.383 182.668 147.418 178.191 150.435 173.043L145.838 162.668Z" fill="#F7C6C8"/>
<path opacity="0.6" d="M79.6115 157.162L87.7807 150.649C87.8102 147.317 88.5086 144.025 89.8343 140.968C91.16 137.911 93.086 135.152 95.4978 132.855L88.3064 126.911C87.3901 126.154 86.6724 125.184 86.2155 124.086C85.7586 122.988 85.5765 121.795 85.6848 120.611L86.0924 116.143C80.7581 120.227 76.4366 125.487 73.464 131.516C70.4914 137.544 68.9477 144.178 68.9531 150.9C68.9531 151.911 68.9903 152.912 69.0576 153.906L79.6115 157.162Z" fill="#F7C6C8"/>
<path opacity="0.6" d="M116.822 185.05L111.401 175.813C106.687 175.567 102.139 173.985 98.287 171.253C94.4351 168.52 91.4376 164.748 89.6432 160.377L84.4688 164.502C83.5397 165.243 82.4439 165.746 81.2765 165.967C80.1091 166.188 78.9055 166.12 77.7704 165.769L70.8359 163.629C73.5459 172.547 79.0268 180.367 86.4817 185.951C93.9366 191.536 102.977 194.595 112.288 194.683L116.822 185.05Z" fill="#F7C6C8"/>
<path opacity="0.6" d="M219.701 142.884L216.355 149.153C218.182 150.803 219.641 152.819 220.64 155.07C221.638 157.321 222.152 159.756 222.149 162.219C222.149 162.535 222.14 162.849 222.124 163.161L229.611 164.538C230.436 164.69 231.212 165.041 231.871 165.561C232.53 166.081 233.052 166.754 233.392 167.522L234.469 169.952C235.712 165.108 235.766 160.034 234.625 155.164C233.484 150.295 231.182 145.774 227.916 141.988L219.701 142.884Z" fill="#F7C6C8"/>
<path opacity="0.6" d="M191.68 140.846L197.83 145.93C202.074 144.179 206.833 144.155 211.094 145.864L214.499 139.485C214.894 138.744 215.464 138.111 216.159 137.64C216.855 137.17 217.654 136.877 218.488 136.786L221.623 136.444C217.341 133.603 212.421 131.875 207.305 131.415C202.19 130.955 197.04 131.778 192.321 133.809L191.68 140.846Z" fill="#F7C6C8"/>
<path opacity="0.6" d="M227.956 170.53L220.711 169.197C219.737 171.45 218.305 173.474 216.505 175.142C214.706 176.81 212.58 178.084 210.262 178.883L213.071 183.67C213.496 184.394 213.739 185.212 213.777 186.051C213.815 186.89 213.648 187.726 213.29 188.485L211.462 192.367C215.566 191.421 219.433 189.646 222.828 187.151C226.223 184.657 229.073 181.494 231.204 177.858L227.956 170.53Z" fill="#F7C6C8"/>
<path opacity="0.6" d="M181.181 166.642L186.951 162.042C186.971 159.688 187.465 157.363 188.401 155.204C189.337 153.045 190.698 151.096 192.401 149.474L187.321 145.275C186.674 144.741 186.167 144.056 185.845 143.28C185.522 142.505 185.393 141.662 185.47 140.826L185.758 137.67C181.99 140.555 178.938 144.27 176.838 148.528C174.739 152.786 173.648 157.471 173.652 162.219C173.652 162.933 173.679 163.64 173.726 164.343L181.181 166.642Z" fill="#F7C6C8"/>
<path opacity="0.6" d="M197.492 178.367C188.052 180.642 182.254 180.503 179.362 180.128C177.427 177.413 175.948 174.4 174.98 171.208L179.875 172.723C180.677 172.971 181.528 173.019 182.353 172.864C183.178 172.708 183.953 172.353 184.61 171.829L188.262 168.912C190.002 173.139 193.31 176.528 197.492 178.367Z" fill="#F7C6C8"/>
<path opacity="0.6" d="M142.457 194.101C142.457 194.101 200.237 195.987 212.281 192.169C215.604 188.008 217.143 182.69 217.143 182.69L210.146 178.885C210.146 178.885 199.016 184.354 154.384 183.357L142.457 194.101Z" fill="#F7C6C8"/>
<path opacity="0.6" d="M224.703 190.641C224.703 190.641 234.207 185.894 236.618 178.926C244.502 178.977 279.045 178.884 279.045 178.884V172.941L294.435 185.609L280.413 195.88L279.728 188.177L224.703 190.641Z" fill="#F7C6C8"/>
<path d="M324.302 202.978L302.645 189.331V172.559L322.632 158.127L342.66 171.64V190.177L324.302 202.978ZM304.697 188.196L324.245 200.515L340.608 189.106V172.733L322.672 160.632L304.697 173.61L304.697 188.196Z" fill="white"/>
<path d="M324.282 182.592L303.523 174.035L304.305 172.135L324.184 180.33L341.691 171.275L342.632 173.1L324.282 182.592Z" fill="white"/>
<path d="M325.259 181.443L323.207 181.486L323.633 201.773L325.685 201.73L325.259 181.443Z" fill="white"/>
<path d="M213.037 29.6929L371.265 29.0001C371.624 28.9969 371.981 29.0652 372.313 29.2012C372.646 29.3372 372.949 29.538 373.203 29.792C373.458 30.0461 373.66 30.3483 373.796 30.681C373.933 31.0137 374.003 31.3704 374.001 31.7303L373.663 87.1735C373.661 87.5354 373.587 87.8932 373.445 88.226C373.303 88.5588 373.096 88.8597 372.836 89.1112C372.576 89.3626 372.269 89.5594 371.932 89.69C371.595 89.8206 371.235 89.8824 370.873 89.8717C356.921 89.4554 213.916 87.6179 211.181 87.7325C208.479 87.8467 209.947 44.0616 210.351 32.3121C210.375 31.6131 210.668 30.9505 211.168 30.4625C211.669 29.9745 212.338 29.6988 213.037 29.6929Z" fill="#EAEDF0"/>
<path d="M219.805 44.0117C219.805 45.5111 220.304 46.7266 220.921 46.7266H281.529C282.145 46.7266 282.645 45.5111 282.645 44.0117C282.645 42.5124 282.145 41.2969 281.529 41.2969H220.92C220.304 41.2969 219.805 42.5124 219.805 44.0117Z" fill="#DFDFDF"/>
<path d="M219.805 53.2656C219.805 54.7647 220.304 55.9802 220.921 55.9802H281.529C282.145 55.9802 282.645 54.7647 282.645 53.2656C282.645 51.7663 282.145 50.5508 281.529 50.5508H220.92C220.304 50.5508 219.805 51.7663 219.805 53.2656Z" fill="#DFDFDF"/>
<path d="M219.805 62.5195C219.805 64.0189 220.304 65.2344 220.921 65.2344H281.529C282.145 65.2344 282.645 64.0189 282.645 62.5195C282.645 61.0202 282.145 59.8047 281.529 59.8047H220.92C220.304 59.8047 219.805 61.0202 219.805 62.5195Z" fill="#DFDFDF"/>
<path d="M219.805 71.7752C219.805 73.2745 220.304 74.49 220.921 74.49H281.529C282.145 74.49 282.645 73.2745 282.645 71.7752C282.645 70.2758 282.145 69.0605 281.529 69.0605H220.92C220.304 69.0605 219.805 70.2758 219.805 71.7752Z" fill="#DFDFDF"/>
<path d="M305.459 58.6681C309.576 54.5464 309.576 47.8638 305.459 43.7421C301.342 39.6203 294.666 39.6203 290.549 43.742C286.432 47.8637 286.432 54.5464 290.549 58.6681C294.666 62.7898 301.342 62.7898 305.459 58.6681Z" fill="#DFDFDF"/>
<path d="M328.129 61.0091C333.533 58.8401 336.158 52.6957 333.991 47.2853C331.825 41.8749 325.687 39.2473 320.282 41.4164C314.877 43.5854 312.253 49.7297 314.419 55.1401C316.586 60.5505 322.724 63.1782 328.129 61.0091Z" fill="#DFDFDF"/>
<path d="M360.654 54.025C362.018 48.3584 358.536 42.6571 352.875 41.291C347.215 39.9248 341.519 43.411 340.155 49.0776C338.79 54.7442 342.272 60.4454 347.933 61.8116C353.594 63.1778 359.289 59.6917 360.654 54.025Z" fill="#DFDFDF"/>
<path d="M304.265 48.9751C304.817 50.3197 304.923 51.8062 304.566 53.2154C304.21 54.6246 303.411 55.8818 302.286 56.8015C301.162 57.7213 299.772 58.2549 298.321 58.3237C296.871 58.3924 295.437 57.9927 294.23 57.1834C293.024 56.374 292.11 55.1981 291.622 53.8289C291.134 52.4597 291.099 50.9699 291.521 49.5791C291.944 48.1884 292.802 46.9704 293.968 46.1048C295.135 45.2392 296.549 44.7719 298.001 44.7719C298.115 44.7719 298.229 44.7751 298.343 44.7806V43.0622C298.229 43.0577 298.116 43.0547 298.001 43.0547C296.181 43.0558 294.41 43.6428 292.949 44.729C291.487 45.8151 290.414 47.3429 289.887 49.0866C289.36 50.8302 289.407 52.6974 290.021 54.4123C290.635 56.1271 291.784 57.5987 293.298 58.6098C294.812 59.6208 296.611 60.1177 298.428 60.027C300.246 59.9362 301.986 59.2627 303.392 58.106C304.798 56.9492 305.795 55.3704 306.236 53.6029C306.677 51.8354 306.538 49.9728 305.84 48.2903L304.265 48.9751Z" fill="#F5F8FA"/>
<path d="M327.701 57.287C326.812 57.847 325.806 58.1927 324.762 58.2966C323.717 58.4006 322.663 58.26 321.682 57.886C320.701 57.512 319.82 56.9148 319.109 56.1416C318.398 55.3684 317.876 54.4403 317.585 53.4307C317.294 52.421 317.242 51.3575 317.432 50.324C317.622 49.2905 318.049 48.3153 318.68 47.4756C319.311 46.6358 320.129 45.9544 321.068 45.4852C322.007 45.016 323.043 44.7718 324.092 44.7719C324.206 44.7719 324.32 44.7751 324.435 44.7806V43.0622C324.32 43.0577 324.208 43.0547 324.092 43.0547C322.78 43.0548 321.485 43.3596 320.311 43.9451C319.136 44.5306 318.112 45.3809 317.321 46.4292C316.53 47.4774 315.992 48.695 315.751 49.9864C315.509 51.2777 315.57 52.6076 315.928 53.8715C316.286 55.1353 316.933 56.2988 317.816 57.2704C318.7 58.2421 319.796 58.9954 321.019 59.4712C322.243 59.947 323.559 60.1324 324.866 60.0126C326.173 59.8929 327.435 59.4715 328.552 58.7813L327.701 57.287Z" fill="#F5F8FA"/>
<path d="M356.061 55.3629C355.404 56.3296 354.509 57.11 353.463 57.6282C352.416 58.1464 351.253 58.3849 350.087 58.3205C348.921 58.2561 347.792 57.891 346.808 57.2607C345.825 56.6304 345.021 55.7562 344.475 54.7231C343.928 53.69 343.658 52.533 343.69 51.3645C343.723 50.196 344.056 49.0557 344.658 48.0543C345.261 47.0529 346.112 46.2244 347.128 45.6492C348.145 45.0741 349.293 44.7719 350.46 44.7719C350.574 44.7719 350.688 44.7751 350.802 44.7806V43.0622C350.688 43.0577 350.574 43.0547 350.46 43.0547C348.999 43.0547 347.562 43.4324 346.29 44.1512C345.017 44.87 343.951 45.9056 343.195 47.1577C342.44 48.4098 342.02 49.8361 341.976 51.2983C341.933 52.7605 342.267 54.2092 342.947 55.5041C343.627 56.7991 344.629 57.8963 345.857 58.6898C347.085 59.4832 348.496 59.9458 349.955 60.0329C351.414 60.12 352.87 59.8286 354.183 59.187C355.496 58.5453 356.622 57.575 357.451 56.3702L356.061 55.3629Z" fill="#F5F8FA"/>
<g opacity="0.64">
<path d="M306.594 69.9492H289.414C288.896 69.9492 288.399 70.1552 288.033 70.5217C287.667 70.8883 287.461 71.3855 287.461 71.9039C287.461 72.4223 287.667 72.9195 288.033 73.286C288.399 73.6526 288.896 73.8586 289.414 73.8586H306.594C307.112 73.8586 307.609 73.6526 307.975 73.286C308.341 72.9195 308.547 72.4223 308.547 71.9039C308.547 71.3855 308.341 70.8883 307.975 70.5217C307.609 70.1552 307.112 69.9492 306.594 69.9492Z" fill="#DFDFDF"/>
<path d="M332.797 69.9473H315.617C315.099 69.9473 314.602 70.1532 314.236 70.5198C313.87 70.8863 313.664 71.3835 313.664 71.9019C313.664 72.4203 313.87 72.9175 314.236 73.2841C314.602 73.6507 315.099 73.8566 315.617 73.8566H332.797C333.315 73.8566 333.812 73.6507 334.178 73.2841C334.544 72.9175 334.75 72.4203 334.75 71.9019C334.75 71.3835 334.544 70.8863 334.178 70.5198C333.812 70.1532 333.315 69.9473 332.797 69.9473Z" fill="#DFDFDF"/>
<path d="M341.82 73.8566H359.001C359.518 73.8566 360.015 73.6507 360.381 73.2841C360.747 72.9175 360.953 72.4203 360.953 71.9019C360.953 71.3835 360.747 70.8863 360.381 70.5198C360.015 70.1532 359.518 69.9473 359.001 69.9473H341.82C341.302 69.9473 340.805 70.1532 340.439 70.5198C340.073 70.8863 339.867 71.3835 339.867 71.9019C339.867 72.4203 340.073 72.9175 340.439 73.2841C340.805 73.6507 341.302 73.8566 341.82 73.8566Z" fill="#DFDFDF"/>
</g>
<path d="M121.245 186.045C121.217 185.698 120.862 185.397 120.261 185.155C120.914 184.795 121.275 184.408 121.245 184.029C121.152 182.882 117.524 182.239 113.142 182.593C108.759 182.947 105.281 184.163 105.373 185.311C105.401 185.659 105.756 185.96 106.357 186.201C105.704 186.562 105.342 186.948 105.373 187.327C105.401 187.675 105.756 187.976 106.357 188.218C105.704 188.578 105.342 188.965 105.373 189.344C105.401 189.692 105.756 189.993 106.357 190.234C105.704 190.595 105.342 190.981 105.373 191.36C105.414 191.867 106.147 192.276 107.331 192.543C107.315 192.957 107.325 193.37 107.36 193.782C107.532 195.896 109.906 197.552 113.047 197.552C116.187 197.552 118.905 195.293 118.936 193.173C118.946 192.711 118.925 192.249 118.875 191.79C120.377 191.288 121.293 190.675 121.245 190.079C121.217 189.731 120.862 189.43 120.261 189.189C120.914 188.828 121.275 188.442 121.245 188.063C121.217 187.715 120.862 187.414 120.261 187.172C120.914 186.811 121.275 186.425 121.245 186.045Z" fill="#960020"/>
<path d="M111.113 192.998C109.948 193.01 108.784 192.915 107.636 192.714C107.622 192.712 107.609 192.707 107.597 192.699C107.585 192.692 107.574 192.682 107.566 192.67C107.558 192.659 107.552 192.646 107.549 192.632C107.546 192.618 107.546 192.604 107.549 192.59C107.551 192.576 107.557 192.563 107.565 192.551C107.573 192.539 107.583 192.529 107.595 192.521C107.607 192.513 107.62 192.508 107.634 192.506C107.648 192.503 107.662 192.504 107.676 192.507C109.216 192.802 111.272 192.867 113.467 192.689C115.11 192.571 116.737 192.29 118.324 191.851C118.35 191.844 118.378 191.848 118.402 191.862C118.425 191.875 118.443 191.897 118.45 191.924C118.458 191.95 118.455 191.978 118.442 192.002C118.43 192.026 118.409 192.044 118.383 192.053C116.782 192.497 115.141 192.78 113.484 192.899C112.669 192.966 111.872 192.998 111.113 192.998Z" fill="#FF0000"/>
<path d="M111.134 190.979C109.443 190.979 107.931 190.819 106.866 190.516C106.852 190.513 106.839 190.507 106.827 190.498C106.816 190.49 106.807 190.479 106.799 190.467C106.792 190.455 106.788 190.441 106.786 190.427C106.784 190.413 106.785 190.398 106.789 190.385C106.793 190.371 106.8 190.358 106.809 190.347C106.817 190.336 106.828 190.327 106.841 190.321C106.854 190.314 106.867 190.31 106.881 190.309C106.896 190.307 106.91 190.309 106.923 190.313C108.442 190.747 110.888 190.881 113.466 190.673C116.017 190.467 118.395 189.949 119.828 189.287C119.841 189.281 119.855 189.278 119.868 189.277C119.882 189.277 119.896 189.279 119.909 189.284C119.922 189.289 119.934 189.296 119.944 189.305C119.954 189.315 119.962 189.326 119.968 189.339C119.974 189.351 119.977 189.365 119.978 189.379C119.978 189.392 119.976 189.406 119.971 189.419C119.966 189.432 119.959 189.444 119.95 189.454C119.94 189.464 119.929 189.473 119.916 189.478C118.462 190.15 116.057 190.675 113.484 190.883C112.68 190.948 111.889 190.979 111.134 190.979Z" fill="#FF0000"/>
<path d="M111.111 188.965C109.285 188.965 107.687 188.778 106.611 188.423C106.585 188.415 106.563 188.396 106.55 188.371C106.538 188.346 106.536 188.317 106.544 188.29C106.553 188.264 106.572 188.242 106.597 188.229C106.622 188.217 106.651 188.215 106.677 188.223C108.174 188.717 110.711 188.879 113.465 188.657C116.015 188.452 118.393 187.933 119.827 187.271C119.839 187.266 119.853 187.262 119.867 187.262C119.88 187.261 119.894 187.263 119.907 187.268C119.92 187.273 119.932 187.28 119.942 187.29C119.952 187.299 119.96 187.31 119.966 187.323C119.972 187.336 119.975 187.349 119.976 187.363C119.976 187.377 119.974 187.391 119.969 187.404C119.965 187.417 119.957 187.428 119.948 187.439C119.939 187.449 119.927 187.457 119.915 187.463C118.46 188.135 116.055 188.659 113.482 188.867C112.666 188.933 111.869 188.965 111.111 188.965Z" fill="#FF0000"/>
<path d="M111.125 186.948C109.853 186.966 108.583 186.851 107.335 186.603C107.308 186.597 107.285 186.58 107.27 186.557C107.255 186.533 107.25 186.505 107.256 186.478C107.262 186.451 107.279 186.427 107.302 186.412C107.325 186.397 107.354 186.392 107.381 186.398C108.921 186.74 111.139 186.829 113.465 186.641C115.992 186.437 118.359 185.925 119.795 185.271C119.82 185.26 119.849 185.259 119.875 185.268C119.901 185.278 119.922 185.298 119.934 185.323C119.946 185.349 119.947 185.378 119.937 185.404C119.927 185.43 119.907 185.451 119.882 185.463C118.425 186.127 116.032 186.646 113.482 186.852C112.676 186.916 111.883 186.948 111.125 186.948Z" fill="#FF0000"/>
<path d="M102.43 175.867C101.897 173.979 100.995 172.216 99.7762 170.679C97.1672 167.387 92.9102 160.693 92.3867 151.555C91.6246 138.266 103.399 131.611 114.143 132.515C124.888 133.418 135.49 141.427 134.329 153.791C133.615 161.398 129.361 167.169 126.194 170.483C124.19 172.591 122.74 175.164 121.972 177.971C121.022 181.406 118.76 185.687 113.384 185.948C106.427 186.286 103.538 179.794 102.43 175.867Z" fill="white"/>
<path d="M115.161 183.3L118.92 158.821C118.998 158.315 119.247 157.976 119.476 158.062C119.705 158.149 119.827 158.629 119.749 159.135C119.747 159.149 119.745 159.166 119.742 159.179L115.46 183.43C115.428 183.612 115.335 183.726 115.253 183.687C115.171 183.647 115.134 183.476 115.161 183.3Z" fill="#DFDFDF"/>
<path d="M111.256 183.492L107.497 159.014C107.419 158.508 107.171 158.169 106.942 158.256C106.713 158.342 106.59 158.823 106.668 159.329C106.67 159.342 106.673 159.359 106.675 159.372L110.957 183.623C110.989 183.806 111.082 183.92 111.164 183.88C111.246 183.841 111.283 183.668 111.256 183.492Z" fill="#DFDFDF"/>
<path opacity="0.49" d="M118.894 156.719C118.84 156.643 118.761 156.588 118.67 156.564C118.58 156.541 118.484 156.55 118.4 156.591L116.307 157.57L115.58 155.497C115.558 155.439 115.524 155.386 115.48 155.342C115.436 155.298 115.384 155.263 115.326 155.241C115.212 155.192 115.085 155.185 114.967 155.221C114.849 155.257 114.748 155.335 114.682 155.439L114.679 155.446L112.957 158.588L111.36 154.115L111.358 154.108C111.314 153.99 111.228 153.892 111.116 153.834C110.987 153.763 110.837 153.739 110.693 153.768C110.548 153.796 110.418 153.875 110.326 153.99L107.918 157.307C107.895 157.34 107.878 157.377 107.87 157.416C107.861 157.455 107.861 157.496 107.869 157.535C107.877 157.575 107.893 157.612 107.916 157.645C107.939 157.678 107.969 157.705 108.003 157.726C108.082 157.778 108.176 157.801 108.269 157.79C108.362 157.78 108.449 157.738 108.515 157.67L110.634 155.304L112.542 159.559L112.543 159.562C112.578 159.636 112.637 159.694 112.711 159.727C112.796 159.769 112.893 159.778 112.985 159.754C113.076 159.731 113.156 159.675 113.211 159.598L115.052 156.64L115.745 158.136L115.751 158.15C115.756 158.161 115.762 158.171 115.768 158.181C115.822 158.258 115.901 158.313 115.991 158.336C116.081 158.36 116.177 158.35 116.261 158.31L118.746 157.147C118.786 157.132 118.822 157.108 118.852 157.077C118.882 157.045 118.905 157.008 118.919 156.967C118.933 156.927 118.938 156.883 118.934 156.84C118.929 156.798 118.916 156.756 118.894 156.719Z" fill="#DFDFDF"/>
<path opacity="0.49" d="M126.275 167.621C126.133 167.621 125.993 167.581 125.872 167.506C125.751 167.431 125.653 167.324 125.59 167.196C125.526 167.069 125.498 166.926 125.511 166.784C125.523 166.642 125.574 166.506 125.659 166.392C126.284 165.551 126.86 164.675 127.385 163.768C127.436 163.68 127.503 163.603 127.583 163.542C127.663 163.48 127.755 163.435 127.852 163.409C127.95 163.383 128.052 163.376 128.152 163.389C128.252 163.403 128.349 163.436 128.436 163.486C128.524 163.537 128.6 163.604 128.662 163.684C128.723 163.765 128.768 163.856 128.795 163.954C128.821 164.052 128.827 164.154 128.814 164.254C128.801 164.354 128.768 164.451 128.718 164.538C128.163 165.496 127.555 166.422 126.895 167.31C126.823 167.407 126.73 167.485 126.622 167.54C126.514 167.594 126.396 167.622 126.275 167.621Z" fill="white"/>
<path opacity="0.49" d="M129.367 162.306C129.239 162.306 129.113 162.274 129.001 162.213C128.889 162.152 128.794 162.065 128.724 161.958C128.654 161.851 128.611 161.728 128.6 161.601C128.59 161.474 128.611 161.346 128.661 161.228C132.57 152.219 129.209 144.62 129.175 144.544C129.09 144.358 129.082 144.146 129.153 143.955C129.225 143.763 129.369 143.608 129.554 143.523C129.74 143.438 129.952 143.43 130.143 143.502C130.334 143.573 130.489 143.717 130.574 143.903C130.727 144.236 134.265 152.178 130.072 161.842C130.013 161.98 129.914 162.097 129.789 162.18C129.663 162.262 129.517 162.306 129.367 162.306Z" fill="white"/>
<path d="M130.641 288.852H59.9425C58.8598 288.852 57.8214 288.421 57.0557 287.655C56.29 286.889 55.8597 285.849 55.8594 284.765V216.43C55.8597 215.348 56.2883 214.311 57.0514 213.545C57.8145 212.779 58.8498 212.347 59.9304 212.344L131.195 212.152C131.733 212.151 132.267 212.256 132.765 212.462C133.263 212.668 133.715 212.971 134.096 213.353C134.476 213.735 134.777 214.188 134.982 214.687C135.186 215.186 135.29 215.721 135.287 216.26L134.722 284.788C134.716 285.867 134.283 286.901 133.518 287.662C132.754 288.423 131.719 288.851 130.641 288.852Z" fill="#EAEDF0"/>
<path d="M127.176 217.383L63.9602 217.772C62.8628 217.779 61.813 218.222 61.0412 219.003C60.2694 219.784 59.8388 220.839 59.8438 221.938L60.285 279.412C60.29 280.495 60.7182 281.533 61.4781 282.305C62.2381 283.076 63.2693 283.518 64.3512 283.538L125.773 284.66C126.319 284.67 126.861 284.572 127.368 284.372C127.875 284.172 128.338 283.873 128.73 283.493C129.122 283.113 129.435 282.66 129.651 282.159C129.868 281.658 129.983 281.119 129.99 280.573L131.343 221.587C131.351 221.036 131.249 220.488 131.042 219.977C130.836 219.465 130.53 219 130.142 218.609C129.754 218.217 129.292 217.907 128.782 217.697C128.273 217.486 127.727 217.379 127.176 217.383Z" fill="#DFDFDF"/>
<path d="M123.365 221.473H74.657C73.9727 221.473 73.418 222.028 73.418 222.713V223.149C73.418 223.834 73.9727 224.39 74.657 224.39H123.365C124.049 224.39 124.604 223.834 124.604 223.149V222.713C124.604 222.028 124.049 221.473 123.365 221.473Z" fill="white"/>
<path d="M119.171 228.201C119.154 228.514 119.02 228.809 118.794 229.026C118.569 229.244 118.269 229.368 117.956 229.374L75.3593 230.15C75.1947 230.153 75.0312 230.123 74.8783 230.062C74.7253 230.001 74.5861 229.911 74.4687 229.795C74.3512 229.68 74.2579 229.542 74.1942 229.39C74.1305 229.238 74.0977 229.075 74.0977 228.91V228.809C74.0977 228.483 74.2255 228.171 74.4537 227.939C74.6818 227.707 74.9919 227.574 75.3171 227.569L117.914 226.893C118.084 226.89 118.253 226.922 118.41 226.988C118.567 227.053 118.709 227.15 118.827 227.273C118.945 227.396 119.036 227.541 119.096 227.701C119.155 227.861 119.18 228.031 119.171 228.201Z" fill="white"/>
<path d="M123.521 281.849H123.474L65.8589 281.156C65.3354 281.15 64.8183 281.04 64.3374 280.833C63.8565 280.626 63.4213 280.325 63.0569 279.949C62.6924 279.573 62.406 279.128 62.214 278.64C62.022 278.153 61.9283 277.632 61.9382 277.108L63.4209 236.515C63.4456 235.464 63.8851 234.466 64.6433 233.739C65.4014 233.012 66.4164 232.615 67.4661 232.636L124.981 233.757C126.032 233.779 127.031 234.216 127.76 234.974C128.489 235.732 128.889 236.748 128.872 237.8C128.872 237.806 128.872 237.811 128.872 237.817L127.49 277.964C127.465 279.001 127.036 279.989 126.295 280.714C125.554 281.44 124.558 281.847 123.521 281.849ZM67.3875 234.689C66.8853 234.689 66.4033 234.886 66.0449 235.239C65.6866 235.591 65.4806 236.069 65.4714 236.572L63.9887 277.165C63.984 277.673 64.1806 278.162 64.5355 278.525C64.8904 278.888 65.3745 279.096 65.8819 279.102L123.497 279.795H123.52C124.022 279.793 124.503 279.595 124.861 279.243C125.219 278.891 125.426 278.412 125.436 277.91L126.818 237.756C126.824 237.249 126.63 236.76 126.278 236.396C125.926 236.031 125.445 235.821 124.938 235.811L67.4237 234.69C67.4128 234.689 67.4 234.689 67.3875 234.689Z" fill="white"/>
<path d="M127.098 242.518H64.3507C64.0785 242.518 63.8173 242.41 63.6248 242.217C63.4323 242.024 63.3242 241.763 63.3242 241.49C63.3242 241.218 63.4323 240.957 63.6248 240.764C63.8173 240.571 64.0785 240.463 64.3507 240.463H127.098C127.37 240.463 127.631 240.571 127.823 240.764C128.016 240.957 128.124 241.218 128.124 241.49C128.124 241.763 128.016 242.024 127.823 242.217C127.631 242.41 127.37 242.518 127.098 242.518Z" fill="white"/>
<path d="M141.352 107.024L151.675 97.2342C152.568 96.3848 153.754 95.9121 154.985 95.9141H190.124" stroke="white" stroke-dasharray="4 4"/>
<path d="M160.383 91.1944H190.126C190.325 91.1909 190.515 91.1092 190.655 90.9668C190.795 90.8245 190.873 90.6328 190.873 90.4332C190.873 90.2336 190.795 90.0419 190.655 89.8995C190.515 89.7572 190.325 89.6754 190.126 89.672H160.383C160.282 89.6702 160.182 89.6886 160.088 89.7261C159.994 89.7636 159.909 89.8194 159.837 89.8902C159.765 89.9611 159.708 90.0456 159.669 90.1388C159.629 90.232 159.609 90.3321 159.609 90.4332C159.609 90.5343 159.629 90.6343 159.669 90.7276C159.708 90.8208 159.765 90.9053 159.837 90.9762C159.909 91.047 159.994 91.1028 160.088 91.1403C160.182 91.1777 160.282 91.1961 160.383 91.1944Z" fill="#F7C6C8"/>
<path d="M165.219 86.4737H190.123C190.322 86.4702 190.512 86.3885 190.652 86.2461C190.792 86.1038 190.87 85.9121 190.87 85.7125C190.87 85.5129 190.792 85.3212 190.652 85.1788C190.512 85.0365 190.322 84.9547 190.123 84.9513H165.219C165.118 84.9495 165.018 84.9679 164.924 85.0054C164.83 85.0429 164.745 85.0987 164.673 85.1695C164.601 85.2404 164.544 85.3249 164.504 85.4181C164.465 85.5113 164.445 85.6114 164.445 85.7125C164.445 85.8136 164.465 85.9136 164.504 86.0069C164.544 86.1001 164.601 86.1846 164.673 86.2555C164.745 86.3263 164.83 86.3821 164.924 86.4196C165.018 86.457 165.118 86.4754 165.219 86.4737Z" fill="#F7C6C8"/>
<path d="M182.012 200.098L190.545 208.189C191.282 208.891 192.262 209.282 193.28 209.28H222.323" stroke="white" stroke-dasharray="4 4"/>
<path d="M197.738 213.184H222.321C222.488 213.184 222.648 213.25 222.766 213.368C222.884 213.486 222.95 213.646 222.95 213.813C222.95 213.98 222.884 214.14 222.766 214.258C222.648 214.375 222.488 214.442 222.321 214.442H197.738C197.571 214.442 197.411 214.375 197.293 214.258C197.176 214.14 197.109 213.98 197.109 213.813C197.109 213.646 197.176 213.486 197.293 213.368C197.411 213.25 197.571 213.184 197.738 213.184Z" fill="#F7C6C8"/>
<path d="M201.738 217.084H222.321C222.488 217.084 222.648 217.15 222.766 217.268C222.884 217.386 222.95 217.546 222.95 217.713C222.95 217.88 222.884 218.04 222.766 218.158C222.648 218.276 222.488 218.342 222.321 218.342H201.738C201.571 218.342 201.411 218.276 201.293 218.158C201.176 218.04 201.109 217.88 201.109 217.713C201.109 217.546 201.176 217.386 201.293 217.268C201.411 217.15 201.571 217.084 201.738 217.084Z" fill="#F7C6C8"/>
<path d="M320.067 132.976L318.858 131.408C318.697 131.198 318.59 130.953 318.545 130.693C318.5 130.434 318.518 130.167 318.597 129.915C318.995 128.641 319.245 127.326 319.344 125.995C319.362 125.732 319.444 125.476 319.582 125.251C319.72 125.026 319.91 124.837 320.136 124.702L321.84 123.689C322.19 123.48 322.466 123.168 322.631 122.795C322.795 122.422 322.839 122.006 322.757 121.607L322.252 119.164C322.17 118.764 321.965 118.401 321.666 118.123C321.367 117.846 320.989 117.669 320.585 117.617L318.62 117.364C318.358 117.329 318.109 117.231 317.893 117.079C317.677 116.927 317.502 116.725 317.381 116.491C316.762 115.308 316.011 114.2 315.142 113.188C314.969 112.989 314.846 112.752 314.785 112.495C314.724 112.239 314.725 111.971 314.789 111.715L315.278 109.795C315.379 109.4 315.354 108.983 315.206 108.603C315.059 108.222 314.797 107.898 314.457 107.674L312.373 106.304C312.033 106.08 311.631 105.968 311.224 105.983C310.817 105.998 310.425 106.141 310.102 106.39L308.535 107.6C308.326 107.76 308.081 107.868 307.822 107.913C307.562 107.959 307.295 107.941 307.044 107.861C305.772 107.463 304.458 107.212 303.128 107.113C302.865 107.095 302.61 107.013 302.385 106.875C302.16 106.737 301.972 106.547 301.836 106.32L300.824 104.615C300.616 104.264 300.304 103.987 299.931 103.823C299.558 103.658 299.144 103.614 298.745 103.697L296.304 104.202C295.905 104.285 295.542 104.49 295.265 104.789C294.988 105.088 294.811 105.466 294.759 105.871L294.506 107.838C294.471 108.1 294.373 108.35 294.221 108.566C294.07 108.782 293.868 108.958 293.634 109.079C292.452 109.698 291.345 110.45 290.335 111.32C290.136 111.493 289.898 111.616 289.642 111.677C289.386 111.738 289.119 111.737 288.863 111.673L286.945 111.184C286.55 111.083 286.134 111.108 285.754 111.256C285.374 111.403 285.05 111.665 284.826 112.006L283.457 114.092C283.233 114.433 283.121 114.835 283.137 115.242C283.152 115.65 283.294 116.042 283.543 116.365L284.752 117.934C284.912 118.143 285.02 118.388 285.065 118.648C285.11 118.908 285.092 119.175 285.012 119.426C284.615 120.7 284.365 122.016 284.266 123.347C284.248 123.61 284.166 123.865 284.028 124.091C283.89 124.316 283.7 124.504 283.474 124.64L281.77 125.653C281.42 125.861 281.143 126.174 280.979 126.547C280.815 126.92 280.771 127.335 280.853 127.735L281.358 130.178C281.44 130.578 281.646 130.941 281.944 131.218C282.243 131.496 282.621 131.673 283.025 131.725L284.99 131.978C285.252 132.013 285.501 132.11 285.717 132.262C285.933 132.414 286.109 132.616 286.23 132.851C286.848 134.034 287.599 135.142 288.468 136.153C288.641 136.352 288.763 136.59 288.825 136.847C288.886 137.103 288.885 137.371 288.821 137.627L288.332 139.547C288.231 139.942 288.257 140.359 288.404 140.739C288.551 141.119 288.813 141.444 289.153 141.668L291.237 143.038C291.577 143.262 291.979 143.374 292.386 143.359C292.793 143.343 293.186 143.201 293.508 142.952L295.075 141.742C295.284 141.581 295.529 141.474 295.789 141.428C296.048 141.383 296.315 141.401 296.566 141.481C297.839 141.879 299.152 142.13 300.482 142.228C300.745 142.247 301 142.328 301.225 142.466C301.45 142.604 301.638 142.795 301.774 143.021L302.786 144.727C302.994 145.077 303.306 145.354 303.679 145.519C304.052 145.683 304.467 145.727 304.866 145.645L307.306 145.139C307.705 145.057 308.069 144.852 308.346 144.553C308.623 144.253 308.799 143.875 308.852 143.471L309.105 141.504C309.139 141.242 309.237 140.992 309.389 140.776C309.54 140.56 309.742 140.384 309.977 140.263C311.158 139.644 312.265 138.892 313.275 138.021C313.474 137.848 313.712 137.726 313.968 137.665C314.224 137.603 314.491 137.605 314.747 137.669L316.665 138.158C317.06 138.259 317.476 138.234 317.856 138.086C318.236 137.939 318.56 137.677 318.784 137.336L320.153 135.25C320.377 134.909 320.489 134.507 320.473 134.099C320.458 133.692 320.316 133.299 320.067 132.976ZM295.097 137.55C292.552 136.222 290.458 134.169 289.079 131.65C287.7 129.13 287.098 126.258 287.35 123.396C287.601 120.535 288.695 117.812 290.492 115.573C292.29 113.333 294.71 111.678 297.448 110.815C300.185 109.953 303.116 109.922 305.871 110.728C308.626 111.533 311.08 113.139 312.923 115.34C314.767 117.542 315.916 120.242 316.227 123.098C316.538 125.953 315.995 128.837 314.669 131.385C312.89 134.8 309.829 137.369 306.158 138.525C302.488 139.681 298.509 139.33 295.097 137.55ZM309.055 130.43C307.872 131.867 306.289 132.921 304.508 133.457C302.726 133.994 300.826 133.99 299.047 133.445C297.268 132.9 295.69 131.84 294.513 130.398C293.336 128.955 292.613 127.196 292.435 125.342C292.257 123.489 292.632 121.624 293.512 119.983C294.393 118.343 295.74 117.001 297.382 116.126C299.025 115.252 300.89 114.885 302.741 115.072C304.591 115.259 306.346 115.991 307.781 117.175C309.706 118.764 310.921 121.053 311.16 123.539C311.399 126.025 310.642 128.504 309.055 130.43Z" fill="white"/>
<path d="M272.841 155.368L272.831 153.985C272.83 153.801 272.874 153.619 272.958 153.456C273.043 153.292 273.165 153.152 273.316 153.046C274.074 152.506 274.768 151.881 275.384 151.183C275.505 151.044 275.658 150.937 275.83 150.87C276.001 150.803 276.186 150.779 276.37 150.799L277.743 150.956C278.026 150.989 278.312 150.932 278.56 150.794C278.809 150.656 279.009 150.444 279.131 150.187L279.881 148.616C280.004 148.359 280.044 148.07 279.995 147.79C279.946 147.51 279.81 147.252 279.608 147.052L278.623 146.08C278.492 145.95 278.395 145.791 278.339 145.615C278.283 145.439 278.27 145.253 278.302 145.071C278.458 144.153 278.508 143.22 278.451 142.29C278.439 142.107 278.471 141.923 278.545 141.754C278.62 141.586 278.733 141.438 278.877 141.323L279.958 140.462C280.181 140.285 280.343 140.043 280.421 139.769C280.5 139.496 280.491 139.204 280.396 138.936L279.817 137.294C279.722 137.025 279.546 136.793 279.313 136.63C279.081 136.466 278.803 136.379 278.519 136.381L277.137 136.392C276.953 136.393 276.772 136.349 276.609 136.264C276.445 136.18 276.305 136.057 276.199 135.907C275.659 135.148 275.035 134.453 274.338 133.836C274.199 133.715 274.092 133.561 274.025 133.39C273.959 133.218 273.934 133.032 273.955 132.849L274.112 131.474C274.144 131.191 274.087 130.905 273.949 130.656C273.812 130.407 273.6 130.208 273.344 130.085L271.773 129.333C271.517 129.211 271.229 129.171 270.949 129.22C270.669 129.269 270.411 129.405 270.211 129.608L269.241 130.594C269.111 130.725 268.952 130.822 268.776 130.878C268.601 130.934 268.414 130.946 268.233 130.915C267.316 130.759 266.383 130.709 265.455 130.765C265.271 130.778 265.088 130.745 264.919 130.671C264.751 130.597 264.603 130.483 264.488 130.339L263.629 129.257C263.452 129.034 263.21 128.872 262.937 128.793C262.663 128.715 262.372 128.724 262.104 128.818L260.463 129.398C260.195 129.493 259.964 129.669 259.8 129.902C259.637 130.135 259.55 130.413 259.552 130.698L259.563 132.081C259.563 132.265 259.52 132.447 259.435 132.61C259.351 132.774 259.228 132.914 259.078 133.02C258.32 133.56 257.626 134.185 257.009 134.883C256.888 135.022 256.735 135.129 256.564 135.196C256.392 135.263 256.207 135.287 256.024 135.267L254.65 135.11C254.367 135.077 254.082 135.134 253.833 135.272C253.584 135.41 253.385 135.622 253.262 135.879L252.512 137.45C252.389 137.707 252.35 137.996 252.399 138.276C252.448 138.556 252.583 138.814 252.786 139.014L253.771 139.986C253.901 140.116 253.998 140.275 254.054 140.451C254.11 140.627 254.122 140.813 254.09 140.995C253.935 141.913 253.885 142.846 253.941 143.776C253.953 143.959 253.921 144.143 253.847 144.312C253.773 144.48 253.659 144.628 253.516 144.743L252.434 145.604C252.212 145.781 252.05 146.023 251.971 146.297C251.893 146.57 251.901 146.862 251.996 147.13L252.575 148.772C252.67 149.041 252.846 149.273 253.078 149.437C253.311 149.601 253.589 149.688 253.874 149.686L255.255 149.675C255.439 149.674 255.62 149.718 255.784 149.803C255.947 149.887 256.088 150.01 256.194 150.161C256.733 150.92 257.357 151.614 258.054 152.231C258.193 152.353 258.3 152.506 258.367 152.677C258.434 152.849 258.458 153.034 258.438 153.218L258.281 154.593C258.248 154.876 258.305 155.162 258.443 155.411C258.58 155.66 258.792 155.86 259.049 155.982L260.619 156.734C260.875 156.856 261.163 156.896 261.444 156.847C261.724 156.798 261.982 156.662 262.181 156.46L263.151 155.474C263.281 155.343 263.441 155.245 263.616 155.189C263.792 155.134 263.978 155.121 264.159 155.153C265.077 155.308 266.009 155.358 266.938 155.302C267.121 155.29 267.305 155.322 267.473 155.396C267.641 155.471 267.789 155.584 267.904 155.728L268.764 156.81C268.94 157.033 269.182 157.195 269.456 157.274C269.729 157.352 270.02 157.344 270.288 157.249L271.929 156.669C272.197 156.574 272.43 156.398 272.593 156.165C272.757 155.931 272.843 155.653 272.841 155.368ZM257.038 147.355C256.184 145.541 255.886 143.515 256.183 141.532C256.479 139.55 257.356 137.7 258.703 136.216C260.05 134.732 261.806 133.682 263.749 133.197C265.693 132.713 267.736 132.816 269.621 133.494C271.505 134.172 273.147 135.394 274.338 137.006C275.529 138.617 276.215 140.547 276.311 142.549C276.406 144.552 275.907 146.538 274.875 148.256C273.843 149.974 272.325 151.347 270.514 152.202C268.085 153.348 265.3 153.481 262.773 152.572C260.246 151.663 258.183 149.787 257.038 147.355Z" fill="white"/>
</g>
<defs>
<clipPath id="clip0_6511:33775">
<rect width="353" height="303" fill="white" transform="translate(21 29)"/>
</clipPath>
</defs>
</svg>
