<svg width="396" height="360" viewBox="0 0 396 360" fill="none" xmlns="http://www.w3.org/2000/svg">
<path fill-rule="evenodd" clip-rule="evenodd" d="M179.754 46.2383L155 69.0013L182.596 94.3759C165.245 97.4974 149.12 105.845 136.483 118.483C120.167 134.798 111.001 156.927 111.001 180C111.001 203.074 120.167 225.202 136.483 241.517C139.979 245.013 143.741 248.181 147.723 251H83.1779C70.0933 229.838 63 205.285 63 180C63 144.196 77.2232 109.858 102.541 84.5407C123.518 63.5633 150.688 50.2026 179.754 46.2383Z" fill="#C80000"/>
<path fill-rule="evenodd" clip-rule="evenodd" d="M198 45.0924L172 69.0012L198 92.9085V93.002C198.034 93.002 198.068 93.002 198.102 93.002L215.5 109V94.7799C232.051 98.1789 247.39 106.356 259.517 118.483C275.833 134.799 284.999 156.927 284.999 180C284.999 203.074 275.833 225.202 259.517 241.518C243.202 257.833 221.073 266.999 198 266.999H86.5L110 291L86.5 315H198C233.804 315 268.142 300.777 293.459 275.46C318.777 250.142 333 215.805 333 180C333 144.196 318.777 109.858 293.459 84.5411C272.303 63.3843 244.847 49.975 215.5 46.139V45.0005V29L198.1 45.0005C198.067 45.0005 198.033 45.0005 198 45.0005V45.0924Z" fill="#FF0000"/>
<path fill-rule="evenodd" clip-rule="evenodd" d="M258.491 315H345V331L388 291L345 251V267H318.388C313.836 273.556 308.681 279.738 302.959 285.46C290.126 298.293 274.976 308.275 258.491 315Z" fill="#C80000"/>
<path d="M8 267H53.5V251L96 291L53.5 331V315H8V267Z" fill="#FF0000"/>
<path d="M261.444 198.05C261.601 197.65 261.501 197.185 261.174 196.899L251.849 188.685C252.768 182.973 252.791 177.039 251.815 171.165L261.076 162.919C261.405 162.617 261.507 162.175 261.333 161.759L255.582 148.015C255.42 147.617 255.008 147.362 254.573 147.389L242.194 148.167C238.692 143.33 234.483 139.184 229.756 135.814L230.461 123.421C230.484 122.979 230.242 122.582 229.831 122.406L216.044 116.749C215.645 116.592 215.179 116.692 214.893 117.019L206.68 126.344C200.968 125.425 195.034 125.401 189.16 126.377L180.914 117.116C180.612 116.786 180.17 116.685 179.754 116.858L166.01 122.609C165.613 122.771 165.358 123.183 165.385 123.618L166.163 135.997C161.327 139.499 157.181 143.708 153.811 148.434L141.418 147.729C140.976 147.707 140.579 147.948 140.404 148.359L134.747 162.146C134.59 162.546 134.69 163.011 135.017 163.297L144.342 171.511C143.423 177.223 143.4 183.157 144.376 189.031L135.115 197.277C134.786 197.579 134.684 198.021 134.858 198.437L140.609 212.181C140.771 212.579 141.183 212.834 141.618 212.807L153.997 212.029C157.499 216.865 161.708 221.011 166.435 224.382L165.73 236.775C165.707 237.217 165.949 237.614 166.36 237.79L180.147 243.447C180.546 243.604 181.012 243.504 181.298 243.177L189.511 233.852C195.223 234.771 201.157 234.794 207.031 233.819L215.277 243.08C215.567 243.391 216.021 243.511 216.437 243.337L230.181 237.587C230.578 237.425 230.833 237.013 230.806 236.578L230.028 224.199C234.864 220.697 239.01 216.488 242.38 211.761L254.773 212.467C255.215 212.489 255.612 212.248 255.787 211.836L261.444 198.05Z" fill="#EAEDF0"/>
<path d="M234.887 179.602L234.887 179.604C234.887 179.66 234.887 179.716 234.887 179.773C234.887 180.102 234.888 180.452 234.872 180.803C234.847 182.072 234.757 183.353 234.593 184.602C234.593 184.602 234.593 184.602 234.593 184.603L234.345 184.57C233.308 192.945 229.438 200.652 223.257 206.589L234.887 179.602ZM234.887 179.602C234.875 177.614 234.685 175.637 234.363 173.685L234.362 173.682L234.362 173.682L234.362 173.682L234.362 173.682L234.362 173.682L234.362 173.681L234.362 173.681L234.362 173.681L234.362 173.681L234.362 173.681L234.362 173.681L234.362 173.681L234.362 173.681L234.362 173.68L234.362 173.68L234.362 173.68L234.362 173.68L234.362 173.68L234.362 173.68L234.362 173.68L234.362 173.68L234.362 173.679L234.362 173.679L234.362 173.679L234.362 173.679L234.362 173.679L234.362 173.679L234.362 173.679L234.362 173.679L234.362 173.678L234.362 173.678L234.362 173.678L234.362 173.678L234.362 173.678L234.362 173.678L234.362 173.678L234.362 173.678L234.362 173.677L234.362 173.677L234.362 173.677L234.362 173.677L234.362 173.677L234.362 173.677L234.362 173.677L234.361 173.676L234.361 173.676L234.361 173.676L234.361 173.676L234.361 173.676L234.361 173.676L234.361 173.676L234.361 173.676L234.361 173.675L234.361 173.675L234.361 173.675L234.361 173.675L234.361 173.675L234.361 173.675L234.361 173.675L234.361 173.675L234.361 173.674L234.361 173.674L234.361 173.674L234.361 173.674L234.361 173.674L234.361 173.674L234.361 173.674L234.361 173.674L234.361 173.673L234.361 173.673L234.361 173.673L234.361 173.673L234.361 173.673L234.361 173.673L234.361 173.673L234.361 173.672L234.361 173.672L234.361 173.672L234.361 173.672L234.361 173.672L234.361 173.672L234.361 173.672L234.361 173.672L234.361 173.671L234.361 173.671L234.361 173.671L234.361 173.671L234.361 173.671L234.36 173.671L234.36 173.671L234.36 173.671L234.36 173.67L234.36 173.67L234.36 173.67L234.36 173.67L234.36 173.67L234.36 173.67L234.36 173.67L234.36 173.669L234.36 173.669L234.36 173.669L234.36 173.669L234.36 173.669L234.36 173.669L234.36 173.669L234.36 173.669L234.36 173.668L234.36 173.668L234.36 173.668L234.36 173.668L234.36 173.668L234.36 173.668L234.36 173.668L234.36 173.667L234.36 173.667L234.36 173.667L234.36 173.667L234.36 173.667L234.36 173.667L234.36 173.667L234.36 173.667L234.36 173.666L234.36 173.666L234.36 173.666L234.36 173.666L234.36 173.666L234.36 173.666L234.36 173.666L234.36 173.665L234.36 173.665L234.359 173.665L234.359 173.665L234.359 173.665L234.359 173.665L234.359 173.665L234.359 173.664L234.359 173.664L234.359 173.664L234.359 173.664L234.359 173.664L234.359 173.664L234.359 173.664L234.359 173.664L234.359 173.663L234.359 173.663L234.359 173.663L234.359 173.663L234.359 173.663L234.359 173.663L234.359 173.663L234.359 173.662L234.359 173.662L234.359 173.662L234.359 173.662L234.359 173.662L234.359 173.662L234.359 173.662L234.359 173.661L234.359 173.661L234.359 173.661L234.359 173.661L234.359 173.661L234.359 173.661L234.359 173.661L234.359 173.66L234.359 173.66L234.359 173.66L234.359 173.66L234.359 173.66L234.359 173.66L234.359 173.66L234.358 173.659L234.358 173.659L234.358 173.659L234.358 173.659L234.358 173.659L234.358 173.659L234.358 173.659L234.358 173.658L234.358 173.658L234.358 173.658L234.358 173.658L234.358 173.658L234.358 173.658L234.358 173.658L234.358 173.657L234.358 173.657L234.358 173.657L234.358 173.657L234.358 173.657L234.358 173.657L234.358 173.657L234.358 173.656L234.358 173.656L234.358 173.656L234.358 173.656L234.358 173.656L234.358 173.656L234.358 173.656L234.358 173.655L234.358 173.655L234.358 173.655L234.358 173.655L234.358 173.655L234.358 173.655L234.358 173.655L234.358 173.654L234.358 173.654L234.358 173.654L234.358 173.654L234.357 173.654L234.357 173.654L234.357 173.654L234.357 173.653L234.357 173.653L234.357 173.653L234.357 173.653L234.357 173.653L234.357 173.653L234.357 173.652L234.357 173.652L234.357 173.652L234.357 173.652L234.357 173.652L234.357 173.652L234.357 173.652L234.357 173.651L234.357 173.651L234.357 173.651L234.357 173.651L234.357 173.651L234.357 173.651L234.357 173.65L234.357 173.65L234.357 173.65L234.357 173.65L234.357 173.65L234.357 173.65L234.357 173.65L234.357 173.649L234.357 173.649L234.357 173.649L234.357 173.649L234.357 173.649L234.357 173.649L234.357 173.648L234.357 173.648L234.356 173.648L234.356 173.648L234.356 173.648L234.356 173.648L234.356 173.648L234.356 173.647L234.356 173.647L234.356 173.647L234.356 173.647L234.356 173.647L234.356 173.647L234.356 173.646L234.356 173.646L234.356 173.646L234.356 173.646L234.356 173.646L234.356 173.646L234.356 173.645L234.356 173.645L234.356 173.645L234.356 173.645L234.356 173.645L234.356 173.645L234.356 173.644L234.356 173.644L234.356 173.644L234.356 173.644L234.356 173.644L234.356 173.644L234.356 173.643L234.356 173.643L234.356 173.643L234.356 173.643L234.356 173.643L234.356 173.643L234.356 173.642L234.355 173.642L234.355 173.642L234.355 173.642L234.355 173.642L234.355 173.642L234.355 173.641L234.355 173.641L234.355 173.641L234.355 173.641L234.355 173.641L234.355 173.641L234.355 173.64L234.355 173.64L234.355 173.64L234.355 173.64L234.355 173.64L234.355 173.64L234.355 173.639L234.355 173.639L234.355 173.639L234.355 173.639L234.355 173.639L234.355 173.639L234.355 173.638L234.355 173.638L234.355 173.638L234.355 173.638L234.355 173.638L234.355 173.638L234.355 173.637L234.355 173.637L234.355 173.637L234.355 173.637L234.354 173.637L234.354 173.637L234.354 173.636L234.354 173.636L234.354 173.636L234.354 173.636L234.354 173.636L234.354 173.635L234.354 173.635L234.354 173.635L234.354 173.635L234.354 173.635L234.354 173.635L234.354 173.634L234.354 173.634L234.354 173.634L234.354 173.634L234.354 173.634L234.354 173.633L234.354 173.633L234.354 173.633L234.354 173.633L234.354 173.633L234.354 173.633L234.354 173.632L234.354 173.632L234.354 173.632L234.354 173.632L234.354 173.632L234.354 173.631L234.354 173.631L234.353 173.631L234.353 173.631L234.353 173.631L234.353 173.631L234.353 173.63L234.353 173.63L234.353 173.63L234.353 173.63L234.353 173.63L234.353 173.629L234.353 173.629L234.353 173.629L234.353 173.629L234.353 173.629L234.353 173.628L234.353 173.628L234.353 173.628L234.353 173.628L234.353 173.628L234.353 173.627L234.353 173.627L234.353 173.627L234.353 173.627L234.353 173.627L234.353 173.626L234.353 173.626L234.353 173.626L234.353 173.626L234.353 173.626L234.353 173.626L234.352 173.625L234.352 173.625L234.352 173.625L234.352 173.625L234.352 173.625L234.352 173.624L234.352 173.624L234.352 173.624L234.352 173.624L234.352 173.624L234.352 173.623L234.352 173.623L234.352 173.623L234.352 173.623L234.352 173.623L234.352 173.622L234.352 173.622L234.352 173.622L234.352 173.622L234.352 173.622L234.352 173.621L234.352 173.621L234.352 173.621L234.352 173.621L234.352 173.62L234.352 173.62L234.352 173.62L234.352 173.62L234.351 173.62L234.351 173.619L234.351 173.619L234.351 173.619L234.351 173.619L234.351 173.619L234.351 173.618L234.351 173.618L234.351 173.618L234.351 173.618L234.351 173.618L234.351 173.617L234.351 173.617L234.351 173.617L234.351 173.617L234.351 173.617L234.351 173.616L234.351 173.616L234.351 173.616L234.351 173.616L234.351 173.615L234.351 173.615L234.351 173.615L234.351 173.615L234.351 173.615L234.351 173.614L234.351 173.614L234.35 173.614L234.35 173.614L234.35 173.613L234.35 173.613L234.35 173.613L234.35 173.613L234.35 173.613L234.35 173.612L234.35 173.612L234.35 173.612L234.35 173.612L234.35 173.611L234.35 173.611L234.35 173.611L234.35 173.611L234.35 173.611L234.35 173.61L234.35 173.61L234.35 173.61L234.35 173.61L234.35 173.609L234.35 173.609L234.35 173.609L234.35 173.609L234.35 173.609L234.349 173.608L234.349 173.608L234.349 173.608L234.349 173.608L234.349 173.607L234.349 173.607L234.349 173.607L234.349 173.607L234.349 173.606L234.349 173.606L234.349 173.606L234.349 173.606L234.349 173.606L234.349 173.605L234.349 173.605L234.349 173.605L234.349 173.605L234.349 173.604L234.349 173.604L234.349 173.604L234.349 173.604L234.349 173.603L234.349 173.603L234.349 173.603L234.348 173.603L234.348 173.602L234.348 173.602L234.348 173.602L234.348 173.602L234.348 173.601L234.348 173.601L234.348 173.601L234.348 173.601L234.348 173.601L234.348 173.6L234.348 173.6L234.348 173.6L234.348 173.6L234.348 173.599L234.348 173.599L234.348 173.599L234.348 173.599L234.348 173.598L234.348 173.598L234.348 173.598L234.348 173.598L234.348 173.597L234.347 173.597L234.347 173.597L234.347 173.597L234.347 173.596L234.347 173.596L234.347 173.596L234.347 173.596L234.347 173.595L234.347 173.595L234.347 173.595L234.347 173.594L234.347 173.594L234.347 173.593L234.347 173.593L234.347 173.593L234.347 173.592L234.347 173.592L234.347 173.592L234.346 173.591L234.346 173.591L234.346 173.59L234.346 173.59L234.346 173.59L234.346 173.589L234.346 173.589L234.346 173.588L234.346 173.588L234.346 173.588L234.346 173.587L234.346 173.587L234.346 173.586L234.346 173.586L234.345 173.586L234.345 173.585L234.345 173.585L234.345 173.585L234.345 173.584L234.345 173.584L234.345 173.583L234.345 173.583L234.345 173.583L234.345 173.582L234.345 173.582L234.345 173.581L234.345 173.581L234.345 173.581L234.345 173.58L234.344 173.58L234.344 173.579L234.344 173.579L234.344 173.579L234.344 173.578L234.344 173.578L234.344 173.577L234.344 173.577L234.344 173.577L234.344 173.576L234.344 173.576L234.344 173.575L234.344 173.575L234.344 173.575L234.343 173.574L234.343 173.574L234.343 173.573L234.343 173.573L234.343 173.572L234.343 173.572L234.343 173.572L234.343 173.571L234.343 173.571L234.343 173.57L234.343 173.57L234.343 173.57L234.343 173.569L234.343 173.569L234.342 173.568L234.342 173.568L234.342 173.568L234.342 173.567L234.342 173.567L234.342 173.566L234.342 173.566L234.342 173.565L234.342 173.565L234.342 173.565L234.342 173.564L234.342 173.564L234.342 173.563L234.341 173.563L234.341 173.563L234.341 173.562L234.341 173.562L234.341 173.561L234.341 173.561L234.341 173.56L234.341 173.56L234.341 173.56L234.341 173.559L234.341 173.559L234.341 173.558L234.341 173.558L234.341 173.558L234.34 173.557L234.34 173.557L234.34 173.556L234.34 173.556L234.34 173.555L234.34 173.555L234.34 173.555L234.34 173.554L234.34 173.554L234.34 173.553L234.34 173.553L234.34 173.552L234.34 173.552L234.339 173.552L234.339 173.551L234.339 173.551L234.339 173.55L234.339 173.55L234.339 173.55L234.339 173.549L234.339 173.549L234.339 173.548L234.339 173.548L234.339 173.547L234.339 173.547L234.339 173.547L234.339 173.546L234.338 173.546L234.338 173.545L234.338 173.545L234.338 173.544L234.338 173.544L234.338 173.544L234.338 173.543L234.338 173.543L234.338 173.542L234.338 173.542L234.338 173.541L234.338 173.541L234.338 173.54L234.337 173.54L234.337 173.54L234.337 173.539L234.337 173.539L234.337 173.538L234.337 173.538L234.337 173.537L234.337 173.537L234.337 173.537L234.337 173.536L234.337 173.536L234.337 173.535L234.337 173.535L234.336 173.534L234.336 173.534L234.336 173.534L234.336 173.533L234.336 173.533L234.336 173.532L234.336 173.532L234.336 173.531L234.336 173.531L234.336 173.531L234.336 173.53L234.336 173.53L234.336 173.529L234.335 173.529L234.335 173.528L234.335 173.528L234.335 173.527L234.335 173.527L234.335 173.527L234.335 173.526L234.335 173.526L234.335 173.525L234.335 173.525L234.335 173.524L234.335 173.524L234.335 173.524L234.334 173.523L234.334 173.523L234.334 173.522L234.334 173.522L234.334 173.521L234.334 173.521L234.334 173.52L234.334 173.52L234.334 173.52L234.334 173.519L234.334 173.519L234.334 173.518L234.334 173.518L234.333 173.517L234.333 173.517L234.333 173.516L234.333 173.516L234.333 173.516L234.333 173.515L234.333 173.515L234.333 173.514L234.333 173.514L234.333 173.513L234.333 173.513L234.333 173.512L234.332 173.512L234.332 173.512L234.332 173.511L234.332 173.511L234.332 173.51L234.332 173.51L234.332 173.509L234.332 173.509L234.332 173.508L234.332 173.508L234.332 173.508L234.332 173.507L234.332 173.507L234.331 173.506L234.331 173.506L234.331 173.505L234.331 173.505L234.331 173.504L234.331 173.504L234.331 173.504L234.331 173.503L234.331 173.503L234.331 173.502L234.331 173.502L234.331 173.501L234.331 173.501L234.33 173.5L234.33 173.5L234.33 173.5L234.33 173.499L234.33 173.499L234.33 173.498L234.33 173.498L234.33 173.497L234.33 173.497L234.33 173.496L234.33 173.496L234.33 173.496L234.33 173.495L234.329 173.495L234.329 173.494L234.329 173.494L234.329 173.493L234.329 173.493L234.329 173.492L234.329 173.492L234.329 173.492L234.329 173.491L234.329 173.491L234.329 173.49L234.329 173.49L234.328 173.489L234.328 173.489L234.328 173.488L234.328 173.488L234.328 173.488L234.328 173.487L234.328 173.487L234.328 173.486L234.328 173.486L234.328 173.485L234.328 173.485L234.328 173.484L234.328 173.484L234.327 173.484L234.327 173.483L234.327 173.483L234.327 173.482L234.327 173.482L234.327 173.481L234.327 173.481L234.327 173.48L234.327 173.48L234.327 173.48L234.327 173.479L234.327 173.479L234.327 173.478L234.326 173.478L234.326 173.477L234.326 173.477L234.326 173.476L234.326 173.476L234.326 173.475L234.326 173.475L234.326 173.475L234.326 173.474L234.326 173.474L234.326 173.473L234.326 173.473L234.326 173.472L234.325 173.472L234.325 173.471L234.325 173.471L234.325 173.471L234.325 173.47L234.325 173.47L234.325 173.469L234.325 173.469L234.325 173.468L234.325 173.468L234.325 173.467L234.325 173.467L234.324 173.467L234.324 173.466L234.324 173.466L234.324 173.465L234.324 173.465L234.324 173.464L234.324 173.464L234.324 173.463L234.324 173.463L234.324 173.463L234.324 173.462L234.324 173.462L234.324 173.461L234.323 173.461L234.323 173.46L234.323 173.46L234.323 173.459L234.323 173.459L234.323 173.459L234.323 173.458L234.323 173.458L234.323 173.457L234.323 173.457L234.323 173.456L234.323 173.456L234.323 173.456L234.322 173.455L234.322 173.455L234.322 173.454L234.322 173.454L234.322 173.453L234.322 173.453L234.322 173.452L234.322 173.452L234.322 173.452L234.322 173.451L234.322 173.451L234.322 173.45L234.322 173.45L234.321 173.449L234.321 173.449L234.321 173.448L234.321 173.448L234.321 173.448L234.321 173.447L234.321 173.447L234.321 173.446L234.321 173.446L234.321 173.445L234.321 173.445L234.321 173.445L234.321 173.444L234.32 173.444L234.32 173.443L234.32 173.443L234.32 173.442L234.32 173.442L234.32 173.441L234.32 173.441L234.32 173.441L234.32 173.44L234.32 173.44L234.32 173.439L234.32 173.439L234.32 173.438L234.319 173.438L234.319 173.438L234.319 173.437L234.319 173.437L234.319 173.436L234.319 173.436L234.319 173.435L234.319 173.435L234.319 173.434L234.319 173.434L234.319 173.434L234.319 173.433L234.319 173.433L234.318 173.432L234.318 173.432L234.318 173.431L234.318 173.431L234.318 173.431L234.318 173.43L234.318 173.43L234.318 173.429L234.318 173.429L234.318 173.428L234.318 173.428L234.318 173.428L234.318 173.427L234.317 173.427L234.317 173.426L234.317 173.426L234.317 173.425L234.317 173.425L234.317 173.425L234.317 173.424L234.317 173.424L234.317 173.423L234.317 173.423L234.317 173.422L234.317 173.422L234.317 173.422L234.316 173.421L234.316 173.421L234.316 173.42L234.316 173.42L234.316 173.419L234.316 173.419L234.316 173.419L234.316 173.418L234.316 173.418L234.316 173.417L234.316 173.417L234.316 173.417L234.316 173.416L234.316 173.416L234.315 173.415L234.315 173.415L234.315 173.414L234.315 173.414L234.315 173.414L234.315 173.413L234.315 173.413L234.315 173.412L234.315 173.412L234.315 173.411L234.315 173.411L234.315 173.411L234.315 173.41L234.314 173.41L234.314 173.409L234.314 173.409L234.314 173.409L234.314 173.408L234.314 173.408L234.314 173.407L234.314 173.407L234.314 173.406L234.314 173.406L234.314 173.406L234.314 173.405L234.314 173.405L234.314 173.404L234.313 173.404L234.313 173.404L234.313 173.403L234.313 173.403L234.313 173.402L234.313 173.402L234.313 173.402L234.313 173.401L234.313 173.401L234.313 173.4L234.313 173.4L234.313 173.4L234.313 173.399L234.313 173.399L234.312 173.398L234.312 173.398L234.312 173.397L234.312 173.397L234.312 173.397L234.312 173.396L234.312 173.396L234.312 173.395L234.312 173.395L234.312 173.395L234.312 173.394L234.312 173.394L234.312 173.393L234.312 173.393L234.311 173.393L234.311 173.392L234.311 173.392L234.311 173.391L234.311 173.391L234.311 173.391L234.311 173.39L234.311 173.39L234.311 173.389L234.311 173.389L234.311 173.389L234.311 173.388L234.311 173.388L234.311 173.387L234.31 173.387L234.31 173.387L234.31 173.386L234.31 173.386L234.31 173.386L234.31 173.385L234.31 173.385L234.31 173.384L234.31 173.384L234.31 173.384L234.31 173.383L234.31 173.383L234.31 173.382L234.31 173.382L234.309 173.382L234.309 173.381L234.309 173.381L234.309 173.38L234.309 173.38L234.309 173.38L234.309 173.379L234.309 173.379L234.309 173.379L234.309 173.378L234.309 173.378L234.309 173.377L234.309 173.376L234.308 173.376L234.308 173.375L234.308 173.374L234.308 173.373L234.308 173.372L234.308 173.371L234.307 173.37L234.307 173.369L234.307 173.368L234.307 173.368L234.307 173.367L234.307 173.366L234.307 173.365L234.306 173.364L234.306 173.363L234.306 173.362L234.306 173.361L234.306 173.36L234.306 173.36L234.305 173.359L234.305 173.358L234.305 173.357L234.305 173.356L234.305 173.355L234.305 173.354L234.305 173.353L234.304 173.353L234.304 173.352L234.304 173.351L234.304 173.35L234.304 173.349L234.304 173.348L234.303 173.347L234.303 173.346L234.303 173.346L234.303 173.345L234.303 173.344L234.303 173.343L234.303 173.342L234.302 173.341L234.302 173.34L234.302 173.339L234.302 173.339L234.302 173.338L234.302 173.337L234.301 173.336L234.301 173.335L234.301 173.334L234.301 173.333L234.301 173.332L234.301 173.332L234.301 173.331L234.3 173.33L234.3 173.329L234.3 173.328L234.3 173.327L234.3 173.326L234.3 173.325L234.299 173.325L234.299 173.324L234.299 173.323L234.299 173.322L234.299 173.321L234.299 173.32L234.299 173.319L234.298 173.319L234.298 173.318L234.298 173.317L234.298 173.316L234.298 173.315L234.298 173.314L234.297 173.313L234.297 173.313L234.297 173.312L234.297 173.311L234.297 173.31L234.297 173.309L234.297 173.308L234.296 173.307L234.296 173.307L234.296 173.306L234.296 173.305L234.296 173.304L234.296 173.303L234.296 173.302L234.295 173.301L234.295 173.301L234.295 173.3L234.295 173.299L234.295 173.298L234.295 173.297L234.294 173.296L234.294 173.295L234.294 173.295L234.294 173.294L234.294 173.293L234.294 173.292L234.294 173.291L234.293 173.29L234.293 173.289L234.293 173.289L234.293 173.288L234.293 173.287L234.293 173.286L234.292 173.285L234.292 173.284L234.292 173.283L234.292 173.283L234.292 173.282L234.292 173.281L234.292 173.28L234.291 173.279L234.291 173.278L234.291 173.278L234.291 173.277L234.291 173.276L234.291 173.275L234.291 173.274L234.29 173.273L234.29 173.272L234.29 173.272L234.29 173.271L234.29 173.27L234.29 173.269L234.29 173.268L234.289 173.267L234.289 173.266L234.289 173.266L234.289 173.265L234.289 173.264L234.289 173.263L234.288 173.262L234.288 173.261L234.288 173.261L234.288 173.26L234.288 173.259L234.288 173.258L234.288 173.257L234.287 173.256L234.287 173.256L234.287 173.255L234.287 173.254L234.287 173.253L234.287 173.252L234.287 173.251L234.286 173.25L234.286 173.25L234.286 173.249L234.286 173.248L234.286 173.247L234.286 173.246L234.285 173.245L234.285 173.245L234.285 173.244L234.285 173.243L234.285 173.242L234.285 173.241L234.285 173.24L234.284 173.24L234.284 173.239L234.284 173.238L234.284 173.237L234.284 173.236L234.284 173.235L234.284 173.235L234.283 173.234L234.283 173.233L234.283 173.232L234.283 173.231L234.283 173.23L234.283 173.23L234.283 173.229L234.282 173.228L234.282 173.227L234.282 173.226L234.282 173.225L234.282 173.225L234.282 173.224L234.282 173.223L234.281 173.222L234.281 173.221L234.281 173.22L234.281 173.22L234.281 173.219L234.281 173.218L234.28 173.217L234.28 173.216L234.28 173.215L234.28 173.215L234.28 173.214L234.28 173.213L234.28 173.212L234.279 173.211L234.279 173.21L234.279 173.21L234.279 173.209L234.279 173.208L234.279 173.207L234.279 173.206L234.278 173.205L234.278 173.205L234.278 173.204L234.278 173.203L234.278 173.202L234.278 173.201L234.278 173.2L234.277 173.2L234.277 173.199L234.277 173.198L234.277 173.197L234.277 173.196L234.277 173.195L234.277 173.195L234.276 173.194L234.276 173.193L234.276 173.192L234.276 173.191L234.276 173.19L234.276 173.19L234.275 173.189L234.275 173.188L234.275 173.187L234.275 173.186L234.275 173.185L234.275 173.185L234.275 173.184L234.274 173.183L234.274 173.182L234.274 173.181L234.274 173.18L234.274 173.18L234.274 173.179L234.274 173.178L234.273 173.177L234.273 173.176L234.273 173.175L234.273 173.175L234.273 173.174L234.273 173.173L234.273 173.172L234.272 173.171L234.272 173.17L234.272 173.17L234.272 173.169L234.272 173.168L234.272 173.167L234.272 173.166L234.271 173.166L234.271 173.165L234.271 173.164L234.271 173.163L234.271 173.162L234.271 173.161L234.271 173.161L234.27 173.16L234.27 173.159L234.27 173.158L234.27 173.157L234.27 173.156L234.27 173.156L234.269 173.155L234.269 173.154L234.269 173.153L234.269 173.152L234.269 173.151L234.269 173.151L234.269 173.15L234.268 173.149L234.268 173.148L234.268 173.147L234.268 173.146L234.268 173.146L234.268 173.145L234.268 173.144L234.267 173.143L234.267 173.142L234.267 173.141L234.267 173.141L234.267 173.14L234.267 173.139L234.267 173.138L234.266 173.137L234.266 173.136L234.266 173.136L234.266 173.135L234.266 173.134L234.266 173.133L234.266 173.132L234.265 173.132L234.265 173.131L234.265 173.13L234.265 173.129L234.265 173.128L234.265 173.127L234.265 173.127L234.264 173.126L234.264 173.125L234.264 173.124L234.264 173.123L234.264 173.122L234.264 173.122L234.263 173.121L234.263 173.12L234.263 173.119L234.263 173.118L234.263 173.117L234.263 173.117L234.263 173.116L234.262 173.115L234.262 173.114L234.262 173.113L234.262 173.112L234.262 173.112L234.262 173.111L234.262 173.11L234.261 173.109L234.261 173.108L234.261 173.107L234.261 173.107L234.261 173.106L234.261 173.105L234.261 173.104L234.26 173.103L234.26 173.102L234.26 173.102L234.26 173.101L234.26 173.1L234.26 173.099L234.26 173.098L234.259 173.097L234.259 173.097L234.259 173.096L234.259 173.095L234.259 173.094L234.259 173.093L234.259 173.092L234.258 173.092L234.258 173.091L234.258 173.09L234.258 173.089L234.258 173.088L234.258 173.087L234.257 173.087L234.257 173.086L234.257 173.085L234.257 173.084L234.257 173.083L234.257 173.082L234.257 173.082L234.256 173.081L234.256 173.08L234.256 173.079L234.256 173.078L234.256 173.077L234.256 173.076L234.256 173.076L234.255 173.075L234.255 173.074L234.255 173.073L234.255 173.072L234.255 173.071L234.255 173.071L234.255 173.07L234.254 173.069L234.254 173.068L234.254 173.067L234.254 173.066L234.254 173.066L234.254 173.065L234.253 173.064L234.253 173.063L234.253 173.062L234.253 173.061L234.253 173.061L234.253 173.06L234.253 173.059L234.252 173.058L234.252 173.057L234.252 173.056L234.252 173.055L234.252 173.055L234.252 173.054L234.252 173.053L234.251 173.052L234.251 173.051L234.251 173.05L234.251 173.05L234.251 173.049L234.251 173.048L234.25 173.047L234.25 173.046L234.25 173.045L234.25 173.044L234.25 173.044L234.25 173.043L234.25 173.042L234.249 173.041L234.249 173.04L234.249 173.039L234.249 173.039L234.249 173.038L234.249 173.037L234.249 173.036L234.248 173.035L234.248 173.034L234.248 173.033L234.248 173.033L234.248 173.032L234.248 173.031L234.248 173.03L234.247 173.029L234.247 173.028L234.247 173.027L234.247 173.027L234.247 173.026L234.247 173.025L234.246 173.024L234.246 173.023L234.246 173.022L234.246 173.021L234.246 173.021L234.246 173.02L234.246 173.019L234.245 173.018L234.245 173.017L234.245 173.016L234.245 173.015L234.245 173.015L234.245 173.014L234.244 173.013L234.244 173.012L234.244 173.011L234.244 173.01L234.244 173.009L234.244 173.009L234.244 173.008L234.243 173.007L234.243 173.006L234.243 173.005L234.243 173.004L234.243 173.003L234.243 173.003L234.243 173.002L234.242 173.001L234.242 173L234.242 172.999L234.242 172.998L234.242 172.997L234.242 172.997L234.241 172.996L234.241 172.995L234.241 172.994L234.241 172.993L234.241 172.992L234.241 172.991L234.241 172.99L234.24 172.99L234.24 172.989L234.24 172.988L234.24 172.987L234.24 172.986L234.24 172.985L234.239 172.984L234.239 172.983L234.239 172.983L234.239 172.982L234.239 172.981L234.239 172.98L234.239 172.979L234.238 172.978L234.238 172.977L234.238 172.976L234.238 172.976L234.238 172.975L234.238 172.974L234.237 172.973L234.237 172.972L234.237 172.971L234.237 172.97L234.237 172.969L234.237 172.969L234.237 172.968L234.236 172.967L234.236 172.966L234.236 172.965L234.236 172.964L234.236 172.963L234.236 172.962L234.235 172.962L234.235 172.961L234.235 172.96L234.235 172.959L234.235 172.958L234.235 172.957L234.235 172.956L234.234 172.955L234.234 172.954L234.234 172.954L234.234 172.953L234.234 172.952L234.234 172.951L234.233 172.95L234.233 172.949L234.233 172.948L234.233 172.947L234.233 172.947L234.233 172.946L234.232 172.945L234.232 172.944L234.232 172.943L234.232 172.942C234.142 172.43 233.729 172.099 233.266 172.04L233.259 172.039L233.252 172.038L233.242 172.037C233.158 172.031 233.04 172.023 232.922 172.044C232.299 172.154 231.917 172.747 232.024 173.354L232.025 173.358C232.494 175.769 232.687 178.253 232.635 180.738C232.357 193.063 225.646 203.784 215.797 209.732C210.319 213.038 203.871 214.888 197.004 214.74C195.793 214.708 194.598 214.629 193.437 214.478L193.436 214.478C185.508 213.491 178.222 209.83 172.643 203.972L172.643 203.972C166.218 197.239 162.813 188.414 163.025 179.129C163.473 159.931 179.458 144.679 198.634 145.13C199.823 145.166 200.996 145.249 202.158 145.4L202.159 145.4C207.214 146.023 212.067 147.773 216.378 150.488C216.522 150.587 216.702 150.636 216.825 150.662L216.838 150.665L216.851 150.666C217.251 150.708 217.685 150.549 217.937 150.156C218.278 149.632 218.124 148.935 217.578 148.601C212.979 145.707 207.818 143.861 202.435 143.183C201.183 143.019 199.949 142.943 198.681 142.897L198.681 142.896L198.677 142.896C178.258 142.43 161.237 158.672 160.77 179.09L160.77 179.09C160.548 188.98 164.171 198.375 171.017 205.55L171.017 205.55C176.972 211.775 184.71 215.676 193.168 216.738L234.887 179.602ZM196.969 217.017C196.969 217.017 196.97 217.017 196.97 217.017L196.975 216.767L196.969 217.017C196.969 217.017 196.969 217.017 196.969 217.017Z" fill="#D1D5D9" stroke="#D1D5D9" stroke-width="0.5"/>
<rect x="173" y="171.326" width="10.9653" height="34.8895" transform="rotate(-45 173 171.326)" fill="#FF0000"/>
<rect x="225.16" y="153" width="10.9653" height="49.8421" transform="rotate(45 225.16 153)" fill="#FF0000"/>
</svg>
