<?xml version="1.0" encoding="UTF-8"?>
<svg width="1167" height="252" viewBox="0 0 1167 252" fill="none" xmlns="http://www.w3.org/2000/svg">
<g clip-path="url(#clip0)">
<path d="M334.656 92.2L325.248 121.064L316.224 92.2H304.576L295.104 120.808L286.08 92.2H273.024L287.552 137H301.12L310.08 109.736L318.656 137H332.224L346.752 92.2H334.656ZM379.005 137H392.573L382.909 122.92C388.477 120.232 391.677 115.368 391.677 108.776C391.677 98.536 383.997 92.2 371.773 92.2H351.293V137H363.965V125.096H370.877L379.005 137ZM378.877 108.776C378.877 112.872 376.253 115.304 371.005 115.304H363.965V102.184H371.005C376.253 102.184 378.877 104.616 378.877 108.776ZM398.668 137H411.34V92.2H398.668V137ZM429.891 137H442.563V102.248H456.259V92.2H416.131V102.248H429.891V137ZM473.524 127.208V119.016H493.428V109.544H473.524V101.992H496.116V92.2H460.98V137H496.948V127.208H473.524Z" fill="white"/>
<path d="M50.8114 102.582C52.6207 99.6512 54.8823 97.3065 57.144 95.1571C59.4056 93.0078 61.9688 91.0538 64.532 89.4907C69.6583 86.169 75.0863 84.0196 80.665 82.2611C86.2437 80.6979 91.9731 79.721 97.7026 79.5256C103.432 79.1348 109.162 79.3302 114.891 79.9164C137.809 82.4565 159.973 90.6631 181.383 101.214C202.944 111.375 222.997 126.225 244.86 134.822C266.571 144.006 289.338 149.477 312.105 151.431C334.873 153.385 357.941 152.017 380.558 147.914C403.174 143.81 425.639 137.167 447.502 128.96C469.515 120.558 491.076 110.593 512.185 99.4558C522.739 93.9848 533.293 88.1229 543.848 82.2611C549.125 79.3302 554.251 76.2039 559.528 73.2729C564.655 70.1466 569.932 67.2157 575.209 64.2848C596.468 53.1473 618.783 45.9177 641.55 42.2052C664.317 38.4927 687.235 38.1019 710.153 40.0559C755.838 43.9638 800.769 56.469 845.399 69.9512C889.877 83.4335 934.205 98.6742 979.438 107.858C1002.05 112.352 1024.97 115.087 1047.74 114.306C1070.66 113.524 1093.42 108.835 1114.99 98.4788C1093.58 108.835 1070.66 113.524 1047.74 114.306C1024.82 115.087 1001.9 112.352 979.287 107.858C934.055 98.8696 889.727 83.6289 845.097 70.1466C800.618 56.6644 755.687 44.1592 710.002 40.2513C687.235 38.2973 664.166 38.6881 641.55 42.4006C618.934 46.1131 596.468 53.3427 575.36 64.4802C570.082 67.2157 564.805 70.342 559.679 73.4683C554.402 76.5947 549.275 79.5256 543.998 82.4565C533.595 88.3183 523.04 94.1802 512.335 99.6512C491.076 110.593 469.515 120.754 447.502 128.96C425.489 137.362 403.174 143.81 380.407 147.914C357.79 152.017 334.722 153.385 311.955 151.431C289.188 149.477 266.42 144.006 244.709 134.822C222.696 126.029 202.793 111.179 181.232 101.019C159.822 90.6631 137.658 82.2611 114.891 79.721C109.162 79.1348 103.432 78.9394 97.7026 79.3302C91.9731 79.5256 86.2437 80.5025 80.665 82.0657C75.0863 83.6289 69.6583 85.9736 64.532 89.2953C61.9688 90.8585 59.5564 92.8124 57.144 94.9617C54.8823 97.3065 52.6207 99.8466 50.8114 102.582Z" fill="#ED1C24"/>
<path d="M38.1462 85.5827C42.368 80.307 47.3436 76.2037 52.6207 72.6866C57.8978 69.3649 63.4765 66.6294 69.0552 64.6755C74.7847 62.7215 80.5142 61.3538 86.3944 60.5722C92.2747 59.7906 98.1549 59.5952 104.035 59.7906C115.796 60.1814 127.556 62.5261 139.015 65.8478C150.474 69.1695 161.782 73.6636 172.789 79.1346C175.503 80.307 178.217 81.8702 180.931 83.2379L185.002 85.3873L189.073 87.732C191.787 89.2952 194.501 90.8583 197.064 92.4215L205.055 97.3063C215.609 103.95 225.862 111.57 236.567 117.823C257.826 130.719 280.292 140.293 303.36 146.546C314.819 149.672 326.429 151.821 338.19 153.385C349.95 154.752 361.56 155.534 373.32 155.338C385.081 155.143 396.841 154.362 408.451 152.798C420.061 151.235 431.821 149.281 443.28 146.35L447.653 145.373L452.025 144.201C454.89 143.419 457.755 142.638 460.619 141.856C466.349 140.098 472.078 138.339 477.657 136.385C488.965 132.477 500.273 127.983 511.431 123.098C522.588 118.214 533.595 112.742 544.451 107.076C555.307 101.214 566.012 95.157 576.717 88.5136C581.994 85.1919 587.271 81.8702 592.548 78.5485C597.825 75.0314 602.952 71.5143 608.229 68.1926L616.22 63.1123C617.577 62.3307 618.783 61.3538 620.14 60.5722L624.211 58.4228L632.353 54.1242L636.424 51.9748L640.645 50.2163C662.96 40.0558 686.18 33.9985 709.701 31.6538C733.222 29.1137 756.743 30.286 780.264 33.6077C803.634 36.9294 826.853 42.4005 849.922 48.6531C895.909 61.1584 941.443 76.9853 988.183 85.1919C1011.4 89.2952 1035.07 91.4445 1058.44 90.0767C1081.97 88.709 1105.34 83.6287 1127.65 74.2498C1105.34 83.8241 1081.81 88.9044 1058.44 90.2721C1034.92 91.8353 1011.4 89.6859 988.032 85.7781C941.292 77.5715 895.758 61.9399 849.771 49.4347C826.702 43.1821 803.634 37.9064 780.264 34.5847C756.893 31.263 733.372 30.286 709.851 32.8262C686.481 35.3663 663.262 41.4235 641.098 51.584L636.876 53.3426L632.805 55.4919L624.663 59.7906L620.592 61.9399C619.235 62.7215 617.878 63.5031 616.672 64.4801L608.681 69.5603C603.404 72.882 598.127 76.3991 593 79.9162C587.723 83.2379 582.446 86.755 577.169 89.8813C566.615 96.5247 555.759 102.582 544.903 108.248C533.896 113.915 523.04 119.386 511.883 124.271C500.726 129.156 489.418 133.65 478.109 137.362C472.38 139.316 466.65 141.075 460.921 142.833C458.056 143.615 455.191 144.396 452.327 145.178L447.954 146.35L443.582 147.327C431.972 150.258 420.362 152.212 408.602 153.775C396.841 155.338 385.081 155.925 373.32 156.12C361.56 156.12 349.799 155.534 338.039 153.971C326.278 152.408 314.669 150.258 303.21 147.132C280.141 140.879 257.675 131.305 236.416 118.214C225.711 111.766 215.458 104.341 204.904 97.5017L196.913 92.6169C194.199 91.0537 191.485 89.4906 188.922 87.9274L184.851 85.5827L180.78 83.4333C178.066 82.0656 175.352 80.5024 172.638 79.1346C161.631 73.6636 150.474 69.1695 139.015 65.8478C127.556 62.5261 115.946 60.1814 104.186 59.5952C98.3057 59.3998 92.4254 59.5952 86.5452 60.3768C80.665 61.1584 74.9355 62.3307 69.206 64.2847C63.4765 66.2386 57.8978 68.7787 52.7715 72.2958C47.4943 76.2037 42.368 80.307 38.1462 85.5827Z" fill="#ED1C24"/>
<path d="M25.4811 68.3881C30.0043 63.1124 35.2815 59.2046 40.7094 55.6875C46.1373 52.1704 51.716 49.2394 57.5963 47.0901C63.3257 44.9408 69.3568 43.1822 75.3878 42.0098C78.4033 41.6191 81.4188 40.8375 84.4343 40.6421L88.9576 40.2513L93.4809 40.0559C105.543 39.6651 117.756 41.2283 129.667 44.1592C141.578 47.0901 153.339 51.3888 164.647 56.6644C176.106 61.9401 187.263 67.9973 198.119 75.2269C203.547 78.5486 208.824 82.4565 214.252 86.169C219.529 90.0769 224.806 93.9848 229.933 97.8927L237.773 103.755C240.336 105.708 243.05 107.467 245.764 109.421C251.041 113.133 256.62 116.455 262.048 119.972C264.762 121.535 267.627 123.099 270.341 124.662L274.562 127.006L278.784 129.156L287.227 133.454L295.822 137.362C341.657 157.488 390.509 164.913 438.757 160.224C487.005 155.534 534.349 139.512 578.827 114.892C601.142 102.778 622.703 88.5137 643.51 72.6868C664.468 57.0552 686.933 44.1592 710.304 35.5618C733.674 26.9645 757.798 22.4704 782.073 21.8842C783.581 21.6888 785.088 21.8842 786.596 21.8842H791.119C794.135 21.8842 797.15 21.8842 800.166 22.0796L809.212 22.6658L813.736 23.0566L818.259 23.6428L827.305 24.8151C830.321 25.2059 833.336 25.7921 836.352 26.1829C842.383 27.1599 848.414 28.3322 854.294 29.5046C902.09 39.6651 948.981 56.2736 997.079 63.1124C1021.05 66.8249 1045.33 68.1927 1069.45 66.0434C1093.58 64.0894 1117.55 58.6184 1140.92 50.021C1117.7 58.8138 1093.73 64.4802 1069.6 66.4342C1045.48 68.5835 1021.2 67.4111 997.079 63.894C948.831 57.0552 901.939 40.4467 854.143 30.4816C848.112 29.3092 842.232 27.9414 836.201 27.1599C833.186 26.7691 830.17 26.1829 827.155 25.7921L818.108 24.6197L813.585 24.0335L809.062 23.6428L800.015 23.0566C797 22.8612 793.984 22.8612 790.969 22.8612H786.445C784.938 22.8612 783.43 22.8612 781.922 22.8612C757.798 23.4474 733.674 27.9414 710.454 36.5388C687.235 45.1362 665.071 57.8368 644.113 73.6638C623.155 89.4907 601.594 103.755 579.28 116.064C534.65 140.489 487.156 156.511 438.757 161.201C390.358 165.89 341.205 158.27 295.369 137.949L286.775 134.041L278.332 129.742L274.11 127.593L269.888 125.248C267.174 123.685 264.31 122.122 261.596 120.558C256.168 117.041 250.589 113.915 245.312 110.007C242.598 108.053 239.884 106.295 237.321 104.341L229.48 98.4789C224.203 94.571 219.077 90.4677 213.8 86.7552C208.523 83.0427 203.245 79.1348 197.818 75.8131C186.962 68.7789 175.955 62.5263 164.496 57.2506C153.188 51.975 141.578 47.4809 129.667 44.55C117.756 41.619 105.694 39.8605 93.6316 40.2513L89.1084 40.4467L84.5851 40.8375C81.5696 41.0329 78.5541 41.6191 75.5386 42.0098C69.5075 43.1822 63.6273 44.7454 57.8978 46.8947C52.1684 49.044 46.4389 51.975 41.011 55.2967C35.2815 59.4 30.0043 63.3078 25.4811 68.3881Z" fill="#ED1C24"/>
<path d="M12.6652 51.3884C15.0776 48.8483 17.6408 46.5035 20.3547 44.5496C21.7117 43.3772 23.0687 42.5956 24.4257 41.4233C25.7826 40.4463 27.1396 39.4693 28.6474 38.6878C34.2261 35.1707 40.1063 32.0443 45.9866 29.5042C51.8668 26.9641 58.0486 25.0101 64.0796 23.447C70.2614 22.0792 76.4432 20.9069 82.625 20.5161C107.654 18.3667 132.683 23.8378 156.354 33.9983C162.385 36.343 168.115 39.4693 173.995 42.4003C179.724 45.722 185.454 48.6529 191.033 52.3654C196.762 55.6871 202.19 59.7904 207.618 63.5029C210.332 65.4568 213.046 67.6061 215.76 69.5601C218.474 71.7094 221.188 73.6634 223.751 75.8127L239.432 88.9041C241.995 91.0535 244.709 93.2028 247.272 95.3522L255.263 101.605C257.977 103.754 260.691 105.708 263.405 107.662C266.119 109.616 268.833 111.57 271.547 113.524C277.126 117.041 282.553 120.949 288.283 124.075C310.899 137.753 334.42 148.304 358.695 155.924C370.757 159.442 382.97 162.763 395.334 164.913L400.008 165.694C401.515 165.89 403.023 166.085 404.682 166.28L414.03 167.453C417.196 167.844 420.211 168.039 423.378 168.234L428.052 168.625C429.56 168.821 431.218 168.821 432.726 168.821L442.074 169.211C445.24 169.211 448.256 169.211 451.422 169.211C457.604 169.211 463.786 168.625 470.118 168.43C473.284 168.234 476.3 167.844 479.466 167.453C482.633 167.062 485.648 166.867 488.814 166.28C494.996 165.303 501.178 164.522 507.36 162.959C510.375 162.372 513.542 161.786 516.557 161.005L525.754 158.66L530.278 157.488L534.801 156.12L543.847 153.384C546.863 152.407 549.879 151.235 552.894 150.258C555.91 149.086 558.925 148.304 561.79 146.936C567.67 144.396 573.701 142.247 579.581 139.316C603.102 128.765 625.869 115.478 647.732 100.237C653.16 96.3291 658.588 92.4212 664.016 88.318L679.998 75.8127L696.131 63.3075C701.71 59.3996 707.137 55.4917 712.716 51.7792C735.031 37.1246 758.703 25.7917 783.128 18.9529C784.636 18.5621 786.144 17.9759 787.652 17.5851L792.326 16.6082C795.341 16.022 798.507 15.2404 801.523 14.6542C807.705 13.8727 813.886 12.7003 820.219 12.5049C832.733 11.5279 845.248 11.9187 857.762 13.0911C882.188 15.6312 906.764 21.493 931.341 27.3549C955.917 33.0213 980.493 38.6878 1005.22 41.6187C1029.95 44.5496 1054.98 45.3312 1079.85 42.5956C1104.73 40.0555 1129.31 34.3891 1153.58 26.5733C1129.46 34.7799 1104.88 40.4463 1080.01 43.3772C1055.13 46.3081 1030.1 45.9174 1005.22 43.1818C980.343 40.4463 955.766 34.7799 931.19 29.1134C906.613 23.447 882.037 17.5852 857.159 15.2404C844.795 14.2634 832.281 13.6773 819.917 14.8496C813.736 15.045 807.554 16.2174 801.372 16.999C798.357 17.5851 795.19 18.3667 792.175 18.9529L787.652 19.9299C786.144 20.3207 784.636 20.7115 783.128 21.2976C758.853 28.1365 735.332 39.4693 713.168 54.1239C707.741 57.8364 702.162 61.7443 696.734 65.6522L680.752 78.1574L664.769 90.8581C659.342 94.9614 653.914 98.8693 648.486 102.777C626.472 118.213 603.705 131.5 580.034 142.247C574.153 144.982 568.122 147.327 562.242 149.672C559.227 151.04 556.211 151.821 553.196 152.994C550.18 153.971 547.165 155.143 544.149 156.12L534.952 158.855L530.428 160.223L525.754 161.396L516.557 163.74C513.542 164.522 510.375 165.108 507.36 165.694C501.178 167.062 494.996 167.844 488.814 168.821C485.648 169.407 482.633 169.602 479.466 169.993C476.3 170.384 473.284 170.774 470.118 170.97C463.936 171.361 457.604 171.751 451.422 171.751C448.256 171.751 445.24 171.751 442.074 171.751L432.726 171.361C431.218 171.361 429.56 171.361 428.052 171.165L423.378 170.774C420.211 170.579 417.196 170.188 414.03 169.993L404.682 168.625C403.174 168.43 401.515 168.234 400.008 168.039L395.334 167.257C382.97 165.108 370.757 161.786 358.544 158.269C334.269 150.453 310.598 139.902 287.981 126.029C282.252 122.707 276.824 118.995 271.245 115.282C268.531 113.524 265.817 111.375 262.953 109.421C260.239 107.467 257.525 105.513 254.811 103.363L246.82 97.1107C244.106 94.9614 241.542 92.812 238.979 90.4673L223.148 77.3759C220.585 75.2265 217.871 73.2726 215.157 71.1233C212.443 69.1693 209.88 66.8246 207.015 65.066C201.587 61.1581 196.159 57.2502 190.43 53.9285C184.851 50.216 179.121 47.0897 173.392 43.9634C167.662 41.0325 161.782 38.1016 155.902 35.5614C132.381 25.2055 107.352 19.5391 82.4743 21.493C76.2925 21.8838 70.1106 22.8608 63.9289 24.2286C57.7471 25.7917 51.716 27.5503 45.8358 30.0904C39.9555 32.6305 34.0753 35.5614 28.4966 39.0785C27.1396 39.8601 25.7826 40.8371 24.2749 41.8141C22.9179 42.791 21.5609 43.768 20.2039 44.745C17.7915 46.6989 15.0776 48.8483 12.6652 51.3884Z" fill="#ED1C24"/>
<path d="M0 34.3893C5.12637 29.309 10.7051 25.2057 16.4345 21.4932C22.164 17.7807 28.195 14.6544 34.2261 11.9189C46.4389 6.44785 59.104 2.93075 71.9199 1.36759C97.5518 -1.95411 123.636 1.95378 148.363 11.3327C173.09 20.7117 196.611 35.3662 218.474 52.9517L222.545 56.2734L226.616 59.7906C229.33 62.1353 232.044 64.48 234.607 66.8248L250.287 81.2839C260.842 90.8583 271.698 99.651 282.704 108.053C327.183 141.075 376.185 164.131 426.996 173.706C452.327 178.395 478.109 179.958 503.59 177.809C529.222 175.855 554.553 170.384 579.28 161.786C604.007 153.189 628.131 141.661 651.35 127.397C674.57 113.133 696.583 96.3293 717.842 77.5714C739.253 59.009 761.417 41.8143 785.088 28.1366C796.849 21.2978 809.062 15.436 821.425 10.9419C833.94 6.44785 846.605 3.32154 859.571 1.95378C885.354 -1.17253 911.288 2.73536 936.618 7.62022C949.283 9.96495 962.099 12.7005 974.764 14.8498C987.429 16.9992 1000.25 18.7577 1013.06 19.9301C1038.69 22.2748 1064.48 21.884 1089.96 18.7577C1115.59 15.6314 1140.92 9.96495 1165.95 2.73536C1140.92 10.3557 1115.59 16.413 1089.96 19.7347C1064.32 23.2518 1038.54 24.0334 1012.76 21.884C986.977 19.9301 961.496 14.8498 936.166 10.1603C910.835 5.47088 885.053 1.75838 859.571 4.8847C834.543 7.81561 809.665 17.3899 786.295 30.8722C762.924 44.5498 740.76 61.5491 719.501 80.1116C698.242 98.8694 675.927 116.064 652.707 130.523C629.488 144.983 605.213 156.706 580.184 165.304C555.306 173.901 529.675 179.372 503.892 181.326C478.109 183.28 452.176 181.717 426.695 177.027C375.582 167.258 326.128 144.201 281.649 110.398C270.491 101.996 259.636 93.0076 249.081 83.2379L233.401 68.5833C230.687 66.2386 228.123 63.8938 225.409 61.5491L221.339 58.032L217.268 54.7103C195.556 37.1248 172.336 22.2748 147.76 12.8959C123.485 3.51693 97.5518 -0.97714 72.0707 2.14917C59.2548 3.71233 46.5896 7.03403 34.3768 12.3097C28.3458 14.8498 22.3148 17.9761 16.5853 21.6886C10.8558 25.2057 5.12637 29.309 0 34.3893Z" fill="#ED1C24"/>
<path d="M12.6652 51.3889C15.0776 48.8488 17.6408 46.504 20.3547 44.5501C21.7117 43.3777 23.0687 42.5961 24.4257 41.4238C25.7826 40.4468 27.1396 39.4698 28.6474 38.6882C34.2261 35.1711 40.1063 32.0448 45.9866 29.5047C51.8668 26.9646 58.0486 25.0106 64.0796 23.4475C70.2614 22.0797 76.4432 20.9073 82.625 20.5166C107.654 18.3672 132.683 23.8383 156.354 33.9988C162.385 36.3435 168.115 39.4698 173.995 42.4007C179.725 45.7225 185.454 48.6534 191.033 52.3659C196.762 55.6876 202.19 59.7909 207.618 63.5033C210.332 65.4573 213.046 67.6066 215.76 69.5606C218.474 71.7099 221.188 73.6639 223.751 75.8132L239.432 88.9046C241.995 91.054 244.709 93.2033 247.272 95.3527L255.263 101.605C257.977 103.755 260.691 105.709 263.405 107.663C266.119 109.616 268.833 111.57 271.547 113.524C277.126 117.041 282.553 120.949 288.283 124.076C310.899 137.753 334.42 148.305 358.695 155.925C370.757 159.442 382.97 162.764 395.334 164.913L400.008 165.695C401.515 165.89 403.023 166.085 404.682 166.281L414.03 167.453C417.196 167.844 420.212 168.039 423.378 168.235L428.052 168.626C429.56 168.821 431.218 168.821 432.726 168.821L442.074 169.212C445.24 169.212 448.256 169.212 451.422 169.212C457.604 169.212 463.786 168.626 470.118 168.43C473.285 168.235 476.3 167.844 479.466 167.453C482.633 167.062 485.648 166.867 488.814 166.281C494.996 165.304 501.178 164.522 507.36 162.959C510.375 162.373 513.542 161.787 516.557 161.005L525.754 158.66L530.278 157.488L534.801 156.12L543.848 153.385C546.863 152.408 549.879 151.235 552.894 150.259C555.91 149.086 558.925 148.305 561.79 146.937C567.67 144.397 573.701 142.247 579.581 139.316C603.102 128.765 625.869 115.478 647.732 100.238C653.16 96.3296 658.588 92.4217 664.016 88.3185L679.998 75.8132L696.131 63.308C701.71 59.4001 707.138 55.4922 712.716 51.7797C735.031 37.1251 758.703 25.7922 783.128 18.9534C784.636 18.5626 786.144 17.9764 787.652 17.5856L792.326 16.6087C795.341 16.0225 798.507 15.2409 801.523 14.6547C807.705 13.8731 813.887 12.7008 820.219 12.5054C832.733 11.5284 845.248 11.9192 857.762 13.0916C882.188 15.6317 906.764 21.4935 931.341 27.3554C955.917 33.0218 980.494 38.6882 1005.22 41.6192C1029.95 44.5501 1054.98 45.3317 1079.85 42.5961C1104.73 40.056 1129.31 34.3896 1153.58 26.5738C1129.46 34.7804 1104.88 40.4468 1080.01 43.3777C1055.13 46.3086 1030.1 45.9178 1005.22 43.1823C980.343 40.4468 955.766 34.7804 931.19 29.1139C906.613 23.4475 882.037 17.5856 857.159 15.2409C844.796 14.2639 832.281 13.6777 819.918 14.8501C813.736 15.0455 807.554 16.2179 801.372 16.9995C798.357 17.5856 795.19 18.3672 792.175 18.9534L787.652 19.9304C786.144 20.3212 784.636 20.7119 783.128 21.2981C758.854 28.1369 735.333 39.4698 713.169 54.1244C707.741 57.8369 702.162 61.7448 696.734 65.6527L680.752 78.1579L664.77 90.8586C659.342 94.9619 653.914 98.8698 648.486 102.778C626.473 118.214 603.705 131.501 580.034 142.247C574.153 144.983 568.122 147.328 562.242 149.672C559.227 151.04 556.211 151.822 553.196 152.994C550.18 153.971 547.165 155.143 544.149 156.12L534.952 158.856L530.428 160.224L525.754 161.396L516.557 163.741C513.542 164.522 510.375 165.109 507.36 165.695C501.178 167.062 494.996 167.844 488.814 168.821C485.648 169.407 482.633 169.603 479.466 169.993C476.3 170.384 473.285 170.775 470.118 170.97C463.936 171.361 457.604 171.752 451.422 171.752C448.256 171.752 445.24 171.752 442.074 171.752L432.726 171.361C431.218 171.361 429.56 171.361 428.052 171.166L423.378 170.775C420.212 170.58 417.196 170.189 414.03 169.993L404.682 168.626C403.174 168.43 401.515 168.235 400.008 168.039L395.334 167.258C382.97 165.108 370.757 161.787 358.544 158.27C334.269 150.454 310.598 139.903 287.981 126.03C282.252 122.708 276.824 118.995 271.245 115.283C268.531 113.524 265.817 111.375 262.953 109.421C260.239 107.467 257.525 105.513 254.811 103.364L246.82 97.1112C244.106 94.9619 241.542 92.8125 238.979 90.4678L223.148 77.3764C220.585 75.227 217.871 73.2731 215.157 71.1237C212.443 69.1698 209.88 66.8251 207.015 65.0665C201.587 61.1586 196.159 57.2507 190.43 53.929C184.851 50.2165 179.121 47.0902 173.392 43.9639C167.662 41.033 161.782 38.1021 155.902 35.5619C132.381 25.206 107.352 19.5396 82.4743 21.4935C76.2925 21.8843 70.1107 22.8613 63.9289 24.2291C57.7471 25.7922 51.716 27.5508 45.8358 30.0909C39.9555 32.631 34.0753 35.5619 28.4966 39.079C27.1396 39.8606 25.7826 40.8376 24.2749 41.8146C22.9179 42.7915 21.5609 43.7685 20.2039 44.7455C17.7915 46.6994 15.0776 48.8488 12.6652 51.3889Z" fill="#ED1C24"/>
<path d="M561.441 137.973C569.697 137.973 576.353 134.965 580.705 129.525L572.641 122.229C569.825 125.621 566.369 127.477 562.081 127.477C554.721 127.477 549.601 122.357 549.601 114.677C549.601 106.997 554.721 101.877 562.081 101.877C566.369 101.877 569.825 103.733 572.641 107.125L580.705 99.8287C576.353 94.3887 569.697 91.3807 561.441 91.3807C547.233 91.3807 536.801 101.045 536.801 114.677C536.801 128.309 547.233 137.973 561.441 137.973ZM608.01 137.973C622.346 137.973 632.906 128.117 632.906 114.677C632.906 101.237 622.346 91.3807 608.01 91.3807C593.674 91.3807 583.114 101.237 583.114 114.677C583.114 128.117 593.674 137.973 608.01 137.973ZM608.01 127.477C601.226 127.477 595.914 122.421 595.914 114.677C595.914 106.933 601.226 101.877 608.01 101.877C614.794 101.877 620.106 106.933 620.106 114.677C620.106 122.421 614.794 127.477 608.01 127.477ZM639.543 137.077H660.727C675.575 137.077 685.751 128.437 685.751 114.677C685.751 100.917 675.575 92.2767 660.727 92.2767H639.543V137.077ZM652.215 126.965V102.389H660.215C667.831 102.389 672.951 106.933 672.951 114.677C672.951 122.421 667.831 126.965 660.215 126.965H652.215ZM704.962 127.285V119.093H724.866V109.621H704.962V102.069H727.554V92.2767H692.418V137.077H728.386V127.285H704.962Z" fill="white"/>
</g>
<path d="M549.884 208.071H583.932V198.023H562.556V163.271H549.884V208.071ZM588.946 208.071H601.618V163.271H588.946V208.071ZM640.714 208.071H655.434L636.17 183.111L654.474 163.271H640.522L623.178 181.895V163.271H610.634V208.071H623.178V196.871L627.914 191.815L640.714 208.071ZM671.303 198.279V190.087H691.207V180.615H671.303V173.063H693.895V163.271H658.759V208.071H694.727V198.279H671.303ZM772.48 208.071L772.352 163.271H761.92L746.56 189.127L730.816 163.271H720.384V208.071H732.096V184.967L743.552 203.655H749.184L760.704 184.327L760.832 208.071H772.48ZM802.118 208.967C815.366 208.967 823.174 201.479 823.174 188.103V163.271H810.694V187.719C810.694 195.399 807.494 198.471 802.246 198.471C796.934 198.471 793.734 195.399 793.734 187.719V163.271H781.062V188.103C781.062 201.479 788.87 208.967 802.118 208.967ZM847.503 208.967C860.815 208.967 867.343 202.311 867.343 194.503C867.343 177.991 841.935 183.111 841.935 176.263C841.935 174.023 843.855 172.231 849.167 172.231C853.071 172.231 857.295 173.383 861.583 175.687L865.487 166.279C861.071 163.719 855.055 162.375 849.231 162.375C835.919 162.375 829.391 168.903 829.391 176.903C829.391 193.543 854.863 188.359 854.863 195.463C854.863 197.639 852.815 199.111 847.567 199.111C842.383 199.111 836.751 197.319 832.783 194.695L828.623 204.039C832.847 206.983 840.143 208.967 847.503 208.967ZM873.196 208.071H885.868V163.271H873.196V208.071ZM917.22 208.967C925.476 208.967 932.132 205.959 936.484 200.519L928.42 193.223C925.604 196.615 922.148 198.471 917.86 198.471C910.5 198.471 905.38 193.351 905.38 185.671C905.38 177.991 910.5 172.871 917.86 172.871C922.148 172.871 925.604 174.727 928.42 178.119L936.484 170.823C932.132 165.383 925.476 162.375 917.22 162.375C903.012 162.375 892.58 172.039 892.58 185.671C892.58 199.303 903.012 208.967 917.22 208.967Z" fill="white"/>
<defs>
<clipPath id="clip0">
<rect width="1166.4" height="182.108" fill="white"/>
</clipPath>
</defs>
</svg>
