<svg
width="65px"
height="56px"
viewBox="0 0 65 56"
version="1.1"
xmlns="http://www.w3.org/2000/svg"
xmlns:xlink="http://www.w3.org/1999/xlink"
>
<g
    stroke="none"
    stroke-width="1"
    fill="none"
    fill-rule="evenodd"
>
    <g
    transform="translate(-567.000000, -2338.000000)"
    fill="#FF0000"
    >
    <path
        d="M605,2361 L596.317483,2361 L595,2370 L603.682517,2370 L605,2361 Z M619.256667,2360.95977 L617.889132,2371.04023 L628.9049,2371.04023 L628.9049,2383.03932 L616.158664,2383.03932 L614.611114,2394 L600.044401,2394 L601.594854,2383.03932 L592.579577,2383.03932 L591.032028,2394 L576.465315,2394 L578.012865,2383.03932 L567,2383.03932 L567,2371.04023 L579.743333,2371.04023 L581.110868,2360.95977 L570.092196,2360.95977 L570.092196,2348.96068 L582.841336,2348.96068 L584.385983,2338 L598.952696,2338 L597.405146,2348.96068 L606.420423,2348.96068 L607.967972,2338 L622.534685,2338 L620.984232,2348.96068 L632,2348.96068 L632,2360.95977 L619.256667,2360.95977 Z"
    ></path>
    </g>
</g>
</svg>