<svg
width="56px"
height="74px"
viewBox="0 0 56 74"
version="1.1"
xmlns="http://www.w3.org/2000/svg"
xmlns:xlink="http://www.w3.org/1999/xlink"
>
<g
    stroke="none"
    stroke-width="1"
    fill="none"
    fill-rule="evenodd"
>
<g
transform="translate(-993.000000, -2362.000000)"
fill="#FF0000"
>
<path
    d="M1049,2362 L1049,2413 L1048.6713,2412.71672 C1046.59902,2425.8856 1034.97986,2436 1021,2436 C1005.56025,2436 993,2423.66285 993,2408.49924 C993,2393.33868 1005.56025,2381 1021,2381 C1026.40518,2381 1031.45746,2382.5122 1035.74148,2385.12827 L1035.74141,2372.06583 L1029,2372.06583 L1029,2362 L1049,2362 Z M1021,2394.07661 C1012.90133,2394.07661 1006.31318,2400.54693 1006.31318,2408.49924 C1006.31318,2416.45307 1012.90133,2422.92491 1021,2422.92491 C1029.09867,2422.92491 1035.68682,2416.45307 1035.68682,2408.49924 C1035.68682,2400.54693 1029.09867,2394.07661 1021,2394.07661 Z"
></path>
</g>
</g>
</svg>