<svg
width="61"
height="68"
viewBox="0 0 61 68"
fill="none"
xmlns="http://www.w3.org/2000/svg"
>
<path
    fill-rule="evenodd"
    clip-rule="evenodd"
    d="M41.0482 37.1971C41.9427 35.6955 43.3976 34.6277 45.4192 34C43.3976 33.3702 41.9427 32.3045 41.0482 30.8029C40.1558 29.3013 39.7096 27.122 39.7096 24.2627V17.3629C39.7096 15.7654 39.2867 14.5297 38.4408 13.658C37.5928 12.7862 36.3494 12.3504 34.7042 12.3504H34V0H39.2169C44.6198 0 48.7096 1.33158 51.4819 3.99474C54.2542 6.65791 55.6393 10.4848 55.6393 15.4734V24.6266C55.6393 25.6923 55.9121 26.4921 56.4514 27.0261C56.9927 27.5578 57.7328 27.8237 58.6718 27.8237H61V40.1741H58.6718C57.7328 40.1741 56.9927 40.44 56.4514 40.9739C55.9121 41.5079 55.6393 42.3055 55.6393 43.3712V52.5245C55.6393 57.513 54.2542 61.3399 51.4819 64.0053C48.7096 66.6662 44.6198 68 39.2169 68H34V55.6496H34.7042C36.3494 55.6496 37.5928 55.2138 38.4408 54.342C39.2867 53.4703 39.7096 52.2346 39.7096 50.6371V43.7351C39.7096 40.8758 40.1558 38.6965 41.0482 37.1971Z"
    fill="currentColor"
/>
<path
    fill-rule="evenodd"
    clip-rule="evenodd"
    d="M19.9518 37.1971C19.0573 35.6955 17.6024 34.6277 15.5808 34C17.6024 33.3702 19.0573 32.3045 19.9518 30.8029C20.8442 29.3013 21.2904 27.122 21.2904 24.2627V17.3629C21.2904 15.7654 21.7133 14.5297 22.5592 13.658C23.4072 12.7862 24.6506 12.3504 26.2958 12.3504H27V0H21.7831C16.3802 0 12.2904 1.33158 9.51809 3.99474C6.74577 6.65791 5.36067 10.4848 5.36067 15.4734V24.6266C5.36067 25.6923 5.08788 26.4921 4.54864 27.0261C4.00728 27.5578 3.26715 27.8237 2.32824 27.8237H0V40.1741H2.32824C3.26715 40.1741 4.00728 40.44 4.54864 40.9739C5.08788 41.5079 5.36067 42.3055 5.36067 43.3712V52.5245C5.36067 57.513 6.74577 61.3399 9.51809 64.0053C12.2904 66.6662 16.3802 68 21.7831 68H27V55.6496H26.2958C24.6506 55.6496 23.4072 55.2138 22.5592 54.342C21.7133 53.4703 21.2904 52.2346 21.2904 50.6371V43.7351C21.2904 40.8758 20.8442 38.6965 19.9518 37.1971Z"
    fill="currentColor"
/>
</svg>