<svg width="396" height="360" viewBox="0 0 396 360" fill="none" xmlns="http://www.w3.org/2000/svg">
<g clip-path="url(#clip0_6866_34160)">
<path d="M46.473 318.888C46.4777 320.308 47.043 321.667 48.0455 322.671C49.0481 323.674 50.4063 324.239 51.8235 324.242H341.149C342.566 324.239 343.924 323.674 344.927 322.671C345.929 321.667 346.495 320.308 346.499 318.888L348.907 152.358C348.907 149.414 345.443 143.665 339.095 144.097L56.3344 136.769C54.5084 136.721 52.6915 137.045 50.9942 137.722C49.297 138.398 47.7546 139.413 46.4608 140.705C45.167 141.996 44.1488 143.538 43.4678 145.235C42.7869 146.933 42.4575 148.752 42.4997 150.581L46.473 318.888Z" fill="#960020"/>
<path d="M51.7522 313.752C51.7562 315.096 52.2907 316.383 53.2391 317.333C54.1876 318.283 55.4728 318.818 56.814 318.822H334.169C335.51 318.818 336.795 318.283 337.743 317.333C338.692 316.383 339.227 315.096 339.23 313.752L341.502 162.575C341.234 153.477 333.271 150.207 328.444 150.4L57.4432 143.118C56.1594 143.085 54.8823 143.313 53.6892 143.789C52.4962 144.264 51.4121 144.978 50.5029 145.886C49.5937 146.795 48.8783 147.879 48.4001 149.072C47.922 150.266 47.6911 151.545 47.7214 152.83L51.7522 313.752Z" fill="#FF0000"/>
<rect x="179" y="169" width="59" height="11" rx="5.5" fill="#F5F8FA" fill-opacity="0.8"/>
<rect x="179" y="191" width="87" height="11" rx="5.5" fill="#F5F8FA" fill-opacity="0.8"/>
<path d="M232.854 221.646C233.049 221.842 233.049 222.158 232.854 222.354L229.672 225.536C229.476 225.731 229.16 225.731 228.964 225.536C228.769 225.34 228.769 225.024 228.964 224.828L231.793 222L228.964 219.172C228.769 218.976 228.769 218.66 228.964 218.464C229.16 218.269 229.476 218.269 229.672 218.464L232.854 221.646ZM232.5 222.5H230.458V221.5H232.5V222.5ZM226.375 222.5H222.292V221.5H226.375V222.5ZM218.208 222.5H214.125V221.5H218.208V222.5ZM210.042 222.5H205.958V221.5H210.042V222.5ZM201.875 222.5H197.792V221.5H201.875V222.5ZM193.708 222.5H189.625V221.5H193.708V222.5ZM185.542 222.5H181.458V221.5H185.542V222.5ZM177.375 222.5H173.292V221.5H177.375V222.5ZM169.208 222.5H165.125V221.5H169.208V222.5ZM161.042 222.5H159V221.5H161.042V222.5Z" fill="white"/>
<path d="M25.4013 338.066L361.706 338.066C363.031 338.066 364.105 336.99 364.105 335.663V325.838C364.105 324.511 363.031 323.434 361.706 323.434L25.4013 323.434C24.076 323.434 23.0015 324.511 23.0015 325.838V335.663C23.0015 336.99 24.076 338.066 25.4013 338.066Z" fill="#960020"/>
<path d="M156.966 98.0435C151.256 85.7543 145.896 73.3916 139.685 61.2803C123.841 69.3407 109.745 80.4596 98.2078 93.9973C86.6709 107.535 77.9207 123.224 72.4609 140.162C86.0471 142.439 99.8817 143.575 113.63 145.08C122.15 124.815 137.481 108.174 156.966 98.0435Z" fill="#EAEDF0"/>
<path d="M115.69 222.229C109.915 210.248 106.745 197.175 106.39 183.876C106.034 170.576 108.502 157.353 113.628 145.079C99.8797 143.574 86.0452 142.438 72.459 140.161C62.333 171.85 64.2446 206.168 77.8272 236.532C79.1553 236.055 80.4877 235.571 81.8188 235.06C93.3081 230.911 104.644 226.927 115.69 222.229Z" fill="#D1D5D9"/>
<path d="M256.656 303.552C250.762 291.213 245.252 278.764 239.643 266.367C227.407 272.078 214.084 275.078 200.584 275.161C187.085 275.244 173.726 272.409 161.42 266.849C155.207 278.869 149.316 291.034 142.199 302.651C160.039 311.217 179.544 315.738 199.327 315.894C219.11 316.05 238.684 311.835 256.656 303.552Z" fill="#D1D5D9"/>
<path d="M115.691 222.229C104.645 226.927 93.309 230.911 81.8197 235.06C80.4886 235.571 79.1562 236.055 77.8281 236.532C90.8611 265.463 113.652 288.872 142.201 302.65C149.317 291.033 155.209 278.868 161.422 266.848C141.448 257.773 125.272 241.989 115.691 222.229Z" fill="#EAEDF0"/>
<path d="M217.849 47.9203C191.046 44.4348 163.816 49.0888 139.684 61.2797C145.895 73.3911 151.255 85.7537 156.965 98.0429C174.85 88.7999 195.226 85.5527 215.092 88.7794C216.969 75.9709 218.179 63.0238 217.866 49.9756C217.836 49.2919 217.832 48.6073 217.849 47.9203Z" fill="#D1D5D9"/>
<path d="M217.846 47.9209C217.829 48.6078 217.833 49.2925 217.864 49.9761C218.176 63.0244 216.967 75.9715 215.09 88.78C234.168 91.8948 251.813 100.854 265.598 114.426C276.038 105.583 286.222 96.3976 296.429 87.2916C275.803 66.174 248.346 51.8913 217.846 47.9209Z" fill="#EAEDF0"/>
<path d="M333.163 160.91C328.93 133.119 316.079 107.365 296.429 87.291C286.222 96.397 276.038 105.582 265.598 114.426C279.781 128.333 289.169 146.407 292.396 166.023C306.032 164.539 319.561 162.869 333.163 160.91Z" fill="#D1D5D9"/>
<path d="M292.397 166.023C293.007 169.722 293.396 173.454 293.563 177.2C294.431 196.076 289.558 214.771 279.59 230.814C291.638 237.315 303.157 244.658 314.465 252.406C328.817 229.367 335.835 202.501 334.587 175.374C334.371 170.531 333.896 165.703 333.165 160.91C319.563 162.869 306.034 164.539 292.397 166.023Z" fill="#EAEDF0"/>
<path d="M239.645 266.367C245.254 278.764 250.763 291.213 256.657 303.552C280.488 292.506 300.579 274.73 314.464 252.407C303.157 244.659 291.637 237.316 279.589 230.814C269.989 246.287 256.113 258.637 239.645 266.367Z" fill="#DFDFDF"/>
<path d="M169.182 260.658L128.436 262.472C127.998 262.491 127.571 262.613 127.187 262.826C126.804 263.039 126.475 263.339 126.227 263.701C125.979 264.064 125.818 264.479 125.758 264.914C125.697 265.349 125.738 265.792 125.878 266.209L139.526 306.879C139.696 307.386 140.006 307.835 140.42 308.173C140.834 308.511 141.335 308.725 141.865 308.79C142.395 308.856 142.933 308.769 143.416 308.541C143.9 308.313 144.309 307.953 144.596 307.502L171.695 265.018C171.974 264.581 172.127 264.075 172.139 263.556C172.151 263.036 172.02 262.524 171.761 262.074C171.502 261.624 171.124 261.254 170.669 261.005C170.215 260.755 169.7 260.635 169.182 260.658Z" fill="#D1D5D9"/>
<path d="M213.444 96.1778L248.625 75.5103C249.003 75.288 249.325 74.9807 249.565 74.6126C249.804 74.2445 249.955 73.8257 250.006 73.3892C250.056 72.9528 250.004 72.5105 249.855 72.0974C249.705 71.6843 249.462 71.3117 249.144 71.0088L218.108 41.4347C217.721 41.0659 217.238 40.8143 216.714 40.7089C216.191 40.6035 215.648 40.6486 215.149 40.8391C214.649 41.0295 214.214 41.3575 213.893 41.7852C213.572 42.2128 213.378 42.7227 213.335 43.2559L209.189 93.4978C209.147 94.0154 209.247 94.5349 209.478 94.9995C209.71 95.464 210.065 95.856 210.504 96.1325C210.943 96.4089 211.449 96.5594 211.968 96.5674C212.486 96.5754 212.997 96.4407 213.444 96.1778Z" fill="#D1D5D9"/>
<path d="M287.274 171.07L315.053 200.981C315.352 201.303 315.721 201.55 316.132 201.705C316.543 201.859 316.984 201.916 317.42 201.87C317.856 201.825 318.276 201.678 318.646 201.442C319.016 201.207 319.327 200.888 319.553 200.511L341.64 163.749C341.916 163.29 342.056 162.763 342.045 162.228C342.034 161.693 341.872 161.172 341.578 160.726C341.285 160.279 340.87 159.925 340.384 159.704C339.897 159.483 339.358 159.404 338.829 159.476L288.962 166.329C288.449 166.399 287.964 166.61 287.562 166.937C287.159 167.265 286.854 167.697 286.68 168.186C286.506 168.675 286.469 169.203 286.574 169.711C286.679 170.22 286.921 170.69 287.274 171.07Z" fill="#D1D5D9"/>
<path d="M117.673 150.723L102.688 112.73C102.527 112.321 102.273 111.956 101.947 111.662C101.621 111.368 101.231 111.155 100.808 111.038C100.385 110.921 99.9409 110.904 99.5104 110.988C99.0799 111.073 98.6749 111.256 98.3273 111.524L64.3817 137.696C63.9584 138.022 63.6359 138.462 63.4515 138.964C63.267 139.466 63.2282 140.011 63.3394 140.534C63.4506 141.057 63.7073 141.538 64.0799 141.922C64.4525 142.305 64.9258 142.575 65.4451 142.701L114.375 154.523C114.879 154.644 115.407 154.625 115.901 154.467C116.395 154.309 116.836 154.018 117.177 153.626C117.517 153.234 117.743 152.756 117.831 152.244C117.918 151.733 117.864 151.206 117.673 150.723Z" fill="#D1D5D9"/>
<path d="M351.032 117.745C351.032 130.517 339.07 140.872 326.317 140.872C323.279 140.88 320.27 140.289 317.461 139.13C314.651 137.972 312.098 136.27 309.947 134.121C307.796 131.973 306.089 129.42 304.924 126.61C303.76 123.8 303.16 120.787 303.16 117.744C303.16 114.702 303.76 111.689 304.924 108.879C306.089 106.068 307.796 103.516 309.947 101.367C312.098 99.219 314.651 97.5169 317.461 96.3586C320.27 95.2002 323.279 94.6085 326.317 94.6173C339.07 94.6173 351.032 104.972 351.032 117.745Z" fill="#FF0000"/>
<path opacity="0.65" d="M345.981 117.744C345.979 120.829 345.226 123.867 343.789 126.595C342.351 129.323 340.272 131.659 337.73 133.402C335.189 135.144 332.262 136.24 329.202 136.595C326.143 136.95 323.043 136.554 320.171 135.44C317.215 134.288 314.594 132.411 312.551 129.98C310.508 127.55 309.107 124.644 308.477 121.53C307.971 119.032 307.971 116.457 308.477 113.958C309.413 109.35 312.025 105.254 315.806 102.465C319.587 99.6758 324.267 98.3926 328.939 98.8642C333.61 99.3358 337.941 101.529 341.09 105.017C344.239 108.506 345.982 113.041 345.981 117.744ZM343.455 117.744C343.451 116.696 343.341 115.651 343.126 114.625C342.907 113.598 342.582 112.596 342.155 111.637C341.287 109.699 340.034 107.959 338.47 106.525C336.889 105.08 335.042 103.958 333.033 103.22C331.021 102.487 328.888 102.143 326.748 102.206C322.531 102.313 318.513 104.023 315.509 106.989C314.079 108.411 312.938 110.099 312.151 111.958C311.381 113.79 310.985 115.757 310.985 117.744C310.985 119.731 311.381 121.698 312.151 123.529C312.938 125.389 314.079 127.077 315.51 128.499C318.514 131.465 322.532 133.176 326.748 133.282C328.889 133.345 331.021 133.001 333.034 132.268C335.043 131.53 336.89 130.408 338.471 128.963C340.034 127.528 341.288 125.789 342.156 123.851C342.582 122.892 342.908 121.89 343.127 120.863C343.341 119.837 343.451 118.792 343.455 117.744Z" fill="white"/>
<g opacity="0.8">
<path opacity="0.8" d="M322.16 111.137C322.102 111.144 322.045 111.157 321.99 111.176C321.782 111.248 321.609 111.396 321.507 111.592C321.406 111.787 321.383 112.014 321.443 112.225C321.504 112.437 321.643 112.617 321.833 112.729C322.022 112.841 322.247 112.875 322.462 112.825C322.676 112.775 322.863 112.645 322.984 112.461C323.105 112.277 323.15 112.054 323.112 111.837C323.073 111.621 322.952 111.427 322.775 111.297C322.598 111.166 322.378 111.109 322.16 111.137Z" fill="white"/>
<path opacity="0.8" d="M326.67 109.271L325.948 108.349C325.938 108.336 325.924 108.326 325.908 108.321C325.892 108.317 325.874 108.317 325.859 108.323L324.938 108.642C324.577 108.353 324.172 108.125 323.738 107.966L323.532 107.011C323.529 106.995 323.52 106.98 323.508 106.969C323.496 106.958 323.48 106.95 323.464 106.948L322.302 106.808C322.286 106.806 322.269 106.809 322.254 106.817C322.24 106.825 322.228 106.838 322.221 106.853L321.794 107.732C321.335 107.782 320.888 107.908 320.469 108.102L319.65 107.573C319.636 107.564 319.619 107.559 319.603 107.56C319.586 107.561 319.57 107.567 319.557 107.577L318.637 108.301C318.623 108.311 318.614 108.325 318.609 108.341C318.604 108.357 318.605 108.374 318.61 108.39L318.929 109.313C318.641 109.674 318.413 110.08 318.254 110.515L317.301 110.72C317.285 110.724 317.27 110.732 317.259 110.745C317.247 110.757 317.24 110.772 317.238 110.789L317.098 111.952C317.096 111.969 317.099 111.986 317.107 112C317.115 112.015 317.128 112.027 317.143 112.034L318.02 112.461C318.071 112.921 318.196 113.369 318.391 113.789L317.862 114.609C317.853 114.623 317.848 114.639 317.849 114.656C317.85 114.673 317.856 114.689 317.866 114.702L318.588 115.624C318.598 115.637 318.612 115.646 318.628 115.651C318.644 115.656 318.661 115.656 318.677 115.65L319.598 115.331C319.959 115.62 320.364 115.848 320.798 116.006L321.003 116.961C321.007 116.978 321.015 116.993 321.028 117.004C321.04 117.015 321.056 117.022 321.072 117.024L322.234 117.164C322.25 117.166 322.267 117.163 322.282 117.155C322.296 117.147 322.308 117.135 322.315 117.12L322.741 116.241C323.201 116.19 323.648 116.065 324.067 115.87L324.886 116.4C324.9 116.409 324.917 116.413 324.933 116.412C324.95 116.412 324.966 116.406 324.979 116.395L325.899 115.672C325.913 115.662 325.922 115.647 325.927 115.631C325.932 115.615 325.931 115.598 325.926 115.582L325.607 114.66C325.895 114.299 326.123 113.893 326.281 113.458L327.235 113.252C327.251 113.249 327.266 113.24 327.277 113.228C327.289 113.216 327.296 113.2 327.298 113.184L327.438 112.02C327.44 112.004 327.436 111.987 327.428 111.972C327.42 111.957 327.408 111.946 327.393 111.938L326.516 111.512C326.465 111.052 326.34 110.603 326.145 110.184L326.674 109.364C326.683 109.35 326.688 109.333 326.687 109.317C326.686 109.3 326.68 109.284 326.67 109.271ZM324.863 110.915C324.82 110.936 324.769 110.939 324.723 110.923C324.677 110.907 324.64 110.874 324.618 110.83C324.536 110.661 324.436 110.501 324.32 110.353C323.96 109.894 323.459 109.568 322.894 109.424C322.329 109.281 321.733 109.328 321.199 109.56C320.664 109.791 320.221 110.193 319.938 110.703C319.655 111.214 319.549 111.803 319.636 112.38C319.723 112.957 319.998 113.489 320.419 113.893C320.839 114.296 321.381 114.55 321.96 114.613C322.539 114.676 323.123 114.545 323.62 114.241C324.117 113.937 324.5 113.477 324.708 112.932C324.726 112.887 324.76 112.85 324.805 112.83C324.849 112.811 324.9 112.809 324.945 112.827C324.99 112.844 325.027 112.879 325.047 112.923C325.067 112.968 325.068 113.018 325.051 113.064C324.813 113.685 324.377 114.209 323.811 114.556C323.244 114.903 322.579 115.052 321.919 114.98C321.259 114.908 320.641 114.62 320.162 114.16C319.682 113.699 319.369 113.093 319.27 112.435C319.171 111.778 319.292 111.106 319.614 110.525C319.936 109.943 320.441 109.485 321.051 109.221C321.66 108.957 322.34 108.903 322.983 109.067C323.627 109.231 324.198 109.603 324.608 110.126C324.617 110.138 324.626 110.149 324.635 110.161C324.735 110.292 324.824 110.431 324.901 110.577L324.917 110.608L324.923 110.62C324.931 110.636 324.94 110.652 324.948 110.669C324.951 110.676 324.954 110.683 324.956 110.69C324.971 110.732 324.969 110.779 324.952 110.82C324.935 110.862 324.903 110.895 324.862 110.915H324.863ZM323.235 112.735C323.088 112.926 322.886 113.07 322.657 113.147C322.428 113.224 322.181 113.231 321.948 113.168C321.715 113.104 321.506 112.973 321.347 112.79C321.188 112.608 321.087 112.382 321.056 112.142C321.026 111.902 321.067 111.658 321.174 111.441C321.282 111.224 321.451 111.044 321.661 110.924C321.871 110.804 322.112 110.748 322.353 110.765C322.594 110.782 322.825 110.87 323.016 111.018C323.144 111.116 323.251 111.238 323.331 111.377C323.411 111.517 323.463 111.671 323.483 111.831C323.503 111.99 323.492 112.153 323.449 112.308C323.406 112.463 323.333 112.608 323.234 112.735H323.235Z" fill="white"/>
</g>
<g opacity="0.84">
<path opacity="0.84" d="M331.027 120.393C330.936 120.375 330.844 120.365 330.751 120.365C330.4 120.365 330.062 120.5 329.808 120.743C329.554 120.985 329.402 121.315 329.385 121.666C329.367 122.017 329.484 122.362 329.713 122.628C329.941 122.895 330.263 123.063 330.612 123.099C330.962 123.135 331.311 123.035 331.588 122.819C331.866 122.604 332.05 122.291 332.103 121.944C332.157 121.596 332.075 121.242 331.874 120.953C331.674 120.665 331.371 120.464 331.027 120.393Z" fill="white"/>
<path opacity="0.84" d="M338.793 119.909L338.178 118.144C338.17 118.119 338.153 118.097 338.131 118.082C338.11 118.067 338.084 118.058 338.057 118.058L336.503 118.065C336.108 117.442 335.614 116.889 335.041 116.425L335.223 114.879C335.226 114.852 335.221 114.825 335.208 114.802C335.195 114.779 335.175 114.76 335.151 114.748L333.471 113.937C333.447 113.925 333.42 113.921 333.394 113.926C333.368 113.93 333.344 113.943 333.325 113.962L332.23 115.068C331.511 114.907 330.771 114.865 330.039 114.942L329.076 113.72C329.059 113.7 329.037 113.684 329.011 113.677C328.986 113.67 328.958 113.67 328.933 113.679L327.173 114.295C327.147 114.304 327.126 114.32 327.11 114.342C327.095 114.364 327.087 114.39 327.087 114.416L327.093 115.973C326.472 116.369 325.919 116.863 325.456 117.437L323.912 117.255C323.885 117.252 323.859 117.257 323.835 117.27C323.812 117.283 323.793 117.303 323.782 117.327L322.972 119.01C322.96 119.034 322.956 119.061 322.961 119.087C322.965 119.113 322.978 119.137 322.997 119.156L324.101 120.253C323.94 120.973 323.898 121.714 323.976 122.448L322.756 123.412C322.735 123.428 322.72 123.451 322.712 123.477C322.705 123.502 322.705 123.529 322.714 123.554L323.329 125.319C323.338 125.344 323.354 125.366 323.376 125.382C323.398 125.397 323.424 125.405 323.45 125.405L325.004 125.399C325.4 126.021 325.894 126.575 326.467 127.038L326.285 128.585C326.282 128.612 326.287 128.638 326.3 128.662C326.312 128.685 326.332 128.704 326.356 128.715L328.036 129.527C328.06 129.538 328.087 129.542 328.113 129.538C328.14 129.533 328.164 129.521 328.182 129.502L329.278 128.396C329.997 128.557 330.737 128.599 331.469 128.521L332.432 129.743C332.448 129.764 332.471 129.779 332.496 129.787C332.522 129.794 332.549 129.793 332.574 129.785L334.336 129.168C334.361 129.16 334.383 129.143 334.398 129.122C334.414 129.1 334.422 129.074 334.422 129.047L334.415 127.491C335.037 127.095 335.59 126.6 336.052 126.026L337.597 126.208C337.623 126.211 337.65 126.206 337.673 126.193C337.697 126.181 337.715 126.161 337.727 126.137L338.537 124.454C338.549 124.43 338.552 124.403 338.548 124.377C338.543 124.351 338.531 124.326 338.512 124.308L337.408 123.211C337.568 122.491 337.611 121.75 337.533 121.016L338.753 120.052C338.774 120.035 338.789 120.013 338.796 119.987C338.803 119.961 338.802 119.934 338.793 119.909ZM335.221 121.456C335.144 121.466 335.067 121.444 335.006 121.397C334.945 121.349 334.905 121.279 334.895 121.202C334.858 120.904 334.789 120.611 334.691 120.328C334.384 119.45 333.796 118.698 333.018 118.19C332.24 117.681 331.316 117.445 330.39 117.518C329.464 117.591 328.588 117.969 327.899 118.592C327.21 119.216 326.746 120.051 326.58 120.966C326.414 121.881 326.555 122.826 326.981 123.653C327.407 124.479 328.095 125.141 328.936 125.536C329.777 125.93 330.725 126.034 331.632 125.833C332.538 125.631 333.353 125.134 333.948 124.42C333.973 124.391 334.003 124.366 334.037 124.348C334.071 124.331 334.108 124.32 334.146 124.316C334.185 124.313 334.223 124.317 334.26 124.328C334.296 124.34 334.33 124.358 334.36 124.383C334.389 124.407 334.414 124.437 334.432 124.471C334.449 124.506 334.46 124.543 334.464 124.581C334.467 124.619 334.463 124.658 334.452 124.695C334.44 124.731 334.422 124.765 334.397 124.795C333.719 125.609 332.791 126.175 331.758 126.406C330.724 126.636 329.644 126.517 328.685 126.068C327.726 125.619 326.943 124.865 326.457 123.922C325.971 122.98 325.81 121.904 325.999 120.861C326.188 119.817 326.717 118.866 327.502 118.155C328.288 117.445 329.286 117.014 330.342 116.931C331.397 116.849 332.45 117.118 333.336 117.697C334.223 118.277 334.893 119.134 335.242 120.135C335.25 120.157 335.257 120.179 335.265 120.201C335.348 120.451 335.41 120.706 335.452 120.966V120.967C335.455 120.987 335.458 121.004 335.46 121.023L335.463 121.043C335.467 121.072 335.471 121.1 335.475 121.13C335.48 121.168 335.477 121.207 335.467 121.244C335.456 121.281 335.439 121.315 335.416 121.346C335.392 121.376 335.363 121.401 335.329 121.42C335.296 121.439 335.259 121.451 335.221 121.456L335.221 121.456ZM331.827 123.361C331.505 123.574 331.128 123.686 330.743 123.684C330.357 123.681 329.981 123.565 329.662 123.348C329.343 123.132 329.095 122.826 328.95 122.469C328.804 122.111 328.768 121.719 328.845 121.341C328.922 120.962 329.11 120.616 329.384 120.344C329.658 120.073 330.006 119.889 330.384 119.816C330.763 119.743 331.154 119.783 331.51 119.933C331.865 120.083 332.168 120.334 332.38 120.656C332.523 120.87 332.622 121.11 332.671 121.362C332.721 121.614 332.719 121.873 332.668 122.125C332.616 122.376 332.516 122.615 332.371 122.827C332.227 123.04 332.042 123.221 331.827 123.361H331.827Z" fill="white"/>
</g>
<path d="M205.523 40.3233C205.523 53.9294 192.781 64.9592 179.197 64.9592C175.961 64.9683 172.755 64.3377 169.763 63.1037C166.771 61.8697 164.051 60.0565 161.76 57.7679C159.469 55.4794 157.651 52.7605 156.41 49.7671C155.17 46.7736 154.531 43.5644 154.531 40.3234C154.531 37.0824 155.17 33.8732 156.41 30.8798C157.651 27.8863 159.469 25.1675 161.76 22.8789C164.051 20.5904 166.771 18.7771 169.763 17.5431C172.755 16.3091 175.961 15.6786 179.197 15.6876C192.781 15.6876 205.523 26.7174 205.523 40.3233Z" fill="#FF0000"/>
<path opacity="0.65" d="M200.143 40.3235C200.141 43.6094 199.34 46.8453 197.808 49.7514C196.277 52.6574 194.062 55.1461 191.355 57.0023C188.647 58.8584 185.529 60.0261 182.271 60.4044C179.012 60.7826 175.71 60.3601 172.65 59.1733C169.501 57.9468 166.709 55.9472 164.533 53.3581C162.356 50.7691 160.864 47.6736 160.194 44.3562C159.654 41.695 159.654 38.9522 160.194 36.2909C161.192 31.3824 163.974 27.02 168.001 24.0497C172.028 21.0794 177.013 19.7129 181.989 20.2152C186.965 20.7175 191.578 23.0528 194.932 26.7682C198.286 30.4836 200.144 35.3143 200.143 40.3235ZM197.453 40.3235C197.449 39.2068 197.331 38.0934 197.102 37.0005C196.869 35.9064 196.523 34.8398 196.068 33.818C195.144 31.7538 193.808 29.9006 192.143 28.3723C190.459 26.8333 188.492 25.6376 186.351 24.8517C184.207 24.0711 181.936 23.7045 179.656 23.7713C175.112 23.8899 170.746 25.7836 167.685 28.8664C166.161 30.3819 164.946 32.1802 164.108 34.1608C163.287 36.1117 162.865 38.2071 162.865 40.3239C162.865 42.4406 163.287 44.5361 164.108 46.4869C164.946 48.4675 166.161 50.2658 167.685 51.7813C170.747 54.8641 175.113 56.7578 179.656 56.8762C181.936 56.9432 184.208 56.5766 186.351 55.7958C188.492 55.0099 190.459 53.8142 192.143 52.2752C193.808 50.7471 195.144 48.8939 196.068 46.8297C196.523 45.8079 196.869 44.7413 197.102 43.6473C197.331 42.5541 197.449 41.4404 197.453 40.3235Z" fill="white"/>
<path opacity="0.83" d="M185.647 32.6218C185.647 35.5675 183.263 38.7476 180.321 38.7476C177.38 38.7476 174.996 35.5675 174.996 32.6218C174.996 29.6761 177.38 27.5859 180.321 27.5859C183.263 27.5859 185.647 29.6759 185.647 32.6218Z" fill="white"/>
<path opacity="0.83" d="M173.716 50.0889H186.716C187.383 50.0889 188.033 49.8767 188.571 49.4829C189.11 49.089 189.51 48.5339 189.713 47.8977L190.413 45.7078C190.661 44.9355 190.602 44.097 190.249 43.3671C189.895 42.6373 189.273 42.0724 188.514 41.7903C183.223 39.8529 177.752 40.1013 172.148 41.9691C171.393 42.2275 170.764 42.7652 170.391 43.4723C170.017 44.1794 169.928 45.0026 170.14 45.7736L170.679 47.7625C170.86 48.4304 171.255 49.0202 171.804 49.4406C172.353 49.8611 173.025 50.0889 173.716 50.0889Z" fill="white"/>
<path d="M301.943 55.4483C301.943 68.7484 289.487 79.5304 276.208 79.5304C273.051 79.5304 269.924 78.9075 267.007 77.6973C264.09 76.487 261.439 74.7132 259.206 72.4769C256.974 70.2407 255.203 67.5859 253.994 64.6642C252.786 61.7424 252.164 58.6108 252.164 55.4483C252.164 52.2858 252.786 49.1543 253.994 46.2325C255.203 43.3107 256.974 40.6559 259.206 38.4197C261.439 36.1835 264.09 34.4096 267.007 33.1993C269.924 31.9891 273.051 31.3662 276.208 31.3662C289.487 31.3662 301.943 42.1482 301.943 55.4483Z" fill="#FF0000"/>
<path opacity="0.65" d="M296.686 55.4488C296.683 58.6609 295.9 61.824 294.403 64.6648C292.906 67.5055 290.741 69.9382 288.094 71.7526C285.448 73.567 282.4 74.7085 279.214 75.0783C276.029 75.448 272.801 75.035 269.811 73.8749C266.732 72.6759 264.003 70.7212 261.875 68.1903C259.748 65.6595 258.289 62.6336 257.634 59.3908C257.106 56.7893 257.106 54.1082 257.634 51.5067C258.609 46.7085 261.329 42.4441 265.265 39.5404C269.202 36.6368 274.075 35.301 278.939 35.792C283.804 36.283 288.312 38.5659 291.591 42.1979C294.87 45.8299 296.686 50.5521 296.686 55.4488ZM294.056 55.4488C294.051 54.3571 293.937 53.2688 293.713 52.2004C293.485 51.1309 293.146 50.0883 292.701 49.0895C291.798 47.0716 290.493 45.26 288.865 43.7661C287.218 42.2618 285.295 41.0929 283.203 40.3248C281.108 39.5616 278.887 39.2033 276.658 39.2688C272.217 39.3839 267.949 41.2356 264.956 44.2492C263.466 45.7303 262.278 47.4877 261.459 49.4233C260.657 51.3303 260.244 53.3786 260.244 55.4478C260.244 57.517 260.657 59.5654 261.459 61.4723C262.278 63.4083 263.466 65.166 264.956 66.6474C267.949 69.661 272.217 71.5122 276.658 71.628C278.887 71.6934 281.108 71.335 283.203 70.5718C285.295 69.8036 287.218 68.6348 288.865 67.1304C290.493 65.6365 291.798 63.825 292.701 61.8071C293.146 60.8083 293.485 59.7657 293.713 58.6962C293.937 57.6281 294.051 56.5401 294.056 55.4488Z" fill="white"/>
<path opacity="0.86" d="M270.523 64.3108C270.237 64.3108 269.996 64.3072 269.806 64.3036C269.649 64.2999 269.498 64.2398 269.381 64.1343C269.265 64.0287 269.19 63.8846 269.17 63.7284C269.151 63.5721 269.188 63.414 269.275 63.283C269.362 63.152 269.494 63.0567 269.645 63.0145H269.646C271.33 62.5044 272.969 61.8564 274.547 61.077C268.06 60.5472 266.764 57.21 266.514 55.6834C265.882 51.8337 269.219 47.4779 273.95 45.9732C278.779 44.4386 283.67 44.9916 286.413 47.3821C287.871 48.6528 289.452 51.0855 288.706 55.4638C287.312 63.6544 274.558 64.3108 270.523 64.3108ZM279.204 59.9207L277.149 61.0684C275.811 61.7999 274.436 62.4629 273.031 63.0552C278.04 62.7526 286.513 61.3354 287.546 55.2645C288.071 52.1828 287.43 49.8295 285.641 48.2707C282.867 45.8515 277.95 45.9384 274.307 47.0957C270.182 48.4076 267.145 52.252 267.677 55.491C268.159 58.4312 271.502 60.0757 276.851 59.9637L279.204 59.9207Z" fill="white"/>
<path d="M122.783 81.1731C122.783 94.4034 110.393 105.128 97.1832 105.128C90.8399 105.128 84.7563 102.605 80.2709 98.1121C75.7855 93.6196 73.2656 87.5264 73.2656 81.1731C73.2656 74.8197 75.7855 68.7266 80.2709 64.2341C84.7563 59.7416 90.8399 57.2178 97.1832 57.2178C110.393 57.2178 122.783 67.943 122.783 81.1731Z" fill="#FF0000"/>
<path opacity="0.65" d="M117.548 81.173C117.546 84.3682 116.767 87.5147 115.278 90.3405C113.789 93.1663 111.635 95.5862 109.002 97.3911C106.37 99.1959 103.338 100.331 100.169 100.699C97.0003 101.067 93.7896 100.656 90.8148 99.5023C87.7521 98.3096 85.0379 96.3652 82.9214 93.8476C80.8049 91.33 79.3541 88.3201 78.7022 85.0944C78.1774 82.5066 78.1774 79.8395 78.7022 77.2517C79.6723 72.4787 82.3777 68.2367 86.2936 65.3483C90.2095 62.46 95.0569 61.1312 99.8956 61.6196C104.734 62.108 109.219 64.3789 112.481 67.9918C115.743 71.6047 117.549 76.3022 117.548 81.173ZM114.932 81.173C114.928 80.0871 114.814 79.0045 114.591 77.9417C114.365 76.8779 114.028 75.8407 113.585 74.8472C112.687 72.8403 111.388 71.0386 109.769 69.5528C108.131 68.0563 106.218 66.8936 104.137 66.1294C102.053 65.3702 99.8434 65.0137 97.6265 65.0788C93.2082 65.1939 88.9631 67.0354 85.986 70.0331C84.5038 71.5068 83.3221 73.2553 82.5068 75.1812C81.7092 77.0781 81.2983 79.1156 81.2983 81.1739C81.2983 83.2322 81.7092 85.2697 82.5068 87.1667C83.3221 89.0925 84.5038 90.8409 85.986 92.3145C88.9631 95.3122 93.2082 97.1536 97.6265 97.2688C99.8434 97.3339 102.053 96.9774 104.137 96.2182C106.218 95.454 108.131 94.2912 109.769 92.7947C111.388 91.3089 112.687 89.5072 113.585 87.5003C114.028 86.5068 114.365 85.4696 114.591 84.4057C114.814 83.3425 114.928 82.2594 114.932 81.173Z" fill="white"/>
<g opacity="0.84">
<path opacity="0.84" d="M97.7709 92.426C97.2724 92.4281 96.7819 92.3003 96.3476 92.0552C95.9133 91.81 95.5501 91.456 95.2937 91.0277C92.3745 86.1973 88.8945 79.8329 88.8945 76.9444C88.8945 72.4184 92.8765 68.7363 97.7705 68.7363C102.665 68.7363 106.647 72.4194 106.647 76.9444C106.647 79.8329 103.167 86.1973 100.248 91.0277C99.9913 91.456 99.6282 91.81 99.194 92.0552C98.7598 92.3003 98.2694 92.4281 97.7709 92.426ZM97.7709 69.9972C93.5708 69.9972 90.1538 73.1138 90.1538 76.9444C90.1538 78.9419 92.4197 83.8369 96.3711 90.3746C96.5168 90.6158 96.7223 90.8153 96.9675 90.9537C97.2127 91.0922 97.4895 91.1649 97.771 91.1649C98.0525 91.1649 98.3293 91.0922 98.5745 90.9537C98.8198 90.8153 99.0252 90.6158 99.171 90.3746C103.122 83.8367 105.388 78.9417 105.388 76.9442C105.388 73.1136 101.971 69.9972 97.7705 69.9972H97.7709Z" fill="white"/>
<path opacity="0.84" d="M97.0868 82.6953C95.6212 82.6934 94.2161 82.1095 93.1798 81.0715C92.1434 80.0336 91.5604 78.6263 91.5586 77.1584C91.5615 76.9931 91.6291 76.8355 91.7468 76.7196C91.8645 76.6038 92.023 76.5388 92.188 76.5388C92.3531 76.5388 92.5116 76.6038 92.6293 76.7196C92.747 76.8355 92.8146 76.9931 92.8175 77.1584C92.8177 78.1741 93.1789 79.1567 93.8366 79.9299C94.4942 80.7032 95.4052 81.2167 96.4065 81.3784C97.4077 81.5401 98.4337 81.3394 99.3007 80.8124C100.168 80.2854 100.819 79.4664 101.138 78.5022C101.457 77.5379 101.423 76.4915 101.041 75.5502C100.66 74.609 99.9566 73.8345 99.057 73.3655C98.1574 72.8964 97.1205 72.7635 96.132 72.9905C95.1435 73.2175 94.268 73.7897 93.6623 74.6044C93.5616 74.736 93.4133 74.8226 93.2493 74.8454C93.0854 74.8682 92.919 74.8255 92.7863 74.7264C92.6536 74.6273 92.5652 74.4798 92.5403 74.3159C92.5153 74.1521 92.5558 73.9849 92.653 73.8507C93.2163 73.0931 93.9638 72.4925 94.8244 72.106C95.6849 71.7194 96.6299 71.5598 97.5694 71.6422C98.5089 71.7247 99.4117 72.0466 100.192 72.5772C100.972 73.1078 101.604 73.8295 102.027 74.6736C102.45 75.5178 102.651 76.4564 102.61 77.4001C102.569 78.3438 102.287 79.2613 101.792 80.0652C101.297 80.8692 100.604 81.5329 99.7809 81.9932C98.9573 82.4536 98.0299 82.6953 97.0868 82.6953Z" fill="white"/>
</g>
</g>
<path d="M160 120L160 261" stroke="white" stroke-dasharray="4 4"/>
<defs>
<clipPath id="clip0_6866_34160">
<rect width="351" height="338" fill="white" transform="translate(23 11)"/>
</clipPath>
</defs>
</svg>
