<svg width="48" height="48" viewBox="0 0 48 48" fill="none" xmlns="http://www.w3.org/2000/svg">
<path fill-rule="evenodd" clip-rule="evenodd" d="M44 1H4C2.34315 1 1 2.34315 1 4V44C1 45.6569 2.34315 47 4 47H44C45.6569 47 47 45.6569 47 44V4C47 2.34315 45.6569 1 44 1ZM4 0C1.79086 0 0 1.79086 0 4V44C0 46.2091 1.79086 48 4 48H44C46.2091 48 48 46.2091 48 44V4C48 1.79086 46.2091 0 44 0H4Z" fill="#FF0000"/>
<path d="M29.6367 30.793V32H18.9609V30.9102L24.5508 24.5703C25.2461 23.7812 25.8008 23.0898 26.2148 22.4961C26.6289 21.8945 26.9258 21.3477 27.1055 20.8555C27.293 20.3555 27.3867 19.8711 27.3867 19.4023C27.3867 18.7148 27.25 18.1094 26.9766 17.5859C26.7109 17.0625 26.3125 16.6523 25.7812 16.3555C25.25 16.0586 24.5938 15.9102 23.8125 15.9102C23.0312 15.9102 22.3516 16.0781 21.7734 16.4141C21.1953 16.75 20.75 17.2188 20.4375 17.8203C20.1328 18.4141 19.9805 19.0898 19.9805 19.8477H18.5859C18.5859 18.9102 18.793 18.0508 19.207 17.2695C19.6289 16.4883 20.2305 15.8672 21.0117 15.4062C21.793 14.9375 22.7266 14.7031 23.8125 14.7031C24.8438 14.7031 25.7305 14.8867 26.4727 15.2539C27.2148 15.6133 27.7852 16.1328 28.1836 16.8125C28.5898 17.4922 28.793 18.3125 28.793 19.2734C28.793 19.7891 28.6992 20.3086 28.5117 20.832C28.332 21.3555 28.082 21.8789 27.7617 22.4023C27.4492 22.918 27.0898 23.4297 26.6836 23.9375C26.2852 24.4453 25.8672 24.9453 25.4297 25.4375L20.6719 30.793H29.6367Z" fill="black"/>
</svg>
