<svg width="48" height="48" viewBox="0 0 48 48" fill="none" xmlns="http://www.w3.org/2000/svg">
<path fill-rule="evenodd" clip-rule="evenodd" d="M44 1H4C2.34315 1 1 2.34315 1 4V44C1 45.6569 2.34315 47 4 47H44C45.6569 47 47 45.6569 47 44V4C47 2.34315 45.6569 1 44 1ZM4 0C1.79086 0 0 1.79086 0 4V44C0 46.2091 1.79086 48 4 48H44C46.2091 48 48 46.2091 48 44V4C48 1.79086 46.2091 0 44 0H4Z" fill="#FF0000"/>
<path d="M30.2227 26.4922V27.6875H18.1406V26.8789L26.0273 14.9375H27.1992L25.5352 17.832L19.8516 26.4922H30.2227ZM27.5625 14.9375V32H26.168V14.9375H27.5625Z" fill="black"/>
</svg>
