<svg width="48" height="48" viewBox="0 0 48 48" fill="none" xmlns="http://www.w3.org/2000/svg">
<path fill-rule="evenodd" clip-rule="evenodd" d="M44 1H4C2.34315 1 1 2.34315 1 4V44C1 45.6569 2.34315 47 4 47H44C45.6569 47 47 45.6569 47 44V4C47 2.34315 45.6569 1 44 1ZM4 0C1.79086 0 0 1.79086 0 4V44C0 46.2091 1.79086 48 4 48H44C46.2091 48 48 46.2091 48 44V4C48 1.79086 46.2091 0 44 0H4Z" fill="#FF0000"/>
<path d="M22.0781 22.6953H23.5078C24.3828 22.6953 25.1133 22.5469 25.6992 22.25C26.293 21.9453 26.7383 21.543 27.0352 21.043C27.3398 20.543 27.4922 19.9883 27.4922 19.3789C27.4922 18.6914 27.3633 18.0898 27.1055 17.5742C26.8477 17.0508 26.4531 16.6445 25.9219 16.3555C25.3984 16.0586 24.7266 15.9102 23.9062 15.9102C23.1875 15.9102 22.5469 16.0508 21.9844 16.332C21.4219 16.6133 20.9766 17.0156 20.6484 17.5391C20.3203 18.0625 20.1562 18.6875 20.1562 19.4141H18.7617C18.7617 18.4844 18.9844 17.668 19.4297 16.9648C19.875 16.2539 20.4883 15.6992 21.2695 15.3008C22.0508 14.9023 22.9297 14.7031 23.9062 14.7031C24.9141 14.7031 25.7891 14.8867 26.5312 15.2539C27.2812 15.6211 27.8594 16.1562 28.2656 16.8594C28.6797 17.5625 28.8867 18.418 28.8867 19.4258C28.8867 19.9414 28.7734 20.4492 28.5469 20.9492C28.3281 21.4492 28 21.9023 27.5625 22.3086C27.125 22.707 26.582 23.0273 25.9336 23.2695C25.2852 23.5117 24.5312 23.6328 23.6719 23.6328H22.0781V22.6953ZM22.0781 23.9023V22.9766H23.6719C24.6484 22.9766 25.4844 23.0898 26.1797 23.3164C26.875 23.5352 27.4453 23.8477 27.8906 24.2539C28.3438 24.6523 28.6758 25.1172 28.8867 25.6484C29.0977 26.1797 29.2031 26.75 29.2031 27.3594C29.2031 28.1406 29.0742 28.832 28.8164 29.4336C28.5586 30.0352 28.1914 30.5469 27.7148 30.9688C27.2461 31.3828 26.6914 31.6992 26.0508 31.918C25.418 32.1289 24.7227 32.2344 23.9648 32.2344C23.2773 32.2344 22.6055 32.1328 21.9492 31.9297C21.3008 31.7266 20.7148 31.4258 20.1914 31.0273C19.6758 30.6211 19.2656 30.1133 18.9609 29.5039C18.6562 28.8867 18.5039 28.1758 18.5039 27.3711H19.8984C19.8984 28.0898 20.0703 28.7266 20.4141 29.2812C20.7578 29.8281 21.2344 30.2578 21.8438 30.5703C22.4609 30.875 23.168 31.0273 23.9648 31.0273C24.7695 31.0273 25.457 30.8906 26.0273 30.6172C26.6055 30.3359 27.0469 29.9258 27.3516 29.3867C27.6562 28.8477 27.8086 28.1875 27.8086 27.4062C27.8086 26.5859 27.625 25.918 27.2578 25.4023C26.8984 24.8867 26.3945 24.5078 25.7461 24.2656C25.1055 24.0234 24.3594 23.9023 23.5078 23.9023H22.0781Z" fill="black"/>
</svg>
