<svg width="396" height="360" viewBox="0 0 396 360" fill="none" xmlns="http://www.w3.org/2000/svg">
<rect x="62" y="107" width="272" height="219" rx="13.8406" stroke="#D1D5D9" stroke-width="2" stroke-dasharray="4 4"/>
<rect x="289" y="15" width="331" height="183" rx="8" transform="rotate(90 289 15)" fill="#FF0000"/>
<rect x="124" y="205" width="100" height="12" rx="6" fill="white"/>
<rect x="124" y="229" width="148" height="12" rx="6" fill="#F5F8FA" fill-opacity="0.8"/>
<rect x="123.5" y="258.5" width="147" height="68" rx="7.5" stroke="white" stroke-dasharray="4 4"/>
<rect x="181" y="36" width="21" height="4" rx="2" fill="white"/>
<circle cx="212" cy="38" r="3" fill="white"/>
<rect width="44" height="44" rx="10" transform="matrix(1 0 0 -1 125 179)" fill="#D30000"/>
<rect width="44" height="44" rx="10" transform="matrix(1 0 0 -1 176 179)" fill="#D30000"/>
<rect width="44" height="44" rx="10" transform="matrix(1 0 0 -1 227 179)" fill="#D30000"/>
<rect width="44" height="44" rx="10" transform="matrix(1 0 0 -1 39 223)" fill="#EAEDF0"/>
<path d="M70 201L55 209.66L55 192.34L70 201Z" fill="#D1D5D9"/>
<rect width="44" height="44" rx="10" transform="matrix(1 0 0 -1 313 223)" fill="#EAEDF0"/>
<rect x="75" y="68" width="245.833" height="75" rx="3.33333" fill="#EAEDF0"/>
<rect x="173.332" y="90.5" width="83.3333" height="10" rx="5" fill="#D1D5D9"/>
<rect x="173.332" y="110.5" width="123.333" height="10" rx="5" fill="#D1D5D9"/>
<rect x="93.4199" y="101.967" width="10.9653" height="34.8895" transform="rotate(-45 93.4199 101.967)" fill="#FF0000"/>
<rect x="145.58" y="83.6416" width="10.9653" height="49.8421" transform="rotate(45 145.58 83.6416)" fill="#FF0000"/>
<path d="M330.555 210.088L335.698 190L339.445 190.912L334.302 211L330.555 210.088Z" fill="#D1D5D9"/>
<path d="M317 200.5L325.247 192.447L327.818 194.958L322.143 200.5L327.818 206.042L325.247 208.553L317 200.5Z" fill="#D1D5D9"/>
<path d="M342.182 194.958L344.753 192.447L353 200.5L344.753 208.553L342.182 206.042L347.857 200.5L342.182 194.958Z" fill="#D1D5D9"/>
</svg>
