<svg width="250" height="130" viewBox="0 0 250 130" fill="none" xmlns="http://www.w3.org/2000/svg">
<rect width="250" height="130" fill="white"/>
<path d="M34 105.036H48.2029V52.8936H34V105.036Z" fill="black"/>
<path d="M121.649 75.5599V67.6315H92.0762V78.3324H107.349L107.301 79.4511C107.009 88.1577 100.345 94.0431 90.763 94.0431C79.0893 94.0431 71.6961 84.7528 71.6961 69.5285C71.6961 54.596 78.6516 45.7922 90.2279 45.7922C98.1562 45.7922 104.139 50.1698 106.279 57.5144H121.017C118.926 43.3115 106.571 33.6321 90.1793 33.6321C69.5559 33.6321 56.7149 47.2514 56.7149 69.7231C56.7149 92.5353 69.5559 106.203 90.5198 106.203C110.073 106.203 121.649 94.6754 121.649 75.5599Z" fill="black"/>
<path d="M162.458 105.036C177.44 105.036 186.73 97.302 186.73 84.9474C186.73 75.6572 179.726 68.7016 170.192 67.972V67.5829C177.634 66.4642 183.374 60.0437 183.374 52.3586C183.374 41.6091 175.105 34.8481 161.923 34.8481H131.377V105.036H162.458ZM146.067 45.7922H158.129C164.988 45.7922 168.928 49.0024 168.928 54.6446C168.928 60.5787 164.453 64.0322 156.622 64.0322H146.067V45.7922ZM146.067 94.0917V73.7116H158.373C167.031 73.7116 171.749 77.2136 171.749 83.78C171.749 90.4924 167.176 94.0917 158.713 94.0917H146.067Z" fill="black"/>
<path d="M34 47.3086H48.2029V34.8481H34V47.3086Z" fill="black"/>
<circle cx="202.73" cy="35.4519" r="12.4519" fill="black"/>
<path d="M207.335 43.2274H210.786L207.947 40.1843C208.771 39.0147 209.235 37.3687 209.235 35.4627V34.4556H206.67V35.2786C206.67 36.6214 206.491 37.5636 206.121 38.235L203.23 35.0295C205.34 33.8491 206.311 32.5712 206.311 30.9685C206.311 28.8676 204.559 27.3948 202.069 27.3948C199.588 27.3948 197.752 28.9326 197.752 31.0226C197.752 32.1705 198.269 33.1452 199.641 34.5963C199.599 34.618 199.113 34.8887 198.955 34.9754C197.013 36.0691 196.137 37.3578 196.137 39.1339C196.137 41.7871 198.216 43.5089 201.446 43.5089C203.293 43.5089 205.034 42.9242 206.164 41.9278L207.335 43.2274ZM201.805 33.5567C200.771 32.5279 200.391 31.9106 200.391 31.1851C200.391 30.2104 201.098 29.4957 202.079 29.4957C203.071 29.4957 203.747 30.1888 203.747 31.1851C203.747 32.1272 203.187 32.8203 201.805 33.5567ZM200.633 36.4807C200.728 36.4265 200.939 36.3074 201.055 36.2532L204.549 40.1302C203.958 40.7908 202.86 41.2131 201.763 41.2131C200.127 41.2131 199.019 40.2818 199.019 38.8848C199.019 37.921 199.483 37.2279 200.633 36.4807Z" fill="white"/>
</svg>
