<svg width="250" height="130" viewBox="0 0 250 130" fill="none" xmlns="http://www.w3.org/2000/svg">
<g clip-path="url(#clip0)">
<rect width="250" height="130" fill="white"/>
<g clip-path="url(#clip1)">
<path d="M98.6279 23.0766C99.3109 23.4471 100.309 23.8176 101.622 24.1351C102.936 24.4527 104.249 24.6115 105.615 24.6115C106.928 24.6115 108.189 24.4527 109.292 24.1351C110.396 23.8176 111.394 23.2883 112.182 22.6532C112.97 22.018 113.6 21.2241 114.073 20.3243C114.546 19.4245 114.756 18.4189 114.756 17.3074C114.756 15.9313 114.336 14.714 113.548 13.6554C112.76 12.5968 111.394 11.75 109.502 11.1149L105.825 9.95045C104.459 9.4741 103.461 8.99775 102.988 8.5214C102.463 8.04504 102.2 7.40991 102.2 6.66892C102.2 5.61036 102.621 4.81644 103.409 4.34009C104.249 3.86374 105.352 3.5991 106.876 3.5991C108.714 3.5991 110.396 3.91667 111.867 4.60473C112.339 4.81644 112.655 4.9223 112.865 4.9223C113.232 4.9223 113.443 4.65766 113.443 4.07545V2.80518C113.443 2.43468 113.39 2.17004 113.232 1.95833C113.075 1.74662 112.812 1.53491 112.444 1.3232C112.182 1.16441 111.814 1.00563 111.341 0.846847C110.868 0.688063 110.396 0.582207 109.87 0.423423C109.345 0.317568 108.767 0.211712 108.189 0.105856C107.611 0.0529279 107.033 0 106.456 0C105.3 0 104.197 0.158784 103.198 0.476351C102.148 0.793919 101.255 1.21734 100.519 1.85248C99.7312 2.43468 99.1007 3.17568 98.6805 4.02252C98.2077 4.86937 97.9975 5.82207 97.9975 6.93356C97.9975 8.30968 98.4178 9.57995 99.3109 10.7444C100.151 11.9088 101.57 12.8086 103.461 13.3908L107.244 14.5552C108.504 14.9786 109.397 15.455 109.87 15.9313C110.343 16.4077 110.553 17.0428 110.553 17.7838C110.553 18.8423 110.133 19.6892 109.187 20.2714C108.294 20.8536 107.033 21.1182 105.405 21.1182C104.354 21.1182 103.356 21.0124 102.305 20.8007C101.255 20.589 100.309 20.2714 99.4685 19.9009C99.2058 19.795 98.9957 19.6892 98.7855 19.6363C98.6279 19.5833 98.4703 19.5304 98.3127 19.5304C97.945 19.5304 97.7349 19.795 97.7349 20.3773V21.7004C97.7349 21.9651 97.7874 22.1768 97.8925 22.4414C97.945 22.5473 98.2077 22.8119 98.6279 23.0766Z" fill="#262F3E"/>
<path d="M54.762 10.3739C53.8164 10.2151 52.8708 10.1622 52.0302 10.1622C49.351 10.1622 47.2496 10.8502 45.6736 12.1734C44.0976 13.5495 43.3096 15.2962 43.3096 17.5721C43.3096 19.6892 43.94 21.3299 45.2008 22.6002C46.4616 23.8705 48.1952 24.4527 50.4017 24.4527C53.4486 24.4527 56.0228 23.2353 58.0191 20.8536C58.2818 21.4358 58.5444 21.9651 58.8071 22.3885C59.0698 22.8119 59.385 23.2353 59.7527 23.6058C60.0154 23.8705 60.2255 23.9763 60.5407 23.9763C60.7509 23.9763 60.961 23.9234 61.2237 23.7646L62.8522 22.6531C63.1674 22.3885 63.325 22.1768 63.325 21.8592C63.325 21.7004 63.2725 21.4887 63.1674 21.277C62.7997 20.589 62.537 19.9538 62.3269 19.4245C62.1167 18.8423 62.0117 18.0484 62.0117 17.0957V8.57431C62.0117 5.71621 61.2762 3.54616 59.8578 2.17003C58.4394 0.74098 56.1804 0.0529175 53.0809 0.0529175C51.6625 0.0529175 50.2966 0.211701 49.0358 0.529269C47.775 0.846836 46.6717 1.27026 45.7787 1.74661C45.4109 1.90539 45.1483 2.11711 45.0432 2.27589C44.8856 2.43467 44.8331 2.75224 44.8331 3.17566V4.44593C44.8331 4.97521 44.9907 5.29278 45.3584 5.29278C45.4635 5.29278 45.5685 5.29278 45.7787 5.23985C45.9363 5.18693 46.2515 5.08107 46.6717 4.92229C47.5648 4.55179 48.5104 4.23422 49.456 4.02251C50.4017 3.8108 51.3473 3.70494 52.2403 3.70494C54.2366 3.70494 55.6551 4.12837 56.4431 4.92229C57.2836 5.71621 57.6513 7.14526 57.6513 9.10359V11.009C56.7057 10.6914 55.7076 10.4797 54.762 10.3739ZM57.7039 14.9786C57.7039 15.8784 57.5988 16.6194 57.4412 17.2545C57.2836 17.8896 56.9684 18.4189 56.5481 18.9482C55.8652 19.7421 55.0246 20.3243 54.079 20.6419C53.1334 20.9594 52.2403 21.1182 51.3998 21.1182C50.2441 21.1182 49.2984 20.8007 48.668 20.1655C48.0376 19.5304 47.7224 18.6306 47.7224 17.4133C47.7224 16.0901 48.1427 15.0844 48.9832 14.3964C49.8238 13.7083 51.1371 13.3378 52.8182 13.3378C53.6062 13.3378 54.3942 13.3908 55.2348 13.4966C56.0753 13.6025 56.8633 13.7612 57.5988 13.92V14.9786H57.7039Z" fill="#262F3E"/>
<path d="M70.732 22.6002C70.8896 23.1295 71.0472 23.4471 71.2574 23.6058C71.4675 23.7646 71.7827 23.8705 72.2555 23.8705H74.4619C74.9347 23.8705 75.3025 23.7646 75.5126 23.6058C75.7227 23.4471 75.8803 23.0766 75.9854 22.5473L79.978 5.7162L84.1282 22.5473C84.2332 23.0766 84.3909 23.3941 84.6535 23.6058C84.8637 23.7646 85.2314 23.8705 85.7042 23.8705H87.9106C88.3834 23.8705 88.6986 23.7646 88.9088 23.6058C89.1189 23.4471 89.2765 23.0766 89.4341 22.6002L95.6857 2.38174C95.7907 2.1171 95.8433 1.90539 95.8958 1.74661C95.9483 1.58782 95.9483 1.48197 95.9483 1.32318C95.9483 0.899761 95.7382 0.688049 95.3179 0.688049H92.9014C92.4286 0.688049 92.0608 0.793905 91.9032 0.952689C91.6931 1.11147 91.5355 1.48197 91.3779 1.95832L86.8599 19.4775L82.7623 1.95832C82.6572 1.42904 82.4996 1.11147 82.2895 0.952689C82.0794 0.793905 81.7116 0.688049 81.2388 0.688049H79.1375C78.6646 0.688049 78.2969 0.793905 78.0868 0.952689C77.8766 1.11147 77.719 1.48197 77.614 1.95832L73.5689 19.2658L69.156 1.95832C68.9984 1.42904 68.8408 1.11147 68.6307 0.952689C68.4205 0.793905 68.1053 0.688049 67.6325 0.688049H65.1109C64.6906 0.688049 64.4805 0.899761 64.4805 1.32318C64.4805 1.48197 64.533 1.85246 64.6906 2.38174L70.732 22.6002Z" fill="#262F3E"/>
<path d="M109.292 35.25C99.7307 39.3254 89.2765 41.3367 79.8204 41.3367C65.7938 41.3367 52.1875 37.4729 41.2079 31.0157C40.2623 30.4335 39.5268 31.4392 40.3148 32.1802C50.5064 41.4425 63.9551 47 78.9273 47C89.5917 47 101.99 43.6126 110.553 37.2612C111.971 36.2556 110.763 34.6678 109.292 35.25Z" fill="#F8981D"/>
<path d="M103.881 31.7039C103.146 32.2331 103.251 32.9741 104.092 32.8683C106.823 32.5507 112.97 31.8097 114.073 33.1858C115.176 34.6149 112.865 40.384 111.814 42.9775C111.499 43.7714 112.182 44.089 112.865 43.5068C117.435 39.643 118.644 31.5451 117.698 30.3807C116.805 29.2162 108.82 28.2106 103.881 31.7039Z" fill="#F8981D"/>
<path d="M138.291 18.4718C138.081 18.4718 137.976 18.366 137.976 18.1543V4.02253C137.976 3.81081 138.081 3.70496 138.291 3.70496H138.659C138.869 3.70496 138.974 3.81081 139.026 4.02253L139.131 4.86937C139.762 4.34009 140.392 3.9696 140.97 3.75789C141.548 3.54617 142.178 3.38739 142.809 3.38739C144.122 3.38739 145.173 3.86374 145.961 4.81644C146.749 5.76915 147.117 7.09235 147.117 8.78604C147.117 10.4797 146.696 11.8559 145.908 12.8615C145.12 13.8671 144.017 14.3964 142.651 14.3964C141.39 14.3964 140.235 13.92 139.184 12.9673V18.1014C139.184 18.3131 139.079 18.4189 138.869 18.4189H138.291V18.4718ZM142.494 13.3378C143.597 13.3378 144.49 12.9673 145.015 12.2264C145.593 11.4854 145.856 10.3739 145.856 8.89189C145.856 5.92793 144.752 4.49888 142.546 4.49888C141.39 4.49888 140.287 4.9223 139.131 5.82207V11.9088C139.709 12.3851 140.235 12.7556 140.76 12.9673C141.338 13.232 141.916 13.3378 142.494 13.3378Z" fill="#262F3E"/>
<path d="M152.213 14.3964C151.267 14.3964 150.532 14.1318 149.954 13.6025C149.376 13.0732 149.113 12.3322 149.113 11.4324C149.113 10.4268 149.481 9.63289 150.164 9.05068C150.847 8.46847 151.793 8.1509 152.948 8.1509C153.894 8.1509 154.839 8.30969 155.89 8.62726V6.88063C155.89 6.03379 155.68 5.45158 155.312 5.08108C154.892 4.71059 154.262 4.5518 153.316 4.5518C152.37 4.5518 151.372 4.71059 150.322 5.08108C150.216 5.13401 150.111 5.13401 150.006 5.13401C149.849 5.13401 149.796 5.02816 149.796 4.86937V4.44595C149.796 4.34009 149.796 4.23424 149.849 4.18131C149.901 4.12838 149.954 4.07545 150.059 4.02253C151.162 3.5991 152.318 3.38739 153.526 3.38739C154.734 3.38739 155.627 3.65203 156.205 4.18131C156.783 4.71059 157.098 5.45158 157.098 6.51014V13.8671C157.098 14.0788 156.993 14.1847 156.783 14.1847H156.363C156.153 14.1847 156.048 14.0788 156.048 13.8671L155.943 12.9673C154.787 13.92 153.526 14.3964 152.213 14.3964ZM152.37 13.3378C152.896 13.3378 153.474 13.232 154.051 13.0203C154.629 12.8086 155.26 12.491 155.89 12.1205V9.52703C154.945 9.26239 154.051 9.15653 153.211 9.15653C151.267 9.15653 150.322 9.89753 150.322 11.3795C150.322 12.0146 150.479 12.491 150.847 12.8615C151.215 13.1791 151.74 13.3378 152.37 13.3378Z" fill="#262F3E"/>
<path d="M160.565 14.1847C160.355 14.1847 160.25 14.0788 160.25 13.8671V4.02253C160.25 3.81082 160.355 3.70497 160.565 3.70497H160.933C161.143 3.70497 161.248 3.81082 161.301 4.02253L161.406 5.23988C161.931 4.65767 162.456 4.23425 162.929 4.02253C163.455 3.75789 163.98 3.65204 164.61 3.65204C164.82 3.65204 165.031 3.65204 165.136 3.65204C165.346 3.65204 165.451 3.75789 165.451 3.96961V4.49889C165.451 4.55181 165.451 4.60474 165.398 4.65767C165.346 4.7106 165.293 4.7106 165.241 4.7106C165.136 4.7106 165.031 4.7106 164.926 4.7106C164.82 4.7106 164.663 4.7106 164.505 4.7106C163.875 4.7106 163.297 4.81645 162.824 5.08109C162.351 5.2928 161.879 5.71623 161.406 6.24551V13.9201C161.406 14.1318 161.301 14.2376 161.091 14.2376H160.565V14.1847Z" fill="#262F3E"/>
<path d="M170.967 14.2905C170.179 14.2905 169.549 14.0788 169.128 13.6554C168.708 13.232 168.498 12.5968 168.498 11.75V4.76351H166.869C166.659 4.76351 166.554 4.65765 166.554 4.44594V4.23423C166.554 4.12838 166.554 4.02252 166.607 3.96959C166.659 3.91666 166.712 3.86374 166.869 3.86374L168.55 3.70495L168.708 0.952699C168.708 0.846843 168.761 0.740988 168.813 0.68806C168.866 0.635132 168.918 0.635132 169.023 0.635132H169.391C169.601 0.635132 169.706 0.740988 169.706 0.952699V3.70495H172.701C172.911 3.70495 173.016 3.81081 173.016 4.02252V4.44594C173.016 4.65765 172.911 4.76351 172.701 4.76351H169.706V11.6971C169.706 12.2793 169.811 12.6498 170.074 12.9144C170.337 13.1791 170.704 13.2849 171.282 13.2849C171.703 13.2849 172.018 13.232 172.333 13.1791C172.491 13.1791 172.596 13.1261 172.701 13.1261C172.806 13.1261 172.858 13.0732 172.911 13.0732C173.068 13.0732 173.121 13.1791 173.121 13.3378V13.6554C173.121 13.8671 173.068 14.0259 172.911 14.0788C172.333 14.2376 171.703 14.2905 170.967 14.2905Z" fill="#262F3E"/>
<path d="M175.59 14.1847C175.38 14.1847 175.275 14.0788 175.275 13.8671V4.02251C175.275 3.8108 175.38 3.70495 175.59 3.70495H176.01C176.221 3.70495 176.326 3.8108 176.378 4.02251L176.483 4.92229C177.166 4.44594 177.849 4.07544 178.585 3.8108C179.32 3.54616 180.055 3.44031 180.738 3.44031C181.737 3.44031 182.525 3.70495 183.05 4.23423C183.575 4.76351 183.838 5.55742 183.838 6.61598V13.92C183.838 14.1317 183.733 14.2376 183.523 14.2376H182.945C182.735 14.2376 182.63 14.1317 182.63 13.92V7.09233C182.63 6.19256 182.472 5.55742 182.104 5.134C181.737 4.71058 181.211 4.49887 180.476 4.49887C179.11 4.49887 177.744 4.92229 176.431 5.82206V13.8671C176.431 14.0788 176.326 14.1847 176.115 14.1847H175.59Z" fill="#262F3E"/>
<path d="M191.403 14.5022C189.774 14.5022 188.514 14.0259 187.726 13.1261C186.885 12.1734 186.465 10.7973 186.465 8.94481C186.465 7.19819 186.885 5.82206 187.726 4.86936C188.566 3.91666 189.722 3.44031 191.245 3.44031C192.506 3.44031 193.452 3.8108 194.135 4.49887C194.818 5.23986 195.133 6.24549 195.133 7.62161C195.133 8.15089 195.08 8.57432 195.028 8.89188C194.975 9.1036 194.87 9.20945 194.66 9.20945H187.673C187.673 10.6385 187.988 11.75 188.619 12.4381C189.249 13.1261 190.195 13.4966 191.508 13.4966C192.506 13.4966 193.452 13.3378 194.345 12.9673C194.503 12.9144 194.66 12.8615 194.713 12.8615C194.765 12.8615 194.818 12.8615 194.87 12.9144C194.923 12.9673 194.923 13.0203 194.923 13.0732V13.3908C194.923 13.6025 194.818 13.7613 194.713 13.8142C193.662 14.2376 192.559 14.5022 191.403 14.5022ZM193.925 8.20382C193.925 7.99211 193.925 7.7804 193.925 7.51576C193.925 6.51013 193.662 5.76914 193.189 5.23986C192.716 4.71058 191.981 4.49887 191.088 4.49887C188.934 4.49887 187.778 5.71621 187.621 8.20382H193.925Z" fill="#262F3E"/>
<path d="M197.97 14.1847C197.759 14.1847 197.654 14.0788 197.654 13.8671V4.02253C197.654 3.81082 197.759 3.70497 197.97 3.70497H198.337C198.547 3.70497 198.652 3.81082 198.705 4.02253L198.81 5.23988C199.335 4.65767 199.861 4.23425 200.334 4.02253C200.859 3.75789 201.384 3.65204 202.015 3.65204C202.225 3.65204 202.435 3.65204 202.54 3.65204C202.75 3.65204 202.855 3.75789 202.855 3.96961V4.49889C202.855 4.55181 202.855 4.60474 202.803 4.65767C202.75 4.7106 202.698 4.7106 202.645 4.7106C202.54 4.7106 202.435 4.7106 202.33 4.7106C202.225 4.7106 202.067 4.7106 201.91 4.7106C201.279 4.7106 200.701 4.81645 200.228 5.08109C199.756 5.2928 199.283 5.71623 198.81 6.24551V13.9201C198.81 14.1318 198.705 14.2376 198.495 14.2376H197.97V14.1847Z" fill="#262F3E"/>
<path d="M138.291 37.2613C138.081 37.2613 137.976 37.1554 137.976 36.9437V27.152C137.976 26.9403 138.081 26.8345 138.291 26.8345H138.711C138.921 26.8345 139.026 26.9403 139.079 27.152L139.184 28.0518C139.867 27.5755 140.55 27.205 141.285 26.9403C142.021 26.6757 142.756 26.5698 143.439 26.5698C144.437 26.5698 145.225 26.8345 145.751 27.3637C146.276 27.893 146.539 28.6869 146.539 29.7455V37.0496C146.539 37.2613 146.434 37.3671 146.223 37.3671H145.646C145.435 37.3671 145.33 37.2613 145.33 37.0496V30.1689C145.33 29.2691 145.173 28.634 144.805 28.2106C144.437 27.7872 143.912 27.5755 143.176 27.5755C141.811 27.5755 140.445 27.9989 139.131 28.8987V36.9437C139.131 37.1554 139.026 37.2613 138.816 37.2613H138.291Z" fill="#262F3E"/>
<path d="M154.104 37.5788C152.475 37.5788 151.214 37.1025 150.426 36.2027C149.586 35.25 149.166 33.8739 149.166 32.0214C149.166 30.2748 149.586 28.8987 150.426 27.946C151.267 26.9933 152.423 26.5169 153.946 26.5169C155.207 26.5169 156.153 26.8874 156.835 27.5755C157.518 28.3165 157.834 29.3221 157.834 30.6982C157.834 31.2275 157.781 31.6509 157.729 31.9685C157.676 32.1802 157.571 32.2861 157.361 32.2861H150.374C150.374 33.7151 150.689 34.8266 151.319 35.5147C151.95 36.2027 152.895 36.5732 154.209 36.5732C155.207 36.5732 156.153 36.4144 157.046 36.0439C157.203 35.991 157.361 35.9381 157.413 35.9381C157.466 35.9381 157.518 35.9381 157.571 35.991C157.623 36.0439 157.623 36.0969 157.623 36.1498V36.4674C157.623 36.6791 157.518 36.8379 157.413 36.8908C156.363 37.3671 155.259 37.5788 154.104 37.5788ZM156.625 31.2804C156.625 31.0687 156.625 30.857 156.625 30.5924C156.625 29.5867 156.363 28.8457 155.89 28.3165C155.417 27.7872 154.682 27.5755 153.789 27.5755C151.635 27.5755 150.479 28.7928 150.321 31.2804H156.625Z" fill="#262F3E"/>
<path d="M163.56 37.4201C162.772 37.4201 162.141 37.2083 161.721 36.7849C161.301 36.3615 161.091 35.7264 161.091 34.8795V27.8401H159.462C159.252 27.8401 159.147 27.7343 159.147 27.5225V27.3108C159.147 27.205 159.147 27.0991 159.2 27.0462C159.252 26.9933 159.305 26.9403 159.462 26.9403L161.143 26.7815L161.301 24.0293C161.301 23.9234 161.353 23.8176 161.406 23.7647C161.458 23.7117 161.511 23.7117 161.616 23.7117H161.984C162.194 23.7117 162.299 23.8176 162.299 24.0293V26.7286H165.293C165.504 26.7286 165.609 26.8345 165.609 27.0462V27.4696C165.609 27.6813 165.504 27.7872 165.293 27.7872H162.299V34.7207C162.299 35.3029 162.404 35.6734 162.667 35.9381C162.929 36.2027 163.297 36.3086 163.875 36.3086C164.295 36.3086 164.611 36.2556 164.926 36.2027C165.083 36.2027 165.188 36.1498 165.293 36.1498C165.399 36.1498 165.451 36.0969 165.504 36.0969C165.661 36.0969 165.714 36.2027 165.714 36.3615V36.6791C165.714 36.8908 165.661 37.0496 165.504 37.1025C164.926 37.3142 164.295 37.4201 163.56 37.4201Z" fill="#262F3E"/>
<path d="M170.337 37.2613C170.127 37.2613 170.022 37.1554 169.969 36.9966L166.712 27.3108C166.659 27.1521 166.607 27.0462 166.607 26.9933C166.607 26.8874 166.712 26.7816 166.87 26.7816H167.553C167.71 26.7816 167.868 26.8874 167.92 27.0462L170.757 35.8852L173.279 27.0991C173.331 26.8874 173.489 26.8345 173.646 26.8345H174.382C174.592 26.8345 174.697 26.9403 174.75 27.0991L177.219 35.9381L180.108 27.0462C180.161 26.8874 180.266 26.7816 180.476 26.7816H181.106C181.264 26.7816 181.369 26.8345 181.369 26.9933C181.369 27.0462 181.316 27.1521 181.264 27.3108L177.902 36.9966C177.849 37.2084 177.692 37.2613 177.534 37.2613H176.851C176.641 37.2613 176.536 37.1554 176.483 36.9966L173.962 28.1577L171.493 36.9966C171.44 37.2084 171.282 37.2613 171.125 37.2613H170.337Z" fill="#262F3E"/>
<path d="M187.463 37.5789C185.939 37.5789 184.783 37.1025 183.943 36.0969C183.102 35.0912 182.682 33.768 182.682 32.0214C182.682 30.2748 183.102 28.8987 183.943 27.946C184.783 26.9933 185.939 26.464 187.463 26.464C188.986 26.464 190.142 26.9403 190.982 27.946C191.823 28.8987 192.243 30.2748 192.243 32.0214C192.243 33.768 191.823 35.1442 190.982 36.0969C190.142 37.1025 188.934 37.5789 187.463 37.5789ZM187.463 36.5203C189.827 36.5203 191.035 35.0383 191.035 32.0743C191.035 29.1104 189.827 27.6284 187.463 27.6284C185.099 27.6284 183.89 29.1104 183.89 32.0743C183.89 35.0383 185.046 36.5203 187.463 36.5203Z" fill="#262F3E"/>
<path d="M195.238 37.2613C195.028 37.2613 194.923 37.1554 194.923 36.9437V27.1521C194.923 26.9403 195.028 26.8345 195.238 26.8345H195.606C195.816 26.8345 195.921 26.9403 195.974 27.1521L196.079 28.3694C196.604 27.7872 197.129 27.3638 197.602 27.1521C198.127 26.8874 198.653 26.7816 199.283 26.7816C199.493 26.7816 199.703 26.7816 199.809 26.7816C200.019 26.7816 200.124 26.8874 200.124 27.0991V27.6284C200.124 27.6813 200.124 27.7343 200.071 27.7872C200.019 27.8401 199.966 27.8401 199.914 27.8401C199.809 27.8401 199.703 27.8401 199.598 27.8401C199.493 27.8401 199.336 27.8401 199.178 27.8401C198.548 27.8401 197.97 27.946 197.497 28.2106C197.024 28.4223 196.551 28.8457 196.079 29.375V37.0496C196.079 37.2613 195.974 37.3671 195.763 37.3671H195.238V37.2613Z" fill="#262F3E"/>
<path d="M202.33 37.2613C202.12 37.2613 202.015 37.1554 202.015 36.9437V22.2297C202.015 22.018 202.12 21.9122 202.33 21.9122H202.908C203.118 21.9122 203.223 22.018 203.223 22.2297V31.4921L208.161 27.0462C208.319 26.8874 208.476 26.8345 208.686 26.8345H209.422C209.58 26.8345 209.685 26.8874 209.685 27.0462C209.685 27.0991 209.632 27.205 209.474 27.3637L204.431 31.7568L209.842 36.7849C209.947 36.8908 210.052 36.9966 210.052 37.0496C210.052 37.2083 209.947 37.2613 209.79 37.2613H208.897C208.739 37.2613 208.581 37.2083 208.424 37.0496L203.17 32.1273V36.9437C203.17 37.1554 203.065 37.2613 202.855 37.2613H202.33Z" fill="#262F3E"/>
</g>
<path d="M50.3486 85.437C48.3799 85.437 46.8306 86.0961 45.7007 87.4143C44.5709 88.7325 44.0059 90.5386 44.0059 92.8326C44.0059 95.1095 44.5281 96.9156 45.5723 98.2509C46.6337 99.569 48.2173 100.228 50.3229 100.228C51.1276 100.228 51.8894 100.16 52.6084 100.023C53.3274 99.8858 54.0293 99.7146 54.7141 99.5091V101.512C54.0293 101.769 53.3188 101.957 52.5827 102.077C51.8637 102.197 50.9992 102.257 49.9891 102.257C48.1231 102.257 46.5653 101.872 45.3155 101.101C44.0658 100.331 43.1243 99.2352 42.4909 97.8143C41.8746 96.3934 41.5664 94.7243 41.5664 92.8069C41.5664 90.958 41.9002 89.3317 42.5679 87.9279C43.2527 86.507 44.2541 85.4028 45.5723 84.6153C46.8905 83.8107 48.4912 83.4084 50.3743 83.4084C52.3088 83.4084 53.995 83.7679 55.4331 84.4869L54.5086 86.4385C53.9437 86.1817 53.3103 85.9506 52.6084 85.7452C51.9236 85.5398 51.1704 85.437 50.3486 85.437Z" fill="#535B64"/>
<path d="M70.374 95.0923C70.374 97.3692 69.792 99.1325 68.6279 100.382C67.4809 101.632 65.923 102.257 63.9543 102.257C62.7388 102.257 61.6517 101.983 60.6931 101.435C59.7515 100.87 59.0068 100.057 58.459 98.9956C57.9112 97.917 57.6373 96.616 57.6373 95.0923C57.6373 92.8155 58.2108 91.0607 59.3577 89.8281C60.5047 88.5956 62.0626 87.9793 64.0313 87.9793C65.281 87.9793 66.3767 88.2617 67.3182 88.8267C68.2769 89.3745 69.0216 90.1791 69.5523 91.2405C70.1001 92.2848 70.374 93.5687 70.374 95.0923ZM59.974 95.0923C59.974 96.7187 60.2908 98.0112 60.9242 98.9699C61.5747 99.9114 62.6019 100.382 64.0056 100.382C65.3923 100.382 66.4109 99.9114 67.0615 98.9699C67.712 98.0112 68.0373 96.7187 68.0373 95.0923C68.0373 93.466 67.712 92.1906 67.0615 91.2662C66.4109 90.3417 65.3838 89.8795 63.98 89.8795C62.5762 89.8795 61.5576 90.3417 60.9242 91.2662C60.2908 92.1906 59.974 93.466 59.974 95.0923Z" fill="#535B64"/>
<path d="M80.5806 87.9793C82.2241 87.9793 83.4653 88.3816 84.3041 89.1862C85.143 89.9737 85.5624 91.2576 85.5624 93.038V102H83.3283V93.1921C83.3283 90.9837 82.3011 89.8795 80.2468 89.8795C78.7232 89.8795 77.6704 90.3075 77.0883 91.1635C76.5062 92.0194 76.2152 93.252 76.2152 94.8612V102H73.9555V88.236H75.7787L76.1125 90.1106H76.2409C76.686 89.3916 77.3023 88.8609 78.0898 88.5185C78.8773 88.159 79.7076 87.9793 80.5806 87.9793Z" fill="#535B64"/>
<path d="M98.7913 98.1995C98.7913 99.5348 98.2948 100.545 97.3019 101.23C96.309 101.914 94.9737 102.257 93.296 102.257C92.3373 102.257 91.507 102.18 90.8051 102.026C90.1203 101.872 89.5126 101.658 88.9819 101.384V99.3294C89.5297 99.6033 90.1888 99.8601 90.9592 100.1C91.7467 100.322 92.5427 100.434 93.3473 100.434C94.4943 100.434 95.3246 100.254 95.8382 99.8943C96.3518 99.5177 96.6086 99.0212 96.6086 98.4049C96.6086 98.0625 96.5144 97.7544 96.3261 97.4805C96.1378 97.2066 95.7954 96.9327 95.2989 96.6588C94.8196 96.3849 94.1263 96.0767 93.2189 95.7343C92.3287 95.3919 91.5669 95.0495 90.9335 94.7072C90.3001 94.3648 89.8122 93.9539 89.4698 93.4746C89.1274 92.9952 88.9562 92.3789 88.9562 91.6257C88.9562 90.4616 89.427 89.5628 90.3686 88.9294C91.3272 88.296 92.577 87.9793 94.1177 87.9793C94.9565 87.9793 95.7355 88.0649 96.4545 88.236C97.1906 88.3901 97.8754 88.6127 98.5088 88.9037L97.7384 90.7012C97.1564 90.4616 96.5486 90.2561 95.9152 90.0849C95.2818 89.9137 94.6313 89.8281 93.9636 89.8281C93.0392 89.8281 92.3287 89.9822 91.8323 90.2904C91.3529 90.5814 91.1133 90.9837 91.1133 91.4973C91.1133 91.8739 91.2245 92.1992 91.4471 92.4731C91.6696 92.7299 92.0377 92.9867 92.5513 93.2435C93.082 93.4831 93.7839 93.7742 94.657 94.1165C95.53 94.4418 96.2747 94.7756 96.891 95.118C97.5073 95.4604 97.9781 95.8798 98.3034 96.3763C98.6286 96.8556 98.7913 97.4634 98.7913 98.1995Z" fill="#535B64"/>
<path d="M113.621 88.236V102H111.772L111.439 100.177H111.336C110.891 100.896 110.274 101.426 109.487 101.769C108.699 102.094 107.861 102.257 106.97 102.257C105.31 102.257 104.06 101.863 103.221 101.076C102.382 100.271 101.963 98.9956 101.963 97.2494V88.236H104.248V97.0953C104.248 99.2866 105.267 100.382 107.304 100.382C108.828 100.382 109.881 99.9542 110.463 99.0983C111.062 98.2423 111.362 97.0097 111.362 95.4005V88.236H113.621Z" fill="#535B64"/>
<path d="M120.251 102H117.991V82.4839H120.251V102Z" fill="#535B64"/>
<path d="M129.208 100.408C129.55 100.408 129.901 100.382 130.261 100.331C130.62 100.262 130.911 100.194 131.134 100.125V101.846C130.894 101.966 130.552 102.06 130.107 102.128C129.662 102.214 129.234 102.257 128.823 102.257C128.104 102.257 127.436 102.137 126.82 101.897C126.221 101.64 125.733 101.204 125.356 100.588C124.979 99.9714 124.791 99.1068 124.791 97.9941V89.9822H122.839V88.9037L124.817 88.0049L125.716 85.0775H127.051V88.236H131.031V89.9822H127.051V97.9427C127.051 98.7816 127.248 99.4064 127.641 99.8173C128.052 100.211 128.574 100.408 129.208 100.408Z" fill="#535B64"/>
<path d="M135.045 83.0746C135.388 83.0746 135.687 83.1944 135.944 83.4341C136.218 83.6566 136.355 84.0161 136.355 84.5126C136.355 84.9919 136.218 85.3514 135.944 85.5911C135.687 85.8308 135.388 85.9506 135.045 85.9506C134.669 85.9506 134.352 85.8308 134.095 85.5911C133.839 85.3514 133.71 84.9919 133.71 84.5126C133.71 84.0161 133.839 83.6566 134.095 83.4341C134.352 83.1944 134.669 83.0746 135.045 83.0746ZM136.15 88.236V102H133.89V88.236H136.15Z" fill="#535B64"/>
<path d="M147.135 87.9793C148.779 87.9793 150.02 88.3816 150.859 89.1862C151.698 89.9737 152.117 91.2576 152.117 93.038V102H149.883V93.1921C149.883 90.9837 148.856 89.8795 146.802 89.8795C145.278 89.8795 144.225 90.3075 143.643 91.1635C143.061 92.0194 142.77 93.252 142.77 94.8612V102H140.51V88.236H142.333L142.667 90.1106H142.796C143.241 89.3916 143.857 88.8609 144.645 88.5185C145.432 88.159 146.262 87.9793 147.135 87.9793Z" fill="#535B64"/>
<path d="M161.263 87.9793C162.17 87.9793 162.984 88.1505 163.703 88.4928C164.439 88.8352 165.064 89.3574 165.577 90.0593H165.706L166.014 88.236H167.811V102.231C167.811 104.2 167.306 105.681 166.296 106.674C165.303 107.666 163.754 108.163 161.648 108.163C159.628 108.163 157.976 107.872 156.692 107.29V105.21C158.045 105.929 159.739 106.288 161.777 106.288C162.958 106.288 163.882 105.937 164.55 105.236C165.235 104.551 165.577 103.609 165.577 102.411V101.872C165.577 101.666 165.586 101.375 165.603 100.999C165.62 100.605 165.637 100.331 165.654 100.177H165.551C164.627 101.563 163.206 102.257 161.289 102.257C159.508 102.257 158.113 101.632 157.103 100.382C156.11 99.1325 155.614 97.3863 155.614 95.1437C155.614 92.9524 156.11 91.2148 157.103 89.9309C158.113 88.6298 159.5 87.9793 161.263 87.9793ZM161.571 89.8795C160.424 89.8795 159.534 90.3417 158.901 91.2662C158.267 92.1735 157.951 93.4746 157.951 95.1694C157.951 96.8642 158.259 98.1653 158.875 99.0726C159.508 99.9628 160.424 100.408 161.623 100.408C163.009 100.408 164.019 100.04 164.653 99.3037C165.286 98.5504 165.603 97.3435 165.603 95.683V95.1437C165.603 93.2606 165.278 91.9167 164.627 91.1121C163.977 90.2904 162.958 89.8795 161.571 89.8795Z" fill="#535B64"/>
<path d="M47.3442 111.665C49.7409 111.665 51.4871 112.136 52.5827 113.078C53.6783 114.019 54.2262 115.346 54.2262 117.058C54.2262 118.068 53.995 119.018 53.5328 119.908C53.0877 120.781 52.3259 121.492 51.2474 122.04C50.186 122.587 48.7394 122.861 46.9076 122.861H44.802V130H42.4909V111.665H47.3442ZM47.1388 113.642H44.802V120.884H46.6509C48.397 120.884 49.6981 120.601 50.5541 120.037C51.41 119.472 51.838 118.513 51.838 117.16C51.838 115.979 51.4614 115.098 50.7081 114.516C49.9549 113.933 48.7651 113.642 47.1388 113.642Z" fill="#535B64"/>
<path d="M62.9434 116.005C64.6211 116.005 65.8622 116.373 66.6668 117.109C67.4714 117.845 67.8738 119.018 67.8738 120.627V130H66.2303L65.7938 128.048H65.691C65.0919 128.802 64.4584 129.358 63.7908 129.718C63.1403 130.077 62.2329 130.257 61.0688 130.257C59.8191 130.257 58.7834 129.932 57.9617 129.281C57.1399 128.613 56.7291 127.578 56.7291 126.174C56.7291 124.804 57.2683 123.751 58.3468 123.015C59.4254 122.262 61.0859 121.851 63.3286 121.783L65.6654 121.706V120.884C65.6654 119.737 65.4171 118.941 64.9207 118.496C64.4242 118.051 63.7223 117.828 62.815 117.828C62.096 117.828 61.4112 117.939 60.7607 118.162C60.1101 118.367 59.5024 118.607 58.9375 118.881L58.2441 117.186C58.8433 116.861 59.5538 116.587 60.3755 116.364C61.1972 116.125 62.0532 116.005 62.9434 116.005ZM63.611 123.349C61.8991 123.418 60.7093 123.692 60.0417 124.171C59.3911 124.65 59.0658 125.326 59.0658 126.2C59.0658 126.97 59.297 127.535 59.7592 127.894C60.2385 128.254 60.8463 128.434 61.5824 128.434C62.7465 128.434 63.7138 128.117 64.4841 127.483C65.2545 126.833 65.6397 125.84 65.6397 124.505V123.272L63.611 123.349Z" fill="#535B64"/>
<path d="M78.5446 115.979C78.8014 115.979 79.0753 115.996 79.3663 116.031C79.6745 116.048 79.9398 116.082 80.1624 116.133L79.8799 118.213C79.6573 118.162 79.4091 118.119 79.1352 118.085C78.8784 118.051 78.6302 118.034 78.3905 118.034C77.6886 118.034 77.0295 118.23 76.4132 118.624C75.7969 119.001 75.3005 119.54 74.9238 120.242C74.5643 120.927 74.3846 121.731 74.3846 122.656V130H72.1248V116.236H73.9737L74.2305 118.753H74.3332C74.7783 117.999 75.3518 117.349 76.0537 116.801C76.7556 116.253 77.5859 115.979 78.5446 115.979Z" fill="#535B64"/>
<path d="M87.329 128.408C87.6714 128.408 88.0223 128.382 88.3819 128.331C88.7414 128.262 89.0324 128.194 89.2549 128.125V129.846C89.0153 129.966 88.6729 130.06 88.2278 130.128C87.7827 130.214 87.3547 130.257 86.9438 130.257C86.2248 130.257 85.5572 130.137 84.9409 129.897C84.3417 129.64 83.8538 129.204 83.4772 128.588C83.1005 127.971 82.9122 127.107 82.9122 125.994V117.982H80.9606V116.904L82.9379 116.005L83.8367 113.078H85.172V116.236H89.1522V117.982H85.172V125.943C85.172 126.782 85.3688 127.406 85.7626 127.817C86.1735 128.211 86.6956 128.408 87.329 128.408Z" fill="#535B64"/>
<path d="M98.6362 115.979C100.28 115.979 101.521 116.382 102.36 117.186C103.199 117.974 103.618 119.258 103.618 121.038V130H101.384V121.192C101.384 118.984 100.357 117.88 98.3024 117.88C96.7788 117.88 95.7259 118.307 95.1439 119.163C94.5618 120.019 94.2708 121.252 94.2708 122.861V130H92.011V116.236H93.8342L94.1681 118.111H94.2964C94.7416 117.392 95.3578 116.861 96.1453 116.519C96.9328 116.159 97.7631 115.979 98.6362 115.979Z" fill="#535B64"/>
<path d="M113.2 115.979C114.382 115.979 115.392 116.236 116.231 116.75C117.087 117.263 117.737 117.991 118.182 118.932C118.644 119.857 118.875 120.944 118.875 122.194V123.555H109.451C109.486 125.112 109.879 126.302 110.633 127.124C111.403 127.929 112.473 128.331 113.842 128.331C114.715 128.331 115.486 128.254 116.153 128.1C116.838 127.929 117.54 127.689 118.259 127.381V129.358C117.557 129.666 116.864 129.889 116.179 130.026C115.494 130.18 114.681 130.257 113.74 130.257C112.439 130.257 111.283 129.991 110.273 129.461C109.28 128.93 108.501 128.143 107.936 127.098C107.388 126.037 107.114 124.744 107.114 123.221C107.114 121.714 107.363 120.422 107.859 119.343C108.373 118.265 109.083 117.434 109.991 116.852C110.915 116.27 111.985 115.979 113.2 115.979ZM113.175 117.828C112.096 117.828 111.24 118.179 110.607 118.881C109.991 119.566 109.622 120.524 109.503 121.757H116.513C116.496 120.593 116.222 119.651 115.691 118.932C115.161 118.196 114.322 117.828 113.175 117.828Z" fill="#535B64"/>
<path d="M128.799 115.979C129.056 115.979 129.33 115.996 129.621 116.031C129.929 116.048 130.194 116.082 130.417 116.133L130.135 118.213C129.912 118.162 129.664 118.119 129.39 118.085C129.133 118.051 128.885 118.034 128.645 118.034C127.943 118.034 127.284 118.23 126.668 118.624C126.052 119.001 125.555 119.54 125.178 120.242C124.819 120.927 124.639 121.731 124.639 122.656V130H122.379V116.236H124.228L124.485 118.753H124.588C125.033 117.999 125.606 117.349 126.308 116.801C127.01 116.253 127.841 115.979 128.799 115.979Z" fill="#535B64"/>
<path d="M46.4454 70.8768C46.4454 71.69 46.1501 72.3234 45.5595 72.7771C44.9689 73.2308 44.1728 73.4576 43.1713 73.4576C42.6577 73.4576 42.1827 73.4191 41.7461 73.342C41.3096 73.265 40.9458 73.158 40.6548 73.021V71.9168C40.9629 72.0538 41.3438 72.1779 41.7975 72.2892C42.2597 72.4005 42.7348 72.4561 43.2227 72.4561C43.9075 72.4561 44.421 72.3234 44.7634 72.0581C45.1144 71.7927 45.2898 71.4332 45.2898 70.9796C45.2898 70.68 45.2256 70.4275 45.0973 70.222C44.9689 70.0166 44.7463 69.8283 44.4296 69.6571C44.1215 69.4773 43.6892 69.289 43.1328 69.0922C42.3539 68.8097 41.7633 68.463 41.361 68.0522C40.9672 67.6413 40.7703 67.0806 40.7703 66.3702C40.7703 65.8823 40.8945 65.4671 41.1427 65.1247C41.3909 64.7738 41.7333 64.5042 42.1698 64.3159C42.6149 64.1275 43.1243 64.0334 43.6977 64.0334C44.2028 64.0334 44.665 64.0805 45.0844 64.1746C45.5038 64.2688 45.8847 64.3929 46.2271 64.547L45.8676 65.5356C45.5509 65.3987 45.2043 65.2831 44.8276 65.1889C44.4596 65.0948 44.0744 65.0477 43.6721 65.0477C43.0986 65.0477 42.6663 65.1718 42.3753 65.4201C42.0843 65.6597 41.9387 65.9807 41.9387 66.383C41.9387 66.6912 42.0029 66.948 42.1313 67.1534C42.2597 67.3588 42.4694 67.5429 42.7605 67.7055C43.0515 67.8681 43.4452 68.0436 43.9417 68.2319C44.481 68.4288 44.9346 68.6428 45.3027 68.8739C45.6793 69.0964 45.9618 69.3661 46.1501 69.6828C46.347 69.9995 46.4454 70.3975 46.4454 70.8768Z" fill="#535B64"/>
<path d="M50.7958 66.3188C51.3864 66.3188 51.8914 66.4472 52.3108 66.704C52.7388 66.9608 53.0641 67.3246 53.2867 67.7954C53.5178 68.2576 53.6333 68.8011 53.6333 69.426V70.1065H48.9212C48.9383 70.8854 49.1352 71.4803 49.5118 71.8912C49.897 72.2935 50.432 72.4946 51.1168 72.4946C51.5533 72.4946 51.9385 72.4561 52.2723 72.3791C52.6147 72.2935 52.9657 72.1736 53.3252 72.0196V73.0082C52.9742 73.1623 52.6276 73.2736 52.2852 73.342C51.9428 73.4191 51.5362 73.4576 51.0654 73.4576C50.4149 73.4576 49.8371 73.3249 49.3321 73.0596C48.8356 72.7942 48.4462 72.4005 48.1637 71.8783C47.8898 71.3476 47.7528 70.7014 47.7528 69.9396C47.7528 69.1863 47.8769 68.5401 48.1252 68.0008C48.382 67.4615 48.7372 67.0464 49.1908 66.7554C49.6531 66.4643 50.1881 66.3188 50.7958 66.3188ZM50.7829 67.2433C50.2437 67.2433 49.8157 67.4187 49.499 67.7697C49.1908 68.1121 49.0068 68.5914 48.9469 69.2077H52.4521C52.4435 68.6257 52.3066 68.1549 52.0412 67.7954C51.7759 67.4273 51.3564 67.2433 50.7829 67.2433Z" fill="#535B64"/>
<path d="M56.5152 73.3292H55.3853V63.5712H56.5152V73.3292Z" fill="#535B64"/>
<path d="M61.3533 66.3188C61.9439 66.3188 62.4489 66.4472 62.8683 66.704C63.2963 66.9608 63.6216 67.3246 63.8441 67.7954C64.0752 68.2576 64.1908 68.8011 64.1908 69.426V70.1065H59.4787C59.4958 70.8854 59.6927 71.4803 60.0693 71.8912C60.4545 72.2935 60.9895 72.4946 61.6743 72.4946C62.1108 72.4946 62.496 72.4561 62.8298 72.3791C63.1722 72.2935 63.5231 72.1736 63.8827 72.0196V73.0082C63.5317 73.1623 63.185 73.2736 62.8427 73.342C62.5003 73.4191 62.0937 73.4576 61.6229 73.4576C60.9724 73.4576 60.3946 73.3249 59.8896 73.0596C59.3931 72.7942 59.0036 72.4005 58.7212 71.8783C58.4473 71.3476 58.3103 70.7014 58.3103 69.9396C58.3103 69.1863 58.4344 68.5401 58.6827 68.0008C58.9394 67.4615 59.2947 67.0464 59.7483 66.7554C60.2106 66.4643 60.7455 66.3188 61.3533 66.3188ZM61.3404 67.2433C60.8012 67.2433 60.3732 67.4187 60.0565 67.7697C59.7483 68.1121 59.5643 68.5914 59.5044 69.2077H63.0096C63.001 68.6257 62.8641 68.1549 62.5987 67.7954C62.3334 67.4273 61.9139 67.2433 61.3404 67.2433Z" fill="#535B64"/>
<path d="M68.7033 73.4576C68.0955 73.4576 67.552 73.3335 67.0727 73.0852C66.6019 72.837 66.2295 72.4518 65.9556 71.9297C65.6903 71.4075 65.5576 70.7399 65.5576 69.9267C65.5576 69.0793 65.6988 68.3903 65.9813 67.8596C66.2638 67.3289 66.6447 66.9394 67.124 66.6912C67.6119 66.4429 68.164 66.3188 68.7803 66.3188C69.1313 66.3188 69.4694 66.3573 69.7946 66.4344C70.1199 66.5029 70.3853 66.5885 70.5907 66.6912L70.244 67.6285C70.0386 67.5514 69.7989 67.4787 69.525 67.4102C69.2511 67.3417 68.9943 67.3075 68.7546 67.3075C67.4022 67.3075 66.726 68.1763 66.726 69.9139C66.726 70.7442 66.8886 71.3819 67.2139 71.827C67.5477 72.2635 68.0399 72.4818 68.6904 72.4818C69.0671 72.4818 69.3966 72.4433 69.6791 72.3662C69.9701 72.2892 70.2355 72.195 70.4751 72.0838V73.0852C70.244 73.2051 69.9872 73.295 69.7048 73.3549C69.4309 73.4233 69.097 73.4576 68.7033 73.4576Z" fill="#535B64"/>
<path d="M74.41 72.5331C74.5812 72.5331 74.7567 72.5203 74.9365 72.4946C75.1162 72.4604 75.2617 72.4261 75.373 72.3919V73.2522C75.2532 73.3121 75.082 73.3591 74.8594 73.3934C74.6369 73.4362 74.4229 73.4576 74.2175 73.4576C73.8579 73.4576 73.5241 73.3977 73.216 73.2778C72.9164 73.1494 72.6724 72.9312 72.4841 72.623C72.2958 72.3149 72.2016 71.8826 72.2016 71.3262V67.3203H71.2258V66.781L72.2145 66.3317L72.6639 64.868H73.3315V66.4472H75.3216V67.3203H73.3315V71.3005C73.3315 71.72 73.43 72.0324 73.6268 72.2378C73.8323 72.4347 74.0933 72.5331 74.41 72.5331Z" fill="#535B64"/>
</g>
<defs>
<clipPath id="clip0">
<rect width="250" height="130" fill="white"/>
</clipPath>
<clipPath id="clip1">
<rect width="170" height="47" fill="white" transform="translate(40)"/>
</clipPath>
</defs>
</svg>
