<svg width="250" height="130" viewBox="0 0 250 130" fill="none" xmlns="http://www.w3.org/2000/svg">
<rect width="250" height="130" fill="white"/>
<g filter="url(#filter0_d)">
<rect x="15" y="10" width="223" height="82" fill="white"/>
</g>
<path d="M58.2433 67.7677V81.182H53.9189V48.2954H65.1622C67.973 48.2954 70.3514 49.1608 72.5135 51.1081C74.4595 53.0553 75.5406 55.2189 75.5406 58.0316C75.5406 60.8442 74.4595 63.2242 72.5135 64.955C70.5676 66.9023 68.1892 67.7677 65.1622 67.7677H58.2433ZM58.2433 52.1899V63.6569H65.3784C67.1081 63.6569 68.4054 63.0078 69.4865 61.926C70.5676 60.8442 71.2162 59.5461 71.2162 57.8152C71.2162 56.3007 70.5676 55.0025 69.4865 53.9207C68.4054 52.8389 66.8919 52.1899 65.3784 52.1899H58.2433Z" fill="#777677"/>
<path d="M86.7838 57.8152C89.8109 57.8152 92.4055 58.6806 94.1352 60.4115C95.8649 62.1424 96.946 64.3059 96.946 67.335V81.1819H92.8379V78.1529H92.6217C90.8919 80.7492 88.5136 82.0474 85.7028 82.0474C83.3244 82.0474 81.1622 81.3983 79.4325 79.8838C77.7028 78.3693 76.8379 76.6384 76.8379 74.4748C76.8379 72.0949 77.7028 70.364 79.4325 68.8495C81.1622 67.5513 83.5406 66.6859 86.5676 66.6859C89.1622 66.6859 91.1082 67.1186 92.8379 67.984V67.1186C92.8379 65.6041 92.1892 64.306 91.1082 63.4405C90.0271 62.3587 88.5136 61.926 87 61.926C84.6217 61.926 82.6757 63.0078 81.3784 64.955L77.7028 62.3587C79.8649 59.3297 82.8919 57.8152 86.7838 57.8152ZM81.3784 74.2585C81.3784 75.3403 81.8109 76.2057 82.6757 77.0711C83.5406 77.7202 84.6217 78.1529 85.919 78.1529C87.6487 78.1529 89.3784 77.5038 90.6757 76.2057C91.973 74.9075 92.8379 73.393 92.8379 71.6621C91.5406 70.5804 89.5946 70.1476 87.4325 70.1476C85.7028 70.1476 84.1892 70.5804 83.1082 71.4458C82.0271 71.8785 81.3784 72.9603 81.3784 74.2585Z" fill="#777677"/>
<path d="M101.703 58.6806H105.811V62.3587H106.027C107.324 59.546 109.919 58.0315 113.811 58.0315H114.676V62.3587L112.73 62.1424C110.784 62.1424 109.054 62.7914 107.973 63.8732C106.676 65.1714 106.027 66.6859 106.027 68.4168V80.7492H101.703V58.6806ZM128.081 81.3983C126.351 81.3983 124.622 80.7492 123.54 79.6674C122.243 78.5856 121.811 76.8548 121.595 74.9075V62.3587H117.703V58.4643H121.595V51.5408H125.919V58.4643H131.324V62.3587H125.919V73.6094C125.919 75.1239 126.135 76.2057 126.784 76.6384C127.432 77.0711 128.081 77.5038 128.73 77.5038C129.162 77.5038 129.378 77.5038 129.811 77.2875C130.027 77.2875 130.459 77.0711 130.676 77.0711L131.973 80.7492C130.892 81.1819 129.595 81.3983 128.081 81.3983Z" fill="#777677"/>
<path d="M135.649 58.6806H139.757V61.7096H139.973C140.622 60.6279 141.703 59.7624 143 58.897C144.297 58.2479 145.811 57.8152 147.108 57.8152C149.919 57.8152 152.081 58.6806 153.378 60.1951C154.892 61.7096 155.541 64.0896 155.541 66.9023V80.9656H151.216V67.1186C151.216 63.4405 149.27 61.7096 145.595 61.7096C143.865 61.7096 142.568 62.3587 141.27 63.6569C140.189 64.955 139.541 66.6859 139.541 68.6331V81.182H135.216V58.6806H135.649Z" fill="#777677"/>
<path d="M170.676 81.8311C167.433 81.8311 164.622 80.7493 162.46 78.3693C160.297 76.2057 159.216 73.1767 159.216 69.715C159.216 66.2532 160.297 63.4406 162.243 61.0606C164.406 58.6807 167 57.5989 170.243 57.5989C173.487 57.5989 176.297 58.6807 178.243 60.8443C180.189 63.0078 181.27 66.0369 181.27 69.9313V70.364H163.541C163.541 72.5276 164.405 74.2585 165.703 75.773C167.216 77.0712 168.73 77.7202 170.676 77.7202C173.27 77.7202 175.433 76.4221 176.946 73.6094L180.622 75.3403C179.541 77.2875 178.243 78.802 176.514 79.8838C175 81.3983 172.838 81.8311 170.676 81.8311ZM163.757 67.1187H176.73C176.514 65.6042 175.865 64.306 174.784 63.2242C173.703 62.1424 172.189 61.7097 170.243 61.7097C168.73 61.7097 167.216 62.1424 166.135 63.2242C165.054 64.0896 164.189 65.3878 163.757 67.1187Z" fill="#777677"/>
<path d="M189.271 81.1819H184.946V58.6806H189.054V62.3587H189.271C189.703 61.0605 190.568 60.1951 191.865 59.3296C193.163 58.4642 194.46 58.0315 195.757 58.0315C197.054 58.0315 197.919 58.2479 198.784 58.6806L197.487 62.7914C197.054 62.575 196.19 62.575 195.108 62.575C193.595 62.575 192.081 63.2241 191 64.5223C189.919 65.8204 189.271 67.3349 189.271 69.0658V81.1819Z" fill="#777677"/>
<path d="M63.6488 29.0396V31.8523H70.5677C70.3515 33.5832 69.4866 35.0977 68.4056 36.1795C67.1083 37.2613 65.5947 37.694 63.865 37.694C61.7028 37.694 59.9731 37.0449 58.4596 35.5304C56.9461 34.0159 56.2974 32.285 56.2974 30.1214C56.2974 27.9578 56.9461 26.227 58.4596 24.7125C59.9731 23.1979 61.7028 22.5489 63.865 22.5489C65.811 22.5489 67.5407 23.1979 69.0542 24.4961L71.0001 22.5489C69.0542 20.6016 66.6758 19.7362 63.865 19.7362C61.9191 19.7362 60.1893 20.1689 58.4596 21.2507C56.7299 22.1162 55.4326 23.4143 54.5677 25.1452C53.7028 26.6597 53.0542 28.3906 53.0542 30.3378C53.0542 32.285 53.4866 34.0159 54.5677 35.5304C55.4326 37.0449 56.7299 38.3431 58.4596 39.4249C60.1893 40.2903 61.9191 40.9394 63.865 40.9394C66.6758 40.9394 69.0542 40.0739 71.0001 38.3431C72.5137 35.9631 73.3785 33.7995 73.3785 30.7705C73.3785 30.1214 73.3785 29.4724 73.3785 29.0396H63.6488Z" fill="#4385F5"/>
<path d="M81.1622 26.8761C79.2162 26.8761 77.7027 27.5252 76.4054 28.8233C75.1081 30.1215 74.4595 31.636 74.4595 33.5832C74.4595 35.5305 75.1081 37.045 76.4054 38.3431C77.7027 39.6413 79.2162 40.2903 81.1622 40.2903C83.1081 40.2903 84.6216 39.6413 85.9189 38.3431C87.2162 37.045 87.8649 35.5305 87.8649 33.5832C87.8649 31.636 87.2162 30.1215 85.9189 28.8233C84.8379 27.5252 83.1081 26.8761 81.1622 26.8761ZM83.973 36.6122C83.3243 37.4777 82.2433 37.694 81.3784 37.694C80.2973 37.694 79.4324 37.2613 78.5676 36.6122C77.9189 35.7468 77.4865 34.8814 77.4865 33.7996C77.4865 32.5014 77.9189 31.636 78.5676 30.9869C79.2162 30.1215 80.2973 29.9051 81.3784 29.9051C82.4595 29.9051 83.3243 30.3378 84.1892 30.9869C84.8379 31.636 85.2703 32.7178 85.2703 33.7996C85.0541 34.8814 84.6216 35.7468 83.973 36.6122Z" fill="#F44236"/>
<path d="M122.027 20.1688H119V40.0738H122.027V20.1688Z" fill="#30AA57"/>
<path d="M96.0811 26.8761C94.1352 26.8761 92.6217 27.5252 91.3244 28.8233C90.0271 30.1215 89.3784 31.636 89.3784 33.5832C89.3784 35.5305 90.0271 37.045 91.3244 38.3431C92.6217 39.6413 94.1352 40.2903 96.0811 40.2903C98.0271 40.2903 99.5406 39.6413 100.838 38.3431C102.135 37.045 102.784 35.5305 102.784 33.5832C102.784 31.636 102.135 30.1215 100.838 28.8233C99.5406 27.5252 98.0271 26.8761 96.0811 26.8761ZM98.6757 36.6122C98.0271 37.4777 96.946 37.694 96.0811 37.694C95 37.694 94.1352 37.2613 93.2703 36.6122C92.6217 35.7468 92.1892 34.8814 92.1892 33.7996C92.1892 32.5014 92.6217 31.636 93.2703 30.9869C93.919 30.1215 95 29.9051 96.0811 29.9051C97.1622 29.9051 98.0271 30.3378 98.8919 30.9869C99.5406 31.636 99.973 32.7178 99.973 33.7996C99.7568 34.8814 99.5406 35.7468 98.6757 36.6122Z" fill="#FDB905"/>
<path d="M130.244 37.694C128.73 37.694 127.649 37.0449 127 35.7468L136.082 32.0687L135.865 31.2032C135.649 30.5541 135.217 29.9051 135 29.4724C134.568 29.0396 134.136 28.3906 133.703 28.1742C132.838 27.7415 132.406 27.5251 131.757 27.3088C131.109 27.0924 130.46 27.0924 129.811 27.0924C128.082 27.0924 126.568 27.7415 125.271 29.0396C123.973 30.3378 123.541 31.8523 123.541 33.7995C123.541 35.7468 124.19 37.2613 125.487 38.5594C126.784 39.8576 128.298 40.5067 130.244 40.5067C132.622 40.5067 134.568 39.4249 135.865 37.4776L133.487 35.9631C132.622 37.2613 131.541 37.694 130.244 37.694ZM127.433 30.7705C128.082 29.9051 128.946 29.4724 130.028 29.4724C130.676 29.4724 131.109 29.6887 131.541 29.9051C131.973 30.1214 132.406 30.5541 132.406 30.9869L126.352 33.5832C126.352 32.285 126.784 31.4196 127.433 30.7705Z" fill="#F44236"/>
<path d="M114.244 28.3906C113.379 27.3088 112.082 26.8761 110.568 26.8761C108.838 26.8761 107.325 27.5252 106.027 28.8233C104.73 30.1215 104.082 31.8524 104.082 33.5832C104.082 35.5305 104.73 37.045 106.027 38.3431C107.325 39.6413 108.838 40.2903 110.568 40.2903C112.082 40.2903 113.379 39.8576 114.027 38.7758V39.4249C114.027 42.2376 112.73 43.7521 110.352 43.7521C109.487 43.7521 108.838 43.5357 108.406 43.103C107.757 42.6703 107.325 42.0212 107.109 41.3721L104.514 42.4539C104.73 43.103 105.163 43.5357 105.595 44.1848C106.027 44.6175 106.46 45.0502 106.892 45.483C107.325 45.9157 107.973 46.132 108.622 46.3484C109.271 46.5648 109.919 46.5648 110.568 46.5648C112.514 46.5648 114.244 45.9157 115.325 44.8339C116.406 43.5357 117.055 41.8049 117.055 39.6413V27.3088H114.244V28.3906ZM113.379 36.6122C112.73 37.4777 111.865 37.694 110.784 37.694C109.703 37.694 108.838 37.2613 108.19 36.6122C107.541 35.7468 107.109 34.8814 107.109 33.7996C107.109 32.7178 107.541 31.636 108.19 30.9869C108.838 30.1215 109.919 29.6888 110.784 29.6888C111.865 29.6888 112.73 30.1215 113.379 30.7706C114.027 31.636 114.46 32.5014 114.46 33.7996C114.46 34.8814 114.027 35.7468 113.379 36.6122Z" fill="#4385F5"/>
<path d="M36.6216 10H15V92H36.6216V10Z" fill="#4385F5"/>
<path d="M17.677 101.536C17.677 101.346 17.6095 101.199 17.4744 101.095C17.3413 100.992 17.1 100.888 16.7503 100.783C16.4007 100.677 16.1226 100.56 15.916 100.431C15.5207 100.183 15.3231 99.8588 15.3231 99.4595C15.3231 99.1099 15.4651 98.8218 15.7492 98.5954C16.0352 98.3689 16.4057 98.2557 16.8606 98.2557C17.1625 98.2557 17.4317 98.3113 17.6681 98.4226C17.9045 98.5338 18.0902 98.6927 18.2253 98.8993C18.3604 99.1039 18.4279 99.3314 18.4279 99.5817H17.677C17.677 99.3552 17.6055 99.1784 17.4625 99.0513C17.3215 98.9222 17.1188 98.8576 16.8546 98.8576C16.6083 98.8576 16.4166 98.9102 16.2795 99.0155C16.1445 99.1208 16.0769 99.2678 16.0769 99.4565C16.0769 99.6154 16.1504 99.7485 16.2974 99.8558C16.4444 99.9611 16.6868 100.064 17.0245 100.166C17.3622 100.265 17.6333 100.379 17.8379 100.508C18.0426 100.636 18.1925 100.783 18.2879 100.949C18.3832 101.114 18.4309 101.308 18.4309 101.53C18.4309 101.892 18.2919 102.18 18.0138 102.395C17.7376 102.607 17.3622 102.713 16.8874 102.713C16.5735 102.713 16.2845 102.656 16.0203 102.541C15.7581 102.423 15.5535 102.262 15.4065 102.058C15.2615 101.853 15.189 101.615 15.189 101.343H15.9428C15.9428 101.589 16.0243 101.78 16.1872 101.915C16.3501 102.05 16.5835 102.117 16.8874 102.117C17.1496 102.117 17.3463 102.065 17.4774 101.959C17.6105 101.852 17.677 101.711 17.677 101.536Z" fill="#777777"/>
<path d="M21.8457 101.075C21.8457 101.573 21.7325 101.971 21.506 102.269C21.2795 102.565 20.9756 102.713 20.5942 102.713C20.2406 102.713 19.9575 102.597 19.745 102.365V103.893H19.0209V99.4297H19.6884L19.7182 99.7575C19.9307 99.4992 20.2197 99.3701 20.5853 99.3701C20.9786 99.3701 21.2865 99.5171 21.509 99.8111C21.7335 100.103 21.8457 100.509 21.8457 101.03V101.075ZM21.1246 101.012C21.1246 100.69 21.06 100.435 20.9309 100.246C20.8038 100.057 20.621 99.9631 20.3826 99.9631C20.0867 99.9631 19.8741 100.085 19.745 100.33V101.76C19.8761 102.01 20.0906 102.135 20.3886 102.135C20.619 102.135 20.7988 102.043 20.9279 101.858C21.059 101.671 21.1246 101.389 21.1246 101.012Z" fill="#777777"/>
<path d="M23.8808 102.713C23.422 102.713 23.0495 102.569 22.7634 102.281C22.4794 101.991 22.3373 101.606 22.3373 101.125V101.036C22.3373 100.714 22.3989 100.427 22.5221 100.175C22.6472 99.9204 22.8221 99.7227 23.0465 99.5817C23.271 99.4406 23.5213 99.3701 23.7974 99.3701C24.2364 99.3701 24.5751 99.5102 24.8135 99.7903C25.0539 100.07 25.1741 100.467 25.1741 100.979V101.271H23.0674C23.0892 101.537 23.1776 101.748 23.3326 101.903C23.4895 102.058 23.6862 102.135 23.9226 102.135C24.2543 102.135 24.5245 102.001 24.7331 101.733L25.1234 102.106C24.9943 102.298 24.8215 102.448 24.6049 102.555C24.3904 102.661 24.149 102.713 23.8808 102.713ZM23.7944 99.9512C23.5958 99.9512 23.4349 100.021 23.3117 100.16C23.1905 100.299 23.1131 100.492 23.0793 100.741H24.4589V100.687C24.443 100.445 24.3785 100.262 24.2652 100.139C24.152 100.014 23.9951 99.9512 23.7944 99.9512Z" fill="#777777"/>
<path d="M27.0632 102.135C27.244 102.135 27.394 102.083 27.5131 101.977C27.6323 101.872 27.6959 101.742 27.7038 101.587H28.3862C28.3783 101.788 28.3157 101.975 28.1985 102.15C28.0813 102.323 27.9224 102.46 27.7217 102.561C27.5211 102.663 27.3046 102.713 27.0721 102.713C26.6212 102.713 26.2636 102.567 25.9994 102.275C25.7352 101.983 25.6031 101.58 25.6031 101.066V100.991C25.6031 100.5 25.7342 100.108 25.9965 99.8141C26.2587 99.5181 26.6162 99.3701 27.0692 99.3701C27.4526 99.3701 27.7644 99.4823 28.0048 99.7068C28.2472 99.9293 28.3743 100.222 28.3862 100.586H27.7038C27.6959 100.401 27.6323 100.249 27.5131 100.13C27.3959 100.011 27.246 99.9512 27.0632 99.9512C26.8288 99.9512 26.648 100.037 26.5209 100.207C26.3938 100.376 26.3292 100.634 26.3272 100.979V101.095C26.3272 101.445 26.3898 101.706 26.5149 101.879C26.6421 102.05 26.8248 102.135 27.0632 102.135Z" fill="#777777"/>
<path d="M29.7032 102.654H28.9792V99.4297H29.7032V102.654ZM28.9345 98.5924C28.9345 98.4812 28.9692 98.3888 29.0388 98.3153C29.1103 98.2418 29.2116 98.205 29.3427 98.205C29.4738 98.205 29.5751 98.2418 29.6466 98.3153C29.7181 98.3888 29.7539 98.4812 29.7539 98.5924C29.7539 98.7017 29.7181 98.793 29.6466 98.8665C29.5751 98.938 29.4738 98.9738 29.3427 98.9738C29.2116 98.9738 29.1103 98.938 29.0388 98.8665C28.9692 98.793 28.9345 98.7017 28.9345 98.5924Z" fill="#777777"/>
<path d="M32.4208 102.654C32.389 102.592 32.3612 102.492 32.3373 102.353C32.1069 102.593 31.8248 102.713 31.4911 102.713C31.1673 102.713 30.9031 102.621 30.6985 102.436C30.4939 102.252 30.3916 102.023 30.3916 101.751C30.3916 101.407 30.5187 101.144 30.773 100.961C31.0292 100.777 31.3947 100.684 31.8695 100.684H32.3135V100.473C32.3135 100.306 32.2668 100.173 32.1734 100.073C32.0801 99.972 31.938 99.9214 31.7473 99.9214C31.5825 99.9214 31.4474 99.9631 31.3421 100.047C31.2368 100.128 31.1842 100.232 31.1842 100.359H30.4601C30.4601 100.183 30.5187 100.018 30.6359 99.8647C30.7531 99.7098 30.912 99.5886 31.1127 99.5012C31.3153 99.4138 31.5408 99.3701 31.7891 99.3701C32.1665 99.3701 32.4674 99.4655 32.6919 99.6562C32.9164 99.8449 33.0316 100.111 33.0376 100.455V101.909C33.0376 102.199 33.0783 102.43 33.1597 102.603V102.654H32.4208ZM31.6252 102.132C31.7682 102.132 31.9023 102.098 32.0274 102.028C32.1546 101.959 32.2499 101.865 32.3135 101.748V101.14H31.9232C31.655 101.14 31.4533 101.187 31.3183 101.28C31.1832 101.373 31.1156 101.506 31.1156 101.676C31.1156 101.815 31.1613 101.927 31.2527 102.01C31.3461 102.092 31.4702 102.132 31.6252 102.132Z" fill="#777777"/>
<path d="M34.5662 102.654H33.8421V98.0769H34.5662V102.654Z" fill="#777777"/>
<path d="M36.1276 102.654H35.4035V99.4297H36.1276V102.654ZM35.3588 98.5924C35.3588 98.4812 35.3935 98.3888 35.4631 98.3153C35.5346 98.2418 35.6359 98.205 35.767 98.205C35.8981 98.205 35.9994 98.2418 36.0709 98.3153C36.1425 98.3888 36.1782 98.4812 36.1782 98.5924C36.1782 98.7017 36.1425 98.793 36.0709 98.8665C35.9994 98.938 35.8981 98.9738 35.767 98.9738C35.6359 98.9738 35.5346 98.938 35.4631 98.8665C35.3935 98.793 35.3588 98.7017 35.3588 98.5924Z" fill="#777777"/>
<path d="M37.6919 102.076H39.4082V102.654H36.792V102.18L38.4279 100.014H36.8218V99.4297H39.3457V99.8886L37.6919 102.076Z" fill="#777777"/>
<path d="M41.36 102.713C40.9011 102.713 40.5286 102.569 40.2426 102.281C39.9585 101.991 39.8165 101.606 39.8165 101.125V101.036C39.8165 100.714 39.878 100.427 40.0012 100.175C40.1264 99.9204 40.3012 99.7227 40.5256 99.5817C40.7501 99.4406 41.0004 99.3701 41.2765 99.3701C41.7155 99.3701 42.0542 99.5102 42.2926 99.7903C42.533 100.07 42.6532 100.467 42.6532 100.979V101.271H40.5465C40.5684 101.537 40.6567 101.748 40.8117 101.903C40.9686 102.058 41.1653 102.135 41.4017 102.135C41.7334 102.135 42.0036 102.001 42.2122 101.733L42.6025 102.106C42.4734 102.298 42.3006 102.448 42.084 102.555C41.8695 102.661 41.6281 102.713 41.36 102.713ZM41.2736 99.9512C41.0749 99.9512 40.914 100.021 40.7908 100.16C40.6697 100.299 40.5922 100.492 40.5584 100.741H41.938V100.687C41.9221 100.445 41.8576 100.262 41.7444 100.139C41.6311 100.014 41.4742 99.9512 41.2736 99.9512Z" fill="#777777"/>
<path d="M43.0823 101.018C43.0823 100.521 43.1975 100.123 43.4279 99.823C43.6583 99.5211 43.9672 99.3701 44.3546 99.3701C44.6963 99.3701 44.9724 99.4893 45.183 99.7277V98.0769H45.907V102.654H45.2515L45.2157 102.32C44.9992 102.582 44.7102 102.713 44.3486 102.713C43.9712 102.713 43.6653 102.561 43.4309 102.257C43.1985 101.954 43.0823 101.54 43.0823 101.018ZM43.8063 101.08C43.8063 101.408 43.8689 101.665 43.9941 101.849C44.1212 102.032 44.301 102.123 44.5334 102.123C44.8294 102.123 45.0459 101.991 45.183 101.727V100.35C45.0499 100.092 44.8353 99.9631 44.5393 99.9631C44.3049 99.9631 44.1242 100.056 43.997 100.243C43.8699 100.428 43.8063 100.707 43.8063 101.08Z" fill="#777777"/>
<path d="M48.9523 102.654H48.2283V99.4297H48.9523V102.654ZM48.1836 98.5924C48.1836 98.4812 48.2183 98.3888 48.2878 98.3153C48.3594 98.2418 48.4607 98.205 48.5918 98.205C48.7229 98.205 48.8242 98.2418 48.8957 98.3153C48.9672 98.3888 49.003 98.4812 49.003 98.5924C49.003 98.7017 48.9672 98.793 48.8957 98.8665C48.8242 98.938 48.7229 98.9738 48.5918 98.9738C48.4607 98.9738 48.3594 98.938 48.2878 98.8665C48.2183 98.793 48.1836 98.7017 48.1836 98.5924Z" fill="#777777"/>
<path d="M50.4154 99.4297L50.4362 99.8022C50.6746 99.5141 50.9875 99.3701 51.3749 99.3701C52.0463 99.3701 52.388 99.7545 52.3999 100.523V102.654H51.6758V100.565C51.6758 100.36 51.6311 100.209 51.5417 100.112C51.4543 100.013 51.3103 99.9631 51.1097 99.9631C50.8176 99.9631 50.6001 100.095 50.4571 100.359V102.654H49.733V99.4297H50.4154Z" fill="#777777"/>
<path d="M53.5769 101.891C53.712 101.891 53.8162 101.93 53.8897 102.007C53.9632 102.083 54 102.178 54 102.293C54 102.406 53.9632 102.501 53.8897 102.576C53.8162 102.65 53.712 102.687 53.5769 102.687C53.4478 102.687 53.3455 102.65 53.27 102.576C53.1945 102.503 53.1567 102.408 53.1567 102.293C53.1567 102.178 53.1935 102.083 53.267 102.007C53.3405 101.93 53.4438 101.891 53.5769 101.891ZM53.5769 99.3612C53.712 99.3612 53.8162 99.3999 53.8897 99.4774C53.9632 99.5529 54 99.6482 54 99.7634C54 99.8767 53.9632 99.971 53.8897 100.047C53.8162 100.12 53.712 100.157 53.5769 100.157C53.4478 100.157 53.3455 100.12 53.27 100.047C53.1945 99.973 53.1567 99.8787 53.1567 99.7634C53.1567 99.6482 53.1935 99.5529 53.267 99.4774C53.3405 99.3999 53.4438 99.3612 53.5769 99.3612Z" fill="#777777"/>
<path d="M17.677 125.901C17.677 125.711 17.6095 125.564 17.4744 125.46C17.3413 125.357 17.1 125.253 16.7503 125.148C16.4007 125.042 16.1226 124.925 15.916 124.796C15.5207 124.548 15.3231 124.224 15.3231 123.825C15.3231 123.475 15.4651 123.187 15.7492 122.96C16.0352 122.734 16.4057 122.621 16.8606 122.621C17.1625 122.621 17.4317 122.676 17.6681 122.788C17.9045 122.899 18.0902 123.058 18.2253 123.264C18.3604 123.469 18.4279 123.696 18.4279 123.947H17.677C17.677 123.72 17.6055 123.544 17.4625 123.416C17.3215 123.287 17.1188 123.223 16.8546 123.223C16.6083 123.223 16.4166 123.275 16.2795 123.381C16.1445 123.486 16.0769 123.633 16.0769 123.822C16.0769 123.981 16.1504 124.114 16.2974 124.221C16.4444 124.326 16.6868 124.429 17.0245 124.531C17.3622 124.63 17.6333 124.744 17.8379 124.873C18.0426 125.001 18.1925 125.148 18.2879 125.314C18.3832 125.479 18.4309 125.673 18.4309 125.896C18.4309 126.257 18.2919 126.545 18.0138 126.76C17.7376 126.972 17.3622 127.078 16.8874 127.078C16.5735 127.078 16.2845 127.021 16.0203 126.906C15.7581 126.788 15.5535 126.628 15.4065 126.423C15.2615 126.218 15.189 125.98 15.189 125.708H15.9428C15.9428 125.954 16.0243 126.145 16.1872 126.28C16.3501 126.415 16.5835 126.483 16.8874 126.483C17.1496 126.483 17.3463 126.43 17.4774 126.325C17.6105 126.217 17.677 126.076 17.677 125.901Z" fill="#777777"/>
<path d="M20.4422 127.078C19.9834 127.078 19.6109 126.934 19.3248 126.646C19.0408 126.356 18.8987 125.971 18.8987 125.49V125.401C18.8987 125.079 18.9603 124.792 19.0835 124.54C19.2086 124.285 19.3834 124.088 19.6079 123.947C19.8324 123.806 20.0827 123.735 20.3588 123.735C20.7978 123.735 21.1365 123.875 21.3749 124.155C21.6153 124.435 21.7354 124.832 21.7354 125.344V125.636H19.6288C19.6506 125.902 19.739 126.113 19.894 126.268C20.0509 126.423 20.2476 126.5 20.484 126.5C20.8157 126.5 21.0859 126.366 21.2944 126.098L21.6848 126.471C21.5557 126.663 21.3828 126.813 21.1663 126.921C20.9518 127.026 20.7104 127.078 20.4422 127.078ZM20.3558 124.316C20.1572 124.316 19.9963 124.386 19.8731 124.525C19.7519 124.664 19.6745 124.858 19.6407 125.106H21.0203V125.052C21.0044 124.81 20.9399 124.627 20.8266 124.504C20.7134 124.379 20.5565 124.316 20.3558 124.316Z" fill="#777777"/>
<path d="M24.2265 127.019C24.1947 126.957 24.1669 126.857 24.1431 126.718C23.9126 126.958 23.6306 127.078 23.2968 127.078C22.973 127.078 22.7088 126.986 22.5042 126.801C22.2996 126.617 22.1973 126.388 22.1973 126.116C22.1973 125.772 22.3244 125.509 22.5787 125.326C22.835 125.142 23.2005 125.049 23.6752 125.049H24.1192V124.838C24.1192 124.671 24.0725 124.538 23.9792 124.438C23.8858 124.337 23.7438 124.286 23.5531 124.286C23.3882 124.286 23.2531 124.328 23.1478 124.412C23.0426 124.493 22.9899 124.597 22.9899 124.724H22.2658C22.2658 124.548 22.3244 124.383 22.4416 124.23C22.5588 124.075 22.7178 123.954 22.9184 123.866C23.121 123.779 23.3465 123.735 23.5948 123.735C23.9722 123.735 24.2732 123.831 24.4977 124.021C24.7221 124.21 24.8373 124.476 24.8433 124.82V126.274C24.8433 126.564 24.884 126.795 24.9655 126.968V127.019H24.2265ZM23.4309 126.497C23.5739 126.497 23.708 126.463 23.8332 126.393C23.9603 126.324 24.0557 126.23 24.1192 126.113V125.505H23.7289C23.4607 125.505 23.2591 125.552 23.124 125.645C22.9889 125.739 22.9214 125.871 22.9214 126.042C22.9214 126.181 22.9671 126.292 23.0584 126.375C23.1518 126.457 23.276 126.497 23.4309 126.497Z" fill="#777777"/>
<path d="M27.2897 124.456C27.1943 124.44 27.096 124.432 26.9947 124.432C26.6629 124.432 26.4394 124.56 26.3242 124.814V127.019H25.6002V123.795H26.2915L26.3093 124.155C26.4841 123.875 26.7265 123.735 27.0364 123.735C27.1397 123.735 27.2251 123.749 27.2926 123.777L27.2897 124.456Z" fill="#777777"/>
<path d="M29.012 126.5C29.1927 126.5 29.3427 126.448 29.4619 126.342C29.5811 126.237 29.6446 126.107 29.6526 125.952H30.335C30.327 126.153 30.2644 126.341 30.1472 126.515C30.03 126.688 29.8711 126.825 29.6705 126.927C29.4698 127.028 29.2533 127.078 29.0209 127.078C28.57 127.078 28.2124 126.932 27.9482 126.64C27.684 126.348 27.5519 125.945 27.5519 125.431V125.356C27.5519 124.866 27.683 124.473 27.9452 124.179C28.2074 123.883 28.565 123.735 29.0179 123.735C29.4013 123.735 29.7132 123.847 29.9535 124.072C30.1959 124.294 30.323 124.587 30.335 124.951H29.6526C29.6446 124.766 29.5811 124.614 29.4619 124.495C29.3447 124.376 29.1947 124.316 29.012 124.316C28.7775 124.316 28.5968 124.402 28.4696 124.573C28.3425 124.741 28.2779 124.999 28.276 125.344V125.46C28.276 125.81 28.3385 126.071 28.4637 126.244C28.5908 126.415 28.7736 126.5 29.012 126.5Z" fill="#777777"/>
<path d="M31.5954 124.146C31.8318 123.872 32.1307 123.735 32.4923 123.735C33.1796 123.735 33.5282 124.128 33.5382 124.912V127.019H32.8141V124.939C32.8141 124.717 32.7654 124.56 32.6681 124.468C32.5727 124.375 32.4317 124.328 32.245 124.328C31.9549 124.328 31.7384 124.457 31.5954 124.716V127.019H30.8713V122.442H31.5954V124.146Z" fill="#777777"/>
<path d="M37.7187 127.019C37.6869 126.957 37.6591 126.857 37.6353 126.718C37.4049 126.958 37.1228 127.078 36.7891 127.078C36.4653 127.078 36.2011 126.986 35.9964 126.801C35.7918 126.617 35.6895 126.388 35.6895 126.116C35.6895 125.772 35.8167 125.509 36.0709 125.326C36.3272 125.142 36.6927 125.049 37.1675 125.049H37.6115V124.838C37.6115 124.671 37.5648 124.538 37.4714 124.438C37.378 124.337 37.236 124.286 37.0453 124.286C36.8804 124.286 36.7454 124.328 36.6401 124.412C36.5348 124.493 36.4821 124.597 36.4821 124.724H35.7581C35.7581 124.548 35.8167 124.383 35.9339 124.23C36.0511 124.075 36.21 123.954 36.4106 123.866C36.6133 123.779 36.8387 123.735 37.087 123.735C37.4645 123.735 37.7654 123.831 37.9899 124.021C38.2144 124.21 38.3296 124.476 38.3355 124.82V126.274C38.3355 126.564 38.3763 126.795 38.4577 126.968V127.019H37.7187ZM36.9231 126.497C37.0662 126.497 37.2003 126.463 37.3254 126.393C37.4525 126.324 37.5479 126.23 37.6115 126.113V125.505H37.2211C36.9529 125.505 36.7513 125.552 36.6162 125.645C36.4812 125.739 36.4136 125.871 36.4136 126.042C36.4136 126.181 36.4593 126.292 36.5507 126.375C36.644 126.457 36.7682 126.497 36.9231 126.497Z" fill="#777777"/>
<path d="M38.9583 125.383C38.9583 124.886 39.0735 124.488 39.304 124.188C39.5344 123.886 39.8433 123.735 40.2306 123.735C40.5723 123.735 40.8484 123.854 41.059 124.093V122.442H41.7831V127.019H41.1275L41.0918 126.685C40.8753 126.947 40.5862 127.078 40.2247 127.078C39.8473 127.078 39.5413 126.927 39.3069 126.623C39.0745 126.319 38.9583 125.905 38.9583 125.383ZM39.6824 125.446C39.6824 125.773 39.745 126.03 39.8701 126.214C39.9972 126.397 40.177 126.488 40.4094 126.488C40.7054 126.488 40.9219 126.356 41.059 126.092V124.716C40.9259 124.457 40.7114 124.328 40.4154 124.328C40.181 124.328 40.0002 124.422 39.8731 124.608C39.7459 124.793 39.6824 125.072 39.6824 125.446Z" fill="#777777"/>
<path d="M44.3457 126.143C44.3457 126.014 44.292 125.915 44.1848 125.848C44.0795 125.78 43.9037 125.721 43.6573 125.669C43.411 125.617 43.2054 125.552 43.0405 125.472C42.679 125.298 42.4982 125.044 42.4982 124.713C42.4982 124.434 42.6154 124.202 42.8498 124.015C43.0842 123.829 43.3822 123.735 43.7438 123.735C44.1291 123.735 44.44 123.831 44.6764 124.021C44.9148 124.212 45.034 124.459 45.034 124.763H44.3099C44.3099 124.624 44.2583 124.509 44.155 124.418C44.0517 124.324 43.9146 124.278 43.7438 124.278C43.5848 124.278 43.4547 124.314 43.3534 124.388C43.2541 124.461 43.2044 124.56 43.2044 124.683C43.2044 124.794 43.2511 124.88 43.3445 124.942C43.4378 125.004 43.6266 125.066 43.9106 125.13C44.1947 125.191 44.4172 125.266 44.5781 125.353C44.741 125.439 44.8612 125.542 44.9386 125.663C45.0181 125.784 45.0578 125.931 45.0578 126.104C45.0578 126.394 44.9376 126.63 44.6973 126.81C44.4569 126.989 44.142 127.078 43.7527 127.078C43.4885 127.078 43.2531 127.031 43.0465 126.935C42.8399 126.84 42.679 126.709 42.5638 126.542C42.4486 126.375 42.391 126.195 42.391 126.003H43.0942C43.1041 126.174 43.1687 126.306 43.2879 126.399C43.407 126.49 43.565 126.536 43.7616 126.536C43.9523 126.536 44.0973 126.5 44.1967 126.429C44.296 126.355 44.3457 126.26 44.3457 126.143Z" fill="#777777"/>
<path d="M32.1322 106.692L35.9463 118.516H33.2097C32.5638 118.516 31.9879 118.109 31.7719 117.5L27.9368 106.692H32.1322Z" fill="#119657"/>
<path d="M27.5548 106.692L23.7407 118.516H26.4773C27.1232 118.516 27.6991 118.109 27.9151 117.5L31.7502 106.692H27.5548Z" fill="#4F8EF5"/>
<defs>
<filter id="filter0_d" x="11" y="6" width="235" height="94" filterUnits="userSpaceOnUse" color-interpolation-filters="sRGB">
<feFlood flood-opacity="0" result="BackgroundImageFix"/>
<feColorMatrix in="SourceAlpha" type="matrix" values="0 0 0 0 0 0 0 0 0 0 0 0 0 0 0 0 0 0 127 0" result="hardAlpha"/>
<feOffset dx="2" dy="2"/>
<feGaussianBlur stdDeviation="3"/>
<feComposite in2="hardAlpha" operator="out"/>
<feColorMatrix type="matrix" values="0 0 0 0 0.304583 0 0 0 0 0.3383 0 0 0 0 0.425 0 0 0 0.15 0"/>
<feBlend mode="normal" in2="BackgroundImageFix" result="effect1_dropShadow"/>
<feBlend mode="normal" in="SourceGraphic" in2="effect1_dropShadow" result="shape"/>
</filter>
</defs>
</svg>
