<svg width="250" height="130" viewBox="0 0 250 130" fill="none" xmlns="http://www.w3.org/2000/svg">
<rect width="250" height="130" fill="white"/>
<g clip-path="url(#clip0)">
<path d="M83.4767 34.5988H118.692V47.4724H83.4767V34.5988ZM83.1024 86.6546H118.318V73.9681H97.473V67.157H118.318V54.2834H83.1024V86.6546ZM169.999 66.7828H185.343L188.337 56.8282L192.042 66.7828H206.113L196.158 34.5988H180.665L169.999 66.7828ZM163.413 86.6546H212.625L208.583 73.7061H167.829L163.413 86.6546ZM162.365 72.3589C162.365 66.7828 159.109 62.3668 154.356 60.3086C158.772 58.138 161.841 53.7969 161.841 48.5202C161.841 41.2227 156.228 35.2349 149.042 34.6362V34.5988H145.263H124.231V47.4724H133.886H143.466C145.337 47.4724 146.872 49.0067 146.872 50.8779C146.872 52.7491 145.337 54.2834 143.466 54.2834H135.083H124.231V67.0822H143.466C145.337 67.0822 146.872 68.6165 146.872 70.4877C146.872 72.3589 145.337 73.8932 143.466 73.8932H124.231V86.6172H145.263H148.743C156.19 86.2429 162.365 79.8435 162.365 72.3589ZM16.1147 36.9938H20.2313V34.973H13.757V49.1564H20.2313V47.0981H16.1147V42.9441H19.3705V40.9233H16.1147V36.9938ZM20.9423 34.973V45.7509C20.9423 48.0337 22.1399 49.3061 24.4975 49.3061C26.8178 49.3061 28.0527 47.9963 28.0527 45.7509V34.973H25.8074V45.9006C25.8074 46.911 25.3209 47.2853 24.5724 47.2853C23.8239 47.2853 23.3374 46.911 23.3374 45.9006V34.973H20.9423ZM36.8098 45.7509C36.8098 48.0337 38.0822 49.3061 40.4024 49.3061C42.7227 49.3061 43.9951 47.9963 43.9951 45.7509V38.3785C43.9951 36.0957 42.7227 34.8233 40.4024 34.8233C38.0822 34.8233 36.8098 36.1331 36.8098 38.3785V45.7509ZM39.2049 38.2288C39.2049 37.2184 39.6914 36.8442 40.4399 36.8442C41.1883 36.8442 41.6748 37.2184 41.6748 38.2288V45.9006C41.6748 46.911 41.1883 47.2853 40.4399 47.2853C39.6914 47.2853 39.2049 46.911 39.2049 45.9006V38.2288ZM51.9662 38.4534C51.9662 36.1705 50.8061 34.9356 48.411 34.9356H44.9307V49.119H47.2883V43.8049H48.411C50.7687 43.8049 51.9662 42.5699 51.9662 40.2871V38.4534ZM48.411 36.9938C49.1595 36.9938 49.5712 37.3307 49.5712 38.3411V40.4742C49.5712 41.4846 49.1595 41.8214 48.411 41.8214H47.2883V36.9938H48.411ZM54.773 36.9938H58.8896V34.973H52.4153V49.1564H58.8896V47.0981H54.773V42.9441H58.0288V40.9233H54.773V36.9938ZM64.9521 34.973H61.5092L59.0767 49.1564H61.2472L61.6589 46.5742H64.5779L64.9896 49.1564H67.3846L64.9521 34.973ZM63.081 37.4803H63.1184L64.2411 44.6656H61.9583L63.081 37.4803ZM72.9233 49.119H75.3558V34.9356H73.2601V43.4307H73.2227L70.8276 34.9356H67.8337V49.119H69.9669V38.865H70.0043L72.9233 49.119ZM17.3123 74.9411H14.6926L12.8589 86.3178H14.5055L14.8049 84.2595H17.0129L17.3123 86.3178H19.1086L17.3123 74.9411ZM15.8902 76.9619L16.7509 82.7251H15.0294L15.8902 76.9619ZM22.3644 74.7914C20.6429 74.7914 19.7448 75.8392 19.7448 77.6356C19.7448 78.9454 20.2313 79.881 21.7282 81.1908C22.8883 82.2012 23.2626 82.8374 23.2626 83.6607C23.2626 84.484 22.8883 84.7834 22.327 84.7834C21.7656 84.7834 21.3914 84.484 21.3914 83.6607V82.8374H19.7074V83.5484C19.7074 85.3822 20.6055 86.3926 22.3644 86.3926C24.1233 86.3926 25.0215 85.3448 25.0215 83.5484C25.0215 82.2386 24.535 81.303 23.038 79.9932C21.8779 78.9828 21.5037 78.3466 21.5037 77.5233C21.5037 76.7 21.8405 76.4006 22.4018 76.4006C22.9632 76.4006 23.3 76.7 23.3 77.5233V78.0098H24.984V77.6356C24.984 75.8392 24.1233 74.7914 22.3644 74.7914ZM28.4644 74.7914C26.7429 74.7914 25.8448 75.8392 25.8448 77.6356C25.8448 78.9454 26.3313 79.881 27.8282 81.1908C28.9883 82.2012 29.3626 82.8374 29.3626 83.6607C29.3626 84.484 28.9883 84.7834 28.427 84.7834C27.8656 84.7834 27.4914 84.484 27.4914 83.6607V82.8374H25.8074V83.5484C25.8074 85.3822 26.7055 86.3926 28.4644 86.3926C30.2233 86.3926 31.1215 85.3448 31.1215 83.5484C31.1215 82.2386 30.635 81.303 29.138 79.9932C27.9779 78.9828 27.6037 78.3466 27.6037 77.5233C27.6037 76.7 27.9405 76.4006 28.5018 76.4006C29.0632 76.4006 29.4 76.7 29.4 77.5233V78.0098H31.084V77.6356C31.084 75.8392 30.1859 74.7914 28.4644 74.7914ZM31.9822 83.5859C31.9822 85.4196 32.9552 86.43 34.7141 86.43C36.473 86.43 37.4086 85.3822 37.4086 83.5859V77.673C37.4086 75.8392 36.4356 74.8288 34.7141 74.8288C32.9552 74.8288 31.9822 75.8767 31.9822 77.673V83.5859ZM33.7785 77.5607C33.7785 76.7374 34.1528 76.438 34.7141 76.438C35.2754 76.438 35.6497 76.7374 35.6497 77.5607V83.6981C35.6497 84.5214 35.2754 84.8208 34.7141 84.8208C34.1528 84.8208 33.7785 84.5214 33.7785 83.6981V77.5607ZM42.0491 82.0515V83.6607C42.0491 84.484 41.6748 84.7834 41.1135 84.7834C40.5521 84.7834 40.1779 84.484 40.1779 83.6607V77.5233C40.1779 76.7 40.5521 76.4006 41.1135 76.4006C41.6748 76.4006 42.0491 76.7 42.0491 77.5233V78.7583H43.7331V77.6356C43.7331 75.8018 42.835 74.7914 41.0761 74.7914C39.3172 74.7914 38.419 75.8392 38.419 77.6356V83.5484C38.419 85.3822 39.3172 86.3926 41.0761 86.3926C42.835 86.3926 43.7331 85.3448 43.7331 83.5484V82.0515H42.0491ZM44.8184 86.3178H46.6147V74.9411H44.8184V86.3178ZM51.8914 74.9411H49.2718L47.438 86.3178H49.0847L49.384 84.2595H51.592L51.8914 86.3178H53.6877L51.8914 74.9411ZM50.4693 76.9619L51.3301 82.7251H49.6086L50.4693 76.9619ZM53.3883 76.5503H55.2595V86.3178H57.0558V76.5503H58.927V74.9411H53.3883V76.5503ZM59.7129 86.3178H61.5092V74.9411H59.7129V86.3178ZM62.6319 83.5859C62.6319 85.4196 63.6049 86.43 65.3264 86.43C67.0853 86.43 68.0583 85.3822 68.0583 83.5859V77.673C68.0583 75.8392 67.0853 74.8288 65.3264 74.8288C63.5675 74.8288 62.6319 75.8767 62.6319 77.673V83.5859ZM64.4282 77.5607C64.4282 76.7374 64.8024 76.438 65.3638 76.438C65.9251 76.438 66.2994 76.7374 66.2994 77.5607V83.6981C66.2994 84.5214 65.9251 84.8208 65.3638 84.8208C64.8024 84.8208 64.4282 84.5214 64.4282 83.6981V77.5607ZM73.0356 86.3178H74.8693V74.9411H73.2601V81.7521H73.2227L71.4264 74.9411H69.181V86.3178H70.7902V78.0846H70.865L73.0356 86.3178ZM20.9423 57.8012C20.9423 55.4061 19.857 54.2086 17.3123 54.2086H13.6074V69.7767H17.462C19.9319 69.7767 21.2043 68.5043 21.2043 66.0718V64.7994C21.2043 63.1527 20.6804 61.9926 19.3705 61.5061V61.4687C20.4558 60.9448 20.9423 59.9718 20.9423 58.3626V57.8012ZM17.2374 56.454C18.0981 56.454 18.4724 56.9405 18.4724 58.0632V58.9239C18.4724 60.1589 17.911 60.5705 17.0129 60.5705H16.0399V56.454H17.2374ZM17.1626 62.7785C18.2853 62.7785 18.7343 63.2276 18.7343 64.6497V65.9969C18.7343 67.157 18.2853 67.5313 17.462 67.5313H16.0399V62.7411H17.1626V62.7785ZM22.3644 54.2086V66.0343C22.3644 68.5043 23.5994 69.9264 26.0319 69.9264C28.4644 69.9264 29.6994 68.5043 29.6994 66.0343V54.2086H27.3791V66.2215C27.3791 67.3442 26.8926 67.7184 26.1067 67.7184C25.3208 67.7184 24.8343 67.3067 24.8343 66.2215V54.2086H22.3644ZM34.4896 54.0589C32.0945 54.0589 30.8595 55.481 30.8595 57.9509C30.8595 59.7098 31.4957 61.0196 33.554 62.8159C35.1632 64.2006 35.6497 65.0613 35.6497 66.184C35.6497 67.3067 35.1632 67.681 34.3773 67.681C33.5914 67.681 33.1049 67.2693 33.1049 66.184V65.0613H30.7847V66.0343C30.7847 68.5043 32.0196 69.9264 34.4521 69.9264C36.8847 69.9264 38.1196 68.5043 38.1196 66.0343C38.1196 64.2754 37.4834 62.9656 35.4251 61.1693C33.8159 59.7846 33.3294 58.9239 33.3294 57.8012C33.3294 56.6785 33.7785 56.2669 34.5644 56.2669C35.3503 56.2669 35.7994 56.6785 35.7994 57.8012V58.4374H38.1196V57.9509C38.1196 55.481 36.8847 54.0589 34.4896 54.0589ZM39.3172 69.7767H41.7871V54.2086H39.3172V69.7767ZM48.6356 69.7767H51.1804V54.2086H48.9724V63.527H48.935L46.465 54.2086H43.3963V69.7767H45.6043V58.5122H45.6417L48.6356 69.7767ZM55.1847 56.454H59.4509V54.2086H52.7521V69.7767H59.4509V67.5687H55.1847V63.003H58.5527V60.7951H55.1847V56.454ZM64.054 54.0589C61.6589 54.0589 60.4239 55.481 60.4239 57.9509C60.4239 59.7098 61.0601 61.0196 63.1184 62.8159C64.7276 64.2006 65.2141 65.0613 65.2141 66.184C65.2141 67.3067 64.7276 67.681 63.9417 67.681C63.1558 67.681 62.6693 67.2693 62.6693 66.184V65.0613H60.3865V66.0343C60.3865 68.5043 61.6215 69.9264 64.054 69.9264C66.4865 69.9264 67.7215 68.5043 67.7215 66.0343C67.7215 64.2754 67.0853 62.9656 65.027 61.1693C63.4178 59.7846 62.9313 58.9239 62.9313 57.8012C62.9313 56.6785 63.3804 56.2669 64.1662 56.2669C64.9521 56.2669 65.4012 56.6785 65.4012 57.8012V58.4374H67.7215V57.9509C67.684 55.481 66.4491 54.0589 64.054 54.0589ZM72.2497 54.0589C69.8546 54.0589 68.6196 55.481 68.6196 57.9509C68.6196 59.7098 69.2558 61.0196 71.3141 62.8159C72.9233 64.2006 73.4098 65.0613 73.4098 66.184C73.4098 67.3067 72.9233 67.681 72.1374 67.681C71.3515 67.681 70.865 67.2693 70.865 66.184V65.0613H68.5448V66.0343C68.5448 68.5043 69.7797 69.9264 72.2123 69.9264C74.6448 69.9264 75.8797 68.5043 75.8797 66.0343C75.8797 64.2754 75.2435 62.9656 73.1853 61.1693C71.5761 59.7846 71.0896 58.9239 71.0896 57.8012C71.0896 56.6785 71.5386 56.2669 72.3245 56.2669C73.1104 56.2669 73.5595 56.6785 73.5595 57.8012V58.4374H75.8797V57.9509C75.8423 55.481 74.6073 54.0589 72.2497 54.0589ZM35.7245 39.3141C35.7245 40.7736 35.2754 41.7092 34.265 42.1583V42.1957C35.0135 42.4951 35.4251 43.0938 35.6123 43.8797L35.6497 44.254V49.0816H33.7037H33.4417V44.4785C33.292 43.6552 32.8429 43.3558 32.057 43.3558H31.2712V49.1564H29.0258V34.9356H32.3939C34.7141 34.9356 35.6871 36.0208 35.6871 38.1914V39.3141H35.7245ZM33.4791 39.8006V38.4159C33.4791 37.4055 33.1423 36.9564 32.3564 36.9564H31.2712V41.335H32.1319C32.9926 41.2975 33.4791 40.9607 33.4791 39.8006Z" fill="#536BB1"/>
<path d="M226.172 82.6876L224.488 77.4858C224.45 77.4484 224.413 77.4484 224.45 77.4858L222.766 82.6876C222.766 82.7251 222.766 82.7251 222.729 82.7251H217.265C217.228 82.7251 217.19 82.7625 217.228 82.7999L221.644 86.0183V86.0557L219.959 91.2576C219.959 91.295 219.997 91.3324 220.034 91.295L224.45 88.0766H224.488L228.904 91.295C228.941 91.3324 228.978 91.295 228.978 91.2576L227.294 86.0557C227.257 86.0557 227.294 86.0183 227.294 86.0183L231.71 82.7999C231.748 82.7625 231.71 82.7251 231.673 82.7251H226.209L226.172 82.6876Z" fill="#FDD100"/>
<path d="M230.101 55.6306C230.101 55.5932 230.176 55.5932 230.176 55.6306L231.86 60.8324C231.86 60.8699 231.897 60.8698 231.897 60.8698H237.361C237.399 60.8698 237.436 60.9073 237.399 60.9447L232.945 64.1631V64.2005L234.629 69.4024C234.629 69.4398 234.592 69.4772 234.555 69.4398L230.139 66.2214H230.101L225.685 69.4398C225.648 69.4772 225.61 69.4398 225.61 69.4024L227.294 64.2005C227.332 64.2005 227.294 64.1631 227.294 64.1631L222.878 60.9447C222.841 60.9073 222.878 60.8698 222.916 60.8698H228.38L228.417 60.8324L230.101 55.6306Z" fill="#FDD100"/>
<path d="M224.488 33.7754C224.488 33.7379 224.563 33.7379 224.563 33.7754L226.209 38.9772C226.209 39.0146 226.209 39.0146 226.247 39.0146H231.71C231.748 39.0146 231.785 39.0521 231.748 39.0895L227.332 42.3079V42.3453L229.016 47.5471C229.016 47.5846 228.978 47.622 228.941 47.5846L224.525 44.3662H224.488L220.072 47.5846C220.034 47.622 219.997 47.5846 219.997 47.5471L221.681 42.3453C221.718 42.3453 221.681 42.3079 221.681 42.3079L217.265 39.0895C217.228 39.0521 217.265 39.0146 217.302 39.0146H222.766L222.804 38.9772L224.488 33.7754Z" fill="#FDD100"/>
<path d="M208.283 17.8705C208.283 17.833 208.358 17.833 208.358 17.8705L210.042 23.0723C210.042 23.091 210.042 23.1004 210.047 23.1051C210.052 23.1097 210.061 23.1097 210.08 23.1097H215.506C215.544 23.1097 215.581 23.1472 215.544 23.1846L211.128 26.403V26.4404L212.812 31.6422C212.812 31.6797 212.774 31.7171 212.737 31.6797L208.321 28.4613H208.283L203.867 31.6797C203.83 31.7171 203.793 31.6797 203.793 31.6422L205.477 26.4404C205.514 26.4404 205.477 26.403 205.477 26.403L201.061 23.1846C201.023 23.1472 201.061 23.1097 201.098 23.1097H206.562L206.599 23.0723L208.283 17.8705Z" fill="#FDD100"/>
<path d="M186.316 11.9202C186.316 11.8827 186.391 11.8827 186.391 11.9202L188.037 17.122C188.037 17.1594 188.037 17.1594 188.075 17.1594H193.539C193.576 17.1594 193.613 17.1968 193.576 17.2343L189.16 20.4527V20.4901L190.844 25.6919C190.844 25.7294 190.807 25.7668 190.769 25.7294L186.353 22.511H186.316L181.9 25.7294C181.863 25.7668 181.825 25.7294 181.825 25.6919L183.509 20.4901C183.547 20.4901 183.509 20.4527 183.509 20.4527L179.093 17.2343C179.056 17.1968 179.093 17.1594 179.131 17.1594H184.594L184.632 17.122L186.316 11.9202Z" fill="#FDD100"/>
<path d="M164.423 17.8705C164.423 17.833 164.498 17.833 164.498 17.8705L166.145 23.0723C166.145 23.1097 166.182 23.1097 166.182 23.1097H171.646C171.683 23.1097 171.721 23.1472 171.683 23.1846L167.267 26.403V26.4404L168.951 31.6422C168.951 31.6797 168.914 31.7171 168.877 31.6797L164.461 28.4613H164.423L160.007 31.6797C159.97 31.7171 159.932 31.6797 159.932 31.6422L161.617 26.4404C161.654 26.4404 161.617 26.403 161.617 26.403L157.201 23.1846C157.163 23.1472 157.201 23.1097 157.238 23.1097H162.702L162.739 23.0723L164.423 17.8705Z" fill="#FDD100"/>
<path d="M212.829 102.897L217.249 99.6778C217.273 99.6305 217.261 99.595 217.237 99.6422L211.769 99.6601C211.752 99.666 211.743 99.6689 211.737 99.6659C211.731 99.6629 211.728 99.654 211.722 99.6362L210.022 94.4436C210.011 94.408 209.963 94.3841 209.94 94.4313L208.255 99.6294L208.219 99.641L202.752 99.659C202.716 99.6706 202.692 99.7178 202.739 99.7418L207.172 102.937L207.184 102.973L205.499 108.171C205.475 108.218 205.522 108.242 205.558 108.23L209.977 105.012C209.966 104.976 210.013 105 210.013 105L214.445 108.195C214.493 108.219 214.517 108.172 214.505 108.136L212.805 102.944L212.829 102.897Z" fill="#FDD100"/>
<path d="M195.917 106.414L191.498 109.633L191.474 109.68L193.174 114.873C193.185 114.908 193.161 114.955 193.114 114.932L188.682 111.736C188.682 111.736 188.634 111.712 188.646 111.748L184.226 114.967C184.191 114.978 184.144 114.954 184.167 114.907L185.852 109.709L185.841 109.673L181.408 106.478C181.361 106.454 181.385 106.407 181.42 106.395L186.888 106.377L186.923 106.366L188.608 101.167C188.632 101.12 188.679 101.144 188.691 101.18L190.391 106.372C190.395 106.385 190.398 106.394 190.401 106.398C190.403 106.4 190.404 106.401 190.406 106.402C190.411 106.405 190.42 106.402 190.438 106.396L195.906 106.378C195.93 106.331 195.941 106.367 195.917 106.414Z" fill="#FDD100"/>
<path d="M170.166 104.768L174.586 101.549C174.61 101.502 174.598 101.466 174.574 101.513L169.107 101.531C169.089 101.537 169.08 101.54 169.074 101.537C169.068 101.534 169.065 101.525 169.06 101.507L167.36 96.3147C167.348 96.2792 167.301 96.2553 167.277 96.3025L165.592 101.501L165.557 101.512L160.089 101.53C160.053 101.542 160.03 101.589 160.077 101.613L164.509 104.808L164.521 104.844L162.836 110.042C162.812 110.089 162.859 110.113 162.895 110.102L167.315 106.883C167.303 106.847 167.35 106.871 167.35 106.871L171.783 110.066C171.83 110.09 171.854 110.043 171.842 110.008L170.142 104.815L170.166 104.768Z" fill="#FDD100"/>
</g>
<defs>
<clipPath id="clip0">
<rect width="224" height="109" fill="white" transform="translate(13 10)"/>
</clipPath>
</defs>
</svg>
