<svg width="250" height="130" viewBox="0 0 250 130" fill="none" xmlns="http://www.w3.org/2000/svg">
<rect width="250" height="130" fill="white"/>
<path fill-rule="evenodd" clip-rule="evenodd" d="M19.9751 11.8934H228.897L231.328 12.1144L233.685 12.9248L235.674 14.1035L237.516 15.5768L238.915 17.4922L240.021 19.7022L240.757 22.0596L240.978 24.6379V104.862L240.757 107.367L240.021 109.798L238.915 112.008L237.516 113.85L235.674 115.397L233.685 116.575L231.328 117.312L228.897 117.607H19.9751L18.7227 117.459L17.544 117.312L15.2603 116.575L13.7133 115.618L13.2713 115.397L11.4296 113.85L9.88258 112.008L8.77757 109.798L8.11456 107.367L7.89355 104.862V24.6379L8.11456 22.0596L8.77757 19.7022L9.88258 17.4922L11.4296 15.5768L13.2713 14.1035L15.2603 12.9248L17.544 12.1144L19.9751 11.8934Z" fill="url(#paint0_linear)"/>
<path fill-rule="evenodd" clip-rule="evenodd" d="M19.9749 11.8934L17.6176 12.1144L15.3339 12.8511L14.3025 13.4404L13.5658 13.8824L13.2712 14.1034L12.6082 14.6928H12.5345V14.7665L12.3135 14.8401L11.4295 15.5768L9.88244 17.4185L8.77743 19.6285L8.70376 19.8495L8.11442 21.9859L7.89342 24.6379V104.862L8.11442 107.44L8.70376 109.577L8.77743 109.798L9.88244 112.008L11.4295 113.85L12.3135 114.586L13.2712 115.323L15.3339 116.502L17.6176 117.238L19.9749 117.459H228.897L231.401 117.238L233.685 116.502L235.748 115.323L237.516 113.776L238.989 111.934L240.094 109.724L240.462 108.545L240.683 107.809V107.661L240.757 107.44V107.072H240.831V106.556L240.978 104.936V24.5643L240.831 22.9436V22.4279H240.757V22.0596L240.683 21.8386V21.6912L240.462 20.9545L240.094 19.7759L238.989 17.5658L237.516 15.7241L235.748 14.1771L233.685 12.9984L231.401 12.2618L229.854 12.1144H229.781L228.897 11.8934H19.9749ZM19.9749 6H228.897L231.77 6.221L234.495 6.88401H234.569L237.221 7.98903V8.0627H237.368L237.81 8.2837V8.35737H237.884L238.252 8.57837L239.431 9.31505L239.578 9.38871V9.68339H239.652L240.904 10.8621L241.567 11.4514L242.82 12.9984L243.409 13.6614V13.7351H243.483L244.588 15.5768V15.6505H244.661L244.735 15.7978V15.9451H244.809L244.956 16.3871L245.914 18.6708V18.8182L246.061 19.3339V19.4075L246.503 21.1019V21.1755L246.577 21.3966L246.65 22.4279V23.0172H246.724L246.798 24.4906V104.715L246.724 106.188H246.65V106.777L246.577 107.809L246.503 108.03V108.103L246.135 109.65H246.061V109.871L245.914 110.387V110.534L244.956 112.818L244.809 113.26H244.735V113.408L244.661 113.555H244.588V113.629L243.483 115.47H243.409V115.544L242.82 116.207L241.567 117.754L240.904 118.343L239.652 119.522H239.578V119.596L239.431 119.669L238.252 120.406L237.884 120.627H237.81V120.701L237.368 120.922H237.221V120.995L234.569 122.1H234.495L231.77 122.763L228.897 122.984H19.9749L17.1019 122.763L15.0392 122.248H14.9655L14.4498 122.1H14.3025L14.1552 122.027L13.4185 121.658H13.3448L12.2398 121.143L11.7978 120.995V120.922H11.6505L9.44044 119.448L8.70376 118.785L8.55643 118.638L7.15674 118.049L6.5674 117.312L5.83072 116.354L5.38871 115.839L3.91536 113.481L3.03135 111.345L2.81034 110.755L2.14734 107.956L2 105.893V23.6066L2.14734 21.5439L2.81034 18.7445L3.03135 18.1552L3.91536 16.0188L5.38871 13.6614L5.83072 13.1458L6.5674 12.1881L7.15674 11.4514L8.40909 10.4201L8.55643 10.2727L9.2931 9.60972L11.5031 8.13636H11.6505V8.0627L14.2288 6.95768H14.3762L14.9655 6.73668H15.0392L17.1019 6.221L19.9749 6Z" fill="url(#paint1_linear)"/>
<path fill-rule="evenodd" clip-rule="evenodd" d="M30.2886 24.9326H33.2353L39.2024 38.4138L39.6444 39.3715L39.939 40.1082L40.16 40.6975H40.2337L40.7494 39.3715L41.1914 38.3401L47.3058 24.9326H50.1052V44.1599H47.8215V31.268L47.8952 29.6473L48.0425 27.5847H47.9688L47.6005 28.6897L47.3795 29.5L40.7494 44.1599H39.6444L33.0143 29.5737L32.6459 28.6897L32.4249 27.5847H32.2776L32.4249 28.5423L32.4986 29.721V44.1599H30.2886V24.9326Z" fill="white"/>
<path fill-rule="evenodd" clip-rule="evenodd" d="M54.967 30.5313H57.177V44.2335H54.967V30.5313ZM56.072 24.1222H56.4403L56.6613 24.1959L56.8823 24.3432L57.2507 24.7115L57.398 24.9325L57.4717 25.1535V25.8902L57.398 26.1112L57.2507 26.4059L56.8823 26.7742L56.6613 26.9216L56.4403 26.9952H56.072L55.409 26.8479L55.0406 26.5532L54.8933 26.4059L54.746 26.1849L54.5986 25.8902V25.2272L54.6723 25.0062L54.8196 24.7852L54.967 24.6379L55.3353 24.4169L56.072 24.1222Z" fill="white"/>
<path fill-rule="evenodd" clip-rule="evenodd" d="M67.8591 30.1631L69.6271 30.3104L71.0268 30.8261V33.1098L69.9955 32.5205L68.8904 32.0784L67.7117 32.0048L66.4594 32.2258L65.2807 32.7415L64.323 33.4781L63.5864 34.5831L63.0707 35.9092L62.8497 37.4562L63.0707 39.0032L63.439 40.2556L64.1757 41.2869L65.0597 42.0973L66.3121 42.4656L67.6381 42.6866L68.8168 42.4656L69.9218 42.1709L71.0268 41.4342V43.5706L69.9218 44.0863L68.6694 44.4546L67.1961 44.5283L65.8701 44.4546L64.544 44.0126L63.3654 43.4233L62.4813 42.5393L61.671 41.5816L61.0817 40.3292L60.7133 39.0769L60.6396 37.6772L60.7133 36.0565L61.0817 34.6568L61.7447 33.4045L62.6287 32.2258L63.66 31.2681L64.9124 30.6788L66.3121 30.2368L67.8591 30.1631Z" fill="white"/>
<path fill-rule="evenodd" clip-rule="evenodd" d="M80.3085 30.2367L81.1188 30.3104L81.7081 30.384V32.7414L80.8978 32.3731L80.0138 32.2994L79.1298 32.4467L78.3931 32.8151L77.6564 33.4781L77.0671 34.5094L76.7724 35.7618L76.6987 37.2351V44.1599H74.415V30.5314H76.6987V33.3307H76.7724L77.0671 32.3731L77.5827 31.6364L78.1721 30.9734L79.2034 30.384L80.3085 30.2367Z" fill="white"/>
<path fill-rule="evenodd" clip-rule="evenodd" d="M89.5909 32.0048L88.3386 32.1521L87.2335 32.5941L86.2759 33.3308L85.6129 34.4358L85.1708 35.7618L85.0235 37.3825L85.1708 38.9295L85.5392 40.1819L86.2022 41.2132L87.1599 41.9499L88.3386 42.3919L89.5909 42.5393L90.6223 42.4656L91.5799 42.2446L92.3166 41.8026L92.9796 41.1396L93.569 40.1082L94.011 38.8559L94.0846 37.3089L93.9373 35.6882L93.569 34.3621L92.906 33.3308L91.9483 32.5941L90.8433 32.1521L89.5909 32.0048ZM89.8119 30.1631L91.2853 30.2368L92.5376 30.6051L93.7163 31.1944L94.674 32.0784L95.4107 33.1098L96 34.3621L96.3683 35.6882L96.442 37.3089L96.3683 38.8559L95.9263 40.3292L95.337 41.5079L94.6003 42.6129L93.569 43.4969L92.3903 44.0863L91.0643 44.5283L89.5172 44.602L88.0439 44.5283L86.7179 44.0863L85.6129 43.4969L84.5815 42.6129L83.8448 41.5816L83.2555 40.4029L82.8871 39.0769L82.8135 37.5299L82.8871 35.8355L83.3292 34.3621L83.9185 33.1098L84.8762 32.0048L85.9075 31.2681L87.0862 30.6788L88.3386 30.3104L89.8119 30.1631Z" fill="white"/>
<path fill-rule="evenodd" clip-rule="evenodd" d="M103.809 30.1631L105.429 30.3104L106.829 30.8261V33.0361L105.871 32.4468L104.766 32.0784L103.661 32.0048L102.63 32.0784L101.893 32.5205L101.378 33.1835L101.157 33.9938L101.378 34.7305L101.746 35.3198L102.188 35.6882L102.851 36.1302L103.809 36.5722L105.356 37.2352L106.387 37.9719L106.976 38.7822L107.345 39.5926L107.419 40.5502L107.198 41.5816L106.829 42.4656L106.092 43.3496L105.135 44.0126L103.809 44.381L102.409 44.5283L101.083 44.4546L99.9044 44.16L98.873 43.7179V41.3606L99.9781 42.0973L101.157 42.4656L102.483 42.6866L103.661 42.5393L104.472 42.1709L104.987 41.5816L105.208 40.6976L104.987 40.0346L104.84 39.6662L104.619 39.4452L103.661 38.8559L100.788 37.3825L99.8307 36.6458L99.3151 35.9092L98.9467 35.0988L98.873 34.1411L99.0204 33.0361L99.4624 32.0784L100.273 31.2681L101.304 30.6788L102.483 30.2368L103.809 30.1631Z" fill="white"/>
<path fill-rule="evenodd" clip-rule="evenodd" d="M116.627 32.0048L115.301 32.1521L114.196 32.5941L113.312 33.3308L112.576 34.4358L112.134 35.7618L111.986 37.3825L112.134 38.9295L112.576 40.1819L113.239 41.2132L114.196 41.9499L115.301 42.3919L116.627 42.5393L117.953 42.3919L119.058 41.9499L119.942 41.0659L120.532 40.0346L120.974 38.7822L121.047 37.2352L120.974 35.9828L120.826 34.8778L120.384 33.9938L119.869 33.2571L118.985 32.5205L117.88 32.0784L116.627 32.0048ZM116.775 30.1631L118.248 30.2368L119.5 30.6051L120.679 31.1944L121.637 32.0784L122.373 33.1098L122.889 34.3621L123.257 35.6882L123.331 37.3089L123.257 38.8559L122.889 40.3292L122.3 41.5079L121.416 42.6129L120.384 43.4969L119.206 44.0863L117.953 44.5283L116.406 44.602L114.859 44.5283L113.607 44.0863L112.428 43.4969L111.397 42.6129L110.66 41.5816L110.071 40.4029L109.703 39.0769L109.629 37.5299L109.703 35.8355L110.145 34.3621L110.734 33.1098L111.692 32.0048L112.723 31.2681L113.902 30.6788L115.228 30.3104L116.775 30.1631Z" fill="white"/>
<path fill-rule="evenodd" clip-rule="evenodd" d="M131.582 23.6066L132.539 23.6802L133.202 23.8276V25.8166L132.539 25.5956L131.655 25.4483L130.624 25.6693L129.961 26.1849L129.519 27.069L129.372 28.395V30.5313H132.613V32.373H129.372V44.1599H127.161V32.373H124.73V30.5313H127.161V28.3213L127.309 26.8479L127.751 25.6693L128.488 24.7116L129.445 24.1222L130.477 23.6802L131.582 23.6066Z" fill="white"/>
<path fill-rule="evenodd" clip-rule="evenodd" d="M138.506 26.4059V30.5313H141.969V32.373H138.506V40.1081L138.58 40.9921L138.654 41.5814L138.875 42.0971L139.317 42.3918L139.832 42.5391L140.495 42.6864L141.306 42.5391L141.969 42.2444V44.0861L141.011 44.4545L139.832 44.5281L138.58 44.3808L137.549 43.8651L136.886 43.0548L136.444 41.8761L136.296 40.4764V32.373H133.865V30.5313H136.296V27.2162L138.506 26.4059Z" fill="white"/>
<path fill-rule="evenodd" clip-rule="evenodd" d="M146.315 39.0769V40.6239H147.346L147.567 40.5502L147.715 40.4029L147.862 40.1819V39.7399L147.715 39.3715L147.641 39.2979L147.494 39.2242H147.346L147.125 39.1505H146.315V39.0769ZM145.652 38.4875H146.904L147.641 38.5612L148.23 38.9295L148.378 39.0769L148.451 39.2242L148.525 39.4452V39.8872L148.451 40.1082L148.378 40.2555L148.009 40.6239L147.862 40.6976L147.346 40.8449L147.494 40.9186L147.715 41.0659L147.862 41.2869L148.599 42.8339H147.862L147.346 41.8026L147.199 41.3606L147.052 41.1396L146.831 41.0659L146.683 40.9922H146.241V42.8339H145.652V38.4875ZM147.052 37.7508L146.168 37.8245L145.431 38.0455L144.768 38.5612L144.252 39.2242L144.031 39.8872L143.958 40.7712L144.031 41.6552L144.252 42.3919L144.768 43.0549L145.431 43.5706L146.168 43.7916L147.052 43.8653L147.936 43.7916L148.599 43.5706L149.262 43.0549L149.777 42.3919L150.146 41.6552L150.219 40.7712L149.998 39.5925L149.335 38.5612L148.672 38.0455L148.009 37.8245L147.052 37.7508ZM147.052 37.3088L148.009 37.3825L148.893 37.7508L149.63 38.3402L150.219 39.0032L150.588 39.8872L150.661 40.8449L150.588 41.8026L150.219 42.6866L149.63 43.4233L148.893 43.9389L148.009 44.3073L147.052 44.3809L146.02 44.3073L145.136 43.9389L144.4 43.4233L143.884 42.6866L143.516 41.9499L143.442 40.9922L143.516 40.0345L143.884 39.1505L144.473 38.4139L145.21 37.8245L146.094 37.4562L147.052 37.3088Z" fill="white"/>
<path fill-rule="evenodd" clip-rule="evenodd" d="M35.74 53.7367H36.403L37.066 53.8104H37.508L37.8764 53.884L38.2447 53.9577L39.6444 54.326L39.9391 54.4734V57.7884L39.7181 57.6411L39.3497 57.3464L39.0551 57.1991L38.7604 57.1254L38.5394 56.9781L37.508 56.6097L36.9187 56.5361L36.5504 56.4624H35.8137L35.0033 56.5361L34.414 56.6097L34.1193 56.6834L33.8247 56.8307L33.6037 56.9781L33.088 57.4937L32.9406 57.7147L32.7933 57.8621L32.646 58.1568L32.5723 58.4514V59.2618L32.7196 59.9248L32.9406 60.2194L33.088 60.5141L33.309 60.8088L33.751 61.1035L34.3403 61.5455L35.1507 61.9875L35.961 62.5031L37.066 63.0925L38.0974 63.6818L38.8341 64.3448L39.5707 65.0079L40.1601 65.7445L40.4548 66.4812L40.7494 67.2915L40.8231 68.1756L40.7494 69.2069L40.4548 70.2383L39.9391 71.0486L39.2024 71.9326L38.2447 72.5956L37.066 73.1113L36.1084 73.3323L35.0033 73.5533H33.1616L32.5723 73.4796L31.9093 73.3323L31.1726 73.185L30.5833 73.0376L29.5519 72.6693L29.3309 72.522L29.1836 72.4483V68.9122L29.4783 69.2806L29.9203 69.5753L30.2886 69.7963L30.878 70.1646L31.541 70.3856L32.9406 70.7539L33.53 70.8276H35.0033L35.74 70.6803L36.1084 70.4593L36.4767 70.3119L36.9187 69.8699L37.066 69.6489L37.1397 69.2806L37.3607 68.7649V68.1019L37.2134 67.7336L37.066 67.5126L36.7714 66.8495L36.403 66.5549L36.1084 66.3339L35.8874 66.1129L35.2243 65.5972L34.414 65.0815L33.53 64.4922L32.2776 63.9028L31.3936 63.3135L30.0676 62.0611L29.6993 61.3245L29.3309 60.5878L29.1836 59.0408L29.2573 57.9358L29.5519 56.9781L30.2149 56.0204L30.9516 55.2837L31.9093 54.547L33.0143 54.1787L34.3403 53.8104L35.74 53.7367Z" fill="white"/>
<path fill-rule="evenodd" clip-rule="evenodd" d="M51.6522 59.1881L52.3152 59.2618L53.3466 59.4828L53.7886 59.7038L54.0833 59.9248L54.9673 60.8088L55.4829 61.5455L55.5566 61.9138L56.5143 60.6615L57.6193 59.8511L58.798 59.3354L60.1977 59.1881L61.5974 59.3354L62.7761 59.7775L63.6601 60.5141L64.3231 61.5455L64.6914 63.0188L64.8388 64.7869V73.2586H61.671V65.5235L61.5974 64.4185L61.45 63.6818L61.229 63.0188L60.9344 62.5032L60.7134 62.2822L60.4924 62.1348L60.345 61.9875L60.0504 61.9138L58.8717 61.6928H58.5033L58.2823 61.7665L57.914 61.9138L57.1773 62.4295L56.8826 62.6505L56.7353 62.8715L56.5143 63.2398L56.146 64.1239L55.9986 65.5235V73.2586H52.8309V65.2289L52.7572 64.2712L52.6836 63.6082L52.3889 63.0188L52.0942 62.5032L51.6522 62.1348L51.2102 61.9138L50.5472 61.6928H49.6632L49.2212 61.7665L48.5582 62.1348L48.2635 62.4295L47.7478 63.0925L47.3795 63.9028L47.2322 64.7132V73.2586H44.0645V59.4828H47.2322V61.6191L48.0425 60.5878L49.0739 59.8511L50.2525 59.3354L51.6522 59.1881Z" fill="white"/>
<path fill-rule="evenodd" clip-rule="evenodd" d="M76.1836 66.5549L73.2369 66.9969H72.8685L72.1318 67.1442L71.6162 67.2916L71.4688 67.4389L71.3215 67.5126L70.8058 68.0282L70.7322 68.2492V68.6176L70.6585 68.8386V69.2069L70.7322 69.6489L70.8058 70.0173L70.8795 70.2383L71.0268 70.3856L71.2478 70.5329L71.6162 70.7539L71.9845 70.9013L72.4265 70.9749L72.9422 71.0486L73.6052 70.9749L74.2682 70.8276L74.7839 70.4593L75.2996 70.0173L75.4469 69.8699L75.8152 69.3543L75.8889 68.9859L76.0362 68.3966L76.1099 67.7336V66.5549H76.1836ZM73.8262 59.1881L75.0786 59.2618L76.1836 59.6301L77.1413 60.0721L77.8779 60.6615L78.4673 61.3981L78.8356 62.3558L79.0566 63.3872L79.1303 64.5659V73.3323H76.0362V71.3433H75.9626L75.2259 72.3746L74.3419 73.0376L73.2369 73.4796L71.9845 73.5533L70.9532 73.4796L70.0692 73.3323L69.3325 72.964L68.6695 72.4483L68.3011 72.08L68.0801 71.638L67.8591 71.1223L67.7118 70.3856L67.5645 69.5753L67.6381 68.6912L67.7855 67.8072L68.1538 67.1442L68.5958 66.4812L69.2588 65.9655L69.9955 65.5235L70.9532 65.1552L72.0582 64.9342L76.1099 64.4185L76.0362 63.4608L75.8152 62.7978L75.4469 62.2822L74.9312 61.9138L74.2682 61.7665L73.5315 61.6928L72.2792 61.7665L71.1005 62.1348L69.9955 62.5768L68.9641 63.2398V60.5141L69.1115 60.4405L69.2588 60.2931L69.7745 60.1458L70.1428 59.9985L70.5112 59.7775L70.9532 59.6301L72.4265 59.4091L73.0895 59.3354L73.8262 59.1881Z" fill="white"/>
<path fill-rule="evenodd" clip-rule="evenodd" d="M82.8135 52.9263V73.2586H85.9812V52.9263H82.8135Z" fill="white"/>
<path fill-rule="evenodd" clip-rule="evenodd" d="M90.1807 52.9263V73.2586H93.3484V52.9263H90.1807Z" fill="white"/>
<path fill-rule="evenodd" clip-rule="evenodd" d="M108.819 64.4921V70.6065H111.544L112.502 70.5328L113.165 70.3855L113.828 70.0171L114.565 69.5015L114.712 69.2805L114.786 69.0595L114.933 68.8385L115.08 68.4701L115.154 68.0281V67.5861L115.08 66.7021L114.712 66.0391L114.123 65.4497L113.386 64.9341L112.355 64.7131L111.176 64.5657H108.819V64.4921ZM108.819 56.6833V61.9874H110.881L111.913 61.9137L112.797 61.6927L113.46 61.2507L113.975 60.6613L114.344 59.9983L114.417 59.1143L114.344 58.4513L114.123 57.862L113.607 57.3463L112.944 56.978L112.06 56.8306L111.029 56.757H108.819V56.6833ZM105.577 54.0312H111.692L113.165 54.1049L114.417 54.3259L115.449 54.7679L116.333 55.2836L116.996 55.9466L117.438 56.6833L117.659 57.5673L117.732 58.4513L117.659 59.188L117.511 59.851L117.364 60.3667L117.143 60.8087L116.922 61.177L116.554 61.619L116.185 61.9874L115.743 62.2084L114.27 62.8714V62.945L115.228 63.0924L116.185 63.4607L116.922 63.9027L117.511 64.4184L118.027 65.0814L118.469 65.8181L118.616 66.7021L118.69 67.6598L118.543 68.9121L118.174 70.0171L117.585 70.9748L116.701 71.7115L115.67 72.3745L114.565 72.8165L113.312 73.1849L111.986 73.2585H105.577V54.0312Z" fill="white"/>
<path fill-rule="evenodd" clip-rule="evenodd" d="M121.71 59.4828H124.951V67.5126L125.025 68.3229L125.099 69.1333L125.467 69.9436L125.983 70.4593L127.014 70.9749L127.382 71.0486H128.266L128.708 70.9749L129.003 70.8276L129.445 70.6803L129.813 70.3856L130.034 70.1646L130.403 69.6489L130.697 68.9123L130.918 68.2492L130.992 67.5126V59.4828H134.16V73.2587H130.992V71.1223H130.918L130.55 71.638L130.182 72.08L129.961 72.4483L129.592 72.6693L129.298 72.8903L128.929 73.1113L128.487 73.2587L128.119 73.3323L127.382 73.5533H126.719L125.246 73.3323L123.994 72.964L122.962 72.1536L122.299 70.9749L121.857 69.5753L121.71 67.8072V59.4828Z" fill="white"/>
<path fill-rule="evenodd" clip-rule="evenodd" d="M142.779 59.1881H143.074L143.442 59.2618H144.032L144.547 59.4091L144.916 59.4828L145.284 59.5564L145.505 59.7038H145.8L145.947 59.7775V62.5768L145.652 62.2822L145.21 62.1348L144.4 61.9138L143.59 61.6928L143.221 61.6191H142.706L141.895 61.6928L141.232 62.0612L140.937 62.2085L140.864 62.5032L140.716 62.7242V63.6082L140.79 63.7555L140.864 63.9765L141.011 64.1975L141.232 64.2712L141.527 64.4922L141.969 64.7869L142.19 64.8605L142.485 65.0079L142.706 65.0815L143.074 65.3025L143.811 65.5972L144.547 65.9655L145.358 66.4812L145.726 66.7022L146.242 67.4389L146.389 67.8072L146.536 68.5439L146.684 69.2806L146.536 70.1646L146.315 70.9749L145.873 71.638L145.284 72.3746L144.547 72.8903L143.59 73.2586L142.411 73.4796L141.085 73.5533H140.274L139.243 73.3323L138.801 73.2586L138.285 73.1113L137.843 73.0376L137.475 72.8903V69.8699L137.991 70.1646L138.359 70.3856L138.875 70.6803L139.906 70.9749L140.348 71.0486L140.864 71.1223H141.306L142.337 71.0486L143 70.7539L143.221 70.5329L143.442 70.3119L143.516 70.0173V69.3543L143.442 69.1333L143.221 68.7649L143.148 68.6912L143 68.6176L142.779 68.4702L142.558 68.2492L142.19 68.0282L141.527 67.7336L140.79 67.4389L139.096 66.5549L138.801 66.4075L138.359 65.9655L137.843 65.3025L137.696 64.8605L137.549 64.1975L137.475 63.3872L137.549 62.5768L137.843 61.6928L138.138 61.1771L138.506 60.8088L138.875 60.4405L139.685 59.9248L140.569 59.4828L141.6 59.2618L142.779 59.1881Z" fill="white"/>
<path fill-rule="evenodd" clip-rule="evenodd" d="M149.704 59.4828H152.872V73.2586H149.704V59.4828ZM151.103 52.8527H151.619L152.135 53L152.503 53.1473L152.724 53.2947L153.093 53.663L153.166 53.884L153.314 54.547L153.166 55.21L153.093 55.431L152.429 56.094L152.208 56.1677L151.84 56.2414H151.103L150.661 56.1677L150.44 56.094L149.777 55.431L149.704 55.21L149.335 54.6207L149.483 53.9577L149.556 53.7367L149.925 53.3683L150.146 53.221L150.514 53.0737L151.103 52.8527Z" fill="white"/>
<path fill-rule="evenodd" clip-rule="evenodd" d="M164.88 59.1881L166.206 59.3354L167.311 59.8511L168.268 60.5878L168.784 61.3981L169.152 62.2822L169.373 63.5345L169.447 64.8605V73.2586H166.279V65.5235L166.206 64.3449L166.058 63.3872L165.69 62.6505L165.101 62.1348L164.438 61.7665L163.554 61.6928L162.891 61.7665L162.228 61.9875L161.196 62.7242L160.533 63.9028L160.239 65.4499V73.2586H157.145V59.4828H160.239V61.6928H160.386L160.975 60.8825L161.565 60.2931L162.301 59.7775L163.48 59.3354L164.88 59.1881Z" fill="white"/>
<path fill-rule="evenodd" clip-rule="evenodd" d="M178.582 61.6191L178.14 61.6928L177.476 62.0612L177.255 62.1348L177.034 62.2822L176.887 62.5032L176.519 62.7242L176.298 63.0925L176.15 63.5345L175.929 64.1975L175.782 64.8605H182.191V64.4185L182.044 63.5345L181.823 62.9452L181.602 62.4295L181.16 62.0612L180.644 61.6928L179.981 61.5455L179.318 61.4718H178.582V61.6191ZM179.024 59.1881L180.497 59.2618L181.676 59.7038L182.781 60.2931L183.517 61.0298L184.18 61.9875L184.696 63.0925L184.917 64.3449L184.991 65.8182V67.3652H175.561L175.708 68.4702L176.15 69.4279L176.74 70.1646L177.476 70.7539L178.508 71.1223L179.687 71.1959L180.865 71.1223L181.97 70.7539L183.002 70.3119L183.886 69.7963V72.4483L183.738 72.522L183.517 72.6693L183.296 72.743L182.928 72.8903L182.56 72.964L182.118 73.1113L180.644 73.3323L179.76 73.406H178.876L177.403 73.3323L176.15 72.964L174.972 72.3746L174.014 71.638L173.277 70.6066L172.762 69.4279L172.393 68.1019L172.246 66.4812L172.393 64.7132L172.835 63.1662L173.646 61.9875L174.53 60.9561L175.561 60.2195L176.666 59.7038L177.845 59.2618L179.024 59.1881Z" fill="white"/>
<path fill-rule="evenodd" clip-rule="evenodd" d="M192.431 59.1881H192.799L193.02 59.2618H193.61L193.978 59.3354L194.273 59.4091L194.641 59.4828L195.009 59.5564L195.23 59.7038H195.451L195.599 59.7775V62.5768L195.451 62.4295L195.157 62.2822L194.936 62.1348L194.494 61.9875L194.052 61.9138L193.536 61.6928H193.241L192.947 61.6191H192.357L191.547 61.6928L190.884 62.0612L190.663 62.2085L190.516 62.5032L190.442 62.7242L190.295 63.0925L190.516 63.7555L190.589 63.9765L190.663 64.1975L190.81 64.2712L191.621 64.7869L191.915 64.9342L192.799 65.3025L194.273 65.9655L194.567 66.1129L194.862 66.3339L195.083 66.5549L195.378 66.7022L195.672 67.0706L195.967 67.4389L196.114 67.8072L196.262 68.5439L196.335 69.2806L196.262 70.1646L196.041 70.9749L195.599 71.638L194.936 72.3746L194.125 72.8903L193.241 73.2586L192.136 73.4796L190.81 73.5533H190L188.453 73.2586L188.011 73.1113L187.569 73.0376L187.201 72.8903V69.8699L187.569 70.1646L188.6 70.6803L189.116 70.8276L189.558 70.9749L190.074 71.0486L190.442 71.1223H190.884L191.915 71.0486L192.652 70.7539L192.873 70.5329L193.241 70.0173V69.4279L193.094 69.2806V69.1333L193.02 68.8386L192.873 68.6912L192.726 68.6176L192.21 68.2492L191.842 68.0282L191.252 67.7336L190.516 67.4389L188.821 66.5549L188.527 66.4075L188.085 65.9655L187.569 65.3025L187.422 64.8605L187.274 64.1975L187.201 63.3872L187.274 62.5768L187.495 61.6928L187.716 61.3981L187.937 61.0298L188.306 60.6615L188.6 60.4405L189.411 59.9248L190.295 59.4828L191.326 59.2618L192.431 59.1881Z" fill="white"/>
<path fill-rule="evenodd" clip-rule="evenodd" d="M203.85 59.1881H204.145L204.366 59.2618H204.955L205.323 59.3354L205.544 59.4091L205.986 59.4828L206.355 59.5564L206.576 59.7038H206.723L206.944 59.7775V62.5768L206.723 62.4295L206.502 62.2822L206.207 62.1348L205.839 61.9875L205.397 61.9138L204.881 61.6928H204.513L204.145 61.6191H203.703L202.819 61.6928L202.229 62.0612L202.008 62.2085L201.935 62.5032L201.714 62.7242V63.6082L202.008 64.1239L202.082 64.1975L202.229 64.2712L202.892 64.7869L203.261 64.9342L204.145 65.3025L205.544 65.9655L205.913 66.1129L206.134 66.3339L206.428 66.5549L206.649 66.7022L207.018 67.0706L207.239 67.4389L207.46 67.8072L207.607 68.5439L207.681 69.2806L207.607 70.1646L207.386 70.9749L206.944 71.638L206.355 72.3746L205.471 72.8903L204.513 73.2586L203.408 73.4796L202.156 73.5533H201.272L199.798 73.2586L199.356 73.1113L198.914 73.0376L198.472 72.8903V69.8699L198.988 70.1646L199.43 70.3856L199.946 70.6803L200.977 70.9749L201.419 71.0486L201.714 71.1223H202.229L203.04 71.0486L203.629 70.9749L203.997 70.7539L204.292 70.5329L204.439 70.3119L204.513 70.0173V69.3543L204.366 68.8386L204.218 68.6912L203.997 68.6176L203.85 68.4702L203.703 68.3229L203.187 68.0282L202.598 67.7336L201.787 67.4389L200.093 66.5549L199.872 66.4075L199.43 65.9655L198.914 65.3025L198.767 64.8605L198.546 64.1975L198.472 63.3872L198.546 62.5768L198.841 61.6928L198.988 61.3981L199.282 61.0298L199.577 60.6615L199.946 60.4405L200.682 59.9248L201.64 59.4828L202.671 59.2618L203.85 59.1881Z" fill="white"/>
<path fill-rule="evenodd" clip-rule="evenodd" d="M35.74 82.6881L36.403 82.8354H37.066L37.508 82.9091H37.8764L38.2447 82.9828L39.2761 83.2038L39.6444 83.4248L39.9391 83.4985V86.8135L39.5707 86.5188L38.3184 85.9295L38.0237 85.8558L37.508 85.7085L36.9187 85.5612H36.5504L36.1084 85.4138H35.8137L35.0033 85.5612L34.414 85.7085L34.0457 85.7822L33.6773 85.9295L33.3827 86.1505L33.1616 86.3715L32.7933 86.8872L32.646 87.4028L32.5723 87.9185L32.7196 88.9499L33.0143 89.3919L33.309 89.7602L33.8983 90.3496L34.3403 90.6442L35.1507 91.0862L35.961 91.4546L38.0974 92.7806L38.8341 93.3699L39.5707 94.0329L40.1601 94.6959L40.4548 95.5063L40.7494 96.3166L40.8231 97.2007L40.7494 98.232L40.4548 99.1897L39.9391 100.147L39.2024 100.958L38.2447 101.621L37.066 102.21L35.5927 102.578L33.8247 102.652H33.1616L32.5723 102.578L31.1726 102.284L30.8043 102.21L30.4359 102.063L30.0676 101.915L29.4046 101.621L29.1836 101.547V98.011L29.6993 98.453L30.878 99.116L31.541 99.4107L32.9406 99.7054L33.53 99.8527L34.193 99.9264L35.0033 99.8527L35.74 99.6317L36.1084 99.558L36.4767 99.4107L36.7714 99.116L36.9924 98.8213L37.1397 98.3793L37.3607 97.4953L37.2134 96.9796L36.9924 96.243L36.845 96.0956L36.624 95.801L36.403 95.58L36.1084 95.4326L35.8874 95.138L35.2243 94.6223L34.414 94.1803L33.53 93.6646L32.2776 93.0753L31.3936 92.4123L30.6569 91.7492L30.0676 91.0862L29.6993 90.3496L29.3309 89.6865L29.1836 88.1395L29.2573 86.9608L29.5519 85.9295L30.2149 85.0455L30.9516 84.2351L31.9093 83.6458L33.0143 83.1301L34.3403 82.8354L35.74 82.6881Z" fill="white"/>
<path fill-rule="evenodd" clip-rule="evenodd" d="M50.7681 90.7914L50.0315 90.8651L49.3685 91.0125L48.4845 91.5281L47.8214 92.1911L47.6004 92.6331L47.4531 93.1488L47.3058 93.8855L47.2321 94.8432V96.5375L47.3058 97.2005L47.4531 97.8635L47.6004 98.3056L48.1161 98.9686L48.4845 99.3369L48.8528 99.5579L49.2948 99.7052L49.9578 99.8526L50.6208 99.9262L51.5048 99.8526L52.1678 99.6316L52.8308 99.2632L53.0519 99.0422L53.2729 98.6739L53.7149 98.0109L54.0832 97.1269L54.2305 96.0219L54.3042 94.8432L54.2305 93.9592L54.0832 93.0751L53.8622 92.3385L53.4202 91.7491L53.2729 91.5281L53.0519 91.3071L52.3888 90.9388L51.7258 90.7914H50.7681ZM51.7995 88.2867L53.2729 88.4341L54.4515 88.8024L55.4092 89.4654L56.1459 90.3494L56.8089 91.3808L57.2509 92.4858L57.3982 93.7382L57.4719 95.0642L57.3982 96.6849L57.1772 98.0109L56.6616 99.3369L55.9249 100.442L55.0409 101.4L53.9359 101.989L52.6098 102.431L51.1365 102.578L50.4735 102.505L49.8841 102.431L49.4421 102.357L48.4108 101.842L47.5268 100.958L47.1584 100.516V108.545H43.9907V88.5814H47.1584V90.7914L47.3794 90.3494L47.6004 89.9811L47.9688 89.7601L48.1898 89.3918L48.5581 89.1708L49.0001 88.9498L49.3685 88.8024L50.2525 88.4341L51.7995 88.2867Z" fill="white"/>
<path fill-rule="evenodd" clip-rule="evenodd" d="M65.9435 90.6442L65.5751 90.7178L65.1331 90.8652L64.1018 91.5282L63.6598 92.0439L63.2914 92.6332L63.0704 93.2225L62.9231 93.9592H69.3322L69.1848 92.6332L69.1112 92.1912L68.9638 91.8229L68.7428 91.6018L68.5955 91.3808L67.8588 90.8652L67.2695 90.7178L66.5328 90.6442H65.9435ZM66.3855 88.2868L67.8588 88.3605L69.1112 88.7288L70.1425 89.3182L71.0265 90.0548L71.6895 91.0125L72.1315 92.1912L72.4999 93.4435L72.5736 94.7696V96.3166H62.9231L63.0704 97.4953L63.5124 98.4529L64.1018 99.1896L64.8384 99.7053L65.8698 100.074L67.1221 100.147L68.2272 100.074L69.3322 99.8526L70.3635 99.4106L71.3212 98.895V101.473L71.1739 101.621L70.9529 101.694L70.5845 101.842L70.2162 101.915L69.8478 102.063L69.4058 102.136L68.7428 102.284L68.0062 102.431L67.2695 102.505H66.3855L64.9121 102.431L63.5861 101.989L62.4074 101.473L61.5234 100.589L60.7867 99.6316L60.1974 98.3793L59.829 97.0533L59.7554 95.4326L59.9027 93.6645L60.3447 92.1175L60.9341 90.9388L61.8917 89.9075L62.8494 89.1708L64.0281 88.5815L65.1331 88.2131L66.3855 88.2868Z" fill="white"/>
<path fill-rule="evenodd" clip-rule="evenodd" d="M81.9291 88.2867H82.5185L83.0342 88.3604H83.4025L83.6235 88.4341L84.3602 88.5814L84.7285 88.6551L85.2442 88.9498V91.8228L84.5812 91.3808L83.8445 91.0861L82.9605 90.8651L82.0765 90.7914L81.1925 90.8651L80.3085 91.0861L79.6454 91.4545L78.9824 91.9701L78.4668 92.7068L78.0248 93.5172L77.8038 94.4012L77.6564 95.5062L77.8038 96.5375L78.0248 97.4215L78.3931 98.2319L78.9088 98.8949L79.4981 99.4106L80.2348 99.7052L81.1188 99.9999L82.0028 100.074H82.5922L82.8868 99.9999L83.3288 99.9262L83.6972 99.7052L83.9918 99.6316L84.3602 99.5579L85.0969 99.0422L85.2442 98.9686V101.694L84.5075 102.063L83.6235 102.357L82.5185 102.578L81.3398 102.652L79.7928 102.578L78.4668 102.136L77.2881 101.547L76.3304 100.663L75.4464 99.6316L74.9307 98.4529L74.5624 97.2005L74.415 95.8009L74.5624 94.1065L74.9307 92.7068L75.5937 91.3808L76.4777 90.2758L77.5091 89.4654L78.9088 88.7288L80.3085 88.4341L81.9291 88.2867Z" fill="white"/>
<path fill-rule="evenodd" clip-rule="evenodd" d="M88.5595 88.5814H91.7272V102.284H88.5595V88.5814ZM89.8855 81.8777H90.2539L90.6222 81.9514L91.0642 82.025L91.2115 82.0987L91.4325 82.246L91.5799 82.3934L91.7272 82.6144L91.9482 82.8354L92.0219 83.2774V84.0141L91.9482 84.235L91.8009 84.3824L91.7272 84.6034L91.5799 84.7507L91.4325 84.8244L91.2115 84.9717L91.0642 85.0454L90.6222 85.1191L90.2539 85.1927H89.8855L89.6645 85.1191L89.5172 85.0454L89.2962 84.9717L89.0752 84.8244L88.9278 84.7507L88.7805 84.6034L88.7068 84.3824L88.6332 84.235L88.5595 84.0141L88.4858 83.8667V83.6457L88.5595 83.2774L88.6332 82.8354L88.7068 82.688L88.8542 82.467L89.0015 82.3197L89.1489 82.246L89.2962 82.0987L89.5172 82.025L89.6645 81.9514L89.8855 81.8777Z" fill="white"/>
<path fill-rule="evenodd" clip-rule="evenodd" d="M103.367 95.6535L100.273 96.0219L99.6096 96.1692L99.0202 96.2429L98.2835 96.7585L98.1362 96.9059L98.0625 97.1269L97.9889 97.2742L97.9152 97.4952V98.5266L98.2835 99.1896L98.5045 99.5579L98.6519 99.7052L99.1676 99.8526L100.199 99.9999H100.567L101.23 99.8526L101.451 99.7789L101.893 99.6316L102.262 99.4106L102.483 99.1896L102.998 98.5266L103.146 98.0846L103.293 97.7162L103.367 97.2742V95.6535ZM101.009 88.2867L102.335 88.3604L103.44 88.5814L104.398 89.0234L105.061 89.6128L105.65 90.3494L106.092 91.3071L106.313 92.4121L106.387 93.5908V102.284H103.219V100.442L102.335 101.4L101.378 102.063L100.273 102.505L99.0202 102.652L98.0625 102.578L97.1049 102.357L96.3682 101.989L95.7788 101.473L95.5578 101.252L95.3368 100.884L94.9685 100.221L94.7475 99.4842L94.6738 98.6002L94.7475 97.7162L94.8948 96.9795L95.2632 96.2429L95.7788 95.6535L96.3682 95.0642L97.1049 94.6222L98.0625 94.2538L99.2412 94.1065L103.293 93.5172L103.219 92.6331L102.998 91.8965L102.63 91.3808L102.114 91.0125L101.451 90.7914L100.715 90.7178L99.4622 90.7914L98.2835 91.1598L97.1049 91.6755L96.0735 92.2648V89.5391L96.5155 89.3918L96.9575 89.1708L97.3259 89.0971L97.7679 88.9498L98.2835 88.8761L99.6096 88.5077L101.009 88.2867Z" fill="white"/>
<path fill-rule="evenodd" clip-rule="evenodd" d="M110.071 81.9514V102.284H113.165V81.9514H110.071Z" fill="white"/>
<path fill-rule="evenodd" clip-rule="evenodd" d="M117.437 88.5814H120.605V102.284H117.437V88.5814ZM118.69 81.8777H119.058L119.426 81.9514L119.868 82.025L120.016 82.0987L120.237 82.246L120.384 82.3934L120.531 82.6144L120.752 82.8354L120.826 83.2774V84.0141L120.752 84.235L120.605 84.3824V84.8244L120.458 84.9717L120.31 85.0454L120.089 85.1927L119.942 85.2664L119.5 85.3401L119.132 85.4137H118.763L118.542 85.3401L118.395 85.2664L118.174 85.1927L118.027 85.0454L117.879 84.9717L117.658 84.7507L117.511 84.3824L117.437 84.1614L117.364 84.0141V83.793L117.437 83.4247L117.511 82.9827L117.585 82.8354L117.732 82.6144L117.879 82.467L118.027 82.3934L118.174 82.246L118.395 82.1724L118.542 82.0987L118.69 81.8777Z" fill="white"/>
<path fill-rule="evenodd" clip-rule="evenodd" d="M129.298 88.2867H130.108L130.403 88.3604H130.697L130.992 88.4341L131.434 88.5077L131.729 88.5814L132.097 88.7288L132.318 88.8761V91.6018L132.171 91.4545L131.95 91.3071L131.434 91.1598L131.139 90.9388L130.845 90.8651L130.55 90.7914H130.329L129.961 90.7178H129.74L129.445 90.6441H129.077L128.266 90.7178L127.677 91.0861L127.382 91.3071L127.309 91.6018L127.161 91.8228V92.5595L127.235 92.8541L127.309 93.0015L127.824 93.5172L128.119 93.5908L128.34 93.8118L129.519 94.3275L130.329 94.6222L131.287 95.1378L131.581 95.4325L131.802 95.5798L132.465 96.1692L132.686 96.5375L132.834 96.9059L133.055 97.6425L133.128 98.3792L133.055 99.1896L132.76 99.9999L132.318 100.737L131.729 101.326L130.992 101.842L129.961 102.284L128.856 102.578L127.603 102.652H127.088L126.719 102.578L125.172 102.284L124.73 102.21L124.436 102.063L123.92 101.842V98.8949L124.288 99.1159L124.509 99.3369L124.878 99.4842L125.909 99.8526L126.204 99.9999L126.572 100.074H126.793L127.161 100.147H127.677L128.708 100.074L129.445 99.8526L129.74 99.5579L129.887 99.3369L129.961 99.0422V98.3792L129.887 98.0846L129.74 97.8635L129.445 97.6425L129.077 97.3479L128.708 97.1269L127.972 96.8322L127.235 96.5375L125.909 95.8009L125.467 95.5798L125.099 95.2852L124.362 94.3275L124.141 93.8855L123.994 93.2225L123.92 92.4121L123.994 91.6018L124.362 90.7914L124.73 90.0548L125.393 89.4654L126.13 88.9498L127.088 88.5814L128.119 88.3604L129.298 88.2867Z" fill="white"/>
<path fill-rule="evenodd" clip-rule="evenodd" d="M140.201 84.4561V88.5814H143.516V91.0861H140.201V97.7162L140.275 98.8213L140.569 99.5579L141.306 99.9999L142.116 100.074H142.485L142.779 99.9999L143.295 99.8526L143.516 99.6316V102.136L143.295 102.21L143.074 102.284L142.927 102.357L142.632 102.431H142.485L142.19 102.578H141.822L141.453 102.652H141.085L139.833 102.578L138.728 102.136L137.991 101.547L137.475 100.663L137.107 99.5579L137.033 98.3056V91.0861H134.75V88.5814H137.033V85.4137L140.201 84.4561Z" fill="white"/>
<defs>
<linearGradient id="paint0_linear" x1="94.9967" y1="145.592" x2="153.866" y2="-16.1515" gradientUnits="userSpaceOnUse">
<stop stop-color="#49ADFB"/>
<stop offset="0.4924" stop-color="#5EBBFF"/>
<stop offset="1" stop-color="#45ACFB"/>
</linearGradient>
<linearGradient id="paint1_linear" x1="93.0011" y1="151.191" x2="155.927" y2="-21.6966" gradientUnits="userSpaceOnUse">
<stop stop-color="#1D84E1"/>
<stop offset="0.4924" stop-color="#E1FFFF"/>
<stop offset="1" stop-color="#147ADF"/>
</linearGradient>
</defs>
</svg>
