<svg width="250" height="130" viewBox="0 0 250 130" fill="none" xmlns="http://www.w3.org/2000/svg">
<g clip-path="url(#clip0)">
<rect width="250" height="130" fill="white"/>
<path d="M150.065 40.0438L124.815 65.2937L164.188 104.666L189.438 79.4165L150.065 40.0438Z" fill="#0D97D6"/>
<path d="M153.793 130.853H189.986V130.489L172.071 112.574L153.793 130.853Z" fill="#0272BB"/>
<path d="M110.293 0.33664L85.0435 25.5865L124.759 65.3017L150.008 40.0517L110.293 0.33664Z" fill="#02A7E1"/>
<path d="M124.838 65.2805L98.7319 91.3864L138.105 130.759L164.211 104.653L124.838 65.2805Z" fill="#0D97D6"/>
<path d="M189.987 130.49V94.6594L172.072 112.575L189.987 130.49Z" fill="#02A7E1"/>
<path d="M189.382 79.4073L189.987 78.8021V0.120972L150.041 40.0668L189.382 79.4073Z" fill="#02A7E1"/>
<path d="M59.4964 0H59.1333V35.7091L77.1694 17.673L59.4964 0Z" fill="#0272BB"/>
<path d="M98.717 91.3911L59.2554 130.853H138.058V130.732L98.717 91.3911Z" fill="#02A7E1"/>
<path d="M59.1338 51.8085V130.853H59.2548L98.7164 91.3911L59.1338 51.8085Z" fill="#0D97D6"/>
<path d="M150.042 40.0668L189.987 0.121048V0H110.701L110.338 0.363144L150.042 40.0668Z" fill="#1FBEEF"/>
<path d="M124.742 65.2447L85.038 25.541L59.1338 51.4452V51.8084L98.7164 91.391L124.742 65.2447Z" fill="#02A7E1"/>
<path d="M94.844 0H59.498L77.171 17.673L94.844 0Z" fill="#02A7E1"/>
<path fill-rule="evenodd" clip-rule="evenodd" d="M75.4802 50.8524H71.6122V67.2823H82.0062V63.7706H75.4802V50.8524ZM81.5421 66.8183H72.0768V51.3164H72.0762V66.8183H81.5421V66.8183ZM90.7174 67.2823L96.7133 50.8524H92.6446L88.7434 62.2685L84.8217 50.8524H80.6421L86.6381 67.2823H90.7174ZM81.306 51.3164H81.3054L86.9627 66.8183H90.3927L90.3927 66.8183H86.9633L81.306 51.3164ZM88.7448 63.6993L88.7451 63.7001L92.9769 51.3164H92.9764L88.7448 63.6993ZM101.047 50.8524H97.1792V67.2823H101.047V50.8524ZM111.591 67.2823L117.587 50.8524H113.518L109.617 62.2685L105.695 50.8524H101.516L107.512 67.2823H111.591ZM102.18 51.3164H102.179L107.836 66.8183H111.266L111.266 66.8183H107.837L102.18 51.3164ZM109.618 63.6993L109.619 63.7001L113.85 51.3164H113.85L109.618 63.6993ZM131.875 50.8524H128.007V67.2823H131.875V50.8524ZM133.367 50.8524V54.4755H137.777V67.2823H141.645V54.4755H146.055V50.8524H133.367ZM138.241 66.8183V54.0114H133.831V51.3164H133.832V54.0114H138.242V66.8183L141.181 66.8183H138.241ZM75.0864 90.6433L75.0884 90.6444C76.4012 91.3403 77.9492 91.6785 79.7158 91.6785C81.3866 91.6785 82.8649 91.3221 84.1344 90.5922L84.3671 90.4583V86.9863H83.6837L83.5724 87.0542C82.9965 87.4053 82.3938 87.6787 81.7638 87.8749C81.1514 88.0556 80.5508 88.1445 79.9608 88.1445C78.404 88.1445 77.2326 87.7055 76.3885 86.8747C75.5514 86.0506 75.1016 84.8485 75.1016 83.1962C75.1016 81.5306 75.5579 80.323 76.407 79.4993C77.2804 78.6663 78.4906 78.2257 80.0944 78.2257C80.6457 78.2257 81.2314 78.3015 81.8528 78.4568L81.8551 78.4574C82.4828 78.6108 83.0575 78.8399 83.5815 79.1432L83.6893 79.2057H84.3671V75.7376L84.1106 75.6094C83.504 75.3061 82.8254 75.0862 82.0787 74.9457C81.3502 74.7911 80.6069 74.714 79.8494 74.714C78.0544 74.714 76.4848 75.0516 75.1573 75.747C73.8298 76.4423 72.8114 77.4434 72.1133 78.744C71.4173 80.0259 71.0776 81.515 71.0776 83.1962C71.0776 84.8765 71.4094 86.3709 72.0884 87.6659L72.0916 87.6718C72.7886 88.9548 73.7899 89.9476 75.0864 90.6433ZM80.6824 88.5678C81.0849 88.5225 81.4903 88.4396 81.8985 88.319C82.4309 88.1534 82.9444 87.9359 83.439 87.6666C83.5652 87.5979 83.6902 87.5258 83.814 87.4503H83.8145C83.2057 87.8215 82.5672 88.1111 81.8991 88.3189C81.4906 88.4396 81.0851 88.5225 80.6824 88.5678ZM79.7812 77.7672C79.8844 77.7635 79.989 77.7616 80.095 77.7616C80.6889 77.7616 81.3126 77.8433 81.9659 78.0066C82.6341 78.17 83.2503 78.415 83.8145 78.7416H83.9031V78.7417H83.814C83.6914 78.6707 83.5665 78.6037 83.439 78.5404C82.9797 78.3125 82.4884 78.1345 81.9653 78.0067C81.312 77.8433 80.6884 77.7617 80.0944 77.7617C79.9886 77.7617 79.8842 77.7635 79.7812 77.7672ZM79.8321 91.2138C79.7936 91.2142 79.755 91.2144 79.7163 91.2144C78.0088 91.2144 76.5388 90.8877 75.3063 90.2344C74.0887 89.5811 73.1533 88.653 72.4999 87.4503C71.8615 86.2327 71.5422 84.8147 71.5422 83.1962C71.5422 81.5777 71.8689 80.1671 72.5222 78.9644C73.1756 77.7468 74.1259 76.8113 75.3731 76.158C76.4279 75.6055 77.6579 75.2866 79.063 75.2013C77.6576 75.2866 76.4275 75.6055 75.3726 76.158C74.1253 76.8114 73.175 77.7468 72.5217 78.9644C71.8683 80.1671 71.5417 81.5777 71.5417 83.1962C71.5417 84.8147 71.8609 86.2328 72.4994 87.4503C73.1527 88.6531 74.0882 89.5811 75.3058 90.2344C76.5382 90.8878 78.0082 91.2144 79.7158 91.2144C79.7547 91.2144 79.7934 91.2142 79.8321 91.2138ZM90.5825 74.9813H86.7145V91.4112H97.1085V87.8995H90.5825V74.9813ZM96.6444 90.9471H87.1791V75.4453H87.1785V90.9472H96.6444V90.9471ZM101.917 74.9813H98.0487V84.5326C98.0487 86.7019 98.6634 88.4638 99.9421 89.7587C101.222 91.0548 102.971 91.6785 105.128 91.6785C107.285 91.6785 109.033 91.0548 110.313 89.7587C111.592 88.4638 112.207 86.7019 112.207 84.5326V74.9813H108.339V84.4658C108.339 85.7997 108.032 86.714 107.502 87.2934C106.99 87.8545 106.225 88.1668 105.128 88.1668C104.047 88.1668 103.276 87.862 102.748 87.3099C102.224 86.7482 101.917 85.8321 101.917 84.4658V74.9813ZM105.717 88.6003C106.62 88.503 107.329 88.1716 107.846 87.6062C108.484 86.9083 108.803 85.8615 108.803 84.4658V75.4453H108.803V84.4658C108.803 85.8615 108.483 86.9084 107.845 87.6063C107.329 88.1715 106.619 88.5029 105.717 88.6003ZM105.232 91.2139C105.198 91.2143 105.163 91.2144 105.128 91.2144C103.064 91.2144 101.446 90.6205 100.273 89.4326C99.0998 88.2447 98.5132 86.6114 98.5132 84.5326V75.4453H98.5127V84.5326C98.5127 86.6114 99.0992 88.2447 100.272 89.4326C101.445 90.6205 103.064 91.2144 105.128 91.2144C105.163 91.2144 105.198 91.2143 105.232 91.2139ZM114.232 86.3394V90.2633L114.501 90.388C115.362 90.7878 116.275 91.1022 117.239 91.3318C118.205 91.5616 119.124 91.6785 119.997 91.6785C121.738 91.6785 123.182 91.2423 124.282 90.3232L124.285 90.3206C125.397 89.3744 125.94 88.0795 125.94 86.4926V86.4859L125.94 86.4792C125.909 85.3892 125.639 84.4594 125.095 83.726C124.598 83.022 123.997 82.4748 123.29 82.0966C122.627 81.742 121.789 81.3774 120.783 81.0019L120.778 81C119.842 80.6638 119.175 80.3663 118.755 80.1104C118.435 79.8942 118.301 79.6349 118.301 79.2985C118.301 78.9549 118.432 78.7176 118.727 78.5346L118.731 78.5323C119.075 78.3143 119.586 78.1811 120.309 78.1811C121.61 78.1811 122.981 78.5682 124.427 79.3702L125.116 79.7522V75.8965L124.864 75.7672C124.188 75.4214 123.453 75.1638 122.661 74.9926C121.87 74.8068 121.063 74.714 120.242 74.714C118.495 74.714 117.059 75.1237 115.986 75.9975C114.897 76.8697 114.366 78.095 114.366 79.6103C114.366 80.6302 114.597 81.5107 115.097 82.2169L115.1 82.2213C115.569 82.8684 116.141 83.3769 116.815 83.7387C117.45 84.079 118.258 84.4288 119.234 84.7892C119.94 85.0542 120.472 85.2777 120.836 85.4599L120.843 85.4631L120.85 85.4662C121.18 85.6187 121.443 85.817 121.648 86.0581L121.656 86.0677L121.665 86.0767C121.844 86.2663 121.939 86.4983 121.939 86.8044C121.939 87.2511 121.772 87.5659 121.427 87.8029L121.421 87.8069C121.062 88.0617 120.557 88.2113 119.864 88.2113C118.452 88.2113 116.807 87.7259 114.916 86.7077L114.232 86.3394ZM120.166 77.7188C120.213 77.7177 120.261 77.7171 120.31 77.7171C121.705 77.7171 123.153 78.1327 124.652 78.9641V78.9644C124.497 78.8783 124.342 78.7967 124.188 78.7196C122.853 78.0513 121.56 77.7171 120.309 77.7171C120.261 77.7171 120.213 77.7177 120.166 77.7188ZM120.109 91.2138C120.072 91.2142 120.035 91.2144 119.998 91.2144C119.166 91.2144 118.283 91.103 117.347 90.8803C116.412 90.6576 115.528 90.3532 114.697 89.9671V87.1166C114.697 87.1165 114.696 87.1164 114.696 87.1162V89.9672C115.528 90.3532 116.411 90.6576 117.347 90.8804C118.282 91.1031 119.166 91.2144 119.997 91.2144C120.035 91.2144 120.072 91.2142 120.109 91.2138ZM120.375 88.648C120.9 88.5891 121.339 88.4349 121.69 88.1853C122.166 87.8586 122.403 87.3983 122.403 86.8044C122.403 86.3886 122.27 86.0397 122.002 85.7576C121.75 85.4606 121.431 85.223 121.045 85.0448C120.658 84.8518 120.109 84.6217 119.396 84.3544C118.431 83.998 117.644 83.6565 117.035 83.3298C116.427 83.0032 115.907 82.5429 115.476 81.9489C115.046 81.3401 114.83 80.5606 114.83 79.6103C114.83 78.2145 115.313 77.1306 116.278 76.3584C117.123 75.6699 118.24 75.2826 119.63 75.1965C118.239 75.2825 117.122 75.6699 116.278 76.3585C115.312 77.1306 114.83 78.2146 114.83 79.6103C114.83 80.5606 115.045 81.3402 115.476 81.949C115.906 82.5429 116.426 83.0032 117.035 83.3299C117.644 83.6565 118.431 83.9981 119.396 84.3544C120.109 84.6217 120.658 84.8518 121.044 85.0449C121.43 85.2231 121.749 85.4606 122.002 85.7576C122.269 86.0397 122.403 86.3887 122.403 86.8044C122.403 87.3984 122.165 87.8587 121.69 88.1853C121.338 88.4348 120.9 88.5891 120.375 88.648ZM126.994 74.9813V78.6043H131.404V91.4112H135.272V78.6043H139.682V74.9813H126.994ZM131.868 90.9472V78.1403H127.458V75.4453H127.459V78.1403H131.869V90.9471H134.808V90.9472H131.868ZM134.809 78.1403H139.218L134.809 78.1403V78.1403ZM151.91 84.7962V81.4404H145.228V78.493H152.4V74.9813H141.36V91.4112H152.4V87.8995H145.228V84.7962H151.91ZM141.824 75.4453L141.824 75.4453V90.9471L151.936 90.9472H141.824V75.4453ZM160.566 85.5089L163.729 91.4112H168.015L164.455 84.8234C165.269 84.4271 165.916 83.8742 166.379 83.1588C166.926 82.3124 167.188 81.3 167.188 80.1449C167.188 78.5058 166.649 77.1943 165.523 76.2867C164.41 75.3899 162.787 74.9813 160.733 74.9813H154.678V91.4112H158.546V85.5089H160.566ZM167.237 90.9472L164.008 90.9471L160.845 85.0448H158.083L160.844 85.0449L164.007 90.9472H167.237ZM155.142 75.4453L155.143 75.4453V90.9471L158.082 90.9472H155.142V75.4453ZM162.645 81.5721L162.639 81.5763C162.298 81.8294 161.699 81.9972 160.755 81.9972H158.546V78.5152H160.733C161.713 78.5152 162.328 78.6776 162.669 78.9196C162.963 79.1279 163.164 79.5112 163.164 80.2117C163.164 80.9425 162.955 81.3492 162.645 81.5721ZM161.748 82.3892C162.239 82.3091 162.628 82.1624 162.916 81.9489C163.391 81.6074 163.629 81.0283 163.629 80.2116C163.629 79.4247 163.399 78.8679 162.938 78.5412C162.478 78.2145 161.743 78.0512 160.733 78.0512H158.083L160.733 78.0512C161.743 78.0512 162.478 78.2146 162.938 78.5412C163.398 78.8679 163.628 79.4247 163.628 80.2117C163.628 81.0283 163.391 81.6074 162.916 81.949C162.628 82.1624 162.239 82.3091 161.748 82.3892ZM97.6432 66.8183V51.3164H97.6437V66.8183H100.583V66.8183H97.6432ZM128.471 66.8183V51.3164H128.472V66.8183H131.411V66.8183H128.471Z" fill="white"/>
</g>
<defs>
<clipPath id="clip0">
<rect width="250" height="130" fill="white"/>
</clipPath>
</defs>
</svg>
