<svg width="250" height="130" viewBox="0 0 250 130" fill="none" xmlns="http://www.w3.org/2000/svg">
<g clip-path="url(#clip0)">
<path d="M21.0801 90.2438H25.0976C25.9011 90.2438 26.5707 90.311 27.1064 90.4453C27.642 90.5795 28.1777 90.7809 28.6464 91.0495C29.7178 91.6537 30.2534 92.3922 30.2534 93.265C30.2534 93.735 30.0525 94.205 29.7178 94.6749C29.316 95.1449 28.8473 95.4806 28.2447 95.7491C27.8429 95.9506 27.2403 96.0848 26.5037 96.2862C27.709 96.4205 28.5795 96.7562 29.1151 97.159C29.6508 97.629 29.9186 98.3004 29.9186 99.2403V101.724C29.9186 101.926 30.0525 102.06 30.2534 102.06C30.5882 102.06 30.7891 101.926 30.99 101.59C31.1908 101.322 31.2578 100.919 31.3248 100.449H31.7265C31.7265 100.852 31.6596 101.12 31.5926 101.389C31.4587 101.792 31.1239 102.06 30.6552 102.262C30.1865 102.463 29.6508 102.597 29.0482 102.597C28.3786 102.597 27.8429 102.463 27.5751 102.194C27.2403 101.926 27.1064 101.456 27.1064 100.852V97.4947C27.1064 97.159 27.1064 96.9576 27.0394 96.8905C26.9724 96.8233 26.9055 96.6891 26.7716 96.6219C26.5037 96.4877 26.102 96.4205 25.4994 96.4205H25.1646V102.329H26.1689V102.53H21.0801V102.329H22.0845V90.4453H21.0801V90.2438ZM25.0976 96.2191H25.7002C26.2359 96.2191 26.6377 96.152 26.7716 95.9505C26.9724 95.8163 27.0394 95.4134 27.0394 94.9435V91.5866C27.0394 91.1166 26.9055 90.8481 26.6377 90.6467C26.3698 90.5124 25.9011 90.4453 25.0976 90.4453V96.2191V96.2191Z" fill="#2A6FB7"/>
<path d="M39.4268 98.9046C39.4268 99.8445 39.2929 100.65 38.9581 101.254C38.6902 101.724 38.2885 102.06 37.7528 102.329C37.2171 102.597 36.6145 102.731 35.878 102.731C34.6727 102.731 33.7353 102.396 33.1996 101.657C32.664 100.919 32.3961 99.7774 32.3961 98.1661C32.3961 96.4876 32.7309 95.2792 33.3335 94.6078C33.8692 93.9364 34.7397 93.6678 35.9449 93.6678C36.6815 93.6678 37.3511 93.8021 37.8198 94.0707C38.4224 94.4064 38.8911 94.8763 39.1589 95.5477C39.4268 96.1519 39.5607 97.0919 39.5607 98.3004H35.2753V101.389C35.2753 101.926 35.3423 102.261 35.4762 102.396C35.6101 102.53 35.878 102.597 36.2128 102.597C36.6815 102.597 37.0832 102.53 37.5519 102.261C38.0206 102.06 38.3554 101.792 38.5563 101.523C38.9581 100.986 39.1589 100.113 39.1589 99.0389H39.4268V98.9046ZM35.2084 97.9647H36.8154V94.6078C36.8154 94.2721 36.7484 94.0707 36.6145 93.9364C36.4806 93.8021 36.2797 93.735 36.0119 93.735C35.6771 93.735 35.4762 93.8021 35.4093 93.9364C35.2753 94.0707 35.2084 94.2721 35.2084 94.6078V97.9647Z" fill="#2A6FB7"/>
<path d="M39.6276 93.6678H43.9799V93.8693H43.1764L44.7165 100.516L45.9217 95.0106C45.9887 94.7421 45.9887 94.4735 45.9887 94.3392C45.9887 94.0035 45.7209 93.8693 45.2522 93.8693H45.1182V93.6678H47.3948V93.8693H47.194C46.9261 93.8693 46.7252 93.9364 46.5913 94.0707C46.5244 94.2049 46.3905 94.5406 46.2565 95.0777L44.5826 102.53H42.5068L40.3642 93.8693H39.5607V93.6678H39.6276Z" fill="#2A6FB7"/>
<path d="M51.0776 93.6679V102.329H51.8811V102.53H47.6627V102.329H48.4662V93.8693H47.6627V93.6679H51.0776ZM49.7384 89.9753C50.1402 89.9753 50.475 90.0424 50.8098 90.2438C51.0776 90.4452 51.2115 90.6467 51.2115 90.8481C51.2115 91.1166 51.0776 91.318 50.8098 91.4523C50.5419 91.6537 50.1402 91.7209 49.7384 91.7209C49.3367 91.7209 48.9349 91.6537 48.6671 91.4523C48.3993 91.318 48.2653 91.0495 48.2653 90.8481C48.2653 90.5795 48.3993 90.3781 48.6671 90.2438C48.9349 90.1096 49.3367 89.9753 49.7384 89.9753Z" fill="#2A6FB7"/>
<path d="M59.8491 98.9046C59.8491 99.8445 59.7152 100.65 59.3804 101.254C59.1126 101.724 58.7108 102.06 58.1752 102.329C57.6395 102.597 57.0369 102.731 56.3003 102.731C55.0281 102.731 54.1577 102.396 53.622 101.657C53.0863 100.919 52.8185 99.7774 52.8185 98.1661C52.8185 96.4876 53.0863 95.2792 53.7559 94.6078C54.2916 93.9364 55.162 93.6678 56.3673 93.6678C57.1038 93.6678 57.7734 93.8021 58.2421 94.0707C58.8448 94.4064 59.3135 94.8763 59.5813 95.5477C59.8491 96.1519 59.9831 97.0919 59.9831 98.3004H55.6977V101.389C55.6977 101.926 55.7647 102.261 55.8986 102.396C56.0325 102.53 56.3003 102.597 56.6351 102.597C57.1038 102.597 57.5056 102.53 57.9743 102.261C58.443 102.06 58.7778 101.792 58.9787 101.523C59.3804 100.986 59.5813 100.113 59.5813 99.0389H59.8491V98.9046ZM55.6307 97.9647H57.2378V94.6078C57.2378 94.2721 57.1708 94.0707 57.0369 93.9364C56.903 93.8021 56.7021 93.735 56.4343 93.735C56.0995 93.735 55.8986 93.8021 55.8316 93.9364C55.6977 94.0707 55.6307 94.2721 55.6307 94.6078V97.9647V97.9647Z" fill="#2A6FB7"/>
<path d="M59.9831 93.6678H64.3354V93.8693H63.5319L65.005 99.9788L66.3442 95.2792L66.0094 93.8021H65.2059V93.6007H69.5582V93.8021H68.6877L70.2278 99.8445L71.3661 95.0777C71.433 94.6749 71.5 94.4064 71.5 94.2721C71.5 94.0035 71.2322 93.8693 70.7634 93.8693H70.5626V93.6678H72.9061V93.8693C72.5044 93.8693 72.3035 93.9364 72.1696 94.0035C72.0357 94.1378 71.9687 94.4064 71.8348 94.9435L69.9599 102.53H68.1521L66.4781 96.0177L64.6702 102.53H62.9962L60.7196 93.8693H59.9161V93.6678H59.9831Z" fill="#2A6FB7"/>
<path d="M37.5519 27.6714V51.7067H36.5476C35.878 44.1873 34.8066 38.3463 33.4005 34.1837C31.9944 30.0212 30.3874 27.9399 28.5125 27.9399C27.5751 27.9399 26.9055 28.477 26.5038 29.4841C26.2359 30.1555 26.102 31.4982 26.102 33.5124V78.2933C26.102 81.4488 26.3029 83.5972 26.7046 84.8057C27.1064 86.0141 27.8429 86.5512 28.8473 86.5512C31.0569 86.5512 32.8648 84.47 34.3379 80.2403C35.811 76.0106 36.4806 70.7739 36.4806 64.3958V62.6502H37.485V64.2615C37.485 71.5795 36.6815 77.2862 35.0075 81.3816C33.3335 85.477 31.0569 87.5583 28.1777 87.5583C24.7628 87.5583 22.1514 85.2756 20.3436 80.7103C18.8035 76.6148 18 69.2968 18 58.9576C18 52.1767 18.2009 46.9399 18.6026 43.1802C19.0044 39.4205 19.674 36.3993 20.6783 34.1166C22.6871 29.417 25.1646 27 28.1777 27C30.1865 27 31.9274 28.477 33.4005 31.364L36.5476 27.6714H37.5519Z" fill="#EC2136"/>
<path d="M39.5607 27.6714H52.6176V28.6785H50.0062V85.947H52.6176V86.9541H39.5607V85.947H42.1051V28.6785H39.5607V27.6714Z" fill="#EC2136"/>
<path d="M65.9424 27C70.0938 27 73.107 30.0212 74.9149 35.9965C76.0532 39.9576 76.6558 47.1413 76.6558 57.3463C76.6558 63.7915 76.4549 68.8269 75.9862 72.3852C75.5175 75.9435 74.7809 78.8975 73.7766 81.1131C72.7722 83.1943 71.6339 84.7385 70.2278 85.8799C68.8886 87.0212 67.4155 87.6254 65.9424 87.6254C64.3354 87.6254 62.7284 86.9541 61.1883 85.5442C58.3761 82.9929 56.5682 78.2933 55.7647 71.5124C55.4299 68.0883 55.229 63.3216 55.229 57.1449C55.229 46.0671 55.9656 38.4806 57.5056 34.4523C59.3135 29.5512 62.1257 27.0671 65.9424 27ZM68.4868 81.8516V34.318C68.4868 32.3039 68.4868 31.0283 68.4199 30.424C68.3529 29.8869 68.219 29.417 68.0181 28.947C67.6164 28.3428 67.0137 28.0071 66.0763 28.0071C65.005 28.0071 64.2684 28.4099 63.9336 29.2155C63.5988 30.0212 63.398 31.6996 63.398 34.2509V80.3074C63.398 83.1943 63.5988 85.0071 64.0676 85.6784C64.4693 86.2827 65.1389 86.6184 66.0763 86.6184C67.0137 86.6184 67.6833 86.2827 68.0181 85.6113C68.2859 85.0071 68.4868 83.7314 68.4868 81.8516Z" fill="#EC2136"/>
<path d="M88.5744 38.6148L85.1596 41.7032H90.4493V42.576H83.7534V41.7032L87.4361 38.3463C88.2397 37.6078 89.4449 36.6679 89.4449 35.4594C89.4449 34.2509 88.3736 33.311 87.1683 33.311C85.6283 33.311 84.8917 34.4523 84.8917 35.7951H83.8204C83.8204 34.3852 84.423 33.1767 85.8961 32.6396C86.2979 32.5053 86.7666 32.371 87.2353 32.371C88.5744 32.371 89.7127 33.1095 90.2484 34.2509C90.3823 34.5866 90.5163 34.9894 90.5163 35.3922C90.5163 36.8693 89.5788 37.7421 88.5744 38.6148Z" fill="#2A6FB7"/>
<path d="M98.0156 41.2332C97.346 42.2403 96.2746 42.7774 95.0024 42.7774C93.7302 42.7774 92.6589 42.2403 91.9893 41.2332C91.5875 40.5618 91.4536 39.6891 91.4536 38.9505V35.9965C91.4536 35.3922 91.5206 34.7209 91.8554 34.1838C92.458 33.0424 93.6633 32.4382 95.0024 32.4382C96.3416 32.4382 97.5469 33.1095 98.1495 34.1838C98.4173 34.7209 98.5512 35.3922 98.5512 35.9965V38.9505C98.5512 39.6891 98.4173 40.5618 98.0156 41.2332ZM97.4799 36.265C97.4799 35.6608 97.346 34.8551 97.0112 34.3852C96.6094 33.7809 95.739 33.3781 95.0024 33.3781C94.2659 33.3781 93.3954 33.7809 92.9937 34.3852C92.6589 34.8551 92.525 35.7279 92.525 36.265V38.8163C92.525 39.4205 92.5919 40.2933 92.9267 40.8304C93.3954 41.5689 94.132 41.9046 95.0024 41.9046C95.8729 41.9046 96.6094 41.5689 97.0781 40.8304C97.4129 40.2933 97.4799 39.4205 97.4799 38.8163V36.265V36.265Z" fill="#2A6FB7"/>
<path d="M113.818 42.6431V33.7138L109.867 42.6431H108.997L105.046 33.7138V42.6431H103.975V32.6396H105.582L109.399 41.1661L113.215 32.6396H114.822V42.6431H113.818V42.6431Z" fill="#2A6FB7"/>
<path d="M122.121 42.7774C119.175 42.7774 116.563 40.4947 116.563 37.6749C116.563 34.7209 119.041 32.4382 122.121 32.4382C125.134 32.4382 127.678 34.7209 127.678 37.6078C127.745 40.4947 125.134 42.7774 122.121 42.7774ZM122.121 33.311C119.643 33.311 117.635 35.258 117.635 37.6078C117.635 39.8905 119.71 41.8375 122.121 41.8375C124.598 41.8375 126.607 39.9576 126.607 37.6078C126.674 35.258 124.598 33.311 122.121 33.311Z" fill="#2A6FB7"/>
<path d="M131.897 42.7774C130.022 42.7774 128.683 41.5689 128.683 39.8233H129.754C129.821 41.0318 130.625 41.9046 131.964 41.9046C133.102 41.9046 134.106 41.0318 134.106 39.8905C134.106 38.5477 132.901 38.0777 131.763 37.7421C130.29 37.3392 129.018 36.8693 129.018 35.1237C129.018 33.5124 130.357 32.4382 131.964 32.4382C133.571 32.4382 134.91 33.5795 134.91 35.1237H133.839C133.839 34.1166 133.035 33.311 131.964 33.311C130.892 33.311 130.089 34.0495 130.089 35.0565C130.089 36.3993 131.495 36.6007 132.566 36.9364C134.039 37.3392 135.111 38.2792 135.111 39.8233C135.044 41.5018 133.638 42.7774 131.897 42.7774Z" fill="#2A6FB7"/>
<path d="M138.994 33.5124V42.6431H137.923V33.5124H135.512V32.6396H141.405V33.5124H138.994V33.5124Z" fill="#2A6FB7"/>
<path d="M152.118 38.0106C151.315 38.5477 150.31 38.6149 149.373 38.6149H147.498V42.6431H146.427V32.6396H149.373C150.31 32.6396 151.315 32.7067 152.118 33.2438C152.989 33.7809 153.457 34.6537 153.457 35.6608C153.457 36.6679 152.989 37.4735 152.118 38.0106ZM151.114 33.7809C150.511 33.5124 149.976 33.5124 149.306 33.5124H147.498V37.6749H149.306C149.976 37.6749 150.511 37.6749 151.114 37.4064C151.917 37.0707 152.319 36.3993 152.319 35.5937C152.386 34.788 151.917 34.1166 151.114 33.7809Z" fill="#2A6FB7"/>
<path d="M158.814 38.8834L161.76 42.6431H160.421L156.872 38.1449C157.542 38.1449 158.479 38.212 159.149 38.0106C160.153 37.7421 160.89 36.9364 160.89 35.8622C160.89 35.1237 160.421 34.318 159.752 33.9152C159.082 33.5795 158.412 33.5124 157.676 33.5124H155.868V42.6431H154.797V32.6396H157.475C158.278 32.6396 159.35 32.7067 160.086 33.0424C161.292 33.5795 161.961 34.6537 161.961 35.8622C161.961 37.5406 160.555 38.7491 158.814 38.8834Z" fill="#2A6FB7"/>
<path d="M168.59 42.7774C165.644 42.7774 163.032 40.4947 163.032 37.6749C163.032 34.7209 165.51 32.4382 168.59 32.4382C171.603 32.4382 174.148 34.7209 174.148 37.6078C174.215 40.4947 171.603 42.7774 168.59 42.7774ZM168.59 33.311C166.113 33.311 164.104 35.258 164.104 37.6078C164.104 39.8905 166.18 41.8375 168.59 41.8375C171.068 41.8375 173.076 39.9576 173.076 37.6078C173.143 35.258 171.068 33.311 168.59 33.311Z" fill="#2A6FB7"/>
<path d="M185.732 42.6431V33.7138L181.781 42.6431H180.911L176.96 33.7138V42.6431H175.889V32.6396H177.496L181.312 41.1661L185.129 32.6396H186.736V42.6431H185.732V42.6431Z" fill="#2A6FB7"/>
<path d="M188.946 42.6431V32.6396H190.017V42.6431H188.946Z" fill="#2A6FB7"/>
<path d="M194.637 42.7774C192.762 42.7774 191.423 41.5689 191.423 39.8233H192.494C192.561 41.0318 193.365 41.9046 194.704 41.9046C195.842 41.9046 196.847 41.0318 196.847 39.8905C196.847 38.5477 195.641 38.0777 194.503 37.7421C193.03 37.3392 191.758 36.8693 191.758 35.1237C191.758 33.5124 193.097 32.4382 194.704 32.4382C196.311 32.4382 197.65 33.5795 197.65 35.1237H196.579C196.579 34.1166 195.775 33.311 194.704 33.311C193.633 33.311 192.829 34.0495 192.829 35.0565C192.829 36.3993 194.235 36.6007 195.307 36.9364C196.78 37.3392 197.851 38.2792 197.851 39.8233C197.784 41.5018 196.378 42.7774 194.637 42.7774Z" fill="#2A6FB7"/>
<path d="M199.257 42.6431V32.6396H200.329V42.6431H199.257Z" fill="#2A6FB7"/>
<path d="M209.77 42.6431L203.476 33.7809V42.576H202.404V32.6396H203.81L209.703 40.9647V32.6396H210.774V42.6431H209.77Z" fill="#2A6FB7"/>
<path d="M218.073 42.7774C215.059 42.7774 212.448 40.4947 212.448 37.6078C212.448 34.6537 215.059 32.4382 218.073 32.4382C219.68 32.4382 221.287 33.1095 222.358 34.2509C222.626 34.5194 222.894 34.8551 223.027 35.258H221.822C221.086 34.0495 219.546 33.311 218.073 33.311C215.595 33.311 213.452 35.1908 213.452 37.6078C213.452 40.0247 215.595 41.8375 218.073 41.8375C219.947 41.8375 221.822 40.629 222.291 38.8834H216.399V38.0106H223.563C223.429 40.7633 220.952 42.7774 218.073 42.7774Z" fill="#2A6FB7"/>
<path d="M86.4318 103C84.9587 103 83.7535 101.926 83.6865 100.449H85.3605C85.4274 101.053 85.8292 101.59 86.4988 101.59C87.1014 101.59 87.6371 101.187 87.6371 100.516C87.6371 99.576 86.7666 99.3746 86.0301 99.106C85.7622 98.9717 85.4944 98.9046 85.2935 98.7703C84.4231 98.3004 84.0213 97.629 84.0213 96.6891C84.0213 95.3463 85.0927 94.3392 86.4988 94.3392C87.838 94.3392 88.9093 95.3463 88.9763 96.6891H87.3693C87.3023 96.152 87.0345 95.7491 86.4318 95.7491C85.9631 95.7491 85.5614 96.0848 85.5614 96.6219C85.5614 97.4276 86.3649 97.5618 86.9675 97.7633C88.2397 98.1661 89.1771 98.8375 89.1771 100.314C89.1771 101.926 87.9719 103 86.4318 103Z" fill="black"/>
<path d="M93.9981 103C91.5876 103 89.5789 101.12 89.5789 98.7032C89.5789 96.2862 91.5207 94.3392 93.9981 94.3392C96.4086 94.3392 98.4174 96.2862 98.4174 98.7032C98.4174 101.12 96.4086 103 93.9981 103ZM93.9981 95.8163C92.3911 95.8163 91.1189 97.159 91.1189 98.7032C91.1189 100.247 92.3911 101.59 93.9981 101.59C95.6051 101.59 96.8774 100.247 96.8774 98.7032C96.8774 97.159 95.6721 95.8163 93.9981 95.8163Z" fill="black"/>
<path d="M99.4219 102.866V94.6078H100.962V101.456H103.506V102.866H99.4219Z" fill="black"/>
<path d="M109.6 101.792C108.997 102.597 108.06 103 107.055 103C106.118 103 105.113 102.597 104.578 101.792C104.176 101.254 104.042 100.449 104.042 99.7774V94.5406H105.582V99.7774C105.582 100.717 105.917 101.523 107.055 101.523C108.193 101.523 108.528 100.717 108.528 99.7774V94.5406H110.068V99.7774C110.068 100.516 110.001 101.254 109.6 101.792Z" fill="black"/>
<path d="M113.684 96.0177V102.866H112.144V96.0177H110.604V94.6078H115.291V96.0177H113.684Z" fill="black"/>
<path d="M115.894 102.866V94.6078H117.434V102.866H115.894Z" fill="black"/>
<path d="M122.79 103C120.38 103 118.371 101.12 118.371 98.7032C118.371 96.2862 120.313 94.3392 122.79 94.3392C125.201 94.3392 127.21 96.2862 127.21 98.7032C127.21 101.12 125.268 103 122.79 103ZM122.79 95.8163C121.183 95.8163 119.911 97.159 119.911 98.7032C119.911 100.247 121.183 101.59 122.79 101.59C124.397 101.59 125.67 100.247 125.67 98.7032C125.67 97.159 124.464 95.8163 122.79 95.8163Z" fill="black"/>
<path d="M133.303 102.866L129.754 96.8233V102.866H128.214V94.6078H130.022L133.504 100.65V94.6078H135.044V102.866H133.303Z" fill="black"/>
<path d="M144.016 99.0389C143.28 99.6431 142.543 99.7103 141.673 99.7103H141.003V102.866H139.463V94.6078H141.673C142.61 94.6078 143.347 94.6078 144.016 95.2792C144.619 95.7491 144.82 96.4205 144.82 97.159C144.82 97.8975 144.552 98.5689 144.016 99.0389ZM141.539 96.0177H141.003V98.3004H141.539C142.342 98.3004 143.28 98.1661 143.28 97.159C143.213 96.152 142.342 96.0177 141.539 96.0177Z" fill="black"/>
<path d="M149.306 102.866L147.096 99.7103V102.866H145.556V94.6078H148.168C148.904 94.6078 149.641 94.6749 150.244 95.1449C150.846 95.6149 151.248 96.3534 151.248 97.159C151.248 97.8975 150.98 98.6361 150.444 99.1732C150.043 99.576 149.641 99.7103 149.038 99.8445L151.315 102.933H149.306V102.866ZM148.034 96.0177H147.029V98.5689H148.034C148.837 98.5689 149.507 98.1661 149.507 97.2933C149.574 96.4205 148.837 96.0177 148.034 96.0177Z" fill="black"/>
<path d="M155.935 103C153.524 103 151.516 101.12 151.516 98.7032C151.516 96.2862 153.457 94.3392 155.935 94.3392C158.345 94.3392 160.354 96.2862 160.354 98.7032C160.354 101.12 158.345 103 155.935 103ZM155.935 95.8163C154.328 95.8163 153.056 97.159 153.056 98.7032C153.056 100.247 154.328 101.59 155.935 101.59C157.542 101.59 158.814 100.247 158.814 98.7032C158.814 97.159 157.542 95.8163 155.935 95.8163Z" fill="black"/>
<path d="M165.175 102.866H163.903L160.622 94.6078H162.296L164.573 100.919L166.849 94.6078H168.523L165.175 102.866Z" fill="black"/>
<path d="M169.126 102.866V94.6078H170.666V102.866H169.126Z" fill="black"/>
<path d="M176.759 102.329C175.956 102.799 174.884 102.866 173.947 102.866H172.005V94.6078H173.947C175.152 94.6078 176.491 94.7421 177.429 95.5477C178.299 96.3534 178.835 97.5619 178.835 98.7703C178.768 100.18 178.031 101.657 176.759 102.329ZM176.29 96.6891C175.487 96.0177 174.549 96.0177 173.545 96.0177V101.456H173.88C174.616 101.456 175.286 101.456 175.956 101.053C176.759 100.583 177.228 99.6431 177.228 98.7703C177.161 97.9647 176.893 97.2262 176.29 96.6891Z" fill="black"/>
<path d="M179.705 102.866V94.6078H184.259V96.0177H181.312V98.0318H184.192V99.4417H181.312V101.389H184.259V102.799H179.705V102.866Z" fill="black"/>
<path d="M189.28 102.866L187.071 99.7103V102.866H185.531V94.6078H188.142C188.879 94.6078 189.615 94.6749 190.218 95.1449C190.821 95.6149 191.222 96.3534 191.222 97.159C191.222 97.8975 190.954 98.6361 190.419 99.1732C190.017 99.576 189.615 99.7103 189.013 99.8445L191.289 102.933H189.28V102.866ZM188.008 96.0177H187.004V98.5689H188.008C188.812 98.5689 189.481 98.1661 189.481 97.2933C189.548 96.4205 188.812 96.0177 188.008 96.0177Z" fill="black"/>
<path d="M194.034 103C192.561 103 191.356 101.926 191.289 100.449H192.963C193.03 101.053 193.432 101.59 194.101 101.59C194.704 101.59 195.24 101.187 195.24 100.516C195.24 99.576 194.369 99.3746 193.633 99.106C193.365 98.9717 193.097 98.9046 192.896 98.7703C192.026 98.3004 191.624 97.629 191.624 96.6891C191.624 95.3463 192.695 94.3392 194.101 94.3392C195.441 94.3392 196.512 95.3463 196.579 96.6891H194.972C194.905 96.152 194.637 95.7491 194.034 95.7491C193.566 95.7491 193.164 96.0848 193.164 96.6219C193.164 97.4276 193.968 97.5618 194.57 97.7633C195.842 98.1661 196.78 98.8375 196.78 100.314C196.78 101.926 195.575 103 194.034 103Z" fill="black"/>
<path d="M200.596 100.315V98.9717H203.743V100.315H200.596Z" fill="black"/>
<path d="M207.828 102.866V101.456C208.832 100.516 209.837 99.6431 210.841 98.7032C211.31 98.2332 211.778 97.7633 211.778 97.0919C211.778 96.3534 211.31 95.8163 210.573 95.8163C210.104 95.8163 209.636 96.0848 209.435 96.4876C209.301 96.7562 209.301 97.0919 209.301 97.4276H207.828C207.828 97.3604 207.828 97.2262 207.828 97.159C207.828 95.6149 209.033 94.4064 210.573 94.4064C212.113 94.4064 213.385 95.6149 213.385 97.159C213.385 98.3675 212.649 99.2403 211.778 99.9788L210.038 101.456H213.385V102.866H207.828Z" fill="black"/>
<path d="M219.546 100.247C219.546 101.859 218.407 103 216.733 103C215.863 103 215.193 102.731 214.591 102.06C214.055 101.523 213.921 100.852 213.921 100.113V97.159C213.921 95.4806 215.126 94.3392 216.8 94.3392C218.407 94.3392 219.613 95.5477 219.613 97.159V100.247H219.546ZM218.006 97.2262C218.006 96.4876 217.47 95.8163 216.733 95.8163C215.863 95.8163 215.394 96.4876 215.394 97.2933V100.113C215.394 100.919 215.796 101.657 216.733 101.657C217.604 101.657 218.073 100.986 218.073 100.18V97.2262H218.006Z" fill="black"/>
<path d="M222.291 102.866V96.0177H221.22V94.6078H223.764V102.866H222.291Z" fill="black"/>
<path d="M229.054 103C227.38 103 226.108 101.657 226.108 100.046C226.108 99.3074 226.376 98.7032 226.777 98.099L229.121 94.6078H230.929L229.054 97.4276C229.188 97.4276 229.255 97.4276 229.389 97.4276C230.862 97.4276 231.933 98.7032 231.933 100.113C232 101.657 230.728 103 229.054 103ZM228.987 98.7032C228.183 98.7032 227.581 99.3746 227.581 100.113C227.581 100.919 228.183 101.59 228.987 101.59C229.79 101.59 230.393 100.919 230.393 100.18C230.46 99.3746 229.79 98.7032 228.987 98.7032Z" fill="black"/>
<path d="M81.8785 60.7703L83.4186 58.8233C84.2221 59.9647 85.1595 60.5689 86.3648 60.5689C87.9048 60.5689 88.6414 59.629 88.6414 57.7491V49.8269H83.4186V47.4099H91.3867V57.5477C91.3867 61.1732 89.6457 62.9187 86.4317 62.9187C84.6238 62.9859 82.9499 62.1802 81.8785 60.7703Z" fill="#2A6FB7"/>
<path d="M104.444 55.9364V62.7845H101.966V61.3746C101.364 62.3816 100.091 62.9187 98.4174 62.9187C95.8729 62.9187 94.199 61.4417 94.199 59.4276C94.199 57.4806 95.4712 55.9364 98.8861 55.9364H101.832V55.735C101.832 54.1237 100.895 53.1837 99.02 53.1837C97.7478 53.1837 96.4756 53.6537 95.6051 54.3251L94.6007 52.311C95.806 51.371 97.5469 50.8339 99.3548 50.8339C102.569 50.9682 104.444 52.5124 104.444 55.9364ZM101.832 59.0919V57.7491H99.087C97.2791 57.7491 96.8104 58.4205 96.8104 59.2933C96.8104 60.3004 97.6139 60.9046 98.953 60.9046C100.292 60.9046 101.364 60.3004 101.832 59.0919Z" fill="#2A6FB7"/>
<path d="M118.371 51.1025L113.55 62.7845H110.805L105.984 51.1025H108.729L112.211 59.7633L115.827 51.1025H118.371Z" fill="#2A6FB7"/>
<path d="M129.486 55.9364V62.7845H127.009V61.3746C126.406 62.3816 125.134 62.9187 123.46 62.9187C120.915 62.9187 119.241 61.4417 119.241 59.4276C119.241 57.4806 120.514 55.9364 123.929 55.9364H126.875V55.735C126.875 54.1237 125.937 53.1837 124.062 53.1837C122.79 53.1837 121.518 53.6537 120.648 54.3251L119.643 52.311C120.848 51.371 122.589 50.8339 124.397 50.8339C127.611 50.9682 129.486 52.5124 129.486 55.9364ZM126.875 59.0919V57.7491H124.129C122.322 57.7491 121.853 58.4205 121.853 59.2933C121.853 60.3004 122.656 60.9046 123.996 60.9046C125.268 60.9046 126.406 60.3004 126.875 59.0919Z" fill="#2A6FB7"/>
<path d="M84.1552 68.8268H90.5832C95.4042 68.8268 98.6182 71.9152 98.6182 76.4806C98.6182 81.0459 95.3372 84.1343 90.5832 84.1343H84.1552V68.8268ZM90.5162 81.7173C93.7972 81.7173 95.9399 79.636 95.9399 76.4806C95.9399 73.3251 93.7972 71.2438 90.5162 71.2438H86.9005V81.7173H90.5162Z" fill="#2A6FB7"/>
<path d="M111.876 79.1661H103.038C103.372 80.8446 104.712 81.9859 106.72 81.9859C107.992 81.9859 108.997 81.5831 109.8 80.7103L111.207 82.3887C110.202 83.6643 108.595 84.2686 106.653 84.2686C102.904 84.2686 100.426 81.7845 100.426 78.2933C100.426 74.8022 102.904 72.3181 106.252 72.3181C109.533 72.3181 111.943 74.735 111.943 78.3605C111.943 78.5619 111.943 78.8976 111.876 79.1661ZM103.038 77.3534H109.466C109.265 75.6749 107.992 74.5336 106.252 74.5336C104.511 74.5336 103.305 75.6749 103.038 77.3534Z" fill="#2A6FB7"/>
<path d="M125 72.4523L120.179 84.1343H117.434L112.613 72.4523H115.358L118.84 81.1131L122.455 72.4523H125V72.4523Z" fill="#2A6FB7"/>
<path d="M137.253 79.1661H128.415C128.75 80.8446 130.089 81.9859 132.098 81.9859C133.37 81.9859 134.374 81.5831 135.178 80.7103L136.584 82.3887C135.579 83.6643 133.972 84.2686 132.031 84.2686C128.281 84.2686 125.803 81.7845 125.803 78.2933C125.803 74.8022 128.281 72.3181 131.629 72.3181C134.91 72.3181 137.32 74.735 137.32 78.3605C137.253 78.5619 137.253 78.8976 137.253 79.1661ZM128.348 77.3534H134.776C134.575 75.6749 133.303 74.5336 131.562 74.5336C129.888 74.5336 128.616 75.6749 128.348 77.3534Z" fill="#2A6FB7"/>
<path d="M139.798 67.887H142.409V84.1343H139.798V67.887Z" fill="#2A6FB7"/>
<path d="M144.954 78.2933C144.954 74.8022 147.498 72.3181 150.98 72.3181C154.462 72.3181 157.006 74.8022 157.006 78.2933C157.006 81.7845 154.462 84.2686 150.98 84.2686C147.498 84.2686 144.954 81.7845 144.954 78.2933ZM154.328 78.2933C154.328 76.0778 152.922 74.6679 150.98 74.6679C149.105 74.6679 147.632 76.0778 147.632 78.2933C147.632 80.5089 149.038 81.9188 150.98 81.9188C152.922 81.9188 154.328 80.5089 154.328 78.2933Z" fill="#2A6FB7"/>
<path d="M171.469 78.2933C171.469 81.9188 169.059 84.2686 165.778 84.2686C164.372 84.2686 163.099 83.7315 162.162 82.7244V88.364H159.551V72.4523H162.095V73.9965C162.966 72.8552 164.305 72.3181 165.845 72.3181C169.059 72.3181 171.469 74.6679 171.469 78.2933ZM168.791 78.2933C168.791 76.0778 167.385 74.6679 165.443 74.6679C163.568 74.6679 162.095 76.0778 162.095 78.2933C162.095 80.5089 163.568 81.9188 165.443 81.9188C167.385 81.9188 168.791 80.5089 168.791 78.2933Z" fill="#2A6FB7"/>
<path d="M192.829 77.4205V84.1343H190.218V77.7562C190.218 75.6749 189.28 74.6679 187.673 74.6679C185.932 74.6679 184.727 75.8764 184.727 78.159V84.0672H182.116V77.6891C182.116 75.6078 181.178 74.6007 179.571 74.6007C177.83 74.6007 176.625 75.8092 176.625 78.0919V84H174.014V72.4523H176.558V73.9294C177.429 72.8552 178.701 72.3181 180.241 72.3181C181.915 72.3181 183.254 72.9223 184.057 74.2651C184.995 73.0566 186.468 72.3181 188.276 72.3181C190.954 72.3181 192.829 73.9294 192.829 77.4205Z" fill="#2A6FB7"/>
<path d="M206.756 79.1661H197.918C198.253 80.8446 199.592 81.9859 201.601 81.9859C202.873 81.9859 203.877 81.5831 204.681 80.7103L206.087 82.3887C205.082 83.6643 203.475 84.2686 201.534 84.2686C197.784 84.2686 195.307 81.7845 195.307 78.2933C195.307 74.8022 197.784 72.3181 201.132 72.3181C204.413 72.3181 206.823 74.735 206.823 78.3605C206.823 78.5619 206.823 78.8976 206.756 79.1661ZM197.918 77.3534H204.346C204.145 75.6749 202.873 74.5336 201.132 74.5336C199.391 74.5336 198.186 75.6749 197.918 77.3534Z" fill="#2A6FB7"/>
<path d="M220.483 77.4205V84.1343H217.872V77.7562C217.872 75.6749 216.867 74.6679 215.193 74.6679C213.318 74.6679 212.046 75.8764 212.046 78.159V84.0672H209.435V72.4523H211.979V73.9294C212.85 72.8552 214.189 72.3181 215.863 72.3181C218.474 72.3181 220.483 73.9294 220.483 77.4205Z" fill="#2A6FB7"/>
<path d="M230.594 83.53C229.991 84.0671 228.987 84.3357 228.049 84.3357C225.572 84.3357 224.166 82.9929 224.166 80.3746V74.735H222.291V72.5194H224.166V69.8339H226.777V72.5194H229.79V74.735H226.777V80.3074C226.777 81.4488 227.313 82.053 228.317 82.053C228.853 82.053 229.389 81.9187 229.79 81.583L230.594 83.53Z" fill="#2A6FB7"/>
<path d="M88.7084 43.6502H79.8029V52.1767H88.7084V43.6502Z" fill="white"/>
<path d="M150.444 57.4806V55.265H147.565C147.364 54.258 147.029 53.318 146.427 52.5124L148.436 50.4982L146.896 48.9541L144.887 50.9682C144.083 50.4311 143.146 50.0283 142.141 49.8269V46.9399H139.932V49.8269C138.927 50.0283 137.99 50.364 137.186 50.9682L135.178 48.9541L133.638 50.4982L135.646 52.5124C135.111 53.318 134.709 54.258 134.508 55.265H131.629V57.4806H134.508C134.709 58.4876 135.044 59.4276 135.646 60.2332L133.638 62.2474L135.178 63.7915L137.186 61.7774C137.99 62.3145 138.927 62.7173 139.932 62.9187V65.8057H142.141V62.9187C143.146 62.7173 144.083 62.3816 144.887 61.7774L146.896 63.7915L148.436 62.2474L146.427 60.2332C146.962 59.4276 147.364 58.4876 147.565 57.4806H150.444ZM146.36 56.3392C146.36 59.2262 144.016 61.6431 141.07 61.6431C138.124 61.6431 135.847 59.2262 135.847 56.3392C135.847 53.4523 138.191 51.0353 141.137 51.0353C144.083 51.0353 146.36 53.4523 146.36 56.3392Z" fill="black"/>
<path d="M163.166 60.3675V58.6891H160.957C160.823 57.9506 160.555 57.212 160.086 56.6078L161.626 55.0636L160.421 53.8551L158.881 55.3993C158.278 54.9293 157.542 54.6608 156.805 54.5265V52.311H155.131V54.5265C154.395 54.6608 153.658 54.9293 153.056 55.3993L151.516 53.8551L150.31 55.0636L151.85 56.6078C151.382 57.212 151.114 57.9506 150.98 58.6891H148.77V60.3675H150.98C151.114 61.106 151.382 61.8445 151.85 62.4488L150.31 63.993L151.516 65.2014L153.056 63.6573C153.658 64.1272 154.395 64.3958 155.131 64.5301V66.7456H156.805V64.5301C157.542 64.3958 158.278 64.1272 158.881 63.6573L160.421 65.2014L161.626 63.993L160.086 62.4488C160.555 61.8445 160.823 61.106 160.957 60.3675H163.166ZM160.019 59.4947C160.019 61.7103 158.211 63.523 156.002 63.523C153.792 63.523 151.984 61.7103 151.984 59.4947C151.984 57.2792 153.792 55.4665 156.002 55.4665C158.211 55.4665 160.019 57.2792 160.019 59.4947Z" fill="black"/>
</g>
<defs>
<clipPath id="clip0">
<rect width="214" height="76" fill="white" transform="translate(18 27)"/>
</clipPath>
</defs>
</svg>
