<svg width="205" height="75" viewBox="0 0 205 75" fill="none" xmlns="http://www.w3.org/2000/svg">
<g clip-path="url(#clip0)">
<path d="M96.7746 31.2693H96.8272V12.5928C96.8267 12.4613 96.8523 12.331 96.9023 12.2095C96.9524 12.0879 97.026 11.9774 97.1188 11.8843C97.2117 11.7912 97.322 11.7173 97.4435 11.667C97.565 11.6167 97.6952 11.5908 97.8267 11.5909H104.14C104.403 11.5997 104.652 11.7081 104.838 11.8942C105.024 12.0803 105.132 12.33 105.14 12.5928V48.0013C105.129 48.2581 105.018 48.5005 104.832 48.6773C104.645 48.854 104.397 48.9512 104.14 48.9483H103.529C103.056 48.9224 102.612 48.712 102.292 48.3623L81.8319 27.7971H81.7798V47.4213C81.7798 47.6864 81.6745 47.9407 81.487 48.1282C81.2996 48.3157 81.0454 48.4211 80.7802 48.4212H74.5168C74.2545 48.4123 74.0054 48.3041 73.8199 48.1184C73.6344 47.9328 73.5264 47.6836 73.5177 47.4213L73.4663 12.0117C73.4766 11.7539 73.5866 11.5103 73.7731 11.332C73.9595 11.1538 74.2079 11.055 74.4658 11.0563H74.8551C75.8336 11.0563 76.1218 11.4404 76.5863 11.8496L96.7746 31.2693Z" fill="#464646"/>
<path d="M8.60403 43.4244L11.0768 39.0581C11.1719 38.9176 11.2943 38.7977 11.4366 38.7054C11.579 38.6131 11.7384 38.5504 11.9055 38.5209C12.0726 38.4914 12.2439 38.4958 12.4092 38.5338C12.5745 38.5718 12.7306 38.6426 12.868 38.7421C13.079 38.8459 17.3705 41.6355 20.8439 41.6355C22.9489 41.6355 24.9782 40.3192 24.9782 38.4773C24.9782 36.2689 22.6324 34.5843 19.0546 33.1637C14.5291 31.3764 8.34131 27.8496 8.34131 21.5356C8.34131 16.327 12.8971 11.0667 20.9996 11.0667C26.4721 11.0667 31.1859 13.8559 32.7638 15.0146C33.5121 15.6053 33.3935 16.1646 33.0822 16.6968L30.3953 20.7458C29.7656 21.655 29.2907 21.7903 28.6065 21.4313C28.1332 21.1674 23.79 18.2735 20.5788 18.2735C18.6849 18.2735 16.7598 19.5369 16.7598 20.9576C16.7598 22.9041 18.8429 24.3773 22.9994 26.0623C27.103 27.6924 34.1311 30.9031 34.1311 38.0562C34.1311 43.4774 28.9448 48.9483 21.2093 48.9483C14.3703 48.9483 10.0776 46.1069 8.86953 44.8976C8.34131 44.3738 8.18328 44.1608 8.60403 43.4244Z" fill="#464646"/>
<path d="M37.8443 12.5928C37.841 12.3355 37.938 12.087 38.1147 11.8999C38.2915 11.7129 38.5342 11.6021 38.7913 11.5909H51.6283C54.0539 11.5796 56.4579 12.0476 58.7021 12.9681C60.9463 13.8885 62.9866 15.2432 64.7058 16.9544C66.425 18.6656 67.7892 20.6996 68.72 22.9395C69.6509 25.1795 70.1301 27.5812 70.1301 30.0069C70.1301 32.4325 69.6509 34.8343 68.72 37.0742C67.7892 39.3141 66.425 41.3481 64.7058 43.0593C62.9866 44.7705 60.9463 46.1252 58.7021 47.0457C56.4579 47.9661 54.0539 48.4341 51.6283 48.4228H38.7913C38.5345 48.4117 38.2922 48.3011 38.1154 48.1145C37.9387 47.9279 37.8415 47.6799 37.8443 47.4229V12.5928ZM51.1032 40.6356C57.0494 40.6356 61.3636 35.9525 61.3636 29.9553C61.3636 24.0083 57.0494 19.3272 51.1032 19.3272H46.0523V40.6352L51.1032 40.6356Z" fill="#464646"/>
<path d="M131.322 50.1138C128.616 50.1101 125.936 49.5729 123.437 48.5329C120.938 47.4928 118.669 45.9703 116.759 44.0525C114.849 42.1347 113.336 39.8591 112.306 37.356C111.276 34.8528 110.75 32.1712 110.757 29.4645C110.738 25.3888 111.932 21.3996 114.186 18.0038C116.44 14.608 119.652 11.959 123.415 10.3932C127.178 8.82743 131.322 8.41568 135.319 9.21028C139.317 10.0049 142.988 11.9699 145.866 14.8558L168.249 37.3429C169.278 38.3754 170.5 39.1948 171.846 39.7538C173.192 40.3129 174.635 40.6006 176.092 40.6006C177.55 40.6006 178.993 40.3129 180.338 39.7538C181.684 39.1948 182.906 38.3754 183.935 37.3429C185.492 35.7877 186.553 33.806 186.985 31.648C187.417 29.4901 187.199 27.2526 186.36 25.2181C185.521 23.1836 184.098 21.4433 182.271 20.2169C180.444 18.9906 178.294 18.3331 176.093 18.3276C174.635 18.323 173.191 18.6087 171.845 19.1681C170.498 19.7275 169.277 20.5494 168.251 21.5857L164.613 25.23C164.434 25.4145 164.189 25.5218 163.932 25.5292C163.675 25.5366 163.425 25.4436 163.235 25.2698L157.925 19.9239C157.74 19.7444 157.633 19.5001 157.625 19.2429C157.618 18.9856 157.711 18.7356 157.885 18.5458L161.547 14.855C164.427 11.9748 168.098 10.0148 172.093 9.22344C176.089 8.43205 180.23 8.84493 183.99 10.4097C187.751 11.9745 190.962 14.6208 193.217 18.013C195.472 21.4052 196.669 25.3905 196.656 29.4637C196.665 32.1756 196.137 34.8625 195.103 37.3697C194.07 39.8769 192.55 42.1548 190.633 44.0725C188.725 45.9869 186.459 47.506 183.963 48.5425C181.468 49.579 178.792 50.1126 176.09 50.1126C173.387 50.1126 170.712 49.579 168.216 48.5425C165.72 47.506 163.454 45.9869 161.547 44.0725L139.162 21.5822C138.133 20.5498 136.911 19.7307 135.566 19.1718C134.22 18.6129 132.777 18.3252 131.32 18.3252C129.863 18.3252 128.42 18.6129 127.074 19.1718C125.729 19.7307 124.507 20.5498 123.478 21.5822C121.921 23.1374 120.86 25.1191 120.428 27.2771C119.997 29.435 120.214 31.6725 121.053 33.707C121.892 35.7415 123.315 37.4819 125.142 38.7083C126.97 39.9347 129.119 40.5922 131.32 40.5978C132.778 40.6021 134.222 40.3163 135.568 39.7568C136.915 39.1974 138.136 38.3756 139.162 37.3393L142.801 33.6955C142.981 33.5111 143.225 33.4039 143.482 33.3965C143.739 33.389 143.989 33.482 144.179 33.6557L149.489 39.002C149.673 39.1813 149.781 39.4255 149.788 39.6827C149.795 39.94 149.702 40.19 149.528 40.3797L145.866 44.0701C143.963 45.9909 141.698 47.514 139.201 48.551C136.704 49.5879 134.025 50.118 131.322 50.1102" fill="#AED800"/>
<path d="M35.8283 58.6764V64.0478C35.8513 64.4213 35.7864 64.795 35.639 65.139C35.4915 65.4829 35.2656 65.7876 34.9793 66.0286C34.3426 66.5088 33.558 66.7515 32.7613 66.7144C31.9882 66.7496 31.2283 66.5053 30.6205 66.0262C30.3418 65.7809 30.1228 65.4751 29.9804 65.1322C29.8379 64.7893 29.7757 64.4184 29.7986 64.0478V58.6764H30.8817V64.0438C30.8642 64.2948 30.9014 64.5466 30.9907 64.7818C31.0801 65.017 31.2194 65.2299 31.3991 65.406C31.7781 65.7282 32.2653 65.8943 32.7621 65.8709C33.2818 65.8954 33.7926 65.7302 34.1995 65.406C34.3873 65.2348 34.5341 65.0233 34.6288 64.7875C34.7235 64.5516 34.7637 64.2974 34.7464 64.0438V58.6764H35.8283Z" fill="#464646"/>
<path d="M42.859 63.0244H41.9247V66.6002H40.8408V58.6764H41.9239V62.1793H42.7599L45.6239 58.6764H46.822L46.8384 58.7035L43.7335 62.5077L47.0641 66.5731L47.0477 66.6002H45.756L42.859 63.0244Z" fill="#464646"/>
<path d="M52.5748 63.1661V66.6002H51.4917V58.6816H54.3884C55.1041 58.6329 55.8142 58.8372 56.3946 59.2588C56.6304 59.4666 56.8155 59.7257 56.9355 60.0162C57.0556 60.3067 57.1075 60.6209 57.0872 60.9346C57.0957 61.3136 56.983 61.6853 56.7656 61.9958C56.5254 62.3166 56.201 62.5646 55.8285 62.7123C56.2187 62.8171 56.5564 63.0624 56.7767 63.401C56.9796 63.7597 57.0794 64.1674 57.0653 64.5792V65.3248C57.0624 65.5488 57.0902 65.7722 57.1477 65.9887C57.1955 66.172 57.2946 66.3377 57.4335 66.4664V66.597H56.319C56.1658 66.4539 56.0684 66.2611 56.0443 66.0528C56.0034 65.8082 55.9832 65.5605 55.9838 65.3125V64.5888C55.9924 64.3997 55.9633 64.2108 55.8982 64.0332C55.8331 63.8555 55.7332 63.6925 55.6044 63.5538C55.4714 63.4215 55.3123 63.3182 55.1372 63.2508C54.9621 63.1834 54.7748 63.1532 54.5874 63.1621L52.5748 63.1661ZM52.5748 62.3226H54.2785C54.7458 62.3639 55.2129 62.2421 55.6005 61.9779C55.7419 61.8438 55.8515 61.6799 55.9214 61.498C55.9913 61.3161 56.0197 61.1209 56.0045 60.9266C56.0161 60.7361 55.987 60.5454 55.9193 60.3669C55.8516 60.1885 55.7467 60.0265 55.6116 59.8917C55.2647 59.6197 54.8278 59.4887 54.3884 59.5251H52.5748V62.3226Z" fill="#464646"/>
<path d="M66.8914 64.5593H63.539L62.7803 66.6002H61.6753L64.7698 58.6764H65.6989L68.744 66.6002H67.639L66.8914 64.5593ZM63.8742 63.6613H66.5674L65.2483 60.0533H65.2152L63.8742 63.6613Z" fill="#464646"/>
<path d="M74.3255 66.6002H73.2368V58.6764H74.3255V66.6002Z" fill="#464646"/>
<path d="M85.534 66.6002H84.4513L80.5981 60.4721L80.5651 60.4832V66.6002H79.4819V58.6764H80.567L84.4202 64.7934L84.4533 64.7822V58.6764H85.536L85.534 66.6002Z" fill="#464646"/>
<path d="M95.4101 62.9265H91.7439V65.7567H95.9717V66.6002H90.6616V58.6764H95.9112V59.5199H91.7439V62.083H95.4101V62.9265Z" fill="#464646"/>
<path d="M112.404 64.0586L112.415 64.0912C112.429 64.4422 112.366 64.7919 112.229 65.1154C112.092 65.4389 111.885 65.728 111.623 65.9621C111.032 66.483 110.261 66.7534 109.474 66.716C109.058 66.7294 108.644 66.651 108.261 66.4863C107.879 66.3217 107.537 66.0749 107.261 65.7634C106.679 65.0961 106.373 64.232 106.406 63.3472V61.9361C106.374 61.0505 106.679 60.1857 107.261 59.5171C107.537 59.2049 107.878 58.9574 108.261 58.7922C108.643 58.6271 109.057 58.5484 109.474 58.5618C110.258 58.5209 111.029 58.7767 111.634 59.2783C111.898 59.5151 112.106 59.8088 112.241 60.1372C112.376 60.4657 112.435 60.8205 112.414 61.175L112.403 61.2077H111.364C111.377 60.9659 111.339 60.7241 111.254 60.4974C111.169 60.2708 111.038 60.0642 110.869 59.8905C110.68 59.7212 110.46 59.5913 110.22 59.5082C109.981 59.4251 109.727 59.3905 109.474 59.4065C109.192 59.3985 108.912 59.4604 108.66 59.5865C108.408 59.7126 108.191 59.8991 108.028 60.1293C107.656 60.6521 107.466 61.2829 107.489 61.9242V63.3429C107.465 63.9876 107.655 64.6221 108.028 65.1484C108.191 65.3788 108.408 65.5653 108.66 65.6915C108.912 65.8177 109.192 65.8796 109.474 65.8717C109.727 65.8877 109.98 65.8534 110.22 65.7707C110.459 65.688 110.68 65.5586 110.869 65.3901C111.039 65.2144 111.171 65.0055 111.256 64.7765C111.341 64.5475 111.378 64.3033 111.364 64.0594L112.404 64.0586Z" fill="#464646"/>
<path d="M123.14 66.6002H122.057V63.1008H118.171V66.6002H117.088V58.6764H118.171V62.2589H122.057V58.6764H123.14V66.6002Z" fill="#464646"/>
<path d="M132.825 64.5593H129.472L128.714 66.6002H127.609L130.704 58.6764H131.632L134.678 66.6002H133.573L132.825 64.5593ZM129.808 63.6613H132.501L131.182 60.0533H131.149L129.808 63.6613Z" fill="#464646"/>
<path d="M140.229 63.4221V66.6002H139.146V58.6764H142.208C142.93 58.6315 143.643 58.8651 144.198 59.3292C144.652 59.788 144.907 60.4075 144.907 61.053C144.907 61.6986 144.652 62.3181 144.198 62.7768C143.64 63.2363 142.929 63.4669 142.208 63.4221H140.229ZM140.229 62.5782H142.208C142.429 62.5957 142.652 62.5662 142.861 62.4918C143.071 62.4174 143.262 62.2997 143.423 62.1463C143.694 61.8496 143.837 61.4587 143.824 61.0572C143.836 60.8452 143.803 60.6329 143.725 60.4353C143.647 60.2376 143.527 60.0594 143.373 59.913C143.219 59.7666 143.035 59.6555 142.834 59.5876C142.633 59.5197 142.419 59.4966 142.208 59.5199H140.229V62.5782Z" fill="#464646"/>
<path d="M155.172 59.5199H152.6V66.6002H151.517V59.5199H148.95V58.6764H155.172V59.5199Z" fill="#464646"/>
<path d="M164.429 62.9265H160.763V65.7567H164.989V66.6002H159.68V58.6764H164.929V59.5199H160.763V62.083H164.429V62.9265Z" fill="#464646"/>
<path d="M170.624 63.1661V66.6002H169.541V58.6816H172.438C173.154 58.633 173.864 58.8372 174.445 59.2588C174.681 59.4666 174.866 59.7257 174.986 60.0162C175.106 60.3067 175.158 60.6209 175.138 60.9346C175.146 61.3135 175.033 61.6852 174.816 61.9958C174.576 62.3165 174.251 62.5644 173.879 62.7123C174.269 62.8171 174.606 63.0624 174.827 63.401C175.03 63.7596 175.13 64.1674 175.115 64.5792V65.3248C175.112 65.5488 175.14 65.7722 175.198 65.9887C175.246 66.172 175.345 66.3377 175.484 66.4664V66.597H174.369C174.216 66.4539 174.119 66.261 174.095 66.0528C174.054 65.8082 174.034 65.5605 174.034 65.3124V64.5888C174.043 64.3997 174.014 64.2108 173.949 64.0331C173.883 63.8555 173.784 63.6925 173.655 63.5538C173.522 63.4215 173.363 63.3183 173.188 63.2509C173.012 63.1834 172.825 63.1532 172.638 63.1621L170.624 63.1661ZM170.624 62.3226H172.327C172.795 62.3639 173.262 62.2421 173.649 61.9779C173.791 61.8439 173.9 61.6799 173.97 61.498C174.04 61.3161 174.069 61.1209 174.053 60.9266C174.065 60.7361 174.036 60.5453 173.968 60.3669C173.9 60.1885 173.796 60.0265 173.66 59.8917C173.313 59.6196 172.877 59.4887 172.437 59.5251H170.624V62.3226Z" fill="#464646"/>
</g>
<defs>
<clipPath id="clip0">
<rect width="205" height="73.6408" fill="white" transform="translate(0 0.388351)"/>
</clipPath>
</defs>
</svg>
