<svg width="148" height="124" viewBox="0 0 148 124" fill="none" xmlns="http://www.w3.org/2000/svg">
<path d="M102.674 113.445C105.739 110.993 107.527 99.6532 108.038 94.2896C100.631 98.3762 89.6484 110.38 95.012 118.043C101.764 127.689 115.955 121.874 121.83 118.043C115.087 113.752 106.25 113.19 102.674 113.445Z" fill="black"/>
<path d="M117.71 102.743C119.908 100.199 119.719 90.2278 119.35 85.5604C113.765 90.1332 106.368 102.005 111.988 107.79C119.064 115.073 130.062 108.037 134.404 103.905C128.131 101.207 120.661 102.006 117.71 102.743Z" fill="black"/>
<path d="M128.644 88.778C129.828 86.1043 127.142 77.8569 125.651 74.0675C122.165 79.288 119.021 91.0405 125.164 94.4281C132.897 98.6929 140.263 90.0501 142.827 85.5115C136.924 84.8577 130.912 87.4167 128.644 88.778Z" fill="black"/>
<path d="M133.629 71.6963C133.799 68.9843 128.8 62.6609 126.279 59.8382C124.923 65.5123 125.97 76.7699 132.416 77.7431C140.532 78.9682 144.167 69.0607 144.939 64.2782C139.583 65.6106 135.167 69.7788 133.629 71.6963Z" fill="black"/>
<path d="M134.314 55.6424C133.847 52.9655 127.511 47.9815 124.402 45.8241C124.406 51.6581 128.048 62.3616 134.543 61.8053C142.721 61.105 143.947 50.6231 143.583 45.7923C138.685 48.3365 135.363 53.4191 134.314 55.6424Z" fill="black"/>
<path d="M130.049 39.8158C128.794 37.5698 121.573 35.0982 118.119 34.1432C119.948 39.3556 126.552 47.7809 132.182 45.2512C139.271 42.0665 137.087 32.316 135.25 28.1129C131.669 31.9191 130.29 37.5007 130.049 39.8158Z" fill="black"/>
<path d="M123.831 26.8467C122.178 25.0005 114.869 24.2012 111.422 24.0324C114.24 28.5456 122.225 35.071 126.984 31.5052C132.975 27.0161 128.864 18.3126 126.251 14.7497C123.688 19.0828 123.57 24.6198 123.831 26.8467Z" fill="black"/>
<path d="M114.256 16.4417C112.367 15.2729 105.88 16.4365 102.873 17.1644C106.44 20.3313 114.958 23.9199 118.147 19.6488C122.161 14.2717 116.422 7.82917 113.273 5.42742C112.167 9.8021 113.468 14.593 114.256 16.4417Z" fill="black"/>
<path d="M106.558 10.4168C104.866 9.65554 99.623 11.3273 97.2129 12.2583C100.511 14.4905 107.956 16.5312 110.129 12.6471C112.865 7.75707 107.41 3.05014 104.541 1.4057C104.103 5.14821 105.703 8.97246 106.558 10.4168Z" fill="black"/>
<path d="M90.4146 4.64113C93.7349 4.13031 100.529 4.18139 101.142 8.47226C99.6093 11.5371 91.1808 6.93981 90.4146 4.64113Z" fill="black"/>
<path d="M44.9764 113.445C41.9115 110.993 40.1236 99.6532 39.6128 94.2896C47.0197 98.3762 58.0022 110.38 52.6387 118.043C45.8862 127.689 31.6952 121.874 25.8208 118.043C32.5635 113.752 41.4007 113.19 44.9764 113.445Z" fill="black"/>
<path d="M29.9405 102.743C27.7427 100.199 27.9316 90.2278 28.3008 85.5604C33.8851 90.1332 41.283 102.005 35.6626 107.79C28.5867 115.073 17.5885 108.037 13.247 103.905C19.5199 101.207 26.9897 102.006 29.9405 102.743Z" fill="black"/>
<path d="M19.0064 88.778C17.823 86.1043 20.5087 77.8569 21.9995 74.0675C25.4858 79.288 28.6298 91.0405 22.4869 94.4281C14.7532 98.6929 7.38754 90.0501 4.82358 85.5115C10.7264 84.8577 16.7383 87.4167 19.0064 88.778Z" fill="black"/>
<path d="M14.0217 71.6963C13.8519 68.9843 18.8508 62.6609 21.3715 59.8382C22.728 65.5123 21.681 76.7699 15.2346 77.7431C7.11891 78.9682 3.48383 69.0607 2.71158 64.2782C8.06763 65.6106 12.4833 69.7788 14.0217 71.6963Z" fill="black"/>
<path d="M13.3371 55.6424C13.8041 52.9655 20.1393 47.9815 23.2486 45.8241C23.2451 51.6581 19.6028 62.3616 13.1072 61.8053C4.92948 61.105 3.7039 50.6231 4.06768 45.7923C8.96561 48.3365 12.2881 53.4191 13.3371 55.6424Z" fill="black"/>
<path d="M17.6021 39.8158C18.857 37.5698 26.0779 35.0982 29.5315 34.1432C27.7029 39.3556 21.0988 47.7809 15.4682 45.2512C8.37942 42.0665 10.5641 32.316 12.4008 28.1129C15.9816 31.9191 17.3603 37.5007 17.6021 39.8158Z" fill="black"/>
<path d="M23.8195 26.8467C25.4729 25.0005 32.7814 24.2012 36.2289 24.0324C33.4103 28.5456 25.4253 35.071 20.6669 31.5052C14.6762 27.0161 18.7871 18.3126 21.4003 14.7497C23.9627 19.0828 24.0808 24.6198 23.8195 26.8467Z" fill="black"/>
<path d="M33.3944 16.4417C35.2837 15.2729 41.7702 16.4365 44.7774 17.1644C41.2108 20.3313 32.6924 23.9199 29.5039 19.6488C25.4898 14.2717 31.2286 7.82917 34.3779 5.42742C35.4838 9.8021 34.1831 14.593 33.3944 16.4417Z" fill="black"/>
<path d="M41.0929 10.4168C42.7847 9.65554 48.0277 11.3273 50.4377 12.2583C47.1392 14.4905 39.6951 16.5312 37.5218 12.6471C34.7858 7.75707 40.2405 3.05014 43.11 1.4057C43.5478 5.14821 41.9477 8.97246 41.0929 10.4168Z" fill="black"/>
<path d="M57.2361 4.64113C53.9158 4.13031 47.1219 4.18139 46.5089 8.47226C48.0414 11.5371 56.4699 6.93981 57.2361 4.64113Z" fill="black"/>
<path d="M59.7656 28.1345H60.6728V20.3374H63.6887V19.5528H56.7497V20.3374H59.7656V28.1345ZM66.9195 28.1958C68.8074 28.1958 70.1928 26.8227 70.1928 24.9102C70.1928 22.9977 68.8074 21.6369 66.9195 21.6369C65.0315 21.6369 63.6339 22.9977 63.6339 24.9102C63.6339 26.8227 65.0315 28.1958 66.9195 28.1958ZM66.9195 27.4235C65.5464 27.4235 64.5166 26.4182 64.5166 24.9102C64.5166 23.4023 65.5464 22.397 66.9195 22.397C68.2925 22.397 69.3101 23.4023 69.3101 24.9102C69.3101 26.4182 68.2925 27.4235 66.9195 27.4235ZM75.2922 21.6369C74.2256 21.6369 73.3307 22.1028 72.8035 22.961V21.686H71.9698V30.5129H72.8403V26.9208C73.3797 27.7545 74.2624 28.1958 75.2922 28.1958C77.1311 28.1958 78.5042 26.8718 78.5042 24.9102C78.5042 22.961 77.1311 21.6369 75.2922 21.6369ZM75.2309 27.4235C73.8578 27.4235 72.828 26.4182 72.828 24.9102C72.828 23.4146 73.8578 22.397 75.2309 22.397C76.5917 22.397 77.6338 23.4146 77.6338 24.9102C77.6338 26.4182 76.5917 27.4235 75.2309 27.4235ZM83.6711 28.1345H84.5783V19.5528H83.6711V28.1345ZM89.0378 28.1345H89.945V20.3374H92.9609V19.5528H86.022V20.3374H89.0378V28.1345Z" fill="black"/>
<path d="M41.7745 70.7187H50.9049C57.3044 70.7187 61.6903 66.9948 61.6903 61.0642C61.6903 55.1337 57.3044 51.4098 50.9049 51.4098H41.7745V70.7187ZM47.2362 66.3604V55.7681H50.6842C53.9667 55.7681 56.1734 57.7266 56.1734 61.0642C56.1734 64.4019 53.9667 66.3604 50.6842 66.3604H47.2362ZM74.301 71.1049C80.4798 71.1049 85.0312 66.8569 85.0312 61.0642C85.0312 55.2716 80.4798 51.0236 74.301 51.0236C68.1221 51.0236 63.5707 55.2716 63.5707 61.0642C63.5707 66.8569 68.1221 71.1049 74.301 71.1049ZM74.301 66.5811C71.377 66.5811 69.0876 64.4019 69.0876 61.0642C69.0876 57.7266 71.377 55.5474 74.301 55.5474C77.2249 55.5474 79.5144 57.7266 79.5144 61.0642C79.5144 64.4019 77.2249 66.5811 74.301 66.5811ZM96.8014 71.1049C102.511 71.1049 105.877 67.8775 105.877 62.1124V51.4098H100.498V61.9469C100.498 65.257 99.1185 66.5811 96.8566 66.5811C94.5671 66.5811 93.1879 65.257 93.1879 61.9469V51.4098H87.7262V62.1124C87.7262 67.8775 91.0915 71.1049 96.8014 71.1049Z" fill="black"/>
<path d="M46.7458 41.142V37.9545H51.1838V37.1821H46.7458V34.1295H51.7233V33.3448H45.8386V41.9266H51.9071V41.142H46.7458ZM61.8981 35.429C60.7334 35.429 59.8139 35.9561 59.3481 36.7898C58.9558 35.8826 58.1221 35.429 57.0555 35.429C55.9767 35.429 55.143 35.8826 54.6894 36.6549V35.478H53.8558V41.9266H54.7262V38.5429C54.7262 37.0718 55.5721 36.2136 56.8839 36.2136C58.0608 36.2136 58.7473 36.9124 58.7473 38.2732V41.9266H59.6178V38.5429C59.6178 37.0718 60.4514 36.2136 61.7755 36.2136C62.9401 36.2136 63.6267 36.9124 63.6267 38.2732V41.9266H64.4971V38.1874C64.4971 36.3362 63.4673 35.429 61.8981 35.429ZM70.18 35.429C69.1134 35.429 68.2185 35.8948 67.6913 36.753V35.478H66.8577V44.3049H67.7281V40.7129C68.2675 41.5465 69.1502 41.9879 70.18 41.9879C72.019 41.9879 73.392 40.6638 73.392 38.7023C73.392 36.753 72.019 35.429 70.18 35.429ZM70.1187 41.2155C68.7456 41.2155 67.7158 40.2102 67.7158 38.7023C67.7158 37.2066 68.7456 36.1891 70.1187 36.1891C71.4795 36.1891 72.5216 37.2066 72.5216 38.7023C72.5216 40.2102 71.4795 41.2155 70.1187 41.2155ZM75.1664 41.9266H76.0369V32.8299H75.1664V41.9266ZM81.0946 41.9879C82.9826 41.9879 84.3679 40.6148 84.3679 38.7023C84.3679 36.7898 82.9826 35.429 81.0946 35.429C79.2066 35.429 77.809 36.7898 77.809 38.7023C77.809 40.6148 79.2066 41.9879 81.0946 41.9879ZM81.0946 41.2155C79.7215 41.2155 78.6917 40.2102 78.6917 38.7023C78.6917 37.1944 79.7215 36.1891 81.0946 36.1891C82.4677 36.1891 83.4852 37.1944 83.4852 38.7023C83.4852 40.2102 82.4677 41.2155 81.0946 41.2155ZM90.526 35.478L88.0986 40.9581L85.6712 35.478H84.764L87.645 41.9143L87.363 42.5396C86.9952 43.3487 86.6029 43.6184 86.0267 43.6184C85.5609 43.6184 85.1685 43.4468 84.8498 43.128L84.4452 43.7778C84.8375 44.1701 85.4137 44.3662 86.0145 44.3662C86.9339 44.3662 87.6205 43.9617 88.1599 42.6989L91.3842 35.478H90.526ZM98.0576 38.7023C98.0576 36.7653 96.7458 35.429 94.9314 35.429C93.117 35.429 91.7807 36.7898 91.7807 38.7023C91.7807 40.6148 93.1538 41.9879 95.1643 41.9879C96.1819 41.9879 97.0768 41.6201 97.6531 40.9335L97.1627 40.3696C96.6723 40.9335 95.9735 41.2155 95.1889 41.2155C93.779 41.2155 92.7492 40.3206 92.6511 38.972H98.0454C98.0454 38.8739 98.0576 38.7759 98.0576 38.7023ZM94.9314 36.1768C96.1942 36.1768 97.1136 37.0595 97.224 38.3222H92.6511C92.7615 37.0595 93.6809 36.1768 94.9314 36.1768ZM100.663 36.7408V35.478H99.8293V41.9266H100.7V38.641C100.7 37.1208 101.521 36.2626 102.87 36.2626C102.931 36.2626 103.005 36.2749 103.078 36.2749V35.429C101.889 35.429 101.068 35.8826 100.663 36.7408Z" fill="black"/>
<path d="M50.6167 89.3972L55.7229 84.3769C57.7396 82.4031 58.1901 81.1159 58.1901 79.6784C58.1901 77.1683 56.2592 75.6236 53.2127 75.6236C50.9171 75.6236 49.0506 76.3959 47.892 77.769L48.9862 78.713C49.9731 77.5759 51.3247 77.0396 53.084 77.0396C55.3796 77.0396 56.6025 78.1123 56.6025 79.8501C56.6025 80.8799 56.2807 81.8882 54.5858 83.5617L48.3426 89.6762V90.7703H58.8767V89.3972H50.6167ZM66.7172 90.8991C70.1928 90.8991 72.7244 88.0456 72.7244 83.2613C72.7244 78.477 70.1928 75.6236 66.7172 75.6236C63.2416 75.6236 60.7315 78.477 60.7315 83.2613C60.7315 88.0456 63.2416 90.8991 66.7172 90.8991ZM66.7172 89.4831C64.0998 89.4831 62.2976 87.2733 62.2976 83.2613C62.2976 79.2493 64.0998 77.0396 66.7172 77.0396C69.3346 77.0396 71.1368 79.2493 71.1368 83.2613C71.1368 87.2733 69.3346 89.4831 66.7172 89.4831ZM76.8899 89.3972L81.996 84.3769C84.0128 82.4031 84.4633 81.1159 84.4633 79.6784C84.4633 77.1683 82.5324 75.6236 79.4859 75.6236C77.1903 75.6236 75.3237 76.3959 74.1652 77.769L75.2594 78.713C76.2463 77.5759 77.5979 77.0396 79.3572 77.0396C81.6528 77.0396 82.8757 78.1123 82.8757 79.8501C82.8757 80.8799 82.5539 81.8882 80.859 83.5617L74.6158 89.6762V90.7703H85.1498V89.3972H76.8899ZM92.9904 90.8991C96.466 90.8991 98.9976 88.0456 98.9976 83.2613C98.9976 78.477 96.466 75.6236 92.9904 75.6236C89.5148 75.6236 87.0046 78.477 87.0046 83.2613C87.0046 88.0456 89.5148 90.8991 92.9904 90.8991ZM92.9904 89.4831C90.373 89.4831 88.5708 87.2733 88.5708 83.2613C88.5708 79.2493 90.373 77.0396 92.9904 77.0396C95.6078 77.0396 97.41 79.2493 97.41 83.2613C97.41 87.2733 95.6078 89.4831 92.9904 89.4831Z" fill="black"/>
</svg>
