<svg width="122" height="130" viewBox="0 0 122 130" fill="none" xmlns="http://www.w3.org/2000/svg">
<path fill-rule="evenodd" clip-rule="evenodd" d="M0 97.5905L60.6459 130.454L121.292 97.5905V31.8635L60.6459 -1L0 31.8635V97.5905ZM120.308 32.4491L60.6459 0.118558L0.983447 32.4491V97.0049L60.6459 129.335L120.308 97.0049V32.4491Z" fill="#6A797D"/>
<path fill-rule="evenodd" clip-rule="evenodd" d="M3.60608 95.6236L60.646 126.52L117.686 95.6236V33.8303L60.646 2.93372L3.60608 33.8303V95.6236ZM112.441 36.9543L60.646 8.8988L8.85113 36.9543V92.4995L60.646 120.555L112.441 92.4995V36.9543Z" fill="#6A797D"/>
<path fill-rule="evenodd" clip-rule="evenodd" d="M8.8512 92.8371L60.6461 120.947L112.441 92.8371V36.6168L60.6461 8.50659L8.8512 36.6168V92.8371ZM111.785 37.0069L60.6461 9.25256L9.50683 37.0069V92.447L60.6461 120.201L111.785 92.447V37.0069Z" fill="#17313B"/>
<path d="M3.60608 49.4835H117.686V80.626H3.60608V49.4835Z" fill="#17313B"/>
<path d="M3.60608 46.5332H8.85113V83.9042H3.60608V46.5332Z" fill="#17313B"/>
<path d="M112.441 46.5332H117.686V83.9042H112.441V46.5332Z" fill="#17313B"/>
<path d="M76.2513 69.303C77.4043 69.303 78.3389 68.3684 78.3389 67.2154C78.3389 66.0625 77.4043 65.1278 76.2513 65.1278C75.0984 65.1278 74.1637 66.0625 74.1637 67.2154C74.1637 68.3684 75.0984 69.303 76.2513 69.303Z" fill="#FF3D2E"/>
<path d="M48.6628 55.3842H45.753V73.4804H48.6628V55.3842Z" fill="white"/>
<path d="M58.8517 67.7224C58.8517 70.4427 56.5106 70.6962 55.8779 70.6962C54.1695 70.6962 53.7903 69.0517 53.7903 68.0377V61.2061H50.8804V68.1016C50.8804 69.81 51.4492 71.2011 52.3353 72.2151C53.1576 73.0373 54.423 73.4804 55.8161 73.4804C56.828 73.4804 58.1572 73.2269 58.7899 72.4686V73.4804H61.6998V61.2061H58.7899V67.7224H58.8517Z" fill="white"/>
<path d="M67.4557 56.8391H64.5458V61.2061H62.3943V64.1159H64.5458V73.4804H67.4557V64.1159H69.6072V61.2061H67.4557V56.8391Z" fill="white"/>
<path d="M78.7182 69.81C78.0855 70.3788 77.2632 70.6962 76.3771 70.6962C74.3533 70.6962 72.8963 69.2413 72.8963 67.1536C72.8963 65.066 74.3512 63.6729 76.3771 63.6729C77.2632 63.6729 78.0855 63.9264 78.7182 64.559L79.1613 64.9382L81.0593 63.0402L80.6162 62.5971C79.4148 61.5852 77.9577 60.9526 76.3771 60.9526C72.7706 60.8887 70.1121 63.4833 70.1121 67.1536C70.1121 70.6962 72.8324 73.4186 76.3771 73.4186C78.0216 73.4186 79.5404 72.8499 80.744 71.7741L81.1871 71.331L79.1634 69.3073L78.7182 69.81Z" fill="white"/>
<path d="M91.4995 62.2818C90.6773 61.4596 89.6654 61.0165 88.3361 61.0165C87.3243 61.0165 86.2485 61.27 85.488 62.0283V55.3842H82.5781V73.4804H85.488V66.6467C85.488 63.9264 87.5118 63.6729 88.1466 63.6729C89.855 63.6729 89.855 65.3174 89.855 66.3314V73.4804H92.7649V66.2675C92.8288 64.6847 92.4496 63.2298 91.4995 62.2818Z" fill="white"/>
<path d="M41.7673 68.9239C40.6915 69.9996 39.1088 70.6323 37.5921 70.6323C34.3009 70.6323 31.9597 68.1016 31.9597 64.6208C31.9597 61.14 34.3009 58.6093 37.5281 58.6093C39.047 58.6093 40.5019 59.242 41.7034 60.3178L42.1465 60.7608L44.0445 58.8628L43.6014 58.4197C41.9569 56.7752 39.8054 55.8911 37.5281 55.8911C32.7181 55.9529 29.1755 59.6872 29.1755 64.6847C29.1755 69.6844 32.7181 73.4165 37.5281 73.4165C39.8693 73.4165 42.0847 72.5303 43.6014 70.8858L44.0445 70.4427L42.1465 68.419L41.7673 68.9239Z" fill="white"/>
<path d="M57.0975 22.3547H55.2996V27.3411H54.5659V22.3547H52.7719V21.7477H57.0975V22.3547ZM62.4501 24.7249C62.4501 25.273 62.3579 25.7519 62.1735 26.1617C61.9891 26.5689 61.7279 26.8801 61.3898 27.0952C61.0518 27.3103 60.6574 27.4179 60.2066 27.4179C59.7661 27.4179 59.3756 27.3103 59.0349 27.0952C58.6943 26.8775 58.4292 26.5689 58.2397 26.1694C58.0528 25.7673 57.9567 25.3025 57.9516 24.7749V24.3715C57.9516 23.8337 58.0451 23.3586 58.232 22.9463C58.419 22.534 58.6828 22.2189 59.0234 22.0013C59.3666 21.781 59.7584 21.6709 60.1989 21.6709C60.6471 21.6709 61.0415 21.7797 61.3821 21.9974C61.7253 22.2125 61.9891 22.5263 62.1735 22.9386C62.3579 23.3484 62.4501 23.826 62.4501 24.3715V24.7249ZM61.7164 24.3638C61.7164 23.7005 61.5832 23.1921 61.3168 22.8387C61.0505 22.4827 60.6779 22.3047 60.1989 22.3047C59.7328 22.3047 59.3653 22.4827 59.0964 22.8387C58.8301 23.1921 58.693 23.6839 58.6854 24.3139V24.7249C58.6854 25.3678 58.8198 25.8736 59.0887 26.2424C59.3602 26.6086 59.7328 26.7917 60.2066 26.7917C60.683 26.7917 61.0518 26.6188 61.313 26.2731C61.5742 25.9248 61.7087 25.4267 61.7164 24.7787V24.3638ZM64.6219 25.1514V27.3411H63.8843V21.7477H65.9472C66.5593 21.7477 67.0382 21.9039 67.384 22.2164C67.7323 22.5288 67.9064 22.9424 67.9064 23.4572C67.9064 24.0002 67.7361 24.4189 67.3955 24.7134C67.0575 25.0054 66.5721 25.1514 65.9396 25.1514H64.6219ZM64.6219 24.5482H65.9472C66.3416 24.5482 66.6438 24.456 66.8539 24.2716C67.0639 24.0847 67.1689 23.8158 67.1689 23.4649C67.1689 23.132 67.0639 22.8656 66.8539 22.6659C66.6438 22.4661 66.3557 22.3624 65.9895 22.3547H64.6219V24.5482ZM29.0552 40.3411V34.7477H30.8838C31.4908 34.7477 31.9466 34.8732 32.2514 35.1242C32.5587 35.3752 32.7124 35.7465 32.7124 36.2382C32.7124 36.4995 32.6381 36.7313 32.4896 36.9336C32.341 37.1333 32.1387 37.2883 31.8826 37.3984C32.1848 37.4829 32.423 37.6443 32.5971 37.8824C32.7738 38.1181 32.8622 38.3998 32.8622 38.7276C32.8622 39.2296 32.6996 39.624 32.3743 39.9108C32.0491 40.1976 31.5894 40.3411 30.9952 40.3411H29.0552ZM29.7928 37.7249V39.7379H31.0106C31.3537 39.7379 31.6239 39.6496 31.8211 39.4729C32.0209 39.2936 32.1208 39.0477 32.1208 38.7353C32.1208 38.0617 31.7545 37.7249 31.0221 37.7249H29.7928ZM29.7928 37.1333H30.9068C31.2295 37.1333 31.4869 37.0527 31.679 36.8913C31.8736 36.73 31.971 36.511 31.971 36.2344C31.971 35.9271 31.8813 35.7043 31.702 35.566C31.5228 35.4251 31.25 35.3547 30.8838 35.3547H29.7928V37.1333ZM37.7653 40.3411H34.1005V39.8301L36.0366 37.6788C36.3235 37.3536 36.5207 37.0898 36.6282 36.8875C36.7384 36.6826 36.7934 36.4713 36.7934 36.2536C36.7934 35.9617 36.7051 35.7222 36.5284 35.5352C36.3516 35.3483 36.116 35.2548 35.8215 35.2548C35.4681 35.2548 35.1928 35.356 34.9956 35.5583C34.8009 35.758 34.7036 36.0372 34.7036 36.3958H33.9929C33.9929 35.881 34.1581 35.4648 34.4885 35.1472C34.8214 34.8297 35.2658 34.6709 35.8215 34.6709C36.3414 34.6709 36.7525 34.8079 37.0547 35.0819C37.3569 35.3534 37.508 35.7158 37.508 36.1691C37.508 36.7197 37.1571 37.3754 36.4554 38.136L34.9571 39.761H37.7653V40.3411ZM39.0305 40.3411V34.7477H40.8591C41.4661 34.7477 41.9219 34.8732 42.2267 35.1242C42.534 35.3752 42.6877 35.7465 42.6877 36.2382C42.6877 36.4995 42.6134 36.7313 42.4649 36.9336C42.3164 37.1333 42.114 37.2883 41.8579 37.3984C42.1601 37.4829 42.3983 37.6443 42.5725 37.8824C42.7492 38.1181 42.8375 38.3998 42.8375 38.7276C42.8375 39.2296 42.6749 39.624 42.3496 39.9108C42.0244 40.1976 41.5647 40.3411 40.9705 40.3411H39.0305ZM39.7681 37.7249V39.7379H40.9859C41.3291 39.7379 41.5993 39.6496 41.7965 39.4729C41.9962 39.2936 42.0961 39.0477 42.0961 38.7353C42.0961 38.0617 41.7299 37.7249 40.9974 37.7249H39.7681ZM39.7681 37.1333H40.8822C41.2049 37.1333 41.4622 37.0527 41.6543 36.8913C41.849 36.73 41.9463 36.511 41.9463 36.2344C41.9463 35.9271 41.8566 35.7043 41.6774 35.566C41.4981 35.4251 41.2253 35.3547 40.8591 35.3547H39.7681V37.1333ZM50.6539 38.5663C50.5847 39.1579 50.3658 39.615 49.997 39.9377C49.6307 40.2578 49.1429 40.4179 48.5333 40.4179C47.8726 40.4179 47.3424 40.181 46.9429 39.7072C46.5459 39.2334 46.3475 38.5995 46.3475 37.8056V37.2678C46.3475 36.7479 46.4397 36.2908 46.6241 35.8963C46.811 35.5019 47.0748 35.1997 47.4154 34.9897C47.756 34.7772 48.1504 34.6709 48.5986 34.6709C49.1928 34.6709 49.6692 34.8373 50.0277 35.1703C50.3862 35.5007 50.595 35.9591 50.6539 36.5456H49.9125C49.8484 36.1 49.7088 35.7773 49.4937 35.5775C49.2812 35.3777 48.9828 35.2779 48.5986 35.2779C48.1274 35.2779 47.7573 35.452 47.4884 35.8003C47.2221 36.1486 47.0889 36.6442 47.0889 37.287V37.8287C47.0889 38.4356 47.2157 38.9184 47.4692 39.2769C47.7227 39.6355 48.0775 39.8148 48.5333 39.8148C48.9431 39.8148 49.2568 39.7226 49.4745 39.5382C49.6948 39.3512 49.8407 39.0272 49.9125 38.5663H50.6539ZM56.2946 37.7249C56.2946 38.273 56.2024 38.7519 56.018 39.1617C55.8336 39.5689 55.5724 39.8801 55.2343 40.0952C54.8963 40.3103 54.5019 40.4179 54.0511 40.4179C53.6106 40.4179 53.2201 40.3103 52.8794 40.0952C52.5388 39.8775 52.2737 39.5689 52.0842 39.1694C51.8973 38.7673 51.8012 38.3025 51.7961 37.7749V37.3715C51.7961 36.8337 51.8896 36.3586 52.0765 35.9463C52.2635 35.534 52.5273 35.2189 52.8679 35.0013C53.2111 34.781 53.6029 34.6709 54.0434 34.6709C54.4916 34.6709 54.886 34.7797 55.2266 34.9974C55.5698 35.2125 55.8336 35.5263 56.018 35.9386C56.2024 36.3484 56.2946 36.826 56.2946 37.3715V37.7249ZM55.5609 37.3638C55.5609 36.7005 55.4277 36.1921 55.1613 35.8387C54.895 35.4827 54.5224 35.3047 54.0434 35.3047C53.5773 35.3047 53.2098 35.4827 52.9409 35.8387C52.6746 36.1921 52.5375 36.6839 52.5299 37.3139V37.7249C52.5299 38.3678 52.6643 38.8736 52.9332 39.2424C53.2047 39.6086 53.5773 39.7917 54.0511 39.7917C54.5275 39.7917 54.8963 39.6188 55.1575 39.2731C55.4187 38.9248 55.5532 38.4267 55.5609 37.7787V37.3638ZM58.6815 34.7477L60.5101 39.3115L62.3387 34.7477H63.2953V40.3411H62.5577V38.1629L62.6268 35.8118L60.7905 40.3411H60.2258L58.3934 35.8234L58.4664 38.1629V40.3411H57.7288V34.7477H58.6815ZM65.663 38.1514V40.3411H64.9254V34.7477H66.9883C67.6004 34.7477 68.0793 34.9039 68.4251 35.2164C68.7734 35.5288 68.9475 35.9424 68.9475 36.4572C68.9475 37.0002 68.7772 37.4189 68.4366 37.7134C68.0985 38.0054 67.6132 38.1514 66.9806 38.1514H65.663ZM65.663 37.5482H66.9883C67.3827 37.5482 67.6849 37.456 67.8949 37.2716C68.1049 37.0847 68.2099 36.8158 68.2099 36.4649C68.2099 36.132 68.1049 35.8656 67.8949 35.6659C67.6849 35.4661 67.3968 35.3624 67.0306 35.3547H65.663V37.5482ZM72.775 38.8813H70.4317L69.9054 40.3411H69.1447L71.2806 34.7477H71.926L74.0658 40.3411H73.309L72.775 38.8813ZM70.6545 38.2743H72.5561L71.6033 35.6582L70.6545 38.2743ZM79.4453 40.3411H78.7039L75.888 36.0308V40.3411H75.1466V34.7477H75.888L78.7116 39.0772V34.7477H79.4453V40.3411ZM81.8745 40.3411H81.1369V34.7477H81.8745V40.3411ZM86.7161 37.7557H84.2921V39.7379H87.108V40.3411H83.5545V34.7477H87.0696V35.3547H84.2921V37.1525H86.7161V37.7557ZM90.002 37.8479C89.3694 37.666 88.9084 37.4432 88.619 37.1794C88.3322 36.9131 88.1888 36.5853 88.1888 36.196C88.1888 35.7555 88.3642 35.3918 88.7151 35.105C89.0685 34.8156 89.5269 34.6709 90.0903 34.6709C90.4745 34.6709 90.8164 34.7452 91.116 34.8937C91.4183 35.0422 91.6513 35.2471 91.8152 35.5083C91.9817 35.7696 92.0649 36.0551 92.0649 36.365H91.3235C91.3235 36.027 91.2159 35.7619 91.0008 35.5698C90.7857 35.3752 90.4822 35.2779 90.0903 35.2779C89.7267 35.2779 89.4424 35.3585 89.2375 35.5199C89.0352 35.6787 88.934 35.9002 88.934 36.1845C88.934 36.4124 89.0301 36.6058 89.2221 36.7645C89.4168 36.9208 89.7459 37.0642 90.2094 37.1948C90.6755 37.3254 91.0392 37.4701 91.3004 37.6289C91.5642 37.7851 91.7589 37.9682 91.8844 38.1783C92.0124 38.3883 92.0764 38.6354 92.0764 38.9197C92.0764 39.373 91.8997 39.7367 91.5463 40.0107C91.1929 40.2822 90.7204 40.4179 90.1288 40.4179C89.7446 40.4179 89.3861 40.3449 89.0531 40.1989C88.7202 40.0504 88.4628 39.8481 88.281 39.592C88.1017 39.3358 88.012 39.0452 88.012 38.7199H88.7535C88.7535 39.058 88.8777 39.3256 89.1261 39.5228C89.3771 39.7174 89.7113 39.8148 90.1288 39.8148C90.518 39.8148 90.8164 39.7354 91.0238 39.5766C91.2313 39.4178 91.335 39.2014 91.335 38.9274C91.335 38.6533 91.239 38.442 91.0469 38.2935C90.8548 38.1424 90.5065 37.9939 90.002 37.8479Z" fill="#17313B"/>
<path d="M25.8664 92.78L25.974 93.5176L26.1315 92.853L27.2378 88.95H27.8602L28.9397 92.853L29.0933 93.5292L29.2124 92.7762L30.0806 88.95H30.822L29.466 94.5433H28.7937L27.6412 90.4674L27.5529 90.041L27.4645 90.4674L26.2698 94.5433H25.5975L24.2453 88.95H24.9828L25.8664 92.78ZM35.1336 91.9579H32.7095V93.9402H35.5254V94.5433H31.972V88.95H35.487V89.557H32.7095V91.3548H35.1336V91.9579ZM38.4194 92.0501C37.7868 91.8683 37.3259 91.6455 37.0365 91.3817C36.7496 91.1154 36.6062 90.7875 36.6062 90.3983C36.6062 89.9578 36.7816 89.5941 37.1325 89.3073C37.4859 89.0179 37.9444 88.8732 38.5078 88.8732C38.8919 88.8732 39.2338 88.9474 39.5335 89.096C39.8357 89.2445 40.0688 89.4494 40.2327 89.7106C40.3991 89.9718 40.4824 90.2574 40.4824 90.5673H39.7409C39.7409 90.2292 39.6334 89.9642 39.4182 89.7721C39.2031 89.5774 38.8996 89.4801 38.5078 89.4801C38.1441 89.4801 37.8598 89.5608 37.655 89.7221C37.4526 89.8809 37.3515 90.1025 37.3515 90.3867C37.3515 90.6147 37.4475 90.808 37.6396 90.9668C37.8342 91.123 38.1633 91.2665 38.6269 91.3971C39.093 91.5277 39.4567 91.6724 39.7179 91.8312C39.9817 91.9874 40.1763 92.1705 40.3018 92.3805C40.4299 92.5905 40.4939 92.8377 40.4939 93.1219C40.4939 93.5753 40.3172 93.9389 39.9637 94.213C39.6103 94.4844 39.1378 94.6202 38.5462 94.6202C38.162 94.6202 37.8035 94.5472 37.4706 94.4012C37.1376 94.2527 36.8802 94.0503 36.6984 93.7942C36.5191 93.5381 36.4295 93.2474 36.4295 92.9222H37.1709C37.1709 93.2602 37.2951 93.5279 37.5435 93.7251C37.7945 93.9197 38.1287 94.017 38.5462 94.017C38.9355 94.017 39.2338 93.9376 39.4413 93.7789C39.6487 93.6201 39.7525 93.4037 39.7525 93.1296C39.7525 92.8556 39.6564 92.6443 39.4643 92.4958C39.2723 92.3447 38.924 92.1961 38.4194 92.0501ZM45.6352 89.557H43.8374V94.5433H43.1036V89.557H41.3096V88.95H45.6352V89.557ZM49.9544 91.9579H47.5304V93.9402H50.3463V94.5433H46.7928V88.95H50.3079V89.557H47.5304V91.3548H49.9544V91.9579ZM53.6436 92.2806H52.3298V94.5433H51.5884V88.95H53.44C54.0701 88.95 54.5541 89.0934 54.8922 89.3802C55.2328 89.6671 55.4031 90.0845 55.4031 90.6326C55.4031 90.9809 55.3083 91.2844 55.1188 91.5431C54.9319 91.8017 54.6706 91.9951 54.3351 92.1231L55.649 94.4972V94.5433H54.8576L53.6436 92.2806ZM52.3298 91.6775H53.4631C53.8293 91.6775 54.12 91.5828 54.3351 91.3932C54.5528 91.2037 54.6617 90.9502 54.6617 90.6326C54.6617 90.2869 54.5579 90.0218 54.3505 89.8374C54.1456 89.653 53.8485 89.5595 53.4592 89.557H52.3298V91.6775ZM61.0669 94.5433H60.3254L57.5096 90.2331V94.5433H56.7681V88.95H57.5096L60.3331 93.2795V88.95H61.0669V94.5433ZM68.1456 91.9579H65.7216V93.9402H68.5375V94.5433H64.984V88.95H68.4991V89.557H65.7216V91.3548H68.1456V91.9579ZM73.7211 88.95V92.7532C73.7185 93.2807 73.552 93.7123 73.2217 94.0478C72.8938 94.3833 72.4482 94.5715 71.8848 94.6125L71.6889 94.6202C71.0768 94.6202 70.5889 94.455 70.2252 94.1246C69.8615 93.7942 69.6772 93.3396 69.672 92.7608V88.95H70.4019V92.7378C70.4019 93.1424 70.5133 93.4574 70.7362 93.6828C70.959 93.9056 71.2765 94.017 71.6889 94.017C72.1063 94.017 72.4252 93.9056 72.6454 93.6828C72.8682 93.46 72.9796 93.1463 72.9796 92.7416V88.95H73.7211ZM77.2643 92.2806H75.9505V94.5433H75.209V88.95H77.0607C77.6907 88.95 78.1747 89.0934 78.5128 89.3802C78.8534 89.6671 79.0237 90.0845 79.0237 90.6326C79.0237 90.9809 78.929 91.2844 78.7395 91.5431C78.5525 91.8017 78.2913 91.9951 77.9558 92.1231L79.2696 94.4972V94.5433H78.4782L77.2643 92.2806ZM75.9505 91.6775H77.0837C77.45 91.6775 77.7406 91.5828 77.9558 91.3932C78.1735 91.2037 78.2823 90.9502 78.2823 90.6326C78.2823 90.2869 78.1786 90.0218 77.9711 89.8374C77.7663 89.653 77.4692 89.5595 77.0799 89.557H75.9505V91.6775ZM84.6914 91.9272C84.6914 92.4753 84.5992 92.9542 84.4148 93.364C84.2304 93.7712 83.9691 94.0823 83.6311 94.2975C83.293 94.5126 82.8986 94.6202 82.4479 94.6202C82.0074 94.6202 81.6168 94.5126 81.2762 94.2975C80.9356 94.0798 80.6705 93.7712 80.481 93.3717C80.294 92.9696 80.198 92.5047 80.1929 91.9772V91.5738C80.1929 91.036 80.2863 90.5609 80.4733 90.1486C80.6603 89.7362 80.924 89.4212 81.2647 89.2035C81.6078 88.9833 81.9997 88.8732 82.4402 88.8732C82.8884 88.8732 83.2828 88.982 83.6234 89.1997C83.9666 89.4148 84.2304 89.7285 84.4148 90.1409C84.5992 90.5506 84.6914 91.0283 84.6914 91.5738V91.9272ZM83.9576 91.5661C83.9576 90.9028 83.8244 90.3944 83.5581 90.041C83.2917 89.685 82.9191 89.507 82.4402 89.507C81.9741 89.507 81.6066 89.685 81.3377 90.041C81.0713 90.3944 80.9343 90.8861 80.9266 91.5162V91.9272C80.9266 92.57 81.0611 93.0758 81.33 93.4446C81.6014 93.8109 81.9741 93.994 82.4479 93.994C82.9242 93.994 83.293 93.8211 83.5542 93.4754C83.8155 93.1271 83.9499 92.6289 83.9576 91.981V91.5661ZM86.8631 92.3536V94.5433H86.1256V88.95H88.1885C88.8006 88.95 89.2795 89.1062 89.6252 89.4187C89.9735 89.7311 90.1477 90.1447 90.1477 90.6595C90.1477 91.2024 89.9774 91.6212 89.6368 91.9157C89.2987 92.2076 88.8134 92.3536 88.1808 92.3536H86.8631ZM86.8631 91.7505H88.1885C88.5829 91.7505 88.8851 91.6583 89.0951 91.4739C89.3051 91.2869 89.4101 91.018 89.4101 90.6672C89.4101 90.3342 89.3051 90.0679 89.0951 89.8681C88.8851 89.6684 88.597 89.5646 88.2307 89.557H86.8631V91.7505ZM94.5783 91.9579H92.1543V93.9402H94.9702V94.5433H91.4167V88.95H94.9318V89.557H92.1543V91.3548H94.5783V91.9579ZM54.4273 107.543H50.7625V107.032L52.6986 104.881C52.9855 104.556 53.1827 104.292 53.2902 104.09C53.4003 103.885 53.4554 103.674 53.4554 103.456C53.4554 103.164 53.367 102.924 53.1903 102.738C53.0136 102.551 52.778 102.457 52.4835 102.457C52.1301 102.457 51.8547 102.558 51.6575 102.761C51.4629 102.96 51.3656 103.239 51.3656 103.598H50.6549C50.6549 103.083 50.8201 102.667 51.1505 102.35C51.4834 102.032 51.9277 101.873 52.4835 101.873C53.0034 101.873 53.4144 102.01 53.7166 102.284C54.0188 102.556 54.1699 102.918 54.1699 103.371C54.1699 103.922 53.8191 104.578 53.1173 105.338L51.6191 106.963H54.4273V107.543ZM59.0155 105.158C59.0155 105.99 58.8733 106.609 58.589 107.013C58.3048 107.418 57.8604 107.62 57.256 107.62C56.6593 107.62 56.2175 107.423 55.9307 107.029C55.6438 106.632 55.4953 106.04 55.485 105.254V104.305C55.485 103.483 55.6272 102.872 55.9115 102.472C56.1957 102.073 56.6414 101.873 57.2483 101.873C57.8502 101.873 58.2932 102.067 58.5775 102.453C58.8618 102.837 59.0078 103.432 59.0155 104.236V105.158ZM58.3048 104.186C58.3048 103.584 58.2203 103.146 58.0512 102.872C57.8822 102.595 57.6146 102.457 57.2483 102.457C56.8847 102.457 56.6196 102.594 56.4531 102.868C56.2867 103.142 56.2009 103.563 56.1957 104.132V105.269C56.1957 105.874 56.2828 106.32 56.457 106.61C56.6337 106.897 56.9 107.04 57.256 107.04C57.6069 107.04 57.8668 106.904 58.0359 106.633C58.2075 106.361 58.2971 105.934 58.3048 105.35V104.186ZM63.9186 107.543H60.2537V107.032L62.1899 104.881C62.4767 104.556 62.6739 104.292 62.7815 104.09C62.8916 103.885 62.9467 103.674 62.9467 103.456C62.9467 103.164 62.8583 102.924 62.6816 102.738C62.5049 102.551 62.2693 102.457 61.9748 102.457C61.6213 102.457 61.346 102.558 61.1488 102.761C60.9542 102.96 60.8569 103.239 60.8569 103.598H60.1462C60.1462 103.083 60.3114 102.667 60.6417 102.35C60.9747 102.032 61.419 101.873 61.9748 101.873C62.4947 101.873 62.9057 102.01 63.2079 102.284C63.5101 102.556 63.6612 102.918 63.6612 103.371C63.6612 103.922 63.3104 104.578 62.6086 105.338L61.1104 106.963H63.9186V107.543ZM67.3351 107.543H66.6205V102.807L65.1876 103.333V102.688L67.2237 101.923H67.3351V107.543Z" fill="#17313B"/>
<path fill-rule="evenodd" clip-rule="evenodd" d="M104.573 47.1889H17.374V46.8611H104.573V47.1889Z" fill="#17313B"/>
<path fill-rule="evenodd" clip-rule="evenodd" d="M104.573 83.2486H17.374V82.9208H104.573V83.2486Z" fill="#17313B"/>
</svg>
