<svg width="396" height="360" viewBox="0 0 396 360" fill="none" xmlns="http://www.w3.org/2000/svg">
<path d="M319.231 317.231C321.574 319.574 325.382 319.581 327.644 317.16C350.124 293.102 365.476 263.217 371.915 230.847C378.745 196.512 375.239 160.923 361.843 128.581C348.446 96.2383 325.759 68.5947 296.652 49.1457C267.544 29.6967 233.323 19.3158 198.316 19.3158C163.309 19.3158 129.087 29.6967 99.98 49.1457C70.8725 68.5947 48.1859 96.2383 34.7892 128.581C21.3925 160.923 17.8873 196.512 24.7169 230.847C31.1558 263.217 46.5083 293.102 68.9878 317.16C71.2502 319.581 75.0575 319.574 77.4007 317.231L118.979 275.653C121.322 273.31 121.308 269.522 119.1 267.05C106.494 252.932 97.8633 235.67 94.1565 217.034C90.0588 196.434 92.1619 175.08 100.2 155.675C108.238 136.269 121.85 119.683 139.314 108.014C156.779 96.3443 177.312 90.1158 198.316 90.1158C219.32 90.1158 239.853 96.3443 257.317 108.014C274.782 119.683 288.394 136.269 296.432 155.675C304.47 175.08 306.573 196.434 302.475 217.034C298.769 235.67 290.138 252.932 277.531 267.05C275.324 269.522 275.31 273.31 277.653 275.653L319.231 317.231Z" fill="#FF0000"/>
<path d="M319.231 317.231C321.574 319.574 325.382 319.581 327.644 317.16C345.319 298.244 358.647 275.662 366.659 250.993C375.29 224.421 377.507 196.182 373.131 168.588C368.754 140.994 357.907 114.828 341.477 92.2304C325.048 69.6327 303.502 51.2453 278.603 38.5722C253.703 25.8992 226.157 19.3004 198.218 19.3159C170.279 19.3313 142.741 25.9604 117.855 38.6609C92.9697 51.3615 71.4443 69.7726 55.0396 92.3885C38.6349 115.004 27.817 141.182 23.4707 168.781L93.4088 179.795C96.0166 163.236 102.507 147.529 112.35 133.959C122.193 120.39 135.108 109.343 150.039 101.723C164.971 94.1025 181.494 90.1251 198.257 90.1158C215.021 90.1066 231.548 94.0658 246.488 101.67C261.428 109.274 274.355 120.306 284.213 133.865C294.071 147.423 300.579 163.123 303.205 179.679C305.831 196.236 304.5 213.179 299.322 229.122C294.762 243.161 287.333 256.073 277.531 267.05C275.324 269.522 275.31 273.31 277.653 275.653L319.231 317.231Z" fill="#DA0000"/>
<path d="M319.231 317.231C321.574 319.575 325.382 319.581 327.644 317.16C354.954 287.933 371.602 250.263 374.765 210.269C378.086 168.279 366.323 126.481 341.59 92.3851C316.857 58.2896 280.775 34.132 239.829 24.253C198.882 14.3741 155.754 19.4214 118.195 38.4881L150.244 101.619C172.779 90.1793 198.656 87.1509 223.223 93.0782C247.791 99.0056 269.44 113.5 284.28 133.957C299.12 154.415 306.178 179.494 304.185 204.688C302.351 227.883 292.957 249.777 277.532 267.05C275.325 269.522 275.31 273.31 277.653 275.653L319.231 317.231Z" fill="#B30000"/>
<path d="M319.231 317.232C321.574 319.575 325.381 319.582 327.644 317.161C345.346 298.216 358.687 275.594 366.695 250.882C375.321 224.266 377.513 195.984 373.093 168.356C368.674 140.729 357.767 114.542 341.269 91.9454C324.771 69.3483 303.151 50.9843 278.182 38.3597L246.235 101.542C261.217 109.117 274.189 120.136 284.088 133.694C293.987 147.252 300.531 162.964 303.182 179.54C305.834 196.117 304.519 213.086 299.343 229.056C294.786 243.12 287.349 256.056 277.531 267.051C275.324 269.523 275.31 273.311 277.653 275.654L319.231 317.232Z" fill="#A50023"/>
<path opacity="0.3" d="M267.421 148.792C267.868 148.484 267.982 147.872 267.669 147.428C260.135 136.74 250.23 127.934 238.724 121.703C226.93 115.315 213.789 111.815 200.38 111.488C186.971 111.162 173.676 114.019 161.585 119.825C149.789 125.489 139.467 133.803 131.422 144.111C131.088 144.54 131.172 145.157 131.604 145.486C132.036 145.815 132.652 145.731 132.987 145.303C140.843 135.242 150.921 127.128 162.436 121.598C174.247 115.926 187.234 113.136 200.332 113.454C213.431 113.773 226.267 117.193 237.788 123.432C249.02 129.516 258.691 138.111 266.049 148.542C266.362 148.986 266.974 149.1 267.421 148.792Z" fill="#A1A5A9"/>
<path opacity="0.3" d="M255.274 155.027C255.734 154.694 255.837 154.051 255.497 153.596C246.938 142.14 235.13 133.512 221.597 128.842C208.064 124.173 193.447 123.683 179.645 127.423C179.097 127.572 178.782 128.141 178.938 128.686C179.094 129.232 179.663 129.546 180.211 129.398C193.607 125.774 207.792 126.252 220.927 130.784C234.061 135.316 245.523 143.687 253.834 154.802C254.173 155.256 254.815 155.359 255.274 155.027Z" fill="#A1A5A9"/>
<path d="M319.231 317.232C321.574 319.575 325.382 319.582 327.644 317.16C345.365 298.195 358.716 275.544 366.721 250.802C375.343 224.154 377.517 195.842 373.067 168.19L303.166 179.441C305.837 196.032 304.532 213.019 299.359 229.008C294.803 243.09 287.36 256.043 277.531 267.051C275.324 269.523 275.31 273.311 277.653 275.654L319.231 317.232Z" fill="#960020"/>
<g clip-path="url(#clip0)">
<path d="M188.831 200.948C191.49 207.135 198.728 210.08 204.98 207.432L350.144 147.317L197.253 184.242C189.942 186.064 185.921 193.998 188.831 200.948Z" fill="black"/>
</g>
<defs>
<clipPath id="clip0">
<rect width="167" height="43" fill="white" transform="translate(184.316 167.064) rotate(-6.79121)"/>
</clipPath>
</defs>
</svg>
