<svg width="396" height="346" viewBox="0 0 396 346" fill="none" xmlns="http://www.w3.org/2000/svg">
<g opacity="0.8">
<path d="M305.452 39.8193L197.455 0L90.5698 39.1848C76.9114 45.8478 65 49.8138 65 62.8226V127.707C65 172.762 76.5938 217.499 100.258 256.843C120.269 289.999 151.08 324.107 198.725 345.841C242.401 331.246 275.117 292.537 294.97 259.381C318.634 219.879 330.227 175.3 330.227 130.246V71.8652C330.069 53.304 320.54 44.2613 305.452 39.8193Z" fill="#FF0000"/>
</g>
<g filter="url(#filter0_d)">
<path d="M263.849 204.015H243.996V96.1375C243.996 70.7547 223.35 50.1311 197.939 50.1311C172.528 50.1311 151.881 70.7547 151.881 96.1375V204.015H131.87V96.1375C131.87 59.8083 161.41 30.3008 197.78 30.3008C234.149 30.3008 263.69 59.8083 263.69 96.1375V204.015H263.849Z" fill="#E0E0E0"/>
<g opacity="0.4">
<g opacity="0.4">
<path opacity="0.4" d="M263.849 204.015H243.996V96.1375C243.996 70.7547 223.35 50.1311 197.939 50.1311C172.528 50.1311 151.881 70.7547 151.881 96.1375V204.015H131.87V96.1375C131.87 59.8083 161.41 30.3008 197.78 30.3008C234.149 30.3008 263.69 59.8083 263.69 96.1375V204.015H263.849Z" fill="black"/>
</g>
</g>
<path d="M277.507 270.01H118.211C113.129 270.01 109 265.885 109 260.809V165.306C109 160.229 113.129 156.104 118.211 156.104H277.507C282.589 156.104 286.718 160.229 286.718 165.306V260.809C286.718 265.885 282.589 270.01 277.507 270.01Z" fill="#E0E0E0"/>
<g opacity="0.7">
<path opacity="0.5" d="M212.709 198.145C212.709 189.895 206.038 183.232 197.78 183.232C189.521 183.232 182.851 189.895 182.851 198.145C182.851 204.966 187.456 210.519 193.65 212.423V234.633H201.75V212.423C208.103 210.519 212.709 204.966 212.709 198.145Z" fill="black"/>
</g>
</g>
<path d="M118.371 259.223C117.894 259.223 117.576 240.185 117.576 216.865C117.576 193.386 117.894 174.349 118.371 174.349C118.847 174.349 119.165 193.386 119.165 216.865C119.165 240.185 118.847 259.223 118.371 259.223Z" fill="#FAFAFA"/>
<path d="M186.186 217.182C186.186 217.182 185.55 217.024 184.439 216.23C183.327 215.437 182.056 214.168 180.627 212.264C177.927 208.616 175.386 202.111 176.974 194.972C178.721 187.833 183.962 183.074 188.091 181.17C190.156 180.06 192.062 179.584 193.332 179.425C194.603 179.267 195.397 179.267 195.397 179.267C195.397 179.584 192.538 179.743 188.727 182.122C184.915 184.185 180.151 188.785 178.562 195.448C176.974 201.953 179.198 208.298 181.58 211.788C183.962 215.437 186.344 217.024 186.186 217.182Z" fill="#FAFAFA"/>
<path d="M331.614 320.776C331.614 320.776 332.09 320.141 332.884 319.031C333.043 318.713 333.361 318.396 333.678 318.079C333.996 317.762 334.155 317.286 334.472 316.81C334.949 315.858 335.584 314.906 336.061 313.478C336.378 312.844 336.696 312.209 336.855 311.416C337.013 310.623 337.331 309.829 337.49 309.036C337.808 308.243 337.966 307.291 337.966 306.339C338.125 305.387 338.284 304.436 338.443 303.484C338.919 299.518 338.602 294.758 337.808 289.523C336.219 279.053 331.772 266.837 324.943 253.511C318.114 240.185 308.903 225.749 297.468 210.836C286.033 195.924 272.374 180.377 256.492 164.83C240.61 149.283 222.823 133.736 202.653 118.982C192.647 111.685 182.006 104.387 170.889 97.724C159.772 90.9024 148.019 84.7153 135.631 79.1628C123.243 73.7689 110.061 69.0096 96.4029 66.7886C89.5737 65.6782 82.4268 65.2022 75.4388 66.3127C71.9448 66.7887 68.6096 67.7405 65.2744 69.1683C62.098 70.7547 59.2393 72.8171 56.857 75.3554C54.4747 78.0523 52.8865 81.2251 51.616 84.5566C50.5043 87.8881 50.0278 91.3783 49.869 94.8684C49.5513 101.849 50.9807 108.829 52.7277 115.651C56.5394 129.135 62.7333 141.509 69.4037 153.249C76.2329 164.989 83.8562 175.935 91.7972 186.247C99.7381 196.558 108.155 206.236 116.573 215.437C133.567 233.681 151.037 249.704 168.348 263.664C185.659 277.625 202.494 289.523 218.693 299.042C234.893 308.719 250.298 316.334 264.274 321.41C278.25 326.646 290.956 329.66 301.597 329.977C306.838 330.136 311.602 329.977 315.573 329.025C316.526 328.867 317.479 328.549 318.432 328.232C319.385 327.915 320.179 327.756 320.973 327.439C321.767 327.122 322.561 326.804 323.196 326.487C323.831 326.17 324.467 325.694 325.102 325.376C326.373 324.742 327.325 323.949 328.12 323.314C328.596 322.997 328.914 322.68 329.231 322.521C329.549 322.204 329.867 321.886 330.025 321.728C331.137 321.252 331.614 320.776 331.614 320.776C331.614 320.776 331.137 321.252 330.025 322.362C329.708 322.68 329.549 322.838 329.231 323.155C328.914 323.473 328.437 323.79 328.12 324.107C327.325 324.742 326.373 325.535 325.102 326.17C324.467 326.487 323.831 326.963 323.196 327.28C322.402 327.597 321.767 327.915 320.973 328.232C320.179 328.549 319.385 328.867 318.432 329.025C317.479 329.184 316.526 329.66 315.573 329.818C311.602 330.77 306.838 331.088 301.597 330.929C290.956 330.612 278.25 327.597 264.274 322.521C250.14 317.444 234.734 309.829 218.535 300.152C202.335 290.475 185.341 278.735 168.03 264.775C150.719 250.814 133.249 234.791 116.096 216.547C107.679 207.346 99.2616 197.669 91.3207 187.357C83.3798 177.045 75.7565 166.099 68.7684 154.359C61.9392 142.62 55.7453 130.087 51.9336 116.602C50.0278 109.781 48.7573 102.801 49.0749 95.6616C49.2337 92.0129 49.7102 88.5227 50.8219 85.0326C52.0924 81.5424 53.8395 78.3696 56.2217 75.6727C58.7628 72.9757 61.7804 70.9134 64.9568 69.3269C68.292 67.8992 71.786 66.9473 75.28 66.3127C82.4268 65.2022 89.5737 65.8368 96.5617 66.7886C110.538 69.0096 123.561 73.7689 136.108 79.1628C148.495 84.7153 160.407 90.9024 171.524 97.724C182.642 104.546 193.282 111.685 203.288 118.982C223.299 133.736 241.246 149.442 257.128 164.989C272.851 180.536 286.668 196.083 298.103 211.154C309.538 226.225 318.749 240.503 325.578 253.987C332.249 267.313 336.696 279.687 338.284 290.158C339.078 295.393 339.237 300.152 338.919 304.118C338.919 305.07 338.602 306.022 338.443 306.974C338.284 307.926 338.125 308.719 337.808 309.671C337.649 310.464 337.331 311.257 337.172 312.05C336.855 312.844 336.537 313.478 336.378 314.113C335.902 315.382 335.266 316.492 334.631 317.444C334.314 317.92 334.155 318.396 333.837 318.713C333.519 319.031 333.361 319.348 333.043 319.665C332.09 320.141 331.614 320.776 331.614 320.776Z" fill="#960020"/>
<path d="M382.436 198.145C382.436 198.145 382.436 197.351 382.277 195.924C382.277 195.606 382.277 195.13 382.118 194.654C382.118 194.178 381.959 193.703 381.8 193.227C381.642 192.275 381.324 191.006 380.847 189.736C380.53 189.102 380.371 188.309 380.053 187.674C379.736 187.04 379.418 186.246 378.942 185.453C378.624 184.66 378.148 183.867 377.671 183.073C377.195 182.28 376.718 181.487 376.083 180.694C373.701 177.362 370.365 174.031 366.395 170.699C358.295 164.036 346.86 157.849 332.884 152.297C318.908 146.903 302.391 142.302 283.968 138.653C265.386 135.005 244.899 132.625 222.823 131.515C200.747 130.404 176.924 130.721 152.148 133.101C139.76 134.211 127.055 135.957 114.191 138.336C101.326 140.716 88.462 143.889 75.4389 148.013C62.5745 152.297 49.7102 157.373 37.9576 164.988C32.0813 168.796 26.5227 173.079 21.9169 178.473C19.6935 181.17 17.7876 184.184 16.3583 187.357C15.0877 190.688 14.2936 194.02 14.1348 197.669C14.1348 201.159 14.9289 204.649 16.3583 207.98C17.7876 211.153 19.6935 214.167 21.9169 216.864C26.3638 222.258 32.0813 226.7 37.9576 230.349C49.7102 237.805 62.5745 243.04 75.4389 247.324C88.3032 251.449 101.326 254.621 114.191 257.001C127.055 259.381 139.76 261.126 152.148 262.236C176.924 264.616 200.747 264.775 222.823 263.823C244.899 262.712 265.545 260.333 283.968 256.684C302.391 253.035 318.908 248.593 332.884 243.04C346.86 237.647 358.295 231.46 366.395 224.638C370.524 221.306 373.859 217.975 376.083 214.643C376.718 213.85 377.195 213.057 377.671 212.264C378.148 211.471 378.624 210.677 378.942 209.884C379.259 209.091 379.736 208.456 380.053 207.663C380.371 206.87 380.53 206.235 380.847 205.601C381.324 204.332 381.642 203.062 381.8 202.111C381.959 201.635 381.959 201.159 382.118 200.683C382.118 200.207 382.118 199.89 382.277 199.572C382.436 198.938 382.436 198.145 382.436 198.145C382.436 198.145 382.436 198.938 382.277 200.366C382.277 200.683 382.277 201.159 382.277 201.635C382.277 202.111 382.118 202.587 381.959 203.062C381.8 204.173 381.483 205.283 381.006 206.553C380.847 207.187 380.53 207.98 380.212 208.615C379.895 209.25 379.577 210.043 379.1 210.836C378.783 211.629 378.306 212.422 377.83 213.216C377.353 214.009 376.877 214.802 376.242 215.595C373.859 218.927 370.524 222.258 366.554 225.59C358.454 232.411 346.86 238.598 333.043 244.151C319.067 249.703 302.55 254.304 283.968 257.953C265.386 261.602 244.899 263.981 222.664 265.092C200.429 266.202 176.765 265.885 151.831 263.664C139.443 262.554 126.737 260.808 113.873 258.429C101.009 256.049 87.9855 252.876 75.1212 248.752C62.2569 244.468 49.2338 239.233 37.3223 231.777C31.446 227.969 25.7286 223.527 21.1228 217.975C18.8994 215.278 16.8347 212.105 15.4053 208.774C13.976 205.442 13.1819 201.793 13.1819 198.145C13.1819 194.496 14.1348 190.847 15.4053 187.515C16.8347 184.184 18.8994 181.17 21.1228 178.473C25.7286 172.92 31.446 168.637 37.3223 164.83C49.2338 157.215 62.0981 151.979 74.9624 147.855C87.8267 143.73 100.85 140.557 113.714 138.178C126.579 135.798 139.284 134.053 151.672 132.942C176.606 130.563 200.27 130.404 222.505 131.515C244.74 132.625 265.227 135.005 283.809 138.653C302.391 142.302 318.908 146.903 332.884 152.455C346.86 158.008 358.295 164.195 366.395 171.017C370.524 174.348 373.859 177.68 376.083 181.011C376.718 181.804 377.195 182.756 377.671 183.391C378.148 184.184 378.624 184.977 378.942 185.77C379.259 186.564 379.736 187.357 380.053 187.991C380.371 188.785 380.53 189.419 380.847 190.054C381.324 191.323 381.483 192.592 381.8 193.544C381.959 194.02 381.959 194.496 382.118 194.972C382.118 195.448 382.118 195.765 382.118 196.241C382.436 197.51 382.436 198.145 382.436 198.145Z" fill="#960020"/>
<path d="M315.097 45.5311C315.097 45.5311 314.461 45.2138 313.35 44.4206C313.032 44.2619 312.714 43.9446 312.397 43.786C312.079 43.6273 311.603 43.3101 311.126 43.1514C310.173 42.6755 309.062 42.1996 307.791 41.7236C307.156 41.565 306.52 41.2477 305.726 41.0891C304.932 40.9304 304.138 40.7718 303.344 40.6131C302.55 40.4545 301.597 40.2958 300.644 40.2958C299.691 40.2958 298.738 39.9786 297.785 40.1372C293.656 39.9786 289.05 40.6131 283.968 41.7236C273.645 44.1033 261.734 49.3385 248.869 56.9533C236.005 64.5682 222.346 74.88 208.212 87.2541C194.077 99.6283 179.465 114.382 165.172 131.198C150.719 148.014 136.425 166.893 123.085 187.992C116.414 198.463 110.062 209.568 104.026 221.149C97.9913 232.73 92.5915 244.945 87.9858 257.637C83.5388 270.328 79.7272 283.813 78.4566 297.615C77.8213 304.595 77.8213 311.575 79.4095 318.555C80.2036 322.046 81.3154 325.377 83.0624 328.391C84.8094 331.405 87.0328 334.261 89.8916 336.482C92.7503 338.544 95.9267 340.131 99.4207 341.083C102.915 341.876 106.409 342.193 109.903 342.193C116.891 342.035 123.879 340.131 130.39 337.91C143.572 333.151 155.643 326.17 166.76 318.714C178.036 311.099 188.359 302.691 198.047 294.124C207.735 285.399 216.947 276.515 225.523 267.472C242.516 249.228 257.287 230.667 269.992 212.582C282.698 194.497 293.338 176.729 301.915 159.913C310.014 142.779 316.526 127.073 320.814 112.637C325.102 98.3591 327.167 85.509 326.849 74.88C326.69 69.6448 326.055 64.8855 324.943 61.078C324.785 60.1262 324.308 59.1743 323.991 58.3811C323.673 57.4293 323.355 56.6361 323.038 55.8428C322.72 55.0496 322.243 54.415 321.926 53.6218C321.608 52.9873 321.132 52.3527 320.814 51.7181C320.179 50.449 319.226 49.6558 318.591 48.8625C318.273 48.3866 317.955 48.0693 317.638 47.7521C317.32 47.4348 317.002 47.1175 316.685 46.9588C315.573 46.007 315.097 45.5311 315.097 45.5311C315.097 45.5311 315.732 46.007 316.685 46.9588C317.002 47.1175 317.32 47.4348 317.638 47.7521C317.955 48.0693 318.273 48.3866 318.591 48.8625C319.226 49.6558 320.179 50.6076 320.814 51.7181C321.132 52.3527 321.608 52.8286 322.085 53.6218C322.402 54.2564 322.72 55.0496 323.196 55.8428C323.673 56.6361 323.99 57.4293 324.308 58.3811C324.626 59.333 325.102 60.1262 325.261 61.078C326.532 65.0441 327.008 69.6448 327.326 74.88C327.643 85.509 325.579 98.3591 321.449 112.796C317.32 127.232 310.809 143.096 302.232 159.913C293.815 176.729 283.015 194.497 270.31 212.741C257.604 230.985 242.834 249.546 225.84 267.79C217.264 276.832 208.212 285.875 198.365 294.6C188.677 303.326 178.195 311.575 166.919 319.349C155.643 326.963 143.572 333.944 130.39 338.703C123.72 341.083 116.732 342.828 109.585 342.986C105.932 343.145 102.438 342.828 98.7854 341.876C95.2914 340.924 91.9562 339.338 88.9387 337.117C86.0799 334.896 83.6976 332.04 81.9506 328.867C80.2036 325.694 79.0919 322.204 78.2978 318.714C76.7096 311.734 76.7096 304.595 77.3449 297.615C78.6154 283.654 82.4271 270.169 87.0328 257.478C91.6386 244.628 97.1972 232.571 103.074 220.99C109.109 209.409 115.461 198.304 122.132 187.834C135.473 166.734 149.925 147.856 164.378 131.04C178.83 114.223 193.441 99.4696 207.576 87.0955C221.711 74.7213 235.528 64.4095 248.393 56.7947C261.257 49.1798 273.327 43.9446 283.651 41.7236C288.733 40.6131 293.497 39.9786 297.627 40.1372C298.579 40.1372 299.691 40.2958 300.485 40.2958C301.438 40.4545 302.391 40.4545 303.185 40.6131C303.979 40.7718 304.773 40.9304 305.568 41.0891C306.362 41.2477 306.997 41.565 307.632 41.7236C308.903 42.0409 310.014 42.6755 310.967 43.1514C311.444 43.4687 311.92 43.6273 312.238 43.786C312.556 44.1033 312.873 44.2619 313.191 44.4206C314.461 45.2138 315.097 45.5311 315.097 45.5311Z" fill="#960020"/>
<path d="M6.82921 285.874C10.6009 285.874 13.6584 282.82 13.6584 279.052C13.6584 275.285 10.6009 272.23 6.82921 272.23C3.05754 272.23 0 275.285 0 279.052C0 282.82 3.05754 285.874 6.82921 285.874Z" fill="#FF0000"/>
<path d="M396 62.1879C396 65.9953 392.982 69.0095 389.171 69.0095C385.359 69.0095 382.342 65.9953 382.342 62.1879C382.342 58.3804 385.359 55.3662 389.171 55.3662C392.982 55.3662 396 58.3804 396 62.1879Z" fill="#FF0000"/>
<path d="M54.9515 296.663C54.9515 297.615 54.1574 298.408 53.2045 298.408C52.2516 298.408 51.4575 297.615 51.4575 296.663C51.4575 295.711 52.2516 294.918 53.2045 294.918C54.1574 294.918 54.9515 295.711 54.9515 296.663Z" fill="#FF0000"/>
<path d="M92.1149 105.021C92.1149 105.973 91.3208 106.767 90.3679 106.767C89.4149 106.767 88.6208 105.973 88.6208 105.021C88.6208 104.07 89.4149 103.276 90.3679 103.276C91.3208 103.276 92.1149 104.07 92.1149 105.021Z" fill="#FF0000"/>
<path d="M363.695 198.144C363.695 199.096 362.901 199.89 361.948 199.89C360.995 199.89 360.201 199.096 360.201 198.144C360.201 197.193 360.995 196.399 361.948 196.399C362.901 196.399 363.695 197.193 363.695 198.144Z" fill="#FF0000"/>
<path d="M387.836 117.078C387.836 118.03 387.042 118.823 386.089 118.823C385.136 118.823 384.342 118.03 384.342 117.078C384.342 116.126 385.136 115.333 386.089 115.333C387.042 115.333 387.836 116.126 387.836 117.078Z" fill="#FF0000"/>
<defs>
<filter id="filter0_d" x="79" y="4.30078" width="237.718" height="299.709" filterUnits="userSpaceOnUse" color-interpolation-filters="sRGB">
<feFlood flood-opacity="0" result="BackgroundImageFix"/>
<feColorMatrix in="SourceAlpha" type="matrix" values="0 0 0 0 0 0 0 0 0 0 0 0 0 0 0 0 0 0 127 0"/>
<feOffset dy="4"/>
<feGaussianBlur stdDeviation="15"/>
<feColorMatrix type="matrix" values="0 0 0 0 1 0 0 0 0 1 0 0 0 0 1 0 0 0 0.25 0"/>
<feBlend mode="normal" in2="BackgroundImageFix" result="effect1_dropShadow"/>
<feBlend mode="normal" in="SourceGraphic" in2="effect1_dropShadow" result="shape"/>
</filter>
</defs>
</svg>
