<svg width="396" height="388" viewBox="0 0 396 388" fill="none" xmlns="http://www.w3.org/2000/svg">
<path d="M396 0L306.468 59.456L328.981 68.4351L263.832 176.18L193.28 137.623L0.499634 387.5H31.4996H68.9996L211.226 194.828L286.411 235.312L371.692 85.4464L396 95.1112V0Z" fill="#FF0000"/>
<path d="M155.791 314.169L128.089 311.785C128.089 311.785 129.688 294.676 124.826 271.885C121.237 255.037 114.092 235.087 100.192 216.607C76.4386 185.066 5.96143 167.434 5.96143 167.434V163.353L8.50643 163.091C8.50643 163.091 7.4297 162.34 5.96143 161.883V152.251C8.04964 152.218 11.0188 152.349 13.988 153.035C12.3239 152.61 8.80009 151.827 5.96143 151.598V146.537C108.055 149.28 141.369 210.991 151.81 258.759C158.466 289.321 155.791 314.169 155.791 314.169Z" fill="#BDBDBD"/>
<path d="M277.07 305.19L155.791 314.169C155.171 295.492 150.276 276.163 145.578 261.502C140.879 246.842 136.311 236.851 136.311 236.851C100.029 157.312 5.96143 146.505 5.96143 146.505L110.372 103.731C160.815 107.519 196.184 131.779 220.949 162.21C269.402 221.831 277.07 305.19 277.07 305.19Z" fill="#E0E0E0"/>
<path d="M277.07 305.19L155.791 314.169L128.089 311.785C128.089 311.785 129.688 294.676 124.827 271.886C130.602 268.392 137.486 264.931 145.578 261.502C147.699 260.588 149.787 259.674 151.81 258.76C229.009 223.072 221.798 167.532 220.917 162.21C269.402 221.831 277.07 305.19 277.07 305.19Z" fill="#BDBDBD"/>
<path d="M267.51 314.528L159.445 312.438L159.836 310.349C159.902 310.022 165.449 278.318 152.495 242.271C144.893 221.145 132.527 202.665 115.723 187.351C94.6451 168.152 66.4869 153.884 32.0314 144.905L26.713 143.533L111.057 109.935H111.383C112.297 109.903 134.027 109.576 161.957 122.8C178.337 130.538 193.411 141.378 206.756 154.961C223.429 171.94 237.427 193.294 248.422 218.468C249.303 220.394 269.826 266.531 268.717 294.219V294.252L267.51 314.528ZM163.687 308.912L264.149 310.871L265.128 294.056C265.552 282.987 262.257 266.694 255.535 246.907C250.445 231.888 245.159 220.068 245.127 219.937C234.327 195.188 220.59 174.226 204.276 157.573C191.258 144.284 176.542 133.705 160.587 126.13C143.261 117.902 128.187 115.029 119.443 114.049C114.842 113.527 110.209 114.147 105.935 115.845L47.4646 139.125C44.4302 140.333 44.5607 144.709 47.693 145.721C76.1123 154.896 99.8004 167.989 118.203 184.772C135.463 200.51 148.156 219.513 155.921 241.226C162.838 260.523 164.502 278.448 164.665 290.072C164.796 299.084 164.111 305.745 163.687 308.912Z" fill="#BDBDBD"/>
<path d="M209.366 190.257C209.366 208.085 198.925 218.827 181.143 218.827C163.36 218.827 144.893 208.052 144.893 190.257C144.893 172.429 154.747 161.785 172.562 161.785C190.377 161.785 209.366 172.462 209.366 190.257Z" fill="#BDBDBD"/>
<path d="M371.235 372.22V382.864C371.235 383.713 370.974 384.497 370.517 385.15C370.061 385.836 369.375 386.391 368.592 386.685C368.364 386.783 368.103 386.848 367.842 386.881C367.614 386.913 367.353 386.946 367.124 386.946H197.685C195.499 386.946 193.705 385.215 193.574 383.06C193.574 382.995 193.574 382.93 193.574 382.864V372.22C193.574 372.155 193.574 372.089 193.574 372.024C193.672 369.869 195.499 368.139 197.685 368.139H367.124C367.385 368.139 367.614 368.171 367.842 368.204C368.103 368.237 368.364 368.335 368.592 368.4C369.375 368.694 370.061 369.249 370.517 369.934C370.974 370.588 371.235 371.371 371.235 372.22Z" fill="#FFC3C3"/>
<path d="M288.033 386.979H197.261C195.303 386.979 193.705 385.248 193.607 383.093C193.607 383.028 193.607 382.963 193.607 382.898V372.253C193.607 372.188 193.607 372.123 193.607 372.057C193.705 369.902 195.303 368.172 197.261 368.172H276.907C278.147 373.657 281.116 381.33 288.033 386.979Z" fill="#F95F66"/>
<path d="M350.614 368.107H348.689V386.947H350.614V368.107Z" fill="#F95F66"/>
<path d="M344.089 368.107H342.164V386.947H344.089V368.107Z" fill="#F95F66"/>
<path d="M336.29 368.107H334.365V386.947H336.29V368.107Z" fill="#F95F66"/>
<path d="M324.316 368.107H322.391V386.947H324.316V368.107Z" fill="#F95F66"/>
<path d="M311.623 368.107H309.698V386.947H311.623V368.107Z" fill="#F95F66"/>
<path d="M292.21 368.107H290.285V386.947H292.21V368.107Z" fill="#F95F66"/>
<path d="M274.003 368.107H272.078V386.947H274.003V368.107Z" fill="#F95F66"/>
<path d="M257.787 368.107H255.862V386.947H257.787V368.107Z" fill="#F95F66"/>
<path d="M356.814 368.107H354.889V386.947H356.814V368.107Z" fill="#F95F66"/>
<path d="M360.925 368.107H359V386.947H360.925V368.107Z" fill="#F95F66"/>
<path d="M364.873 368.107H362.948V386.947H364.873V368.107Z" fill="#F95F66"/>
<path d="M367.875 368.173V386.882C367.646 386.915 367.385 386.947 367.157 386.947H365.95V368.107H367.157C367.385 368.107 367.646 368.14 367.875 368.173Z" fill="#F95F66"/>
<path d="M370.55 369.937V385.152C370.093 385.838 369.408 386.393 368.625 386.687V368.402C369.408 368.696 370.061 369.251 370.55 369.937Z" fill="#F95F66"/>
<path d="M353.127 353.38V364.025C353.127 364.874 352.865 365.657 352.409 366.31C351.952 366.996 351.267 367.551 350.484 367.845C350.255 367.943 349.994 368.008 349.733 368.041C349.505 368.073 349.244 368.106 349.015 368.106H179.577C177.391 368.106 175.596 366.375 175.465 364.22C175.465 364.155 175.465 364.09 175.465 364.025V353.38C175.465 353.315 175.465 353.25 175.465 353.184C175.563 351.029 177.391 349.299 179.577 349.299H349.015C349.113 349.299 349.244 349.299 349.342 349.299C349.374 349.299 349.44 349.299 349.472 349.299C349.537 349.299 349.57 349.299 349.635 349.332C349.668 349.332 349.701 349.332 349.733 349.364C349.994 349.397 350.255 349.495 350.484 349.56C350.516 349.56 350.549 349.593 350.582 349.593C350.614 349.593 350.647 349.625 350.679 349.625C350.745 349.658 350.81 349.691 350.875 349.723C350.908 349.756 350.94 349.756 351.006 349.789C351.038 349.821 351.071 349.821 351.104 349.854C351.169 349.887 351.234 349.919 351.299 349.985C351.365 350.05 351.43 350.082 351.495 350.148C351.56 350.18 351.593 350.246 351.658 350.278C351.691 350.311 351.723 350.344 351.756 350.376C351.854 350.474 351.952 350.572 352.05 350.67C352.082 350.703 352.115 350.735 352.148 350.768C352.18 350.801 352.213 350.833 352.213 350.866C352.278 350.931 352.311 350.997 352.376 351.062C352.865 351.748 353.127 352.531 353.127 353.38Z" fill="#FFC3C3"/>
<path d="M269.924 368.106H179.12C177.162 368.106 175.563 366.375 175.465 364.22C175.465 364.155 175.465 364.09 175.465 364.025V353.38C175.465 353.315 175.465 353.25 175.465 353.184C175.563 351.029 177.162 349.299 179.12 349.299H258.766C258.798 349.462 258.831 349.593 258.863 349.756C260.201 355.241 263.203 362.653 269.924 368.106Z" fill="#F95F66"/>
<path d="M332.505 349.268H330.58V368.107H332.505V349.268Z" fill="#F95F66"/>
<path d="M325.98 349.268H324.055V368.107H325.98V349.268Z" fill="#F95F66"/>
<path d="M318.182 349.268H316.257V368.107H318.182V349.268Z" fill="#F95F66"/>
<path d="M306.175 349.268H304.25V368.107H306.175V349.268Z" fill="#F95F66"/>
<path d="M293.515 349.268H291.59V368.107H293.515V349.268Z" fill="#F95F66"/>
<path d="M274.101 349.268H272.176V368.107H274.101V349.268Z" fill="#F95F66"/>
<path d="M255.894 349.268H253.969V368.107H255.894V349.268Z" fill="#F95F66"/>
<path d="M239.645 349.268H237.72V368.107H239.645V349.268Z" fill="#F95F66"/>
<path d="M338.705 349.268H336.78V368.107H338.705V349.268Z" fill="#F95F66"/>
<path d="M342.816 349.268H340.891V368.107H342.816V349.268Z" fill="#F95F66"/>
<path d="M346.764 349.268H344.839V368.107H346.764V349.268Z" fill="#F95F66"/>
<path d="M349.733 349.333V368.042C349.505 368.075 349.244 368.107 349.015 368.107H347.808V349.268H349.015C349.277 349.268 349.505 349.3 349.733 349.333Z" fill="#F95F66"/>
<path d="M352.409 351.064V366.279C351.952 366.965 351.267 367.52 350.484 367.814V349.529C351.299 349.856 351.952 350.378 352.409 351.064Z" fill="#F95F66"/>
<path d="M361.871 334.999V345.644C361.871 346.493 361.61 347.276 361.153 347.929C360.696 348.615 360.011 349.17 359.228 349.464C359 349.562 358.739 349.627 358.478 349.66C358.249 349.692 357.988 349.725 357.76 349.725H188.321C187.636 349.725 186.983 349.562 186.429 349.268C185.221 348.648 184.373 347.439 184.243 346.035C184.243 345.97 184.243 345.905 184.243 345.84C184.243 345.774 184.243 345.709 184.243 345.644V334.999C184.243 334.934 184.243 334.869 184.243 334.803C184.34 332.648 186.168 330.918 188.354 330.918H357.792C358.053 330.918 358.282 330.951 358.51 330.983C358.771 331.016 359.032 331.114 359.261 331.179C360.044 331.473 360.729 332.028 361.186 332.714C361.61 333.334 361.871 334.15 361.871 334.999Z" fill="#FFC3C3"/>
<path d="M278.669 349.725H187.897C187.277 349.725 186.722 349.562 186.2 349.268C185.124 348.648 184.373 347.439 184.243 346.035C184.243 345.97 184.243 345.905 184.243 345.84C184.243 345.774 184.243 345.709 184.243 345.644V334.999C184.243 334.934 184.243 334.869 184.243 334.803C184.34 332.648 185.939 330.918 187.897 330.918H267.51C268.75 336.305 271.588 343.717 278.114 349.301C278.31 349.431 278.473 349.562 278.669 349.725Z" fill="#F95F66"/>
<path d="M341.25 330.887H339.325V349.726H341.25V330.887Z" fill="#F95F66"/>
<path d="M334.757 330.887H332.832V349.726H334.757V330.887Z" fill="#F95F66"/>
<path d="M326.926 330.887H325.001V349.726H326.926V330.887Z" fill="#F95F66"/>
<path d="M314.952 330.887H313.027V349.726H314.952V330.887Z" fill="#F95F66"/>
<path d="M302.259 330.887H300.334V349.726H302.259V330.887Z" fill="#F95F66"/>
<path d="M282.845 330.887H280.92V349.726H282.845V330.887Z" fill="#F95F66"/>
<path d="M264.672 330.887H262.746V349.726H264.672V330.887Z" fill="#F95F66"/>
<path d="M248.422 330.887H246.497V349.726H248.422V330.887Z" fill="#F95F66"/>
<path d="M347.482 330.887H345.557V349.726H347.482V330.887Z" fill="#F95F66"/>
<path d="M351.56 330.887H349.635V349.726H351.56V330.887Z" fill="#F95F66"/>
<path d="M355.541 330.887H353.616V349.726H355.541V330.887Z" fill="#F95F66"/>
<path d="M358.511 330.952V349.661C358.282 349.694 358.021 349.726 357.793 349.726H356.585V330.887H357.793C358.021 330.887 358.282 330.919 358.511 330.952Z" fill="#F95F66"/>
<path d="M361.186 332.683V347.899C360.729 348.584 360.044 349.139 359.261 349.433V331.148C360.044 331.475 360.696 331.997 361.186 332.683Z" fill="#F95F66"/>
<path d="M365.95 316.126V326.771C365.95 327.62 365.689 328.403 365.232 329.056C364.775 329.742 364.09 330.297 363.307 330.591C363.078 330.689 362.817 330.754 362.556 330.787C362.328 330.819 362.067 330.852 361.838 330.852H192.4C190.214 330.852 188.419 329.122 188.289 326.967C188.289 326.901 188.289 326.836 188.289 326.771V316.126C188.289 316.061 188.289 315.996 188.289 315.93C188.386 313.939 189.953 312.306 191.91 312.078C192.073 312.045 192.237 312.045 192.4 312.045H361.838C362.099 312.045 362.328 312.078 362.556 312.11C362.817 312.143 363.078 312.241 363.307 312.306C364.09 312.6 364.775 313.155 365.232 313.841C365.689 314.494 365.95 315.277 365.95 316.126Z" fill="#FFC3C3"/>
<path d="M282.715 330.885H191.943C189.985 330.885 188.386 329.155 188.289 327C188.289 326.934 188.289 326.869 188.289 326.804V316.16C188.289 316.094 188.289 316.029 188.289 315.964C188.386 313.972 189.757 312.339 191.519 312.111C191.649 312.078 191.812 312.078 191.943 312.078H271.589V312.111C272.861 317.596 275.83 325.269 282.715 330.885Z" fill="#F95F66"/>
<path d="M345.329 312.014H343.404V330.853H345.329V312.014Z" fill="#F95F66"/>
<path d="M338.803 312.014H336.878V330.853H338.803V312.014Z" fill="#F95F66"/>
<path d="M330.972 312.014H329.047V330.853H330.972V312.014Z" fill="#F95F66"/>
<path d="M318.998 312.014H317.073V330.853H318.998V312.014Z" fill="#F95F66"/>
<path d="M306.338 312.014H304.413V330.853H306.338V312.014Z" fill="#F95F66"/>
<path d="M286.891 312.014H284.966V330.853H286.891V312.014Z" fill="#F95F66"/>
<path d="M268.717 312.014H266.792V330.853H268.717V312.014Z" fill="#F95F66"/>
<path d="M252.469 312.014H250.543V330.853H252.469V312.014Z" fill="#F95F66"/>
<path d="M351.528 312.014H349.603V330.853H351.528V312.014Z" fill="#F95F66"/>
<path d="M355.639 312.014H353.714V330.853H355.639V312.014Z" fill="#F95F66"/>
<path d="M359.587 312.014H357.662V330.853H359.587V312.014Z" fill="#F95F66"/>
<path d="M362.557 312.079V330.788C362.328 330.821 362.067 330.853 361.839 330.853H360.631V312.014H361.839C362.1 312.014 362.328 312.046 362.557 312.079Z" fill="#F95F66"/>
<path d="M365.232 313.841V329.057C364.775 329.742 364.09 330.298 363.307 330.591V312.307C364.09 312.601 364.775 313.156 365.232 313.841Z" fill="#F95F66"/>
<path d="M353.485 297.32V307.964C353.485 308.813 353.224 309.597 352.768 310.25C352.311 310.935 351.626 311.49 350.842 311.784C350.614 311.882 350.353 311.947 350.092 311.98C350.027 311.98 349.929 312.013 349.864 312.013C349.831 312.013 349.766 312.013 349.733 312.013C349.7 312.013 349.635 312.013 349.603 312.013C349.537 312.013 349.472 312.013 349.374 312.013H179.935C177.749 312.013 175.955 310.282 175.824 308.127C175.824 308.062 175.824 307.997 175.824 307.931V297.32C175.824 297.254 175.824 297.189 175.824 297.124C175.824 297.058 175.824 296.993 175.824 296.961C175.987 295.23 177.26 293.793 178.891 293.369C178.924 293.369 178.989 293.336 179.022 293.336C179.315 293.271 179.609 293.238 179.903 293.238H349.342C349.472 293.238 349.603 293.238 349.7 293.238C349.766 293.238 349.798 293.238 349.864 293.271C349.929 293.271 349.994 293.304 350.059 293.304C350.32 293.336 350.581 293.434 350.81 293.499C351.593 293.793 352.278 294.348 352.735 295.034C353.224 295.687 353.485 296.471 353.485 297.32Z" fill="#FFC3C3"/>
<path d="M270.283 312.045H179.479C177.521 312.045 175.922 310.315 175.824 308.16C175.824 308.095 175.824 308.029 175.824 307.964V297.32C175.824 297.254 175.824 297.189 175.824 297.124C175.824 297.058 175.824 296.993 175.824 296.961C175.987 295.197 177.129 293.728 178.663 293.336C178.728 293.336 178.761 293.304 178.826 293.304C179.022 293.271 179.25 293.238 179.479 293.238H259.124C259.124 293.271 259.157 293.336 259.157 293.369C260.429 298.887 263.399 306.462 270.251 312.045C270.251 312.045 270.251 312.045 270.283 312.045Z" fill="#F95F66"/>
<path d="M332.864 293.206H330.939V312.046H332.864V293.206Z" fill="#F95F66"/>
<path d="M326.339 293.206H324.414V312.046H326.339V293.206Z" fill="#F95F66"/>
<path d="M318.54 293.206H316.615V312.046H318.54V293.206Z" fill="#F95F66"/>
<path d="M306.533 293.206H304.608V312.046H306.533V293.206Z" fill="#F95F66"/>
<path d="M293.874 293.206H291.948V312.046H293.874V293.206Z" fill="#F95F66"/>
<path d="M274.46 293.206H272.535V312.046H274.46V293.206Z" fill="#F95F66"/>
<path d="M256.253 293.206H254.328V312.046H256.253V293.206Z" fill="#F95F66"/>
<path d="M240.004 293.206H238.079V312.046H240.004V293.206Z" fill="#F95F66"/>
<path d="M339.064 293.206H337.139V312.046H339.064V293.206Z" fill="#F95F66"/>
<path d="M343.175 293.206H341.25V312.046H343.175V293.206Z" fill="#F95F66"/>
<path d="M347.123 293.206H345.198V312.046H347.123V293.206Z" fill="#F95F66"/>
<path d="M350.092 293.271V311.981C349.864 312.013 349.603 312.046 349.374 312.046H348.167V293.206H349.374C349.635 293.206 349.864 293.239 350.092 293.271Z" fill="#F95F66"/>
<path d="M352.768 295.035V310.25C352.311 310.936 351.626 311.491 350.843 311.785V293.5C351.626 293.794 352.311 294.316 352.768 295.035Z" fill="#F95F66"/>
<path d="M353.126 278.578V289.223C353.126 290.072 352.865 290.855 352.408 291.508C351.951 292.194 351.266 292.749 350.483 293.043C350.287 293.108 350.091 293.174 349.895 293.206C349.83 293.206 349.798 293.239 349.732 293.239C349.504 293.272 349.243 293.304 349.014 293.304H179.576C179.413 293.304 179.217 293.304 179.054 293.272C178.988 293.272 178.923 293.239 178.858 293.239C177.031 292.912 175.595 291.312 175.497 289.419C175.497 289.353 175.497 289.288 175.497 289.223V278.578C175.497 278.513 175.497 278.448 175.497 278.383C175.595 276.228 177.422 274.497 179.608 274.497H349.047C349.145 274.497 349.276 274.497 349.373 274.497C349.406 274.497 349.471 274.497 349.504 274.497C349.569 274.497 349.602 274.497 349.667 274.53C349.7 274.53 349.732 274.53 349.765 274.562C350.026 274.595 350.287 274.693 350.515 274.758C350.548 274.758 350.581 274.791 350.613 274.791C350.646 274.791 350.679 274.824 350.711 274.824C350.776 274.856 350.842 274.889 350.907 274.922C350.972 274.954 351.07 274.987 351.135 275.052C351.201 275.085 351.266 275.117 351.331 275.183C351.396 275.248 351.462 275.281 351.527 275.346C351.592 275.379 351.625 275.444 351.69 275.477C351.723 275.509 351.755 275.542 351.788 275.575C351.886 275.673 351.984 275.77 352.082 275.868C352.114 275.901 352.147 275.934 352.179 275.966C352.212 275.999 352.245 276.032 352.245 276.064C352.31 276.13 352.343 276.195 352.408 276.26C352.865 276.946 353.126 277.73 353.126 278.578Z" fill="#FFC3C3"/>
<path d="M269.924 293.336H179.12C179.055 293.336 178.989 293.336 178.891 293.336C178.826 293.336 178.728 293.336 178.663 293.304C176.934 293.075 175.531 291.443 175.465 289.451C175.465 289.386 175.465 289.32 175.465 289.255V278.611C175.465 278.545 175.465 278.48 175.465 278.415C175.563 276.26 177.162 274.529 179.12 274.529H258.766C258.798 274.693 258.831 274.823 258.863 274.986C260.169 280.439 263.138 287.786 269.729 293.238C269.794 293.238 269.859 293.304 269.924 293.336Z" fill="#F95F66"/>
<path d="M332.505 274.497H330.58V293.337H332.505V274.497Z" fill="#F95F66"/>
<path d="M325.98 274.497H324.055V293.337H325.98V274.497Z" fill="#F95F66"/>
<path d="M318.182 274.497H316.257V293.337H318.182V274.497Z" fill="#F95F66"/>
<path d="M306.175 274.497H304.25V293.337H306.175V274.497Z" fill="#F95F66"/>
<path d="M293.515 274.497H291.59V293.337H293.515V274.497Z" fill="#F95F66"/>
<path d="M274.101 274.497H272.176V293.337H274.101V274.497Z" fill="#F95F66"/>
<path d="M255.894 274.497H253.969V293.337H255.894V274.497Z" fill="#F95F66"/>
<path d="M239.645 274.497H237.72V293.337H239.645V274.497Z" fill="#F95F66"/>
<path d="M338.705 274.497H336.78V293.337H338.705V274.497Z" fill="#F95F66"/>
<path d="M342.816 274.497H340.891V293.337H342.816V274.497Z" fill="#F95F66"/>
<path d="M346.764 274.497H344.839V293.337H346.764V274.497Z" fill="#F95F66"/>
<path d="M349.733 274.562V293.272C349.505 293.304 349.244 293.337 349.015 293.337H347.808V274.497H349.015C349.277 274.497 349.505 274.53 349.733 274.562Z" fill="#F95F66"/>
<path d="M352.409 276.293V291.509C351.952 292.195 351.267 292.75 350.484 293.044V274.759C351.299 275.085 351.952 275.608 352.409 276.293Z" fill="#F95F66"/>
<path d="M361.871 260.196V270.84C361.871 271.689 361.61 272.473 361.153 273.126C360.696 273.811 360.011 274.366 359.228 274.66C359 274.758 358.739 274.823 358.478 274.856C358.249 274.889 357.988 274.921 357.76 274.921H188.321C187.636 274.921 186.983 274.758 186.429 274.464C185.221 273.844 184.373 272.636 184.243 271.232C184.243 271.167 184.243 271.101 184.243 271.036C184.243 270.971 184.243 270.905 184.243 270.84V260.196C184.243 260.13 184.243 260.065 184.243 260C184.34 257.845 186.168 256.114 188.354 256.114H357.792C358.053 256.114 358.282 256.147 358.51 256.18C358.771 256.212 359.032 256.31 359.261 256.375C360.044 256.669 360.729 257.224 361.186 257.91C361.61 258.563 361.871 259.347 361.871 260.196Z" fill="#FFC3C3"/>
<path d="M278.669 274.954H187.897C187.277 274.954 186.722 274.79 186.2 274.496C185.124 273.876 184.373 272.668 184.243 271.264C184.243 271.199 184.243 271.133 184.243 271.068C184.243 271.003 184.243 270.938 184.243 270.872V260.228C184.243 260.163 184.243 260.097 184.243 260.032C184.34 257.877 185.939 256.146 187.897 256.146H267.51C268.75 261.534 271.588 268.946 278.114 274.529C278.31 274.66 278.473 274.79 278.669 274.954Z" fill="#F95F66"/>
<path d="M341.25 256.114H339.325V274.954H341.25V256.114Z" fill="#F95F66"/>
<path d="M334.757 256.114H332.832V274.954H334.757V256.114Z" fill="#F95F66"/>
<path d="M326.926 256.114H325.001V274.954H326.926V256.114Z" fill="#F95F66"/>
<path d="M314.952 256.114H313.027V274.954H314.952V256.114Z" fill="#F95F66"/>
<path d="M302.259 256.114H300.334V274.954H302.259V256.114Z" fill="#F95F66"/>
<path d="M282.845 256.114H280.92V274.954H282.845V256.114Z" fill="#F95F66"/>
<path d="M264.672 256.114H262.746V274.954H264.672V256.114Z" fill="#F95F66"/>
<path d="M248.422 256.114H246.497V274.954H248.422V256.114Z" fill="#F95F66"/>
<path d="M347.482 256.114H345.557V274.954H347.482V256.114Z" fill="#F95F66"/>
<path d="M351.56 256.114H349.635V274.954H351.56V256.114Z" fill="#F95F66"/>
<path d="M355.541 256.114H353.616V274.954H355.541V256.114Z" fill="#F95F66"/>
<path d="M358.511 256.18V274.889C358.282 274.921 358.021 274.954 357.793 274.954H356.585V256.114H357.793C358.021 256.114 358.282 256.114 358.511 256.18Z" fill="#F95F66"/>
<path d="M361.186 257.91V273.158C360.729 273.844 360.044 274.399 359.261 274.693V256.408C360.044 256.669 360.696 257.224 361.186 257.91Z" fill="#F95F66"/>
<path d="M375.738 241.356V252C375.738 252.849 375.477 253.633 375.02 254.286C374.563 254.971 373.878 255.526 373.095 255.82C372.867 255.918 372.606 255.984 372.345 256.016C372.116 256.049 371.855 256.082 371.627 256.082H202.188C200.002 256.082 198.208 254.351 198.077 252.196C198.077 252.131 198.077 252.065 198.077 252V241.356C198.077 241.291 198.077 241.225 198.077 241.16C198.175 239.168 199.741 237.536 201.699 237.307C201.862 237.274 202.025 237.274 202.188 237.274H371.627C371.888 237.274 372.116 237.307 372.345 237.34C372.606 237.372 372.867 237.47 373.095 237.536C373.878 237.83 374.563 238.385 375.02 239.07C375.477 239.723 375.738 240.507 375.738 241.356Z" fill="#FFC3C3"/>
<path d="M292.503 256.115H201.731C199.774 256.115 198.175 254.384 198.077 252.229C198.077 252.164 198.077 252.099 198.077 252.033V241.389C198.077 241.324 198.077 241.258 198.077 241.193C198.175 239.201 199.545 237.569 201.307 237.34C201.438 237.308 201.601 237.308 201.731 237.308H281.377V237.34C282.65 242.826 285.619 250.499 292.503 256.115Z" fill="#F95F66"/>
<path d="M355.117 237.242H353.192V256.082H355.117V237.242Z" fill="#F95F66"/>
<path d="M348.591 237.242H346.666V256.082H348.591V237.242Z" fill="#F95F66"/>
<path d="M340.761 237.242H338.835V256.082H340.761V237.242Z" fill="#F95F66"/>
<path d="M328.786 237.242H326.861V256.082H328.786V237.242Z" fill="#F95F66"/>
<path d="M316.126 237.242H314.201V256.082H316.126V237.242Z" fill="#F95F66"/>
<path d="M296.68 237.242H294.755V256.082H296.68V237.242Z" fill="#F95F66"/>
<path d="M278.506 237.242H276.581V256.082H278.506V237.242Z" fill="#F95F66"/>
<path d="M262.257 237.242H260.332V256.082H262.257V237.242Z" fill="#F95F66"/>
<path d="M361.316 237.242H359.391V256.082H361.316V237.242Z" fill="#F95F66"/>
<path d="M365.428 237.242H363.503V256.082H365.428V237.242Z" fill="#F95F66"/>
<path d="M369.375 237.242H367.45V256.082H369.375V237.242Z" fill="#F95F66"/>
<path d="M372.345 237.307V256.017C372.117 256.049 371.856 256.082 371.627 256.082H370.42V237.242H371.627C371.888 237.242 372.117 237.275 372.345 237.307Z" fill="#F95F66"/>
<path d="M375.02 239.071V254.286C374.564 254.972 373.878 255.527 373.095 255.821V237.536C373.878 237.83 374.564 238.385 375.02 239.071Z" fill="#F95F66"/>
<path d="M353.485 222.549V233.193C353.485 234.042 353.224 234.826 352.768 235.479C352.311 236.165 351.626 236.72 350.842 237.014C350.614 237.112 350.353 237.177 350.092 237.21C350.027 237.21 349.929 237.242 349.864 237.242C349.798 237.242 349.733 237.242 349.668 237.275C349.635 237.275 349.603 237.275 349.57 237.275C349.505 237.275 349.439 237.275 349.374 237.275H179.935C177.749 237.275 175.955 235.544 175.824 233.389C175.824 233.324 175.824 233.259 175.824 233.193V222.549C175.824 222.484 175.824 222.419 175.824 222.353C175.922 220.198 177.749 218.468 179.935 218.468H349.374C349.439 218.468 349.505 218.468 349.603 218.468C349.766 218.468 349.929 218.5 350.092 218.533C350.353 218.566 350.614 218.664 350.842 218.729C350.973 218.762 351.071 218.827 351.201 218.892C351.267 218.925 351.332 218.958 351.397 218.99C351.397 218.99 351.397 218.99 351.43 218.99C351.495 219.023 351.56 219.088 351.626 219.121C351.626 219.121 351.658 219.121 351.658 219.153C351.723 219.186 351.789 219.251 351.854 219.284C351.984 219.382 352.148 219.513 352.245 219.643C352.278 219.676 352.311 219.709 352.376 219.774C352.376 219.774 352.376 219.774 352.409 219.806C352.441 219.839 352.441 219.872 352.474 219.872C352.506 219.904 352.539 219.97 352.604 220.035C352.67 220.1 352.702 220.166 352.768 220.264C353.224 220.884 353.485 221.7 353.485 222.549Z" fill="#FFC3C3"/>
<path d="M270.283 237.275H179.479C177.521 237.275 175.922 235.544 175.824 233.389C175.824 233.324 175.824 233.259 175.824 233.193V222.549C175.824 222.484 175.824 222.419 175.824 222.353C175.922 220.198 177.521 218.468 179.479 218.468H259.124C259.157 218.598 259.19 218.762 259.222 218.892C260.527 224.378 263.529 231.789 270.218 237.275C270.251 237.275 270.251 237.275 270.283 237.275Z" fill="#F95F66"/>
<path d="M332.864 218.436H330.939V237.275H332.864V218.436Z" fill="#F95F66"/>
<path d="M326.339 218.436H324.414V237.275H326.339V218.436Z" fill="#F95F66"/>
<path d="M318.54 218.436H316.615V237.275H318.54V218.436Z" fill="#F95F66"/>
<path d="M306.533 218.436H304.608V237.275H306.533V218.436Z" fill="#F95F66"/>
<path d="M293.874 218.436H291.948V237.275H293.874V218.436Z" fill="#F95F66"/>
<path d="M274.46 218.436H272.535V237.275H274.46V218.436Z" fill="#F95F66"/>
<path d="M256.253 218.436H254.328V237.275H256.253V218.436Z" fill="#F95F66"/>
<path d="M240.004 218.436H238.079V237.275H240.004V218.436Z" fill="#F95F66"/>
<path d="M339.064 218.436H337.139V237.275H339.064V218.436Z" fill="#F95F66"/>
<path d="M343.175 218.436H341.25V237.275H343.175V218.436Z" fill="#F95F66"/>
<path d="M347.123 218.436H345.198V237.275H347.123V218.436Z" fill="#F95F66"/>
<path d="M350.092 218.501V237.21C349.864 237.243 349.603 237.275 349.374 237.275H348.167V218.436H349.374C349.635 218.436 349.864 218.468 350.092 218.501Z" fill="#F95F66"/>
<path d="M352.768 220.232V235.447C352.311 236.133 351.626 236.688 350.843 236.982V218.697C351.626 219.024 352.311 219.546 352.768 220.232Z" fill="#F95F66"/>
<path d="M365.949 204.133V214.777C365.949 215.626 365.688 216.41 365.231 217.063C364.774 217.749 364.089 218.304 363.306 218.598C363.078 218.696 362.817 218.761 362.556 218.794C362.327 218.826 362.066 218.859 361.838 218.859H192.399C191.746 218.859 191.126 218.696 190.572 218.434C189.332 217.814 188.451 216.573 188.32 215.137C188.32 215.071 188.32 215.039 188.32 214.973C188.32 214.908 188.32 214.843 188.32 214.777V204.133C188.32 204.068 188.32 204.003 188.32 203.937C188.418 201.946 189.984 200.313 191.942 200.084C192.105 200.052 192.268 200.052 192.431 200.052H361.87C362.131 200.052 362.36 200.084 362.588 200.117C362.849 200.15 363.11 200.248 363.339 200.313C364.122 200.607 364.807 201.162 365.264 201.848C365.688 202.468 365.949 203.284 365.949 204.133Z" fill="#FFC3C3"/>
<path d="M282.715 218.859H191.943C191.356 218.859 190.801 218.696 190.312 218.434C189.202 217.814 188.419 216.573 188.289 215.137C188.289 215.071 188.289 215.039 188.289 214.973C188.289 214.908 188.289 214.843 188.289 214.777V204.133C188.289 204.068 188.289 204.003 188.289 203.937C188.386 201.946 189.757 200.313 191.519 200.084C191.649 200.052 191.812 200.052 191.943 200.052H271.589V200.084C272.829 205.505 275.667 212.884 282.193 218.467C282.389 218.565 282.552 218.728 282.715 218.859Z" fill="#F95F66"/>
<path d="M345.329 200.02H343.404V218.859H345.329V200.02Z" fill="#F95F66"/>
<path d="M338.803 200.02H336.878V218.859H338.803V200.02Z" fill="#F95F66"/>
<path d="M330.972 200.02H329.047V218.859H330.972V200.02Z" fill="#F95F66"/>
<path d="M318.998 200.02H317.073V218.859H318.998V200.02Z" fill="#F95F66"/>
<path d="M306.338 200.02H304.413V218.859H306.338V200.02Z" fill="#F95F66"/>
<path d="M286.891 200.02H284.966V218.859H286.891V200.02Z" fill="#F95F66"/>
<path d="M268.717 200.02H266.792V218.859H268.717V200.02Z" fill="#F95F66"/>
<path d="M252.469 200.02H250.543V218.859H252.469V200.02Z" fill="#F95F66"/>
<path d="M351.528 200.02H349.603V218.859H351.528V200.02Z" fill="#F95F66"/>
<path d="M355.639 200.02H353.714V218.859H355.639V200.02Z" fill="#F95F66"/>
<path d="M359.587 200.02H357.662V218.859H359.587V200.02Z" fill="#F95F66"/>
<path d="M362.557 200.085V218.794C362.328 218.827 362.067 218.859 361.839 218.859H360.631V200.02H361.839C362.1 200.02 362.328 200.052 362.557 200.085Z" fill="#F95F66"/>
<path d="M365.232 201.816V217.031C364.775 217.717 364.09 218.272 363.307 218.566V200.281C364.09 200.608 364.775 201.13 365.232 201.816Z" fill="#F95F66"/>
<path d="M353.486 185.294V195.938C353.486 196.787 353.225 197.571 352.768 198.224C352.312 198.909 351.626 199.464 350.843 199.758C350.615 199.856 350.354 199.922 350.093 199.954C350.028 199.954 349.93 199.987 349.865 199.987C349.832 199.987 349.767 199.987 349.734 199.987C349.701 199.987 349.636 199.987 349.604 199.987C349.538 199.987 349.473 199.987 349.375 199.987H179.936C177.75 199.987 175.956 198.256 175.825 196.101C175.825 196.036 175.825 195.971 175.825 195.905V185.261C175.825 185.196 175.825 185.13 175.825 185.065C175.923 182.91 177.75 181.18 179.936 181.18H349.375C349.636 181.18 349.865 181.212 350.093 181.245C350.354 181.278 350.615 181.376 350.843 181.441C351.626 181.735 352.312 182.29 352.768 182.976C353.225 183.661 353.486 184.445 353.486 185.294Z" fill="#FFC3C3"/>
<path d="M270.284 200.052H179.48C177.522 200.052 175.923 198.322 175.825 196.167C175.825 196.101 175.825 196.036 175.825 195.971V185.327C175.825 185.261 175.825 185.196 175.825 185.131C175.923 182.976 177.522 181.245 179.48 181.245H259.125C260.398 186.796 263.334 194.436 270.252 200.052C270.252 200.02 270.252 200.02 270.284 200.052Z" fill="#F95F66"/>
<path d="M332.864 181.18H330.939V200.019H332.864V181.18Z" fill="#F95F66"/>
<path d="M326.339 181.18H324.414V200.019H326.339V181.18Z" fill="#F95F66"/>
<path d="M318.54 181.18H316.615V200.019H318.54V181.18Z" fill="#F95F66"/>
<path d="M306.533 181.18H304.608V200.019H306.533V181.18Z" fill="#F95F66"/>
<path d="M293.874 181.18H291.948V200.019H293.874V181.18Z" fill="#F95F66"/>
<path d="M274.46 181.18H272.535V200.019H274.46V181.18Z" fill="#F95F66"/>
<path d="M256.253 181.18H254.328V200.019H256.253V181.18Z" fill="#F95F66"/>
<path d="M240.004 181.18H238.079V200.019H240.004V181.18Z" fill="#F95F66"/>
<path d="M339.064 181.18H337.139V200.019H339.064V181.18Z" fill="#F95F66"/>
<path d="M343.175 181.18H341.25V200.019H343.175V181.18Z" fill="#F95F66"/>
<path d="M347.123 181.18H345.198V200.019H347.123V181.18Z" fill="#F95F66"/>
<path d="M350.092 181.245V199.954C349.864 199.987 349.603 200.019 349.374 200.019H348.167V181.18H349.374C349.635 181.18 349.864 181.212 350.092 181.245Z" fill="#F95F66"/>
<path d="M352.768 183.008V198.224C352.311 198.909 351.626 199.464 350.843 199.758V181.474C351.626 181.767 352.311 182.323 352.768 183.008Z" fill="#F95F66"/>
<path d="M197.783 387.013C250.744 387.013 293.677 344.049 293.677 291.051C293.677 238.053 250.744 195.089 197.783 195.089C144.822 195.089 101.888 238.053 101.888 291.051C101.888 344.049 144.822 387.013 197.783 387.013Z" fill="white"/>
<path d="M189.397 387.013C242.359 387.013 285.292 344.049 285.292 291.051C285.292 238.053 242.359 195.089 189.397 195.089C136.436 195.089 93.5029 238.053 93.5029 291.051C93.5029 344.049 136.436 387.013 189.397 387.013Z" fill="#FFC3C3"/>
<path d="M189.397 379.634C166.068 379.634 144.109 370.524 127.599 354.035C111.089 337.514 102.019 315.572 102.019 292.194C102.019 268.848 111.122 246.874 127.599 230.352C144.109 213.831 166.036 204.754 189.397 204.754C212.727 204.754 234.685 213.864 251.195 230.352C267.705 246.874 276.776 268.816 276.776 292.194C276.776 315.54 267.673 337.514 251.195 354.035C234.685 370.524 212.759 379.634 189.397 379.634ZM189.397 209.945C167.439 209.945 146.817 218.5 131.286 234.042C115.788 249.584 107.239 270.22 107.239 292.194C107.239 314.168 115.788 334.804 131.319 350.346C146.85 365.888 167.471 374.442 189.43 374.442C211.389 374.442 232.01 365.888 247.541 350.346C263.072 334.804 271.621 314.168 271.621 292.194C271.621 270.22 263.072 249.584 247.541 234.042C231.977 218.5 211.356 209.945 189.397 209.945Z" fill="#F95F66"/>
<path d="M201.437 317.564C201.666 315.67 201.6 313.972 201.242 312.47C200.883 310.968 200.165 309.564 199.088 308.258C198.011 306.952 196.576 305.679 194.814 304.47C193.019 303.262 190.801 302.022 188.158 300.748C183.622 298.528 179.544 296.275 175.889 293.989C172.235 291.704 169.168 289.222 166.721 286.512C164.241 283.802 162.447 280.766 161.305 277.403C160.163 274.039 159.836 270.154 160.358 265.746C160.815 261.926 161.892 258.53 163.621 255.559C165.35 252.588 167.602 250.073 170.375 248.016C173.149 245.992 176.379 244.425 180.066 243.413C183.753 242.368 187.766 241.911 192.171 242.009L193.868 227.609L205.451 228.981L203.721 243.608C207.8 244.653 211.454 246.188 214.619 248.245C217.817 250.302 220.427 252.816 222.483 255.722C224.538 258.661 225.974 261.991 226.822 265.779C227.67 269.534 227.834 273.68 227.312 278.154L206.364 275.672C207.017 270.285 206.299 266.105 204.211 263.167C202.123 260.228 199.088 258.497 195.075 258.008C192.889 257.746 190.996 257.844 189.365 258.236C187.733 258.661 186.33 259.346 185.188 260.261C184.046 261.208 183.165 262.35 182.513 263.722C181.86 265.093 181.436 266.628 181.24 268.293C181.045 269.958 181.11 271.493 181.436 272.897C181.762 274.301 182.448 275.639 183.492 276.945C184.536 278.219 185.972 279.492 187.831 280.733C189.659 281.974 191.975 283.312 194.749 284.716C199.219 287.035 203.265 289.32 206.886 291.606C210.508 293.891 213.542 296.406 216.022 299.148C218.502 301.891 220.296 304.928 221.438 308.291C222.58 311.654 222.907 315.507 222.385 319.882C221.928 323.833 220.819 327.294 219.057 330.265C217.295 333.236 215.043 335.718 212.27 337.709C209.497 339.701 206.234 341.17 202.514 342.15C198.794 343.13 194.749 343.554 190.344 343.423L188.745 356.81L177.227 355.439L178.793 342.117C174.845 341.236 171.06 339.897 167.471 338.101C163.882 336.305 160.782 333.987 158.205 331.081C155.595 328.208 153.67 324.714 152.397 320.665C151.124 316.584 150.798 311.882 151.418 306.495L172.366 308.976C171.974 312.176 172.104 314.886 172.757 317.106C173.41 319.359 174.388 321.188 175.726 322.657C177.064 324.126 178.663 325.204 180.523 325.955C182.382 326.706 184.275 327.196 186.265 327.424C188.549 327.685 190.572 327.653 192.334 327.261C194.129 326.869 195.662 326.249 196.935 325.335C198.207 324.453 199.219 323.31 199.969 321.972C200.752 320.731 201.242 319.229 201.437 317.564Z" fill="#F95F66"/>
</svg>
