<svg width="349" height="269" viewBox="0 0 349 269" fill="none" xmlns="http://www.w3.org/2000/svg">
<rect x="308.242" y="44" width="224.994" height="308.242" rx="8" transform="rotate(90 308.242 44)" fill="#FF0000"/>
<rect x="298.242" y="52.875" width="207.245" height="288.243" rx="7" transform="rotate(90 298.242 52.875)" stroke="white" stroke-width="2"/>
<rect x="54" width="295" height="90" rx="4" fill="#F5F8FA"/>
<rect x="172" y="27" width="100" height="12" rx="6" fill="#D1D5D9"/>
<rect x="172" y="51" width="148" height="12" rx="6" fill="#D1D5D9"/>
<rect x="76.1035" y="40.7617" width="13.1583" height="41.8674" transform="rotate(-45 76.1035 40.7617)" fill="#FF0000"/>
<rect x="138.695" y="18.7695" width="13.1583" height="59.8106" transform="rotate(45 138.695 18.7695)" fill="#FF0000"/>
<rect x="54" y="104" width="295" height="90" rx="4" fill="#F5F8FA"/>
<rect x="172" y="131" width="100" height="12" rx="6" fill="#D1D5D9"/>
<rect x="172" y="155" width="148" height="12" rx="6" fill="#D1D5D9"/>
<rect x="76.1035" y="144.762" width="13.1583" height="41.8674" transform="rotate(-45 76.1035 144.762)" fill="#FF0000"/>
<rect x="138.695" y="122.77" width="13.1583" height="59.8106" transform="rotate(45 138.695 122.77)" fill="#FF0000"/>
</svg>
