<svg width="348" height="348" viewBox="0 0 348 348" fill="none" xmlns="http://www.w3.org/2000/svg">
<circle cx="174" cy="174" r="104" fill="#FF0000"/>
<path d="M344.885 193.549C348.907 158.397 341.99 122.861 325.078 91.7839C308.165 60.7068 282.081 35.6013 250.38 19.8897C218.679 4.17803 182.904 -1.3752 147.932 3.98699C112.96 9.34918 80.4923 25.3659 54.9551 49.8537" stroke="#D1D5D9" stroke-width="4" stroke-linejoin="round" stroke-dasharray="12 10"/>
<path d="M3.11473 154.451C-0.906516 189.603 6.01037 225.139 22.9225 256.216C39.8346 287.293 65.919 312.399 97.6199 328.11C129.321 343.822 165.096 349.375 200.068 344.013C235.04 338.651 267.508 322.634 293.045 298.146" stroke="#D1D5D9" stroke-width="4" stroke-linejoin="round" stroke-dasharray="12 10"/>
<circle cx="40" cy="76" r="29" stroke="#D1D5D9" stroke-width="8" stroke-linejoin="round"/>
<circle cx="311" cy="271" r="29" stroke="#D1D5D9" stroke-width="8" stroke-linejoin="round"/>
<path d="M159.431 206.916L176.288 139L188.569 142.084L171.712 210L159.431 206.916Z" fill="white"/>
<path d="M115 174.5L142.031 147.274L150.459 155.763L131.857 174.5L150.459 193.237L142.031 201.726L115 174.5Z" fill="white"/>
<path d="M197.541 155.763L205.969 147.274L233 174.5L205.969 201.726L197.541 193.237L216.143 174.5L197.541 155.763Z" fill="white"/>
</svg>
