<svg width="397" height="396" viewBox="0 0 397 396" fill="none" xmlns="http://www.w3.org/2000/svg">
<path d="M272.553 166.29L306.288 198.766L306.308 198.786L273.673 232.676L281.237 232.893C294.166 232.893 306.269 238.531 315.13 247.372C323.991 256.233 329.63 268.296 329.649 281.204C329.63 284.583 329.276 287.903 328.608 291.126L328.628 291.165L354.661 325.468L394.899 297.295V297.275C395.253 294.78 395.509 292.245 395.705 289.711C395.725 289.475 395.744 289.239 395.764 289.004C395.843 287.864 395.901 286.725 395.941 285.585C395.96 285.035 395.96 284.465 395.98 283.915C396 283.031 396.019 282.127 396.019 281.224C395.98 250.575 384.054 221.772 362.402 200.122C340.75 178.471 311.947 166.545 281.964 166.506L272.553 166.29Z" fill="#DA0000"/>
<path d="M70.5546 41.3761L104.84 67.3884L104.899 67.4277C108.121 66.7597 111.422 66.406 114.801 66.406C140.599 66.4257 163.095 88.9409 163.095 114.776L163.331 122.36L197.223 89.7267L229.721 123.48L229.524 114.089C229.485 84.0881 217.559 55.286 195.887 33.6352C174.236 11.9649 145.432 0.0392935 114.782 0C109.359 0 104.015 0.392935 98.7294 1.11986H98.7098L70.5546 41.3761Z" fill="#DA0000"/>
<path d="M394.86 297.295L354.641 325.449L328.608 291.145L328.588 291.106C326.683 300.261 322.203 308.631 315.464 315.389C306.328 324.525 294.166 329.555 281.237 329.555C265.283 329.574 250.646 321.264 241.765 308.533C240.449 306.647 239.25 304.643 238.209 302.58C238.209 302.56 238.189 302.54 238.189 302.54C237.148 300.458 236.224 298.297 235.478 296.057V296.037C233.965 291.538 233.1 286.764 232.963 281.793L199.483 248.315L167.025 287.432L166.652 287.864C166.652 287.884 166.652 287.884 166.652 287.904C167.241 298.277 169.206 308.395 172.468 318.042V318.061C173.018 319.653 173.587 321.244 174.197 322.816C174.197 322.836 174.216 322.855 174.216 322.855C174.825 324.427 175.474 325.999 176.161 327.551C181.82 340.38 189.836 352.207 200.053 362.424C221.724 384.094 250.528 396.039 281.198 396C311.849 396.059 340.691 384.114 362.402 362.404C380.282 344.545 391.442 321.873 394.86 297.295Z" fill="#FF0000"/>
<path d="M232.943 281.774C232.924 281.361 232.904 280.968 232.904 280.555L232.02 235.525L231.882 227.47H231.863L229.859 130.494L229.721 123.48L197.224 89.7266L163.332 122.36L163.646 140.906L163.666 141.908L164.118 164.031V164.07H164.039L165.395 228.767L165.513 234.366L166.632 287.471L167.006 287.432L199.444 248.295L232.943 281.774Z" fill="#B10026"/>
<path d="M306.308 198.786L272.553 166.29L265.519 166.153L114.232 163.068L147.711 196.566L108.573 228.983L108.141 229.357L249.526 232.245L255.086 232.343L273.634 232.657L306.308 198.786Z" fill="#FF656A"/>
<path d="M114.232 163.068C109.261 162.95 104.486 162.066 99.9872 160.553H99.9675C97.7277 159.807 95.5664 158.903 93.4837 157.842C93.4641 157.842 93.4445 157.822 93.4445 157.822C91.3618 156.761 89.3774 155.583 87.4912 154.266C74.7398 145.366 66.4288 130.73 66.4681 114.796C66.4681 101.868 71.4979 89.6875 80.6341 80.5714C87.393 73.8129 95.7629 69.3334 104.919 67.4473L104.879 67.4277L70.5549 41.3761L98.71 1.15918C74.1307 4.57771 51.4573 15.7371 33.5975 33.6156C11.8867 55.3056 -0.0590923 84.1667 -0.00014912 114.796C-0.0394446 145.465 11.8867 174.247 33.5778 195.937C43.7946 206.153 55.6226 214.169 68.4525 219.828C70.0047 220.515 71.5569 221.164 73.1483 221.773C73.168 221.773 73.1876 221.792 73.1876 221.792C74.7595 222.401 76.3509 222.971 77.9424 223.521H77.962C87.6091 226.783 97.7277 228.747 108.102 229.337H108.141L108.573 228.983L147.711 196.546L114.232 163.068Z" fill="#FF0000"/>
<path d="M188.067 176.806L373.817 176C375.585 175.981 377.039 177.434 377.02 179.203L376.627 244.214C376.607 246.002 375.133 247.436 373.345 247.377C356.959 246.886 189.089 244.725 185.867 244.862C182.703 245 184.413 193.643 184.884 179.871C184.983 178.181 186.378 176.825 188.067 176.806Z" fill="#E0E0E0"/>
<path d="M373.463 244.862H373.444C362.971 244.547 262.65 243.29 214.435 242.701C200.347 242.524 190.327 242.406 187.655 242.367H187.399L187.36 242.131C186.22 235.706 186.24 214.213 187.419 179.988C187.439 179.634 187.714 179.34 188.087 179.34L373.837 178.534C374.014 178.534 374.19 178.613 374.308 178.731C374.426 178.849 374.505 179.025 374.505 179.202L374.112 244.213C374.131 244.567 373.837 244.862 373.463 244.862ZM187.93 241.757C190.936 241.797 200.76 241.915 214.454 242.091C262.67 242.701 362.991 243.938 373.463 244.253H373.483C373.503 244.253 373.522 244.213 373.522 244.194L373.915 179.183L373.856 178.809V179.104L188.107 179.909C188.067 179.909 188.048 179.929 188.048 179.968C186.869 213.741 186.849 235.078 187.93 241.757Z" fill="white"/>
<path opacity="0.7" d="M196.025 193.604C196.025 195.352 196.614 196.786 197.341 196.786H268.486C269.213 196.786 269.802 195.352 269.802 193.604C269.802 191.855 269.213 190.421 268.486 190.421H197.341C196.614 190.421 196.025 191.835 196.025 193.604Z" fill="#8C8C8C"/>
<path opacity="0.7" d="M196.025 204.449C196.025 206.198 196.614 207.632 197.341 207.632H268.486C269.213 207.632 269.802 206.198 269.802 204.449C269.802 202.701 269.213 201.267 268.486 201.267H197.341C196.614 201.267 196.025 202.701 196.025 204.449Z" fill="#8C8C8C"/>
<path opacity="0.7" d="M196.025 215.313C196.025 217.061 196.614 218.495 197.341 218.495H268.486C269.213 218.495 269.802 217.061 269.802 215.313C269.802 213.564 269.213 212.13 268.486 212.13H197.341C196.614 212.13 196.025 213.544 196.025 215.313Z" fill="#8C8C8C"/>
<path opacity="0.7" d="M196.025 226.158C196.025 227.907 196.614 229.341 197.341 229.341H268.486C269.213 229.341 269.802 227.907 269.802 226.158C269.802 224.41 269.213 222.976 268.486 222.976H197.341C196.614 222.976 196.025 224.41 196.025 226.158Z" fill="#8C8C8C"/>
<path d="M287.819 208.221C294.655 208.221 300.197 202.679 300.197 195.843C300.197 189.007 294.655 183.466 287.819 183.466C280.983 183.466 275.441 189.007 275.441 195.843C275.441 202.679 280.983 208.221 287.819 208.221Z" fill="white"/>
<path d="M318.588 208.221C325.424 208.221 330.966 202.679 330.966 195.843C330.966 189.007 325.424 183.466 318.588 183.466C311.751 183.466 306.21 189.007 306.21 195.843C306.21 202.679 311.751 208.221 318.588 208.221Z" fill="white"/>
<path d="M349.355 208.634C356.192 208.634 361.734 203.092 361.734 196.256C361.734 189.42 356.192 183.879 349.355 183.879C342.519 183.879 336.977 189.42 336.977 196.256C336.977 203.092 342.519 208.634 349.355 208.634Z" fill="white"/>
<path d="M295.187 193.231C295.56 194.155 295.776 195.176 295.776 196.257C295.776 200.638 292.22 204.214 287.819 204.214C283.438 204.214 279.862 200.658 279.862 196.257C279.862 191.876 283.418 188.3 287.819 188.3C287.957 188.3 288.094 188.3 288.212 188.32V186.296C288.075 186.296 287.937 186.296 287.819 186.296C282.318 186.296 277.858 190.756 277.858 196.257C277.858 201.758 282.318 206.218 287.819 206.218C293.321 206.218 297.781 201.758 297.781 196.257C297.781 194.901 297.505 193.604 297.014 192.426L295.187 193.231Z" fill="#E0E0E0"/>
<path d="M322.694 202.975C321.476 203.741 320.022 204.193 318.45 204.193C314.069 204.193 310.493 200.637 310.493 196.236C310.493 191.855 314.049 188.279 318.45 188.279C318.588 188.279 318.725 188.279 318.843 188.299V186.275C318.706 186.275 318.568 186.275 318.45 186.275C312.949 186.275 308.489 190.735 308.489 196.236C308.489 201.737 312.949 206.197 318.45 206.197C320.376 206.197 322.164 205.647 323.677 204.704L322.694 202.975Z" fill="#E0E0E0"/>
<path d="M355.977 200.716C354.543 202.818 352.127 204.193 349.395 204.193C345.014 204.193 341.438 200.637 341.438 196.236C341.438 191.855 344.994 188.279 349.395 188.279C349.533 188.279 349.671 188.279 349.788 188.299V186.275C349.651 186.275 349.513 186.275 349.395 186.275C343.894 186.275 339.434 190.735 339.434 196.236C339.434 201.737 343.894 206.197 349.395 206.197C352.795 206.197 355.801 204.488 357.608 201.875L355.977 200.716Z" fill="#E0E0E0"/>
<g opacity="0.64">
<path opacity="0.64" d="M297.918 213.468H277.74C276.482 213.468 275.441 214.489 275.441 215.766C275.441 217.043 276.463 218.065 277.74 218.065H297.918C299.175 218.065 300.217 217.043 300.217 215.766C300.217 214.489 299.175 213.468 297.918 213.468Z" fill="#8C8C8C"/>
<path opacity="0.64" d="M328.667 213.467H308.488C307.231 213.467 306.19 214.488 306.19 215.765C306.19 217.043 307.211 218.064 308.488 218.064H328.667C329.924 218.064 330.965 217.043 330.965 215.765C330.965 214.488 329.944 213.467 328.667 213.467Z" fill="#8C8C8C"/>
<path opacity="0.64" d="M339.257 218.045H359.435C360.693 218.045 361.734 217.023 361.734 215.746C361.734 214.469 360.712 213.447 359.435 213.447H339.257C338 213.447 336.958 214.469 336.958 215.746C336.958 217.023 338 218.045 339.257 218.045Z" fill="#8C8C8C"/>
<path opacity="0.64" d="M297.918 220.599H277.74C276.482 220.599 275.441 221.62 275.441 222.897V236.395C275.441 237.652 276.463 238.693 277.74 238.693H297.918C299.175 238.693 300.217 237.672 300.217 236.395V222.897C300.197 221.62 299.175 220.599 297.918 220.599Z" fill="#8C8C8C"/>
<path opacity="0.64" d="M328.667 220.599H308.488C307.231 220.599 306.19 221.62 306.19 222.897V236.395C306.19 237.652 307.211 238.693 308.488 238.693H328.667C329.924 238.693 330.965 237.672 330.965 236.395V222.897C330.965 221.62 329.944 220.599 328.667 220.599Z" fill="#8C8C8C"/>
<path opacity="0.64" d="M359.435 220.599H339.257C338 220.599 336.958 221.62 336.958 222.897V236.395C336.958 237.652 337.98 238.693 339.257 238.693H359.435C360.693 238.693 361.734 237.672 361.734 236.395V222.897C361.734 221.62 360.693 220.599 359.435 220.599Z" fill="#8C8C8C"/>
</g>
<g opacity="0.3">
<path opacity="0.3" d="M126.948 176.332C126.535 177.314 125.395 177.786 124.393 177.354C122.488 176.528 120.503 175.782 118.519 175.133C117.517 174.799 116.967 173.719 117.261 172.717C117.261 172.697 117.261 172.697 117.281 172.678C117.615 171.656 118.715 171.106 119.737 171.44C121.839 172.128 123.922 172.913 125.926 173.778C126.849 174.171 127.301 175.192 127.026 176.135C127.007 176.194 126.987 176.273 126.948 176.332ZM108.636 172.619C106.573 172.245 104.49 171.951 102.408 171.754C101.347 171.656 100.561 170.713 100.659 169.632C100.757 168.571 101.72 167.786 102.781 167.884C104.962 168.1 107.162 168.395 109.324 168.788C110.385 168.984 111.072 169.986 110.876 171.047C110.856 171.126 110.836 171.204 110.817 171.263C110.542 172.206 109.618 172.796 108.636 172.619ZM92.2104 171.479C90.1277 171.577 88.0254 171.754 85.9428 172.029C84.8818 172.167 83.8994 171.42 83.7619 170.359C83.6243 169.298 84.3709 168.316 85.4319 168.179C87.6128 167.903 89.833 167.707 92.0139 167.609C93.0749 167.569 93.9983 168.395 94.0376 169.456C94.0376 169.691 94.018 169.907 93.959 170.104C93.7429 170.87 93.0552 171.44 92.2104 171.479ZM75.9421 174.053C73.938 174.603 71.9143 175.251 69.9495 175.978C68.9475 176.352 67.8276 175.841 67.4543 174.839C67.0809 173.837 67.5918 172.717 68.5938 172.344C70.6568 171.577 72.7788 170.89 74.9007 170.32C75.9421 170.045 77.003 170.634 77.2781 171.676C77.3764 172.049 77.3764 172.422 77.2585 172.756C77.0816 173.365 76.6101 173.856 75.9421 174.053ZM60.6561 180.163C58.8289 181.145 57.0017 182.226 55.253 183.365C54.3492 183.955 53.1507 183.699 52.5613 182.796C51.9718 181.892 52.2273 180.694 53.1311 180.104C54.9779 178.906 56.8838 177.766 58.8289 176.725C59.772 176.214 60.9509 176.568 61.4617 177.511C61.7171 177.982 61.7564 178.513 61.5992 179.004C61.4421 179.495 61.108 179.927 60.6561 180.163ZM47.0992 189.535C45.5274 190.91 43.9949 192.364 42.5409 193.857C41.7943 194.623 40.5565 194.643 39.7903 193.896C39.024 193.15 39.0043 191.931 39.751 191.146C41.2835 189.574 42.8946 188.041 44.545 186.588C45.3506 185.88 46.5884 185.978 47.276 186.784C47.7279 187.314 47.8655 188.002 47.669 188.631C47.5707 188.965 47.3743 189.279 47.0992 189.535ZM20.732 256.569C19.671 256.707 18.6886 255.96 18.5511 254.899C18.276 252.719 18.0795 250.498 18.0009 248.298C17.9616 247.217 18.7868 246.314 19.8675 246.274C20.9284 246.235 21.8322 247.06 21.8912 248.141C21.9698 250.223 22.1662 252.345 22.4217 254.408C22.461 254.683 22.4217 254.978 22.3431 255.233C22.1269 255.921 21.4982 256.471 20.732 256.569ZM35.9589 201.637C34.7211 203.327 33.5619 205.075 32.4813 206.863C31.9312 207.786 30.7326 208.081 29.8092 207.511C28.8858 206.961 28.6107 205.763 29.1608 204.839C30.3004 202.953 31.5382 201.106 32.835 199.338C33.4637 198.474 34.6818 198.277 35.5463 198.906C36.234 199.417 36.4894 200.281 36.2537 201.048C36.1751 201.264 36.0768 201.46 35.9589 201.637ZM20.0443 239.673C18.9833 239.575 18.1974 238.612 18.2956 237.551C18.5118 235.37 18.8261 233.17 19.2191 231.009C19.4156 229.948 20.4176 229.26 21.4786 229.457C22.5395 229.653 23.2272 230.655 23.0307 231.716C22.6574 233.779 22.3627 235.862 22.1466 237.944C22.1269 238.082 22.1073 238.2 22.068 238.317C21.8126 239.182 20.9677 239.771 20.0443 239.673ZM27.8051 215.94C26.9799 217.865 26.2333 219.83 25.5849 221.814C25.2509 222.836 24.1507 223.386 23.129 223.052C22.1269 222.718 21.5768 221.637 21.8912 220.635C21.8912 220.616 21.8912 220.616 21.9108 220.596C22.5985 218.514 23.3844 216.431 24.2489 214.407C24.6811 213.425 25.8207 212.973 26.8031 213.386C27.7265 213.779 28.1784 214.8 27.8837 215.743C27.8641 215.822 27.8444 215.881 27.8051 215.94Z" fill="#FF0000"/>
<path opacity="0.3" d="M25.2901 268.514C25.4079 268.141 25.4079 267.748 25.2901 267.355C24.9953 266.393 24.7006 265.43 24.4256 264.447C24.1505 263.406 23.0699 262.797 22.0482 263.092C21.0069 263.367 20.3978 264.447 20.6925 265.469C20.9676 266.491 21.2819 267.512 21.5963 268.514C21.9303 269.536 23.0109 270.106 24.0326 269.772C24.6417 269.595 25.1132 269.104 25.2901 268.514Z" fill="#FF0000"/>
</g>
<g opacity="0.3">
<path opacity="0.3" d="M128.224 315.284C127.252 315.728 126.099 315.326 125.64 314.339C125.196 313.367 125.599 312.214 126.571 311.769C128.419 310.894 130.253 309.949 132.059 308.921C132.976 308.393 134.184 308.713 134.698 309.644C135.24 310.574 134.907 311.769 133.976 312.283C133.198 312.728 132.406 313.158 131.628 313.575C130.517 314.186 129.364 314.756 128.224 315.284ZM140.075 306.073C139.422 305.226 139.588 304.003 140.436 303.35C142.061 302.086 143.659 300.766 145.187 299.377C145.965 298.655 147.215 298.71 147.924 299.502C148.646 300.28 148.591 301.531 147.799 302.239C146.201 303.698 144.52 305.101 142.812 306.421C142.714 306.49 142.631 306.546 142.534 306.587C141.7 307.032 140.658 306.824 140.075 306.073ZM118.375 319.104C116.319 319.743 114.193 320.313 112.081 320.757C111.039 320.993 110.011 320.326 109.775 319.285C109.539 318.243 110.206 317.215 111.248 316.978C113.248 316.534 115.276 316.006 117.221 315.395C118.236 315.075 119.333 315.645 119.639 316.673C119.931 317.576 119.5 318.535 118.694 318.951C118.597 319.021 118.486 319.076 118.375 319.104ZM152.356 294.848C151.536 294.168 151.425 292.945 152.105 292.125C153.411 290.542 154.675 288.888 155.856 287.207C156.468 286.318 157.676 286.11 158.565 286.721C159.455 287.333 159.663 288.541 159.052 289.43C157.815 291.195 156.482 292.945 155.106 294.598C154.94 294.793 154.745 294.96 154.523 295.071C153.828 295.432 152.981 295.362 152.356 294.848ZM101.62 322.327C99.4667 322.507 97.2856 322.577 95.1044 322.563C94.0347 322.549 93.1733 321.688 93.1733 320.604C93.1872 319.534 94.0485 318.673 95.1321 318.673C97.1882 318.673 99.2583 318.604 101.3 318.451C102.356 318.367 103.301 319.173 103.384 320.229C103.454 321.021 103.023 321.757 102.356 322.091C102.148 322.216 101.898 322.299 101.62 322.327ZM84.5738 321.785C82.4343 321.479 80.2809 321.076 78.1692 320.604C77.1272 320.367 76.4743 319.325 76.7104 318.283C76.9466 317.241 77.9885 316.589 79.0304 316.825C81.031 317.269 83.0871 317.658 85.1016 317.95C86.1713 318.103 86.9077 319.089 86.741 320.145C86.6576 320.784 86.2548 321.298 85.7268 321.576C85.4073 321.757 84.9905 321.84 84.5738 321.785ZM68.0552 317.547C66.0408 316.783 64.0124 315.921 62.0674 315.004C61.1088 314.546 60.692 313.379 61.1504 312.42C61.6089 311.462 62.7759 311.045 63.7345 311.503C65.5822 312.379 67.4994 313.212 69.4305 313.921C70.4308 314.31 70.931 315.421 70.5698 316.422C70.3892 316.88 70.0697 317.227 69.6529 317.45C69.1805 317.7 68.5971 317.755 68.0552 317.547ZM52.8564 309.794C51.0504 308.6 49.2721 307.321 47.5771 305.988C46.7435 305.321 46.5907 304.112 47.2436 303.265C47.9105 302.431 49.1191 302.278 49.9666 302.931C51.5782 304.21 53.2592 305.418 54.9958 306.544C55.885 307.127 56.149 308.336 55.5516 309.239C55.3571 309.517 55.107 309.739 54.8431 309.892C54.2179 310.211 53.4677 310.211 52.8564 309.794ZM39.7137 298.902C38.2132 297.346 36.7683 295.707 35.3929 294.026C34.7261 293.192 34.8372 291.97 35.6707 291.303C36.5043 290.636 37.7268 290.747 38.3937 291.581C39.6857 293.178 41.0751 294.734 42.4922 296.207C43.2424 296.985 43.2146 298.208 42.4366 298.958C42.3116 299.083 42.1449 299.194 42.006 299.277C41.2697 299.652 40.325 299.541 39.7137 298.902ZM29.2938 285.398C28.4602 284.037 27.6683 282.634 26.932 281.23C26.668 280.716 26.404 280.202 26.1539 279.702C25.6677 278.744 26.0427 277.563 27.0152 277.09C27.9738 276.604 29.1408 276.993 29.6271 277.952C29.8632 278.438 30.1272 278.924 30.3773 279.397C31.072 280.73 31.85 282.064 32.628 283.342C33.1837 284.259 32.9059 285.454 31.989 286.01C31.9612 286.037 31.9196 286.051 31.8779 286.065C30.961 286.565 29.8357 286.274 29.2938 285.398Z" fill="#FF0000"/>
<path opacity="0.3" d="M163.678 281.136C164.025 280.955 164.303 280.677 164.497 280.316C164.97 279.371 165.442 278.427 165.886 277.454C166.331 276.482 165.9 275.328 164.928 274.884C163.955 274.439 162.802 274.87 162.358 275.842C161.941 276.759 161.496 277.676 161.052 278.565C160.566 279.524 160.955 280.691 161.899 281.163C162.483 281.441 163.15 281.413 163.678 281.136Z" fill="#FF0000"/>
</g>
<path d="M139.561 207.177C139.345 206.863 138.952 206.706 138.579 206.804L127.89 209.594C124.138 206.077 119.776 203.111 114.962 200.91L113.489 189.987C113.43 189.594 113.155 189.299 112.762 189.22L99.7746 186.627C99.4013 186.548 99.0083 186.725 98.8118 187.059L93.2319 196.568C87.927 196.745 82.7793 197.786 77.9459 199.594L69.1634 192.914C68.849 192.678 68.4364 192.658 68.1024 192.875L57.08 200.222C56.7657 200.439 56.6085 200.832 56.7067 201.205L59.4967 211.893C55.9798 215.645 53.013 220.007 50.8124 224.82L39.8883 226.294C39.4953 226.353 39.2006 226.628 39.122 227.021L36.5285 240.007C36.4499 240.38 36.6268 240.773 36.9608 240.97L46.4703 246.549C46.6471 251.854 47.6884 257.002 49.496 261.835L42.8158 270.617C42.58 270.931 42.5604 271.344 42.7765 271.678L50.1247 282.699C50.3409 283.014 50.7338 283.171 51.1071 283.073L61.7955 280.283C65.5482 283.8 69.91 286.766 74.7237 288.967L76.1973 299.89C76.2562 300.283 76.5313 300.578 76.9243 300.657L89.9114 303.25C90.2847 303.329 90.6777 303.152 90.8741 302.818L96.4541 293.309C101.759 293.132 106.907 292.091 111.74 290.283L120.523 296.963C120.837 297.199 121.25 297.218 121.584 297.002L132.606 289.654C132.92 289.438 133.077 289.045 132.979 288.672L130.189 277.984C133.706 274.232 136.673 269.87 138.874 265.057L149.798 263.583C150.171 263.524 150.485 263.249 150.564 262.856L153.157 249.87C153.236 249.496 153.059 249.104 152.725 248.907L143.216 243.327C143.039 238.023 141.998 232.875 140.19 228.042L146.87 219.26C147.106 218.946 147.126 218.533 146.909 218.199L139.561 207.177Z" fill="#FFC4C4"/>
<path d="M106.867 250.636C103.704 257.257 95.7464 260.086 89.1251 256.923C85.9225 255.39 83.4862 252.699 82.3073 249.359C81.1285 245.999 81.3053 242.404 82.8378 239.182C86.0011 232.561 93.9584 229.732 100.58 232.895C106.612 235.763 109.48 242.62 107.574 248.809C107.397 249.437 107.162 250.046 106.867 250.636ZM85.2348 248.317C86.1386 250.891 88.0052 252.954 90.4611 254.113C95.5302 256.53 101.641 254.369 104.057 249.3C106.474 244.231 104.313 238.121 99.2437 235.704C94.1746 233.288 88.0641 235.449 85.6474 240.518C85.4313 240.969 85.2545 241.441 85.0973 241.932C84.4489 244.015 84.5079 246.235 85.2348 248.317Z" fill="#F95F66"/>
<path d="M127.135 250.482L127.135 250.483C127.126 250.532 127.117 250.582 127.109 250.632C127.058 250.92 127.005 251.226 126.937 251.532C126.719 252.64 126.442 253.748 126.105 254.817L127.135 250.482ZM127.135 250.482C127.432 248.738 127.571 246.976 127.59 245.217V245.214V245.214V245.214V245.213V245.213V245.213V245.213V245.213V245.213V245.213V245.213V245.213V245.212V245.212V245.212V245.212V245.212V245.212V245.212V245.212V245.211V245.211V245.211V245.211V245.211V245.211V245.211V245.211V245.211V245.21V245.21V245.21V245.21V245.21V245.21V245.21V245.21V245.21V245.209V245.209V245.209V245.209V245.209V245.209V245.209V245.209V245.208V245.208V245.208V245.208V245.208V245.208V245.208V245.208V245.208V245.207V245.207V245.207V245.207V245.207V245.207V245.207V245.207V245.206V245.206V245.206V245.206V245.206V245.206V245.206V245.206V245.206V245.205V245.205V245.205V245.205V245.205V245.205V245.205V245.205V245.204V245.204V245.204V245.204V245.204V245.204V245.204V245.204V245.204V245.203V245.203V245.203V245.203V245.203V245.203V245.203V245.203V245.202V245.202V245.202V245.202V245.202V245.202V245.202V245.202V245.202V245.201V245.201V245.201V245.201V245.201V245.201V245.201V245.201V245.2V245.2V245.2V245.2V245.2V245.2V245.2V245.2V245.199V245.199V245.199V245.199V245.199V245.199V245.199V245.199V245.198V245.198V245.198V245.198V245.198V245.198V245.198V245.198V245.198V245.197V245.197V245.197V245.197V245.197V245.197V245.197V245.197V245.196V245.196V245.196V245.196V245.196V245.196V245.196V245.196V245.195V245.195V245.195V245.195V245.195V245.195V245.195V245.195V245.194V245.194V245.194V245.194V245.194V245.194V245.194V245.193V245.193V245.193V245.193V245.193V245.193V245.193V245.193V245.192V245.192V245.192V245.192V245.192V245.192V245.192V245.192V245.191V245.191V245.191V245.191V245.191V245.191V245.191V245.191V245.19V245.19V245.19V245.19V245.19V245.19V245.19V245.189V245.189V245.189V245.189V245.189V245.189V245.189V245.189V245.188V245.188V245.188V245.188V245.188V245.188V245.188V245.187V245.187V245.187V245.187V245.187V245.187V245.187V245.186V245.186V245.186V245.186V245.186V245.186V245.186V245.186V245.185V245.185V245.185V245.185V245.185V245.185V245.185V245.184V245.184V245.184V245.184V245.184V245.184V245.184V245.183V245.183V245.183V245.183V245.183V245.183V245.183V245.182V245.182V245.182V245.182V245.182V245.182V245.182V245.181V245.181V245.181V245.181V245.181V245.181V245.181V245.18V245.18V245.18V245.18V245.18V245.18V245.18V245.179V245.179V245.179V245.179V245.179V245.179V245.178V245.178V245.178V245.178V245.178V245.178V245.178V245.177V245.177V245.177V245.177V245.177V245.177V245.177V245.176V245.176V245.176V245.176V245.176V245.176V245.175V245.175V245.175V245.175V245.175V245.175V245.175V245.174V245.174V245.174V245.174V245.174V245.174V245.173V245.173V245.173V245.173V245.173V245.173V245.172V245.172V245.172V245.172V245.172V245.172V245.172V245.171V245.171V245.171V245.171V245.171V245.171V245.17V245.17V245.17V245.17V245.17V245.17V245.169V245.169V245.169V245.169V245.169V245.169V245.168V245.168V245.168V245.168V245.168V245.168V245.167V245.167V245.167V245.167V245.167V245.167V245.166V245.166V245.166V245.166V245.166V245.166V245.165V245.165V245.165V245.165V245.165V245.164V245.164V245.164V245.164V245.164V245.164V245.163V245.163V245.163V245.163V245.163V245.163V245.162V245.162V245.162V245.162V245.162V245.161V245.161V245.161V245.161V245.161V245.161V245.16V245.16V245.16V245.16V245.16V245.159V245.159V245.159V245.159V245.159V245.159V245.158V245.158V245.158V245.158V245.158V245.157V245.157V245.157V245.157V245.157V245.156V245.156V245.156V245.156V245.156V245.156V245.155V245.155V245.155V245.155V245.155V245.154V245.154V245.154V245.154V245.154V245.153V245.153V245.153V245.153V245.153V245.152V245.152V245.152V245.152V245.152V245.151V245.151V245.151V245.151V245.151V245.15V245.15V245.15V245.15V245.15V245.149V245.149V245.149V245.149V245.149V245.148V245.148V245.148V245.148V245.148V245.147V245.147V245.147V245.147V245.147V245.146V245.146V245.146V245.146V245.146V245.145V245.145V245.145V245.145V245.144V245.144V245.144V245.144V245.144V245.143V245.143V245.143V245.143V245.143V245.142V245.142V245.142V245.142V245.141V245.141V245.141V245.141V245.141V245.14V245.14V245.14V245.14V245.139V245.139V245.139V245.139V245.139V245.138V245.138V245.138V245.138V245.137V245.137V245.137V245.137V245.137V245.136V245.136V245.136V245.136V245.135V245.135V245.135V245.135V245.134V245.134V245.133V245.133V245.133V245.132V245.132V245.132V245.131V245.131V245.131V245.13V245.13V245.13V245.129V245.129V245.129V245.128V245.128V245.127V245.127V245.127V245.126V245.126V245.126V245.125V245.125V245.125V245.124V245.124V245.124V245.123V245.123V245.122V245.122V245.122V245.121V245.121V245.121V245.12V245.12V245.12V245.119V245.119V245.118V245.118V245.118V245.117V245.117V245.117V245.116V245.116V245.116V245.115V245.115V245.114V245.114V245.114V245.113V245.113V245.113V245.112V245.112V245.112V245.111V245.111V245.11V245.11V245.11V245.109V245.109V245.109V245.108V245.108V245.107V245.107V245.107V245.106V245.106V245.106V245.105V245.105V245.104V245.104V245.104V245.103V245.103V245.103V245.102V245.102V245.101V245.101V245.101V245.1V245.1V245.099V245.099V245.099V245.098V245.098V245.098V245.097V245.097V245.096V245.096V245.096V245.095V245.095V245.094V245.094V245.094V245.093V245.093V245.093V245.092V245.092V245.091V245.091V245.091V245.09V245.09V245.089V245.089V245.089V245.088V245.088V245.088V245.087V245.087V245.086V245.086V245.086V245.085V245.085V245.084V245.084V245.084V245.083V245.083V245.082V245.082V245.082V245.081V245.081V245.08V245.08V245.08V245.079V245.079V245.079V245.078V245.078V245.077V245.077V245.077V245.076V245.076V245.075V245.075V245.075V245.074V245.074V245.073V245.073V245.073V245.072V245.072V245.071V245.071V245.071V245.07V245.07V245.069V245.069V245.069V245.068V245.068V245.067V245.067V245.067V245.066V245.066V245.065V245.065V245.065V245.064V245.064V245.063V245.063V245.063V245.062V245.062V245.061V245.061V245.061V245.06V245.06V245.059V245.059V245.059V245.058V245.058V245.057V245.057V245.057V245.056V245.056V245.055V245.055V245.055V245.054V245.054V245.053V245.053V245.053V245.052V245.052V245.051V245.051V245.051V245.05V245.05V245.049V245.049V245.049V245.048V245.048V245.047V245.047V245.047V245.046V245.046V245.045V245.045V245.045V245.044V245.044V245.043V245.043V245.043V245.042V245.042V245.041V245.041V245.041V245.04V245.04V245.039V245.039V245.039V245.038V245.038V245.037V245.037V245.037V245.036V245.036V245.035V245.035V245.035V245.034V245.034V245.033V245.033V245.033V245.032V245.032V245.031V245.031V245.031V245.03V245.03V245.029V245.029V245.028V245.028V245.028V245.027V245.027V245.026V245.026V245.026V245.025V245.025V245.024V245.024V245.024V245.023V245.023V245.022V245.022V245.022V245.021V245.021V245.02V245.02V245.02V245.019V245.019V245.018V245.018V245.018V245.017V245.017V245.016V245.016V245.016V245.015V245.015V245.014V245.014V245.014V245.013V245.013V245.012V245.012V245.012V245.011V245.011V245.01V245.01V245.01V245.009V245.009V245.008V245.008V245.008V245.007V245.007V245.006V245.006V245.006V245.005V245.005V245.004V245.004V245.004V245.003V245.003V245.002V245.002V245.002V245.001V245.001V245.001V245V245V244.999V244.999V244.999V244.998V244.998V244.997V244.997V244.997V244.996V244.996V244.995V244.995V244.995V244.994V244.994V244.993V244.993V244.993V244.992V244.992V244.991V244.991V244.991V244.99V244.99V244.99V244.989V244.989V244.988V244.988V244.988V244.987V244.987V244.986V244.986V244.986V244.985V244.985V244.984V244.984V244.984V244.983V244.983V244.983V244.982V244.982V244.981V244.981V244.981V244.98V244.98V244.979V244.979V244.979V244.978V244.978V244.978V244.977V244.977V244.976V244.976V244.976V244.975V244.975V244.974V244.974V244.974V244.973V244.973V244.973V244.972V244.972V244.971V244.971V244.971V244.97V244.97V244.97V244.969V244.969V244.968V244.968V244.968V244.967V244.967V244.967V244.966V244.966V244.965V244.965V244.965V244.964V244.964V244.964V244.963V244.963V244.962V244.962V244.962V244.961V244.961V244.961V244.96V244.96V244.959V244.959V244.959V244.958V244.958V244.958V244.957V244.957V244.957V244.956V244.956V244.955V244.955V244.955V244.954V244.954V244.954V244.953V244.953V244.953V244.952V244.952V244.951V244.951V244.951V244.95V244.95V244.95V244.949V244.949V244.949V244.948V244.948V244.947V244.947V244.947V244.946V244.946V244.946V244.945V244.945V244.945V244.944V244.944V244.944V244.943V244.943V244.943V244.942V244.942V244.942V244.941V244.941V244.94V244.94V244.94V244.939V244.939V244.939V244.938V244.937V244.936V244.936V244.935V244.934V244.933V244.932V244.931V244.931V244.93V244.929V244.928V244.927V244.927V244.926V244.925V244.924V244.923V244.923V244.922V244.921V244.92V244.92V244.919V244.918V244.917V244.916V244.916V244.915V244.914V244.913V244.912V244.912V244.911V244.91V244.909V244.908V244.908V244.907V244.906V244.905V244.904V244.904V244.903V244.902V244.901V244.901V244.9V244.899V244.898V244.897V244.897V244.896V244.895V244.894V244.893V244.893V244.892V244.891V244.89V244.89V244.889V244.888V244.887V244.886V244.886V244.885V244.884V244.883V244.883V244.882V244.881V244.88V244.879V244.879V244.878V244.877V244.876V244.876V244.875V244.874V244.873V244.872V244.872V244.871V244.87V244.869V244.869V244.868V244.867V244.866V244.865V244.865V244.864V244.863V244.862V244.862V244.861V244.86V244.859V244.859V244.858V244.857V244.856V244.855V244.855V244.854V244.853V244.852V244.852V244.851V244.85V244.849V244.849V244.848V244.847V244.846V244.846V244.845V244.844V244.843V244.842V244.842V244.841V244.84V244.839V244.839V244.838V244.837V244.836V244.836V244.835V244.834V244.833V244.833V244.832V244.831V244.83V244.83V244.829V244.828V244.827V244.826V244.826V244.825V244.824V244.823V244.823V244.822V244.821V244.82V244.82V244.819V244.818V244.817V244.817V244.816V244.815V244.814V244.814V244.813V244.812V244.811V244.811V244.81V244.809V244.808V244.808V244.807V244.806V244.805V244.805V244.804V244.803V244.802V244.802V244.801V244.8V244.799V244.799V244.798V244.797V244.796V244.795V244.795V244.794V244.793V244.792V244.792V244.791V244.79V244.789V244.789V244.788V244.787V244.786V244.786V244.785V244.784V244.783V244.783V244.782V244.781V244.78V244.78V244.779V244.778V244.777V244.777V244.776V244.775V244.774V244.774V244.773V244.772V244.771V244.771V244.77V244.769V244.768V244.768V244.767V244.766V244.765V244.765V244.764V244.763V244.762V244.762V244.761V244.76V244.759V244.759V244.758V244.757V244.756V244.756V244.755V244.754V244.753V244.753V244.752V244.751V244.75V244.75V244.749V244.748V244.747V244.747V244.746V244.745V244.744V244.744V244.743V244.742V244.742V244.741V244.74V244.739V244.739V244.738V244.737V244.736V244.736V244.735V244.734V244.733V244.733V244.732V244.731V244.73V244.73V244.729V244.728V244.727V244.727V244.726V244.725V244.724V244.724V244.723V244.722V244.721V244.721V244.72V244.719V244.718V244.718V244.717V244.716V244.715V244.715V244.714V244.713V244.712V244.712V244.711V244.71V244.709V244.709V244.708V244.707V244.706V244.706V244.705V244.704V244.703V244.703V244.702V244.701V244.7V244.7V244.699V244.698V244.697V244.697V244.696V244.695V244.694V244.694V244.693V244.692V244.691V244.691V244.69V244.689V244.688V244.688V244.687V244.686V244.685V244.685V244.684V244.683V244.682V244.681V244.681V244.68V244.679V244.678V244.678V244.677V244.676V244.675V244.675V244.674V244.673V244.672V244.672V244.671V244.67V244.669V244.669V244.668V244.667V244.666V244.666V244.665V244.664V244.663V244.663V244.662V244.661V244.66V244.66V244.659V244.658V244.657V244.657V244.656V244.655V244.654V244.653V244.653V244.652V244.651V244.65V244.65V244.649V244.648V244.647V244.647V244.646V244.645V244.644V244.644V244.643V244.642V244.641V244.641V244.64V244.639V244.638V244.637V244.637V244.636V244.635V244.634V244.634V244.633V244.632V244.631V244.631V244.63V244.629V244.628V244.627V244.627V244.626V244.625V244.624V244.624V244.623V244.622V244.621V244.621V244.62V244.619V244.618V244.617V244.617V244.616V244.615V244.614V244.614V244.613V244.612V244.611V244.611V244.61V244.609V244.608V244.607V244.607V244.606V244.605V244.604V244.604V244.603V244.602V244.601V244.6V244.6V244.599V244.598V244.597V244.597V244.596V244.595V244.594V244.593V244.593V244.592V244.591V244.59V244.589V244.589V244.588V244.587V244.586V244.586V244.585V244.584V244.583V244.582V244.582V244.581V244.58V244.579V244.578V244.578V244.577V244.576V244.575V244.575V244.574V244.573V244.572V244.571V244.571V244.57V244.569V244.568V244.567V244.567V244.566V244.565V244.564V244.563V244.563V244.562V244.561V244.56V244.559V244.559V244.558V244.557V244.556V244.555V244.555V244.554V244.553V244.552V244.551V244.551V244.55V244.549V244.548V244.547V244.547V244.546C127.59 244.07 127.271 243.707 126.865 243.58L126.858 243.578L126.851 243.576L126.842 243.574C126.769 243.556 126.664 243.53 126.554 243.53C125.976 243.53 125.538 244.003 125.538 244.565L125.538 244.57C125.577 246.751 125.363 248.953 124.934 251.118C122.79 261.855 115.268 270.197 105.736 273.881C100.434 275.927 94.5097 276.551 88.5259 275.362C87.4715 275.147 86.4392 274.894 85.4477 274.583L85.4463 274.582C78.6642 272.497 72.8568 268.171 68.8805 262.188L68.8804 262.188C64.2999 255.308 62.6824 247.064 64.3002 238.976C67.6525 222.255 83.9851 211.38 100.687 214.731M127.135 250.482L100.687 214.731M84.8466 276.573C77.6005 274.336 71.4234 269.723 67.1676 263.349L67.1674 263.349C62.2776 256.005 60.5551 247.214 62.2773 238.583L62.2774 238.583C65.8411 220.765 83.2629 209.165 101.081 212.728L101.084 212.729L101.084 212.729C102.188 212.965 103.257 213.223 104.329 213.56C108.941 214.985 113.177 217.4 116.76 220.646M84.8466 276.573L116.593 220.832M84.8466 276.573C84.8463 276.573 84.8461 276.573 84.8459 276.573L84.9209 276.334M84.8466 276.573C84.8468 276.573 84.847 276.573 84.8472 276.573L84.9209 276.334M116.76 220.646C116.76 220.646 116.761 220.647 116.761 220.647L116.593 220.832M116.76 220.646C116.759 220.645 116.759 220.645 116.758 220.645L116.593 220.832M116.76 220.646C117.197 221.033 117.226 221.685 116.835 222.102M116.593 220.832C116.927 221.127 116.947 221.618 116.652 221.932M116.835 222.102C116.836 222.102 116.836 222.102 116.836 222.101L116.652 221.932M116.835 222.102C116.546 222.417 116.13 222.49 115.778 222.389L115.765 222.385L115.754 222.381C115.649 222.339 115.495 222.266 115.38 222.153M116.835 222.102C116.835 222.103 116.835 222.103 116.834 222.103L116.652 221.932M116.652 221.932L115.38 222.153M115.38 222.153C115.381 222.154 115.382 222.156 115.384 222.157L115.552 221.972M115.38 222.153L115.846 222.148C115.748 222.109 115.63 222.05 115.552 221.972M115.38 222.153C112.028 219.114 108.053 216.836 103.729 215.511L103.728 215.511C102.735 215.199 101.722 214.946 100.687 214.731M115.38 222.153C115.378 222.152 115.377 222.15 115.375 222.148L115.552 221.972M115.552 221.972C112.172 218.907 108.164 216.608 103.802 215.272M103.802 215.272C102.8 214.958 101.779 214.702 100.737 214.486C83.8992 211.107 67.4344 222.07 64.055 238.927C62.4243 247.08 64.055 255.391 68.6723 262.326L103.802 215.272ZM103.802 215.272L100.687 214.731M84.9209 276.334C77.7299 274.114 71.5998 269.536 67.3755 263.21L88.1824 277.159M84.9209 276.334C85.9819 276.668 87.0822 276.943 88.1824 277.159M88.1824 277.159L88.1335 277.405C88.1336 277.405 88.1338 277.405 88.1339 277.405C88.134 277.405 88.1341 277.405 88.1343 277.405L88.1824 277.159Z" fill="#F95F66" stroke="#F95F66" stroke-width="0.5"/>
<g opacity="0.3">
<path opacity="0.3" d="M195.381 127.903C195.538 127.412 195.341 126.842 194.889 126.547C194.045 125.978 193.16 125.447 192.276 124.936C191.707 124.602 190.98 124.799 190.646 125.369C190.312 125.938 190.508 126.665 191.078 126.999C191.923 127.491 192.748 128.001 193.573 128.532C194.123 128.905 194.87 128.748 195.243 128.198C195.302 128.119 195.341 128.021 195.381 127.903Z" fill="#FF0000"/>
<path opacity="0.3" d="M187.207 123.659C186.952 124.268 186.245 124.563 185.635 124.287C184.103 123.639 182.512 123.05 180.92 122.559C180.586 122.46 180.252 122.362 179.898 122.264C179.27 122.087 178.896 121.419 179.073 120.79C179.27 120.201 179.918 119.788 180.547 119.965C180.9 120.063 181.254 120.181 181.608 120.28C183.278 120.79 184.948 121.399 186.559 122.087C187.129 122.323 187.423 122.971 187.247 123.541C187.247 123.58 187.227 123.62 187.207 123.659ZM173.965 120.967C171.961 120.653 169.917 120.456 167.913 120.397C167.245 120.378 166.734 119.828 166.754 119.16C166.774 118.511 167.324 117.981 167.992 118.001C170.114 118.079 172.236 118.276 174.338 118.61C174.986 118.708 175.438 119.317 175.34 119.985C175.34 120.044 175.32 120.103 175.301 120.162C175.124 120.692 174.554 121.065 173.965 120.967ZM161.822 120.574C159.818 120.751 157.795 121.065 155.81 121.498C155.162 121.635 154.533 121.223 154.376 120.574C154.238 119.926 154.651 119.297 155.28 119.14C157.362 118.688 159.484 118.354 161.587 118.158C162.255 118.099 162.825 118.59 162.883 119.238C162.903 119.395 162.883 119.553 162.844 119.71C162.707 120.181 162.314 120.535 161.822 120.574ZM149.955 123.168C148.049 123.836 146.163 124.641 144.356 125.545C143.766 125.84 143.039 125.604 142.745 125.014C142.45 124.425 142.686 123.698 143.275 123.403C145.161 122.46 147.146 121.616 149.15 120.908C149.778 120.692 150.466 121.006 150.682 121.635C150.761 121.891 150.761 122.146 150.702 122.382C150.584 122.755 150.329 123.05 149.955 123.168ZM139.07 128.59C137.381 129.71 135.75 130.948 134.217 132.264C133.707 132.696 132.96 132.637 132.528 132.127C132.095 131.616 132.154 130.869 132.665 130.437C134.276 129.062 135.986 127.765 137.754 126.586C138.304 126.213 139.051 126.37 139.424 126.92C139.64 127.235 139.679 127.608 139.562 127.942C139.483 128.197 139.326 128.433 139.07 128.59ZM129.856 136.488C128.5 137.981 127.203 139.573 126.044 141.223C125.671 141.753 124.904 141.891 124.374 141.518C123.843 141.144 123.706 140.398 124.079 139.848C125.297 138.119 126.653 136.449 128.087 134.877C128.539 134.386 129.286 134.347 129.777 134.799C130.131 135.113 130.249 135.604 130.111 136.036C130.052 136.193 129.974 136.351 129.856 136.488ZM122.841 146.39C121.898 148.158 121.034 150.025 120.307 151.911C120.071 152.52 119.383 152.834 118.755 152.599C118.146 152.363 117.831 151.675 118.067 151.046C118.833 149.062 119.737 147.117 120.719 145.251C121.034 144.661 121.761 144.445 122.35 144.759C122.861 145.034 123.097 145.624 122.92 146.174C122.9 146.253 122.881 146.331 122.841 146.39ZM116.004 164.76C115.356 164.681 114.884 164.072 114.963 163.424C115.179 161.597 115.513 159.77 115.945 157.962C116.004 157.687 116.083 157.412 116.142 157.137C116.279 156.489 116.947 156.096 117.595 156.272C118.244 156.43 118.617 157.078 118.46 157.726C118.401 157.982 118.342 158.237 118.283 158.493C117.871 160.221 117.576 161.97 117.36 163.699C117.36 163.778 117.34 163.836 117.32 163.915C117.144 164.465 116.593 164.819 116.004 164.76Z" fill="#FF0000"/>
</g>
<g opacity="0.3">
<path opacity="0.3" d="M215.598 185.663C214.95 187.648 214.184 189.612 213.319 191.498C213.044 192.107 212.337 192.363 211.728 192.088C211.119 191.813 210.863 191.105 211.138 190.496C211.963 188.689 212.71 186.822 213.319 184.917C213.516 184.288 214.203 183.934 214.832 184.151C215.441 184.347 215.795 185.015 215.598 185.663C215.598 185.644 215.598 185.663 215.598 185.663ZM215.755 180.536C215.107 180.418 214.675 179.789 214.812 179.141C215.186 177.196 215.461 175.192 215.598 173.207C215.637 172.559 216.227 172.048 216.875 172.107C217.543 172.146 218.034 172.736 217.976 173.384C217.818 175.467 217.543 177.549 217.15 179.612C217.15 179.651 217.131 179.691 217.111 179.73C216.954 180.28 216.364 180.653 215.755 180.536ZM210.333 197.039C209.232 198.807 208.014 200.536 206.698 202.167C206.285 202.677 205.519 202.756 205.008 202.343C204.497 201.931 204.419 201.184 204.831 200.654C206.069 199.102 207.248 197.471 208.289 195.762C208.643 195.192 209.37 195.035 209.94 195.369C210.411 195.664 210.608 196.233 210.45 196.744C210.431 196.842 210.392 196.941 210.333 197.039ZM216.915 168.335C216.247 168.374 215.696 167.863 215.657 167.195C215.559 165.211 215.323 163.207 214.989 161.242C214.871 160.594 215.303 159.965 215.971 159.847C216.62 159.73 217.249 160.162 217.366 160.83C217.72 162.893 217.956 164.975 218.074 167.077C218.074 167.215 218.054 167.353 218.015 167.49C217.858 167.962 217.425 168.315 216.915 168.335ZM202.493 206.784C201 208.237 199.408 209.613 197.738 210.89C197.208 211.283 196.461 211.184 196.049 210.654C195.656 210.124 195.754 209.377 196.284 208.964C197.876 207.766 199.389 206.45 200.823 205.055C201.295 204.603 202.061 204.603 202.513 205.074C202.827 205.408 202.925 205.86 202.808 206.273C202.749 206.469 202.631 206.646 202.493 206.784ZM192.532 214.387C190.724 215.448 188.838 216.391 186.932 217.236C186.323 217.491 185.616 217.216 185.36 216.607C185.105 215.998 185.38 215.291 185.989 215.035C187.816 214.249 189.604 213.326 191.333 212.324C191.903 211.99 192.63 212.186 192.964 212.756C193.141 213.051 193.18 213.405 193.082 213.719C192.984 213.974 192.807 214.23 192.532 214.387ZM181.038 219.377C179.034 219.967 176.971 220.458 174.927 220.792C174.279 220.91 173.65 220.458 173.552 219.809C173.434 219.161 173.886 218.532 174.534 218.434C176.499 218.1 178.464 217.648 180.37 217.078C180.999 216.882 181.667 217.255 181.863 217.884C181.942 218.12 181.922 218.356 181.863 218.572C181.726 218.945 181.431 219.259 181.038 219.377Z" fill="#FF0000"/>
<path opacity="0.3" d="M215.873 155.388C215.932 155.172 215.951 154.916 215.873 154.681C215.578 153.698 215.244 152.716 214.89 151.773C214.655 151.144 213.967 150.83 213.358 151.066C212.749 151.301 212.415 151.989 212.651 152.598C212.985 153.502 213.299 154.425 213.594 155.368C213.79 155.997 214.458 156.351 215.087 156.174C215.46 156.056 215.755 155.741 215.873 155.388Z" fill="#FF0000"/>
</g>
<path d="M195.872 144.406C195.734 144.189 195.459 144.091 195.204 144.15L188.052 146.017C185.537 143.659 182.629 141.675 179.387 140.201L178.405 132.893C178.365 132.637 178.169 132.421 177.914 132.382L169.229 130.633C168.974 130.574 168.718 130.692 168.581 130.928L164.848 137.293C161.292 137.411 157.853 138.099 154.631 139.317L148.756 134.838C148.56 134.68 148.265 134.68 148.049 134.818L140.681 139.73C140.465 139.867 140.367 140.142 140.426 140.398L142.292 147.549C139.935 150.064 137.95 152.972 136.477 156.213L129.168 157.196C128.912 157.235 128.696 157.431 128.657 157.687L126.908 166.371C126.849 166.626 126.967 166.881 127.203 167.019L133.569 170.752C133.687 174.308 134.374 177.746 135.592 180.968L131.113 186.843C130.956 187.039 130.956 187.334 131.093 187.55L136.005 194.917C136.143 195.133 136.418 195.232 136.673 195.173L143.825 193.306C146.34 195.664 149.248 197.648 152.489 199.122L153.472 206.43C153.511 206.686 153.708 206.902 153.963 206.941L162.647 208.69C162.903 208.749 163.158 208.631 163.296 208.395L167.029 202.029C170.585 201.912 174.023 201.224 177.246 200.006L183.12 204.485C183.317 204.643 183.611 204.643 183.828 204.505L191.195 199.593C191.412 199.456 191.51 199.181 191.451 198.925L189.584 191.774C191.942 189.259 193.926 186.351 195.4 183.11L202.709 182.127C202.964 182.088 203.181 181.892 203.22 181.636L204.968 172.952C205.027 172.697 204.91 172.441 204.674 172.304L198.308 168.571C198.19 165.015 197.483 161.577 196.284 158.355L200.764 152.48C200.921 152.284 200.921 151.989 200.784 151.773L195.872 144.406Z" fill="#FFC4C4"/>
<path d="M174.141 173.561C173.1 175.742 171.273 177.392 168.994 178.197C166.715 179.003 164.259 178.885 162.058 177.844C157.539 175.702 155.633 170.28 157.775 165.761C159.936 161.242 165.339 159.337 169.858 161.478C172.039 162.519 173.69 164.346 174.495 166.626C175.143 168.472 175.183 170.457 174.613 172.303C174.495 172.736 174.338 173.148 174.141 173.561ZM163.08 175.683C164.691 176.449 166.498 176.547 168.168 175.958C169.839 175.368 171.194 174.15 171.961 172.539C172.727 170.928 172.825 169.121 172.236 167.451C171.646 165.781 170.428 164.425 168.817 163.659C165.496 162.067 161.508 163.482 159.936 166.802C159.799 167.097 159.681 167.411 159.582 167.706C158.62 170.81 160.054 174.229 163.08 175.683Z" fill="#F95F66"/>
<path d="M187.364 176.41C187.58 175.683 187.777 174.937 187.934 174.19C188.228 172.677 188.386 171.145 188.386 169.613C188.386 169.534 188.386 169.475 188.386 169.396C188.386 168.866 188.032 168.414 187.541 168.277C187.423 168.237 187.305 168.218 187.167 168.218C186.499 168.218 185.989 168.768 185.989 169.436C186.008 170.87 185.871 172.304 185.596 173.719C185.576 173.797 185.556 173.876 185.556 173.954C184.849 177.275 183.356 180.3 181.214 182.835C180.055 184.21 178.699 185.428 177.167 186.45C177.147 186.45 177.147 186.469 177.127 186.469C177.088 186.489 177.049 186.528 177.01 186.548C172.53 189.534 167.146 190.595 161.861 189.534C161.173 189.397 160.505 189.22 159.857 189.023C155.436 187.668 151.644 184.839 149.031 180.929C146.045 176.45 144.984 171.066 146.045 165.781C147.106 160.496 150.151 155.938 154.65 152.952C159.13 149.966 164.514 148.905 169.799 149.966C170.467 150.103 171.135 150.26 171.783 150.477C174.613 151.341 177.206 152.815 179.387 154.819C179.524 154.936 179.682 155.035 179.839 155.074C180.271 155.211 180.762 155.094 181.077 154.74C181.529 154.249 181.489 153.502 180.998 153.05C178.542 150.83 175.634 149.18 172.491 148.198C171.764 147.981 171.017 147.785 170.27 147.628C164.356 146.449 158.344 147.628 153.314 150.968C148.304 154.308 144.886 159.396 143.687 165.31C142.508 171.224 143.687 177.235 147.027 182.265C149.935 186.627 154.179 189.79 159.13 191.322C159.857 191.558 160.623 191.735 161.39 191.892C172.805 194.171 184.004 187.334 187.364 176.41Z" fill="#F95F66"/>
</svg>
