<svg width="335" height="390" viewBox="0 0 335 390" fill="none" xmlns="http://www.w3.org/2000/svg">
<g filter="url(#filter0_d)">
<path d="M268.986 294.102H238.347V127.609C238.347 88.4346 206.482 56.6052 167.264 56.6052C128.046 56.6052 96.1812 88.4346 96.1812 127.609V294.102H65.2969V127.609C65.2969 71.5405 110.888 26 167.019 26C223.15 26 268.741 71.5405 268.741 127.609V294.102H268.986Z" fill="#B20000"/>
<g opacity="0.4">
<g opacity="0.4">
<path opacity="0.4" d="M268.986 294.102H238.347V127.609C238.347 88.4346 206.482 56.6052 167.264 56.6052C128.046 56.6052 96.1812 88.4346 96.1812 127.609V294.102H65.2969V127.609C65.2969 71.5405 110.888 26 167.019 26C223.15 26 268.741 71.5405 268.741 127.609V294.102H268.986Z" fill="#FF0000"/>
</g>
</g>
<path d="M290.065 355.796H44.2166C36.3729 355.796 30 349.43 30 341.595V194.201C30 186.366 36.3729 180 44.2166 180H290.065C297.909 180 304.282 186.366 304.282 194.201V341.595C304.282 349.43 297.909 355.796 290.065 355.796Z" fill="#FF0000"/>
<circle cx="167" cy="268" r="55" fill="#F5F6F9"/>
<path fill-rule="evenodd" clip-rule="evenodd" d="M191.843 240L201.365 249.437L161.179 289.263L140 268.274L149.523 258.837L161.179 270.389L191.843 240Z" fill="#323335"/>
</g>
<path d="M44.4616 339.307C43.7263 339.307 43.2361 309.926 43.2361 273.934C43.2361 237.697 43.7263 208.316 44.4616 208.316C45.197 208.316 45.6872 237.697 45.6872 273.934C45.6872 309.926 45.197 339.307 44.4616 339.307Z" fill="#FAFAFA"/>
<path d="M128.808 318.403C128.808 318.403 126.967 317.944 123.745 315.645C120.524 313.347 116.842 309.669 112.7 304.152C104.876 293.579 97.5129 274.731 102.115 254.044C107.177 233.357 122.365 219.566 134.33 214.05C140.313 210.832 145.836 209.453 149.518 208.993C153.199 208.533 155.5 208.533 155.5 208.533C155.5 209.453 145.376 208.604 134.33 215.5C123.285 221.476 108.102 234.737 103.5 254.044C98.8981 272.892 106.597 293.386 113.5 303.5C120.404 314.073 129.268 317.944 128.808 318.403Z" fill="#FAFAFA"/>
<defs>
<filter id="filter0_d" x="0" y="0" width="334.282" height="389.796" filterUnits="userSpaceOnUse" color-interpolation-filters="sRGB">
<feFlood flood-opacity="0" result="BackgroundImageFix"/>
<feColorMatrix in="SourceAlpha" type="matrix" values="0 0 0 0 0 0 0 0 0 0 0 0 0 0 0 0 0 0 127 0"/>
<feOffset dy="4"/>
<feGaussianBlur stdDeviation="15"/>
<feColorMatrix type="matrix" values="0 0 0 0 1 0 0 0 0 1 0 0 0 0 1 0 0 0 0.25 0"/>
<feBlend mode="normal" in2="BackgroundImageFix" result="effect1_dropShadow"/>
<feBlend mode="normal" in="SourceGraphic" in2="effect1_dropShadow" result="shape"/>
</filter>
</defs>
</svg>
