<svg width="52" height="35" viewBox="0 0 52 35" fill="none" xmlns="http://www.w3.org/2000/svg">
<path d="M13 35C9.55219 35 6.24558 33.6172 3.80761 31.1558C1.36964 28.6944 0 25.356 0 21.875C0 15.1156 5.07 9.5375 11.5917 8.8375C14.3 3.5875 19.7383 0 26 0C33.865 0 40.43 5.64375 41.925 13.125C47.5583 13.5406 52 18.2875 52 24.0625C52 25.4988 51.7198 26.9211 51.1754 28.2481C50.6309 29.5751 49.833 30.7808 48.827 31.7965C47.821 32.8121 46.6268 33.6178 45.3124 34.1674C43.998 34.7171 42.5893 35 41.1667 35H13ZM40.0833 17.5H39C38.4254 17.5 37.8743 17.2695 37.4679 16.8593C37.0616 16.4491 36.8333 15.8927 36.8333 15.3125V13.125C36.8333 11.9647 36.3768 10.8519 35.5641 10.0314C34.7515 9.21094 33.6493 8.75 32.5 8.75H29.25V13.125H32.5V15.3125C32.5 16.4728 32.9565 17.5856 33.7692 18.4061C34.5819 19.2266 35.6841 19.6875 36.8333 19.6875C35.6841 19.6875 34.5819 20.1484 33.7692 20.9689C32.9565 21.7894 32.5 22.9022 32.5 24.0625V26.25H29.25V30.625H32.5C33.6493 30.625 34.7515 30.1641 35.5641 29.3436C36.3768 28.5231 36.8333 27.4103 36.8333 26.25V24.0625C36.8333 23.4823 37.0616 22.9259 37.4679 22.5157C37.8743 22.1055 38.4254 21.875 39 21.875H40.0833V17.5ZM11.9167 17.5V21.875H13C13.5746 21.875 14.1257 22.1055 14.5321 22.5157C14.9384 22.9259 15.1667 23.4823 15.1667 24.0625V26.25C15.1667 27.4103 15.6232 28.5231 16.4359 29.3436C17.2485 30.1641 18.3507 30.625 19.5 30.625H22.75V26.25H19.5V24.0625C19.5 22.9022 19.0435 21.7894 18.2308 20.9689C17.4181 20.1484 16.3159 19.6875 15.1667 19.6875C16.3159 19.6875 17.4181 19.2266 18.2308 18.4061C19.0435 17.5856 19.5 16.4728 19.5 15.3125V13.125H22.75V8.75H19.5C18.3507 8.75 17.2485 9.21094 16.4359 10.0314C15.6232 10.8519 15.1667 11.9647 15.1667 13.125V15.3125C15.1667 15.8927 14.9384 16.4491 14.5321 16.8593C14.1257 17.2695 13.5746 17.5 13 17.5H11.9167Z" fill="#FF0000"/>
</svg>
