<svg width="843" height="336" viewBox="0 0 843 336" fill="none" xmlns="http://www.w3.org/2000/svg">
<path d="M746.037 302.407C745.478 302.407 744.968 302.273 744.506 302.005C744.05 301.737 743.688 301.372 743.42 300.91C743.158 300.448 743.027 299.941 743.027 299.388C743.027 298.835 743.158 298.328 743.42 297.866C743.688 297.404 744.053 297.039 744.515 296.771C744.977 296.503 745.49 296.369 746.054 296.369C746.618 296.369 747.129 296.501 747.585 296.763C748.046 297.025 748.408 297.387 748.671 297.849C748.933 298.305 749.064 298.812 749.064 299.371C749.064 299.93 748.93 300.443 748.662 300.91C748.394 301.372 748.029 301.737 747.568 302.005C747.106 302.273 746.596 302.407 746.037 302.407ZM746.037 302.022C746.527 302.022 746.972 301.905 747.371 301.671C747.77 301.437 748.083 301.118 748.312 300.713C748.545 300.309 748.662 299.861 748.662 299.371C748.662 298.881 748.548 298.436 748.32 298.037C748.098 297.638 747.787 297.324 747.388 297.096C746.995 296.868 746.55 296.754 746.054 296.754C745.564 296.754 745.116 296.871 744.712 297.105C744.312 297.339 743.999 297.658 743.771 298.063C743.543 298.462 743.429 298.903 743.429 299.388C743.429 299.873 743.543 300.317 743.771 300.722C743.999 301.121 744.312 301.437 744.712 301.671C745.111 301.905 745.552 302.022 746.037 302.022ZM746.131 301.149C745.783 301.149 745.473 301.075 745.199 300.927C744.925 300.779 744.712 300.571 744.558 300.303C744.404 300.035 744.327 299.73 744.327 299.388C744.327 299.046 744.404 298.741 744.558 298.473C744.712 298.205 744.925 297.997 745.199 297.849C745.473 297.701 745.783 297.626 746.131 297.626C746.427 297.626 746.698 297.689 746.943 297.815C747.188 297.94 747.379 298.108 747.516 298.319L747.029 298.67C746.824 298.362 746.521 298.208 746.122 298.208C745.792 298.208 745.518 298.316 745.302 298.533C745.085 298.749 744.977 299.035 744.977 299.388C744.977 299.741 745.085 300.026 745.302 300.243C745.518 300.46 745.792 300.568 746.122 300.568C746.521 300.568 746.824 300.414 747.029 300.106L747.516 300.448C747.379 300.665 747.188 300.836 746.943 300.961C746.698 301.087 746.427 301.149 746.131 301.149ZM754.411 302.449C753.961 302.449 753.525 302.381 753.103 302.244C752.687 302.102 752.359 301.919 752.119 301.697L752.436 301.03C752.664 301.235 752.955 301.403 753.308 301.534C753.667 301.66 754.035 301.722 754.411 301.722C754.907 301.722 755.278 301.64 755.523 301.474C755.768 301.303 755.89 301.078 755.89 300.799C755.89 300.594 755.822 300.428 755.685 300.303C755.554 300.172 755.389 300.072 755.189 300.004C754.995 299.935 754.719 299.858 754.36 299.773C753.909 299.664 753.545 299.556 753.265 299.448C752.992 299.34 752.755 299.174 752.556 298.952C752.362 298.724 752.265 298.419 752.265 298.037C752.265 297.718 752.347 297.43 752.513 297.173C752.684 296.917 752.94 296.711 753.282 296.558C753.624 296.404 754.049 296.327 754.557 296.327C754.91 296.327 755.258 296.372 755.6 296.463C755.942 296.555 756.235 296.686 756.481 296.857L756.198 297.541C755.947 297.381 755.68 297.262 755.395 297.182C755.109 297.096 754.83 297.054 754.557 297.054C754.072 297.054 753.707 297.142 753.462 297.319C753.223 297.495 753.103 297.723 753.103 298.003C753.103 298.208 753.171 298.376 753.308 298.507C753.445 298.633 753.613 298.732 753.813 298.806C754.018 298.875 754.294 298.949 754.642 299.029C755.092 299.137 755.454 299.245 755.728 299.354C756.002 299.462 756.235 299.627 756.429 299.85C756.629 300.072 756.728 300.371 756.728 300.748C756.728 301.061 756.643 301.349 756.472 301.611C756.301 301.868 756.042 302.073 755.694 302.227C755.346 302.375 754.918 302.449 754.411 302.449ZM761.785 297.849L759.587 302.834C759.394 303.296 759.166 303.621 758.903 303.809C758.647 303.997 758.336 304.091 757.971 304.091C757.749 304.091 757.532 304.054 757.321 303.98C757.116 303.912 756.945 303.809 756.808 303.672L757.159 303.056C757.393 303.279 757.663 303.39 757.971 303.39C758.171 303.39 758.336 303.336 758.467 303.227C758.604 303.125 758.727 302.945 758.835 302.689L758.98 302.372L756.979 297.849H757.834L759.416 301.474L760.981 297.849H761.785ZM768.221 297.806C768.791 297.806 769.241 297.971 769.572 298.302C769.908 298.633 770.076 299.123 770.076 299.773V302.381H769.255V299.867C769.255 299.428 769.153 299.097 768.947 298.875C768.748 298.653 768.46 298.541 768.084 298.541C767.668 298.541 767.337 298.673 767.092 298.935C766.847 299.191 766.724 299.562 766.724 300.046V302.381H765.903V299.867C765.903 299.428 765.801 299.097 765.595 298.875C765.396 298.653 765.108 298.541 764.732 298.541C764.316 298.541 763.985 298.673 763.74 298.935C763.495 299.191 763.372 299.562 763.372 300.046V302.381H762.551V297.849H763.338V298.524C763.503 298.291 763.72 298.114 763.988 297.994C764.256 297.869 764.561 297.806 764.903 297.806C765.256 297.806 765.57 297.877 765.843 298.02C766.117 298.162 766.328 298.37 766.476 298.644C766.647 298.382 766.884 298.177 767.186 298.028C767.494 297.88 767.839 297.806 768.221 297.806ZM773.989 297.806C774.428 297.806 774.822 297.903 775.169 298.097C775.517 298.291 775.788 298.561 775.982 298.909C776.181 299.257 776.281 299.659 776.281 300.115C776.281 300.571 776.181 300.976 775.982 301.329C775.788 301.677 775.517 301.948 775.169 302.141C774.822 302.335 774.428 302.432 773.989 302.432C773.664 302.432 773.365 302.369 773.092 302.244C772.824 302.119 772.596 301.936 772.407 301.697V304.04H771.587V297.849H772.373V298.567C772.556 298.316 772.787 298.128 773.066 298.003C773.345 297.872 773.653 297.806 773.989 297.806ZM773.921 301.714C774.212 301.714 774.471 301.648 774.699 301.517C774.933 301.38 775.115 301.192 775.246 300.953C775.383 300.708 775.452 300.428 775.452 300.115C775.452 299.801 775.383 299.525 775.246 299.285C775.115 299.04 774.933 298.852 774.699 298.721C774.471 298.59 774.212 298.524 773.921 298.524C773.636 298.524 773.377 298.593 773.143 298.73C772.915 298.861 772.732 299.046 772.596 299.285C772.464 299.525 772.399 299.801 772.399 300.115C772.399 300.428 772.464 300.708 772.596 300.953C772.727 301.192 772.909 301.38 773.143 301.517C773.377 301.648 773.636 301.714 773.921 301.714ZM779.835 297.806C780.411 297.806 780.867 297.974 781.204 298.311C781.546 298.641 781.717 299.129 781.717 299.773V302.381H780.896V299.867C780.896 299.428 780.79 299.097 780.579 298.875C780.368 298.653 780.066 298.541 779.673 298.541C779.228 298.541 778.878 298.673 778.621 298.935C778.365 299.191 778.236 299.562 778.236 300.046V302.381H777.415V296.036H778.236V298.49C778.407 298.273 778.63 298.105 778.903 297.986C779.183 297.866 779.493 297.806 779.835 297.806ZM785.202 302.432C784.752 302.432 784.347 302.332 783.988 302.133C783.629 301.933 783.346 301.66 783.141 301.312C782.942 300.959 782.842 300.559 782.842 300.115C782.842 299.67 782.942 299.274 783.141 298.926C783.346 298.573 783.629 298.299 783.988 298.105C784.347 297.906 784.752 297.806 785.202 297.806C785.652 297.806 786.054 297.906 786.408 298.105C786.767 298.299 787.046 298.573 787.246 298.926C787.451 299.274 787.554 299.67 787.554 300.115C787.554 300.559 787.451 300.959 787.246 301.312C787.046 301.66 786.767 301.933 786.408 302.133C786.054 302.332 785.652 302.432 785.202 302.432ZM785.202 301.714C785.493 301.714 785.752 301.648 785.98 301.517C786.214 301.38 786.396 301.192 786.527 300.953C786.658 300.708 786.724 300.428 786.724 300.115C786.724 299.801 786.658 299.525 786.527 299.285C786.396 299.04 786.214 298.852 785.98 298.721C785.752 298.59 785.493 298.524 785.202 298.524C784.911 298.524 784.649 298.59 784.415 298.721C784.187 298.852 784.005 299.04 783.868 299.285C783.737 299.525 783.671 299.801 783.671 300.115C783.671 300.428 783.737 300.708 783.868 300.953C784.005 301.192 784.187 301.38 784.415 301.517C784.649 301.648 784.911 301.714 785.202 301.714ZM791.109 297.806C791.685 297.806 792.141 297.974 792.477 298.311C792.819 298.641 792.99 299.129 792.99 299.773V302.381H792.169V299.867C792.169 299.428 792.064 299.097 791.853 298.875C791.642 298.653 791.34 298.541 790.946 298.541C790.502 298.541 790.151 298.673 789.895 298.935C789.638 299.191 789.51 299.562 789.51 300.046V302.381H788.689V297.849H789.475V298.533C789.641 298.299 789.863 298.12 790.142 297.994C790.428 297.869 790.75 297.806 791.109 297.806ZM798.436 297.849L796.239 302.834C796.045 303.296 795.817 303.621 795.554 303.809C795.298 303.997 794.987 304.091 794.622 304.091C794.4 304.091 794.183 304.054 793.973 303.98C793.767 303.912 793.596 303.809 793.459 303.672L793.81 303.056C794.044 303.279 794.315 303.39 794.622 303.39C794.822 303.39 794.987 303.336 795.118 303.227C795.255 303.125 795.378 302.945 795.486 302.689L795.631 302.372L793.63 297.849H794.486L796.068 301.474L797.632 297.849H798.436ZM803.363 302.449C802.913 302.449 802.476 302.381 802.055 302.244C801.638 302.102 801.311 301.919 801.071 301.697L801.388 301.03C801.616 301.235 801.906 301.403 802.26 301.534C802.619 301.66 802.987 301.722 803.363 301.722C803.859 301.722 804.229 301.64 804.475 301.474C804.72 301.303 804.842 301.078 804.842 300.799C804.842 300.594 804.774 300.428 804.637 300.303C804.506 300.172 804.341 300.072 804.141 300.004C803.947 299.935 803.671 299.858 803.312 299.773C802.861 299.664 802.496 299.556 802.217 299.448C801.943 299.34 801.707 299.174 801.507 298.952C801.313 298.724 801.217 298.419 801.217 298.037C801.217 297.718 801.299 297.43 801.465 297.173C801.636 296.917 801.892 296.711 802.234 296.558C802.576 296.404 803.001 296.327 803.508 296.327C803.862 296.327 804.209 296.372 804.552 296.463C804.894 296.555 805.187 296.686 805.432 296.857L805.15 297.541C804.899 297.381 804.631 297.262 804.346 297.182C804.061 297.096 803.782 297.054 803.508 297.054C803.024 297.054 802.659 297.142 802.414 297.319C802.174 297.495 802.055 297.723 802.055 298.003C802.055 298.208 802.123 298.376 802.26 298.507C802.397 298.633 802.565 298.732 802.764 298.806C802.97 298.875 803.246 298.949 803.594 299.029C804.044 299.137 804.406 299.245 804.68 299.354C804.953 299.462 805.187 299.627 805.381 299.85C805.58 300.072 805.68 300.371 805.68 300.748C805.68 301.061 805.595 301.349 805.424 301.611C805.253 301.868 804.993 302.073 804.646 302.227C804.298 302.375 803.87 302.449 803.363 302.449ZM808.751 302.432C808.301 302.432 807.896 302.332 807.537 302.133C807.178 301.933 806.895 301.66 806.69 301.312C806.491 300.959 806.391 300.559 806.391 300.115C806.391 299.67 806.491 299.274 806.69 298.926C806.895 298.573 807.178 298.299 807.537 298.105C807.896 297.906 808.301 297.806 808.751 297.806C809.201 297.806 809.603 297.906 809.957 298.105C810.316 298.299 810.595 298.573 810.795 298.926C811 299.274 811.102 299.67 811.102 300.115C811.102 300.559 811 300.959 810.795 301.312C810.595 301.66 810.316 301.933 809.957 302.133C809.603 302.332 809.201 302.432 808.751 302.432ZM808.751 301.714C809.042 301.714 809.301 301.648 809.529 301.517C809.763 301.38 809.945 301.192 810.076 300.953C810.207 300.708 810.273 300.428 810.273 300.115C810.273 299.801 810.207 299.525 810.076 299.285C809.945 299.04 809.763 298.852 809.529 298.721C809.301 298.59 809.042 298.524 808.751 298.524C808.46 298.524 808.198 298.59 807.964 298.721C807.736 298.852 807.554 299.04 807.417 299.285C807.286 299.525 807.22 299.801 807.22 300.115C807.22 300.428 807.286 300.708 807.417 300.953C807.554 301.192 807.736 301.38 807.964 301.517C808.198 301.648 808.46 301.714 808.751 301.714ZM812.238 296.036H813.059V302.381H812.238V296.036ZM818.85 297.849V302.381H818.072V301.697C817.907 301.931 817.687 302.113 817.414 302.244C817.146 302.369 816.852 302.432 816.533 302.432C815.929 302.432 815.453 302.267 815.105 301.936C814.757 301.6 814.583 301.107 814.583 300.457V297.849H815.404V300.363C815.404 300.802 815.51 301.135 815.721 301.363C815.932 301.586 816.234 301.697 816.627 301.697C817.06 301.697 817.402 301.566 817.653 301.303C817.904 301.041 818.029 300.671 818.029 300.192V297.849H818.85ZM822.961 302.116C822.842 302.218 822.693 302.298 822.517 302.355C822.34 302.407 822.158 302.432 821.969 302.432C821.513 302.432 821.16 302.31 820.909 302.064C820.658 301.819 820.533 301.469 820.533 301.013V298.524H819.763V297.849H820.533V296.857H821.354V297.849H822.653V298.524H821.354V300.978C821.354 301.224 821.414 301.412 821.533 301.543C821.659 301.674 821.835 301.74 822.063 301.74C822.314 301.74 822.528 301.668 822.705 301.526L822.961 302.116ZM823.954 297.849H824.775V302.381H823.954V297.849ZM824.364 296.977C824.205 296.977 824.071 296.925 823.962 296.823C823.86 296.72 823.808 296.595 823.808 296.446C823.808 296.298 823.86 296.173 823.962 296.07C824.071 295.962 824.205 295.908 824.364 295.908C824.524 295.908 824.655 295.959 824.758 296.062C824.866 296.159 824.92 296.281 824.92 296.429C824.92 296.583 824.866 296.714 824.758 296.823C824.655 296.925 824.524 296.977 824.364 296.977ZM828.283 302.432C827.833 302.432 827.428 302.332 827.069 302.133C826.71 301.933 826.428 301.66 826.222 301.312C826.023 300.959 825.923 300.559 825.923 300.115C825.923 299.67 826.023 299.274 826.222 298.926C826.428 298.573 826.71 298.299 827.069 298.105C827.428 297.906 827.833 297.806 828.283 297.806C828.734 297.806 829.135 297.906 829.489 298.105C829.848 298.299 830.127 298.573 830.327 298.926C830.532 299.274 830.635 299.67 830.635 300.115C830.635 300.559 830.532 300.959 830.327 301.312C830.127 301.66 829.848 301.933 829.489 302.133C829.135 302.332 828.734 302.432 828.283 302.432ZM828.283 301.714C828.574 301.714 828.833 301.648 829.061 301.517C829.295 301.38 829.477 301.192 829.609 300.953C829.74 300.708 829.805 300.428 829.805 300.115C829.805 299.801 829.74 299.525 829.609 299.285C829.477 299.04 829.295 298.852 829.061 298.721C828.833 298.59 828.574 298.524 828.283 298.524C827.992 298.524 827.73 298.59 827.496 298.721C827.268 298.852 827.086 299.04 826.949 299.285C826.818 299.525 826.753 299.801 826.753 300.115C826.753 300.428 826.818 300.708 826.949 300.953C827.086 301.192 827.268 301.38 827.496 301.517C827.73 301.648 827.992 301.714 828.283 301.714ZM834.19 297.806C834.766 297.806 835.222 297.974 835.558 298.311C835.9 298.641 836.071 299.129 836.071 299.773V302.381H835.25V299.867C835.25 299.428 835.145 299.097 834.934 298.875C834.723 298.653 834.421 298.541 834.028 298.541C833.583 298.541 833.232 298.673 832.976 298.935C832.719 299.191 832.591 299.562 832.591 300.046V302.381H831.77V297.849H832.557V298.533C832.722 298.299 832.944 298.12 833.224 297.994C833.509 297.869 833.831 297.806 834.19 297.806ZM838.89 302.432C838.52 302.432 838.163 302.384 837.821 302.287C837.479 302.184 837.211 302.056 837.018 301.902L837.36 301.252C837.559 301.395 837.801 301.509 838.086 301.594C838.371 301.68 838.659 301.722 838.95 301.722C839.668 301.722 840.028 301.517 840.028 301.107C840.028 300.97 839.979 300.862 839.882 300.782C839.785 300.702 839.663 300.645 839.514 300.611C839.372 300.571 839.167 300.528 838.899 300.483C838.534 300.426 838.235 300.36 838.001 300.286C837.773 300.212 837.576 300.086 837.411 299.91C837.246 299.733 837.163 299.485 837.163 299.166C837.163 298.755 837.334 298.427 837.676 298.182C838.018 297.931 838.477 297.806 839.053 297.806C839.355 297.806 839.657 297.843 839.959 297.917C840.261 297.991 840.509 298.091 840.703 298.216L840.352 298.866C839.982 298.627 839.546 298.507 839.044 298.507C838.696 298.507 838.431 298.564 838.249 298.678C838.066 298.792 837.975 298.943 837.975 299.131C837.975 299.28 838.027 299.397 838.129 299.482C838.232 299.568 838.357 299.63 838.505 299.67C838.659 299.71 838.873 299.756 839.147 299.807C839.512 299.87 839.805 299.938 840.028 300.012C840.256 300.081 840.449 300.2 840.609 300.371C840.769 300.542 840.848 300.782 840.848 301.09C840.848 301.5 840.672 301.828 840.318 302.073C839.971 302.312 839.495 302.432 838.89 302.432Z" fill="#DBDBDB"/>
<path d="M350.931 140.867L353.436 148.675L355.933 140.867H359.495V152.09H356.781V149.469L357.043 144.104L354.33 152.09H352.542L349.821 144.096L350.083 149.469V152.09H347.377V140.867H350.931ZM360.774 147.843C360.774 147.01 360.936 146.27 361.26 145.623C361.584 144.97 362.049 144.469 362.655 144.119C363.262 143.77 363.973 143.595 364.79 143.595C366.039 143.595 367.023 143.983 367.743 144.759C368.462 145.53 368.822 146.581 368.822 147.912V148.004C368.822 149.305 368.46 150.337 367.735 151.103C367.015 151.864 366.039 152.244 364.806 152.244C363.619 152.244 362.665 151.889 361.946 151.18C361.227 150.466 360.839 149.5 360.782 148.282L360.774 147.843ZM363.372 148.004C363.372 148.775 363.493 149.341 363.734 149.7C363.976 150.06 364.333 150.24 364.806 150.24C365.731 150.24 366.204 149.528 366.224 148.105V147.843C366.224 146.347 365.746 145.599 364.79 145.599C363.922 145.599 363.452 146.244 363.38 147.534L363.372 148.004ZM369.639 147.858C369.639 146.537 369.924 145.497 370.495 144.736C371.065 143.976 371.861 143.595 372.884 143.595C373.629 143.595 374.256 143.888 374.765 144.474V140.25H377.37V152.09H375.035L374.904 151.196C374.369 151.895 373.691 152.244 372.869 152.244C371.877 152.244 371.091 151.864 370.51 151.103C369.929 150.343 369.639 149.261 369.639 147.858ZM372.237 148.02C372.237 149.5 372.668 150.24 373.532 150.24C374.107 150.24 374.518 149.998 374.765 149.515V146.339C374.529 145.846 374.123 145.599 373.547 145.599C372.745 145.599 372.311 146.247 372.244 147.542L372.237 148.02ZM382.882 152.244C381.602 152.244 380.567 151.864 379.775 151.103C378.984 150.337 378.588 149.343 378.588 148.12V147.904C378.588 147.051 378.745 146.298 379.058 145.646C379.377 144.993 379.84 144.489 380.446 144.135C381.052 143.775 381.772 143.595 382.604 143.595C383.776 143.595 384.701 143.96 385.379 144.69C386.058 145.414 386.397 146.427 386.397 147.727V148.737H381.232C381.325 149.204 381.528 149.572 381.841 149.839C382.155 150.106 382.561 150.24 383.059 150.24C383.881 150.24 384.524 149.952 384.986 149.377L386.173 150.779C385.85 151.227 385.39 151.584 384.793 151.851C384.202 152.113 383.565 152.244 382.882 152.244ZM382.589 145.599C381.828 145.599 381.376 146.103 381.232 147.11H383.853V146.91C383.863 146.494 383.758 146.172 383.537 145.946C383.316 145.715 383 145.599 382.589 145.599ZM392.494 146.1L391.638 146.039C390.821 146.039 390.297 146.296 390.066 146.81V152.09H387.468V143.749H389.904L389.989 144.821C390.426 144.004 391.035 143.595 391.816 143.595C392.093 143.595 392.335 143.626 392.54 143.688L392.494 146.1ZM395.816 143.749L395.901 144.728C396.477 143.973 397.271 143.595 398.283 143.595C399.152 143.595 399.799 143.855 400.226 144.374C400.657 144.893 400.881 145.674 400.896 146.717V152.09H398.291V146.825C398.291 146.404 398.206 146.095 398.036 145.9C397.867 145.7 397.558 145.599 397.111 145.599C396.603 145.599 396.225 145.8 395.978 146.201V152.09H393.381V143.749H395.816ZM405.082 152.09H402.476V143.749H405.082V152.09ZM402.322 141.599C402.322 141.229 402.456 140.926 402.723 140.689C402.99 140.453 403.337 140.335 403.764 140.335C404.19 140.335 404.537 140.453 404.804 140.689C405.072 140.926 405.205 141.229 405.205 141.599C405.205 141.969 405.072 142.272 404.804 142.508C404.537 142.745 404.19 142.863 403.764 142.863C403.337 142.863 402.99 142.745 402.723 142.508C402.456 142.272 402.322 141.969 402.322 141.599ZM409.753 150.086H413.553V152.09H406.469V150.641L410.169 145.754H406.631V143.749H413.468V145.152L409.753 150.086ZM418.726 152.244C417.446 152.244 416.41 151.864 415.619 151.103C414.828 150.337 414.432 149.343 414.432 148.12V147.904C414.432 147.051 414.589 146.298 414.902 145.646C415.221 144.993 415.683 144.489 416.29 144.135C416.896 143.775 417.616 143.595 418.448 143.595C419.62 143.595 420.545 143.96 421.223 144.69C421.901 145.414 422.241 146.427 422.241 147.727V148.737H417.076C417.168 149.204 417.371 149.572 417.685 149.839C417.998 150.106 418.404 150.24 418.903 150.24C419.725 150.24 420.367 149.952 420.83 149.377L422.017 150.779C421.693 151.227 421.233 151.584 420.637 151.851C420.046 152.113 419.409 152.244 418.726 152.244ZM418.433 145.599C417.672 145.599 417.22 146.103 417.076 147.11H419.697V146.91C419.707 146.494 419.602 146.172 419.381 145.946C419.16 145.715 418.844 145.599 418.433 145.599Z" fill="black"/>
<path d="M433.471 123.816L456.036 146.381L433.471 168.946" stroke="#FF0000" stroke-width="11.84"/>
<rect x="327.566" y="108.172" width="148.096" height="77.2405" rx="4.97836" stroke="#E7EAEE" stroke-width="0.567725"/>
<path d="M485.178 229.803L486.639 234.358L488.096 229.803H490.174V236.35H488.591V234.821L488.744 231.691L487.161 236.35H486.118L484.531 231.687L484.683 234.821V236.35H483.105V229.803H485.178ZM492.71 236.35H491.19V231.484H492.71V236.35ZM491.1 230.23C491.1 230.014 491.178 229.837 491.334 229.699C491.49 229.561 491.692 229.492 491.941 229.492C492.19 229.492 492.392 229.561 492.548 229.699C492.704 229.837 492.782 230.014 492.782 230.23C492.782 230.446 492.704 230.623 492.548 230.76C492.392 230.898 492.19 230.967 491.941 230.967C491.692 230.967 491.49 230.898 491.334 230.76C491.178 230.623 491.1 230.446 491.1 230.23ZM495.704 235.27C495.917 235.27 496.082 235.213 496.199 235.1C496.316 234.983 496.373 234.821 496.37 234.614H497.791C497.791 235.148 497.599 235.585 497.215 235.927C496.835 236.269 496.343 236.44 495.74 236.44C495.033 236.44 494.475 236.218 494.068 235.774C493.66 235.33 493.456 234.716 493.456 233.93V233.868C493.456 233.376 493.546 232.943 493.726 232.568C493.909 232.19 494.171 231.901 494.513 231.7C494.855 231.496 495.259 231.394 495.727 231.394C496.359 231.394 496.861 231.57 497.233 231.921C497.605 232.271 497.791 232.746 497.791 233.346H496.37C496.37 233.094 496.308 232.901 496.186 232.766C496.063 232.631 495.898 232.564 495.691 232.564C495.298 232.564 495.069 232.814 495.003 233.314C494.982 233.473 494.971 233.692 494.971 233.971C494.971 234.46 495.03 234.798 495.147 234.987C495.264 235.176 495.45 235.27 495.704 235.27ZM501.375 232.856L500.875 232.82C500.399 232.82 500.093 232.97 499.958 233.269V236.35H498.443V231.484H499.864L499.913 232.109C500.168 231.633 500.523 231.394 500.979 231.394C501.141 231.394 501.282 231.412 501.401 231.448L501.375 232.856ZM501.568 233.872C501.568 233.386 501.662 232.955 501.851 232.577C502.04 232.196 502.311 231.904 502.665 231.7C503.019 231.496 503.434 231.394 503.911 231.394C504.639 231.394 505.213 231.621 505.633 232.073C506.052 232.523 506.262 233.136 506.262 233.912V233.966C506.262 234.725 506.051 235.327 505.628 235.774C505.209 236.218 504.639 236.44 503.92 236.44C503.227 236.44 502.671 236.233 502.251 235.819C501.832 235.402 501.605 234.839 501.572 234.128L501.568 233.872ZM503.083 233.966C503.083 234.416 503.154 234.746 503.295 234.956C503.435 235.166 503.644 235.27 503.92 235.27C504.459 235.27 504.735 234.855 504.747 234.025V233.872C504.747 233 504.468 232.564 503.911 232.564C503.404 232.564 503.13 232.94 503.088 233.692L503.083 233.966ZM512.67 234.609C512.67 234.379 512.587 234.199 512.422 234.07C512.261 233.941 511.974 233.808 511.564 233.67C511.153 233.532 510.817 233.398 510.556 233.269C509.708 232.853 509.284 232.28 509.284 231.552C509.284 231.189 509.389 230.87 509.599 230.594C509.812 230.315 510.111 230.099 510.498 229.947C510.885 229.791 511.319 229.713 511.802 229.713C512.273 229.713 512.694 229.797 513.065 229.965C513.44 230.132 513.731 230.372 513.938 230.684C514.145 230.993 514.248 231.346 514.248 231.745H512.674C512.674 231.478 512.592 231.272 512.427 231.125C512.265 230.978 512.045 230.904 511.766 230.904C511.484 230.904 511.261 230.967 511.096 231.093C510.934 231.216 510.853 231.373 510.853 231.565C510.853 231.733 510.943 231.886 511.123 232.024C511.303 232.159 511.619 232.3 512.072 232.447C512.524 232.591 512.896 232.746 513.187 232.914C513.894 233.322 514.248 233.884 514.248 234.6C514.248 235.173 514.032 235.623 513.601 235.949C513.169 236.276 512.577 236.44 511.824 236.44C511.294 236.44 510.813 236.345 510.381 236.156C509.952 235.964 509.629 235.704 509.41 235.374C509.194 235.041 509.086 234.659 509.086 234.227H510.669C510.669 234.578 510.759 234.837 510.939 235.005C511.121 235.17 511.417 235.252 511.824 235.252C512.085 235.252 512.291 235.197 512.44 235.086C512.593 234.972 512.67 234.813 512.67 234.609ZM517.342 236.44C516.595 236.44 515.991 236.218 515.53 235.774C515.068 235.327 514.837 234.747 514.837 234.034V233.908C514.837 233.41 514.929 232.971 515.111 232.591C515.297 232.21 515.567 231.916 515.921 231.709C516.275 231.499 516.694 231.394 517.18 231.394C517.863 231.394 518.403 231.607 518.799 232.033C519.194 232.456 519.392 233.046 519.392 233.805V234.394H516.379C516.433 234.666 516.552 234.881 516.735 235.037C516.918 235.193 517.154 235.27 517.445 235.27C517.925 235.27 518.299 235.103 518.569 234.767L519.262 235.585C519.073 235.846 518.805 236.054 518.457 236.21C518.112 236.363 517.74 236.44 517.342 236.44ZM517.171 232.564C516.727 232.564 516.463 232.857 516.379 233.445H517.908V233.328C517.914 233.085 517.853 232.898 517.724 232.766C517.595 232.631 517.411 232.564 517.171 232.564ZM522.949 232.856L522.45 232.82C521.973 232.82 521.667 232.97 521.532 233.269V236.35H520.017V231.484H521.438L521.487 232.109C521.742 231.633 522.098 231.394 522.553 231.394C522.715 231.394 522.856 231.412 522.976 231.448L522.949 232.856ZM525.516 234.547L526.285 231.484H527.882L526.294 236.35H524.747L523.16 231.484H524.761L525.516 234.547ZM529.932 236.35H528.412V231.484H529.932V236.35ZM528.322 230.23C528.322 230.014 528.4 229.837 528.556 229.699C528.712 229.561 528.914 229.492 529.163 229.492C529.412 229.492 529.614 229.561 529.77 229.699C529.926 229.837 530.004 230.014 530.004 230.23C530.004 230.446 529.926 230.623 529.77 230.76C529.614 230.898 529.412 230.967 529.163 230.967C528.914 230.967 528.712 230.898 528.556 230.76C528.4 230.623 528.322 230.446 528.322 230.23ZM532.927 235.27C533.139 235.27 533.304 235.213 533.421 235.1C533.538 234.983 533.595 234.821 533.592 234.614H535.013C535.013 235.148 534.821 235.585 534.437 235.927C534.057 236.269 533.565 236.44 532.963 236.44C532.255 236.44 531.698 236.218 531.29 235.774C530.882 235.33 530.678 234.716 530.678 233.93V233.868C530.678 233.376 530.768 232.943 530.948 232.568C531.131 232.19 531.393 231.901 531.735 231.7C532.077 231.496 532.481 231.394 532.949 231.394C533.582 231.394 534.084 231.57 534.455 231.921C534.827 232.271 535.013 232.746 535.013 233.346H533.592C533.592 233.094 533.531 232.901 533.408 232.766C533.285 232.631 533.12 232.564 532.913 232.564C532.52 232.564 532.291 232.814 532.225 233.314C532.204 233.473 532.194 233.692 532.194 233.971C532.194 234.46 532.252 234.798 532.369 234.987C532.486 235.176 532.672 235.27 532.927 235.27ZM538.008 236.44C537.261 236.44 536.657 236.218 536.196 235.774C535.734 235.327 535.503 234.747 535.503 234.034V233.908C535.503 233.41 535.595 232.971 535.777 232.591C535.963 232.21 536.233 231.916 536.587 231.709C536.941 231.499 537.36 231.394 537.846 231.394C538.529 231.394 539.069 231.607 539.465 232.033C539.86 232.456 540.058 233.046 540.058 233.805V234.394H537.045C537.099 234.666 537.218 234.881 537.401 235.037C537.584 235.193 537.82 235.27 538.111 235.27C538.591 235.27 538.965 235.103 539.235 234.767L539.928 235.585C539.739 235.846 539.471 236.054 539.123 236.21C538.778 236.363 538.406 236.44 538.008 236.44ZM537.837 232.564C537.393 232.564 537.129 232.857 537.045 233.445H538.574V233.328C538.58 233.085 538.519 232.898 538.39 232.766C538.261 232.631 538.077 232.564 537.837 232.564ZM543.219 234.983C543.219 234.854 543.152 234.75 543.017 234.672C542.882 234.594 542.626 234.514 542.248 234.43C541.87 234.346 541.558 234.236 541.313 234.101C541.067 233.963 540.88 233.797 540.751 233.602C540.622 233.407 540.557 233.184 540.557 232.932C540.557 232.486 540.742 232.118 541.11 231.831C541.479 231.54 541.962 231.394 542.558 231.394C543.2 231.394 543.715 231.54 544.105 231.831C544.495 232.121 544.69 232.504 544.69 232.977H543.17C543.17 232.588 542.964 232.393 542.554 232.393C542.395 232.393 542.261 232.438 542.154 232.528C542.046 232.614 541.992 232.724 541.992 232.856C541.992 232.991 542.058 233.1 542.189 233.184C542.321 233.268 542.531 233.337 542.819 233.391C543.11 233.445 543.365 233.509 543.583 233.584C544.315 233.836 544.681 234.287 544.681 234.938C544.681 235.381 544.483 235.743 544.087 236.021C543.694 236.3 543.185 236.44 542.558 236.44C542.142 236.44 541.77 236.365 541.443 236.215C541.116 236.065 540.862 235.861 540.679 235.603C540.496 235.345 540.404 235.074 540.404 234.789H541.821C541.827 235.014 541.902 235.179 542.046 235.284C542.189 235.386 542.374 235.437 542.599 235.437C542.806 235.437 542.96 235.395 543.062 235.311C543.167 235.227 543.219 235.118 543.219 234.983Z" fill="black"/>
<path d="M802.294 237.451C802.273 237.907 802.15 238.31 801.925 238.661C801.7 239.008 801.384 239.278 800.976 239.47C800.572 239.662 800.108 239.758 799.587 239.758C798.726 239.758 798.049 239.478 797.554 238.917C797.06 238.356 796.812 237.565 796.812 236.543V236.219C796.812 235.578 796.923 235.017 797.145 234.537C797.37 234.055 797.692 233.683 798.112 233.422C798.532 233.158 799.017 233.027 799.569 233.027C800.363 233.027 801.002 233.236 801.484 233.656C801.967 234.073 802.241 234.648 802.307 235.383H800.733C800.721 234.984 800.621 234.698 800.432 234.524C800.243 234.35 799.956 234.263 799.569 234.263C799.176 234.263 798.888 234.41 798.705 234.704C798.523 234.998 798.427 235.467 798.418 236.111V236.574C798.418 237.273 798.505 237.772 798.679 238.072C798.855 238.371 799.158 238.521 799.587 238.521C799.95 238.521 800.227 238.436 800.419 238.265C800.611 238.094 800.712 237.823 800.724 237.451H802.294ZM802.779 237.19C802.779 236.705 802.874 236.273 803.063 235.895C803.251 235.515 803.523 235.222 803.877 235.019C804.23 234.815 804.645 234.713 805.122 234.713C805.85 234.713 806.425 234.939 806.844 235.392C807.264 235.841 807.474 236.454 807.474 237.231V237.285C807.474 238.043 807.262 238.646 806.84 239.092C806.42 239.536 805.85 239.758 805.131 239.758C804.439 239.758 803.882 239.551 803.463 239.137C803.043 238.721 802.817 238.157 802.784 237.447L802.779 237.19ZM804.295 237.285C804.295 237.734 804.365 238.064 804.506 238.274C804.647 238.484 804.855 238.589 805.131 238.589C805.671 238.589 805.946 238.174 805.958 237.343V237.19C805.958 236.318 805.68 235.882 805.122 235.882C804.615 235.882 804.341 236.258 804.299 237.011L804.295 237.285ZM809.533 234.803L809.583 235.374C809.918 234.933 810.381 234.713 810.972 234.713C811.479 234.713 811.856 234.864 812.105 235.167C812.357 235.47 812.487 235.925 812.496 236.534V239.668H810.977V236.597C810.977 236.351 810.927 236.171 810.828 236.057C810.729 235.94 810.549 235.882 810.289 235.882C809.992 235.882 809.771 235.999 809.628 236.233V239.668H808.112V234.803H809.533ZM815.104 233.593V234.803H815.905V235.855H815.104V238.081C815.104 238.264 815.137 238.391 815.203 238.463C815.269 238.535 815.4 238.571 815.594 238.571C815.744 238.571 815.87 238.562 815.972 238.544V239.627C815.699 239.714 815.415 239.758 815.118 239.758C814.596 239.758 814.211 239.635 813.962 239.389C813.713 239.143 813.589 238.77 813.589 238.27V235.855H812.968V234.803H813.589V233.593H815.104ZM818.859 239.758C818.113 239.758 817.508 239.536 817.047 239.092C816.585 238.646 816.354 238.066 816.354 237.352V237.226C816.354 236.729 816.446 236.29 816.629 235.909C816.815 235.528 817.084 235.234 817.438 235.028C817.792 234.818 818.211 234.713 818.697 234.713C819.381 234.713 819.92 234.926 820.316 235.351C820.712 235.774 820.909 236.365 820.909 237.123V237.712H817.897C817.951 237.985 818.069 238.199 818.252 238.355C818.435 238.511 818.672 238.589 818.962 238.589C819.442 238.589 819.817 238.421 820.086 238.085L820.779 238.904C820.59 239.164 820.322 239.373 819.974 239.529C819.629 239.681 819.258 239.758 818.859 239.758ZM818.688 235.882C818.244 235.882 817.981 236.176 817.897 236.763H819.425V236.646C819.431 236.403 819.37 236.216 819.241 236.084C819.112 235.949 818.928 235.882 818.688 235.882ZM823.122 239.668H821.602V234.803H823.122V239.668ZM821.512 233.548C821.512 233.332 821.59 233.155 821.746 233.018C821.902 232.88 822.104 232.811 822.353 232.811C822.602 232.811 822.804 232.88 822.96 233.018C823.116 233.155 823.194 233.332 823.194 233.548C823.194 233.764 823.116 233.941 822.96 234.079C822.804 234.217 822.602 234.286 822.353 234.286C822.104 234.286 821.902 234.217 821.746 234.079C821.59 233.941 821.512 233.764 821.512 233.548ZM825.451 234.803L825.5 235.374C825.836 234.933 826.299 234.713 826.89 234.713C827.396 234.713 827.774 234.864 828.023 235.167C828.275 235.47 828.405 235.925 828.414 236.534V239.668H826.894V236.597C826.894 236.351 826.845 236.171 826.746 236.057C826.647 235.94 826.467 235.882 826.206 235.882C825.909 235.882 825.689 235.999 825.545 236.233V239.668H824.03V234.803H825.451ZM831.611 239.758C830.865 239.758 830.261 239.536 829.799 239.092C829.337 238.646 829.107 238.066 829.107 237.352V237.226C829.107 236.729 829.198 236.29 829.381 235.909C829.567 235.528 829.836 235.234 830.19 235.028C830.544 234.818 830.964 234.713 831.449 234.713C832.133 234.713 832.672 234.926 833.068 235.351C833.464 235.774 833.662 236.365 833.662 237.123V237.712H830.649C830.703 237.985 830.821 238.199 831.004 238.355C831.187 238.511 831.424 238.589 831.715 238.589C832.194 238.589 832.569 238.421 832.839 238.085L833.531 238.904C833.342 239.164 833.074 239.373 832.726 239.529C832.381 239.681 832.01 239.758 831.611 239.758ZM831.44 235.882C830.997 235.882 830.733 236.176 830.649 236.763H832.178V236.646C832.184 236.403 832.122 236.216 831.993 236.084C831.864 235.949 831.68 235.882 831.44 235.882ZM837.218 236.174L836.719 236.138C836.243 236.138 835.937 236.288 835.802 236.588V239.668H834.287V234.803H835.707L835.757 235.428C836.012 234.951 836.367 234.713 836.823 234.713C836.984 234.713 837.125 234.731 837.245 234.767L837.218 236.174ZM840.312 238.301C840.312 238.172 840.244 238.069 840.11 237.991C839.975 237.913 839.718 237.832 839.341 237.748C838.963 237.664 838.651 237.555 838.405 237.42C838.16 237.282 837.972 237.115 837.843 236.921C837.714 236.726 837.65 236.502 837.65 236.251C837.65 235.804 837.834 235.437 838.203 235.149C838.572 234.858 839.054 234.713 839.651 234.713C840.292 234.713 840.808 234.858 841.198 235.149C841.587 235.44 841.782 235.822 841.782 236.296H840.262C840.262 235.906 840.057 235.711 839.646 235.711C839.488 235.711 839.354 235.756 839.246 235.846C839.138 235.933 839.084 236.042 839.084 236.174C839.084 236.309 839.15 236.418 839.282 236.502C839.414 236.586 839.624 236.655 839.912 236.709C840.202 236.763 840.457 236.828 840.676 236.903C841.408 237.154 841.773 237.606 841.773 238.256C841.773 238.7 841.575 239.061 841.18 239.34C840.787 239.619 840.277 239.758 839.651 239.758C839.234 239.758 838.862 239.683 838.536 239.533C838.209 239.383 837.954 239.179 837.771 238.922C837.588 238.664 837.497 238.392 837.497 238.108H838.913C838.919 238.332 838.994 238.497 839.138 238.602C839.282 238.704 839.467 238.755 839.691 238.755C839.898 238.755 840.053 238.713 840.154 238.629C840.259 238.545 840.312 238.436 840.312 238.301Z" fill="black"/>
<path d="M800.374 84.6182C800.374 84.3874 800.291 84.2076 800.126 84.0787C799.965 83.9498 799.678 83.8164 799.268 83.6785C798.857 83.5406 798.521 83.4072 798.26 83.2783C797.412 82.8616 796.988 82.289 796.988 81.5606C796.988 81.1979 797.093 80.8786 797.303 80.6028C797.515 80.3241 797.815 80.1082 798.202 79.9553C798.589 79.7995 799.023 79.7215 799.506 79.7215C799.977 79.7215 800.398 79.8055 800.769 79.9733C801.144 80.1412 801.435 80.381 801.642 80.6928C801.849 81.0015 801.952 81.3553 801.952 81.754H800.378C800.378 81.4872 800.296 81.2803 800.131 81.1334C799.969 80.9865 799.749 80.9131 799.47 80.9131C799.188 80.9131 798.965 80.9761 798.8 81.102C798.638 81.2249 798.557 81.3822 798.557 81.5741C798.557 81.742 798.647 81.8948 798.827 82.0327C799.007 82.1676 799.323 82.3085 799.776 82.4554C800.228 82.5993 800.6 82.7552 800.891 82.9231C801.598 83.3307 801.952 83.8928 801.952 84.6092C801.952 85.1818 801.736 85.6315 801.304 85.9582C800.873 86.285 800.281 86.4483 799.528 86.4483C798.998 86.4483 798.517 86.3539 798.085 86.165C797.656 85.9732 797.333 85.7124 797.114 85.3827C796.898 85.0499 796.79 84.6677 796.79 84.236H798.373C798.373 84.5868 798.463 84.8461 798.643 85.0139C798.825 85.1788 799.121 85.2612 799.528 85.2612C799.789 85.2612 799.995 85.2058 800.144 85.0949C800.297 84.981 800.374 84.8221 800.374 84.6182ZM805.046 86.4483C804.299 86.4483 803.695 86.2265 803.233 85.7828C802.772 85.3362 802.541 84.7561 802.541 84.0427V83.9168C802.541 83.4192 802.632 82.98 802.815 82.5993C803.001 82.2186 803.271 81.9248 803.625 81.718C803.978 81.5081 804.398 81.4032 804.884 81.4032C805.567 81.4032 806.107 81.6161 806.502 82.0417C806.898 82.4644 807.096 83.0549 807.096 83.8134V84.4024H804.083C804.137 84.6752 804.256 84.8895 804.439 85.0454C804.621 85.2013 804.858 85.2792 805.149 85.2792C805.629 85.2792 806.003 85.1114 806.273 84.7756L806.966 85.594C806.777 85.8548 806.508 86.0631 806.161 86.219C805.816 86.3719 805.444 86.4483 805.046 86.4483ZM804.875 82.5723C804.431 82.5723 804.167 82.8661 804.083 83.4536H805.612V83.3367C805.618 83.0939 805.557 82.9066 805.428 82.7747C805.299 82.6398 805.115 82.5723 804.875 82.5723ZM810.653 82.8646L810.154 82.8286C809.677 82.8286 809.371 82.9785 809.236 83.2783V86.3584H807.721V81.4932H809.142L809.191 82.1182C809.446 81.6415 809.801 81.4032 810.257 81.4032C810.419 81.4032 810.56 81.4212 810.68 81.4572L810.653 82.8646ZM813.22 84.5553L813.989 81.4932H815.585L813.998 86.3584H812.451L810.864 81.4932H812.465L813.22 84.5553ZM818.328 86.4483C817.582 86.4483 816.978 86.2265 816.516 85.7828C816.055 85.3362 815.824 84.7561 815.824 84.0427V83.9168C815.824 83.4192 815.915 82.98 816.098 82.5993C816.284 82.2186 816.554 81.9248 816.907 81.718C817.261 81.5081 817.681 81.4032 818.166 81.4032C818.85 81.4032 819.39 81.6161 819.785 82.0417C820.181 82.4644 820.379 83.0549 820.379 83.8134V84.4024H817.366C817.42 84.6752 817.538 84.8895 817.721 85.0454C817.904 85.2013 818.141 85.2792 818.432 85.2792C818.911 85.2792 819.286 85.1114 819.556 84.7756L820.248 85.594C820.06 85.8548 819.791 86.0631 819.443 86.219C819.099 86.3719 818.727 86.4483 818.328 86.4483ZM818.157 82.5723C817.714 82.5723 817.45 82.8661 817.366 83.4536H818.895V83.3367C818.901 83.0939 818.839 82.9066 818.711 82.7747C818.582 82.6398 818.397 82.5723 818.157 82.5723ZM823.936 82.8646L823.436 82.8286C822.96 82.8286 822.654 82.9785 822.519 83.2783V86.3584H821.004V81.4932H822.425L822.474 82.1182C822.729 81.6415 823.084 81.4032 823.54 81.4032C823.702 81.4032 823.843 81.4212 823.962 81.4572L823.936 82.8646ZM826.08 86.3584H824.561V79.4517H826.08V86.3584ZM829.372 86.4483C828.625 86.4483 828.021 86.2265 827.56 85.7828C827.098 85.3362 826.867 84.7561 826.867 84.0427V83.9168C826.867 83.4192 826.959 82.98 827.142 82.5993C827.327 82.2186 827.597 81.9248 827.951 81.718C828.305 81.5081 828.724 81.4032 829.21 81.4032C829.893 81.4032 830.433 81.6161 830.829 82.0417C831.224 82.4644 831.422 83.0549 831.422 83.8134V84.4024H828.41C828.464 84.6752 828.582 84.8895 828.765 85.0454C828.948 85.2013 829.184 85.2792 829.475 85.2792C829.955 85.2792 830.33 85.1114 830.599 84.7756L831.292 85.594C831.103 85.8548 830.835 86.0631 830.487 86.219C830.142 86.3719 829.771 86.4483 829.372 86.4483ZM829.201 82.5723C828.757 82.5723 828.493 82.8661 828.41 83.4536H829.938V83.3367C829.944 83.0939 829.883 82.9066 829.754 82.7747C829.625 82.6398 829.441 82.5723 829.201 82.5723ZM834.583 84.9915C834.583 84.8626 834.516 84.7591 834.381 84.6812C834.246 84.6033 833.99 84.5223 833.612 84.4384C833.234 84.3544 832.923 84.245 832.677 84.1101C832.431 83.9722 832.244 83.8059 832.115 83.611C831.986 83.4162 831.921 83.1928 831.921 82.941C831.921 82.4944 832.106 82.1272 832.474 81.8394C832.843 81.5486 833.326 81.4032 833.922 81.4032C834.564 81.4032 835.079 81.5486 835.469 81.8394C835.859 82.1302 836.054 82.5124 836.054 82.986H834.534C834.534 82.5963 834.328 82.4015 833.918 82.4015C833.759 82.4015 833.626 82.4464 833.518 82.5363C833.41 82.6233 833.356 82.7327 833.356 82.8646C833.356 82.9995 833.422 83.1089 833.554 83.1928C833.685 83.2768 833.895 83.3457 834.183 83.3997C834.474 83.4536 834.729 83.5181 834.948 83.593C835.679 83.8448 836.045 84.296 836.045 84.9465C836.045 85.3901 835.847 85.7514 835.451 86.0302C835.058 86.3089 834.549 86.4483 833.922 86.4483C833.506 86.4483 833.134 86.3734 832.807 86.2235C832.48 86.0736 832.226 85.8698 832.043 85.612C831.86 85.3542 831.768 85.0829 831.768 84.7981H833.185C833.191 85.0229 833.266 85.1878 833.41 85.2927C833.554 85.3946 833.738 85.4456 833.963 85.4456C834.17 85.4456 834.324 85.4036 834.426 85.3197C834.531 85.2358 834.583 85.1263 834.583 84.9915ZM839.305 84.9915C839.305 84.8626 839.237 84.7591 839.102 84.6812C838.967 84.6033 838.711 84.5223 838.333 84.4384C837.956 84.3544 837.644 84.245 837.398 84.1101C837.152 83.9722 836.965 83.8059 836.836 83.611C836.707 83.4162 836.643 83.1928 836.643 82.941C836.643 82.4944 836.827 82.1272 837.196 81.8394C837.564 81.5486 838.047 81.4032 838.644 81.4032C839.285 81.4032 839.801 81.5486 840.19 81.8394C840.58 82.1302 840.775 82.5124 840.775 82.986H839.255C839.255 82.5963 839.05 82.4015 838.639 82.4015C838.48 82.4015 838.347 82.4464 838.239 82.5363C838.131 82.6233 838.077 82.7327 838.077 82.8646C838.077 82.9995 838.143 83.1089 838.275 83.1928C838.407 83.2768 838.617 83.3457 838.904 83.3997C839.195 83.4536 839.45 83.5181 839.669 83.593C840.4 83.8448 840.766 84.296 840.766 84.9465C840.766 85.3901 840.568 85.7514 840.172 86.0302C839.78 86.3089 839.27 86.4483 838.644 86.4483C838.227 86.4483 837.855 86.3734 837.529 86.2235C837.202 86.0736 836.947 85.8698 836.764 85.612C836.581 85.3542 836.49 85.0829 836.49 84.7981H837.906C837.912 85.0229 837.987 85.1878 838.131 85.2927C838.275 85.3946 838.459 85.4456 838.684 85.4456C838.891 85.4456 839.045 85.4036 839.147 85.3197C839.252 85.2358 839.305 85.1263 839.305 84.9915Z" fill="black"/>
<path d="M514.192 86.3584V79.8115H516.301C516.88 79.8115 517.4 79.9434 517.862 80.2071C518.323 80.4679 518.683 80.8382 518.941 81.3178C519.202 81.7944 519.334 82.3295 519.337 82.9231V83.2243C519.337 83.8239 519.209 84.3619 518.954 84.8386C518.703 85.3122 518.346 85.6839 517.884 85.9537C517.425 86.2205 516.913 86.3554 516.346 86.3584H514.192ZM515.771 81.03V85.1443H516.319C516.772 85.1443 517.12 84.984 517.363 84.6632C517.605 84.3395 517.727 83.8598 517.727 83.2243V82.941C517.727 82.3085 517.605 81.8319 517.363 81.5111C517.12 81.1904 516.766 81.03 516.301 81.03H515.771ZM522.43 86.4483C521.684 86.4483 521.08 86.2265 520.618 85.7828C520.156 85.3362 519.926 84.7561 519.926 84.0427V83.9168C519.926 83.4192 520.017 82.98 520.2 82.5993C520.386 82.2186 520.656 81.9248 521.009 81.718C521.363 81.5081 521.783 81.4032 522.268 81.4032C522.952 81.4032 523.491 81.6161 523.887 82.0417C524.283 82.4644 524.481 83.0549 524.481 83.8134V84.4024H521.468C521.522 84.6752 521.64 84.8895 521.823 85.0454C522.006 85.2013 522.243 85.2792 522.534 85.2792C523.013 85.2792 523.388 85.1114 523.658 84.7756L524.35 85.594C524.161 85.8548 523.893 86.0631 523.545 86.219C523.201 86.3719 522.829 86.4483 522.43 86.4483ZM522.259 82.5723C521.816 82.5723 521.552 82.8661 521.468 83.4536H522.997V83.3367C523.003 83.0939 522.941 82.9066 522.812 82.7747C522.683 82.6398 522.499 82.5723 522.259 82.5723ZM526.972 84.5553L527.741 81.4932H529.337L527.75 86.3584H526.203L524.615 81.4932H526.216L526.972 84.5553ZM535.403 83.2198C535.403 83.8583 535.284 84.4234 535.047 84.915C534.811 85.4066 534.473 85.7858 534.036 86.0526C533.601 86.3164 533.105 86.4483 532.547 86.4483C531.99 86.4483 531.495 86.3209 531.063 86.0661C530.632 85.8083 530.295 85.4411 530.052 84.9645C529.812 84.4878 529.686 83.9408 529.674 83.3232V82.9545C529.674 82.313 529.791 81.748 530.025 81.2593C530.262 80.7677 530.599 80.3885 531.036 80.1217C531.477 79.8549 531.978 79.7215 532.538 79.7215C533.093 79.7215 533.588 79.8534 534.022 80.1172C534.457 80.381 534.794 80.7572 535.034 81.2458C535.277 81.7315 535.4 82.289 535.403 82.9186V83.2198ZM533.797 82.9455C533.797 82.295 533.688 81.8019 533.469 81.4662C533.253 81.1274 532.943 80.9581 532.538 80.9581C531.747 80.9581 531.329 81.5516 531.284 82.7387L531.279 83.2198C531.279 83.8613 531.386 84.3544 531.599 84.6992C531.811 85.0439 532.128 85.2163 532.547 85.2163C532.946 85.2163 533.253 85.0469 533.469 84.7082C533.685 84.3694 533.794 83.8823 533.797 83.2468V82.9455ZM540.664 83.9617C540.664 84.7172 540.493 85.3212 540.151 85.7738C539.812 86.2235 539.354 86.4483 538.775 86.4483C538.328 86.4483 537.961 86.285 537.673 85.9582V88.229H536.158V81.4932H537.574L537.619 81.9428C537.91 81.5831 538.292 81.4032 538.766 81.4032C539.366 81.4032 539.832 81.6251 540.164 82.0687C540.497 82.5094 540.664 83.1164 540.664 83.8898V83.9617ZM539.148 83.8673C539.148 83.004 538.896 82.5723 538.393 82.5723C538.033 82.5723 537.793 82.7012 537.673 82.959V84.8745C537.805 85.1443 538.048 85.2792 538.402 85.2792C538.884 85.2792 539.133 84.8626 539.148 84.0292V83.8673ZM543.883 84.9915C543.883 84.8626 543.816 84.7591 543.681 84.6812C543.546 84.6033 543.29 84.5223 542.912 84.4384C542.534 84.3544 542.222 84.245 541.977 84.1101C541.731 83.9722 541.543 83.8059 541.414 83.611C541.286 83.4162 541.221 83.1928 541.221 82.941C541.221 82.4944 541.405 82.1272 541.774 81.8394C542.143 81.5486 542.626 81.4032 543.222 81.4032C543.864 81.4032 544.379 81.5486 544.769 81.8394C545.159 82.1302 545.353 82.5124 545.353 82.986H543.834C543.834 82.5963 543.628 82.4015 543.218 82.4015C543.059 82.4015 542.925 82.4464 542.817 82.5363C542.709 82.6233 542.656 82.7327 542.656 82.8646C542.656 82.9995 542.721 83.1089 542.853 83.1928C542.985 83.2768 543.195 83.3457 543.483 83.3997C543.774 83.4536 544.028 83.5181 544.247 83.593C544.979 83.8448 545.344 84.296 545.344 84.9465C545.344 85.3901 545.147 85.7514 544.751 86.0302C544.358 86.3089 543.849 86.4483 543.222 86.4483C542.805 86.4483 542.434 86.3734 542.107 86.2235C541.78 86.0736 541.525 85.8698 541.343 85.612C541.16 85.3542 541.068 85.0829 541.068 84.7981H542.485C542.491 85.0229 542.566 85.1878 542.709 85.2927C542.853 85.3946 543.038 85.4456 543.263 85.4456C543.469 85.4456 543.624 85.4036 543.726 85.3197C543.831 85.2358 543.883 85.1263 543.883 84.9915Z" fill="black"/>
<circle cx="671.068" cy="157.663" r="117.142" stroke="#EAEEF4" stroke-width="0.657778"/>
<circle cx="671.067" cy="157.664" r="95.9043" stroke="#EAEEF4" stroke-width="0.657778"/>
<circle cx="671.067" cy="157.664" r="106.523" stroke="#FF0000" stroke-width="0.657778" stroke-dasharray="5.26 5.26"/>
<circle cx="596.072" cy="232.66" r="33.9006" fill="#F5F8FA" stroke="#FF0000" stroke-width="11.84"/>
<rect x="582.798" y="219.386" width="26.5471" height="26.5471" rx="1.97333" fill="#F5F6F9"/>
<rect x="590.099" y="226.687" width="11.9462" height="11.9462" rx="1.97333" fill="#333333"/>
<rect x="595.408" y="222.04" width="1.32735" height="1.32735" fill="#323335"/>
<rect x="595.408" y="241.95" width="1.32735" height="1.32735" fill="#323335"/>
<rect x="592.753" y="222.04" width="1.32735" height="1.32735" fill="#323335"/>
<rect x="592.753" y="241.95" width="1.32735" height="1.32735" fill="#323335"/>
<rect x="590.099" y="222.04" width="1.32735" height="1.32735" fill="#323335"/>
<rect x="590.099" y="241.95" width="1.32735" height="1.32735" fill="#323335"/>
<rect x="598.063" y="222.04" width="1.32735" height="1.32735" fill="#323335"/>
<rect x="598.063" y="241.95" width="1.32735" height="1.32735" fill="#323335"/>
<rect x="600.718" y="222.04" width="1.32735" height="1.32735" fill="#323335"/>
<rect x="600.718" y="241.95" width="1.32735" height="1.32735" fill="#323335"/>
<rect x="585.453" y="232.659" width="1.32735" height="1.32735" transform="rotate(-90 585.453 232.659)" fill="#323335"/>
<rect x="605.363" y="232.659" width="1.32735" height="1.32735" transform="rotate(-90 605.363 232.659)" fill="#323335"/>
<rect x="585.453" y="235.313" width="1.32735" height="1.32735" transform="rotate(-90 585.453 235.313)" fill="#323335"/>
<rect x="605.363" y="235.313" width="1.32735" height="1.32735" transform="rotate(-90 605.363 235.313)" fill="#323335"/>
<rect x="585.453" y="237.969" width="1.32735" height="1.32735" transform="rotate(-90 585.453 237.969)" fill="#323335"/>
<rect x="605.363" y="237.969" width="1.32735" height="1.32735" transform="rotate(-90 605.363 237.969)" fill="#323335"/>
<rect x="585.453" y="230.004" width="1.32735" height="1.32735" transform="rotate(-90 585.453 230.004)" fill="#323335"/>
<rect x="605.363" y="230.004" width="1.32735" height="1.32735" transform="rotate(-90 605.363 230.004)" fill="#323335"/>
<rect x="585.453" y="227.35" width="1.32735" height="1.32735" transform="rotate(-90 585.453 227.35)" fill="#323335"/>
<rect x="605.363" y="227.35" width="1.32735" height="1.32735" transform="rotate(-90 605.363 227.35)" fill="#323335"/>
<circle cx="596.072" cy="82.6683" r="33.9006" fill="#F5F8FA" stroke="#FF0000" stroke-width="11.84"/>
<path d="M596.072 69.3945C588.749 69.3945 582.798 75.3454 582.798 82.6681C582.797 82.756 582.813 82.8433 582.846 82.9249C582.879 83.0066 582.928 83.0808 582.989 83.1435C583.051 83.2061 583.125 83.2558 583.206 83.2898C583.287 83.3237 583.374 83.3412 583.462 83.3412C583.55 83.3412 583.637 83.3237 583.718 83.2898C583.799 83.2558 583.873 83.2061 583.935 83.1435C583.996 83.0808 584.045 83.0066 584.078 82.9249C584.111 82.8433 584.127 82.756 584.126 82.6681C584.126 76.0628 589.467 70.7219 596.072 70.7219C600.497 70.7219 604.348 73.127 606.413 76.695H603.372C603.284 76.6937 603.197 76.71 603.116 76.7428C603.034 76.7756 602.96 76.8243 602.897 76.886C602.834 76.9478 602.785 77.0213 602.751 77.1025C602.717 77.1836 602.699 77.2707 602.699 77.3587C602.699 77.4466 602.717 77.5337 602.751 77.6148C602.785 77.696 602.834 77.7696 602.897 77.8313C602.96 77.8931 603.034 77.9417 603.116 77.9745C603.197 78.0073 603.284 78.0236 603.372 78.0223H607.489H608.682V72.7129C608.683 72.6241 608.666 72.536 608.633 72.4537C608.599 72.3715 608.55 72.2968 608.487 72.234C608.424 72.1713 608.349 72.1218 608.267 72.0885C608.185 72.0552 608.097 72.0388 608.008 72.0402C607.832 72.0429 607.664 72.1153 607.542 72.2414C607.419 72.3676 607.352 72.5371 607.354 72.7129V75.6839C605.012 71.9099 600.834 69.3945 596.072 69.3945ZM608.671 81.9953C608.496 81.9981 608.328 82.0705 608.206 82.1966C608.083 82.3227 608.016 82.4923 608.018 82.6681C608.018 89.2733 602.677 94.6143 596.072 94.6143C591.647 94.6143 587.797 92.2089 585.732 88.6412L588.772 88.6425C588.859 88.6437 588.947 88.6275 589.028 88.5947C589.11 88.5619 589.184 88.5132 589.247 88.4514C589.31 88.3897 589.359 88.3161 589.393 88.235C589.427 88.1538 589.445 88.0667 589.445 87.9788C589.445 87.8908 589.427 87.8038 589.393 87.7226C589.359 87.6415 589.31 87.5679 589.247 87.5061C589.184 87.4444 589.11 87.3957 589.028 87.3629C588.947 87.3301 588.859 87.3139 588.772 87.3151L583.462 87.3138V92.6232C583.461 92.7112 583.477 92.7985 583.51 92.8801C583.543 92.9617 583.591 93.036 583.653 93.0986C583.715 93.1613 583.788 93.211 583.87 93.2449C583.951 93.2789 584.038 93.2964 584.126 93.2964C584.214 93.2964 584.301 93.2789 584.382 93.2449C584.463 93.211 584.537 93.1613 584.598 93.0986C584.66 93.036 584.709 92.9617 584.742 92.8801C584.774 92.7985 584.791 92.7112 584.789 92.6232V89.6522C587.132 93.4262 591.31 95.9416 596.072 95.9416C603.395 95.9416 609.345 89.9907 609.345 82.6681C609.347 82.5793 609.33 82.4911 609.297 82.4089C609.263 82.3266 609.214 82.2519 609.151 82.1892C609.088 82.1265 609.013 82.077 608.931 82.0437C608.848 82.0104 608.76 81.9939 608.671 81.9953Z" fill="black"/>
<path d="M595.207 75.3682C595.132 75.3682 595.059 75.3951 595.001 75.444C594.944 75.4928 594.905 75.5606 594.893 75.6351L594.583 77.5322C594.211 77.6406 593.855 77.7868 593.52 77.9689L591.955 76.8509C591.894 76.8071 591.819 76.7865 591.744 76.7926C591.669 76.7988 591.598 76.8313 591.545 76.8845L590.306 78.1226C590.253 78.1756 590.22 78.2456 590.214 78.3203C590.207 78.3949 590.227 78.4694 590.27 78.5308L591.371 80.1062C591.186 80.443 591.037 80.8003 590.926 81.1764L589.037 81.4906C588.963 81.5031 588.895 81.5415 588.847 81.599C588.798 81.6566 588.771 81.7295 588.771 81.8048V83.5569C588.771 83.6318 588.797 83.7043 588.845 83.7618C588.893 83.8192 588.96 83.8579 589.034 83.8711L590.924 84.2059C591.034 84.5813 591.183 84.9388 591.368 85.276L590.253 86.8359C590.21 86.8972 590.189 86.972 590.195 87.047C590.201 87.1221 590.234 87.1926 590.287 87.2459L591.526 88.4853C591.579 88.5382 591.648 88.5708 591.723 88.5774C591.797 88.584 591.872 88.5642 591.933 88.5214L593.512 87.4164C593.848 87.5996 594.204 87.7469 594.578 87.8563L594.893 89.7559C594.905 89.8302 594.944 89.8978 595.001 89.9466C595.059 89.9954 595.132 90.0221 595.207 90.0222H596.959C597.034 90.0223 597.107 89.9959 597.164 89.9478C597.222 89.8997 597.261 89.8328 597.274 89.759L597.611 87.8519C597.984 87.7409 598.338 87.5914 598.672 87.4071L600.261 88.522C600.323 88.5651 600.397 88.5851 600.472 88.5786C600.547 88.5721 600.617 88.5395 600.67 88.4866L601.908 87.2465C601.962 87.193 601.994 87.1223 602 87.047C602.006 86.9716 601.985 86.8966 601.941 86.8353L600.808 85.2623C600.989 84.9299 601.135 84.5775 601.244 84.2077L603.161 83.8717C603.235 83.8587 603.301 83.82 603.35 83.7626C603.398 83.7051 603.424 83.6325 603.424 83.5575V81.8054C603.424 81.7299 603.397 81.6569 603.348 81.5993C603.299 81.5418 603.232 81.5035 603.157 81.4912L601.243 81.1782C601.134 80.8089 600.988 80.4572 600.806 80.1249L601.924 78.5327C601.967 78.4713 601.987 78.3968 601.98 78.3221C601.974 78.2475 601.941 78.1775 601.888 78.1245L600.649 76.8857C600.595 76.8323 600.525 76.7997 600.449 76.7936C600.374 76.7876 600.299 76.8085 600.238 76.8527L598.669 77.9808C598.335 77.7972 597.98 77.6484 597.607 77.5384L597.274 75.632C597.261 75.558 597.222 75.491 597.165 75.4428C597.107 75.3945 597.034 75.3681 596.959 75.3682H595.207ZM596.098 80.7838C597.157 80.7838 598.009 81.6358 598.009 82.6952C598.009 83.7546 597.157 84.6066 596.098 84.6066C595.038 84.6066 594.186 83.7546 594.186 82.6952C594.186 81.6358 595.038 80.7838 596.098 80.7838Z" fill="#333333"/>
<circle cx="746.063" cy="85.9866" r="33.9006" fill="#F5F8FA" stroke="#FF0000" stroke-width="11.84"/>
<path d="M745.579 81.3408C745.538 81.3408 745.498 81.3554 745.467 81.382C745.435 81.4086 745.415 81.4454 745.408 81.4859L745.239 82.5169C745.037 82.5758 744.844 82.6553 744.662 82.7543L743.811 82.1466C743.778 82.1228 743.737 82.1116 743.696 82.115C743.655 82.1183 743.617 82.136 743.588 82.1649L742.915 82.8378C742.886 82.8666 742.868 82.9046 742.864 82.9452C742.861 82.9858 742.872 83.0263 742.895 83.0596L743.494 83.9158C743.393 84.0989 743.312 84.2931 743.252 84.4975L742.225 84.6682C742.185 84.675 742.148 84.6959 742.121 84.7272C742.095 84.7584 742.081 84.798 742.081 84.839V85.7912C742.08 85.8319 742.095 85.8713 742.121 85.9026C742.147 85.9338 742.183 85.9548 742.223 85.962L743.251 86.1439C743.311 86.348 743.391 86.5423 743.492 86.7255L742.886 87.5733C742.862 87.6066 742.851 87.6472 742.854 87.688C742.858 87.7288 742.875 87.7671 742.904 87.7961L743.578 88.4697C743.606 88.4985 743.644 88.5162 743.685 88.5198C743.725 88.5234 743.766 88.5126 743.799 88.4893L744.657 87.8888C744.84 87.9884 745.033 88.0684 745.236 88.1278L745.408 89.1602C745.415 89.2007 745.435 89.2374 745.467 89.2639C745.498 89.2904 745.538 89.3049 745.579 89.3049H746.531C746.572 89.305 746.611 89.2907 746.642 89.2645C746.674 89.2384 746.695 89.202 746.702 89.1619L746.885 88.1255C747.088 88.0651 747.28 87.9839 747.462 87.8837L748.326 88.4897C748.359 88.5131 748.4 88.5239 748.44 88.5204C748.481 88.5169 748.519 88.4992 748.548 88.4704L749.221 87.7965C749.25 87.7674 749.268 87.7289 749.271 87.688C749.274 87.647 749.263 87.6063 749.239 87.5729L748.623 86.7181C748.721 86.5374 748.801 86.3459 748.86 86.1449L749.902 85.9623C749.942 85.9552 749.978 85.9342 750.004 85.903C750.03 85.8718 750.045 85.8323 750.045 85.7916V84.8393C750.045 84.7983 750.03 84.7586 750.003 84.7273C749.977 84.696 749.94 84.6752 749.9 84.6686L748.859 84.4985C748.8 84.2977 748.72 84.1066 748.622 83.926L749.229 83.0607C749.253 83.0273 749.264 82.9868 749.26 82.9462C749.257 82.9057 749.239 82.8676 749.21 82.8388L748.536 82.1656C748.507 82.1366 748.469 82.1188 748.428 82.1155C748.387 82.1123 748.346 82.1236 748.313 82.1476L747.46 82.7607C747.279 82.6609 747.086 82.5801 746.883 82.5203L746.702 81.4842C746.695 81.444 746.674 81.4076 746.643 81.3814C746.611 81.3551 746.572 81.3408 746.531 81.3408H745.579ZM746.063 84.2841C746.638 84.2841 747.102 84.7471 747.102 85.3229C747.102 85.8986 746.638 86.3617 746.063 86.3617C745.487 86.3617 745.024 85.8986 745.024 85.3229C745.024 84.7471 745.487 84.2841 746.063 84.2841Z" fill="#333333"/>
<path fill-rule="evenodd" clip-rule="evenodd" d="M737.591 83.7951C737.917 79.4529 741.544 76.0312 745.97 76.0312C749.002 76.0312 751.655 77.637 753.133 80.0403C753.449 79.9966 753.772 79.9737 754.101 79.9737C758.062 79.9737 761.273 83.1844 761.273 87.1448C761.273 91.0033 758.226 94.1374 754.413 94.3016L754.38 94.303L738.975 94.2808L738.884 94.2694C736.199 93.9344 734.117 91.6496 734.117 88.8697C734.117 86.5559 735.559 84.5845 737.591 83.7951ZM745.97 79.0366C742.989 79.0366 740.572 81.4531 740.572 84.4335C740.572 84.5442 740.58 84.6637 740.594 84.8404L740.706 86.2796L739.272 86.449C738.061 86.5923 737.122 87.6228 737.122 88.8697C737.122 90.0827 738.011 91.0908 739.175 91.2757L754.315 91.2975C756.518 91.1865 758.267 89.3703 758.267 87.1448C758.267 84.8442 756.402 82.9791 754.101 82.9791C753.651 82.9791 753.216 83.0536 752.803 83.1897L751.486 83.6238L750.948 82.345C750.129 80.3982 748.207 79.0366 745.97 79.0366Z" fill="#FD2500"/>
<circle cx="746.063" cy="231.331" r="33.9006" fill="#F5F8FA" stroke="#FF0000" stroke-width="11.84"/>
<path fill-rule="evenodd" clip-rule="evenodd" d="M750.402 225.352H742.267H740.641V226.978V235.655C740.641 236.254 741.127 236.739 741.725 236.739H749.859H751.486V235.113V226.436C751.486 225.837 751 225.352 750.402 225.352Z" fill="#FD2500"/>
<path d="M710.485 60.8959L713.672 59.9713L712.748 56.7843" stroke="#FF0000" stroke-width="0.657778"/>
<path d="M574.691 118.26L573.261 115.266L570.267 116.696" stroke="#FF0000" stroke-width="0.657778"/>
<path d="M631.74 254.482L628.514 255.259L629.291 258.485" stroke="#FF0000" stroke-width="0.657778"/>
<path d="M767.529 197.308L768.739 200.398L771.829 199.187" stroke="#FF0000" stroke-width="0.657778"/>
<g filter="url(#filter0_d)">
<path d="M283.312 155.92C283.312 220.243 231.346 272.311 167.337 272.311C103.328 272.311 51.3621 220.243 51.3621 155.92C51.3621 91.5975 103.328 39.5293 167.337 39.5293C231.346 39.5293 283.312 91.5975 283.312 155.92Z" stroke="#FF0000" stroke-width="27.7617"/>
</g>
<circle cx="167.336" cy="156.336" r="146.924" stroke="#EAEEF4" stroke-width="0.82501"/>
<path d="M146.174 151.108H150.793V152.855H143.999V142.298H146.174V151.108ZM155.521 153C154.37 153 153.433 152.648 152.707 151.942C151.987 151.236 151.627 150.296 151.627 149.121V148.918C151.627 148.13 151.779 147.427 152.084 146.808C152.388 146.184 152.819 145.706 153.375 145.372C153.935 145.034 154.573 144.865 155.289 144.865C156.362 144.865 157.206 145.203 157.819 145.88C158.438 146.557 158.748 147.516 158.748 148.759V149.614H153.752C153.819 150.127 154.022 150.538 154.361 150.847C154.704 151.156 155.137 151.311 155.659 151.311C156.466 151.311 157.097 151.019 157.551 150.434L158.581 151.587C158.267 152.031 157.841 152.379 157.305 152.631C156.768 152.877 156.173 153 155.521 153ZM155.282 146.562C154.866 146.562 154.527 146.702 154.266 146.982C154.01 147.262 153.846 147.664 153.773 148.186H156.688V148.019C156.679 147.555 156.553 147.197 156.311 146.946C156.07 146.69 155.726 146.562 155.282 146.562ZM159.639 148.875C159.639 147.671 159.925 146.702 160.495 145.967C161.07 145.232 161.844 144.865 162.815 144.865C163.676 144.865 164.345 145.16 164.824 145.749L164.911 145.01H166.811V152.594C166.811 153.281 166.654 153.878 166.339 154.385C166.03 154.893 165.593 155.28 165.027 155.546C164.461 155.811 163.799 155.944 163.04 155.944C162.465 155.944 161.904 155.828 161.358 155.596C160.812 155.369 160.398 155.074 160.118 154.712L161.046 153.436C161.568 154.02 162.202 154.313 162.946 154.313C163.502 154.313 163.935 154.163 164.244 153.863C164.553 153.568 164.708 153.148 164.708 152.602V152.181C164.225 152.727 163.589 153 162.801 153C161.858 153 161.095 152.633 160.51 151.898C159.93 151.159 159.639 150.18 159.639 148.962V148.875ZM161.735 149.027C161.735 149.738 161.878 150.296 162.163 150.702C162.448 151.103 162.84 151.304 163.338 151.304C163.976 151.304 164.432 151.064 164.708 150.586V147.287C164.428 146.808 163.976 146.569 163.352 146.569C162.849 146.569 162.453 146.774 162.163 147.185C161.878 147.596 161.735 148.21 161.735 149.027ZM172.974 152.855C172.878 152.667 172.807 152.432 172.764 152.152C172.256 152.718 171.596 153 170.784 153C170.016 153 169.378 152.778 168.87 152.333C168.367 151.889 168.116 151.328 168.116 150.651C168.116 149.82 168.423 149.182 169.037 148.737C169.656 148.292 170.548 148.067 171.713 148.063H172.677V147.613C172.677 147.25 172.583 146.96 172.394 146.743C172.21 146.525 171.918 146.417 171.517 146.417C171.164 146.417 170.886 146.501 170.683 146.67C170.485 146.84 170.386 147.072 170.386 147.366H168.29C168.29 146.912 168.43 146.491 168.711 146.105C168.991 145.718 169.387 145.416 169.9 145.198C170.412 144.976 170.987 144.865 171.625 144.865C172.592 144.865 173.358 145.109 173.924 145.597C174.494 146.081 174.78 146.762 174.78 147.642V151.043C174.785 151.787 174.888 152.35 175.092 152.732V152.855H172.974ZM171.241 151.398C171.551 151.398 171.836 151.33 172.097 151.195C172.358 151.055 172.551 150.869 172.677 150.637V149.288H171.894C170.845 149.288 170.286 149.651 170.219 150.376L170.212 150.499C170.212 150.76 170.303 150.975 170.487 151.144C170.671 151.313 170.922 151.398 171.241 151.398ZM179.652 151.311C180.039 151.311 180.353 151.205 180.595 150.992C180.837 150.779 180.962 150.496 180.972 150.144H182.937C182.932 150.675 182.787 151.164 182.502 151.608C182.217 152.048 181.825 152.391 181.327 152.638C180.834 152.88 180.288 153 179.689 153C178.567 153 177.683 152.645 177.035 151.935C176.387 151.219 176.063 150.233 176.063 148.976V148.838C176.063 147.63 176.385 146.665 177.028 145.945C177.67 145.225 178.553 144.865 179.674 144.865C180.655 144.865 181.441 145.145 182.031 145.706C182.625 146.262 182.927 147.004 182.937 147.932H180.972C180.962 147.526 180.837 147.197 180.595 146.946C180.353 146.69 180.034 146.562 179.638 146.562C179.15 146.562 178.78 146.74 178.529 147.098C178.282 147.451 178.159 148.026 178.159 148.824V149.041C178.159 149.849 178.282 150.429 178.529 150.782C178.775 151.135 179.15 151.311 179.652 151.311ZM187.063 149.89L188.513 145.01H190.761L187.607 154.074L187.433 154.487C186.964 155.512 186.19 156.024 185.112 156.024C184.808 156.024 184.499 155.978 184.184 155.886V154.298L184.503 154.306C184.9 154.306 185.195 154.245 185.388 154.124C185.586 154.004 185.741 153.803 185.852 153.523L186.099 152.877L183.35 145.01H185.606L187.063 149.89ZM131.462 169.855C131.365 169.667 131.295 169.432 131.252 169.152C130.744 169.718 130.084 170 129.272 170C128.503 170 127.865 169.778 127.358 169.333C126.855 168.889 126.604 168.328 126.604 167.651C126.604 166.82 126.911 166.182 127.525 165.737C128.143 165.292 129.035 165.067 130.2 165.063H131.165V164.613C131.165 164.25 131.07 163.96 130.882 163.743C130.698 163.525 130.406 163.417 130.004 163.417C129.652 163.417 129.374 163.501 129.171 163.67C128.972 163.84 128.873 164.072 128.873 164.366H126.778C126.778 163.912 126.918 163.491 127.198 163.105C127.479 162.718 127.875 162.416 128.387 162.198C128.9 161.976 129.475 161.865 130.113 161.865C131.08 161.865 131.846 162.109 132.412 162.597C132.982 163.081 133.267 163.762 133.267 164.642V168.043C133.272 168.787 133.376 169.35 133.579 169.732V169.855H131.462ZM129.729 168.398C130.038 168.398 130.323 168.33 130.584 168.195C130.846 168.055 131.039 167.869 131.165 167.637V166.288H130.381C129.332 166.288 128.774 166.651 128.706 167.376L128.699 167.499C128.699 167.76 128.791 167.975 128.975 168.144C129.158 168.313 129.41 168.398 129.729 168.398ZM141.94 166.005C141.94 167.214 141.664 168.183 141.113 168.913C140.567 169.638 139.827 170 138.894 170C138.101 170 137.461 169.725 136.973 169.174V172.872H134.877V162.01H136.82L136.893 162.778C137.4 162.169 138.063 161.865 138.88 161.865C139.847 161.865 140.598 162.223 141.135 162.938C141.671 163.653 141.94 164.64 141.94 165.896V166.005ZM139.844 165.853C139.844 165.123 139.714 164.56 139.453 164.163C139.196 163.767 138.822 163.569 138.329 163.569C137.671 163.569 137.219 163.82 136.973 164.323V167.535C137.229 168.052 137.686 168.311 138.343 168.311C139.344 168.311 139.844 167.492 139.844 165.853ZM150.307 166.005C150.307 167.214 150.032 168.183 149.481 168.913C148.935 169.638 148.195 170 147.262 170C146.469 170 145.829 169.725 145.34 169.174V172.872H143.245V162.01H145.188L145.261 162.778C145.768 162.169 146.43 161.865 147.247 161.865C148.214 161.865 148.966 162.223 149.503 162.938C150.039 163.653 150.307 164.64 150.307 165.896V166.005ZM148.212 165.853C148.212 165.123 148.081 164.56 147.82 164.163C147.564 163.767 147.189 163.569 146.696 163.569C146.039 163.569 145.587 163.82 145.34 164.323V167.535C145.597 168.052 146.053 168.311 146.711 168.311C147.712 168.311 148.212 167.492 148.212 165.853ZM153.824 169.855H151.721V158.718H153.824V169.855ZM157.769 169.855H155.666V162.01H157.769V169.855ZM155.543 159.98C155.543 159.665 155.647 159.407 155.854 159.204C156.067 159.001 156.355 158.899 156.717 158.899C157.075 158.899 157.36 159.001 157.573 159.204C157.786 159.407 157.892 159.665 157.892 159.98C157.892 160.299 157.783 160.56 157.566 160.763C157.353 160.966 157.07 161.067 156.717 161.067C156.364 161.067 156.079 160.966 155.862 160.763C155.649 160.56 155.543 160.299 155.543 159.98ZM162.765 168.311C163.151 168.311 163.466 168.205 163.707 167.992C163.949 167.779 164.075 167.496 164.084 167.144H166.049C166.045 167.675 165.9 168.164 165.614 168.608C165.329 169.048 164.938 169.391 164.44 169.638C163.947 169.88 163.4 170 162.801 170C161.679 170 160.795 169.645 160.147 168.935C159.499 168.219 159.175 167.233 159.175 165.976V165.838C159.175 164.63 159.497 163.665 160.14 162.945C160.783 162.225 161.665 161.865 162.786 161.865C163.768 161.865 164.553 162.145 165.143 162.706C165.738 163.262 166.04 164.004 166.049 164.932H164.084C164.075 164.526 163.949 164.197 163.707 163.946C163.466 163.69 163.147 163.562 162.75 163.562C162.262 163.562 161.892 163.74 161.641 164.098C161.394 164.451 161.271 165.026 161.271 165.824V166.041C161.271 166.849 161.394 167.429 161.641 167.782C161.887 168.135 162.262 168.311 162.765 168.311ZM171.792 169.855C171.696 169.667 171.625 169.432 171.582 169.152C171.074 169.718 170.415 170 169.602 170C168.834 170 168.196 169.778 167.688 169.333C167.185 168.889 166.934 168.328 166.934 167.651C166.934 166.82 167.241 166.182 167.855 165.737C168.474 165.292 169.366 165.067 170.531 165.063H171.495V164.613C171.495 164.25 171.401 163.96 171.212 163.743C171.028 163.525 170.736 163.417 170.335 163.417C169.982 163.417 169.704 163.501 169.501 163.67C169.303 163.84 169.204 164.072 169.204 164.366H167.108C167.108 163.912 167.248 163.491 167.529 163.105C167.809 162.718 168.205 162.416 168.718 162.198C169.23 161.976 169.805 161.865 170.444 161.865C171.41 161.865 172.177 162.109 172.742 162.597C173.313 163.081 173.598 163.762 173.598 164.642V168.043C173.603 168.787 173.707 169.35 173.91 169.732V169.855H171.792ZM170.059 168.398C170.369 168.398 170.654 168.33 170.915 168.195C171.176 168.055 171.369 167.869 171.495 167.637V166.288H170.712C169.663 166.288 169.105 166.651 169.037 167.376L169.03 167.499C169.03 167.76 169.121 167.975 169.305 168.144C169.489 168.313 169.74 168.398 170.059 168.398ZM177.716 160.081V162.01H179.058V163.547H177.716V167.463C177.716 167.753 177.772 167.961 177.883 168.086C177.994 168.212 178.207 168.275 178.521 168.275C178.753 168.275 178.959 168.258 179.138 168.224V169.812C178.727 169.938 178.304 170 177.869 170C176.399 170 175.65 169.258 175.621 167.774V163.547H174.475V162.01H175.621V160.081H177.716ZM182.437 169.855H180.334V162.01H182.437V169.855ZM180.211 159.98C180.211 159.665 180.315 159.407 180.523 159.204C180.735 159.001 181.023 158.899 181.385 158.899C181.743 158.899 182.028 159.001 182.241 159.204C182.454 159.407 182.56 159.665 182.56 159.98C182.56 160.299 182.451 160.56 182.234 160.763C182.021 160.966 181.738 161.067 181.385 161.067C181.033 161.067 180.747 160.966 180.53 160.763C180.317 160.56 180.211 160.299 180.211 159.98ZM183.844 165.86C183.844 165.082 183.993 164.388 184.293 163.779C184.593 163.17 185.023 162.699 185.584 162.365C186.149 162.032 186.804 161.865 187.549 161.865C188.607 161.865 189.47 162.189 190.137 162.836C190.809 163.484 191.184 164.364 191.261 165.476L191.276 166.012C191.276 167.216 190.94 168.183 190.268 168.913C189.596 169.638 188.694 170 187.563 170C186.432 170 185.528 169.638 184.851 168.913C184.179 168.188 183.844 167.202 183.844 165.954V165.86ZM185.939 166.012C185.939 166.757 186.079 167.327 186.36 167.724C186.64 168.115 187.041 168.311 187.563 168.311C188.071 168.311 188.467 168.118 188.753 167.731C189.038 167.339 189.18 166.716 189.18 165.86C189.18 165.13 189.038 164.565 188.753 164.163C188.467 163.762 188.066 163.562 187.549 163.562C187.036 163.562 186.64 163.762 186.36 164.163C186.079 164.56 185.939 165.176 185.939 166.012ZM194.495 162.01L194.561 162.916C195.121 162.215 195.873 161.865 196.816 161.865C197.647 161.865 198.266 162.109 198.672 162.597C199.078 163.085 199.286 163.815 199.296 164.787V169.855H197.2V164.838C197.2 164.393 197.103 164.072 196.91 163.873C196.717 163.67 196.395 163.569 195.946 163.569C195.356 163.569 194.913 163.82 194.619 164.323V169.855H192.523V162.01H194.495ZM205.14 167.687C205.14 167.431 205.012 167.231 204.756 167.086C204.504 166.936 204.098 166.803 203.537 166.687C201.671 166.295 200.739 165.502 200.739 164.308C200.739 163.612 201.026 163.032 201.601 162.568C202.181 162.099 202.938 161.865 203.871 161.865C204.867 161.865 205.662 162.099 206.257 162.568C206.856 163.037 207.156 163.646 207.156 164.395H205.06C205.06 164.096 204.963 163.849 204.77 163.656C204.577 163.458 204.275 163.359 203.864 163.359C203.511 163.359 203.238 163.438 203.044 163.598C202.851 163.757 202.754 163.96 202.754 164.207C202.754 164.439 202.863 164.627 203.081 164.772C203.303 164.913 203.675 165.036 204.197 165.142C204.719 165.244 205.159 165.36 205.517 165.49C206.624 165.896 207.177 166.6 207.177 167.6C207.177 168.316 206.87 168.896 206.257 169.341C205.643 169.781 204.85 170 203.878 170C203.221 170 202.636 169.884 202.123 169.652C201.616 169.416 201.217 169.094 200.927 168.688C200.637 168.277 200.492 167.835 200.492 167.361H202.479C202.498 167.733 202.636 168.019 202.892 168.217C203.148 168.415 203.491 168.514 203.922 168.514C204.323 168.514 204.625 168.439 204.828 168.289C205.036 168.135 205.14 167.934 205.14 167.687Z" fill="#323335"/>
<path d="M558.242 159.654L564.215 153.681L570.188 159.654" stroke="#FF0000" stroke-width="3.28889"/>
<path d="M783.229 153.682L777.256 159.655L771.283 153.682" stroke="#FF0000" stroke-width="3.28889"/>
<path d="M672.395 269.825L666.422 263.852L672.395 257.879" stroke="#FF0000" stroke-width="3.28889"/>
<path d="M669.74 44.8389L675.713 50.812L669.74 56.7851" stroke="#FF0000" stroke-width="3.28889"/>
<path d="M176.236 225.118H179.946V227.591H176.236V225.118ZM152.736 225.118H156.446V227.591H152.736V225.118ZM167.578 212.749V216.46H165.104V212.749H167.578ZM157.584 215.841L160.219 218.488L158.462 220.232L155.828 217.61L157.584 215.841ZM172.463 218.476L175.086 215.841L176.854 217.61L174.22 220.232L172.463 218.476ZM166.341 218.933C168.309 218.933 170.197 219.715 171.588 221.107C172.98 222.499 173.762 224.386 173.762 226.354C173.762 229.1 172.266 231.5 170.052 232.786V235.012C170.052 235.34 169.921 235.655 169.689 235.887C169.457 236.119 169.143 236.249 168.815 236.249H163.867C163.539 236.249 163.225 236.119 162.993 235.887C162.761 235.655 162.63 235.34 162.63 235.012V232.786C160.416 231.5 158.92 229.1 158.92 226.354C158.92 224.386 159.702 222.499 161.093 221.107C162.485 219.715 164.373 218.933 166.341 218.933ZM168.815 237.486V238.723C168.815 239.051 168.684 239.366 168.452 239.598C168.22 239.829 167.906 239.96 167.578 239.96H165.104C164.776 239.96 164.461 239.829 164.23 239.598C163.998 239.366 163.867 239.051 163.867 238.723V237.486H168.815ZM165.104 233.776H167.578V231.141C169.718 230.597 171.288 228.655 171.288 226.354C171.288 225.042 170.767 223.784 169.839 222.856C168.912 221.928 167.653 221.407 166.341 221.407C165.029 221.407 163.77 221.928 162.843 222.856C161.915 223.784 161.394 225.042 161.394 226.354C161.394 228.655 162.964 230.597 165.104 231.141V233.776Z" fill="#323335"/>
<path d="M112.098 114.404H102.449V99.1995H112.098V114.404ZM107.273 118.748C106.847 118.748 106.438 118.576 106.136 118.271C105.835 117.965 105.665 117.551 105.665 117.119C105.665 116.687 105.835 116.272 106.136 115.967C106.438 115.661 106.847 115.49 107.273 115.49C107.7 115.49 108.109 115.661 108.411 115.967C108.712 116.272 108.882 116.687 108.882 117.119C108.882 117.551 108.712 117.965 108.411 118.271C108.109 118.576 107.7 118.748 107.273 118.748ZM111.562 95.9414H102.985C102.274 95.9414 101.592 96.2275 101.09 96.7366C100.587 97.2458 100.305 97.9364 100.305 98.6564V117.119C100.305 117.839 100.587 118.529 101.09 119.039C101.592 119.548 102.274 119.834 102.985 119.834H111.562C112.273 119.834 112.954 119.548 113.457 119.039C113.96 118.529 114.242 117.839 114.242 117.119V98.6564C114.242 97.9364 113.96 97.2458 113.457 96.7366C112.954 96.2275 112.273 95.9414 111.562 95.9414Z" fill="#323335"/>
<path d="M205.276 102.994H224.302V115.023H205.276V102.994ZM224.302 117.429C224.933 117.429 225.538 117.175 225.984 116.724C226.43 116.273 226.68 115.661 226.68 115.023V102.994C226.68 101.658 225.61 100.588 224.302 100.588H205.276C203.957 100.588 202.898 101.658 202.898 102.994V115.023C202.898 115.661 203.149 116.273 203.595 116.724C204.041 117.175 204.646 117.429 205.276 117.429H200.52V119.835H229.058V117.429H224.302Z" fill="#323335"/>
<path d="M244.544 161.867H242.332V157.442H244.544V161.867ZM244.544 164.079H242.332V166.291H244.544V164.079ZM254.499 155.23V168.503C254.499 169.09 254.266 169.653 253.851 170.068C253.437 170.483 252.874 170.716 252.287 170.716H236.801L232.377 175.14V155.23C232.377 154.643 232.61 154.08 233.025 153.666C233.44 153.251 234.002 153.018 234.589 153.018H252.287C252.874 153.018 253.437 153.251 253.851 153.666C254.266 154.08 254.499 154.643 254.499 155.23ZM252.287 155.23H234.589V169.831L235.916 168.503H252.287V155.23Z" fill="#323335"/>
<path fill-rule="evenodd" clip-rule="evenodd" d="M171.941 84.29C171.668 84.29 171.446 84.5115 171.446 84.7848V85.6912C171.059 85.7966 170.691 85.9503 170.351 86.1454L169.709 85.5041C169.517 85.3109 169.203 85.3109 169.01 85.5041L167.961 86.5535C167.767 86.7467 167.767 87.06 167.961 87.2532L168.602 87.8944C168.406 88.235 168.253 88.6025 168.148 88.9898H167.241C166.968 88.9898 166.746 89.2113 166.746 89.4845V90.9687C166.746 91.2419 166.968 91.4634 167.241 91.4634H168.148C168.253 91.8507 168.406 92.2182 168.602 92.5588L167.961 93.2C167.767 93.3932 167.767 93.7065 167.961 93.8997L169.01 94.9491C169.203 95.1423 169.517 95.1423 169.71 94.9491L170.351 94.308C170.692 94.503 171.059 94.6566 171.446 94.762V95.6684C171.446 95.9417 171.668 96.1632 171.941 96.1632H173.425C173.699 96.1632 173.92 95.9417 173.92 95.6684V94.762C174.307 94.6566 174.675 94.5029 175.016 94.3078L175.657 94.9491C175.85 95.1423 176.163 95.1423 176.356 94.9491L177.406 93.8996C177.599 93.7065 177.599 93.3932 177.406 93.2L176.764 92.5588C176.96 92.2182 177.113 91.8507 177.219 91.4634H178.125C178.398 91.4634 178.62 91.2419 178.62 90.9687V89.4845C178.62 89.2113 178.398 88.9898 178.125 88.9898H177.219C177.113 88.6025 176.96 88.235 176.764 87.8944L177.406 87.2532C177.599 87.06 177.599 86.7467 177.406 86.5535L176.356 85.5041C176.163 85.3109 175.85 85.3109 175.657 85.5041L175.016 86.1454C174.675 85.9503 174.307 85.7966 173.92 85.6912V84.7848C173.92 84.5115 173.699 84.29 173.425 84.29H171.941ZM172.683 92.2055C173.776 92.2055 174.662 91.3195 174.662 90.2266C174.662 89.1337 173.776 88.2478 172.683 88.2478C171.59 88.2478 170.704 89.1337 170.704 90.2266C170.704 91.3195 171.59 92.2055 172.683 92.2055Z" fill="black"/>
<path d="M162.146 74.7041L164.499 77.0715H173.909C174.533 77.0715 175.131 77.3209 175.573 77.7649C176.014 78.2089 176.262 78.811 176.262 79.4389V83.184C175.573 83.184 174.673 83.184 173.909 83.184V79.4389H155.088V91.2758H165.675C165.757 92.1044 165.675 92.77 165.675 93.6432H155.088C153.783 93.6432 152.736 92.5779 152.736 91.2758V77.0715C152.736 75.7576 153.783 74.7041 155.088 74.7041H162.146Z" fill="#323335"/>
<path d="M94.6636 172.331C100.358 172.331 105.017 167.672 105.017 161.978C105.017 156.283 100.358 151.624 94.6636 151.624C88.9693 151.624 84.3103 156.283 84.3103 161.978C84.3103 167.672 88.9693 172.331 94.6636 172.331ZM94.6636 149.036C101.782 149.036 107.605 154.86 107.605 161.978C107.605 169.096 101.782 174.92 94.6636 174.92C87.5457 174.92 81.7219 169.096 81.7219 161.978C81.7219 154.86 87.5457 149.036 94.6636 149.036ZM95.3107 163.272H93.3695L88.1928 160.295L89.2281 158.613L93.4989 161.072V155.507H95.4401V163.272H95.3107Z" fill="#323335"/>
<path d="M210.174 207.307V220.049H205.83V207.307H210.174ZM214.518 220.049C213.942 220.049 213.389 219.825 212.982 219.427C212.575 219.029 212.346 218.489 212.346 217.925V207.307C212.346 206.723 212.585 206.192 212.986 205.809L220.132 198.812L221.284 199.937C221.577 200.224 221.761 200.617 221.761 201.052L221.729 201.392L220.697 206.245H227.55C228.755 206.245 229.722 207.2 229.722 208.368V210.492C229.722 210.768 229.668 211.023 229.57 211.267L226.29 218.754C225.964 219.518 225.193 220.049 224.292 220.049H214.518ZM214.518 217.925H224.324L227.55 210.492V208.368H218.004L219.231 202.719L214.518 207.338V217.925Z" fill="#323335"/>
<path d="M126.068 207.681H119.31V205.75H126.068V207.681ZM128.964 203.819H119.31V201.889H128.964V203.819ZM128.964 199.958H119.31V198.027H128.964V199.958ZM113.518 198.027V213.473H128.964V215.404H113.518C113.006 215.404 112.515 215.2 112.153 214.838C111.791 214.476 111.588 213.985 111.588 213.473V198.027H113.518ZM130.894 194.166C131.407 194.166 131.898 194.369 132.26 194.732C132.622 195.094 132.825 195.585 132.825 196.097V209.612C132.825 210.683 131.966 211.542 130.894 211.542H117.38C116.868 211.542 116.376 211.339 116.014 210.977C115.652 210.615 115.449 210.124 115.449 209.612V196.097C115.449 195.025 116.308 194.166 117.38 194.166H130.894ZM117.38 196.097V209.612H130.894V196.097H117.38Z" fill="#323335"/>
<defs>
<filter id="filter0_d" x="0.465565" y="0.662883" width="333.743" height="334.575" filterUnits="userSpaceOnUse" color-interpolation-filters="sRGB">
<feFlood flood-opacity="0" result="BackgroundImageFix"/>
<feColorMatrix in="SourceAlpha" type="matrix" values="0 0 0 0 0 0 0 0 0 0 0 0 0 0 0 0 0 0 127 0"/>
<feOffset dy="12.0301"/>
<feGaussianBlur stdDeviation="18.5078"/>
<feColorMatrix type="matrix" values="0 0 0 0 1 0 0 0 0 0 0 0 0 0 0 0 0 0 0.2 0"/>
<feBlend mode="normal" in2="BackgroundImageFix" result="effect1_dropShadow"/>
<feBlend mode="normal" in="SourceGraphic" in2="effect1_dropShadow" result="shape"/>
</filter>
</defs>
</svg>
