<svg width="976" height="493" viewBox="0 0 976 493" fill="none" xmlns="http://www.w3.org/2000/svg">
<path d="M946.5 283.9C933.481 283.9 922.9 294.481 922.9 307.5C922.898 307.657 922.927 307.812 922.985 307.957C923.043 308.102 923.13 308.234 923.24 308.346C923.349 308.457 923.48 308.545 923.625 308.606C923.769 308.666 923.924 308.697 924.08 308.697C924.236 308.697 924.391 308.666 924.535 308.606C924.68 308.545 924.811 308.457 924.92 308.346C925.03 308.234 925.117 308.102 925.175 307.957C925.233 307.812 925.262 307.657 925.26 307.5C925.26 295.756 934.756 286.26 946.5 286.26C954.368 286.26 961.215 290.537 964.887 296.88H959.48C959.324 296.878 959.168 296.907 959.023 296.965C958.878 297.024 958.746 297.11 958.635 297.22C958.523 297.33 958.435 297.461 958.375 297.605C958.314 297.749 958.283 297.904 958.283 298.06C958.283 298.217 958.314 298.372 958.375 298.516C958.435 298.66 958.523 298.791 958.635 298.901C958.746 299.011 958.878 299.097 959.023 299.155C959.168 299.214 959.324 299.243 959.48 299.24H966.8H968.92V289.8C968.922 289.643 968.893 289.486 968.833 289.34C968.774 289.193 968.685 289.06 968.574 288.949C968.462 288.837 968.329 288.749 968.183 288.69C968.036 288.631 967.879 288.602 967.722 288.604C967.409 288.609 967.111 288.738 966.893 288.962C966.676 289.186 966.556 289.488 966.56 289.8V295.083C962.396 288.373 954.966 283.9 946.5 283.9ZM968.902 306.304C968.589 306.309 968.291 306.438 968.073 306.662C967.856 306.886 967.736 307.188 967.74 307.5C967.74 319.244 958.244 328.74 946.5 328.74C938.633 328.74 931.788 324.464 928.116 318.12L933.52 318.123C933.676 318.125 933.832 318.096 933.977 318.038C934.122 317.979 934.254 317.893 934.365 317.783C934.477 317.673 934.565 317.542 934.625 317.398C934.686 317.254 934.717 317.099 934.717 316.943C934.717 316.786 934.686 316.631 934.625 316.487C934.565 316.343 934.477 316.212 934.365 316.102C934.254 315.993 934.122 315.906 933.977 315.848C933.832 315.789 933.676 315.76 933.52 315.763L924.08 315.76V325.2C924.078 325.357 924.107 325.512 924.165 325.657C924.223 325.802 924.31 325.934 924.42 326.046C924.529 326.157 924.66 326.245 924.805 326.306C924.949 326.366 925.104 326.397 925.26 326.397C925.416 326.397 925.571 326.366 925.715 326.306C925.86 326.245 925.991 326.157 926.1 326.046C926.21 325.934 926.297 325.802 926.355 325.657C926.413 325.512 926.442 325.357 926.44 325.2V319.918C930.604 326.628 938.034 331.1 946.5 331.1C959.52 331.1 970.1 320.52 970.1 307.5C970.102 307.343 970.073 307.186 970.013 307.04C969.954 306.893 969.865 306.76 969.754 306.649C969.642 306.537 969.509 306.449 969.363 306.39C969.216 306.331 969.059 306.302 968.902 306.304Z" fill="#FF0000"/>
<path d="M944.963 294.52C944.829 294.52 944.699 294.567 944.597 294.654C944.494 294.741 944.426 294.862 944.404 294.994L943.853 298.367C943.191 298.56 942.559 298.82 941.964 299.144L939.181 297.156C939.072 297.078 938.939 297.041 938.805 297.052C938.672 297.063 938.547 297.121 938.452 297.215L936.248 299.417C936.154 299.511 936.096 299.636 936.084 299.768C936.073 299.901 936.108 300.034 936.185 300.143L938.143 302.944C937.814 303.542 937.548 304.178 937.351 304.846L933.992 305.405C933.86 305.427 933.74 305.496 933.654 305.598C933.567 305.7 933.52 305.83 933.52 305.964V309.079C933.52 309.212 933.566 309.341 933.652 309.443C933.737 309.545 933.856 309.614 933.987 309.638L937.348 310.233C937.544 310.9 937.808 311.536 938.137 312.135L936.155 314.909C936.077 315.018 936.041 315.151 936.052 315.284C936.062 315.418 936.12 315.543 936.215 315.638L938.417 317.841C938.511 317.936 938.636 317.994 938.768 318.005C938.9 318.017 939.033 317.982 939.142 317.906L941.949 315.941C942.546 316.267 943.179 316.529 943.844 316.723L944.404 320.1C944.426 320.233 944.495 320.353 944.597 320.44C944.699 320.526 944.829 320.574 944.963 320.574H948.078C948.212 320.574 948.341 320.527 948.443 320.442C948.545 320.356 948.614 320.237 948.637 320.106L949.238 316.715C949.9 316.518 950.53 316.252 951.124 315.924L953.949 317.907C954.058 317.983 954.191 318.019 954.323 318.007C954.456 317.996 954.581 317.938 954.675 317.844L956.877 315.639C956.972 315.544 957.03 315.418 957.041 315.284C957.052 315.15 957.015 315.017 956.936 314.908L954.921 312.111C955.244 311.52 955.503 310.894 955.696 310.236L959.104 309.639C959.235 309.615 959.354 309.547 959.44 309.445C959.526 309.342 959.572 309.213 959.572 309.08V305.965C959.572 305.831 959.524 305.701 959.437 305.598C959.351 305.496 959.23 305.428 959.098 305.406L955.695 304.85C955.501 304.193 955.24 303.568 954.918 302.977L956.905 300.146C956.982 300.037 957.017 299.904 957.006 299.772C956.994 299.639 956.936 299.514 956.842 299.42L954.638 297.218C954.543 297.123 954.417 297.065 954.283 297.054C954.15 297.043 954.016 297.08 953.907 297.159L951.118 299.165C950.524 298.838 949.893 298.574 949.23 298.378L948.637 294.989C948.614 294.857 948.545 294.738 948.443 294.652C948.341 294.566 948.212 294.519 948.078 294.52H944.963ZM946.546 304.148C948.43 304.148 949.944 305.663 949.944 307.547C949.944 309.43 948.43 310.945 946.546 310.945C944.662 310.945 943.148 309.43 943.148 307.547C943.148 305.663 944.662 304.148 946.546 304.148Z" fill="#FF0000"/>
<g filter="url(#filter0_d)">
<path d="M535.013 225.915C532.236 211.684 519.863 201 505 201C493.199 201 482.95 207.765 477.846 217.665C465.555 218.985 456 229.504 456 242.25C456 255.904 466.984 267 480.5 267H533.583C544.853 267 554 257.76 554 246.375C554 235.485 545.629 226.657 535.013 225.915ZM533.583 258.75H480.5C471.476 258.75 464.167 251.366 464.167 242.25C464.167 233.134 471.476 225.75 480.5 225.75H483.399C486.094 216.221 494.71 209.25 505 209.25C517.413 209.25 527.458 219.398 527.458 231.938V234H533.583C540.362 234 545.833 239.528 545.833 246.375C545.833 253.222 540.362 258.75 533.583 258.75Z" fill="black"/>
</g>
<path d="M389.798 6.8L383.766 25H380.178L375.68 11.532L371.104 25H367.49L361.458 6.8H364.968L369.492 20.632L374.198 6.8H377.318L381.92 20.71L386.574 6.8H389.798ZM400.498 10.96C402.249 10.96 403.653 11.4713 404.71 12.494C405.768 13.5167 406.296 15.0333 406.296 17.044V25H403.046V17.46C403.046 16.2467 402.76 15.3367 402.188 14.73C401.616 14.106 400.802 13.794 399.744 13.794C398.548 13.794 397.604 14.158 396.91 14.886C396.217 15.5967 395.87 16.628 395.87 17.98V25H392.62V5.708H395.87V12.728C396.408 12.156 397.066 11.7227 397.846 11.428C398.644 11.116 399.528 10.96 400.498 10.96ZM415.723 10.96C417.768 10.96 419.328 11.454 420.403 12.442C421.495 13.4127 422.041 14.886 422.041 16.862V25H418.973V23.31C418.574 23.9167 418.002 24.3847 417.257 24.714C416.529 25.026 415.645 25.182 414.605 25.182C413.565 25.182 412.655 25.0087 411.875 24.662C411.095 24.298 410.488 23.804 410.055 23.18C409.639 22.5387 409.431 21.8193 409.431 21.022C409.431 19.774 409.89 18.7773 410.809 18.032C411.745 17.2693 413.21 16.888 415.203 16.888H418.791V16.68C418.791 15.7093 418.496 14.964 417.907 14.444C417.335 13.924 416.477 13.664 415.333 13.664C414.553 13.664 413.782 13.7853 413.019 14.028C412.274 14.2707 411.641 14.6087 411.121 15.042L409.847 12.676C410.575 12.1213 411.45 11.6967 412.473 11.402C413.496 11.1073 414.579 10.96 415.723 10.96ZM415.281 22.816C416.096 22.816 416.815 22.634 417.439 22.27C418.08 21.8887 418.531 21.3513 418.791 20.658V19.046H415.437C413.565 19.046 412.629 19.6613 412.629 20.892C412.629 21.4813 412.863 21.9493 413.331 22.296C413.799 22.6427 414.449 22.816 415.281 22.816ZM434.558 24.246C434.177 24.558 433.709 24.792 433.154 24.948C432.617 25.104 432.045 25.182 431.438 25.182C429.913 25.182 428.734 24.7833 427.902 23.986C427.07 23.1887 426.654 22.0273 426.654 20.502V13.82H424.366V11.22H426.654V8.048H429.904V11.22H433.622V13.82H429.904V20.424C429.904 21.1 430.069 21.62 430.398 21.984C430.727 22.3307 431.204 22.504 431.828 22.504C432.556 22.504 433.163 22.3133 433.648 21.932L434.558 24.246ZM444.417 11.116H447.667V25H444.417V11.116ZM446.055 8.828C445.466 8.828 444.972 8.646 444.573 8.282C444.174 7.90067 443.975 7.43267 443.975 6.878C443.975 6.32333 444.174 5.864 444.573 5.5C444.972 5.11867 445.466 4.928 446.055 4.928C446.644 4.928 447.138 5.11 447.537 5.474C447.936 5.82067 448.135 6.26267 448.135 6.8C448.135 7.372 447.936 7.85733 447.537 8.256C447.156 8.63733 446.662 8.828 446.055 8.828ZM456.223 25.182C455.096 25.182 453.995 25.0347 452.921 24.74C451.846 24.4453 450.988 24.0727 450.347 23.622L451.595 21.152C452.219 21.568 452.964 21.906 453.831 22.166C454.715 22.4087 455.581 22.53 456.431 22.53C458.372 22.53 459.343 22.0187 459.343 20.996C459.343 20.5107 459.091 20.1727 458.589 19.982C458.103 19.7913 457.315 19.6093 456.223 19.436C455.079 19.2627 454.143 19.0633 453.415 18.838C452.704 18.6127 452.08 18.2227 451.543 17.668C451.023 17.096 450.763 16.3073 450.763 15.302C450.763 13.9847 451.309 12.936 452.401 12.156C453.51 11.3587 455.001 10.96 456.873 10.96C457.826 10.96 458.779 11.0727 459.733 11.298C460.686 11.506 461.466 11.792 462.073 12.156L460.825 14.626C459.646 13.9327 458.32 13.586 456.847 13.586C455.893 13.586 455.165 13.7333 454.663 14.028C454.177 14.3053 453.935 14.678 453.935 15.146C453.935 15.666 454.195 16.0387 454.715 16.264C455.252 16.472 456.075 16.6713 457.185 16.862C458.294 17.0353 459.204 17.2347 459.915 17.46C460.625 17.6853 461.232 18.0667 461.735 18.604C462.255 19.1413 462.515 19.904 462.515 20.892C462.515 22.192 461.951 23.232 460.825 24.012C459.698 24.792 458.164 25.182 456.223 25.182ZM478.869 25.182C477.431 25.182 476.139 24.8787 474.995 24.272C473.851 23.6653 472.959 22.8247 472.317 21.75C471.676 20.658 471.355 19.4273 471.355 18.058C471.355 16.6887 471.676 15.4667 472.317 14.392C472.959 13.3173 473.843 12.4767 474.969 11.87C476.113 11.2633 477.413 10.96 478.869 10.96C480.239 10.96 481.435 11.2373 482.457 11.792C483.497 12.3467 484.277 13.144 484.797 14.184L482.301 15.64C481.903 14.9987 481.4 14.522 480.793 14.21C480.204 13.8807 479.554 13.716 478.843 13.716C477.63 13.716 476.625 14.1147 475.827 14.912C475.03 15.692 474.631 16.7407 474.631 18.058C474.631 19.3753 475.021 20.4327 475.801 21.23C476.599 22.01 477.613 22.4 478.843 22.4C479.554 22.4 480.204 22.244 480.793 21.932C481.4 21.6027 481.903 21.1173 482.301 20.476L484.797 21.932C484.26 22.972 483.471 23.778 482.431 24.35C481.409 24.9047 480.221 25.182 478.869 25.182ZM487.48 5.708H490.73V25H487.48V5.708ZM501.235 25.182C499.831 25.182 498.566 24.8787 497.439 24.272C496.313 23.6653 495.429 22.8247 494.787 21.75C494.163 20.658 493.851 19.4273 493.851 18.058C493.851 16.6887 494.163 15.4667 494.787 14.392C495.429 13.3173 496.313 12.4767 497.439 11.87C498.566 11.2633 499.831 10.96 501.235 10.96C502.657 10.96 503.931 11.2633 505.057 11.87C506.184 12.4767 507.059 13.3173 507.683 14.392C508.325 15.4667 508.645 16.6887 508.645 18.058C508.645 19.4273 508.325 20.658 507.683 21.75C507.059 22.8247 506.184 23.6653 505.057 24.272C503.931 24.8787 502.657 25.182 501.235 25.182ZM501.235 22.4C502.431 22.4 503.419 22.0013 504.199 21.204C504.979 20.4067 505.369 19.358 505.369 18.058C505.369 16.758 504.979 15.7093 504.199 14.912C503.419 14.1147 502.431 13.716 501.235 13.716C500.039 13.716 499.051 14.1147 498.271 14.912C497.509 15.7093 497.127 16.758 497.127 18.058C497.127 19.358 497.509 20.4067 498.271 21.204C499.051 22.0013 500.039 22.4 501.235 22.4ZM525.195 11.116V25H522.101V23.232C521.581 23.856 520.931 24.3413 520.151 24.688C519.371 25.0173 518.53 25.182 517.629 25.182C515.774 25.182 514.31 24.6707 513.235 23.648C512.178 22.608 511.649 21.074 511.649 19.046V11.116H514.899V18.604C514.899 19.852 515.176 20.788 515.731 21.412C516.303 22.0187 517.109 22.322 518.149 22.322C519.31 22.322 520.229 21.9667 520.905 21.256C521.598 20.528 521.945 19.488 521.945 18.136V11.116H525.195ZM543.048 5.708V25H539.928V23.206C539.391 23.8647 538.724 24.3587 537.926 24.688C537.146 25.0173 536.28 25.182 535.326 25.182C533.992 25.182 532.787 24.8873 531.712 24.298C530.655 23.7087 529.823 22.8767 529.216 21.802C528.61 20.71 528.306 19.462 528.306 18.058C528.306 16.654 528.61 15.4147 529.216 14.34C529.823 13.2653 530.655 12.4333 531.712 11.844C532.787 11.2547 533.992 10.96 535.326 10.96C536.245 10.96 537.086 11.116 537.848 11.428C538.611 11.74 539.261 12.208 539.798 12.832V5.708H543.048ZM535.716 22.4C536.496 22.4 537.198 22.2267 537.822 21.88C538.446 21.516 538.94 21.0047 539.304 20.346C539.668 19.6873 539.85 18.9247 539.85 18.058C539.85 17.1913 539.668 16.4287 539.304 15.77C538.94 15.1113 538.446 14.6087 537.822 14.262C537.198 13.898 536.496 13.716 535.716 13.716C534.936 13.716 534.234 13.898 533.61 14.262C532.986 14.6087 532.492 15.1113 532.128 15.77C531.764 16.4287 531.582 17.1913 531.582 18.058C531.582 18.9247 531.764 19.6873 532.128 20.346C532.492 21.0047 532.986 21.516 533.61 21.88C534.234 22.2267 534.936 22.4 535.716 22.4ZM562.364 10.96C564.114 10.96 565.518 11.4713 566.576 12.494C567.633 13.5167 568.162 15.0333 568.162 17.044V25H564.912V17.46C564.912 16.2467 564.626 15.3367 564.054 14.73C563.482 14.106 562.667 13.794 561.61 13.794C560.414 13.794 559.469 14.158 558.776 14.886C558.082 15.5967 557.736 16.628 557.736 17.98V25H554.486V11.116H557.58V12.91C558.117 12.2687 558.793 11.7833 559.608 11.454C560.422 11.1247 561.341 10.96 562.364 10.96ZM577.588 10.96C579.634 10.96 581.194 11.454 582.268 12.442C583.36 13.4127 583.906 14.886 583.906 16.862V25H580.838V23.31C580.44 23.9167 579.868 24.3847 579.122 24.714C578.394 25.026 577.51 25.182 576.47 25.182C575.43 25.182 574.52 25.0087 573.74 24.662C572.96 24.298 572.354 23.804 571.92 23.18C571.504 22.5387 571.296 21.8193 571.296 21.022C571.296 19.774 571.756 18.7773 572.674 18.032C573.61 17.2693 575.075 16.888 577.068 16.888H580.656V16.68C580.656 15.7093 580.362 14.964 579.772 14.444C579.2 13.924 578.342 13.664 577.198 13.664C576.418 13.664 575.647 13.7853 574.884 14.028C574.139 14.2707 573.506 14.6087 572.986 15.042L571.712 12.676C572.44 12.1213 573.316 11.6967 574.338 11.402C575.361 11.1073 576.444 10.96 577.588 10.96ZM577.146 22.816C577.961 22.816 578.68 22.634 579.304 22.27C579.946 21.8887 580.396 21.3513 580.656 20.658V19.046H577.302C575.43 19.046 574.494 19.6613 574.494 20.892C574.494 21.4813 574.728 21.9493 575.196 22.296C575.664 22.6427 576.314 22.816 577.146 22.816ZM596.423 24.246C596.042 24.558 595.574 24.792 595.019 24.948C594.482 25.104 593.91 25.182 593.303 25.182C591.778 25.182 590.599 24.7833 589.767 23.986C588.935 23.1887 588.519 22.0273 588.519 20.502V13.82H586.231V11.22H588.519V8.048H591.769V11.22H595.487V13.82H591.769V20.424C591.769 21.1 591.934 21.62 592.263 21.984C592.593 22.3307 593.069 22.504 593.693 22.504C594.421 22.504 595.028 22.3133 595.513 21.932L596.423 24.246ZM599.097 11.116H602.347V25H599.097V11.116ZM600.735 8.828C600.146 8.828 599.652 8.646 599.253 8.282C598.854 7.90067 598.655 7.43267 598.655 6.878C598.655 6.32333 598.854 5.864 599.253 5.5C599.652 5.11867 600.146 4.928 600.735 4.928C601.324 4.928 601.818 5.11 602.217 5.474C602.616 5.82067 602.815 6.26267 602.815 6.8C602.815 7.372 602.616 7.85733 602.217 8.256C601.836 8.63733 601.342 8.828 600.735 8.828ZM619.612 11.116L613.658 25H610.304L604.35 11.116H607.73L612.046 21.412L616.492 11.116H619.612ZM634.315 18.136C634.315 18.3613 634.298 18.682 634.263 19.098H623.369C623.56 20.1207 624.054 20.9353 624.851 21.542C625.666 22.1313 626.671 22.426 627.867 22.426C629.392 22.426 630.649 21.9233 631.637 20.918L633.379 22.92C632.755 23.6653 631.966 24.2287 631.013 24.61C630.06 24.9913 628.985 25.182 627.789 25.182C626.264 25.182 624.92 24.8787 623.759 24.272C622.598 23.6653 621.696 22.8247 621.055 21.75C620.431 20.658 620.119 19.4273 620.119 18.058C620.119 16.706 620.422 15.4927 621.029 14.418C621.653 13.326 622.511 12.4767 623.603 11.87C624.695 11.2633 625.926 10.96 627.295 10.96C628.647 10.96 629.852 11.2633 630.909 11.87C631.984 12.4593 632.816 13.3 633.405 14.392C634.012 15.4667 634.315 16.7147 634.315 18.136ZM627.295 13.56C626.255 13.56 625.371 13.872 624.643 14.496C623.932 15.1027 623.499 15.9173 623.343 16.94H631.221C631.082 15.9347 630.658 15.12 629.947 14.496C629.236 13.872 628.352 13.56 627.295 13.56ZM639.909 18.968C639.909 18.032 640.117 17.2607 640.533 16.654C640.966 16.03 641.59 15.354 642.405 14.626C643.029 14.0713 643.488 13.5947 643.783 13.196C644.095 12.78 644.251 12.312 644.251 11.792C644.251 11.064 643.956 10.4747 643.367 10.024C642.777 9.57333 641.989 9.348 641.001 9.348C639.129 9.348 637.716 10.0153 636.763 11.35L634.241 9.712C634.986 8.68933 635.948 7.90933 637.127 7.372C638.305 6.81733 639.692 6.54 641.287 6.54C643.228 6.54 644.771 6.96467 645.915 7.814C647.076 8.646 647.657 9.79867 647.657 11.272C647.657 11.9827 647.535 12.6067 647.293 13.144C647.067 13.6813 646.79 14.1407 646.461 14.522C646.131 14.886 645.698 15.3107 645.161 15.796C644.502 16.3853 644.008 16.9053 643.679 17.356C643.367 17.8067 643.211 18.344 643.211 18.968H639.909ZM641.573 25.182C640.966 25.182 640.463 24.9913 640.065 24.61C639.683 24.2113 639.493 23.726 639.493 23.154C639.493 22.582 639.683 22.1053 640.065 21.724C640.463 21.3427 640.966 21.152 641.573 21.152C642.162 21.152 642.647 21.3427 643.029 21.724C643.427 22.1053 643.627 22.582 643.627 23.154C643.627 23.726 643.427 24.2113 643.029 24.61C642.647 24.9913 642.162 25.182 641.573 25.182Z" fill="#A6ABB0"/>
<path d="M106.367 195.807H96.5523L94.6174 200.35H90.8598L99.693 180.72H103.282L112.144 200.35H108.33L106.367 195.807ZM105.161 192.947L101.46 184.366L97.7861 192.947H105.161ZM122.716 180.72C124.417 180.72 125.894 181.001 127.147 181.562C128.418 182.122 129.39 182.926 130.063 183.973C130.736 185.02 131.072 186.263 131.072 187.703C131.072 189.124 130.736 190.367 130.063 191.432C129.39 192.479 128.418 193.283 127.147 193.844C125.894 194.405 124.417 194.685 122.716 194.685H118.285V200.35H114.64V180.72H122.716ZM122.548 191.601C124.137 191.601 125.343 191.264 126.165 190.591C126.988 189.918 127.399 188.955 127.399 187.703C127.399 186.45 126.988 185.487 126.165 184.814C125.343 184.141 124.137 183.805 122.548 183.805H118.285V191.601H122.548ZM134.713 180.72H138.358V200.35H134.713V180.72ZM147.958 200.546C146.743 200.546 145.556 200.387 144.397 200.069C143.238 199.751 142.312 199.349 141.621 198.863L142.967 196.199C143.64 196.648 144.443 197.013 145.378 197.293C146.332 197.555 147.266 197.686 148.182 197.686C150.276 197.686 151.323 197.134 151.323 196.031C151.323 195.508 151.052 195.143 150.51 194.938C149.986 194.732 149.136 194.536 147.958 194.349C146.724 194.162 145.715 193.947 144.929 193.704C144.163 193.461 143.49 193.04 142.91 192.442C142.35 191.825 142.069 190.974 142.069 189.89C142.069 188.469 142.658 187.338 143.836 186.497C145.032 185.637 146.64 185.207 148.659 185.207C149.687 185.207 150.715 185.329 151.744 185.572C152.772 185.796 153.613 186.104 154.267 186.497L152.921 189.161C151.65 188.413 150.22 188.039 148.631 188.039C147.603 188.039 146.818 188.198 146.275 188.516C145.752 188.815 145.49 189.217 145.49 189.722C145.49 190.283 145.771 190.685 146.332 190.928C146.911 191.152 147.799 191.367 148.996 191.573C150.192 191.759 151.173 191.974 151.94 192.217C152.706 192.461 153.361 192.872 153.903 193.451C154.464 194.031 154.744 194.853 154.744 195.919C154.744 197.321 154.137 198.443 152.921 199.284C151.706 200.125 150.052 200.546 147.958 200.546Z" fill="black"/>
<path d="M789.324 325.371H797.905C799.998 325.371 801.858 325.782 803.485 326.605C805.111 327.408 806.373 328.558 807.27 330.054C808.168 331.531 808.616 333.241 808.616 335.185C808.616 337.13 808.168 338.849 807.27 340.345C806.373 341.822 805.111 342.972 803.485 343.794C801.858 344.598 799.998 345 797.905 345H789.324V325.371ZM797.736 341.915C799.176 341.915 800.438 341.644 801.522 341.102C802.625 340.541 803.466 339.756 804.046 338.747C804.644 337.718 804.943 336.531 804.943 335.185C804.943 333.839 804.644 332.662 804.046 331.652C803.466 330.624 802.625 329.839 801.522 329.297C800.438 328.736 799.176 328.455 797.736 328.455H792.969V341.915H797.736ZM826.232 337.597C826.232 337.84 826.213 338.186 826.175 338.635H814.426C814.632 339.737 815.164 340.616 816.024 341.27C816.903 341.906 817.987 342.224 819.277 342.224C820.922 342.224 822.278 341.682 823.343 340.597L825.222 342.757C824.549 343.561 823.698 344.168 822.67 344.579C821.642 344.991 820.483 345.196 819.193 345.196C817.548 345.196 816.099 344.869 814.847 344.215C813.594 343.561 812.622 342.654 811.93 341.495C811.257 340.317 810.921 338.99 810.921 337.513C810.921 336.055 811.248 334.746 811.902 333.587C812.575 332.409 813.501 331.493 814.678 330.839C815.856 330.185 817.183 329.857 818.66 329.857C820.118 329.857 821.418 330.185 822.558 330.839C823.717 331.474 824.614 332.381 825.25 333.559C825.904 334.718 826.232 336.064 826.232 337.597ZM818.66 332.662C817.539 332.662 816.585 332.998 815.8 333.671C815.034 334.325 814.566 335.204 814.398 336.307H822.895C822.745 335.223 822.287 334.344 821.521 333.671C820.754 332.998 819.801 332.662 818.66 332.662ZM843.346 330.026L836.924 345H833.307L826.885 330.026H830.531L835.185 341.13L839.981 330.026H843.346ZM854.906 345.28C852.905 345.28 851.101 344.85 849.494 343.99C847.886 343.112 846.624 341.906 845.708 340.373C844.792 338.821 844.334 337.092 844.334 335.185C844.334 333.279 844.792 331.559 845.708 330.026C846.624 328.474 847.886 327.268 849.494 326.408C851.101 325.53 852.905 325.09 854.906 325.09C856.906 325.09 858.71 325.53 860.318 326.408C861.925 327.268 863.187 328.465 864.103 329.998C865.019 331.531 865.477 333.26 865.477 335.185C865.477 337.111 865.019 338.84 864.103 340.373C863.187 341.906 861.925 343.112 860.318 343.99C858.71 344.85 856.906 345.28 854.906 345.28ZM854.906 342.084C856.214 342.084 857.392 341.794 858.439 341.214C859.486 340.616 860.308 339.794 860.907 338.747C861.505 337.681 861.804 336.494 861.804 335.185C861.804 333.877 861.505 332.699 860.907 331.652C860.308 330.587 859.486 329.764 858.439 329.184C857.392 328.586 856.214 328.287 854.906 328.287C853.597 328.287 852.419 328.586 851.372 329.184C850.325 329.764 849.503 330.587 848.905 331.652C848.306 332.699 848.007 333.877 848.007 335.185C848.007 336.494 848.306 337.681 848.905 338.747C849.503 339.794 850.325 340.616 851.372 341.214C852.419 341.794 853.597 342.084 854.906 342.084ZM877.305 329.857C878.764 329.857 880.063 330.175 881.203 330.811C882.362 331.446 883.269 332.344 883.923 333.503C884.578 334.662 884.905 335.999 884.905 337.513C884.905 339.027 884.578 340.373 883.923 341.551C883.269 342.71 882.362 343.607 881.203 344.243C880.063 344.878 878.764 345.196 877.305 345.196C875.286 345.196 873.688 344.523 872.51 343.177V350.44H869.005V330.026H872.342V331.989C872.922 331.278 873.632 330.745 874.473 330.39C875.333 330.035 876.277 329.857 877.305 329.857ZM876.913 342.196C878.203 342.196 879.259 341.766 880.082 340.906C880.923 340.046 881.343 338.915 881.343 337.513C881.343 336.111 880.923 334.98 880.082 334.12C879.259 333.26 878.203 332.83 876.913 332.83C876.072 332.83 875.314 333.026 874.641 333.419C873.968 333.793 873.436 334.335 873.043 335.045C872.65 335.756 872.454 336.578 872.454 337.513C872.454 338.448 872.65 339.27 873.043 339.981C873.436 340.691 873.968 341.242 874.641 341.635C875.314 342.009 876.072 342.196 876.913 342.196ZM892.856 345.196C891.641 345.196 890.454 345.037 889.295 344.72C888.135 344.402 887.21 344 886.518 343.514L887.864 340.85C888.537 341.298 889.341 341.663 890.276 341.943C891.229 342.205 892.164 342.336 893.08 342.336C895.174 342.336 896.221 341.785 896.221 340.682C896.221 340.158 895.95 339.794 895.408 339.588C894.884 339.382 894.034 339.186 892.856 338.999C891.622 338.812 890.613 338.597 889.827 338.354C889.061 338.111 888.388 337.69 887.808 337.092C887.248 336.475 886.967 335.625 886.967 334.54C886.967 333.12 887.556 331.989 888.734 331.147C889.93 330.287 891.538 329.857 893.557 329.857C894.585 329.857 895.613 329.979 896.642 330.222C897.67 330.446 898.511 330.755 899.165 331.147L897.819 333.811C896.548 333.064 895.118 332.69 893.529 332.69C892.501 332.69 891.715 332.849 891.173 333.166C890.65 333.465 890.388 333.867 890.388 334.372C890.388 334.933 890.669 335.335 891.229 335.578C891.809 335.802 892.697 336.017 893.893 336.223C895.09 336.41 896.071 336.625 896.838 336.868C897.604 337.111 898.259 337.522 898.801 338.102C899.362 338.681 899.642 339.504 899.642 340.569C899.642 341.971 899.034 343.093 897.819 343.934C896.604 344.776 894.95 345.196 892.856 345.196Z" fill="black"/>
<path d="M111.667 337.97L111.639 324.958L105.189 335.726H103.563L97.1131 325.127V337.97H93.6359V318.34H96.6364L104.432 331.352L112.087 318.34H115.088L115.116 337.97H111.667ZM120.082 322.995H123.587V337.97H120.082V322.995ZM121.848 320.528C121.213 320.528 120.68 320.331 120.25 319.939C119.82 319.528 119.605 319.023 119.605 318.425C119.605 317.826 119.82 317.331 120.25 316.938C120.68 316.527 121.213 316.321 121.848 316.321C122.484 316.321 123.017 316.518 123.447 316.91C123.877 317.284 124.092 317.761 124.092 318.34C124.092 318.957 123.877 319.481 123.447 319.911C123.035 320.322 122.503 320.528 121.848 320.528ZM135.058 338.166C133.506 338.166 132.113 337.839 130.879 337.185C129.646 336.53 128.683 335.624 127.991 334.464C127.299 333.287 126.954 331.959 126.954 330.483C126.954 329.006 127.299 327.688 127.991 326.529C128.683 325.37 129.636 324.463 130.851 323.809C132.085 323.154 133.487 322.827 135.058 322.827C136.535 322.827 137.824 323.126 138.927 323.724C140.049 324.323 140.89 325.183 141.451 326.304L138.759 327.875C138.329 327.183 137.787 326.669 137.133 326.332C136.497 325.977 135.796 325.8 135.03 325.8C133.721 325.8 132.637 326.23 131.777 327.089C130.917 327.931 130.487 329.062 130.487 330.483C130.487 331.903 130.907 333.044 131.749 333.904C132.609 334.745 133.702 335.166 135.03 335.166C135.796 335.166 136.497 334.997 137.133 334.661C137.787 334.306 138.329 333.782 138.759 333.09L141.451 334.661C140.872 335.782 140.021 336.652 138.899 337.269C137.796 337.867 136.516 338.166 135.058 338.166ZM147.818 325.183C148.828 323.612 150.604 322.827 153.146 322.827V326.164C152.847 326.108 152.576 326.08 152.333 326.08C150.968 326.08 149.903 326.482 149.136 327.286C148.37 328.071 147.986 329.211 147.986 330.707V337.97H144.481V322.995H147.818V325.183ZM162.713 338.166C161.199 338.166 159.834 337.839 158.619 337.185C157.404 336.53 156.45 335.624 155.758 334.464C155.085 333.287 154.749 331.959 154.749 330.483C154.749 329.006 155.085 327.688 155.758 326.529C156.45 325.37 157.404 324.463 158.619 323.809C159.834 323.154 161.199 322.827 162.713 322.827C164.246 322.827 165.62 323.154 166.835 323.809C168.05 324.463 168.994 325.37 169.667 326.529C170.359 327.688 170.705 329.006 170.705 330.483C170.705 331.959 170.359 333.287 169.667 334.464C168.994 335.624 168.05 336.53 166.835 337.185C165.62 337.839 164.246 338.166 162.713 338.166ZM162.713 335.166C164.003 335.166 165.068 334.736 165.91 333.876C166.751 333.016 167.171 331.885 167.171 330.483C167.171 329.08 166.751 327.949 165.91 327.089C165.068 326.23 164.003 325.8 162.713 325.8C161.423 325.8 160.357 326.23 159.516 327.089C158.693 327.949 158.282 329.08 158.282 330.483C158.282 331.885 158.693 333.016 159.516 333.876C160.357 334.736 161.423 335.166 162.713 335.166ZM178.683 338.166C177.468 338.166 176.281 338.007 175.122 337.689C173.963 337.372 173.038 336.97 172.346 336.484L173.692 333.82C174.365 334.268 175.169 334.633 176.104 334.913C177.057 335.175 177.992 335.306 178.908 335.306C181.002 335.306 182.049 334.754 182.049 333.651C182.049 333.128 181.777 332.763 181.235 332.558C180.712 332.352 179.861 332.156 178.683 331.969C177.45 331.782 176.44 331.567 175.655 331.324C174.889 331.081 174.215 330.66 173.636 330.062C173.075 329.445 172.795 328.594 172.795 327.51C172.795 326.089 173.384 324.958 174.561 324.117C175.758 323.257 177.366 322.827 179.385 322.827C180.413 322.827 181.441 322.949 182.469 323.192C183.497 323.416 184.339 323.724 184.993 324.117L183.647 326.781C182.376 326.033 180.946 325.659 179.356 325.659C178.328 325.659 177.543 325.818 177.001 326.136C176.478 326.435 176.216 326.837 176.216 327.342C176.216 327.903 176.496 328.305 177.057 328.548C177.637 328.772 178.525 328.987 179.721 329.193C180.917 329.38 181.899 329.595 182.665 329.838C183.432 330.081 184.086 330.492 184.628 331.071C185.189 331.651 185.47 332.474 185.47 333.539C185.47 334.941 184.862 336.063 183.647 336.904C182.432 337.745 180.777 338.166 178.683 338.166ZM202.565 330.567C202.565 330.81 202.547 331.156 202.509 331.604H190.76C190.965 332.707 191.498 333.586 192.358 334.24C193.237 334.876 194.321 335.194 195.611 335.194C197.256 335.194 198.611 334.651 199.677 333.567L201.556 335.726C200.883 336.53 200.032 337.138 199.004 337.549C197.976 337.96 196.817 338.166 195.527 338.166C193.882 338.166 192.433 337.839 191.18 337.185C189.928 336.53 188.956 335.624 188.264 334.464C187.591 333.287 187.254 331.959 187.254 330.483C187.254 329.024 187.582 327.716 188.236 326.557C188.909 325.379 189.834 324.463 191.012 323.809C192.19 323.154 193.517 322.827 194.994 322.827C196.452 322.827 197.751 323.154 198.892 323.809C200.051 324.444 200.948 325.351 201.584 326.529C202.238 327.688 202.565 329.034 202.565 330.567ZM194.994 325.631C193.872 325.631 192.919 325.968 192.134 326.641C191.367 327.295 190.9 328.174 190.732 329.277H199.228C199.079 328.192 198.621 327.314 197.854 326.641C197.088 325.968 196.134 325.631 194.994 325.631ZM209.269 325.183C210.279 323.612 212.055 322.827 214.597 322.827V326.164C214.298 326.108 214.027 326.08 213.784 326.08C212.419 326.08 211.354 326.482 210.587 327.286C209.821 328.071 209.437 329.211 209.437 330.707V337.97H205.932V322.995H209.269V325.183ZM232.139 322.995L225.718 337.97H222.1L215.679 322.995H219.324L223.979 334.1L228.774 322.995H232.139ZM234.33 322.995H237.835V337.97H234.33V322.995ZM236.097 320.528C235.461 320.528 234.928 320.331 234.498 319.939C234.068 319.528 233.853 319.023 233.853 318.425C233.853 317.826 234.068 317.331 234.498 316.938C234.928 316.527 235.461 316.321 236.097 316.321C236.732 316.321 237.265 316.518 237.695 316.91C238.125 317.284 238.34 317.761 238.34 318.34C238.34 318.957 238.125 319.481 237.695 319.911C237.284 320.322 236.751 320.528 236.097 320.528ZM249.306 338.166C247.755 338.166 246.362 337.839 245.128 337.185C243.894 336.53 242.931 335.624 242.24 334.464C241.548 333.287 241.202 331.959 241.202 330.483C241.202 329.006 241.548 327.688 242.24 326.529C242.931 325.37 243.885 324.463 245.1 323.809C246.334 323.154 247.736 322.827 249.306 322.827C250.783 322.827 252.073 323.126 253.176 323.724C254.298 324.323 255.139 325.183 255.7 326.304L253.008 327.875C252.578 327.183 252.036 326.669 251.381 326.332C250.746 325.977 250.045 325.8 249.278 325.8C247.97 325.8 246.885 326.23 246.025 327.089C245.165 327.931 244.735 329.062 244.735 330.483C244.735 331.903 245.156 333.044 245.997 333.904C246.857 334.745 247.951 335.166 249.278 335.166C250.045 335.166 250.746 334.997 251.381 334.661C252.036 334.306 252.578 333.782 253.008 333.09L255.7 334.661C255.12 335.782 254.27 336.652 253.148 337.269C252.045 337.867 250.764 338.166 249.306 338.166ZM272.588 330.567C272.588 330.81 272.569 331.156 272.532 331.604H260.782C260.988 332.707 261.521 333.586 262.38 334.24C263.259 334.876 264.343 335.194 265.633 335.194C267.278 335.194 268.634 334.651 269.699 333.567L271.578 335.726C270.905 336.53 270.055 337.138 269.026 337.549C267.998 337.96 266.839 338.166 265.549 338.166C263.904 338.166 262.455 337.839 261.203 337.185C259.95 336.53 258.978 335.624 258.286 334.464C257.613 333.287 257.277 331.959 257.277 330.483C257.277 329.024 257.604 327.716 258.258 326.557C258.931 325.379 259.857 324.463 261.034 323.809C262.212 323.154 263.54 322.827 265.016 322.827C266.475 322.827 267.774 323.154 268.914 323.809C270.073 324.444 270.971 325.351 271.606 326.529C272.261 327.688 272.588 329.034 272.588 330.567ZM265.016 325.631C263.895 325.631 262.941 325.968 262.156 326.641C261.39 327.295 260.922 328.174 260.754 329.277H269.251C269.101 328.192 268.643 327.314 267.877 326.641C267.11 325.968 266.157 325.631 265.016 325.631ZM280.582 338.166C279.366 338.166 278.179 338.007 277.02 337.689C275.861 337.372 274.936 336.97 274.244 336.484L275.59 333.82C276.263 334.268 277.067 334.633 278.002 334.913C278.955 335.175 279.89 335.306 280.806 335.306C282.9 335.306 283.947 334.754 283.947 333.651C283.947 333.128 283.676 332.763 283.133 332.558C282.61 332.352 281.759 332.156 280.582 331.969C279.348 331.782 278.338 331.567 277.553 331.324C276.787 331.081 276.114 330.66 275.534 330.062C274.973 329.445 274.693 328.594 274.693 327.51C274.693 326.089 275.282 324.958 276.459 324.117C277.656 323.257 279.264 322.827 281.283 322.827C282.311 322.827 283.339 322.949 284.367 323.192C285.395 323.416 286.237 323.724 286.891 324.117L285.545 326.781C284.274 326.033 282.844 325.659 281.255 325.659C280.226 325.659 279.441 325.818 278.899 326.136C278.376 326.435 278.114 326.837 278.114 327.342C278.114 327.903 278.394 328.305 278.955 328.548C279.535 328.772 280.423 328.987 281.619 329.193C282.816 329.38 283.797 329.595 284.564 329.838C285.33 330.081 285.984 330.492 286.526 331.071C287.087 331.651 287.368 332.474 287.368 333.539C287.368 334.941 286.76 336.063 285.545 336.904C284.33 337.745 282.675 338.166 280.582 338.166Z" fill="black"/>
<path d="M761.869 201.28C759.888 201.28 758.093 200.85 756.485 199.99C754.896 199.112 753.644 197.906 752.728 196.373C751.83 194.84 751.382 193.111 751.382 191.185C751.382 189.26 751.84 187.531 752.756 185.998C753.672 184.465 754.924 183.268 756.513 182.408C758.121 181.53 759.916 181.09 761.897 181.09C763.505 181.09 764.972 181.371 766.3 181.932C767.627 182.492 768.749 183.306 769.665 184.371L767.309 186.587C765.889 185.054 764.141 184.287 762.065 184.287C760.719 184.287 759.514 184.586 758.448 185.184C757.382 185.764 756.551 186.577 755.952 187.624C755.354 188.671 755.055 189.858 755.055 191.185C755.055 192.513 755.354 193.7 755.952 194.747C756.551 195.794 757.382 196.616 758.448 197.214C759.514 197.794 760.719 198.084 762.065 198.084C764.141 198.084 765.889 197.308 767.309 195.756L769.665 198C768.749 199.065 767.618 199.878 766.272 200.439C764.944 201 763.477 201.28 761.869 201.28ZM779.004 201.196C777.489 201.196 776.125 200.869 774.909 200.215C773.694 199.561 772.741 198.654 772.049 197.495C771.376 196.317 771.04 194.99 771.04 193.513C771.04 192.036 771.376 190.718 772.049 189.559C772.741 188.4 773.694 187.493 774.909 186.839C776.125 186.185 777.489 185.857 779.004 185.857C780.537 185.857 781.911 186.185 783.126 186.839C784.341 187.493 785.285 188.4 785.958 189.559C786.65 190.718 786.996 192.036 786.996 193.513C786.996 194.99 786.65 196.317 785.958 197.495C785.285 198.654 784.341 199.561 783.126 200.215C781.911 200.869 780.537 201.196 779.004 201.196ZM779.004 198.196C780.294 198.196 781.359 197.766 782.2 196.906C783.042 196.046 783.462 194.915 783.462 193.513C783.462 192.111 783.042 190.98 782.2 190.12C781.359 189.26 780.294 188.83 779.004 188.83C777.714 188.83 776.648 189.26 775.807 190.12C774.984 190.98 774.573 192.111 774.573 193.513C774.573 194.915 774.984 196.046 775.807 196.906C776.648 197.766 777.714 198.196 779.004 198.196ZM798.844 185.857C800.732 185.857 802.246 186.409 803.387 187.512C804.527 188.615 805.097 190.251 805.097 192.419V201H801.592V192.868C801.592 191.559 801.284 190.578 800.667 189.923C800.05 189.25 799.171 188.914 798.031 188.914C796.741 188.914 795.722 189.307 794.974 190.092C794.227 190.858 793.853 191.971 793.853 193.429V201H790.347V186.026H793.684V187.961C794.264 187.269 794.993 186.745 795.872 186.39C796.75 186.035 797.741 185.857 798.844 185.857ZM818.545 200.187C818.134 200.523 817.629 200.776 817.031 200.944C816.452 201.112 815.835 201.196 815.18 201.196C813.535 201.196 812.264 200.766 811.367 199.906C810.469 199.046 810.021 197.794 810.021 196.149V188.942H807.553V186.138H810.021V182.717H813.526V186.138H817.536V188.942H813.526V196.065C813.526 196.794 813.704 197.355 814.059 197.747C814.414 198.121 814.928 198.308 815.601 198.308C816.386 198.308 817.041 198.102 817.564 197.691L818.545 200.187ZM827.149 185.857C829.355 185.857 831.038 186.39 832.197 187.456C833.375 188.503 833.964 190.092 833.964 192.223V201H830.655V199.177C830.225 199.832 829.608 200.336 828.804 200.692C828.019 201.028 827.065 201.196 825.944 201.196C824.822 201.196 823.841 201.009 822.999 200.635C822.158 200.243 821.504 199.71 821.036 199.037C820.588 198.345 820.363 197.57 820.363 196.71C820.363 195.364 820.859 194.289 821.85 193.485C822.859 192.662 824.439 192.251 826.589 192.251H830.458V192.027C830.458 190.98 830.141 190.176 829.505 189.615C828.888 189.054 827.963 188.774 826.729 188.774C825.888 188.774 825.056 188.905 824.233 189.166C823.429 189.428 822.747 189.793 822.186 190.26L820.812 187.708C821.597 187.11 822.541 186.652 823.644 186.334C824.747 186.016 825.916 185.857 827.149 185.857ZM826.673 198.644C827.551 198.644 828.327 198.448 829 198.056C829.692 197.644 830.178 197.065 830.458 196.317V194.578H826.841C824.822 194.578 823.812 195.242 823.812 196.569C823.812 197.205 824.065 197.71 824.57 198.084C825.074 198.458 825.775 198.644 826.673 198.644ZM838.462 186.026H841.967V201H838.462V186.026ZM840.229 183.558C839.593 183.558 839.06 183.362 838.63 182.969C838.2 182.558 837.985 182.053 837.985 181.455C837.985 180.857 838.2 180.361 838.63 179.969C839.06 179.557 839.593 179.352 840.229 179.352C840.864 179.352 841.397 179.548 841.827 179.941C842.257 180.314 842.472 180.791 842.472 181.371C842.472 181.988 842.257 182.511 841.827 182.941C841.416 183.352 840.883 183.558 840.229 183.558ZM855.065 185.857C856.953 185.857 858.467 186.409 859.607 187.512C860.748 188.615 861.318 190.251 861.318 192.419V201H857.813V192.868C857.813 191.559 857.504 190.578 856.887 189.923C856.27 189.25 855.392 188.914 854.251 188.914C852.962 188.914 851.943 189.307 851.195 190.092C850.447 190.858 850.073 191.971 850.073 193.429V201H846.568V186.026H849.905V187.961C850.484 187.269 851.214 186.745 852.092 186.39C852.971 186.035 853.962 185.857 855.065 185.857ZM879.978 193.597C879.978 193.84 879.96 194.186 879.922 194.635H868.173C868.379 195.737 868.911 196.616 869.771 197.27C870.65 197.906 871.734 198.224 873.024 198.224C874.669 198.224 876.025 197.682 877.09 196.597L878.969 198.757C878.296 199.561 877.445 200.168 876.417 200.579C875.389 200.991 874.23 201.196 872.94 201.196C871.295 201.196 869.846 200.869 868.594 200.215C867.341 199.561 866.369 198.654 865.677 197.495C865.004 196.317 864.668 194.99 864.668 193.513C864.668 192.055 864.995 190.746 865.649 189.587C866.322 188.409 867.248 187.493 868.425 186.839C869.603 186.185 870.93 185.857 872.407 185.857C873.865 185.857 875.165 186.185 876.305 186.839C877.464 187.474 878.361 188.381 878.997 189.559C879.651 190.718 879.978 192.064 879.978 193.597ZM872.407 188.662C871.286 188.662 870.332 188.998 869.547 189.671C868.78 190.325 868.313 191.204 868.145 192.307H876.642C876.492 191.223 876.034 190.344 875.267 189.671C874.501 188.998 873.548 188.662 872.407 188.662ZM886.682 188.213C887.692 186.643 889.468 185.857 892.01 185.857V189.194C891.711 189.138 891.44 189.11 891.197 189.11C889.832 189.11 888.767 189.512 888 190.316C887.234 191.101 886.851 192.242 886.851 193.737V201H883.345V186.026H886.682V188.213ZM899.666 201.196C898.45 201.196 897.263 201.037 896.104 200.72C894.945 200.402 894.02 200 893.328 199.514L894.674 196.85C895.347 197.298 896.151 197.663 897.086 197.943C898.039 198.205 898.974 198.336 899.89 198.336C901.984 198.336 903.031 197.785 903.031 196.682C903.031 196.158 902.76 195.794 902.217 195.588C901.694 195.382 900.843 195.186 899.666 194.999C898.432 194.812 897.422 194.597 896.637 194.354C895.871 194.111 895.198 193.69 894.618 193.092C894.057 192.475 893.777 191.625 893.777 190.54C893.777 189.12 894.366 187.989 895.543 187.147C896.74 186.287 898.348 185.857 900.367 185.857C901.395 185.857 902.423 185.979 903.451 186.222C904.479 186.446 905.321 186.755 905.975 187.147L904.629 189.811C903.358 189.064 901.928 188.69 900.339 188.69C899.31 188.69 898.525 188.849 897.983 189.166C897.46 189.465 897.198 189.867 897.198 190.372C897.198 190.933 897.478 191.335 898.039 191.578C898.619 191.802 899.507 192.017 900.703 192.223C901.9 192.41 902.881 192.625 903.648 192.868C904.414 193.111 905.068 193.522 905.61 194.102C906.171 194.681 906.452 195.504 906.452 196.569C906.452 197.971 905.844 199.093 904.629 199.934C903.414 200.776 901.759 201.196 899.666 201.196Z" fill="black"/>
<g filter="url(#filter1_d)">
<circle cx="501.5" cy="237.5" r="149.5" stroke="#FF0000" stroke-width="92"/>
</g>
<line x1="91" y1="166.439" x2="335" y2="166.439" stroke="black" stroke-width="1.12167" stroke-dasharray="4.49 4.49"/>
<line x1="91" y1="301.439" x2="330" y2="301.439" stroke="black" stroke-width="1.12167" stroke-dasharray="4.49 4.49"/>
<line x1="907" y1="167.561" x2="669" y2="167.561" stroke="black" stroke-width="1.12167" stroke-dasharray="4.49 4.49"/>
<line x1="901" y1="308.561" x2="660" y2="308.561" stroke="black" stroke-width="1.12167" stroke-dasharray="4.49 4.49"/>
<circle cx="669.048" cy="168.048" r="5.04753" fill="black"/>
<circle cx="659.192" cy="308.166" r="5.04753" fill="black"/>
<circle cx="335.34" cy="168.048" r="5.04753" fill="black"/>
<circle cx="330.542" cy="302.557" r="5.04753" fill="black"/>
<rect x="9" y="272" width="72" height="72" rx="3" fill="#F5F6F9"/>
<rect x="28.8" y="291.8" width="32.4" height="32.4" rx="3" fill="#FF0000"/>
<rect x="43.2" y="279.2" width="3.6" height="3.6" fill="#FF0000"/>
<rect x="43.2" y="333.2" width="3.6" height="3.60001" fill="#FF0000"/>
<rect x="36" y="279.2" width="3.6" height="3.6" fill="#FF0000"/>
<rect x="36" y="333.2" width="3.6" height="3.60001" fill="#FF0000"/>
<rect x="28.8" y="279.2" width="3.6" height="3.6" fill="#FF0000"/>
<rect x="28.8" y="333.2" width="3.6" height="3.60001" fill="#FF0000"/>
<rect x="50.4" y="279.2" width="3.6" height="3.6" fill="#FF0000"/>
<rect x="50.4" y="333.2" width="3.6" height="3.60001" fill="#FF0000"/>
<rect x="57.6" y="279.2" width="3.6" height="3.6" fill="#FF0000"/>
<rect x="57.6" y="333.2" width="3.6" height="3.60001" fill="#FF0000"/>
<rect x="16.2" y="308" width="3.6" height="3.6" transform="rotate(-90 16.2 308)" fill="#FF0000"/>
<rect x="70.2" y="308" width="3.6" height="3.60001" transform="rotate(-90 70.2 308)" fill="#FF0000"/>
<rect x="16.2" y="315.2" width="3.6" height="3.6" transform="rotate(-90 16.2 315.2)" fill="#FF0000"/>
<rect x="70.2" y="315.2" width="3.6" height="3.60001" transform="rotate(-90 70.2 315.2)" fill="#FF0000"/>
<rect x="16.2" y="322.4" width="3.6" height="3.6" transform="rotate(-90 16.2 322.4)" fill="#FF0000"/>
<rect x="70.2" y="322.4" width="3.6" height="3.60001" transform="rotate(-90 70.2 322.4)" fill="#FF0000"/>
<rect x="16.2" y="300.8" width="3.6" height="3.6" transform="rotate(-90 16.2 300.8)" fill="#FF0000"/>
<rect x="70.2" y="300.8" width="3.6" height="3.60001" transform="rotate(-90 70.2 300.8)" fill="#FF0000"/>
<rect x="16.2" y="293.6" width="3.6" height="3.6" transform="rotate(-90 16.2 293.6)" fill="#FF0000"/>
<rect x="70.2" y="293.6" width="3.6" height="3.60001" transform="rotate(-90 70.2 293.6)" fill="#FF0000"/>
<path fill-rule="evenodd" clip-rule="evenodd" d="M959.273 144H935.092C934.139 144 933.365 144.774 933.365 145.727V153.501H924.727C923.774 153.501 923 154.274 923 155.228V179.408C923 180.362 923.774 181.136 924.727 181.136H948.908C949.861 181.136 950.635 180.362 950.635 179.408V171.636H950.637V171.635H959.273C960.226 171.635 961 170.861 961 169.908V145.727C961 144.774 960.226 144 959.273 144ZM950.637 168.182H957.542V147.455H936.815V153.501H948.908C948.926 153.501 948.944 153.501 948.962 153.501C949.891 153.529 950.637 154.292 950.637 155.228V168.182ZM933.365 156.954H926.457V177.68H947.183V171.636H935.092C934.139 171.636 933.365 170.862 933.365 169.909V156.954Z" fill="#FD2500"/>
<path fill-rule="evenodd" clip-rule="evenodd" d="M31.7139 152.447C32.5726 152.447 33.3906 152.273 34.1346 151.959L39.782 158.413C38.0471 160.512 37.0046 163.204 37.0046 166.14C37.0046 168.258 37.5468 170.249 38.4999 171.982L31.789 177.091C30.8842 176.464 29.7858 176.096 28.6014 176.096C25.5077 176.096 23 178.604 23 181.698C23 184.792 25.5077 187.299 28.6014 187.299C31.6951 187.299 34.2028 184.792 34.2028 181.698C34.2028 181.258 34.1521 180.83 34.0563 180.419L40.9944 175.137C43.1479 177.088 46.0053 178.277 49.1403 178.277C50.571 178.277 51.9439 178.03 53.2184 177.575L57.6221 184.991C56.243 186.133 55.3646 187.858 55.3646 189.788C55.3646 193.224 58.1502 196.011 61.5875 196.011C65.0259 196.011 67.8115 193.224 67.8115 189.788C67.8115 186.351 65.0259 183.564 61.5875 183.564C61.5424 183.564 61.4975 183.565 61.4526 183.566L56.7299 175.612C58.955 173.827 60.5375 171.274 61.0755 168.355L65.858 168.685C66.8306 170.854 69.009 172.365 71.5403 172.365C74.9776 172.365 77.7643 169.578 77.7643 166.141C77.7643 162.705 74.9776 159.918 71.5403 159.918C68.6247 159.918 66.1771 161.923 65.5014 164.629L61.1426 164.328C60.6685 161.161 58.9708 158.394 56.546 156.524L59.497 149.941C62.0533 149.73 64.0626 147.589 64.0626 144.979C64.0626 142.229 61.8328 140 59.0827 140C56.3337 140 54.1039 142.229 54.1039 144.979C54.1039 146.414 54.7116 147.708 55.6835 148.616L52.9894 154.627C51.7799 154.223 50.4857 154.004 49.1403 154.004C46.8248 154.004 44.6607 154.652 42.8199 155.777L37.1353 149.281C37.6456 148.378 37.9368 147.334 37.9368 146.223C37.9368 142.787 35.1512 140 31.7139 140C28.2755 140 25.4899 142.787 25.4899 146.223C25.4899 149.66 28.2755 152.447 31.7139 152.447Z" fill="#FD2500"/>
<defs>
<filter id="filter0_d" x="434" y="183" width="142" height="110" filterUnits="userSpaceOnUse" color-interpolation-filters="sRGB">
<feFlood flood-opacity="0" result="BackgroundImageFix"/>
<feColorMatrix in="SourceAlpha" type="matrix" values="0 0 0 0 0 0 0 0 0 0 0 0 0 0 0 0 0 0 127 0"/>
<feOffset dy="4"/>
<feGaussianBlur stdDeviation="11"/>
<feColorMatrix type="matrix" values="0 0 0 0 1 0 0 0 0 0 0 0 0 0 0 0 0 0 0.05 0"/>
<feBlend mode="normal" in2="BackgroundImageFix" result="effect1_dropShadow"/>
<feBlend mode="normal" in="SourceGraphic" in2="effect1_dropShadow" result="shape"/>
</filter>
<filter id="filter1_d" x="261.133" y="11.7148" width="480.734" height="480.734" filterUnits="userSpaceOnUse" color-interpolation-filters="sRGB">
<feFlood flood-opacity="0" result="BackgroundImageFix"/>
<feColorMatrix in="SourceAlpha" type="matrix" values="0 0 0 0 0 0 0 0 0 0 0 0 0 0 0 0 0 0 127 0"/>
<feOffset dy="14.5817"/>
<feGaussianBlur stdDeviation="22.4335"/>
<feColorMatrix type="matrix" values="0 0 0 0 1 0 0 0 0 0 0 0 0 0 0 0 0 0 0.2 0"/>
<feBlend mode="normal" in2="BackgroundImageFix" result="effect1_dropShadow"/>
<feBlend mode="normal" in="SourceGraphic" in2="effect1_dropShadow" result="shape"/>
</filter>
</defs>
</svg>
