<?xml version="1.0" encoding="UTF-8"?>
<svg width="43" height="102" viewBox="0 0 43 102" fill="none" xmlns="http://www.w3.org/2000/svg">
<path id="Salesforce" fill-rule="evenodd" clip-rule="evenodd" d="M9.23337 36.6038V26.3905C9.23337 24.0242 8.57705 22.1965 7.26212 20.9075C5.94949 19.6184 4.01726 18.9739 1.46084 18.9739H0.366211V0.697266H8.4669C16.859 0.697266 23.2088 2.66916 27.5138 6.61069C31.8212 10.5522 33.9737 16.2155 33.9737 23.596V37.1401C33.9737 38.7176 34.3937 39.9008 35.2313 40.6873C36.0712 41.4783 37.2209 41.8704 38.6804 41.8704H42.2924V60.1471H38.6804C37.2209 60.1471 36.0712 60.5414 35.2313 61.3302C34.3937 62.119 33.9737 63.3021 33.9737 64.8774V78.4214C33.9737 85.8042 31.8212 91.4653 27.5138 95.4068C23.2088 99.3483 16.859 101.32 8.4669 101.32H0.366211V83.0436H1.46084C4.01726 83.0436 5.94949 82.399 7.26212 81.11C8.57705 79.8187 9.23337 77.991 9.23337 75.627V65.4137C9.23337 61.186 9.9287 57.9611 11.3125 55.739C12.7008 53.517 14.9635 51.9417 18.1005 51.0087C14.9635 50.078 12.7008 48.5005 11.3125 46.2785C9.9287 44.0587 9.23337 40.8315 9.23337 36.6038Z" fill="black"/>
</svg>
