<?xml version="1.0" encoding="UTF-8"?>
<svg width="103" height="140" viewBox="0 0 103 140" fill="none" xmlns="http://www.w3.org/2000/svg">
<path id="Agile transformation" fill-rule="evenodd" clip-rule="evenodd" d="M102.574 91.9755V0.808594H66.3419V18.8022H78.5551V44.9199C70.6622 39.9471 61.3257 37.0682 51.3301 37.0682C23.0748 37.0682 0.0878906 60.0723 0.0878906 88.3486C0.0878906 116.625 23.0748 139.631 51.3301 139.631C78.4015 139.631 100.639 118.512 102.454 91.8737L102.574 91.9755ZM24.4516 88.3482C24.4516 73.5171 36.5101 61.4496 51.3301 61.4496C66.152 61.4496 78.2086 73.5171 78.2086 88.3482C78.2086 103.181 66.152 115.249 51.3301 115.249C36.5101 115.249 24.4516 103.181 24.4516 88.3482Z" fill="black"/>
</svg>
