<?xml version="1.0" encoding="UTF-8"?>
<svg width="43" height="101" viewBox="0 0 43 101" fill="none" xmlns="http://www.w3.org/2000/svg">
<path id="Salesforce" fill-rule="evenodd" clip-rule="evenodd" d="M33.868 65.0524V75.2657C33.868 77.6319 34.5243 79.4596 35.837 80.7487C37.1519 82.0377 39.0841 82.6822 41.6382 82.6822H42.7329V100.959H34.6322C26.2401 100.959 19.8903 98.987 15.5852 95.0455C11.2802 91.1039 9.12763 85.4406 9.12763 78.0601V64.516C9.12763 62.9385 8.70539 61.7554 7.86778 60.9689C7.02788 60.1779 5.87818 59.7857 4.41868 59.7857H0.806641V41.5091H4.41868C5.87818 41.5091 7.02788 41.1147 7.86778 40.326C8.70539 39.5372 9.12763 38.3541 9.12763 36.7788V23.2347C9.12763 15.8519 11.2802 10.1909 15.5852 6.24937C19.8903 2.30783 26.2401 0.335938 34.6322 0.335938H42.7329V18.6126H41.6382C39.0841 18.6126 37.1519 19.2571 35.837 20.5462C34.5243 21.8375 33.868 23.6651 33.868 26.0292V36.2424C33.868 40.4702 33.1727 43.6951 31.7866 45.9171C30.4005 48.1392 28.1356 49.7144 25.0009 50.6474C28.1356 51.5781 30.4005 53.1557 31.7866 55.3777C33.1727 57.5975 33.868 60.8246 33.868 65.0524Z" fill="black"/>
</svg>
