<?xml version="1.0" encoding="UTF-8"?>
<svg width="205px" height="66px" viewBox="0 0 205 66" version="1.1" xmlns="http://www.w3.org/2000/svg" xmlns:xlink="http://www.w3.org/1999/xlink">
    <!-- Generator: sketchtool 57.1 (101010) - https://sketch.com -->
    <title>5D7B1ECB-B6B6-427A-9885-C5C444347C37</title>
    <desc>Created with sketchtool.</desc>
    <g id="Design" stroke="none" stroke-width="1" fill="none" fill-rule="evenodd">
        <g id="Case-Study-Branding" transform="translate(-116.000000, -462.000000)" fill="#960020">
            <path d="M320.083849,505.694457 C319.495053,505.049726 318.454477,504.433484 316.991005,503.864472 C315.817116,503.412411 315.051311,503.041317 314.714328,502.757935 C314.415116,502.509789 314.269213,502.178428 314.269213,501.745109 C314.269213,501.209083 314.477328,500.778013 314.910593,500.425661 C315.32312,500.077057 315.851185,499.906878 316.524412,499.906878 C317.487222,499.906878 318.566311,500.334949 319.732052,501.179096 L320.081627,501.43099 L320.705972,499.04024 L320.471195,498.938283 C317.68645,497.72679 314.933552,497.660068 313.051628,498.82508 C311.734058,499.636241 311.065275,500.837239 311.065275,502.392838 C311.065275,503.221241 311.300053,503.98892 311.764424,504.676383 C312.268048,505.411075 313.210862,506.048309 314.643968,506.621819 C316.003013,507.163842 316.89102,507.601659 317.281329,507.922525 C317.630163,508.210404 317.798284,508.593494 317.798284,509.092035 C317.798284,509.616816 317.609425,510.070376 317.225042,510.475207 C316.80807,510.904777 316.222978,511.11319 315.437917,511.11319 C314.785427,511.11319 314.178857,510.99249 313.635239,510.75484 C313.076809,510.510442 312.410988,510.071126 311.654071,509.451135 L311.291906,509.154259 L310.662376,511.726433 L310.865307,511.837387 C312.360626,512.650047 313.895198,513.062375 315.422364,513.062375 C317.00952,513.062375 318.295983,512.695028 319.243981,511.971581 C320.408982,511.090699 321,509.865712 321,508.330354 C321,507.249306 320.691901,506.363177 320.083849,505.694457 L320.083849,505.694457 Z M308.917467,511.650715 L308.917467,502.317869 C308.917467,501.147609 308.633808,500.21275 308.073156,499.541781 C307.21107,498.510212 305.939419,497.986931 304.295235,497.986931 C303.026547,497.986931 301.960789,498.286806 301.123144,498.877558 C300.858741,499.069478 300.599523,499.319124 300.344008,499.630244 L300.344008,498.319042 L296.923068,498.319042 L297.019349,498.695385 C297.081561,498.933785 297.112667,499.192427 297.112667,499.462314 L297.112667,511.650715 C297.112667,511.946841 297.081561,512.208482 297.02083,512.431139 L296.916402,512.811979 L300.589155,512.811979 L300.492873,512.437136 C300.42918,512.18899 300.398814,511.931098 300.398814,511.650715 L300.398814,503.529362 C300.398814,502.628989 300.654329,501.88605 301.155732,501.320037 C301.633434,500.790008 302.335545,500.532116 303.304281,500.532116 C304.062679,500.532116 304.647772,500.724036 305.043265,501.102628 C305.439498,501.48047 305.630579,502.008998 305.630579,502.720451 L305.630579,511.650715 C305.630579,511.97383 305.600954,512.233971 305.541704,512.422142 L305.419502,512.811979 L309.100401,512.811979 L309.011526,512.440885 C308.947832,512.180743 308.917467,511.922851 308.917467,511.650715 L308.917467,511.650715 Z M279.031824,494.955949 C278.681509,494.696557 278.20825,494.564613 277.62538,494.564613 C277.048434,494.564613 276.573694,494.701805 276.216713,494.970193 C275.834552,495.258822 275.640508,495.650159 275.640508,496.130707 C275.640508,496.843659 275.990083,497.695303 277.650561,497.695303 C278.223063,497.695303 278.690396,497.557361 279.037749,497.286724 C279.40732,496.999594 279.596179,496.601511 279.596179,496.104468 C279.596179,495.628418 279.402135,495.231834 279.031824,494.955949 L279.031824,494.955949 Z M279.225867,511.650715 L279.225867,499.475058 C279.225867,499.202173 279.257714,498.938283 279.318445,498.692386 L279.412504,498.319042 L275.743455,498.319042 L275.849364,498.699883 C275.910836,498.924039 275.941942,499.18343 275.941942,499.475058 L275.941942,511.650715 C275.941942,511.938595 275.910836,512.196487 275.848624,512.434887 L275.747899,512.811979 L279.408801,512.811979 L279.319926,512.440885 C279.257714,512.184492 279.225867,511.917603 279.225867,511.650715 L279.225867,511.650715 Z M272.500264,510.892032 C272.144024,510.892032 271.780378,510.780329 271.780378,509.958673 L271.780378,500.21275 L273.978549,500.21275 L273.978549,498.319042 L271.780378,498.319042 L271.780378,496.646492 C271.780378,496.484559 271.796672,496.151699 271.830741,495.651658 L271.85444,495.294057 L268.495713,495.659904 L268.495713,498.319042 L266.447148,498.319042 L266.447148,500.21275 L268.495713,500.21275 L268.495713,510.03739 C268.495713,511.044219 268.738637,511.8074 269.21708,512.30744 C269.698485,512.808231 270.44059,513.062375 271.419694,513.062375 C272.255118,513.062375 273.078691,512.866706 273.867455,512.483617 L274.034836,512.401151 L274.034836,510.27579 L273.597868,510.51644 C273.143126,510.765335 272.772814,510.892032 272.500264,510.892032 L272.500264,510.892032 Z M265.251041,498.70738 L265.368059,498.319042 L261.683457,498.319042 L261.783441,498.696134 C261.843431,498.927038 261.874538,499.18418 261.874538,499.462314 L261.874538,507.884291 C261.874538,508.67371 261.622726,509.293701 261.102808,509.780248 C260.576965,510.274291 259.900776,510.51494 259.035727,510.51494 C258.19512,510.51494 257.58929,510.273541 257.18565,509.780248 C256.879772,509.395658 256.724982,508.858133 256.724982,508.183416 L256.724982,499.462314 C256.724982,499.174434 256.754607,498.918041 256.816079,498.699883 L256.921988,498.319042 L253.249235,498.319042 L253.346998,498.695385 C253.40921,498.933785 253.440316,499.192427 253.440316,499.462314 L253.440316,508.48404 C253.440316,509.86946 253.796556,510.952757 254.497186,511.702443 C255.342978,512.605066 256.553898,513.062375 258.097357,513.062375 C259.235696,513.062375 260.201469,512.814228 260.972458,512.322434 C261.285742,512.11627 261.606432,511.82914 261.930084,511.460295 L261.930084,512.811979 L265.341397,512.811979 L265.255484,512.444633 C265.191791,512.16575 265.161425,511.907108 265.161425,511.650715 L265.161425,499.462314 C265.161425,499.157191 265.19105,498.903048 265.251041,498.70738 L265.251041,498.70738 Z M250.634093,493.401849 L250.738521,493.021758 L247.067991,493.021758 L247.164272,493.395852 C247.226484,493.637251 247.25759,493.90189 247.25759,494.182273 L247.25759,511.650715 C247.25759,511.92585 247.226484,512.184492 247.164272,512.439385 L247.070953,512.811979 L250.728893,512.811979 L250.634834,512.438635 C250.573362,512.18899 250.541515,511.923601 250.541515,511.650715 L250.541515,494.182273 C250.541515,493.885397 250.573362,493.623007 250.634093,493.401849 L250.634093,493.401849 Z M226.11649,501.734613 C224.67968,501.07414 223.720573,500.519372 223.268792,500.083054 C222.85034,499.677474 222.645928,499.168437 222.645928,498.525955 C222.645928,497.903716 222.851821,497.388681 223.270274,496.950864 C224.413056,495.770858 226.476433,495.929792 228.781994,497.545366 L229.118238,497.780767 L229.860342,495.24008 L229.622602,495.133625 C228.185052,494.488894 226.768239,494.161281 225.409195,494.161281 C222.998465,494.161281 221.22319,494.967194 220.127067,496.559528 C219.564934,497.396178 219.279794,498.342282 219.279794,499.373851 C219.279794,500.540363 219.664918,501.571931 220.421835,502.437069 C221.051365,503.168014 222.097126,503.878716 223.619848,504.61041 C225.01148,505.273883 225.889859,505.744686 226.232027,506.010824 C226.943767,506.555846 227.289638,507.249306 227.289638,508.130188 C227.289638,508.880624 227.046713,509.502864 226.548274,510.031392 C225.989103,510.612399 225.203301,510.905527 224.210866,510.905527 C223.205099,510.905527 222.251916,510.595906 221.37724,509.983413 C221.078028,509.7735 220.692163,509.46463 220.229273,509.062798 L219.878958,508.759924 L219.096119,511.551007 L219.302753,511.665709 C220.229273,512.180743 221.075806,512.54809 221.820873,512.758002 C222.570384,512.968664 223.410252,513.075869 224.315294,513.075869 C226.871186,513.075869 228.72867,512.150006 229.838864,510.326769 C230.389888,509.421897 230.669103,508.421816 230.669103,507.352763 C230.669103,506.096289 230.283238,504.975507 229.520396,504.020407 C228.910122,503.263973 227.797706,502.515786 226.11649,501.734613 L226.11649,501.734613 Z M300.038871,477.361559 L299.992953,477.606707 C299.952959,477.833112 299.884081,478.073012 299.791503,478.31516 L296.286872,486.951547 L293.322896,478.322657 C293.254018,478.139734 293.194028,477.899834 293.144406,477.609705 L293.10145,477.361559 L289.242801,477.361559 L289.458323,477.795628 C289.615335,478.112745 289.723466,478.357892 289.779013,478.53107 L294.439016,491.542627 L293.007391,494.821005 C292.925182,495.011426 292.796313,495.260322 292.623007,495.557947 L292.361567,496.010758 L294.795256,496.010758 L294.842656,495.769359 C294.890797,495.521212 294.964118,495.282063 295.058918,495.056407 L301.80674,478.542315 C301.897096,478.319658 302.02078,478.074511 302.173348,477.81437 L302.439973,477.361559 L300.038871,477.361559 Z M288.73029,490.692482 L288.73029,481.358137 C288.73029,480.187127 288.447371,479.252268 287.88746,478.581299 C287.025374,477.54973 285.754464,477.027949 284.11028,477.027949 C282.843813,477.027949 281.778056,477.326324 280.938929,477.917077 C280.676749,478.106747 280.416049,478.358642 280.159053,478.672761 L280.159053,477.361559 L276.733669,477.361559 L276.834394,477.738651 C276.896606,477.974803 276.927712,478.231195 276.927712,478.502582 L276.927712,490.692482 C276.927712,490.990108 276.896606,491.250999 276.835134,491.470657 L276.727744,491.852997 L280.402718,491.852997 L280.306437,491.476654 C280.244965,491.240503 280.213859,490.975864 280.213859,490.692482 L280.213859,482.57113 C280.213859,481.657262 280.462708,480.934564 280.971517,480.361804 C281.443294,479.839273 282.166883,479.573134 283.119325,479.573134 C283.874761,479.573134 284.459854,479.765054 284.857569,480.142896 C285.253802,480.521487 285.445624,481.051516 285.445624,481.763718 L285.445624,490.692482 C285.445624,491.015597 285.415258,491.274989 285.355268,491.460911 L285.230103,491.852997 L288.914705,491.852997 L288.82583,491.481902 C288.762136,491.218762 288.73029,490.96087 288.73029,490.692482 L288.73029,490.692482 Z M284.723516,505.354849 C284.723516,507.26505 285.064943,508.79366 285.736689,509.898698 C285.97591,510.290034 286.298082,510.607901 286.695797,510.841054 C287.09129,511.074206 287.511964,511.189658 287.932638,511.188912 C288.351831,511.188912 288.772505,511.072707 289.165776,510.841054 C289.563491,510.606402 289.887884,510.289285 290.127846,509.897199 C290.79737,508.79366 291.137316,507.283042 291.137316,505.407327 C291.137316,503.507622 290.79737,501.992505 290.127846,500.90546 C289.865666,500.481887 289.554604,500.16552 289.190217,499.952609 C288.825089,499.740447 288.406637,499.630993 287.927454,499.623496 C287.714154,499.623496 287.503076,499.652734 287.295702,499.711959 C287.089068,499.770435 286.885396,499.858148 286.68765,499.9736 C286.287713,500.208252 285.96406,500.528368 285.724098,500.927951 C285.558199,501.200087 285.413037,501.496963 285.287871,501.819328 C285.038281,502.461809 284.870159,503.203249 284.786469,504.03615 C284.744253,504.452976 284.723516,504.893042 284.723516,505.354849 L284.723516,505.354849 Z M294.559738,505.420821 C294.559738,507.765091 293.918358,509.646054 292.652632,511.012732 C291.466894,512.296195 289.8827,512.945423 287.943007,512.945423 C285.859633,512.945423 284.219151,512.232472 283.069704,510.82681 C281.896556,509.406154 281.301094,507.517694 281.301094,505.211659 C281.301094,503.097543 281.88915,501.333531 283.047485,499.969102 C284.20582,498.603923 285.844079,497.898468 287.917085,497.86923 C290.03749,497.86923 291.7113,498.608421 292.897038,500.063562 C293.999826,501.418995 294.559738,503.220492 294.559738,505.420821 L294.559738,505.420821 Z M235.137285,505.259639 C235.137285,507.16909 235.478713,508.69845 236.150459,509.802738 C236.38968,510.194824 236.711851,510.511941 237.109566,510.745844 C237.505059,510.978246 237.924993,511.093698 238.345667,511.093698 C238.7656,511.092948 239.186275,510.977497 239.578805,510.745844 C239.97652,510.510442 240.300172,510.193325 240.541616,509.801988 C241.21114,508.69845 241.551086,507.187832 241.551086,505.312117 C241.551086,503.411662 241.21114,501.897295 240.541616,500.8095 C240.279435,500.386677 239.968373,500.06956 239.603246,499.857399 C239.238859,499.644488 238.818925,499.535783 238.341223,499.527537 C238.127923,499.527537 237.916846,499.557524 237.709471,499.616749 C237.502097,499.675225 237.299166,499.762188 237.101419,499.87839 C236.700742,500.112292 236.377089,500.433158 236.137127,500.832741 C235.971968,501.104877 235.826065,501.401752 235.7009,501.723368 C235.45205,502.367349 235.283929,503.108039 235.200238,503.94094 C235.158023,504.357766 235.137285,504.797082 235.137285,505.259639 L235.137285,505.259639 Z M244.973507,505.324861 C244.973507,507.669131 244.332127,509.550843 243.066402,510.916772 C241.880663,512.200235 240.296469,512.850213 238.356036,512.850213 C236.272661,512.850213 234.632921,512.137262 233.482732,510.73085 C232.309585,509.310194 231.714864,507.421734 231.714864,505.116449 C231.714864,503.001583 232.302178,501.237571 233.461254,499.873142 C234.618849,498.507963 236.256368,497.802508 238.330854,497.77477 C240.45126,497.77477 242.124328,498.513211 243.310067,499.968352 C244.413596,501.323035 244.973507,503.124532 244.973507,505.324861 L244.973507,505.324861 Z M264.889616,484.512818 C264.889616,486.422269 265.230303,487.951629 265.902789,489.057416 C266.142011,489.448003 266.463441,489.76512 266.861156,489.999023 C267.256649,490.231425 267.677323,490.346877 268.097998,490.346877 C268.517931,490.346877 268.937124,490.230676 269.331136,489.999023 C269.728851,489.764371 270.052503,489.446504 270.292465,489.055917 C270.96273,487.951629 271.302676,486.441011 271.302676,484.565296 C271.302676,482.664841 270.96273,481.150474 270.292465,480.064179 C270.031025,479.639856 269.719963,479.322739 269.355577,479.110577 C268.990449,478.897667 268.571256,478.788962 268.092813,478.781465 C267.880254,478.781465 267.669177,478.811453 267.461061,478.869928 C267.254427,478.928404 267.051497,479.015367 266.853009,479.131569 C266.453073,479.366221 266.12868,479.687086 265.889458,480.085919 C265.723558,480.358056 265.578396,480.655681 265.453231,480.976547 C265.2029,481.620527 265.03626,482.361218 264.952569,483.194119 C264.910354,483.610945 264.889616,484.051011 264.889616,484.512818 L264.889616,484.512818 Z M274.725838,484.57804 C274.725838,486.92231 274.083718,488.804022 272.818732,490.169951 C271.632994,491.453414 270.047319,492.103392 268.108366,492.103392 C266.024992,492.103392 264.384511,491.39044 263.235063,489.984029 C262.061915,488.563373 261.466454,486.675663 261.466454,484.370377 C261.466454,482.254762 262.053769,480.49075 263.212844,479.127071 C264.370439,477.761892 266.008699,477.055687 268.082445,477.027949 C270.20285,477.027949 271.876659,477.76639 273.062398,479.221531 C274.165927,480.576214 274.725838,482.377711 274.725838,484.57804 L274.725838,484.57804 Z M255.881412,491.469907 L255.773281,491.852997 L259.446033,491.852997 L259.351974,491.478903 C259.289761,491.228508 259.259396,490.970616 259.259396,490.692482 L259.259396,481.345393 C259.259396,479.985461 258.843165,478.911161 258.022554,478.155477 C257.210831,477.40729 256.059902,477.027949 254.601614,477.027949 C253.65806,477.027949 252.835227,477.205624 252.159778,477.557227 C251.679113,477.805373 251.21252,478.167472 250.768146,478.641274 L250.768146,473.222541 C250.768146,472.934661 250.799252,472.670771 250.860724,472.440618 L250.961449,472.062026 L247.291659,472.062026 L247.392384,472.440618 C247.453115,472.670771 247.484962,472.934661 247.484962,473.222541 L247.484962,490.692482 C247.484962,490.964619 247.453115,491.230008 247.390903,491.478903 L247.297584,491.852997 L250.955524,491.852997 L250.862205,491.478903 C250.799252,491.230008 250.768146,490.964619 250.768146,490.692482 L250.768146,482.492413 C250.768146,481.629524 251.008849,480.931566 251.502104,480.361054 C251.964994,479.837773 252.687102,479.573134 253.648431,479.573134 C254.455711,479.573134 255.048951,479.780797 255.414078,480.189376 C255.78513,480.607701 255.973249,481.299662 255.973249,482.245016 L255.973249,490.692482 C255.973249,490.996105 255.942143,491.256996 255.881412,491.469907 L255.881412,491.469907 Z M241.154852,480.503495 C240.969696,480.172133 240.700109,479.899997 240.354979,479.694583 C240.009848,479.492168 239.626946,479.380465 239.217381,479.364721 C238.784116,479.366221 238.375292,479.471177 237.968689,479.687836 C237.563568,479.908244 237.248803,480.193125 237.009582,480.561221 C236.720739,480.986293 236.52003,481.500578 236.408936,482.094329 C236.291177,482.705324 236.231927,483.590703 236.231927,484.72198 C236.231927,485.895989 236.305249,486.812855 236.450411,487.453088 C236.589648,488.070829 236.839979,488.627096 237.191775,489.106896 C237.665774,489.725387 238.274567,490.02901 239.055925,490.02901 C239.960967,490.02901 240.637156,489.594942 241.123746,488.703564 C241.632554,487.765707 241.891773,486.377288 241.891773,484.581039 C241.891773,482.754053 241.644404,481.381378 241.154852,480.503495 L241.154852,480.503495 Z M245.300122,484.395866 C245.300122,486.887074 244.757986,488.837009 243.690007,490.190193 C243.213045,490.783944 242.607956,491.255497 241.891032,491.592856 C241.171146,491.931714 240.409044,492.103392 239.623243,492.103392 C238.347889,492.103392 237.238435,491.652081 236.315618,490.759205 L236.315618,494.864487 C236.315618,495.147869 236.346724,495.405011 236.408196,495.630667 L236.511142,496.010758 L232.842834,496.010758 L232.936893,495.636664 C232.999105,495.387768 233.030211,495.127627 233.030211,494.864487 L233.030211,478.515326 C233.030211,478.252936 232.999105,477.989047 232.935412,477.732654 L232.845055,477.361559 L236.274143,477.361559 L236.274143,478.74698 C237.260653,477.604458 238.504901,477.027949 239.983186,477.027949 C241.483689,477.027949 242.729418,477.611954 243.684822,478.764222 C244.238809,479.432943 244.652817,480.235857 244.914257,481.150474 C245.171254,482.050847 245.300122,483.143141 245.300122,484.395866 L245.300122,484.395866 Z M226.776386,491.478154 L226.681586,491.852997 L230.34471,491.852997 L230.248429,491.476654 C230.186217,491.236755 230.155111,490.973615 230.155111,490.692482 L230.155111,481.226942 C230.155111,478.479342 228.679788,477.027949 225.889119,477.027949 C224.981114,477.027949 224.186425,477.182384 223.525789,477.485257 C222.951065,477.747648 222.359307,478.179467 221.761623,478.76947 C221.375759,478.213953 220.910647,477.791879 220.375917,477.516744 C219.75009,477.19213 218.95466,477.027949 218.011106,477.027949 C216.572815,477.027949 215.35597,477.510747 214.38205,478.465847 L214.38205,477.361559 L210.952222,477.361559 L211.061094,477.74315 C211.122566,477.960559 211.154412,478.216202 211.154412,478.502582 L211.154412,490.692482 C211.154412,490.965368 211.121825,491.230008 211.058872,491.478154 L210.964072,491.852997 L214.627196,491.852997 L214.530915,491.476654 C214.468703,491.236755 214.437597,490.973615 214.437597,490.692482 L214.437597,481.787708 C214.437597,481.115989 214.660524,480.594207 215.11897,480.189376 C215.584082,479.780797 216.214353,479.573134 216.992748,479.573134 C217.768181,479.573134 218.312539,479.794291 218.659892,480.2516 C218.874673,480.534232 218.983544,481.01628 218.983544,481.684251 L218.983544,490.692482 C218.983544,490.98561 218.952438,491.24725 218.890966,491.472906 L218.78802,491.852997 L222.465956,491.852997 L222.362269,491.472156 C222.300057,491.248 222.268951,490.98561 222.268951,490.692482 L222.268951,481.99687 C222.268951,481.20745 222.483731,480.621196 222.926624,480.202871 C223.370998,479.784546 224.017563,479.573134 224.846321,479.573134 C225.683225,479.573134 226.261652,479.792792 226.562346,480.226111 C226.766017,480.523736 226.869704,481.013282 226.869704,481.684251 L226.869704,490.692482 C226.869704,490.968367 226.839339,491.233756 226.776386,491.478154 L226.776386,491.478154 Z M208.11119,477.608206 C208.072678,477.828614 208.00454,478.067764 207.90974,478.31516 L204.407331,486.951547 L201.440393,478.322657 C201.372997,478.141233 201.313747,477.908081 201.262644,477.609705 L201.220428,477.361559 L197.361779,477.361559 L197.57656,477.795628 C197.734313,478.112745 197.841703,478.357892 197.89651,478.53107 L202.557994,491.541127 L201.124147,494.821755 C201.041197,495.015174 200.909366,495.270817 200.741245,495.557947 L200.479805,496.010758 L202.917197,496.010758 L202.962375,495.76711 C203.008294,495.523462 203.080134,495.284312 203.175674,495.056407 L209.927199,478.541566 C210.013852,478.324906 210.137536,478.080508 210.293808,477.81437 L210.558951,477.361559 L208.155627,477.361559 L208.11119,477.608206 Z M193.232803,480.775631 C191.788587,480.112908 190.83096,479.55814 190.383624,479.124822 C189.965912,478.720741 189.762241,478.211703 189.762241,477.568473 C189.762241,476.946233 189.965912,476.430449 190.384364,475.992632 C191.532331,474.808877 193.59793,474.973058 195.894604,476.584134 L196.231588,476.820286 L196.975174,474.281098 L196.738174,474.173893 C195.299883,473.530662 193.88233,473.203798 192.523285,473.203798 C190.112556,473.203798 188.33654,474.008962 187.245602,475.601296 C186.679765,476.437946 186.393885,477.384799 186.393885,478.414869 C186.393885,479.577632 186.777528,480.609201 187.536667,481.480336 C188.162494,482.203784 189.23936,482.933228 190.736161,483.649929 C192.126311,484.3149 193.00395,484.786453 193.34834,485.051842 C194.057857,485.594615 194.402988,486.287325 194.402988,487.170456 C194.402988,487.920892 194.160064,488.543881 193.663846,489.07166 C193.098009,489.659415 192.332204,489.945045 191.324216,489.945045 C190.316227,489.945045 189.363045,489.635425 188.492071,489.022181 C188.195822,488.815268 187.821066,488.516143 187.344105,488.104565 L186.99453,487.803191 L186.209469,490.592774 L186.416844,490.708976 C187.346326,491.22401 188.195081,491.590607 188.934964,491.79902 C189.683735,492.009681 190.52212,492.116137 191.430866,492.116137 C193.987498,492.116137 195.844982,491.191024 196.952955,489.366287 C197.503979,488.462165 197.783194,487.462084 197.783194,486.393031 C197.783194,485.136557 197.397329,484.016525 196.633746,483.062174 C196.024213,482.30724 194.911796,481.559053 193.232803,480.775631 L193.232803,480.775631 Z M144.858232,462.762916 C136.82617,464.795316 132.029891,472.34016 132.354284,480.899329 C132.711265,490.319139 138.196323,498.716376 147.399312,499.475808 C157.248124,500.287719 161.297114,506.085043 161.360807,512.324683 C161.449682,520.902595 153.807187,526.318329 145.538866,525.185553 C136.980219,524.013793 128.230492,518.577068 123.534198,511.324601 C118.616457,503.730278 117.472935,493.859907 120.338407,485.286494 C121.632277,481.415863 123.687507,477.800126 126.313758,474.694175 C126.611489,474.341822 128.350473,472.635536 128.531185,471.975812 C128.777072,471.076188 127.700206,470.330251 126.950695,470.718588 C126.024175,471.196888 123.902288,473.618375 123.376445,474.242864 C122.03962,475.834448 120.976084,477.648689 119.976983,479.475675 C117.920271,483.241349 116.636771,487.437344 116.182768,491.711306 C115.245879,500.544861 117.935084,509.611568 123.694173,516.343752 C129.3081,522.905757 138.083008,527.793712 146.79126,527.993129 C157.454758,528.237526 164.652879,521.936412 165.452012,513.259542 C166.230407,504.810576 162.282143,493.884647 153.125814,491.389691 C146.487604,489.580698 143.189607,490.625011 138.535529,484.079499 C135.727084,480.127902 134.99757,469.199723 145.393703,465.568992 C153.520566,462.72993 163.707103,467.084108 169.850575,473.150571 C175.64003,478.86618 178.990611,487.204192 178.973577,495.355532 C178.963208,499.888136 177.616014,504.1576 175.676321,508.241141 C174.013621,511.739178 172.007271,514.544505 169.221045,517.287607 C169.186977,517.321343 169.161055,517.372322 169.13143,517.416553 C168.877396,517.652704 168.712978,517.985565 168.714459,518.361908 C168.716681,519.074859 169.289923,519.638624 169.993516,519.64762 C170.791167,519.659615 172.312408,518.005057 173.098951,517.151914 C175.902211,514.114934 178.115935,510.521687 179.602366,506.651057 C181.236182,502.398086 181.931627,497.79876 181.701293,493.244415 C180.912529,475.581804 163.266432,458.105115 144.858232,462.762916 L144.858232,462.762916 Z M128.552663,478.365389 C118.588314,490.65125 121.845576,510.412233 136.526958,518.251704 C140.219707,520.223379 145.221879,521.872689 149.430102,521.2497 C153.831628,520.598222 157.065931,517.5425 157.437724,512.826223 C157.732492,509.08154 155.337316,505.676464 152.514058,504.545187 C149.84337,503.475385 146.932719,503.323948 144.204262,502.441567 C134.265834,499.228412 127.962386,491.27274 128.220864,480.307077 C128.236417,479.658598 128.427498,479.002623 128.552663,478.365389 L128.552663,478.365389 Z M169.382501,509.590577 C169.640979,498.624914 163.336791,490.669242 153.398363,487.456086 C150.670646,486.574455 147.759255,486.423018 145.089307,485.352466 C142.265309,484.22119 139.870133,480.816114 140.165641,477.071431 C140.537434,472.355153 143.770256,469.299432 148.173264,468.647954 C152.380746,468.024965 157.383659,469.675025 161.075667,471.64595 C175.757789,479.485421 179.015052,499.246404 169.050702,511.532265 C169.175867,510.895031 169.366948,510.239056 169.382501,509.590577 L169.382501,509.590577 Z" id="Logo-SS"></path>
        </g>
    </g>
</svg>