<svg width="79" height="79" viewBox="0 0 79 79" fill="none" xmlns="http://www.w3.org/2000/svg">
<circle cx="39.5" cy="39.5" r="39.5" fill="white"/>
<mask id="path-2-outside-1_7066_35154" maskUnits="userSpaceOnUse" x="18.5273" y="18.8242" width="43" height="42" fill="black">
<rect fill="white" x="18.5273" y="18.8242" width="43" height="42"/>
<path fill-rule="evenodd" clip-rule="evenodd" d="M42.3371 19.8774C40.56 20.1216 38.7271 20.8889 37.2881 21.9911C36.7229 22.424 35.7812 23.3558 35.3818 23.8772L35.1693 24.1547L34.8165 23.9014C34.2782 23.5149 33.4115 23.1051 32.7071 22.9041C31.8758 22.6667 30.2651 22.6493 29.4661 22.8691C27.5408 23.3988 26.0237 24.6673 25.1801 26.453C24.7118 27.4444 24.6135 27.9376 24.6306 29.212C24.6389 29.8293 24.6567 30.4376 24.6702 30.5638C24.6933 30.7807 24.6657 30.8029 24.1574 30.9751C20.6398 32.1669 18.6884 36.0856 19.8756 39.5729C20.676 41.9234 22.4551 43.5289 24.9352 44.1383C25.4196 44.2574 25.9611 44.2769 28.8827 44.2808L32.2688 44.2853L32.4874 44.0669C32.769 43.7857 32.7839 43.3704 32.5223 43.0921L32.3388 42.8968L28.9578 42.8604C26.2255 42.8311 25.4844 42.7999 25.0956 42.6978C22.5431 42.0277 20.8295 39.7154 20.989 37.1563C21.0785 35.7214 21.5728 34.64 22.6105 33.6095C23.4189 32.8065 24.2457 32.3694 25.3905 32.1398C26.5144 31.9143 26.5614 31.8095 26.1791 30.3779C25.7329 28.7072 26.2441 26.8666 27.5042 25.6068C29.4129 23.6985 32.4422 23.6448 34.4714 25.4835C34.9315 25.9004 35.0449 25.9648 35.3184 25.9648C35.6656 25.9648 35.5999 26.029 36.5175 24.7925C39.7367 20.4544 46.1535 20.0412 50.0342 23.9219C51.126 25.0138 51.9686 26.4901 52.3774 28.0272C52.5552 28.6962 52.5893 29.0105 52.6098 30.1717C52.6247 31.0217 52.6694 31.5989 52.7287 31.7098C52.8643 31.963 53.1343 32.0403 54.0453 32.0865C55.3515 32.1528 56.4338 32.6058 57.3862 33.4849C60.5268 36.3834 59.1902 41.5943 55.0233 42.6968C54.5974 42.8095 53.8549 42.8329 49.8238 42.8608L45.1211 42.8935L44.936 43.0905C44.6731 43.3704 44.6871 43.7849 44.9692 44.0669L45.1875 44.2853L49.2154 44.3088C53.8683 44.336 54.7918 44.2826 55.8653 43.9246C60.7068 42.3099 62.1646 36.2199 58.5698 32.6259C57.5076 31.5639 56.2232 30.9145 54.7342 30.6866L54.1067 30.5906L54.0642 29.7008C53.8368 24.9428 50.3859 20.9723 45.625 19.9911C44.8504 19.8315 43.1094 19.7713 42.3371 19.8774ZM29.41 31.4812C28.6092 31.767 28.0426 32.2887 27.6802 33.0741C27.5351 33.3886 27.5015 33.6046 27.5015 34.223C27.5015 34.9076 27.5255 35.0321 27.7384 35.4527C28.167 36.2995 29.0118 36.9011 30.0038 37.0662C30.3703 37.1271 31.1366 36.9994 31.4888 36.8187L31.7073 36.7066L33.1929 38.487L34.6787 40.2675V44.0603V47.8531H32.5109C30.2081 47.8531 29.8982 47.8962 29.7131 48.242C29.5637 48.5211 29.6108 48.887 29.8234 49.0995L30.0202 49.2963H32.8261H35.632L35.857 49.1029L36.082 48.9094L36.1065 44.5929C36.1199 42.2189 36.1097 40.1321 36.0838 39.9557C36.0441 39.6855 35.78 39.327 34.4055 37.6782L32.7743 35.7215L32.9795 35.2735C33.2507 34.6813 33.2588 33.8355 32.9998 33.1609C32.7666 32.5536 32.1782 31.9157 31.5782 31.6197C30.9628 31.3162 30.038 31.2571 29.41 31.4812ZM46.6058 31.5259C46.3513 31.6332 46.0153 31.8184 45.8591 31.9375C45.4913 32.218 45.0496 32.8194 44.9312 33.2008L44.8378 33.5015H41.3985H37.9593L37.7625 33.6983L37.5656 33.895V43.3997V52.9043H30.3482H23.1308V51.7927V50.6811L23.4961 50.5416C24.3603 50.2117 25.1463 49.1549 25.2625 48.1665C25.363 47.3107 24.9199 46.2141 24.2654 45.6993C23.6058 45.1804 23.3221 45.0869 22.4091 45.0877C21.6774 45.0882 21.5146 45.1141 21.1661 45.2855C20.6242 45.5521 20.0391 46.1538 19.7791 46.7117C19.5962 47.1042 19.565 47.2775 19.5662 47.8932C19.5675 48.5172 19.5979 48.6771 19.7908 49.0749C20.0803 49.6715 20.6179 50.2027 21.2117 50.4789L21.6857 50.6994L21.6866 52.2481C21.6874 53.8119 21.7218 54.0302 22.0012 54.2447C22.1734 54.3769 38.3739 54.3926 38.6202 54.2609C39.0187 54.0476 39.0091 54.2934 39.0091 44.2878V34.9446H41.9214H44.8337L45.0119 35.3745C45.6135 36.8257 47.4825 37.4979 48.9023 36.7737C49.3895 36.5252 49.971 35.9324 50.2146 35.4358C50.409 35.0397 50.436 34.8918 50.4363 34.223C50.4365 33.5647 50.4076 33.3994 50.2225 33.0047C49.7555 32.0086 48.838 31.4074 47.7101 31.3586C47.1707 31.3352 46.9948 31.3618 46.6058 31.5259ZM30.9929 32.9418C31.3398 33.1188 31.6671 33.5575 31.7492 33.9557C31.8288 34.3423 31.6648 34.8297 31.3887 35.0263C31.2575 35.1197 31.1502 35.2434 31.1502 35.3012C31.1502 35.4588 30.6781 35.6269 30.2535 35.6204C29.5359 35.6095 28.9048 34.9595 28.9048 34.2315C28.9048 33.1347 30.0203 32.4458 30.9929 32.9418ZM48.1737 32.8903C49.4459 33.4344 49.2336 35.3652 47.8736 35.6203C46.9263 35.798 46.0046 34.8498 46.2149 33.914C46.4139 33.0286 47.3516 32.5385 48.1737 32.8903ZM41.6618 36.5149C40.8521 36.8089 40.1729 37.4575 39.8939 38.203C39.6691 38.8037 39.6734 39.6758 39.9042 40.2934C40.1253 40.885 40.8789 41.6657 41.4317 41.8759L41.8094 42.0195L41.8327 45.4645L41.856 48.9095L42.081 49.1029L42.306 49.2963H50.5061C58.6328 49.2963 58.7079 49.2949 58.8809 49.1337C59.2652 48.7758 59.1948 48.2236 58.7357 47.9936C58.4753 47.8631 57.9312 47.8534 50.8576 47.8533L43.2593 47.8531V44.9708V42.0886L43.7677 41.846C44.3579 41.5644 44.9497 40.9767 45.2097 40.4141C45.3524 40.1053 45.3845 39.8887 45.3845 39.2341C45.3845 38.4731 45.3705 38.4066 45.1096 37.9255C44.8006 37.3557 44.3192 36.8916 43.7578 36.6225C43.2575 36.3826 42.1786 36.3272 41.6618 36.5149ZM43.3126 38.0349C44.1458 38.5231 44.2202 39.7822 43.4505 40.3691C42.372 41.1915 40.9065 40.2517 41.1933 38.9214C41.3964 37.9791 42.4588 37.5347 43.3126 38.0349ZM23.0612 46.619C23.5578 46.8683 23.9209 47.5843 23.8209 48.1171C23.6993 48.7655 23.1903 49.2248 22.5332 49.2793C21.9846 49.3248 21.6939 49.2114 21.3319 48.8107C20.2903 47.658 21.6637 45.9173 23.0612 46.619ZM42.3371 51.5356C41.8485 51.7395 41.7236 52.3383 42.0929 52.7074L42.2897 52.9043H45.4551H48.6205L49.9952 55.3089C50.7512 56.6314 51.4475 57.7679 51.5426 57.8344C51.6894 57.9372 52.1832 57.9554 54.8311 57.9554H57.947L58.1814 57.7211C58.4753 57.4273 58.4899 57.0884 58.2224 56.7773L58.0289 56.5523L55.1832 56.5294L52.3374 56.5065L51.0261 54.2058C50.3049 52.9404 49.6369 51.8142 49.5414 51.7032L49.368 51.5012L45.9327 51.4849C44.0434 51.476 42.4253 51.4988 42.3371 51.5356ZM42.6776 54.43C41.8315 54.6421 41.0733 55.2633 40.7104 56.0417L40.4927 56.5088L31.6444 56.5306L22.7962 56.5523L22.6026 56.7773C22.335 57.0884 22.3497 57.4273 22.6435 57.7211L22.8779 57.9554L31.6853 57.9568L40.4927 57.9582L40.683 58.3977C40.9582 59.0333 41.4118 59.5079 42.039 59.8166C42.5243 60.0555 42.642 60.0801 43.2977 60.0801C43.9164 60.0801 44.0882 60.0487 44.4839 59.8633C45.0768 59.5855 45.6732 58.9743 45.911 58.4008L46.0956 57.9554H47.353C48.6047 57.9554 48.6113 57.9545 48.8219 57.7441C49.0968 57.4692 49.104 57.0845 48.8399 56.7773L48.6465 56.5523L47.3609 56.5268L46.0752 56.5013L45.9348 56.1337C45.7305 55.5989 45.0465 54.8967 44.4842 54.6444C43.9615 54.4098 43.1446 54.3129 42.6776 54.43ZM43.6779 55.8744C44.3119 56.0504 44.7028 56.5847 44.7028 57.2754C44.7028 57.7208 44.5621 58.0115 44.1873 58.3404C43.2893 59.1288 41.8775 58.4518 41.8775 57.2328C41.8775 56.6375 42.1979 56.1702 42.7787 55.9184C43.1141 55.773 43.283 55.7648 43.6779 55.8744Z"/>
</mask>
<path fill-rule="evenodd" clip-rule="evenodd" d="M42.3371 19.8774C40.56 20.1216 38.7271 20.8889 37.2881 21.9911C36.7229 22.424 35.7812 23.3558 35.3818 23.8772L35.1693 24.1547L34.8165 23.9014C34.2782 23.5149 33.4115 23.1051 32.7071 22.9041C31.8758 22.6667 30.2651 22.6493 29.4661 22.8691C27.5408 23.3988 26.0237 24.6673 25.1801 26.453C24.7118 27.4444 24.6135 27.9376 24.6306 29.212C24.6389 29.8293 24.6567 30.4376 24.6702 30.5638C24.6933 30.7807 24.6657 30.8029 24.1574 30.9751C20.6398 32.1669 18.6884 36.0856 19.8756 39.5729C20.676 41.9234 22.4551 43.5289 24.9352 44.1383C25.4196 44.2574 25.9611 44.2769 28.8827 44.2808L32.2688 44.2853L32.4874 44.0669C32.769 43.7857 32.7839 43.3704 32.5223 43.0921L32.3388 42.8968L28.9578 42.8604C26.2255 42.8311 25.4844 42.7999 25.0956 42.6978C22.5431 42.0277 20.8295 39.7154 20.989 37.1563C21.0785 35.7214 21.5728 34.64 22.6105 33.6095C23.4189 32.8065 24.2457 32.3694 25.3905 32.1398C26.5144 31.9143 26.5614 31.8095 26.1791 30.3779C25.7329 28.7072 26.2441 26.8666 27.5042 25.6068C29.4129 23.6985 32.4422 23.6448 34.4714 25.4835C34.9315 25.9004 35.0449 25.9648 35.3184 25.9648C35.6656 25.9648 35.5999 26.029 36.5175 24.7925C39.7367 20.4544 46.1535 20.0412 50.0342 23.9219C51.126 25.0138 51.9686 26.4901 52.3774 28.0272C52.5552 28.6962 52.5893 29.0105 52.6098 30.1717C52.6247 31.0217 52.6694 31.5989 52.7287 31.7098C52.8643 31.963 53.1343 32.0403 54.0453 32.0865C55.3515 32.1528 56.4338 32.6058 57.3862 33.4849C60.5268 36.3834 59.1902 41.5943 55.0233 42.6968C54.5974 42.8095 53.8549 42.8329 49.8238 42.8608L45.1211 42.8935L44.936 43.0905C44.6731 43.3704 44.6871 43.7849 44.9692 44.0669L45.1875 44.2853L49.2154 44.3088C53.8683 44.336 54.7918 44.2826 55.8653 43.9246C60.7068 42.3099 62.1646 36.2199 58.5698 32.6259C57.5076 31.5639 56.2232 30.9145 54.7342 30.6866L54.1067 30.5906L54.0642 29.7008C53.8368 24.9428 50.3859 20.9723 45.625 19.9911C44.8504 19.8315 43.1094 19.7713 42.3371 19.8774ZM29.41 31.4812C28.6092 31.767 28.0426 32.2887 27.6802 33.0741C27.5351 33.3886 27.5015 33.6046 27.5015 34.223C27.5015 34.9076 27.5255 35.0321 27.7384 35.4527C28.167 36.2995 29.0118 36.9011 30.0038 37.0662C30.3703 37.1271 31.1366 36.9994 31.4888 36.8187L31.7073 36.7066L33.1929 38.487L34.6787 40.2675V44.0603V47.8531H32.5109C30.2081 47.8531 29.8982 47.8962 29.7131 48.242C29.5637 48.5211 29.6108 48.887 29.8234 49.0995L30.0202 49.2963H32.8261H35.632L35.857 49.1029L36.082 48.9094L36.1065 44.5929C36.1199 42.2189 36.1097 40.1321 36.0838 39.9557C36.0441 39.6855 35.78 39.327 34.4055 37.6782L32.7743 35.7215L32.9795 35.2735C33.2507 34.6813 33.2588 33.8355 32.9998 33.1609C32.7666 32.5536 32.1782 31.9157 31.5782 31.6197C30.9628 31.3162 30.038 31.2571 29.41 31.4812ZM46.6058 31.5259C46.3513 31.6332 46.0153 31.8184 45.8591 31.9375C45.4913 32.218 45.0496 32.8194 44.9312 33.2008L44.8378 33.5015H41.3985H37.9593L37.7625 33.6983L37.5656 33.895V43.3997V52.9043H30.3482H23.1308V51.7927V50.6811L23.4961 50.5416C24.3603 50.2117 25.1463 49.1549 25.2625 48.1665C25.363 47.3107 24.9199 46.2141 24.2654 45.6993C23.6058 45.1804 23.3221 45.0869 22.4091 45.0877C21.6774 45.0882 21.5146 45.1141 21.1661 45.2855C20.6242 45.5521 20.0391 46.1538 19.7791 46.7117C19.5962 47.1042 19.565 47.2775 19.5662 47.8932C19.5675 48.5172 19.5979 48.6771 19.7908 49.0749C20.0803 49.6715 20.6179 50.2027 21.2117 50.4789L21.6857 50.6994L21.6866 52.2481C21.6874 53.8119 21.7218 54.0302 22.0012 54.2447C22.1734 54.3769 38.3739 54.3926 38.6202 54.2609C39.0187 54.0476 39.0091 54.2934 39.0091 44.2878V34.9446H41.9214H44.8337L45.0119 35.3745C45.6135 36.8257 47.4825 37.4979 48.9023 36.7737C49.3895 36.5252 49.971 35.9324 50.2146 35.4358C50.409 35.0397 50.436 34.8918 50.4363 34.223C50.4365 33.5647 50.4076 33.3994 50.2225 33.0047C49.7555 32.0086 48.838 31.4074 47.7101 31.3586C47.1707 31.3352 46.9948 31.3618 46.6058 31.5259ZM30.9929 32.9418C31.3398 33.1188 31.6671 33.5575 31.7492 33.9557C31.8288 34.3423 31.6648 34.8297 31.3887 35.0263C31.2575 35.1197 31.1502 35.2434 31.1502 35.3012C31.1502 35.4588 30.6781 35.6269 30.2535 35.6204C29.5359 35.6095 28.9048 34.9595 28.9048 34.2315C28.9048 33.1347 30.0203 32.4458 30.9929 32.9418ZM48.1737 32.8903C49.4459 33.4344 49.2336 35.3652 47.8736 35.6203C46.9263 35.798 46.0046 34.8498 46.2149 33.914C46.4139 33.0286 47.3516 32.5385 48.1737 32.8903ZM41.6618 36.5149C40.8521 36.8089 40.1729 37.4575 39.8939 38.203C39.6691 38.8037 39.6734 39.6758 39.9042 40.2934C40.1253 40.885 40.8789 41.6657 41.4317 41.8759L41.8094 42.0195L41.8327 45.4645L41.856 48.9095L42.081 49.1029L42.306 49.2963H50.5061C58.6328 49.2963 58.7079 49.2949 58.8809 49.1337C59.2652 48.7758 59.1948 48.2236 58.7357 47.9936C58.4753 47.8631 57.9312 47.8534 50.8576 47.8533L43.2593 47.8531V44.9708V42.0886L43.7677 41.846C44.3579 41.5644 44.9497 40.9767 45.2097 40.4141C45.3524 40.1053 45.3845 39.8887 45.3845 39.2341C45.3845 38.4731 45.3705 38.4066 45.1096 37.9255C44.8006 37.3557 44.3192 36.8916 43.7578 36.6225C43.2575 36.3826 42.1786 36.3272 41.6618 36.5149ZM43.3126 38.0349C44.1458 38.5231 44.2202 39.7822 43.4505 40.3691C42.372 41.1915 40.9065 40.2517 41.1933 38.9214C41.3964 37.9791 42.4588 37.5347 43.3126 38.0349ZM23.0612 46.619C23.5578 46.8683 23.9209 47.5843 23.8209 48.1171C23.6993 48.7655 23.1903 49.2248 22.5332 49.2793C21.9846 49.3248 21.6939 49.2114 21.3319 48.8107C20.2903 47.658 21.6637 45.9173 23.0612 46.619ZM42.3371 51.5356C41.8485 51.7395 41.7236 52.3383 42.0929 52.7074L42.2897 52.9043H45.4551H48.6205L49.9952 55.3089C50.7512 56.6314 51.4475 57.7679 51.5426 57.8344C51.6894 57.9372 52.1832 57.9554 54.8311 57.9554H57.947L58.1814 57.7211C58.4753 57.4273 58.4899 57.0884 58.2224 56.7773L58.0289 56.5523L55.1832 56.5294L52.3374 56.5065L51.0261 54.2058C50.3049 52.9404 49.6369 51.8142 49.5414 51.7032L49.368 51.5012L45.9327 51.4849C44.0434 51.476 42.4253 51.4988 42.3371 51.5356ZM42.6776 54.43C41.8315 54.6421 41.0733 55.2633 40.7104 56.0417L40.4927 56.5088L31.6444 56.5306L22.7962 56.5523L22.6026 56.7773C22.335 57.0884 22.3497 57.4273 22.6435 57.7211L22.8779 57.9554L31.6853 57.9568L40.4927 57.9582L40.683 58.3977C40.9582 59.0333 41.4118 59.5079 42.039 59.8166C42.5243 60.0555 42.642 60.0801 43.2977 60.0801C43.9164 60.0801 44.0882 60.0487 44.4839 59.8633C45.0768 59.5855 45.6732 58.9743 45.911 58.4008L46.0956 57.9554H47.353C48.6047 57.9554 48.6113 57.9545 48.8219 57.7441C49.0968 57.4692 49.104 57.0845 48.8399 56.7773L48.6465 56.5523L47.3609 56.5268L46.0752 56.5013L45.9348 56.1337C45.7305 55.5989 45.0465 54.8967 44.4842 54.6444C43.9615 54.4098 43.1446 54.3129 42.6776 54.43ZM43.6779 55.8744C44.3119 56.0504 44.7028 56.5847 44.7028 57.2754C44.7028 57.7208 44.5621 58.0115 44.1873 58.3404C43.2893 59.1288 41.8775 58.4518 41.8775 57.2328C41.8775 56.6375 42.1979 56.1702 42.7787 55.9184C43.1141 55.773 43.283 55.7648 43.6779 55.8744Z" fill="black"/>
<path fill-rule="evenodd" clip-rule="evenodd" d="M42.3371 19.8774C40.56 20.1216 38.7271 20.8889 37.2881 21.9911C36.7229 22.424 35.7812 23.3558 35.3818 23.8772L35.1693 24.1547L34.8165 23.9014C34.2782 23.5149 33.4115 23.1051 32.7071 22.9041C31.8758 22.6667 30.2651 22.6493 29.4661 22.8691C27.5408 23.3988 26.0237 24.6673 25.1801 26.453C24.7118 27.4444 24.6135 27.9376 24.6306 29.212C24.6389 29.8293 24.6567 30.4376 24.6702 30.5638C24.6933 30.7807 24.6657 30.8029 24.1574 30.9751C20.6398 32.1669 18.6884 36.0856 19.8756 39.5729C20.676 41.9234 22.4551 43.5289 24.9352 44.1383C25.4196 44.2574 25.9611 44.2769 28.8827 44.2808L32.2688 44.2853L32.4874 44.0669C32.769 43.7857 32.7839 43.3704 32.5223 43.0921L32.3388 42.8968L28.9578 42.8604C26.2255 42.8311 25.4844 42.7999 25.0956 42.6978C22.5431 42.0277 20.8295 39.7154 20.989 37.1563C21.0785 35.7214 21.5728 34.64 22.6105 33.6095C23.4189 32.8065 24.2457 32.3694 25.3905 32.1398C26.5144 31.9143 26.5614 31.8095 26.1791 30.3779C25.7329 28.7072 26.2441 26.8666 27.5042 25.6068C29.4129 23.6985 32.4422 23.6448 34.4714 25.4835C34.9315 25.9004 35.0449 25.9648 35.3184 25.9648C35.6656 25.9648 35.5999 26.029 36.5175 24.7925C39.7367 20.4544 46.1535 20.0412 50.0342 23.9219C51.126 25.0138 51.9686 26.4901 52.3774 28.0272C52.5552 28.6962 52.5893 29.0105 52.6098 30.1717C52.6247 31.0217 52.6694 31.5989 52.7287 31.7098C52.8643 31.963 53.1343 32.0403 54.0453 32.0865C55.3515 32.1528 56.4338 32.6058 57.3862 33.4849C60.5268 36.3834 59.1902 41.5943 55.0233 42.6968C54.5974 42.8095 53.8549 42.8329 49.8238 42.8608L45.1211 42.8935L44.936 43.0905C44.6731 43.3704 44.6871 43.7849 44.9692 44.0669L45.1875 44.2853L49.2154 44.3088C53.8683 44.336 54.7918 44.2826 55.8653 43.9246C60.7068 42.3099 62.1646 36.2199 58.5698 32.6259C57.5076 31.5639 56.2232 30.9145 54.7342 30.6866L54.1067 30.5906L54.0642 29.7008C53.8368 24.9428 50.3859 20.9723 45.625 19.9911C44.8504 19.8315 43.1094 19.7713 42.3371 19.8774ZM29.41 31.4812C28.6092 31.767 28.0426 32.2887 27.6802 33.0741C27.5351 33.3886 27.5015 33.6046 27.5015 34.223C27.5015 34.9076 27.5255 35.0321 27.7384 35.4527C28.167 36.2995 29.0118 36.9011 30.0038 37.0662C30.3703 37.1271 31.1366 36.9994 31.4888 36.8187L31.7073 36.7066L33.1929 38.487L34.6787 40.2675V44.0603V47.8531H32.5109C30.2081 47.8531 29.8982 47.8962 29.7131 48.242C29.5637 48.5211 29.6108 48.887 29.8234 49.0995L30.0202 49.2963H32.8261H35.632L35.857 49.1029L36.082 48.9094L36.1065 44.5929C36.1199 42.2189 36.1097 40.1321 36.0838 39.9557C36.0441 39.6855 35.78 39.327 34.4055 37.6782L32.7743 35.7215L32.9795 35.2735C33.2507 34.6813 33.2588 33.8355 32.9998 33.1609C32.7666 32.5536 32.1782 31.9157 31.5782 31.6197C30.9628 31.3162 30.038 31.2571 29.41 31.4812ZM46.6058 31.5259C46.3513 31.6332 46.0153 31.8184 45.8591 31.9375C45.4913 32.218 45.0496 32.8194 44.9312 33.2008L44.8378 33.5015H41.3985H37.9593L37.7625 33.6983L37.5656 33.895V43.3997V52.9043H30.3482H23.1308V51.7927V50.6811L23.4961 50.5416C24.3603 50.2117 25.1463 49.1549 25.2625 48.1665C25.363 47.3107 24.9199 46.2141 24.2654 45.6993C23.6058 45.1804 23.3221 45.0869 22.4091 45.0877C21.6774 45.0882 21.5146 45.1141 21.1661 45.2855C20.6242 45.5521 20.0391 46.1538 19.7791 46.7117C19.5962 47.1042 19.565 47.2775 19.5662 47.8932C19.5675 48.5172 19.5979 48.6771 19.7908 49.0749C20.0803 49.6715 20.6179 50.2027 21.2117 50.4789L21.6857 50.6994L21.6866 52.2481C21.6874 53.8119 21.7218 54.0302 22.0012 54.2447C22.1734 54.3769 38.3739 54.3926 38.6202 54.2609C39.0187 54.0476 39.0091 54.2934 39.0091 44.2878V34.9446H41.9214H44.8337L45.0119 35.3745C45.6135 36.8257 47.4825 37.4979 48.9023 36.7737C49.3895 36.5252 49.971 35.9324 50.2146 35.4358C50.409 35.0397 50.436 34.8918 50.4363 34.223C50.4365 33.5647 50.4076 33.3994 50.2225 33.0047C49.7555 32.0086 48.838 31.4074 47.7101 31.3586C47.1707 31.3352 46.9948 31.3618 46.6058 31.5259ZM30.9929 32.9418C31.3398 33.1188 31.6671 33.5575 31.7492 33.9557C31.8288 34.3423 31.6648 34.8297 31.3887 35.0263C31.2575 35.1197 31.1502 35.2434 31.1502 35.3012C31.1502 35.4588 30.6781 35.6269 30.2535 35.6204C29.5359 35.6095 28.9048 34.9595 28.9048 34.2315C28.9048 33.1347 30.0203 32.4458 30.9929 32.9418ZM48.1737 32.8903C49.4459 33.4344 49.2336 35.3652 47.8736 35.6203C46.9263 35.798 46.0046 34.8498 46.2149 33.914C46.4139 33.0286 47.3516 32.5385 48.1737 32.8903ZM41.6618 36.5149C40.8521 36.8089 40.1729 37.4575 39.8939 38.203C39.6691 38.8037 39.6734 39.6758 39.9042 40.2934C40.1253 40.885 40.8789 41.6657 41.4317 41.8759L41.8094 42.0195L41.8327 45.4645L41.856 48.9095L42.081 49.1029L42.306 49.2963H50.5061C58.6328 49.2963 58.7079 49.2949 58.8809 49.1337C59.2652 48.7758 59.1948 48.2236 58.7357 47.9936C58.4753 47.8631 57.9312 47.8534 50.8576 47.8533L43.2593 47.8531V44.9708V42.0886L43.7677 41.846C44.3579 41.5644 44.9497 40.9767 45.2097 40.4141C45.3524 40.1053 45.3845 39.8887 45.3845 39.2341C45.3845 38.4731 45.3705 38.4066 45.1096 37.9255C44.8006 37.3557 44.3192 36.8916 43.7578 36.6225C43.2575 36.3826 42.1786 36.3272 41.6618 36.5149ZM43.3126 38.0349C44.1458 38.5231 44.2202 39.7822 43.4505 40.3691C42.372 41.1915 40.9065 40.2517 41.1933 38.9214C41.3964 37.9791 42.4588 37.5347 43.3126 38.0349ZM23.0612 46.619C23.5578 46.8683 23.9209 47.5843 23.8209 48.1171C23.6993 48.7655 23.1903 49.2248 22.5332 49.2793C21.9846 49.3248 21.6939 49.2114 21.3319 48.8107C20.2903 47.658 21.6637 45.9173 23.0612 46.619ZM42.3371 51.5356C41.8485 51.7395 41.7236 52.3383 42.0929 52.7074L42.2897 52.9043H45.4551H48.6205L49.9952 55.3089C50.7512 56.6314 51.4475 57.7679 51.5426 57.8344C51.6894 57.9372 52.1832 57.9554 54.8311 57.9554H57.947L58.1814 57.7211C58.4753 57.4273 58.4899 57.0884 58.2224 56.7773L58.0289 56.5523L55.1832 56.5294L52.3374 56.5065L51.0261 54.2058C50.3049 52.9404 49.6369 51.8142 49.5414 51.7032L49.368 51.5012L45.9327 51.4849C44.0434 51.476 42.4253 51.4988 42.3371 51.5356ZM42.6776 54.43C41.8315 54.6421 41.0733 55.2633 40.7104 56.0417L40.4927 56.5088L31.6444 56.5306L22.7962 56.5523L22.6026 56.7773C22.335 57.0884 22.3497 57.4273 22.6435 57.7211L22.8779 57.9554L31.6853 57.9568L40.4927 57.9582L40.683 58.3977C40.9582 59.0333 41.4118 59.5079 42.039 59.8166C42.5243 60.0555 42.642 60.0801 43.2977 60.0801C43.9164 60.0801 44.0882 60.0487 44.4839 59.8633C45.0768 59.5855 45.6732 58.9743 45.911 58.4008L46.0956 57.9554H47.353C48.6047 57.9554 48.6113 57.9545 48.8219 57.7441C49.0968 57.4692 49.104 57.0845 48.8399 56.7773L48.6465 56.5523L47.3609 56.5268L46.0752 56.5013L45.9348 56.1337C45.7305 55.5989 45.0465 54.8967 44.4842 54.6444C43.9615 54.4098 43.1446 54.3129 42.6776 54.43ZM43.6779 55.8744C44.3119 56.0504 44.7028 56.5847 44.7028 57.2754C44.7028 57.7208 44.5621 58.0115 44.1873 58.3404C43.2893 59.1288 41.8775 58.4518 41.8775 57.2328C41.8775 56.6375 42.1979 56.1702 42.7787 55.9184C43.1141 55.773 43.283 55.7648 43.6779 55.8744Z" stroke="black" stroke-width="0.278973" mask="url(#path-2-outside-1_7066_35154)"/>
</svg>
