<svg width="79" height="79" viewBox="0 0 79 79" fill="none" xmlns="http://www.w3.org/2000/svg">
<circle cx="39.5" cy="39.5" r="39.5" fill="white"/>
<path fill-rule="evenodd" clip-rule="evenodd" d="M21.7912 21.1659C21.683 21.2105 21.5058 21.3453 21.3975 21.4657C21.2022 21.6828 21.2007 21.8231 21.2007 39.979V58.2736L21.4736 58.5464L21.7465 58.8194H40.0491H58.3518L58.6246 58.5464L58.8975 58.2736V39.9709V21.6683L58.6246 21.3954L58.3518 21.1225L40.1699 21.1037C30.1699 21.0934 21.8995 21.1214 21.7912 21.1659ZM56.8306 24.2229V25.2564L48.7597 25.3056C42.7877 25.342 40.6377 25.3851 40.492 25.4715C40.3838 25.5358 39.4319 26.4548 38.3769 27.5138L36.4585 29.4394H29.8385H23.2184V26.3555C23.2184 24.6592 23.248 23.2418 23.2843 23.2056C23.3206 23.1694 30.8833 23.1509 40.0905 23.1645L56.8306 23.1894V24.2229ZM25.6715 25.5933C25.1863 26.0784 25.3118 26.9014 25.921 27.2295C26.5496 27.5681 27.2996 27.1828 27.4166 26.4613C27.5718 25.5049 26.3617 24.903 25.6715 25.5933ZM29.9809 25.504C29.6048 25.7998 29.4729 26.2876 29.6527 26.7178C29.8022 27.0757 30.2319 27.3725 30.6003 27.3725C30.9687 27.3725 31.3984 27.0757 31.5479 26.7178C31.8303 26.042 31.3361 25.3056 30.6003 25.3056C30.3812 25.3056 30.1314 25.3856 29.9809 25.504ZM34.2834 25.4183C33.9505 25.5798 33.7192 26.0628 33.784 26.4613C33.901 27.1828 34.651 27.5681 35.2796 27.2295C36.1929 26.7377 35.8805 25.2943 34.8648 25.3123C34.6576 25.3159 34.396 25.3635 34.2834 25.4183ZM56.8555 42.0625L56.8306 56.7524H40.0491H23.2676L23.2426 44.1786L23.2176 31.6048H30.1175C36.0459 31.6048 37.0612 31.584 37.3284 31.4572C37.4995 31.376 38.5245 30.4238 39.6062 29.341L41.5728 27.3725H49.2267H56.8805L56.8555 42.0625ZM37.346 33.8833C37.1866 34.0087 36.8787 34.5207 36.5907 35.1395C36.1221 36.1461 36.0855 36.1942 35.5816 36.4579C35.0636 36.7292 35.047 36.7311 33.7858 36.6644C32.5383 36.5986 32.5077 36.6019 32.2468 36.8323C31.8553 37.1783 29.7145 40.9371 29.7145 41.2786C29.7145 41.6224 29.7745 41.7364 30.5081 42.7849C31.05 43.5595 31.0924 43.6596 31.0924 44.163C31.0924 44.6632 31.0423 44.7837 30.4527 45.7018C29.9872 46.4265 29.8129 46.7887 29.8129 47.0313C29.8129 47.521 32.0789 51.4319 32.4841 51.6414C32.7327 51.7699 32.9421 51.7759 33.9499 51.6832L35.1257 51.5751L35.678 51.9C36.2001 52.207 36.2537 52.2761 36.6559 53.1599C36.89 53.6742 37.1904 54.2168 37.3236 54.3656L37.5658 54.6363H39.984C41.7033 54.6363 42.4797 54.6008 42.671 54.5137C42.8766 54.42 43.0613 54.1337 43.4561 53.2967C43.9561 52.2366 43.9899 52.1924 44.5277 51.8888L45.0831 51.5754L46.2135 51.6806C47.1742 51.7699 47.3913 51.7633 47.659 51.6363C48.0246 51.4628 47.9106 51.6312 49.2996 49.2123C50.0528 47.9005 50.3838 47.229 50.3838 47.0129C50.3838 46.7879 50.1928 46.426 49.6948 45.7071C49.044 44.7677 49.0058 44.6822 49.0058 44.1663C49.0058 43.6563 49.046 43.563 49.6128 42.7552C50.3073 41.7656 50.4385 41.48 50.3528 41.1447C50.2566 40.7691 48.0429 36.99 47.7983 36.784C47.5982 36.6155 47.4624 36.6047 46.2772 36.6634L44.9758 36.7276L44.4476 36.4296C43.9422 36.1443 43.8989 36.0865 43.4406 35.0848C42.7648 33.6073 42.924 33.6725 39.9886 33.6721C37.7085 33.6717 37.6044 33.6801 37.346 33.8833ZM41.9128 36.6821C42.1509 37.201 42.4379 37.6803 42.5507 37.747C42.6635 37.8138 43.1443 38.1003 43.6191 38.3835L44.4824 38.8986L45.5495 38.8311L46.6166 38.7635L47.1848 39.7363C47.4972 40.2713 47.8183 40.823 47.8981 40.9623C48.0379 41.206 48.0206 41.247 47.434 42.0672L46.8247 42.919L46.8572 44.1762L46.8897 45.4335L47.4802 46.2591C47.805 46.7132 48.0585 47.1264 48.0435 47.1775C48.0238 47.2444 46.8343 49.371 46.6935 49.591C46.6852 49.604 46.1846 49.5643 45.5812 49.5029L44.484 49.3912L43.7183 49.882C43.2972 50.1519 42.8296 50.4481 42.6793 50.54C42.5007 50.6494 42.246 51.0296 41.9436 51.6383L41.4811 52.5694H40.046H38.6108L38.1734 51.6589C37.7056 50.685 37.7428 50.7205 36.3617 49.9277L35.6177 49.5007L34.5328 49.534L33.4479 49.5674L32.7519 48.3652L32.0558 47.163L32.5422 46.4943C33.263 45.5033 33.2578 45.52 33.2578 44.1773V42.9574L32.6609 42.102L32.0641 41.2466L32.7667 40.0182L33.4694 38.7898L34.5831 38.8534L35.6966 38.917L36.4704 38.4151C37.6985 37.6185 37.8148 37.4969 38.2225 36.5817L38.5982 35.7386H40.0391H41.48L41.9128 36.6821ZM38.9768 40.1267C38.1893 40.3384 37.5309 40.7352 36.9962 41.3203C35.4797 42.9796 35.4834 45.3977 37.0048 47.0064C37.8654 47.9163 38.828 48.3371 40.0491 48.3371C41.2702 48.3371 42.2329 47.9163 43.0934 47.0064C44.6173 45.395 44.621 42.9822 43.1021 41.3203C42.0731 40.1945 40.46 39.7278 38.9768 40.1267ZM41.0782 42.3677C42.2045 42.9797 42.4591 44.5657 41.5898 45.5559C40.2603 47.07 37.8342 45.9882 38.0028 43.9563C38.127 42.4586 39.7259 41.6327 41.0782 42.3677Z" fill="black"/>
</svg>
