<svg width="79" height="79" viewBox="0 0 79 79" fill="none" xmlns="http://www.w3.org/2000/svg">
<circle cx="39.5" cy="39.5" r="39.5" fill="white"/>
<mask id="path-2-outside-1_7066_35152" maskUnits="userSpaceOnUse" x="22.4487" y="18.0352" width="33" height="44" fill="black">
<rect fill="white" x="22.4487" y="18.0352" width="33" height="44"/>
<path fill-rule="evenodd" clip-rule="evenodd" d="M28.741 19.101C28.2153 19.2261 27.4487 19.6785 27.0755 20.084C26.8858 20.2903 26.6101 20.7137 26.463 21.0247L26.1955 21.5903L26.1686 24.0247L26.1417 26.4592H25.0027C23.9061 26.4592 23.8559 26.4669 23.6562 26.667L23.4487 26.8748V37.6363V48.3977L23.6562 48.6055C23.8559 48.8057 23.9059 48.8134 25.0052 48.8134H26.1467L26.1711 53.6233L26.1955 58.4331L26.5112 59.0728C26.8914 59.8434 27.3809 60.3235 28.1665 60.6963L28.7311 60.9643H38.9999H49.2688L49.8333 60.6963C50.6189 60.3235 51.1084 59.8434 51.4886 59.0728L51.8043 58.4331L51.8287 53.6233L51.8531 48.8134H52.9946C54.0939 48.8134 54.1439 48.8057 54.3436 48.6055L54.5511 48.3977V37.6363V26.8748L54.3436 26.667C54.1439 26.4669 54.0938 26.4592 52.9972 26.4592H51.8581L51.8312 24.0247L51.8043 21.5903L51.5368 21.0247C51.1646 20.2376 50.6854 19.7472 49.9162 19.3663L49.2776 19.0501L39.1733 19.0365C33.2535 19.0286 28.9332 19.0554 28.741 19.101ZM49.0899 20.4655C49.5542 20.6029 50.2543 21.3044 50.3915 21.7695C50.4605 22.0034 50.4943 22.8319 50.4943 24.2886V26.4592H38.9999H27.5056V24.2886C27.5056 22.8319 27.5394 22.0034 27.6083 21.7695C27.7355 21.3382 28.443 20.6042 28.8578 20.4732C29.303 20.3326 48.6162 20.3253 49.0899 20.4655ZM35.8267 22.9252C35.6959 23.0562 35.6192 23.2298 35.6192 23.3947C35.6192 23.5597 35.6959 23.7333 35.8267 23.8643L36.0341 24.0721H38.9999H41.9657L42.1731 23.8643C42.3039 23.7333 42.3806 23.5597 42.3806 23.3947C42.3806 23.2298 42.3039 23.0562 42.1731 22.9252L41.9657 22.7173H38.9999H36.0341L35.8267 22.9252ZM43.9404 22.9252C43.5211 23.3452 43.8182 24.0721 44.409 24.0721C44.7565 24.0721 45.0852 23.7428 45.0852 23.3947C45.0852 23.0466 44.7565 22.7173 44.409 22.7173C44.2444 22.7173 44.0711 22.7941 43.9404 22.9252ZM53.1988 29.8462V31.8784H38.9999H24.801V29.8462V27.814H38.9999H53.1988V29.8462ZM53.1988 40.3459V47.4586H38.9999H24.801V40.3459V33.2332H38.9999H53.1988V40.3459ZM40.622 34.7362C40.4228 34.9081 36.2952 44.5247 36.2953 44.8163C36.2954 45.2964 37.0059 45.5996 37.3779 45.2782C37.577 45.1062 41.7046 35.4897 41.7045 35.1981C41.7044 34.7179 40.9939 34.4148 40.622 34.7362ZM31.7547 37.8289C30.0341 39.5526 29.872 39.7399 29.872 40.0049C29.872 40.2693 30.0325 40.4561 31.7018 42.1348C32.7514 43.1903 33.6217 43.9976 33.7432 44.0282C34.2192 44.1478 34.6981 43.6694 34.5622 43.2099C34.5301 43.1017 33.8329 42.3368 33.0129 41.5102L31.5219 40.0072L33.0129 38.5042C33.8329 37.6776 34.5301 36.9126 34.5622 36.8044C34.6862 36.385 34.3061 35.9428 33.8214 35.9428C33.6941 35.9428 33.0561 36.5251 31.7547 37.8289ZM43.7636 36.0418C43.5622 36.1396 43.3948 36.4494 43.3948 36.7248C43.3948 36.8468 43.899 37.414 44.9343 38.4567L46.4737 40.0072L44.9343 41.5577C43.5744 42.9274 43.3948 43.1402 43.3948 43.3821C43.3948 43.7504 43.7168 44.0716 44.0862 44.0716C44.3338 44.0716 44.5589 43.875 46.2452 42.1855C47.9715 40.456 48.1278 40.2751 48.1278 40.0072C48.1278 39.7393 47.9715 39.5584 46.2452 37.8289C44.2856 35.8657 44.2216 35.8197 43.7636 36.0418ZM50.4943 56.0645C50.4943 57.2553 50.4583 58.0183 50.3915 58.2449C50.2543 58.71 49.5542 59.4114 49.0899 59.5489C48.587 59.6977 29.4128 59.6977 28.9099 59.5489C28.4456 59.4114 27.7455 58.71 27.6083 58.2449C27.5416 58.0183 27.5056 57.2553 27.5056 56.0645V48.8134H38.9999H50.4943V56.0645Z"/>
</mask>
<path fill-rule="evenodd" clip-rule="evenodd" d="M28.741 19.101C28.2153 19.2261 27.4487 19.6785 27.0755 20.084C26.8858 20.2903 26.6101 20.7137 26.463 21.0247L26.1955 21.5903L26.1686 24.0247L26.1417 26.4592H25.0027C23.9061 26.4592 23.8559 26.4669 23.6562 26.667L23.4487 26.8748V37.6363V48.3977L23.6562 48.6055C23.8559 48.8057 23.9059 48.8134 25.0052 48.8134H26.1467L26.1711 53.6233L26.1955 58.4331L26.5112 59.0728C26.8914 59.8434 27.3809 60.3235 28.1665 60.6963L28.7311 60.9643H38.9999H49.2688L49.8333 60.6963C50.6189 60.3235 51.1084 59.8434 51.4886 59.0728L51.8043 58.4331L51.8287 53.6233L51.8531 48.8134H52.9946C54.0939 48.8134 54.1439 48.8057 54.3436 48.6055L54.5511 48.3977V37.6363V26.8748L54.3436 26.667C54.1439 26.4669 54.0938 26.4592 52.9972 26.4592H51.8581L51.8312 24.0247L51.8043 21.5903L51.5368 21.0247C51.1646 20.2376 50.6854 19.7472 49.9162 19.3663L49.2776 19.0501L39.1733 19.0365C33.2535 19.0286 28.9332 19.0554 28.741 19.101ZM49.0899 20.4655C49.5542 20.6029 50.2543 21.3044 50.3915 21.7695C50.4605 22.0034 50.4943 22.8319 50.4943 24.2886V26.4592H38.9999H27.5056V24.2886C27.5056 22.8319 27.5394 22.0034 27.6083 21.7695C27.7355 21.3382 28.443 20.6042 28.8578 20.4732C29.303 20.3326 48.6162 20.3253 49.0899 20.4655ZM35.8267 22.9252C35.6959 23.0562 35.6192 23.2298 35.6192 23.3947C35.6192 23.5597 35.6959 23.7333 35.8267 23.8643L36.0341 24.0721H38.9999H41.9657L42.1731 23.8643C42.3039 23.7333 42.3806 23.5597 42.3806 23.3947C42.3806 23.2298 42.3039 23.0562 42.1731 22.9252L41.9657 22.7173H38.9999H36.0341L35.8267 22.9252ZM43.9404 22.9252C43.5211 23.3452 43.8182 24.0721 44.409 24.0721C44.7565 24.0721 45.0852 23.7428 45.0852 23.3947C45.0852 23.0466 44.7565 22.7173 44.409 22.7173C44.2444 22.7173 44.0711 22.7941 43.9404 22.9252ZM53.1988 29.8462V31.8784H38.9999H24.801V29.8462V27.814H38.9999H53.1988V29.8462ZM53.1988 40.3459V47.4586H38.9999H24.801V40.3459V33.2332H38.9999H53.1988V40.3459ZM40.622 34.7362C40.4228 34.9081 36.2952 44.5247 36.2953 44.8163C36.2954 45.2964 37.0059 45.5996 37.3779 45.2782C37.577 45.1062 41.7046 35.4897 41.7045 35.1981C41.7044 34.7179 40.9939 34.4148 40.622 34.7362ZM31.7547 37.8289C30.0341 39.5526 29.872 39.7399 29.872 40.0049C29.872 40.2693 30.0325 40.4561 31.7018 42.1348C32.7514 43.1903 33.6217 43.9976 33.7432 44.0282C34.2192 44.1478 34.6981 43.6694 34.5622 43.2099C34.5301 43.1017 33.8329 42.3368 33.0129 41.5102L31.5219 40.0072L33.0129 38.5042C33.8329 37.6776 34.5301 36.9126 34.5622 36.8044C34.6862 36.385 34.3061 35.9428 33.8214 35.9428C33.6941 35.9428 33.0561 36.5251 31.7547 37.8289ZM43.7636 36.0418C43.5622 36.1396 43.3948 36.4494 43.3948 36.7248C43.3948 36.8468 43.899 37.414 44.9343 38.4567L46.4737 40.0072L44.9343 41.5577C43.5744 42.9274 43.3948 43.1402 43.3948 43.3821C43.3948 43.7504 43.7168 44.0716 44.0862 44.0716C44.3338 44.0716 44.5589 43.875 46.2452 42.1855C47.9715 40.456 48.1278 40.2751 48.1278 40.0072C48.1278 39.7393 47.9715 39.5584 46.2452 37.8289C44.2856 35.8657 44.2216 35.8197 43.7636 36.0418ZM50.4943 56.0645C50.4943 57.2553 50.4583 58.0183 50.3915 58.2449C50.2543 58.71 49.5542 59.4114 49.0899 59.5489C48.587 59.6977 29.4128 59.6977 28.9099 59.5489C28.4456 59.4114 27.7455 58.71 27.6083 58.2449C27.5416 58.0183 27.5056 57.2553 27.5056 56.0645V48.8134H38.9999H50.4943V56.0645Z" fill="black"/>
<path fill-rule="evenodd" clip-rule="evenodd" d="M28.741 19.101C28.2153 19.2261 27.4487 19.6785 27.0755 20.084C26.8858 20.2903 26.6101 20.7137 26.463 21.0247L26.1955 21.5903L26.1686 24.0247L26.1417 26.4592H25.0027C23.9061 26.4592 23.8559 26.4669 23.6562 26.667L23.4487 26.8748V37.6363V48.3977L23.6562 48.6055C23.8559 48.8057 23.9059 48.8134 25.0052 48.8134H26.1467L26.1711 53.6233L26.1955 58.4331L26.5112 59.0728C26.8914 59.8434 27.3809 60.3235 28.1665 60.6963L28.7311 60.9643H38.9999H49.2688L49.8333 60.6963C50.6189 60.3235 51.1084 59.8434 51.4886 59.0728L51.8043 58.4331L51.8287 53.6233L51.8531 48.8134H52.9946C54.0939 48.8134 54.1439 48.8057 54.3436 48.6055L54.5511 48.3977V37.6363V26.8748L54.3436 26.667C54.1439 26.4669 54.0938 26.4592 52.9972 26.4592H51.8581L51.8312 24.0247L51.8043 21.5903L51.5368 21.0247C51.1646 20.2376 50.6854 19.7472 49.9162 19.3663L49.2776 19.0501L39.1733 19.0365C33.2535 19.0286 28.9332 19.0554 28.741 19.101ZM49.0899 20.4655C49.5542 20.6029 50.2543 21.3044 50.3915 21.7695C50.4605 22.0034 50.4943 22.8319 50.4943 24.2886V26.4592H38.9999H27.5056V24.2886C27.5056 22.8319 27.5394 22.0034 27.6083 21.7695C27.7355 21.3382 28.443 20.6042 28.8578 20.4732C29.303 20.3326 48.6162 20.3253 49.0899 20.4655ZM35.8267 22.9252C35.6959 23.0562 35.6192 23.2298 35.6192 23.3947C35.6192 23.5597 35.6959 23.7333 35.8267 23.8643L36.0341 24.0721H38.9999H41.9657L42.1731 23.8643C42.3039 23.7333 42.3806 23.5597 42.3806 23.3947C42.3806 23.2298 42.3039 23.0562 42.1731 22.9252L41.9657 22.7173H38.9999H36.0341L35.8267 22.9252ZM43.9404 22.9252C43.5211 23.3452 43.8182 24.0721 44.409 24.0721C44.7565 24.0721 45.0852 23.7428 45.0852 23.3947C45.0852 23.0466 44.7565 22.7173 44.409 22.7173C44.2444 22.7173 44.0711 22.7941 43.9404 22.9252ZM53.1988 29.8462V31.8784H38.9999H24.801V29.8462V27.814H38.9999H53.1988V29.8462ZM53.1988 40.3459V47.4586H38.9999H24.801V40.3459V33.2332H38.9999H53.1988V40.3459ZM40.622 34.7362C40.4228 34.9081 36.2952 44.5247 36.2953 44.8163C36.2954 45.2964 37.0059 45.5996 37.3779 45.2782C37.577 45.1062 41.7046 35.4897 41.7045 35.1981C41.7044 34.7179 40.9939 34.4148 40.622 34.7362ZM31.7547 37.8289C30.0341 39.5526 29.872 39.7399 29.872 40.0049C29.872 40.2693 30.0325 40.4561 31.7018 42.1348C32.7514 43.1903 33.6217 43.9976 33.7432 44.0282C34.2192 44.1478 34.6981 43.6694 34.5622 43.2099C34.5301 43.1017 33.8329 42.3368 33.0129 41.5102L31.5219 40.0072L33.0129 38.5042C33.8329 37.6776 34.5301 36.9126 34.5622 36.8044C34.6862 36.385 34.3061 35.9428 33.8214 35.9428C33.6941 35.9428 33.0561 36.5251 31.7547 37.8289ZM43.7636 36.0418C43.5622 36.1396 43.3948 36.4494 43.3948 36.7248C43.3948 36.8468 43.899 37.414 44.9343 38.4567L46.4737 40.0072L44.9343 41.5577C43.5744 42.9274 43.3948 43.1402 43.3948 43.3821C43.3948 43.7504 43.7168 44.0716 44.0862 44.0716C44.3338 44.0716 44.5589 43.875 46.2452 42.1855C47.9715 40.456 48.1278 40.2751 48.1278 40.0072C48.1278 39.7393 47.9715 39.5584 46.2452 37.8289C44.2856 35.8657 44.2216 35.8197 43.7636 36.0418ZM50.4943 56.0645C50.4943 57.2553 50.4583 58.0183 50.3915 58.2449C50.2543 58.71 49.5542 59.4114 49.0899 59.5489C48.587 59.6977 29.4128 59.6977 28.9099 59.5489C28.4456 59.4114 27.7455 58.71 27.6083 58.2449C27.5416 58.0183 27.5056 57.2553 27.5056 56.0645V48.8134H38.9999H50.4943V56.0645Z" stroke="black" stroke-width="0.83692" mask="url(#path-2-outside-1_7066_35152)"/>
</svg>
